<svg width="52" height="52" viewBox="0 0 52 52" fill="none" xmlns="http://www.w3.org/2000/svg">
<path d="M26 9.22581C16.7742 9.22581 9.22581 16.7742 9.22581 26C9.22581 35.2258 16.7742 42.7742 26 42.7742C35.2258 42.7742 42.7742 35.2258 42.7742 26C42.7742 16.7742 35.2258 9.22581 26 9.22581ZM15.7677 37.071C17.8645 33.2968 21.7226 31.0323 26 31.0323C30.2774 31.0323 34.2194 33.3806 36.2323 37.071C33.5484 39.5871 29.9419 41.0968 26 41.0968C22.0581 41.0968 18.4516 39.5871 15.7677 37.071ZM37.4903 35.8129C35.729 32.9613 33.0452 30.9484 29.9419 29.9419C32.1226 28.6 33.6323 26.2516 33.6323 23.4839C33.6323 19.2903 30.2774 15.9355 26.0839 15.9355C21.8903 15.9355 18.5355 19.2903 18.5355 23.4839C18.5355 26.2516 19.9613 28.6 22.1419 29.9419C19.0387 30.8645 16.3548 32.9613 14.5935 35.8129C12.2452 33.129 10.9032 29.7742 10.9032 26C10.9032 17.6968 17.6968 10.9032 26 10.9032C34.3032 10.9032 41.0968 17.6968 41.0968 26C41.0968 29.7742 39.7548 33.129 37.4903 35.8129ZM26 29.3548C22.729 29.3548 20.129 26.7548 20.129 23.4839C20.129 20.2129 22.729 17.6129 26 17.6129C29.271 17.6129 31.871 20.2129 31.871 23.4839C31.871 26.7548 29.271 29.3548 26 29.3548ZM51.1613 20.129H47.8903C47.3871 18.2 46.6323 16.3548 45.6258 14.6774L47.9742 12.329C48.3097 11.9935 48.3097 11.4903 47.9742 11.1548L40.8452 4.02581C40.5097 3.69032 40.0065 3.69032 39.671 4.02581L37.3226 6.37419C35.6452 5.36774 33.8 4.6129 31.871 4.10968V0.83871C31.871 0.335484 31.5355 0 31.0323 0H20.9677C20.4645 0 20.129 0.335484 20.129 0.83871V4.10968C18.2 4.6129 16.3548 5.36774 14.6774 6.37419L12.329 4.02581C11.9935 3.69032 11.4903 3.69032 11.1548 4.02581L4.02581 11.1548C3.69032 11.4903 3.69032 11.9935 4.02581 12.329L6.37419 14.6774C5.36774 16.3548 4.6129 18.2 4.10968 20.129H0.83871C0.335484 20.129 0 20.4645 0 20.9677V31.0323C0 31.5355 0.335484 31.871 0.83871 31.871H4.10968C4.6129 33.8 5.36774 35.6452 6.37419 37.3226L4.02581 39.671C3.69032 40.0065 3.69032 40.5097 4.02581 40.8452L11.1548 47.9742C11.4903 48.3097 11.9935 48.3097 12.329 47.9742L14.6774 45.6258C16.3548 46.6323 18.2 47.3871 20.129 47.8903V51.1613C20.129 51.6645 20.4645 52 20.9677 52H31.0323C31.5355 52 31.871 51.6645 31.871 51.1613V47.8903C33.8 47.3871 35.6452 46.6323 37.3226 45.6258L39.671 47.9742C40.0065 48.3097 40.5097 48.3097 40.8452 47.9742L47.9742 40.8452C48.3097 40.5097 48.3097 40.0065 47.9742 39.671L45.6258 37.3226C46.6323 35.6452 47.3871 33.8 47.8903 31.871H51.1613C51.6645 31.871 52 31.5355 52 31.0323V20.9677C52 20.4645 51.6645 20.129 51.1613 20.129ZM50.3226 30.1935H47.2194C46.8 30.1935 46.4645 30.4452 46.3806 30.8645C45.8774 33.0452 45.0387 35.1419 43.8645 36.9871C43.6968 37.3226 43.6968 37.7419 43.9484 37.9935L46.129 40.2581L40.2581 46.129L38.0774 43.9484C37.8258 43.6968 37.4065 43.6129 37.071 43.8645C35.1419 45.0387 33.129 45.8774 30.9484 46.3806C30.529 46.4645 30.2774 46.8 30.2774 47.2194V50.3226H21.8065V47.2194C21.8065 46.8 21.5548 46.4645 21.1355 46.3806C18.9548 45.8774 16.8581 45.0387 15.0129 43.8645C14.6774 43.6968 14.2581 43.6968 14.0065 43.9484L11.7419 46.129L5.87097 40.2581L8.05161 38.0774C8.30323 37.8258 8.3871 37.4065 8.13548 37.071C6.96129 35.1419 6.12258 33.129 5.61936 30.9484C5.53548 30.529 5.2 30.2774 4.78065 30.2774H1.67742V21.8065H4.78065C5.2 21.8065 5.53548 21.5548 5.61936 21.1355C6.12258 18.9548 6.96129 16.8581 8.13548 15.0129C8.30323 14.6774 8.30323 14.2581 8.05161 14.0065L5.87097 11.7419L11.7419 5.87097L13.9226 8.05161C14.1742 8.30323 14.5935 8.3871 14.929 8.13548C16.8581 6.96129 18.871 6.12258 21.0516 5.61936C21.471 5.53548 21.7226 5.2 21.7226 4.78065V1.67742H30.1097V4.78065C30.1097 5.2 30.3613 5.53548 30.7806 5.61936C32.9613 6.12258 35.0581 6.96129 36.9032 8.13548C37.2387 8.30323 37.6581 8.30323 37.9097 8.05161L40.2581 5.87097L46.129 11.7419L43.9484 13.9226C43.6968 14.1742 43.6129 14.5935 43.8645 14.929C45.0387 16.8581 45.8774 18.871 46.3806 21.0516C46.4645 21.471 46.8 21.7226 47.2194 21.7226H50.3226V30.1935Z" fill="white"/>
</svg>
