<svg width="48" height="48" viewBox="0 0 48 48" fill="none" xmlns="http://www.w3.org/2000/svg">
<path d="M23.9319 28.3238C17.026 28.3238 13.826 19.381 13.7599 13.0064C13.7552 12.56 14.1129 12.1943 14.5592 12.1901C14.5621 12.1896 14.5649 12.1896 14.5677 12.1896C15.0103 12.1896 15.3708 12.5458 15.3755 12.9894C15.4227 17.4747 17.5771 26.7078 23.931 26.7078C23.9489 26.7078 23.9659 26.7078 23.9838 26.7073C30.4103 26.6559 32.5855 17.4431 32.6327 12.9894C32.6374 12.5459 32.9979 12.1896 33.4405 12.1896C33.4434 12.1896 33.4462 12.1896 33.449 12.1901C33.8954 12.1943 34.253 12.56 34.2483 13.0064C34.187 18.8969 31.3493 28.2644 23.997 28.3238C23.9753 28.3238 23.9536 28.3238 23.9319 28.3238Z" fill="white"/>
<path d="M5.11761 47.9912C4.67125 47.9912 4.30981 47.6298 4.30981 47.1834C4.30981 41.6487 5.75837 36.5962 8.28462 33.3225C9.68317 31.5031 11.7583 31.2181 13.5891 30.968C15.1197 30.7585 16.5645 30.5604 17.5932 29.5648C18.3632 28.8353 18.3264 27.3523 18.199 25.489C18.1679 25.0436 18.5048 24.6581 18.9502 24.6274C19.3635 24.5996 19.7797 24.9327 19.8108 25.3786C19.941 27.2763 20.0883 29.4275 18.7114 30.7321C17.3091 32.0901 15.4491 32.3439 13.808 32.5695C12.065 32.8073 10.5599 33.0139 9.56521 34.3087C7.25223 37.3068 5.92541 41.9988 5.92541 47.1834C5.92541 47.6298 5.56397 47.9912 5.11761 47.9912Z" fill="white"/>
<path d="M42.8906 47.9912C42.4442 47.9912 42.0828 47.6298 42.0828 47.1834C42.0828 41.9988 40.756 37.3068 38.4439 34.3096C37.4474 33.013 35.9403 32.8073 34.1936 32.5685C32.5506 32.3439 30.6868 32.0901 29.2666 30.7283C27.9209 29.4185 28.0615 27.3372 28.1974 25.3248C28.2266 24.8784 28.6192 24.5439 29.058 24.5726C29.5034 24.6029 29.8394 24.9883 29.8092 25.4333C29.6733 27.4561 29.6393 28.8362 30.3886 29.5662C31.4257 30.5594 32.8771 30.7576 34.4125 30.9671C36.2461 31.2181 38.325 31.5021 39.7245 33.3235C42.2498 36.5962 43.6984 41.6487 43.6984 47.1834C43.6984 47.6298 43.3369 47.9912 42.8906 47.9912Z" fill="white"/>
<path d="M42.8906 47.9912H5.11761C4.67125 47.9912 4.30981 47.6298 4.30981 47.1834C4.30981 46.737 4.67125 46.3756 5.11761 46.3756H42.8906C43.3369 46.3756 43.6984 46.737 43.6984 47.1834C43.6984 47.6298 43.3369 47.9912 42.8906 47.9912Z" fill="white"/>
<path d="M24.0046 14.5106C20.0515 14.5106 16.0984 14.1525 12.2557 13.4362C11.8169 13.3541 11.5281 12.9323 11.6092 12.4935C11.6904 12.0542 12.1113 11.7664 12.552 11.847C20.043 13.2437 27.9652 13.2437 35.4562 11.847C35.8922 11.7673 36.3168 12.0542 36.3989 12.4935C36.4801 12.9323 36.1913 13.3541 35.7525 13.4362C31.9098 14.1525 27.9567 14.5106 24.0046 14.5106Z" fill="white"/>
<path d="M25.5796 6.7115H22.4286C21.9417 6.7115 21.517 6.544 21.2009 6.22786C20.8357 5.86266 20.6941 5.33844 20.831 4.85952L21.7831 1.12865C21.9681 0.448725 22.6117 0 23.3874 0H24.6208C25.3965 0 26.0401 0.448725 26.2213 1.11638L27.1839 4.88122C27.3141 5.33844 27.1725 5.86266 26.8073 6.22786C26.4912 6.544 26.0665 6.7115 25.5796 6.7115ZM22.4409 5.08553L25.5701 5.09496L24.6831 1.62267C24.667 1.61936 24.6463 1.61653 24.6208 1.61653H23.3874C23.3619 1.61653 23.3412 1.61936 23.3251 1.62267L22.4409 5.08553Z" fill="white"/>
<path d="M19.1426 4.87602C19.0775 4.87602 19.0115 4.868 18.9454 4.85148C18.5123 4.74343 18.2499 4.30462 18.3575 3.87147L18.9058 1.68022C19.0936 0.990862 19.7523 0.520432 20.5119 0.520432H22.5663C23.0127 0.520432 23.3741 0.882335 23.3741 1.3287C23.3741 1.77506 23.0127 2.13696 22.5663 2.13696H20.5119L19.9259 4.26404C19.8334 4.63114 19.5041 4.87602 19.1426 4.87602Z" fill="white"/>
<path d="M14.0468 13.1758C13.6004 13.1758 13.239 12.8138 13.239 12.3675C13.239 6.79501 15.2528 3.24864 19.2267 1.82745C19.6457 1.6774 20.1091 1.89634 20.2591 2.31628C20.4101 2.73669 20.1912 3.1991 19.7703 3.34961C16.4626 4.53253 14.8546 7.48249 14.8546 12.3675C14.8546 12.8138 14.4932 13.1758 14.0468 13.1758Z" fill="white"/>
<path d="M28.8655 4.87603C28.5041 4.87603 28.1747 4.63114 28.0823 4.26405L27.534 2.0728L25.4418 2.13698C24.9955 2.13698 24.634 1.77508 24.634 1.32871C24.634 0.88235 24.9955 0.520447 25.4418 0.520447H27.4962C28.2559 0.520447 28.9146 0.990872 29.0977 1.6642L29.6507 3.87148C29.7582 4.30463 29.4959 4.74345 29.0628 4.8515C28.9967 4.86801 28.9306 4.87603 28.8655 4.87603Z" fill="white"/>
<path d="M33.9614 13.1758C33.515 13.1758 33.1536 12.8139 33.1536 12.3675C33.1536 7.48013 31.537 4.53064 28.2115 3.35009C27.7915 3.20051 27.5717 2.73858 27.7208 2.31817C27.8708 1.89728 28.3304 1.67788 28.7532 1.82698C32.7449 3.24487 34.7692 6.79124 34.7692 12.3675C34.7692 12.8139 34.4077 13.1758 33.9614 13.1758Z" fill="white"/>
<path d="M35.4401 47.9912C34.9938 47.9912 34.6323 47.6298 34.6323 47.1834V45.3205C34.6323 44.8742 34.9938 44.5128 35.4401 44.5128C35.8865 44.5128 36.2479 44.8742 36.2479 45.3205V47.1834C36.2479 47.6298 35.8865 47.9912 35.4401 47.9912Z" fill="white"/>
<path d="M12.5681 47.9912C12.1217 47.9912 11.7603 47.6298 11.7603 47.1834V45.3205C11.7603 44.8742 12.1217 44.5128 12.5681 44.5128C13.0144 44.5128 13.3758 44.8742 13.3758 45.3205V47.1834C13.3758 47.6298 13.0144 47.9912 12.5681 47.9912Z" fill="white"/>
<path d="M23.9904 47.9912C23.544 47.9912 23.1826 47.6298 23.1826 47.1834V35.3769C23.1826 34.9306 23.544 34.5691 23.9904 34.5691C24.4368 34.5691 24.7982 34.9306 24.7982 35.3769V47.1834C24.7982 47.6298 24.4368 47.9912 23.9904 47.9912Z" fill="white"/>
<path d="M19.1966 37.0614C19.0333 37.0614 18.8729 37.0123 18.736 36.918C18.5596 36.7953 18.4397 36.6084 18.401 36.397L18.218 35.3779L15.922 35.3354C15.4822 35.3279 15.1293 34.9683 15.1293 34.5276V31.6796C15.1293 31.2332 15.4907 30.8718 15.9371 30.8718C16.3834 30.8718 16.7449 31.2332 16.7449 31.6796V33.734L18.9106 33.7745C19.2957 33.7811 19.6222 34.0595 19.6911 34.4389L19.8487 35.3128L22.0607 34.9089L17.4979 31.388C17.144 31.1152 17.0789 30.6075 17.3517 30.2546C17.6234 29.9007 18.1302 29.8347 18.485 30.1083L24.484 34.7371C24.737 34.9324 24.8511 35.2571 24.7756 35.5675C24.7002 35.878 24.4501 36.1139 24.1358 36.1715L19.3419 37.0482C19.2938 37.0576 19.2447 37.0614 19.1966 37.0614Z" fill="white"/>
<path d="M28.8117 37.0614C28.7635 37.0614 28.7154 37.0576 28.6673 37.0482L23.846 36.1715C23.5317 36.1149 23.2798 35.878 23.2052 35.5675C23.1297 35.2561 23.2449 34.9306 23.4978 34.7362L29.5242 30.1074C29.879 29.8337 30.3848 29.9026 30.6575 30.2555C30.9293 30.6094 30.8632 31.1171 30.5094 31.3889L25.9278 34.9079L28.1596 35.3137L28.3172 34.4389C28.3861 34.0595 28.7126 33.7812 29.0976 33.7745L31.2634 33.734V31.6796C31.2634 31.2332 31.6248 30.8718 32.0712 30.8718C32.5175 30.8718 32.879 31.2332 32.879 31.6796V34.5276C32.879 34.9683 32.527 35.3279 32.0863 35.3354L29.7903 35.3779L29.6072 36.397C29.5685 36.6084 29.4487 36.7953 29.2722 36.918C29.1363 37.0123 28.9749 37.0614 28.8117 37.0614Z" fill="white"/>
<path d="M16.4579 44.4024C16.3126 44.4024 16.1682 44.3637 16.0399 44.2863L12.9172 42.3961C12.6747 42.2489 12.5275 41.9875 12.5275 41.7044V39.7321C12.5275 39.2857 12.8889 38.9243 13.3353 38.9243H19.6079C20.0543 38.9243 20.4157 39.2857 20.4157 39.7321V41.7044C20.4157 41.9884 20.2666 42.2508 20.0241 42.397L16.8741 44.2872C16.7457 44.3646 16.6014 44.4024 16.4579 44.4024ZM14.1431 41.2486L16.4598 42.6509L18.8001 41.2467V40.5398H14.1431V41.2486Z" fill="white"/>
<path d="M31.5229 44.4024C31.3775 44.4024 31.2332 44.3637 31.1048 44.2863L27.9822 42.3961C27.7396 42.2489 27.5924 41.9875 27.5924 41.7044V39.7321C27.5924 39.2857 27.9538 38.9243 28.4002 38.9243H34.6729C35.1193 38.9243 35.4807 39.2857 35.4807 39.7321V41.7044C35.4807 41.9884 35.3316 42.2508 35.0891 42.397L31.939 44.2872C31.8107 44.3646 31.6663 44.4024 31.5229 44.4024ZM29.208 41.2486L31.5248 42.6509L33.8651 41.2467V40.5398H29.208V41.2486Z" fill="white"/>
<path d="M3.8776 22.4159C1.9572 22.4159 0.49637 21.7359 0.101909 20.5035C-0.0849394 19.9302 -0.0141639 19.2927 0.308576 18.6638C0.976708 17.3624 2.71592 16.1347 4.84582 15.4595C8.12042 14.4228 11.0392 15.0225 11.6375 16.8561C11.7763 17.2803 11.5441 17.7366 11.1204 17.8748C10.6938 18.015 10.2399 17.7814 10.1012 17.3572C9.87567 16.6679 7.90714 16.1837 5.33465 17.0005C3.3916 17.6158 2.13272 18.6501 1.74675 19.4017C1.62313 19.6424 1.58727 19.8457 1.63917 20.0061C1.86566 20.7106 3.78889 21.1938 6.41423 20.3879C6.83794 20.2553 7.2928 20.4969 7.42397 20.9229C7.5542 21.35 7.3145 21.802 6.88796 21.9327C5.82348 22.2597 4.7977 22.4159 3.8776 22.4159Z" fill="white"/>
<path d="M6.65118 21.9686C6.31051 21.9686 5.99437 21.752 5.88302 21.4108C5.7443 20.9862 5.97645 20.5304 6.4011 20.3921C7.15323 20.1468 7.58826 19.7759 7.73453 19.5697C7.49012 19.489 6.92202 19.4437 6.18878 19.6825C5.76506 19.8231 5.30926 19.589 5.17054 19.1649C5.03182 18.7407 5.26397 18.2844 5.68863 18.1461C6.76726 17.7932 7.8374 17.8017 8.54989 18.1655C8.94623 18.3689 9.21896 18.676 9.33881 19.053C9.67382 20.1543 8.64708 21.3599 6.90127 21.9284C6.81821 21.9558 6.73423 21.9686 6.65118 21.9686Z" fill="white"/>
<path d="M6.10376 34.0218C5.77441 34.0218 5.46488 33.818 5.34503 33.4905C3.84835 29.4039 2.09403 25.0605 0.131164 20.5813C-0.0481383 20.1722 0.137769 19.6957 0.546386 19.5164C0.954056 19.3376 1.43062 19.5235 1.61086 19.9321C3.58789 24.442 5.35447 28.8169 6.86248 32.9356C7.0163 33.3546 6.8002 33.818 6.3812 33.9718C6.28967 34.0057 6.19624 34.0218 6.10376 34.0218Z" fill="white"/>
<path d="M13.7448 30.4877C13.3852 30.4877 13.0578 30.2461 12.9634 29.8818C11.8848 25.7084 10.9402 21.5812 10.0767 17.2652C9.98986 16.8274 10.273 16.4018 10.7108 16.3145C11.1497 16.2253 11.5734 16.5103 11.6621 16.9481C12.5189 21.2348 13.457 25.3328 14.5281 29.477C14.6394 29.9092 14.3799 30.3499 13.9477 30.4622C13.8797 30.4792 13.8118 30.4877 13.7448 30.4877Z" fill="white"/>
<path d="M10.9505 30.734C10.5881 30.734 10.2588 30.4886 10.1672 30.1206C9.31226 26.6752 8.50824 23.0878 7.77688 19.4574C7.68817 19.02 7.97128 18.5939 8.40915 18.5057C8.84703 18.416 9.27168 18.701 9.36039 19.1384C10.088 22.7447 10.8873 26.309 11.7357 29.7318C11.8432 30.1649 11.579 30.6028 11.1458 30.7104C11.0807 30.7264 11.0156 30.734 10.9505 30.734Z" fill="white"/>
<path d="M44.5354 34.9796C44.4844 34.9796 44.4334 34.9749 44.3815 34.9655L41.9714 34.5002C41.5325 34.4153 41.2466 33.9916 41.3306 33.5537C41.4155 33.1149 41.8392 32.8337 42.2771 32.913L43.8955 33.2253L46.2453 21.1636L44.3193 20.7748C43.8823 20.6861 43.5992 20.26 43.6879 19.8226C43.7757 19.3852 44.1947 19.1031 44.6401 19.1903L47.3523 19.7382C47.7873 19.8264 48.0695 20.2492 47.9845 20.6847L45.3271 34.3266C45.2526 34.7126 44.9138 34.9796 44.5354 34.9796ZM34.5644 29.9394C34.5125 29.9394 34.4606 29.9347 34.4087 29.9243C33.9708 29.8394 33.6849 29.4147 33.7707 28.9769L35.8525 18.3212C35.9365 17.8838 36.3659 17.5974 36.7971 17.6823L39.5093 18.2028C39.9481 18.2868 40.235 18.7105 40.151 19.1488C40.067 19.5881 39.6357 19.8764 39.2054 19.7901L37.2841 19.4215L35.3561 29.2864C35.2816 29.6723 34.9428 29.9394 34.5644 29.9394Z" fill="white"/>
<path d="M44.2881 21.8044C44.2362 21.8044 44.1834 21.7992 44.1315 21.7888L39.0091 20.7753C38.5722 20.6889 38.2872 20.2657 38.3722 19.8283L38.7553 17.856C38.8412 17.4186 39.2658 17.1355 39.7018 17.2166L44.8241 18.2028C45.262 18.2872 45.5489 18.7105 45.4649 19.1484L45.0818 21.148C45.0412 21.3594 44.9185 21.5458 44.7401 21.6661C44.6052 21.7567 44.4476 21.8044 44.2881 21.8044ZM40.1123 19.3461L43.6474 20.0458L43.7257 19.6372L40.1887 18.9563L40.1123 19.3461Z" fill="white"/>
<path d="M43.6861 24.6807C43.6342 24.6807 43.5822 24.6755 43.5303 24.6656L38.4901 23.6795C38.0513 23.5936 37.7663 23.1689 37.8522 22.7311C37.9381 22.2927 38.3693 22.011 38.7996 22.0931L43.8399 23.0793C44.2787 23.1652 44.5637 23.5898 44.4778 24.0277C44.4023 24.4132 44.0645 24.6807 43.6861 24.6807Z" fill="white"/>
<path d="M43.2482 26.8993C43.1963 26.8993 43.1444 26.8941 43.0925 26.8842L38.0522 25.8981C37.6134 25.8122 37.3284 25.3875 37.4143 24.9497C37.5002 24.5113 37.9315 24.2292 38.3618 24.3117L43.402 25.2979C43.8408 25.3838 44.1258 25.8084 44.0399 26.2463C43.9644 26.6318 43.6266 26.8993 43.2482 26.8993Z" fill="white"/>
<path d="M42.8368 29.1179C42.7849 29.1179 42.733 29.1127 42.6811 29.1028L37.6408 28.1172C37.203 28.0313 36.917 27.6071 37.0029 27.1687C37.0888 26.7309 37.52 26.4473 37.9504 26.5308L42.9906 27.5165C43.4285 27.6024 43.7144 28.0266 43.6285 28.4649C43.553 28.8504 43.2152 29.1179 42.8368 29.1179Z" fill="white"/>
<path d="M42.3989 31.3087C42.3498 31.3087 42.2998 31.3049 42.2488 31.2955L40.4955 30.9671C40.0576 30.885 39.7679 30.4622 39.85 30.0234C39.9321 29.5855 40.3426 29.2939 40.7937 29.3784L42.547 29.7068C42.9849 29.7884 43.2746 30.2112 43.1925 30.65C43.1198 31.0379 42.7801 31.3087 42.3989 31.3087Z" fill="white"/>
</svg>
