<svg width="54" height="60" viewBox="0 0 54 60" fill="none" xmlns="http://www.w3.org/2000/svg">
<path d="M25.269 39.6481L25.2548 39.7723C24.8612 39.7273 24.5448 39.4128 24.6066 39.0333C24.6672 38.6612 25.0614 38.4314 25.4538 38.4774M25.269 39.6481L25.454 38.4775C25.454 38.4775 25.4539 38.4774 25.4538 38.4774M25.269 39.6481L25.2548 39.7723C25.7647 39.8306 26.2815 39.8603 26.7912 39.8603C29.9887 39.8603 33.1551 38.7739 37.3028 36.2609C39.718 37.4134 41.7638 38.3321 43.4259 39.0785L43.4446 39.0868C45.3515 39.943 46.8149 40.6002 47.9405 41.201C49.0661 41.8018 49.8427 42.3407 50.382 42.9558C51.4547 44.1793 51.615 45.7327 51.615 48.806C51.615 49.6087 51.6018 50.4949 51.5864 51.5223L51.5862 51.535C51.5688 52.7092 51.5493 54.0241 51.5453 55.5197M25.269 39.6481L51.5453 55.5197M25.4538 38.4774C25.898 38.5282 26.348 38.5539 26.7912 38.5539C29.7317 38.5539 32.7251 37.4868 36.8136 34.9593M25.4538 38.4774L36.8136 34.9593M36.8136 34.9593V34.9593C37.0513 34.8123 37.3663 34.7976 37.6203 34.9197C40.2044 36.1597 42.3819 37.1374 44.1333 37.9239L44.1418 37.9277L44.1485 37.9307C46.1194 38.8157 47.654 39.5048 48.8536 40.1516C50.055 40.7995 50.9298 41.4098 51.5758 42.1413C52.9013 43.6422 53.125 45.5142 53.125 48.8061C53.125 49.6164 53.1117 50.5057 53.0963 51.5338L53.0962 51.5392L53.0959 51.56C53.0765 52.8653 53.0546 54.3428 53.0546 56.0471C53.0546 56.3689 52.7922 56.6228 52.461 56.6853C44.9585 58.1012 37.4032 58.9092 30.0046 59.087C30.0008 59.0871 29.9971 59.0872 29.9933 59.0873C29.9896 59.0874 29.9859 59.0874 29.9822 59.0874C29.5959 59.0874 29.2406 58.8264 29.2278 58.4536M36.8136 34.9593L29.9616 57.7814M29.2278 58.4536L29.3528 58.4493L29.2278 58.4535C29.2278 58.4536 29.2278 58.4536 29.2278 58.4536ZM29.2278 58.4536C29.2146 58.0724 29.566 57.7907 29.9616 57.7814M29.9616 57.7814C37.0708 57.6105 44.3293 56.8497 51.5453 55.5197M29.9616 57.7814C29.9616 57.7814 29.9616 57.7814 29.9615 57.7814L51.5453 55.5197M9.73424 37.979L9.73424 37.979C11.5168 37.1821 13.7343 36.1908 16.385 34.9197L9.73424 37.979ZM9.73424 37.979L9.7289 37.9814C7.82922 38.8308 6.32532 39.5033 5.14107 40.1368C3.95553 40.7711 3.08053 41.3713 2.44403 42.0805C1.16477 43.5057 0.875 45.3422 0.875 48.662C0.875 49.4802 0.889158 50.3825 0.905541 51.4256C0.926587 52.7658 0.950349 54.2839 0.950349 56.0472C0.950349 56.367 1.21009 56.6205 1.53905 56.6845C8.31104 58.003 15.2211 58.796 22.0774 59.0411M9.73424 37.979L22.0774 59.0411M17.221 34.9784L17.2211 34.9784C17.7137 35.3155 18.203 35.6317 18.6755 35.9186L18.6756 35.9186C18.8438 36.0208 18.9534 36.175 18.9861 36.3464C19.0189 36.5186 18.9723 36.6987 18.846 36.8449L18.846 36.8449C18.5987 37.1308 18.1366 37.188 17.8069 36.9881L17.8068 36.9881C17.4387 36.7645 17.0613 36.5244 16.6807 36.2714C14.2061 37.4508 12.1245 38.3816 10.434 39.1375L10.4293 39.1396L10.3782 39.0255L10.4293 39.1396C8.55143 39.9791 7.11046 40.6234 6.00221 41.2124C4.89383 41.8014 4.12932 42.3295 3.59851 42.932C2.54289 44.1302 2.38504 45.6509 2.38504 48.662C2.38504 49.4636 2.3989 50.3515 2.41495 51.3793L2.41539 51.4077C2.41539 51.4077 2.41539 51.4077 2.41539 51.4077C2.43441 52.617 2.45559 53.972 2.45966 55.5231C8.95523 56.7571 15.573 57.5012 22.1403 57.7362C22.5357 57.7503 22.8826 58.0362 22.8633 58.4176L17.221 34.9784ZM17.221 34.9784C16.9807 34.814 16.6505 34.7921 16.3852 34.9197L17.221 34.9784ZM22.0774 59.0411C22.0887 59.0416 22.0994 59.0418 22.1097 59.0418C22.4913 59.0418 22.8447 58.7863 22.8633 58.4176L22.0774 59.0411Z" fill="white" stroke="white" stroke-width="0.25"/>
<path d="M34.0223 52.9656L34.0223 52.9655C33.8781 52.7723 33.8611 52.5251 33.9815 52.3171C33.9815 52.3171 33.9815 52.3171 33.9815 52.3171L42.3467 37.8725L42.3467 37.8725L42.4548 37.9351C42.5297 37.8058 42.6643 37.7078 42.8276 37.6633L34.0223 52.9656ZM34.0223 52.9656C34.1644 53.1559 34.4058 53.2638 34.6565 53.2638H40.1351C40.4131 53.2638 40.6787 53.1308 40.81 52.9035L48.0238 40.4366C48.2106 40.1137 48.0579 39.738 47.7185 39.5736L34.0223 52.9656ZM43.5633 39.1457C44.607 39.6144 45.538 40.0325 46.3484 40.4128L39.6683 51.9573H35.8797L43.3538 39.0514L43.5348 39.1328L43.5348 39.1329L43.5633 39.1457Z" fill="white" stroke="white" stroke-width="0.25"/>
<path d="M11.6433 58.2435L11.6433 58.2435C16.6769 58.8284 21.7959 59.125 26.8581 59.125C31.9828 59.125 37.1957 58.8211 42.3521 58.2216L42.3521 58.2216C42.7088 58.18 43.0062 57.9178 43.0062 57.5742V54.6338C43.0062 54.2534 42.6465 53.9807 42.2511 53.9807H40.6091C40.2139 53.9807 39.854 54.2534 39.854 54.6338C39.854 55.0144 40.2138 55.2871 40.6091 55.2871H41.496V57.0012C36.6199 57.5439 31.699 57.8187 26.8579 57.8187C22.0823 57.8187 17.2549 57.551 12.4993 57.0231V55.2871H32.7338C33.1293 55.2871 33.4889 55.0143 33.4889 54.6338C33.4889 54.2534 33.1293 53.9807 32.7338 53.9807H11.7442C11.3489 53.9807 10.9893 54.2535 10.9893 54.6338V57.5962C10.9893 57.9398 11.2866 58.202 11.6433 58.2435Z" fill="white" stroke="white" stroke-width="0.25"/>
<path d="M13.9401 18.3232L13.9401 18.3232C13.803 18.9858 13.7333 19.6532 13.7333 20.3067C13.7333 23.0854 14.8725 27.0516 17.0962 30.3246C19.3211 33.5993 22.6463 36.1998 27.0239 36.1998C31.4045 36.1998 34.7322 33.5993 36.9587 30.3246C39.184 27.0517 40.3242 23.0855 40.3243 20.3068C40.3243 19.6669 40.2529 18.9995 40.1125 18.3229C40.0452 17.998 39.7195 17.7856 39.3695 17.7856H36.8965C36.5012 17.7856 36.1415 18.0584 36.1415 18.4388C36.1415 18.8191 36.5012 19.0919 36.8965 19.0919H38.7218C38.7834 19.5071 38.8142 19.9139 38.8142 20.3066C38.8142 23.1727 37.582 26.8438 35.6708 29.65C34.0328 32.0549 31.2115 34.8933 27.024 34.8933C22.8398 34.8933 20.0207 32.0551 18.3842 29.6502C16.4747 26.8441 15.2435 23.173 15.2435 20.3066C15.2435 19.9067 15.2732 19.4999 15.3321 19.0919H29.021C29.4165 19.0919 29.7761 18.8192 29.7761 18.4388C29.7761 18.0584 29.4165 17.7856 29.021 17.7856H14.6833C14.3331 17.7856 14.0073 17.9982 13.9401 18.3232Z" fill="white" stroke="white" stroke-width="0.25"/>
<path d="M33.3078 24.2166C33.1035 24.0453 32.7761 23.9584 32.3349 23.9584C31.4298 23.9584 30.4489 24.3214 30.4393 24.3252C30.1214 24.4441 29.7493 24.3249 29.6071 24.0589C29.4649 23.7929 29.6061 23.481 29.9231 23.3614L33.2275 24.3124M33.3078 24.2166L33.2275 24.3124M33.3078 24.2166C33.4306 24.3197 33.5921 24.3712 33.7532 24.3712C33.9145 24.3712 34.0758 24.3197 34.1987 24.2165L34.279 24.3123C34.279 24.3123 34.279 24.3123 34.2791 24.3122C34.4284 24.1871 34.5083 24.0177 34.5083 23.8431C34.5083 23.6684 34.4284 23.499 34.279 23.3737C33.8008 22.9728 33.1417 22.7771 32.3349 22.7771C31.1306 22.7771 29.9307 23.225 29.8791 23.2444L29.879 23.2444C29.5074 23.3846 29.3115 23.771 29.4969 24.1178C29.6737 24.4488 30.1174 24.579 30.4831 24.4423L30.4831 24.4423L30.4848 24.4416C30.4848 24.4416 30.485 24.4415 30.4854 24.4414C30.4917 24.4391 30.5511 24.4173 30.6505 24.3853C30.756 24.3514 30.9052 24.3064 31.082 24.2616C31.437 24.1715 31.8971 24.0834 32.3349 24.0834C32.7644 24.0834 33.0563 24.1689 33.2275 24.3124M33.3078 24.2166L33.2275 24.3124C33.2275 24.3124 33.2275 24.3124 33.2275 24.3124" fill="white" stroke="white" stroke-width="0.25"/>
<path d="M24.5555 24.1189C24.7417 23.7718 24.5454 23.3847 24.1735 23.2444L24.1733 23.2444C24.1217 23.225 22.9219 22.7771 21.718 22.7771C20.9114 22.7771 20.2523 22.9728 19.7739 23.3737L19.7739 23.3737L24.4454 24.0599M24.5555 24.1189L24.4454 24.0599M24.5555 24.1189C24.5555 24.1189 24.5555 24.1189 24.5555 24.1189L24.4454 24.0599M24.5555 24.1189C24.4245 24.3634 24.1469 24.4964 23.8707 24.4964C23.7702 24.4964 23.6676 24.479 23.5693 24.4421M24.4454 24.0599C24.3406 24.2554 24.1112 24.3714 23.8707 24.3714C23.7846 24.3714 23.6969 24.3564 23.6131 24.3251M23.5693 24.4421L23.6131 24.3251M23.5693 24.4421C23.5693 24.4421 23.5693 24.4421 23.5693 24.4421M23.5693 24.4421L23.5693 24.4421M23.6131 24.3251L23.5693 24.4421M23.6131 24.3251L23.5693 24.4421M20.8254 24.3124L20.7451 24.2166L20.8254 24.3124C20.8254 24.3124 20.8254 24.3124 20.8254 24.3124Z" fill="white" stroke="white" stroke-width="0.25"/>
<path d="M23.5739 2.52173L23.5739 2.52171L23.6024 2.50976L23.6025 2.50972L23.6508 2.625C23.846 2.54298 24.0782 2.5516 24.2641 2.64763C24.45 2.7438 24.5631 2.91391 24.5631 3.09709V3.28646C24.5631 3.57819 24.2809 3.81457 23.933 3.81457C23.5863 3.81457 23.3051 3.57994 23.303 3.28982L23.5739 2.52173ZM23.5739 2.52173C23.2728 2.64811 23.0893 2.94235 23.167 3.24929C23.1724 3.27074 23.1754 3.28475 23.1771 3.29326C23.1776 3.29571 23.1779 3.29758 23.1781 3.29895L23.5739 2.52173Z" fill="white" stroke="white" stroke-width="0.25"/>
<path d="M12.0593 14.5906L12.0593 14.5886C12.0593 11.359 13.5247 8.31118 16.1764 5.99851C16.4638 5.74784 16.9302 5.74076 17.2279 5.98055C17.3799 6.103 17.4636 6.27072 17.4677 6.4453C17.4718 6.61996 17.3959 6.79093 17.2493 6.9189L17.2493 6.91894C14.971 8.90604 13.6788 11.4897 13.576 14.2273H40.0199C39.8738 10.4746 37.4141 6.99921 33.5666 5.06982V6.65745C33.5666 7.46935 32.7885 8.09405 31.8794 8.09405H30.5811C30.5229 8.09405 30.4654 8.09144 30.4087 8.08638V8.50335C30.4087 9.65767 29.293 10.5599 27.9703 10.5599H25.621C24.2959 10.5599 23.1778 9.65789 23.1778 8.50335V8.08671C23.1227 8.09154 23.0668 8.09405 23.0103 8.09405H21.7023C20.7978 8.09405 20.0246 7.46871 20.0246 6.65745V6.36652C20.0246 5.98598 20.3843 5.71341 20.7797 5.71341C21.1752 5.71341 21.5346 5.98617 21.5346 6.36652V6.65745C21.5346 6.71127 21.5961 6.78769 21.7022 6.78769H23.0101C23.115 6.78769 23.1761 6.71522 23.1781 6.65992C23.1911 6.28474 23.5532 6.02 23.9435 6.02631M12.0593 14.5906L12.1891 14.8877C12.1938 15.1766 12.4745 15.4087 12.8191 15.4087H40.7721C41.1137 15.4087 41.3927 15.1807 41.4019 14.8946L41.4115 14.5954L41.5365 14.5997M12.0593 14.5906L12.0642 14.8897L12.1891 14.8877L12.0642 14.8897C12.0702 15.2662 12.4273 15.5337 12.8191 15.5337H40.7721C41.1607 15.5337 41.5149 15.2709 41.5268 14.8986L41.5365 14.5997M12.0593 14.5906L41.5365 14.5997M23.9435 6.02631C24.3352 6.03104 24.6877 6.30293 24.6877 6.67941V8.50335C24.6877 8.89576 25.0831 9.25356 25.6208 9.25356H27.9701C28.5047 9.25356 28.8987 8.8962 28.8987 8.50335V6.67954C28.8987 6.30291 29.2518 6.03103 29.6433 6.02644L29.6448 6.02642L29.6448 6.02643H29.6448H29.6448H29.6449H29.6449H29.6449H29.6449H29.6449H29.645H29.645H29.645H29.645H29.645H29.645H29.6451H29.6451H29.6451H29.6451H29.6451H29.6452H29.6452H29.6452H29.6452H29.6452H29.6452H29.6453H29.6453H29.6453H29.6453H29.6453H29.6454H29.6454H29.6454H29.6454H29.6454H29.6454H29.6455H29.6455H29.6455H29.6455H29.6455H29.6455H29.6456H29.6456H29.6456H29.6456H29.6456H29.6457H29.6457H29.6457H29.6457H29.6457H29.6457H29.6458H29.6458H29.6458H29.6458H29.6458H29.6459H29.6459H29.6459H29.6459H29.6459H29.6459H29.646H29.646H29.646H29.646H29.646H29.646H29.6461H29.6461H29.6461H29.6461H29.6461H29.6462H29.6462H29.6462H29.6462H29.6462H29.6462H29.6463H29.6463H29.6463H29.6463H29.6463H29.6464H29.6464H29.6464H29.6464H29.6464H29.6464H29.6465H29.6465H29.6465H29.6465H29.6465H29.6465H29.6466H29.6466H29.6466H29.6466H29.6466H29.6467H29.6467H29.6467H29.6467H29.6467H29.6467H29.6468H29.6468H29.6468H29.6468H29.6468H29.6469H29.6469H29.6469H29.6469H29.6469H29.6469H29.647H29.647H29.647H29.647H29.647H29.647H29.6471H29.6471H29.6471H29.6471H29.6471H29.6472H29.6472H29.6472H29.6472H29.6472H29.6472H29.6473H29.6473H29.6473H29.6473H29.6473H29.6474H29.6474H29.6474H29.6474H29.6474H29.6474H29.6475H29.6475H29.6475H29.6475H29.6475H29.6476H29.6476H29.6476H29.6476H29.6476H29.6476H29.6477H29.6477H29.6477H29.6477H29.6477H29.6477H29.6478H29.6478H29.6478H29.6478H29.6478H29.6479H29.6479H29.6479H29.6479H29.6479H29.6479H29.648H29.648H29.648H29.648H29.648H29.6481H29.6481H29.6481H29.6481H29.6481H29.6481H29.6482H29.6482H29.6482H29.6482H29.6482H29.6482H29.6483H29.6483H29.6483H29.6483H29.6483H29.6484H29.6484H29.6484H29.6484H29.6484H29.6484H29.6485H29.6485H29.6485H29.6485H29.6485H29.6486H29.6486H29.6486H29.6486H29.6486H29.6486H29.6487H29.6487H29.6487H29.6487H29.6487H29.6487H29.6488H29.6488H29.6488H29.6488H29.6488H29.6489H29.6489H29.6489H29.6489H29.6489H29.6489H29.649H29.649H29.649H29.649H29.649H29.6491H29.6491H29.6491H29.6491H29.6491H29.6491H29.6492H29.6492H29.6492H29.6492H29.6492H29.6492H29.6493H29.6493H29.6493H29.6493H29.6493H29.6494H29.6494H29.6494H29.6494H29.6494H29.6494H29.6495H29.6495H29.6495H29.6495H29.6495H29.6496H29.6496H29.6496H29.6496H29.6496H29.6496H29.6497H29.6497H29.6497H29.6497H29.6497H29.6497H29.6498H29.6498H29.6498H29.6498H29.6498H29.6499H29.6499H29.6499H29.6499H29.6499H29.6499H29.65H29.65H29.65H29.65H29.65H29.6501H29.6501H29.6501H29.6501H29.6501H29.6501H29.6502H29.6502H29.6502H29.6502H29.6502H29.6502H29.6503H29.6503H29.6503H29.6503H29.6503H29.6504H29.6504H29.6504H29.6504H29.6504H29.6504H29.6505H29.6505H29.6505H29.6505H29.6505H29.6506H29.6506H29.6506H29.6506H29.6506H29.6506H29.6507H29.6507H29.6507H29.6507H29.6507H29.6507H29.6508H29.6508H29.6508H29.6508H29.6508H29.6509H29.6509H29.6509H29.6509H29.6509H29.6509H29.651H29.651H29.651H29.651H29.651H29.6511H29.6511H29.6511H29.6511H29.6511H29.6511H29.6512H29.6512H29.6512H29.6512H29.6512H29.6513H29.6513H29.6513H29.6513H29.6513H29.6513H29.6514H29.6514H29.6514H29.6514H29.6514H29.6514H29.6515H29.6515H29.6515H29.6515H29.6515H29.6516H29.6516H29.6516H29.6516H29.6516H29.6516H29.6517H29.6517H29.6517H29.6517H29.6517H29.6518H29.6518H29.6518H29.6518H29.6518H29.6518H29.6519H29.6519H29.6519H29.6519H29.6519H29.6519H29.652H29.652H29.652H29.652H29.652H29.6521H29.6521H29.6521H29.6521H29.6521H29.6521H29.6522H29.6522H29.6522H29.6522H29.6522H29.6523H29.6523H29.6523H29.6523H29.6523H29.6523H29.6524H29.6524H29.6524H29.6524H29.6524H29.6524H29.6525H29.6525H29.6525H29.6525H29.6525H29.6526H29.6526H29.6526H29.6526H29.6526H29.6526H29.6527H29.6527H29.6527H29.6527H29.6527H29.6528H29.6528H29.6528H29.6528H29.6528H29.6528H29.6529H29.6529H29.6529H29.6529H29.6529H29.6529H29.653H29.653H29.653H29.653H29.653H29.6531H29.6531H29.6531H29.6531H29.6531H29.6531H29.6532H29.6532H29.6532H29.6532H29.6532H29.6533H29.6533H29.6533H29.6533H29.6533H29.6533H29.6534H29.6534H29.6534H29.6534H29.6534H29.6535H29.6535H29.6535H29.6535H29.6535H29.6535H29.6536H29.6536H29.6536H29.6536H29.6536H29.6536H29.6537H29.6537H29.6537H29.6537H29.6537H29.6538H29.6538H29.6538H29.6538H29.6538H29.6538H29.6539H29.6539H29.6539H29.6539H29.6539H29.6539C30.0409 6.02643 30.3959 6.28815 30.4083 6.6604C30.4101 6.71136 30.4739 6.78782 30.5811 6.78782H31.8794C31.9975 6.78782 32.0564 6.71041 32.0564 6.65759V3.99426C32.0564 3.75904 32.2001 3.55146 32.4172 3.43683L32.4172 3.43682C32.6337 3.32255 32.9014 3.31003 33.1298 3.40174C35.6055 4.39451 37.7026 5.94261 39.1924 7.88116C40.7248 9.87517 41.5367 12.1922 41.5367 14.5813V14.5821C41.5367 14.5863 41.5367 14.5928 41.5365 14.5995C41.5365 14.5995 41.5365 14.5996 41.5365 14.5997M23.9435 6.02631C23.9434 6.0263 23.9433 6.0263 23.9432 6.0263L23.9418 6.15129L23.9438 6.02631C23.9437 6.02631 23.9436 6.02631 23.9435 6.02631ZM23.3028 7.94507C23.2617 7.95184 23.22 7.95725 23.1778 7.9612L23.3028 8.07164V7.94507Z" fill="white" stroke="white" stroke-width="0.25"/>
<path d="M29.9799 2.50682L29.9798 2.50681L29.9468 2.49484C29.9468 2.49484 29.9468 2.49484 29.9468 2.49484C29.9468 2.49483 29.9468 2.49483 29.9467 2.49482C29.7196 2.41245 29.4577 2.43077 29.2479 2.5462C29.0371 2.66216 28.8989 2.86662 28.8989 3.0971V3.28647C28.8989 3.65689 29.2413 3.92731 29.6269 3.93912L29.6307 3.81418L29.6264 3.9391C29.6356 3.93942 29.6449 3.93958 29.6542 3.93958C30.0283 3.93958 30.375 3.6951 30.407 3.33666L30.4071 3.336C30.409 3.3137 30.4111 3.29976 30.4124 3.2926L30.4132 3.28849C30.5225 2.95676 30.3171 2.62909 29.9799 2.50682Z" fill="white" stroke="white" stroke-width="0.25"/>
<path d="M12.4218 17.7671L12.4218 17.7671L12.9137 18.503L13.036 18.5289C13.036 18.5289 13.036 18.5289 13.036 18.5288C13.116 18.1514 12.8139 17.8253 12.4218 17.7671Z" fill="white" stroke="white" stroke-width="0.25"/>
<path d="M25.621 10.5381H27.9703C29.2938 10.5381 30.4088 9.62966 30.4088 8.46941V2.93183C30.4088 1.77739 29.2931 0.875 27.9703 0.875H25.621C24.2959 0.875 23.1779 1.77718 23.1779 2.93183V8.46941C23.1779 9.62988 24.2951 10.5381 25.621 10.5381ZM24.6879 2.93183C24.6879 2.53926 25.0833 2.18136 25.621 2.18136H27.9703C28.505 2.18136 28.8989 2.53893 28.8989 2.93183V8.46941C28.8989 8.87029 28.5032 9.2316 27.9703 9.2316H25.621C25.085 9.2316 24.6879 8.86984 24.6879 8.46941V2.93183Z" fill="white" stroke="white" stroke-width="0.25"/>
<path d="M29.8823 13.2332H33.0159C33.4114 13.2332 33.771 12.9605 33.771 12.5801C33.771 12.1996 33.4114 11.9268 33.0159 11.9268H29.8823C29.4868 11.9268 29.1272 12.1996 29.1272 12.5801C29.1272 12.9605 29.4869 13.2332 29.8823 13.2332Z" fill="white" stroke="white" stroke-width="0.25"/>
<path d="M16.6142 13.2332H27.2808C27.6762 13.2332 28.0359 12.9605 28.0359 12.5801C28.0359 12.1996 27.6762 11.9268 27.2808 11.9268H16.6142C16.2189 11.9268 15.8593 12.1996 15.8593 12.5801C15.8593 12.9605 16.2187 13.2332 16.6142 13.2332Z" fill="white" stroke="white" stroke-width="0.25"/>
<path d="M23.0105 3.1883H23.0105C23.1216 3.1883 23.1781 3.26441 23.1781 3.30857V6.65746C23.1781 6.71127 23.1166 6.78769 23.0105 6.78769H21.7026C21.5965 6.78769 21.535 6.71127 21.535 6.65746V3.30843C21.535 3.28811 21.546 3.25953 21.5782 3.2326C21.6099 3.20603 21.6547 3.18817 21.7026 3.18817C21.7026 3.18817 21.7026 3.18817 21.7026 3.18817L23.0105 3.1883ZM21.7024 8.09405H23.0103C23.9151 8.09405 24.6881 7.46873 24.6879 6.65746C24.6879 6.65745 24.6879 6.65744 24.6879 6.65743V3.30857C24.6879 2.50191 23.914 1.88181 23.0103 1.88181H21.7024C20.7986 1.88181 20.0247 2.50205 20.0247 3.30857V6.65746C20.0247 7.46872 20.7978 8.09405 21.7024 8.09405Z" fill="white" stroke="white" stroke-width="0.25"/>
<path d="M31.8794 3.1883H31.8795C31.9998 3.1883 32.0565 3.26769 32.0565 3.30857V6.65746C32.0565 6.71028 31.9976 6.78769 31.8795 6.78769H30.5812C30.4676 6.78769 30.4088 6.71185 30.4088 6.65746V3.30843C30.4088 3.26599 30.4655 3.18817 30.5812 3.18817C30.5812 3.18817 30.5812 3.18817 30.5812 3.18817L31.8794 3.1883ZM30.5812 8.09405H31.8795C32.7884 8.09405 33.5667 7.46937 33.5667 6.65746V3.30857C33.5667 2.50125 32.7875 1.88181 31.8795 1.88181H30.5812C29.6755 1.88181 28.8989 2.50173 28.8989 3.30857V6.65746C28.8989 7.46902 29.6744 8.09405 30.5812 8.09405Z" fill="white" stroke="white" stroke-width="0.25"/>
<path d="M23.5757 31.4185L23.5757 31.4185C23.229 31.2222 23.1211 30.8075 23.3703 30.498L23.3703 30.4979C23.6074 30.2039 24.0679 30.1353 24.4038 30.3253L24.4038 30.3253C25.2107 30.7818 26.0124 31.0103 26.7878 31.0103C27.5637 31.0103 28.368 30.7817 29.1788 30.3247L23.5757 31.4185ZM23.5757 31.4185C24.6263 32.0131 25.7072 32.3168 26.7878 32.3168C27.8678 32.3168 28.9504 32.0131 30.0047 31.419L30.0047 31.419M23.5757 31.4185L30.0047 31.419M30.0047 31.419C30.3516 31.2234 30.4606 30.8088 30.2121 30.499M30.0047 31.419L30.2121 30.499M30.2121 30.499C29.9761 30.2045 29.5157 30.1347 29.1789 30.3247L30.2121 30.499Z" fill="white" stroke="white" stroke-width="0.25"/>
<path d="M13.5282 52.9039L13.5282 52.9039L6.30904 40.4369C6.30903 40.4369 6.30903 40.4369 6.30903 40.4369C6.12181 40.1137 6.27478 39.7381 6.61411 39.5736L6.61414 39.5736C7.55839 39.1163 8.68145 38.6124 9.97901 38.0303C9.97903 38.0303 9.97905 38.0303 9.97907 38.0303L10.9668 37.5865L10.9669 37.5865L11.0181 37.7005C11.1691 37.6325 11.347 37.6192 11.5102 37.6635C11.6734 37.7078 11.8081 37.8061 11.8829 37.9355L13.5282 52.9039ZM13.5282 52.9039C13.6596 53.1308 13.9251 53.2638 14.2032 53.2638H19.6721C19.9228 53.2638 20.1642 53.1559 20.3059 52.9656L20.2057 52.8909L13.5282 52.9039ZM7.98475 40.4131C8.76992 40.0451 9.66874 39.6418 10.6762 39.1897L10.6762 39.1897L10.9839 39.0514L18.4497 51.9573H14.6696L7.98475 40.4131Z" fill="white" stroke="white" stroke-width="0.25"/>
<path d="M35.9674 55.2293L35.9672 55.2292C35.5968 55.0847 35.4067 54.695 35.5978 54.3504L35.5978 54.3504L36.7201 52.3273C36.7201 52.3273 36.7201 52.3273 36.7201 52.3273C36.9021 51.9989 37.3482 51.8735 37.7117 52.0153L35.9674 55.2293ZM35.9674 55.2293C36.0684 55.2685 36.1741 55.2871 36.2777 55.2871C36.5508 55.2871 36.8257 55.1573 36.9588 54.9172L36.8495 54.8566M35.9674 55.2293L36.0127 55.1128C36.0986 55.1462 36.1889 55.1621 36.2777 55.1621C36.5154 55.1621 36.7429 55.0489 36.8495 54.8566M36.8495 54.8566L36.9588 54.9172L38.0812 52.894L37.9719 52.8333M36.8495 54.8566L37.9719 52.8333M37.9719 52.8333C38.1187 52.5688 37.9818 52.2547 37.6663 52.1317M37.9719 52.8333L38.0812 52.8939M37.6663 52.1317L38.0812 52.8939M37.6663 52.1317L37.7117 52.0153M37.6663 52.1317L37.7117 52.0153M37.6663 52.1317C37.3506 52.0086 36.976 52.1235 36.8294 52.3879L37.6663 52.1317ZM38.0812 52.8939C38.2725 52.5493 38.0821 52.1596 37.7117 52.0153M38.0812 52.8939L37.7117 52.0153" fill="white" stroke="white" stroke-width="0.25"/>
<path d="M18.74 54.3503L18.74 54.3503C18.9311 54.6948 18.7411 55.0845 18.3707 55.2291C18.3706 55.2291 18.3706 55.2291 18.3706 55.2291L18.74 54.3503ZM18.74 54.3503L17.6179 52.3272M18.74 54.3503L17.6179 52.3272M17.6179 52.3272C17.4357 51.9985 16.9893 51.8735 16.6263 52.0151L17.6179 52.3272ZM16.2568 52.8938L17.379 54.9171L16.6262 52.0151C16.2559 52.1595 16.0655 52.5492 16.2568 52.8938C16.2568 52.8938 16.2568 52.8938 16.2568 52.8938Z" fill="white" stroke="white" stroke-width="0.25"/>
<path d="M29.1824 31.4212L29.1823 31.4212C28.3699 30.9684 27.5639 30.7417 26.7864 30.7417C26.0098 30.7417 25.2076 30.968 24.4011 31.42L29.1824 31.4212ZM29.1824 31.4212C29.3097 31.4921 29.4521 31.5251 29.5913 31.5251C29.8264 31.5251 30.0656 31.4299 30.2147 31.2421L30.2149 31.2419C30.4612 30.9307 30.3496 30.5167 30.0015 30.3227L30.0014 30.3227C27.8867 29.1449 25.6816 29.1451 23.5787 30.3238C23.231 30.5187 23.1207 30.9329 23.3684 31.2435L23.3684 31.2435M29.1824 31.4212L23.3684 31.2435M23.3684 31.2435C23.6037 31.5385 24.064 31.6093 24.401 31.4201L23.3684 31.2435Z" fill="white" stroke="white" stroke-width="0.25"/>
<path d="M22.2302 55.2869H31.77C32.1655 55.2869 32.5251 55.0143 32.5251 54.6337V51.1513C32.5251 50.7708 32.1655 50.498 31.77 50.498H22.2302C21.8348 50.498 21.4752 50.7708 21.4752 51.1513V54.6337C21.4752 55.0141 21.8346 55.2869 22.2302 55.2869ZM31.0151 51.8045V53.9807H22.9853V51.8045H31.0151Z" fill="white" stroke="white" stroke-width="0.25"/>
<path d="M33.6744 19.8232L34.5942 21.1513C34.7337 21.3528 34.9826 21.4682 35.2417 21.4682H39.5551C39.9504 21.4682 40.31 21.1954 40.31 20.8149C40.31 20.4346 39.9504 20.1618 39.5551 20.1618H35.6701L34.32 18.2122L34.3199 18.2121C34.1802 18.0107 33.9315 17.8953 33.6722 17.8953H33.6722H33.6722H33.6722H33.6722H33.6722H33.6722H33.6721H33.6721H33.6721H33.6721H33.6721H33.6721H33.672H33.672H33.672H33.672H33.672H33.672H33.672H33.6719H33.6719H33.6719H33.6719H33.6719H33.6719H33.6718H33.6718H33.6718H33.6718H33.6718H33.6718H33.6718H33.6717H33.6717H33.6717H33.6717H33.6717H33.6717H33.6716H33.6716H33.6716H33.6716H33.6716H33.6716H33.6716H33.6715H33.6715H33.6715H33.6715H33.6715H33.6715H33.6714L33.6714 18.0203V17.8953L33.6713 17.8953C33.4115 17.8956 33.1625 18.0118 33.0235 18.2138L31.6683 20.1838H17.8696C17.4741 20.1838 17.1145 20.4565 17.1145 20.837C17.1145 21.2174 17.4742 21.4901 17.8696 21.4901H32.098C32.3579 21.4901 32.6076 21.3742 32.7469 21.1717L33.6744 19.8232Z" fill="white" stroke="white" stroke-width="0.25"/>
<path d="M31.9912 24.2636H32.0409H32.0955C32.0947 24.2811 32.0671 24.3054 32.0409 24.3054C32.0201 24.3054 31.9919 24.2815 31.9912 24.2636ZM31.9912 24.2636L31.995 24.2635H31.9912C31.9912 24.2635 31.9912 24.2636 31.9912 24.2636ZM30.7104 24.2638C30.7104 24.9061 31.3298 25.3912 32.0409 25.3912C32.7542 25.3912 33.3763 24.9064 33.3763 24.2638C33.3763 23.6061 32.7673 23.1241 32.0409 23.1241C31.317 23.1241 30.7104 23.6065 30.7104 24.2638ZM32.0409 24.2097C32.0221 24.2097 31.9939 24.2317 31.9914 24.2597L32.0409 24.2615L32.0458 24.2617L32.0953 24.2599C32.0931 24.2342 32.0673 24.2097 32.0409 24.2097Z" fill="white" stroke="white" stroke-width="0.25"/>
<path d="M22.1376 24.2635C22.1376 24.2635 22.1376 24.2636 22.1376 24.2636C22.1368 24.2816 22.1085 24.3054 22.0878 24.3054C22.0573 24.3054 22.0377 24.2806 22.0377 24.2636C22.0377 24.2636 22.0377 24.2635 22.0377 24.2635H22.0878H22.1376ZM22.1376 24.2635C22.1376 24.234 22.1074 24.2097 22.0878 24.2097C22.0556 24.2097 22.0395 24.2384 22.0378 24.2599L22.0878 24.2617L22.1376 24.2635ZM20.7526 24.2638C20.7526 24.9066 21.3746 25.3912 22.0878 25.3912C22.801 25.3912 23.4229 24.9064 23.4229 24.2638C23.4229 23.6155 22.8025 23.1241 22.0878 23.1241C21.3617 23.1241 20.7526 23.6061 20.7526 24.2638Z" fill="white" stroke="white" stroke-width="0.25"/>
</svg>
