<svg width="428" height="166" viewBox="0 0 428 166" fill="none" xmlns="http://www.w3.org/2000/svg">
<path d="M110.492 54.3694H98.2077V45.584H110.492V54.3694ZM99.2685 53.3071H109.431V46.6463H99.2685V53.3071Z" fill="#F0F0F0"/>
<path d="M107.453 46.6514H100.955C100.814 46.6514 100.68 46.5955 100.58 46.4959C100.481 46.3962 100.425 46.2611 100.425 46.1203V2.84659C100.425 2.70572 100.481 2.57062 100.58 2.471C100.68 2.37139 100.814 2.31543 100.955 2.31543H107.453C107.593 2.31543 107.728 2.37139 107.828 2.471C107.927 2.57062 107.983 2.70572 107.983 2.84659V46.1203C107.983 46.2611 107.927 46.3962 107.828 46.4959C107.728 46.5955 107.593 46.6514 107.453 46.6514ZM101.486 45.5891H106.922V3.37775H101.486V45.5891Z" fill="#F0F0F0"/>
<path d="M100.95 14.1973C100.84 14.1967 100.734 14.1621 100.644 14.0982C100.555 14.0344 100.488 13.9445 100.452 13.8409C100.416 13.7372 100.413 13.625 100.443 13.5195C100.473 13.414 100.536 13.3205 100.621 13.2518L106.62 8.41827L100.605 3.25008C100.498 3.15781 100.432 3.02678 100.422 2.88583C100.411 2.74488 100.457 2.60555 100.549 2.49848C100.642 2.39142 100.772 2.3254 100.913 2.31494C101.054 2.30448 101.193 2.35044 101.3 2.44271L107.787 8.02521C107.846 8.07624 107.894 8.13986 107.926 8.2115C107.958 8.28314 107.974 8.36101 107.972 8.43952C107.97 8.5175 107.951 8.5941 107.917 8.66386C107.882 8.73363 107.832 8.79486 107.771 8.8432L101.284 14.0804C101.189 14.1566 101.071 14.1978 100.95 14.1973Z" fill="#F0F0F0"/>
<path d="M100.95 25.0122C100.846 25.0058 100.747 24.9692 100.664 24.9068C100.581 24.8444 100.518 24.759 100.483 24.6613C100.448 24.5635 100.443 24.4575 100.467 24.3566C100.492 24.2556 100.545 24.1641 100.621 24.0933L106.62 19.2597L100.605 14.065C100.55 14.0201 100.505 13.9645 100.471 13.9016C100.438 13.8388 100.418 13.7698 100.412 13.699C100.406 13.6281 100.414 13.5567 100.436 13.4891C100.458 13.4214 100.493 13.3589 100.539 13.3052C100.586 13.2514 100.643 13.2076 100.707 13.1763C100.77 13.145 100.84 13.1268 100.911 13.1229C100.982 13.1189 101.053 13.1293 101.12 13.1534C101.186 13.1774 101.248 13.2147 101.3 13.2629L107.787 18.8454C107.847 18.8953 107.895 18.9578 107.928 19.0285C107.961 19.0992 107.979 19.1763 107.979 19.2544C107.979 19.3325 107.961 19.4097 107.928 19.4804C107.895 19.5511 107.847 19.6136 107.787 19.6634L101.284 24.8954C101.189 24.9715 101.071 25.0127 100.95 25.0122Z" fill="#F0F0F0"/>
<path d="M100.95 35.8318C100.84 35.8311 100.734 35.7965 100.644 35.7327C100.555 35.6689 100.488 35.579 100.452 35.4753C100.416 35.3717 100.413 35.2594 100.443 35.1539C100.473 35.0485 100.536 34.955 100.621 34.8863L106.62 30.0527L100.605 24.8845C100.52 24.7876 100.473 24.6628 100.472 24.5336C100.472 24.4043 100.519 24.2795 100.604 24.1824C100.69 24.0853 100.807 24.0227 100.935 24.0063C101.063 23.9898 101.193 24.0207 101.3 24.0931L107.787 29.6597C107.845 29.7118 107.892 29.7757 107.924 29.847C107.955 29.9184 107.972 29.9957 107.972 30.074C107.971 30.1489 107.953 30.2227 107.921 30.2904C107.89 30.3581 107.844 30.4183 107.787 30.467L101.284 35.7149C101.189 35.791 101.071 35.8323 100.95 35.8318Z" fill="#F0F0F0"/>
<path d="M100.95 46.6461C100.871 46.6464 100.792 46.6289 100.721 46.5948C100.649 46.5608 100.586 46.5112 100.536 46.4496C100.449 46.3395 100.41 46.1995 100.426 46.0602C100.441 45.9209 100.512 45.7936 100.621 45.7059L106.62 40.8671L100.605 35.7042C100.552 35.6585 100.509 35.6028 100.477 35.5403C100.446 35.4778 100.427 35.4097 100.422 35.3399C100.417 35.2701 100.425 35.2 100.447 35.1336C100.469 35.0671 100.504 35.0056 100.549 34.9526C100.595 34.8996 100.651 34.8561 100.713 34.8246C100.775 34.7931 100.843 34.7742 100.913 34.769C100.983 34.7639 101.053 34.7725 101.119 34.7944C101.186 34.8163 101.247 34.8511 101.3 34.8968L107.787 40.4793C107.846 40.5298 107.893 40.5925 107.925 40.6632C107.957 40.7339 107.973 40.8107 107.972 40.8883C107.971 40.9672 107.952 41.0448 107.918 41.1156C107.883 41.1863 107.833 41.2484 107.771 41.2973L101.284 46.5292C101.189 46.6054 101.071 46.6466 100.95 46.6461Z" fill="#F0F0F0"/>
<path d="M100.955 11.9402H92.9355C92.7948 11.9402 92.6599 11.8843 92.5605 11.7847C92.461 11.685 92.4051 11.5499 92.4051 11.4091V6.87296C92.4051 6.73209 92.461 6.59698 92.5605 6.49737C92.6599 6.39776 92.7948 6.3418 92.9355 6.3418H100.955C101.096 6.3418 101.231 6.39776 101.33 6.49737C101.43 6.59698 101.486 6.73209 101.486 6.87296V11.4091C101.486 11.5499 101.43 11.685 101.33 11.7847C101.231 11.8843 101.096 11.9402 100.955 11.9402ZM93.4659 10.8779H100.425V7.40412H93.4659V10.8779Z" fill="#F0F0F0"/>
<path d="M136.147 11.9402H107.453C107.312 11.9402 107.177 11.8843 107.077 11.7847C106.978 11.685 106.922 11.5499 106.922 11.4091V6.87296C106.922 6.73209 106.978 6.59698 107.077 6.49737C107.177 6.39776 107.312 6.3418 107.453 6.3418H136.147C136.288 6.3418 136.423 6.39776 136.522 6.49737C136.622 6.59698 136.678 6.73209 136.678 6.87296V11.4091C136.678 11.5499 136.622 11.685 136.522 11.7847C136.423 11.8843 136.288 11.9402 136.147 11.9402ZM107.983 10.8779H135.617V7.40412H107.983V10.8779Z" fill="#F0F0F0"/>
<path d="M130.594 11.945C130.465 11.9448 130.34 11.8976 130.244 11.8122L125.014 7.2761C124.913 7.18247 124.852 7.05304 124.844 6.91521C124.837 6.77738 124.883 6.642 124.973 6.53773C125.064 6.43346 125.191 6.3685 125.328 6.35662C125.465 6.34473 125.602 6.38685 125.709 6.47405L130.604 10.7233L135.829 6.47405C135.938 6.3846 136.078 6.34218 136.218 6.35612C136.358 6.37007 136.487 6.43924 136.577 6.54841C136.666 6.65759 136.708 6.79783 136.695 6.93828C136.681 7.07873 136.612 7.2079 136.503 7.29735L130.907 11.8282C130.817 11.8977 130.708 11.9384 130.594 11.945Z" fill="#F0F0F0"/>
<path d="M119.768 11.9448C119.64 11.9446 119.515 11.8974 119.418 11.812L114.194 7.27592C114.139 7.23099 114.093 7.17544 114.06 7.11256C114.027 7.04969 114.007 6.98077 114.001 6.90991C113.994 6.83904 114.003 6.76766 114.025 6.70002C114.047 6.63237 114.082 6.56982 114.128 6.51609C114.175 6.46236 114.232 6.41854 114.296 6.38723C114.359 6.35592 114.429 6.33776 114.5 6.33382C114.571 6.32988 114.642 6.34025 114.708 6.36431C114.775 6.38837 114.837 6.42562 114.889 6.47387L119.779 10.7232L125.009 6.47387C125.117 6.38581 125.256 6.34423 125.395 6.35815C125.534 6.37208 125.662 6.44038 125.751 6.54823C125.796 6.60224 125.829 6.66448 125.849 6.73139C125.87 6.7983 125.876 6.86856 125.87 6.93814C125.863 7.00773 125.842 7.07526 125.809 7.13687C125.776 7.19848 125.731 7.25296 125.677 7.29717L120.103 11.828C120.008 11.9041 119.89 11.9453 119.768 11.9448Z" fill="#F0F0F0"/>
<path d="M108.964 11.9449C108.886 11.9444 108.809 11.9265 108.738 11.8925C108.667 11.8585 108.605 11.8093 108.556 11.7484C108.511 11.6944 108.478 11.6321 108.458 11.5652C108.438 11.4983 108.431 11.4281 108.438 11.3585C108.444 11.2889 108.465 11.2214 108.498 11.1597C108.531 11.0981 108.576 11.0437 108.63 10.9994L114.205 6.46333C114.258 6.4152 114.321 6.37846 114.389 6.35533C114.457 6.33219 114.529 6.32316 114.6 6.32876C114.672 6.33437 114.742 6.3545 114.806 6.38793C114.869 6.42137 114.925 6.46741 114.971 6.52326C115.016 6.57912 115.05 6.64361 115.069 6.71284C115.089 6.78206 115.094 6.85458 115.085 6.92597C115.076 6.99736 115.053 7.06614 115.016 7.12814C114.98 7.19014 114.931 7.24406 114.873 7.28663L109.298 11.8281C109.204 11.9042 109.086 11.9454 108.964 11.9449Z" fill="#F0F0F0"/>
<path d="M98.1652 11.9454C98.0363 11.9452 97.9119 11.898 97.8152 11.8126L92.5855 7.27645C92.5329 7.23042 92.4898 7.17446 92.4589 7.11177C92.4279 7.04908 92.4095 6.9809 92.4048 6.91111C92.4001 6.84131 92.4092 6.77128 92.4316 6.70501C92.4539 6.63874 92.4891 6.57752 92.5351 6.52486C92.581 6.4722 92.6369 6.42912 92.6995 6.39808C92.7621 6.36704 92.8302 6.34866 92.8999 6.34397C92.9696 6.33928 93.0395 6.34839 93.1057 6.37077C93.1719 6.39315 93.233 6.42836 93.2856 6.4744L98.51 11.0105C98.6162 11.1028 98.6814 11.2336 98.6913 11.374C98.7013 11.5144 98.6551 11.6531 98.563 11.7595C98.5138 11.8171 98.4529 11.8635 98.3843 11.8956C98.3156 11.9276 98.241 11.9446 98.1652 11.9454Z" fill="#F0F0F0"/>
<path d="M139.001 44.4254H122.484C122.343 44.4254 122.208 44.3694 122.109 44.2698C122.01 44.1702 121.954 44.0351 121.954 43.8942V27.3485C121.954 27.2077 122.01 27.0726 122.109 26.973C122.208 26.8733 122.343 26.8174 122.484 26.8174H139.001C139.141 26.8174 139.276 26.8733 139.376 26.973C139.475 27.0726 139.531 27.2077 139.531 27.3485V43.8942C139.531 44.0351 139.475 44.1702 139.376 44.2698C139.276 44.3694 139.141 44.4254 139.001 44.4254ZM123.014 43.363H138.47V27.8797H123.014V43.363Z" fill="#F0F0F0"/>
<path d="M139.001 27.8799H122.484C122.365 27.8843 122.248 27.8484 122.152 27.7781C122.056 27.7077 121.986 27.607 121.954 27.4921C121.923 27.381 121.929 27.2629 121.971 27.1556C122.013 27.0483 122.089 26.9576 122.187 26.8972L130.445 21.83C130.526 21.7833 130.617 21.7588 130.711 21.7588C130.804 21.7588 130.895 21.7833 130.976 21.83L139.234 26.8972C139.332 26.9576 139.408 27.0483 139.45 27.1556C139.492 27.2629 139.498 27.381 139.467 27.4921C139.439 27.5968 139.378 27.6901 139.295 27.7594C139.211 27.8287 139.109 27.8708 139.001 27.8799ZM124.367 26.8176H137.097L130.732 22.9029L124.367 26.8176Z" fill="#F0F0F0"/>
<path d="M135.479 40.8932H126.011C125.871 40.8932 125.736 40.8372 125.636 40.7376C125.537 40.638 125.481 40.5029 125.481 40.362V30.8808C125.481 30.7399 125.537 30.6048 125.636 30.5052C125.736 30.4056 125.871 30.3496 126.011 30.3496H135.479C135.619 30.3496 135.754 30.4056 135.854 30.5052C135.953 30.6048 136.009 30.7399 136.009 30.8808V40.362C136.009 40.5029 135.953 40.638 135.854 40.7376C135.754 40.8372 135.619 40.8932 135.479 40.8932ZM126.542 39.8308H134.948V31.4119H126.542V39.8308Z" fill="#F0F0F0"/>
<path d="M130.748 22.8127C130.607 22.8127 130.472 22.7567 130.373 22.6571C130.273 22.5575 130.217 22.4224 130.217 22.2815V11.414C130.217 11.2731 130.273 11.138 130.373 11.0384C130.472 10.9388 130.607 10.8828 130.748 10.8828C130.888 10.8828 131.023 10.9388 131.123 11.0384C131.222 11.138 131.278 11.2731 131.278 11.414V22.2815C131.278 22.4224 131.222 22.5575 131.123 22.6571C131.023 22.7567 130.888 22.8127 130.748 22.8127Z" fill="#F0F0F0"/>
<path d="M384.793 52.0559H397.077V43.2705H384.793V52.0559ZM396.017 50.9936H385.854V44.3328H396.017V50.9936Z" fill="#F0F0F0"/>
<path d="M387.833 44.338H394.33C394.471 44.338 394.606 44.282 394.705 44.1824C394.804 44.0828 394.86 43.9477 394.86 43.8068V0.533114C394.86 0.392241 394.804 0.257139 394.705 0.157527C394.606 0.0579147 394.471 0.00195312 394.33 0.00195312H387.833C387.692 0.00195312 387.557 0.0579147 387.457 0.157527C387.358 0.257139 387.302 0.392241 387.302 0.533114V43.8068C387.302 43.9477 387.358 44.0828 387.457 44.1824C387.557 44.282 387.692 44.338 387.833 44.338ZM393.8 43.2756H388.363V1.06427H393.8V43.2756Z" fill="#F0F0F0"/>
<path d="M394.335 11.8838C394.445 11.8832 394.552 11.8486 394.641 11.7848C394.73 11.7209 394.797 11.631 394.833 11.5274C394.869 11.4238 394.872 11.3115 394.842 11.206C394.812 11.1005 394.75 11.007 394.664 10.9384L388.665 6.1048L394.68 0.936601C394.787 0.844329 394.853 0.713306 394.863 0.572355C394.874 0.431404 394.828 0.292071 394.736 0.185008C394.644 0.0779449 394.513 0.0119216 394.372 0.00146235C394.231 -0.00899691 394.092 0.0369646 393.985 0.129236L387.498 5.71174C387.439 5.76276 387.391 5.82638 387.359 5.89802C387.327 5.96966 387.311 6.04754 387.313 6.12604C387.315 6.20402 387.334 6.28062 387.369 6.35039C387.403 6.42016 387.453 6.48139 387.514 6.52973L394.001 11.767C394.096 11.8431 394.214 11.8843 394.335 11.8838Z" fill="#F0F0F0"/>
<path d="M394.335 22.6987C394.439 22.6924 394.538 22.6557 394.621 22.5933C394.704 22.5309 394.767 22.4456 394.802 22.3478C394.837 22.25 394.843 22.144 394.818 22.0431C394.794 21.9422 394.74 21.8506 394.664 21.7798L388.665 16.9463L394.68 11.7515C394.735 11.7066 394.781 11.651 394.814 11.5881C394.847 11.5253 394.867 11.4564 394.873 11.3855C394.88 11.3146 394.871 11.2433 394.849 11.1756C394.827 11.108 394.792 11.0454 394.746 10.9917C394.699 10.9379 394.642 10.8941 394.578 10.8628C394.515 10.8315 394.445 10.8133 394.374 10.8094C394.303 10.8055 394.232 10.8158 394.166 10.8399C394.099 10.864 394.037 10.9012 393.985 10.9495L387.498 16.532C387.438 16.5818 387.39 16.6443 387.357 16.715C387.324 16.7857 387.306 16.8628 387.306 16.941C387.306 17.0191 387.324 17.0962 387.357 17.1669C387.39 17.2376 387.438 17.3001 387.498 17.3499L394.001 22.5819C394.096 22.658 394.214 22.6992 394.335 22.6987Z" fill="#F0F0F0"/>
<path d="M394.335 33.5183C394.445 33.5177 394.552 33.483 394.641 33.4192C394.73 33.3554 394.797 33.2655 394.833 33.1618C394.869 33.0582 394.872 32.9459 394.842 32.8405C394.812 32.735 394.75 32.6415 394.664 32.5728L388.665 27.7393L394.68 22.5711C394.765 22.4741 394.813 22.3494 394.813 22.2201C394.813 22.0909 394.766 21.966 394.681 21.8689C394.595 21.7718 394.478 21.7092 394.35 21.6928C394.222 21.6764 394.092 21.7072 393.985 21.7796L387.498 27.3462C387.44 27.3984 387.394 27.4622 387.362 27.5336C387.33 27.6049 387.313 27.6823 387.313 27.7605C387.314 27.8354 387.332 27.9092 387.364 27.9769C387.396 28.0447 387.442 28.1049 387.498 28.1536L394.001 33.4014C394.096 33.4775 394.214 33.5188 394.335 33.5183Z" fill="#F0F0F0"/>
<path d="M394.335 44.3326C394.414 44.3329 394.493 44.3154 394.564 44.2814C394.636 44.2474 394.699 44.1977 394.749 44.1361C394.836 44.026 394.875 43.8861 394.86 43.7468C394.844 43.6075 394.773 43.4801 394.664 43.3925L388.665 38.5536L394.68 33.3907C394.733 33.345 394.776 33.2893 394.808 33.2268C394.839 33.1643 394.858 33.0962 394.863 33.0265C394.868 32.9567 394.86 32.8865 394.838 32.8201C394.816 32.7536 394.781 32.6921 394.736 32.6391C394.69 32.5861 394.634 32.5426 394.572 32.5111C394.51 32.4796 394.442 32.4607 394.372 32.4556C394.302 32.4504 394.232 32.459 394.166 32.4809C394.1 32.5029 394.038 32.5376 393.985 32.5833L387.498 38.1658C387.439 38.2163 387.392 38.2791 387.36 38.3497C387.328 38.4204 387.312 38.4972 387.313 38.5748C387.314 38.6537 387.333 38.7313 387.367 38.8021C387.402 38.8728 387.452 38.9349 387.514 38.9838L394.001 44.2158C394.096 44.2919 394.214 44.3331 394.335 44.3326Z" fill="#F0F0F0"/>
<path d="M394.33 9.62676H402.35C402.49 9.62676 402.625 9.57079 402.725 9.47118C402.824 9.37157 402.88 9.23647 402.88 9.0956V4.55948C402.88 4.41861 402.824 4.28351 402.725 4.18389C402.625 4.08428 402.49 4.02832 402.35 4.02832H394.33C394.189 4.02832 394.054 4.08428 393.955 4.18389C393.855 4.28351 393.8 4.41861 393.8 4.55948V9.0956C393.8 9.23647 393.855 9.37157 393.955 9.47118C394.054 9.57079 394.189 9.62676 394.33 9.62676ZM401.819 8.56443H394.86V5.09064H401.819V8.56443Z" fill="#F0F0F0"/>
<path d="M359.138 9.62676H387.833C387.973 9.62676 388.108 9.57079 388.208 9.47118C388.307 9.37157 388.363 9.23647 388.363 9.0956V4.55948C388.363 4.41861 388.307 4.28351 388.208 4.18389C388.108 4.08428 387.973 4.02832 387.833 4.02832H359.138C358.997 4.02832 358.862 4.08428 358.763 4.18389C358.663 4.28351 358.608 4.41861 358.608 4.55948V9.0956C358.608 9.23647 358.663 9.37157 358.763 9.47118C358.862 9.57079 358.997 9.62676 359.138 9.62676ZM387.302 8.56443H359.668V5.09064H387.302V8.56443Z" fill="#F0F0F0"/>
<path d="M364.691 9.63153C364.82 9.63134 364.945 9.58414 365.041 9.49874L370.271 4.96263C370.372 4.869 370.433 4.73956 370.441 4.60173C370.448 4.46391 370.402 4.32852 370.312 4.22425C370.222 4.11998 370.094 4.05503 369.957 4.04314C369.82 4.03125 369.683 4.07337 369.576 4.16057L364.681 8.40986L359.456 4.16057C359.347 4.07112 359.207 4.0287 359.067 4.04264C358.927 4.05659 358.798 4.12576 358.708 4.23494C358.619 4.34411 358.577 4.48435 358.591 4.62481C358.605 4.76526 358.674 4.89442 358.783 4.98387L364.378 9.51468C364.469 9.58418 364.578 9.62489 364.691 9.63153Z" fill="#F0F0F0"/>
<path d="M375.517 9.63135C375.646 9.63117 375.77 9.58396 375.867 9.49856L381.091 4.96245C381.146 4.91751 381.192 4.86196 381.225 4.79909C381.258 4.73621 381.278 4.6673 381.285 4.59643C381.291 4.52556 381.283 4.45419 381.261 4.38654C381.239 4.31889 381.203 4.25635 381.157 4.20262C381.11 4.14889 381.053 4.10507 380.99 4.07376C380.926 4.04245 380.856 4.02428 380.785 4.02035C380.715 4.01641 380.644 4.02678 380.577 4.05083C380.51 4.07489 380.449 4.11215 380.396 4.16039L375.506 8.40968L370.276 4.16039C370.168 4.07234 370.029 4.03075 369.89 4.04468C369.751 4.0586 369.623 4.12691 369.534 4.23476C369.489 4.28876 369.456 4.351 369.436 4.41791C369.416 4.48482 369.409 4.55509 369.416 4.62467C369.422 4.69425 369.443 4.76178 369.476 4.8234C369.509 4.88501 369.554 4.93948 369.608 4.98369L375.183 9.5145C375.277 9.59061 375.395 9.63186 375.517 9.63135Z" fill="#F0F0F0"/>
<path d="M386.321 9.63143C386.399 9.63091 386.477 9.61302 386.547 9.57904C386.618 9.54506 386.68 9.49583 386.729 9.4349C386.774 9.3809 386.807 9.31866 386.827 9.25175C386.848 9.18484 386.854 9.11457 386.848 9.04499C386.841 8.97541 386.82 8.90787 386.787 8.84626C386.754 8.78465 386.709 8.73018 386.655 8.68597L381.081 4.14985C381.027 4.10173 380.964 4.06498 380.896 4.04185C380.828 4.01872 380.756 4.00968 380.685 4.01528C380.613 4.02089 380.543 4.04102 380.48 4.07446C380.416 4.10789 380.36 4.15393 380.314 4.20979C380.269 4.26564 380.236 4.33014 380.216 4.39936C380.196 4.46859 380.191 4.5411 380.2 4.61249C380.209 4.68388 380.233 4.75267 380.269 4.81466C380.306 4.87666 380.354 4.93058 380.412 4.97315L385.987 9.51458C386.082 9.59069 386.199 9.63194 386.321 9.63143Z" fill="#F0F0F0"/>
<path d="M397.12 9.63188C397.249 9.63169 397.373 9.58449 397.47 9.49909L402.7 4.96298C402.752 4.91694 402.795 4.86098 402.826 4.79829C402.857 4.73561 402.876 4.66742 402.88 4.59763C402.885 4.52784 402.876 4.45781 402.854 4.39153C402.831 4.32526 402.796 4.26405 402.75 4.21138C402.704 4.15872 402.648 4.11564 402.586 4.0846C402.523 4.05357 402.455 4.03518 402.385 4.03049C402.316 4.02581 402.246 4.03491 402.179 4.05729C402.113 4.07967 402.052 4.11489 402 4.16092L396.775 8.69704C396.669 8.78935 396.604 8.92008 396.594 9.06051C396.584 9.20094 396.63 9.33959 396.722 9.44597C396.771 9.5036 396.832 9.55001 396.901 9.58207C396.969 9.61414 397.044 9.63112 397.12 9.63188Z" fill="#F0F0F0"/>
<path d="M356.284 42.1119H372.801C372.942 42.1119 373.077 42.0559 373.176 41.9563C373.276 41.8567 373.331 41.7216 373.331 41.5807V25.0351C373.331 24.8942 373.276 24.7591 373.176 24.6595C373.077 24.5599 372.942 24.5039 372.801 24.5039H356.284C356.144 24.5039 356.009 24.5599 355.909 24.6595C355.81 24.7591 355.754 24.8942 355.754 25.0351V41.5807C355.754 41.7216 355.81 41.8567 355.909 41.9563C356.009 42.0559 356.144 42.1119 356.284 42.1119ZM372.271 41.0496H356.815V25.5662H372.271V41.0496Z" fill="#F0F0F0"/>
<path d="M356.284 25.5664H372.801C372.92 25.5708 373.037 25.535 373.133 25.4646C373.23 25.3943 373.299 25.2935 373.331 25.1787C373.362 25.0676 373.356 24.9494 373.314 24.8421C373.272 24.7348 373.196 24.6441 373.098 24.5837L364.84 19.5165C364.759 19.4699 364.668 19.4453 364.575 19.4453C364.481 19.4453 364.39 19.4699 364.309 19.5165L356.051 24.5837C355.953 24.6441 355.877 24.7348 355.835 24.8421C355.793 24.9494 355.787 25.0676 355.818 25.1787C355.847 25.2833 355.907 25.3766 355.99 25.4459C356.074 25.5152 356.176 25.5573 356.284 25.5664ZM370.918 24.5041H358.189L364.553 20.5894L370.918 24.5041Z" fill="#F0F0F0"/>
<path d="M359.806 38.5797H369.274C369.415 38.5797 369.549 38.5237 369.649 38.4241C369.748 38.3245 369.804 38.1894 369.804 38.0485V28.5673C369.804 28.4264 369.748 28.2913 369.649 28.1917C369.549 28.0921 369.415 28.0361 369.274 28.0361H359.806C359.666 28.0361 359.531 28.0921 359.431 28.1917C359.332 28.2913 359.276 28.4264 359.276 28.5673V38.0485C359.276 38.1894 359.332 38.3245 359.431 38.4241C359.531 38.5237 359.666 38.5797 359.806 38.5797ZM368.743 37.5174H360.337V29.0985H368.743V37.5174Z" fill="#F0F0F0"/>
<path d="M364.537 20.4992C364.678 20.4992 364.813 20.4432 364.912 20.3436C365.012 20.244 365.068 20.1089 365.068 19.968V9.1005C365.068 8.95962 365.012 8.82452 364.912 8.72491C364.813 8.6253 364.678 8.56934 364.537 8.56934C364.397 8.56934 364.262 8.6253 364.162 8.72491C364.063 8.82452 364.007 8.95962 364.007 9.1005V19.968C364.007 20.1089 364.063 20.244 364.162 20.3436C364.262 20.4432 364.397 20.4992 364.537 20.4992Z" fill="#F0F0F0"/>
<path d="M9.80265 62.6768H5.53677V66.9488H9.80265V62.6768Z" fill="#F0F0F0"/>
<path d="M17.8427 62.6768H13.5756V66.9488H17.8427V62.6768Z" fill="#F0F0F0"/>
<path d="M25.8815 62.6768H21.6169V66.9488H25.8815V62.6768Z" fill="#F0F0F0"/>
<path d="M9.80265 70.0693H5.53677V74.3413H9.80265V70.0693Z" fill="#F0F0F0"/>
<path d="M17.8427 70.0693H13.5756V74.3413H17.8427V70.0693Z" fill="#F0F0F0"/>
<path d="M25.8815 70.0693H21.6169V74.3413H25.8815V70.0693Z" fill="#F0F0F0"/>
<path d="M9.80265 77.4629H5.53677V81.7336H9.80265V77.4629Z" fill="#F0F0F0"/>
<path d="M17.8427 77.4629H13.5756V81.7336H17.8427V77.4629Z" fill="#F0F0F0"/>
<path d="M25.8815 77.4629H21.6169V81.7336H25.8815V77.4629Z" fill="#F0F0F0"/>
<path d="M9.80265 84.8564H5.53677V89.1284H9.80265V84.8564Z" fill="#F0F0F0"/>
<path d="M17.8427 84.8564H13.5756V89.1284H17.8427V84.8564Z" fill="#F0F0F0"/>
<path d="M25.8815 84.8564H21.6169V89.1284H25.8815V84.8564Z" fill="#F0F0F0"/>
<path d="M9.80265 92.25H5.53677V96.522H9.80265V92.25Z" fill="#F0F0F0"/>
<path d="M17.8427 92.25H13.5756V96.522H17.8427V92.25Z" fill="#F0F0F0"/>
<path d="M25.8815 92.25H21.6169V96.522H25.8815V92.25Z" fill="#F0F0F0"/>
<path d="M9.80265 99.6436H5.53677V103.917H9.80265V99.6436Z" fill="#F0F0F0"/>
<path d="M17.8427 99.6436H13.5756V103.917H17.8427V99.6436Z" fill="#F0F0F0"/>
<path d="M25.8815 99.6436H21.6169V103.917H25.8815V99.6436Z" fill="#F0F0F0"/>
<path d="M9.80265 107.037H5.53677V111.31H9.80265V107.037Z" fill="#F0F0F0"/>
<path d="M17.8427 107.037H13.5756V111.31H17.8427V107.037Z" fill="#F0F0F0"/>
<path d="M25.8815 107.037H21.6169V111.31H25.8815V107.037Z" fill="#F0F0F0"/>
<path d="M9.80265 114.432H5.53677V118.704H9.80265V114.432Z" fill="#F0F0F0"/>
<path d="M17.8427 114.432H13.5756V118.704H17.8427V114.432Z" fill="#F0F0F0"/>
<path d="M25.8815 114.432H21.6169V118.704H25.8815V114.432Z" fill="#F0F0F0"/>
<path d="M9.80265 121.825H5.53677V126.097H9.80265V121.825Z" fill="#F0F0F0"/>
<path d="M17.8427 121.825H13.5756V126.097H17.8427V121.825Z" fill="#F0F0F0"/>
<path d="M25.8815 121.825H21.6169V126.097H25.8815V121.825Z" fill="#F0F0F0"/>
<path d="M9.80265 129.217H5.53677V133.489H9.80265V129.217Z" fill="#F0F0F0"/>
<path d="M17.8427 129.217H13.5756V133.489H17.8427V129.217Z" fill="#F0F0F0"/>
<path d="M25.8815 129.217H21.6169V133.489H25.8815V129.217Z" fill="#F0F0F0"/>
<path d="M9.80265 136.611H5.53677V140.885H9.80265V136.611Z" fill="#F0F0F0"/>
<path d="M17.8427 136.611H13.5756V140.885H17.8427V136.611Z" fill="#F0F0F0"/>
<path d="M25.8815 136.611H21.6169V140.885H25.8815V136.611Z" fill="#F0F0F0"/>
<path d="M9.80265 144.004H5.53677V148.277H9.80265V144.004Z" fill="#F0F0F0"/>
<path d="M17.8427 144.004H13.5756V148.277H17.8427V144.004Z" fill="#F0F0F0"/>
<path d="M25.8815 144.004H21.6169V148.277H25.8815V144.004Z" fill="#F0F0F0"/>
<path d="M9.80265 151.398H5.53677V155.672H9.80265V151.398Z" fill="#F0F0F0"/>
<path d="M17.8427 151.398H13.5756V160.599H17.8427V151.398Z" fill="#F0F0F0"/>
<path d="M25.8815 151.398H21.6169V155.672H25.8815V151.398Z" fill="#F0F0F0"/>
<path d="M67.7173 77.4629H63.4515V81.7336H67.7173V77.4629Z" fill="#F0F0F0"/>
<path d="M75.7561 77.4629H71.4915V81.7336H75.7561V77.4629Z" fill="#F0F0F0"/>
<path d="M83.7962 77.4629H79.5316V81.7336H83.7962V77.4629Z" fill="#F0F0F0"/>
<path d="M67.7173 84.8564H63.4515V89.1284H67.7173V84.8564Z" fill="#F0F0F0"/>
<path d="M75.7561 84.8564H71.4915V89.1284H75.7561V84.8564Z" fill="#F0F0F0"/>
<path d="M83.7962 84.8564H79.5316V89.1284H83.7962V84.8564Z" fill="#F0F0F0"/>
<path d="M67.7173 92.25H63.4515V96.522H67.7173V92.25Z" fill="#F0F0F0"/>
<path d="M75.7561 92.25H71.4915V96.522H75.7561V92.25Z" fill="#F0F0F0"/>
<path d="M83.7962 92.25H79.5316V96.522H83.7962V92.25Z" fill="#F0F0F0"/>
<path d="M67.7173 99.6436H63.4515V103.917H67.7173V99.6436Z" fill="#F0F0F0"/>
<path d="M75.7561 99.6436H71.4915V103.917H75.7561V99.6436Z" fill="#F0F0F0"/>
<path d="M83.7962 99.6436H79.5316V103.917H83.7962V99.6436Z" fill="#F0F0F0"/>
<path d="M67.7173 107.037H63.4515V111.31H67.7173V107.037Z" fill="#F0F0F0"/>
<path d="M75.7561 107.037H71.4915V111.31H75.7561V107.037Z" fill="#F0F0F0"/>
<path d="M83.7962 107.037H79.5316V111.31H83.7962V107.037Z" fill="#F0F0F0"/>
<path d="M67.7173 114.432H63.4515V118.704H67.7173V114.432Z" fill="#F0F0F0"/>
<path d="M75.7561 114.432H71.4915V118.704H75.7561V114.432Z" fill="#F0F0F0"/>
<path d="M83.7962 114.432H79.5316V118.704H83.7962V114.432Z" fill="#F0F0F0"/>
<path d="M67.7173 121.825H63.4515V126.097H67.7173V121.825Z" fill="#F0F0F0"/>
<path d="M75.7561 121.825H71.4915V126.097H75.7561V121.825Z" fill="#F0F0F0"/>
<path d="M83.7962 121.825H79.5316V126.097H83.7962V121.825Z" fill="#F0F0F0"/>
<path d="M67.7173 129.217H63.4515V133.489H67.7173V129.217Z" fill="#F0F0F0"/>
<path d="M75.7561 129.217H71.4915V133.489H75.7561V129.217Z" fill="#F0F0F0"/>
<path d="M83.7962 129.217H79.5316V133.489H83.7962V129.217Z" fill="#F0F0F0"/>
<path d="M67.7173 136.611H63.4515V140.885H67.7173V136.611Z" fill="#F0F0F0"/>
<path d="M75.7561 136.611H71.4915V140.885H75.7561V136.611Z" fill="#F0F0F0"/>
<path d="M83.7962 136.611H79.5316V140.885H83.7962V136.611Z" fill="#F0F0F0"/>
<path d="M67.7173 144.004H63.4515V148.277H67.7173V144.004Z" fill="#F0F0F0"/>
<path d="M75.7561 144.004H71.4915V148.277H75.7561V144.004Z" fill="#F0F0F0"/>
<path d="M83.7962 144.004H79.5316V148.277H83.7962V144.004Z" fill="#F0F0F0"/>
<path d="M67.7173 151.398H63.4515V155.672H67.7173V151.398Z" fill="#F0F0F0"/>
<path d="M75.7561 151.398H71.4915V160.599H75.7561V151.398Z" fill="#F0F0F0"/>
<path d="M83.7962 151.398H79.5316V155.672H83.7962V151.398Z" fill="#F0F0F0"/>
<path d="M38.8421 107.037H34.5763V111.31H38.8421V107.037Z" fill="#F0F0F0"/>
<path d="M46.8822 107.037H42.6176V111.31H46.8822V107.037Z" fill="#F0F0F0"/>
<path d="M54.9223 107.037H50.6551V111.31H54.9223V107.037Z" fill="#F0F0F0"/>
<path d="M38.8421 114.432H34.5763V118.704H38.8421V114.432Z" fill="#F0F0F0"/>
<path d="M46.8822 114.432H42.6176V118.704H46.8822V114.432Z" fill="#F0F0F0"/>
<path d="M54.9223 114.432H50.6551V118.704H54.9223V114.432Z" fill="#F0F0F0"/>
<path d="M38.8421 121.825H34.5763V126.097H38.8421V121.825Z" fill="#F0F0F0"/>
<path d="M46.8822 121.825H42.6176V126.097H46.8822V121.825Z" fill="#F0F0F0"/>
<path d="M54.9223 121.825H50.6551V126.097H54.9223V121.825Z" fill="#F0F0F0"/>
<path d="M38.8421 129.217H34.5763V133.489H38.8421V129.217Z" fill="#F0F0F0"/>
<path d="M46.8822 129.217H42.6176V133.489H46.8822V129.217Z" fill="#F0F0F0"/>
<path d="M54.9223 129.217H50.6551V133.489H54.9223V129.217Z" fill="#F0F0F0"/>
<path d="M38.8421 136.611H34.5763V140.885H38.8421V136.611Z" fill="#F0F0F0"/>
<path d="M46.8822 136.611H42.6176V140.885H46.8822V136.611Z" fill="#F0F0F0"/>
<path d="M54.9223 136.611H50.6551V140.885H54.9223V136.611Z" fill="#F0F0F0"/>
<path d="M38.8421 144.004H34.5763V148.277H38.8421V144.004Z" fill="#F0F0F0"/>
<path d="M46.8822 144.004H42.6176V148.277H46.8822V144.004Z" fill="#F0F0F0"/>
<path d="M54.9223 144.004H50.6551V148.277H54.9223V144.004Z" fill="#F0F0F0"/>
<path d="M46.8822 151.398H42.6176V160.599H46.8822V151.398Z" fill="#F0F0F0"/>
<path d="M38.8421 151.398H34.5763V155.672H38.8421V151.398Z" fill="#F0F0F0"/>
<path d="M54.9223 151.398H50.6551V155.672H54.9223V151.398Z" fill="#F0F0F0"/>
<path d="M89.2906 67.1143V64.6498H57.9545V67.1143H60.4167V71.385H57.9545V100.794H31.3785V56.3513H28.9163V52.2027H31.3169V49.7383H0V52.2027H2.50201V56.3513H0.0410792V165.12H29.0819H31.3798H57.9558H60.418H89.2919V71.3837H86.8323V67.113H89.2906V67.1143ZM4.96294 52.3673H26.4553V56.3513H4.96294V52.3673ZM28.9163 162.655H2.50201V58.8569H28.9163V162.655ZM57.9545 162.655H31.5428V103.26H57.9545V162.655ZM86.831 162.655H60.4167V100.794V73.8494H86.831V162.655ZM84.37 67.2775V71.3027H62.8777V67.2775H84.37Z" fill="#F0F0F0"/>
<path d="M382.882 62.6768H378.616V66.9488H382.882V62.6768Z" fill="#F0F0F0"/>
<path d="M390.922 62.6768H386.655V66.9488H390.922V62.6768Z" fill="#F0F0F0"/>
<path d="M398.961 62.6768H394.697V66.9488H398.961V62.6768Z" fill="#F0F0F0"/>
<path d="M382.882 70.0693H378.616V74.3413H382.882V70.0693Z" fill="#F0F0F0"/>
<path d="M390.922 70.0693H386.655V74.3413H390.922V70.0693Z" fill="#F0F0F0"/>
<path d="M398.961 70.0693H394.697V74.3413H398.961V70.0693Z" fill="#F0F0F0"/>
<path d="M382.882 77.4629H378.616V81.7336H382.882V77.4629Z" fill="#F0F0F0"/>
<path d="M390.922 77.4629H386.655V81.7336H390.922V77.4629Z" fill="#F0F0F0"/>
<path d="M398.961 77.4629H394.697V81.7336H398.961V77.4629Z" fill="#F0F0F0"/>
<path d="M382.882 84.8564H378.616V89.1284H382.882V84.8564Z" fill="#F0F0F0"/>
<path d="M390.922 84.8564H386.655V89.1284H390.922V84.8564Z" fill="#F0F0F0"/>
<path d="M398.961 84.8564H394.697V89.1284H398.961V84.8564Z" fill="#F0F0F0"/>
<path d="M382.882 92.25H378.616V96.522H382.882V92.25Z" fill="#F0F0F0"/>
<path d="M390.922 92.25H386.655V96.522H390.922V92.25Z" fill="#F0F0F0"/>
<path d="M398.961 92.25H394.697V96.522H398.961V92.25Z" fill="#F0F0F0"/>
<path d="M382.882 99.6436H378.616V103.917H382.882V99.6436Z" fill="#F0F0F0"/>
<path d="M390.922 99.6436H386.655V103.917H390.922V99.6436Z" fill="#F0F0F0"/>
<path d="M398.961 99.6436H394.697V103.917H398.961V99.6436Z" fill="#F0F0F0"/>
<path d="M382.882 107.037H378.616V111.31H382.882V107.037Z" fill="#F0F0F0"/>
<path d="M390.922 107.037H386.655V111.31H390.922V107.037Z" fill="#F0F0F0"/>
<path d="M398.961 107.037H394.697V111.31H398.961V107.037Z" fill="#F0F0F0"/>
<path d="M382.882 114.432H378.616V118.704H382.882V114.432Z" fill="#F0F0F0"/>
<path d="M390.922 114.432H386.655V118.704H390.922V114.432Z" fill="#F0F0F0"/>
<path d="M398.961 114.432H394.697V118.704H398.961V114.432Z" fill="#F0F0F0"/>
<path d="M382.882 121.825H378.616V126.097H382.882V121.825Z" fill="#F0F0F0"/>
<path d="M390.922 121.825H386.655V126.097H390.922V121.825Z" fill="#F0F0F0"/>
<path d="M398.961 121.825H394.697V126.097H398.961V121.825Z" fill="#F0F0F0"/>
<path d="M382.882 129.217H378.616V133.489H382.882V129.217Z" fill="#F0F0F0"/>
<path d="M390.922 129.217H386.655V133.489H390.922V129.217Z" fill="#F0F0F0"/>
<path d="M398.961 129.217H394.697V133.489H398.961V129.217Z" fill="#F0F0F0"/>
<path d="M382.882 136.611H378.616V140.885H382.882V136.611Z" fill="#F0F0F0"/>
<path d="M390.922 136.611H386.655V140.885H390.922V136.611Z" fill="#F0F0F0"/>
<path d="M398.961 136.611H394.697V140.885H398.961V136.611Z" fill="#F0F0F0"/>
<path d="M382.882 144.004H378.616V148.277H382.882V144.004Z" fill="#F0F0F0"/>
<path d="M390.922 144.004H386.655V148.277H390.922V144.004Z" fill="#F0F0F0"/>
<path d="M398.961 144.004H394.697V148.277H398.961V144.004Z" fill="#F0F0F0"/>
<path d="M382.882 151.398H378.616V155.672H382.882V151.398Z" fill="#F0F0F0"/>
<path d="M390.922 151.398H386.655V160.599H390.922V151.398Z" fill="#F0F0F0"/>
<path d="M398.961 151.398H394.697V155.672H398.961V151.398Z" fill="#F0F0F0"/>
<path d="M411.922 107.037H407.656V111.31H411.922V107.037Z" fill="#F0F0F0"/>
<path d="M419.962 107.037H415.697V111.31H419.962V107.037Z" fill="#F0F0F0"/>
<path d="M428.002 107.037H423.735V111.31H428.002V107.037Z" fill="#F0F0F0"/>
<path d="M411.922 114.432H407.656V118.704H411.922V114.432Z" fill="#F0F0F0"/>
<path d="M419.962 114.432H415.697V118.704H419.962V114.432Z" fill="#F0F0F0"/>
<path d="M428.002 114.432H423.735V118.704H428.002V114.432Z" fill="#F0F0F0"/>
<path d="M411.922 121.825H407.656V126.097H411.922V121.825Z" fill="#F0F0F0"/>
<path d="M419.962 121.825H415.697V126.097H419.962V121.825Z" fill="#F0F0F0"/>
<path d="M428.002 121.825H423.735V126.097H428.002V121.825Z" fill="#F0F0F0"/>
<path d="M411.922 129.217H407.656V133.489H411.922V129.217Z" fill="#F0F0F0"/>
<path d="M419.962 129.217H415.697V133.489H419.962V129.217Z" fill="#F0F0F0"/>
<path d="M428.002 129.217H423.735V133.489H428.002V129.217Z" fill="#F0F0F0"/>
<path d="M411.922 136.611H407.656V140.885H411.922V136.611Z" fill="#F0F0F0"/>
<path d="M419.962 136.611H415.697V140.885H419.962V136.611Z" fill="#F0F0F0"/>
<path d="M428.002 136.611H423.735V140.885H428.002V136.611Z" fill="#F0F0F0"/>
<path d="M411.922 144.004H407.656V148.277H411.922V144.004Z" fill="#F0F0F0"/>
<path d="M419.962 144.004H415.697V148.277H419.962V144.004Z" fill="#F0F0F0"/>
<path d="M428.002 144.004H423.735V148.277H428.002V144.004Z" fill="#F0F0F0"/>
<path d="M419.962 151.398H415.697V160.599H419.962V151.398Z" fill="#F0F0F0"/>
<path d="M411.922 151.398H407.656V155.672H411.922V151.398Z" fill="#F0F0F0"/>
<path d="M428.002 151.398H423.735V155.672H428.002V151.398Z" fill="#F0F0F0"/>
<path d="M462.37 67.1143V64.6498H431.034V67.1143H433.496V71.385H431.034V100.794H404.458V56.3513H401.996V52.2027H404.397V49.7383H373.08V52.2027H375.582V56.3513H373.121V165.12H402.162H404.459H431.035H433.498H462.372V71.3837H459.912V67.113H462.37V67.1143ZM378.043 52.3673H399.535V56.3513H378.043V52.3673ZM401.996 162.655H375.582V58.8569H401.996V162.655ZM431.034 162.655H404.622V103.26H431.034V162.655ZM459.911 162.655H433.496V100.794V73.8494H459.911V162.655ZM457.45 67.2775V71.3027H435.957V67.2775H457.45Z" fill="#F0F0F0"/>
<path d="M96.4311 66.1465H92.1652V70.4185H96.4311V66.1465Z" fill="#F0F0F0"/>
<path d="M104.471 66.1465H100.204V70.4185H104.471V66.1465Z" fill="#F0F0F0"/>
<path d="M112.51 66.1465H108.245V70.4185H112.51V66.1465Z" fill="#F0F0F0"/>
<path d="M96.4311 73.5391H92.1652V77.8111H96.4311V73.5391Z" fill="#F0F0F0"/>
<path d="M104.471 73.5391H100.204V77.8111H104.471V73.5391Z" fill="#F0F0F0"/>
<path d="M112.51 73.5391H108.245V77.8111H112.51V73.5391Z" fill="#F0F0F0"/>
<path d="M96.4311 80.9326H92.1652V85.2033H96.4311V80.9326Z" fill="#F0F0F0"/>
<path d="M104.471 80.9326H100.204V85.2033H104.471V80.9326Z" fill="#F0F0F0"/>
<path d="M112.51 80.9326H108.245V85.2033H112.51V80.9326Z" fill="#F0F0F0"/>
<path d="M96.4311 88.3262H92.1652V92.5982H96.4311V88.3262Z" fill="#F0F0F0"/>
<path d="M104.471 88.3262H100.204V92.5982H104.471V88.3262Z" fill="#F0F0F0"/>
<path d="M112.51 88.3262H108.245V92.5982H112.51V88.3262Z" fill="#F0F0F0"/>
<path d="M96.4311 95.7197H92.1652V99.9917H96.4311V95.7197Z" fill="#F0F0F0"/>
<path d="M104.471 95.7197H100.204V99.9917H104.471V95.7197Z" fill="#F0F0F0"/>
<path d="M112.51 95.7197H108.245V99.9917H112.51V95.7197Z" fill="#F0F0F0"/>
<path d="M96.4311 103.113H92.1652V107.387H96.4311V103.113Z" fill="#F0F0F0"/>
<path d="M104.471 103.113H100.204V107.387H104.471V103.113Z" fill="#F0F0F0"/>
<path d="M112.51 103.113H108.245V107.387H112.51V103.113Z" fill="#F0F0F0"/>
<path d="M96.4311 110.507H92.1652V114.78H96.4311V110.507Z" fill="#F0F0F0"/>
<path d="M104.471 110.507H100.204V114.78H104.471V110.507Z" fill="#F0F0F0"/>
<path d="M112.51 110.507H108.245V114.78H112.51V110.507Z" fill="#F0F0F0"/>
<path d="M96.4311 117.901H92.1652V122.173H96.4311V117.901Z" fill="#F0F0F0"/>
<path d="M104.471 117.901H100.204V122.173H104.471V117.901Z" fill="#F0F0F0"/>
<path d="M112.51 117.901H108.245V122.173H112.51V117.901Z" fill="#F0F0F0"/>
<path d="M96.4311 125.295H92.1652V129.567H96.4311V125.295Z" fill="#F0F0F0"/>
<path d="M104.471 125.295H100.204V129.567H104.471V125.295Z" fill="#F0F0F0"/>
<path d="M112.51 125.295H108.245V129.567H112.51V125.295Z" fill="#F0F0F0"/>
<path d="M96.4311 132.687H92.1652V136.959H96.4311V132.687Z" fill="#F0F0F0"/>
<path d="M104.471 132.687H100.204V136.959H104.471V132.687Z" fill="#F0F0F0"/>
<path d="M112.51 132.687H108.245V136.959H112.51V132.687Z" fill="#F0F0F0"/>
<path d="M96.4311 140.081H92.1652V144.354H96.4311V140.081Z" fill="#F0F0F0"/>
<path d="M104.471 140.081H100.204V144.354H104.471V140.081Z" fill="#F0F0F0"/>
<path d="M112.51 140.081H108.245V144.354H112.51V140.081Z" fill="#F0F0F0"/>
<path d="M96.4311 147.474H92.1652V151.747H96.4311V147.474Z" fill="#F0F0F0"/>
<path d="M104.471 147.474H100.204V151.747H104.471V147.474Z" fill="#F0F0F0"/>
<path d="M112.51 147.474H108.245V151.747H112.51V147.474Z" fill="#F0F0F0"/>
<path d="M96.4311 154.868H92.1652V159.141H96.4311V154.868Z" fill="#F0F0F0"/>
<path d="M104.471 154.868H100.204V164.069H104.471V154.868Z" fill="#F0F0F0"/>
<path d="M112.51 154.868H108.245V159.141H112.51V154.868Z" fill="#F0F0F0"/>
<path d="M154.346 80.9326H150.08V85.2033H154.346V80.9326Z" fill="#F0F0F0"/>
<path d="M162.385 80.9326H158.12V85.2033H162.385V80.9326Z" fill="#F0F0F0"/>
<path d="M170.425 80.9326H166.16V85.2033H170.425V80.9326Z" fill="#F0F0F0"/>
<path d="M154.346 88.3262H150.08V92.5982H154.346V88.3262Z" fill="#F0F0F0"/>
<path d="M162.385 88.3262H158.12V92.5982H162.385V88.3262Z" fill="#F0F0F0"/>
<path d="M170.425 88.3262H166.16V92.5982H170.425V88.3262Z" fill="#F0F0F0"/>
<path d="M154.346 95.7197H150.08V99.9917H154.346V95.7197Z" fill="#F0F0F0"/>
<path d="M162.385 95.7197H158.12V99.9917H162.385V95.7197Z" fill="#F0F0F0"/>
<path d="M170.425 95.7197H166.16V99.9917H170.425V95.7197Z" fill="#F0F0F0"/>
<path d="M154.346 103.113H150.08V107.387H154.346V103.113Z" fill="#F0F0F0"/>
<path d="M162.385 103.113H158.12V107.387H162.385V103.113Z" fill="#F0F0F0"/>
<path d="M170.425 103.113H166.16V107.387H170.425V103.113Z" fill="#F0F0F0"/>
<path d="M154.346 110.507H150.08V114.78H154.346V110.507Z" fill="#F0F0F0"/>
<path d="M162.385 110.507H158.12V114.78H162.385V110.507Z" fill="#F0F0F0"/>
<path d="M170.425 110.507H166.16V114.78H170.425V110.507Z" fill="#F0F0F0"/>
<path d="M154.346 117.901H150.08V122.173H154.346V117.901Z" fill="#F0F0F0"/>
<path d="M162.385 117.901H158.12V122.173H162.385V117.901Z" fill="#F0F0F0"/>
<path d="M170.425 117.901H166.16V122.173H170.425V117.901Z" fill="#F0F0F0"/>
<path d="M154.346 125.295H150.08V129.567H154.346V125.295Z" fill="#F0F0F0"/>
<path d="M162.385 125.295H158.12V129.567H162.385V125.295Z" fill="#F0F0F0"/>
<path d="M170.425 125.295H166.16V129.567H170.425V125.295Z" fill="#F0F0F0"/>
<path d="M154.346 132.687H150.08V136.959H154.346V132.687Z" fill="#F0F0F0"/>
<path d="M162.385 132.687H158.12V136.959H162.385V132.687Z" fill="#F0F0F0"/>
<path d="M170.425 132.687H166.16V136.959H170.425V132.687Z" fill="#F0F0F0"/>
<path d="M154.346 140.081H150.08V144.354H154.346V140.081Z" fill="#F0F0F0"/>
<path d="M162.385 140.081H158.12V144.354H162.385V140.081Z" fill="#F0F0F0"/>
<path d="M170.425 140.081H166.16V144.354H170.425V140.081Z" fill="#F0F0F0"/>
<path d="M154.346 147.474H150.08V151.747H154.346V147.474Z" fill="#F0F0F0"/>
<path d="M162.385 147.474H158.12V151.747H162.385V147.474Z" fill="#F0F0F0"/>
<path d="M170.425 147.474H166.16V151.747H170.425V147.474Z" fill="#F0F0F0"/>
<path d="M154.346 154.868H150.08V159.141H154.346V154.868Z" fill="#F0F0F0"/>
<path d="M162.385 154.868H158.12V164.069H162.385V154.868Z" fill="#F0F0F0"/>
<path d="M170.425 154.868H166.16V159.141H170.425V154.868Z" fill="#F0F0F0"/>
<path d="M125.471 110.507H121.205V114.78H125.471V110.507Z" fill="#F0F0F0"/>
<path d="M133.511 110.507H129.246V114.78H133.511V110.507Z" fill="#F0F0F0"/>
<path d="M141.551 110.507H137.284V114.78H141.551V110.507Z" fill="#F0F0F0"/>
<path d="M125.471 117.901H121.205V122.173H125.471V117.901Z" fill="#F0F0F0"/>
<path d="M133.511 117.901H129.246V122.173H133.511V117.901Z" fill="#F0F0F0"/>
<path d="M141.551 117.901H137.284V122.173H141.551V117.901Z" fill="#F0F0F0"/>
<path d="M125.471 125.295H121.205V129.567H125.471V125.295Z" fill="#F0F0F0"/>
<path d="M133.511 125.295H129.246V129.567H133.511V125.295Z" fill="#F0F0F0"/>
<path d="M141.551 125.295H137.284V129.567H141.551V125.295Z" fill="#F0F0F0"/>
<path d="M125.471 132.687H121.205V136.959H125.471V132.687Z" fill="#F0F0F0"/>
<path d="M133.511 132.687H129.246V136.959H133.511V132.687Z" fill="#F0F0F0"/>
<path d="M141.551 132.687H137.284V136.959H141.551V132.687Z" fill="#F0F0F0"/>
<path d="M125.471 140.081H121.205V144.354H125.471V140.081Z" fill="#F0F0F0"/>
<path d="M133.511 140.081H129.246V144.354H133.511V140.081Z" fill="#F0F0F0"/>
<path d="M141.551 140.081H137.284V144.354H141.551V140.081Z" fill="#F0F0F0"/>
<path d="M125.471 147.474H121.205V151.747H125.471V147.474Z" fill="#F0F0F0"/>
<path d="M133.511 147.474H129.246V151.747H133.511V147.474Z" fill="#F0F0F0"/>
<path d="M141.551 147.474H137.284V151.747H141.551V147.474Z" fill="#F0F0F0"/>
<path d="M133.511 154.868H129.246V164.069H133.511V154.868Z" fill="#F0F0F0"/>
<path d="M125.471 154.868H121.205V159.141H125.471V154.868Z" fill="#F0F0F0"/>
<path d="M141.551 154.868H137.284V159.141H141.551V154.868Z" fill="#F0F0F0"/>
<path d="M175.919 70.584V68.1195H144.583V70.584H147.045V74.8547H144.583V104.264H118.007V59.8211H115.545V55.6725H117.945V53.208H86.6284V55.6725H89.1304V59.8211H86.6695V168.589H115.71H118.008H144.584H147.046H175.92V74.8534H173.461V70.5827H175.919V70.584ZM91.5914 55.837H113.084V59.8211H91.5914V55.837ZM115.545 166.125H89.1304V62.3267H115.545V166.125ZM144.583 166.125H118.171V106.729H144.583V166.125ZM173.459 166.125H147.045V104.264V77.3192H173.459V166.125ZM170.998 70.7472V74.7724H149.506V70.7472H170.998Z" fill="#F0F0F0"/>
<path d="M263.141 76.5576H267.407V80.8296H263.141V76.5576Z" fill="#F0F0F0"/>
<path d="M255.101 76.5576H259.369V80.8296H255.101V76.5576Z" fill="#F0F0F0"/>
<path d="M247.063 76.5576H251.327V80.8296H247.063V76.5576Z" fill="#F0F0F0"/>
<path d="M263.141 83.9502H267.407V88.2222H263.141V83.9502Z" fill="#F0F0F0"/>
<path d="M255.101 83.9502H259.369V88.2222H255.101V83.9502Z" fill="#F0F0F0"/>
<path d="M247.063 83.9502H251.327V88.2222H247.063V83.9502Z" fill="#F0F0F0"/>
<path d="M263.141 91.3438H267.407V95.6145H263.141V91.3438Z" fill="#F0F0F0"/>
<path d="M255.101 91.3438H259.369V95.6145H255.101V91.3438Z" fill="#F0F0F0"/>
<path d="M247.063 91.3438H251.327V95.6145H247.063V91.3438Z" fill="#F0F0F0"/>
<path d="M263.141 98.7373H267.407V103.009H263.141V98.7373Z" fill="#F0F0F0"/>
<path d="M255.101 98.7373H259.369V103.009H255.101V98.7373Z" fill="#F0F0F0"/>
<path d="M247.063 98.7373H251.327V103.009H247.063V98.7373Z" fill="#F0F0F0"/>
<path d="M263.141 106.131H267.407V110.403H263.141V106.131Z" fill="#F0F0F0"/>
<path d="M255.101 106.131H259.369V110.403H255.101V106.131Z" fill="#F0F0F0"/>
<path d="M247.063 106.131H251.327V110.403H247.063V106.131Z" fill="#F0F0F0"/>
<path d="M263.141 113.524H267.407V117.798H263.141V113.524Z" fill="#F0F0F0"/>
<path d="M255.101 113.524H259.369V117.798H255.101V113.524Z" fill="#F0F0F0"/>
<path d="M247.063 113.524H251.327V117.798H247.063V113.524Z" fill="#F0F0F0"/>
<path d="M263.141 120.918H267.407V125.191H263.141V120.918Z" fill="#F0F0F0"/>
<path d="M255.101 120.918H259.369V125.191H255.101V120.918Z" fill="#F0F0F0"/>
<path d="M247.063 120.918H251.327V125.191H247.063V120.918Z" fill="#F0F0F0"/>
<path d="M263.141 128.312H267.407V132.585H263.141V128.312Z" fill="#F0F0F0"/>
<path d="M255.101 128.312H259.369V132.585H255.101V128.312Z" fill="#F0F0F0"/>
<path d="M247.063 128.312H251.327V132.585H247.063V128.312Z" fill="#F0F0F0"/>
<path d="M263.141 135.706H267.407V139.978H263.141V135.706Z" fill="#F0F0F0"/>
<path d="M255.101 135.706H259.369V139.978H255.101V135.706Z" fill="#F0F0F0"/>
<path d="M247.063 135.706H251.327V139.978H247.063V135.706Z" fill="#F0F0F0"/>
<path d="M263.141 143.098H267.407V147.37H263.141V143.098Z" fill="#F0F0F0"/>
<path d="M255.101 143.098H259.369V147.37H255.101V143.098Z" fill="#F0F0F0"/>
<path d="M247.063 143.098H251.327V147.37H247.063V143.098Z" fill="#F0F0F0"/>
<path d="M263.141 150.492H267.407V154.765H263.141V150.492Z" fill="#F0F0F0"/>
<path d="M255.101 150.492H259.369V154.765H255.101V150.492Z" fill="#F0F0F0"/>
<path d="M247.063 150.492H251.327V154.765H247.063V150.492Z" fill="#F0F0F0"/>
<path d="M263.141 157.885H267.407V162.158H263.141V157.885Z" fill="#F0F0F0"/>
<path d="M255.101 157.885H259.369V162.158H255.101V157.885Z" fill="#F0F0F0"/>
<path d="M247.063 157.885H251.327V162.158H247.063V157.885Z" fill="#F0F0F0"/>
<path d="M263.141 165.279H267.407V169.553H263.141V165.279Z" fill="#F0F0F0"/>
<path d="M255.101 165.279H259.369V174.48H255.101V165.279Z" fill="#F0F0F0"/>
<path d="M247.063 165.279H251.327V169.553H247.063V165.279Z" fill="#F0F0F0"/>
<path d="M205.227 91.3438H209.493V95.6145H205.227V91.3438Z" fill="#F0F0F0"/>
<path d="M197.188 91.3438H201.453V95.6145H197.188V91.3438Z" fill="#F0F0F0"/>
<path d="M189.148 91.3438H193.413V95.6145H189.148V91.3438Z" fill="#F0F0F0"/>
<path d="M205.227 98.7373H209.493V103.009H205.227V98.7373Z" fill="#F0F0F0"/>
<path d="M197.188 98.7373H201.453V103.009H197.188V98.7373Z" fill="#F0F0F0"/>
<path d="M189.148 98.7373H193.413V103.009H189.148V98.7373Z" fill="#F0F0F0"/>
<path d="M205.227 106.131H209.493V110.403H205.227V106.131Z" fill="#F0F0F0"/>
<path d="M197.188 106.131H201.453V110.403H197.188V106.131Z" fill="#F0F0F0"/>
<path d="M189.148 106.131H193.413V110.403H189.148V106.131Z" fill="#F0F0F0"/>
<path d="M205.227 113.524H209.493V117.798H205.227V113.524Z" fill="#F0F0F0"/>
<path d="M197.188 113.524H201.453V117.798H197.188V113.524Z" fill="#F0F0F0"/>
<path d="M189.148 113.524H193.413V117.798H189.148V113.524Z" fill="#F0F0F0"/>
<path d="M205.227 120.918H209.493V125.191H205.227V120.918Z" fill="#F0F0F0"/>
<path d="M197.188 120.918H201.453V125.191H197.188V120.918Z" fill="#F0F0F0"/>
<path d="M189.148 120.918H193.413V125.191H189.148V120.918Z" fill="#F0F0F0"/>
<path d="M205.227 128.312H209.493V132.585H205.227V128.312Z" fill="#F0F0F0"/>
<path d="M197.188 128.312H201.453V132.585H197.188V128.312Z" fill="#F0F0F0"/>
<path d="M189.148 128.312H193.413V132.585H189.148V128.312Z" fill="#F0F0F0"/>
<path d="M205.227 135.706H209.493V139.978H205.227V135.706Z" fill="#F0F0F0"/>
<path d="M197.188 135.706H201.453V139.978H197.188V135.706Z" fill="#F0F0F0"/>
<path d="M189.148 135.706H193.413V139.978H189.148V135.706Z" fill="#F0F0F0"/>
<path d="M205.227 143.098H209.493V147.37H205.227V143.098Z" fill="#F0F0F0"/>
<path d="M197.188 143.098H201.453V147.37H197.188V143.098Z" fill="#F0F0F0"/>
<path d="M189.148 143.098H193.413V147.37H189.148V143.098Z" fill="#F0F0F0"/>
<path d="M205.227 150.492H209.493V154.765H205.227V150.492Z" fill="#F0F0F0"/>
<path d="M197.188 150.492H201.453V154.765H197.188V150.492Z" fill="#F0F0F0"/>
<path d="M189.148 150.492H193.413V154.765H189.148V150.492Z" fill="#F0F0F0"/>
<path d="M205.227 157.885H209.493V162.158H205.227V157.885Z" fill="#F0F0F0"/>
<path d="M197.188 157.885H201.453V162.158H197.188V157.885Z" fill="#F0F0F0"/>
<path d="M189.148 157.885H193.413V162.158H189.148V157.885Z" fill="#F0F0F0"/>
<path d="M205.227 165.279H209.493V169.553H205.227V165.279Z" fill="#F0F0F0"/>
<path d="M197.188 165.279H201.453V174.48H197.188V165.279Z" fill="#F0F0F0"/>
<path d="M189.148 165.279H193.413V169.553H189.148V165.279Z" fill="#F0F0F0"/>
<path d="M234.102 120.918H238.368V125.191H234.102V120.918Z" fill="#F0F0F0"/>
<path d="M226.062 120.918H230.327V125.191H226.062V120.918Z" fill="#F0F0F0"/>
<path d="M218.022 120.918H222.289V125.191H218.022V120.918Z" fill="#F0F0F0"/>
<path d="M234.102 128.312H238.368V132.585H234.102V128.312Z" fill="#F0F0F0"/>
<path d="M226.062 128.312H230.327V132.585H226.062V128.312Z" fill="#F0F0F0"/>
<path d="M218.022 128.312H222.289V132.585H218.022V128.312Z" fill="#F0F0F0"/>
<path d="M234.102 135.706H238.368V139.978H234.102V135.706Z" fill="#F0F0F0"/>
<path d="M226.062 135.706H230.327V139.978H226.062V135.706Z" fill="#F0F0F0"/>
<path d="M218.022 135.706H222.289V139.978H218.022V135.706Z" fill="#F0F0F0"/>
<path d="M234.102 143.098H238.368V147.37H234.102V143.098Z" fill="#F0F0F0"/>
<path d="M226.062 143.098H230.327V147.37H226.062V143.098Z" fill="#F0F0F0"/>
<path d="M218.022 143.098H222.289V147.37H218.022V143.098Z" fill="#F0F0F0"/>
<path d="M234.102 150.492H238.368V154.765H234.102V150.492Z" fill="#F0F0F0"/>
<path d="M226.062 150.492H230.327V154.765H226.062V150.492Z" fill="#F0F0F0"/>
<path d="M218.022 150.492H222.289V154.765H218.022V150.492Z" fill="#F0F0F0"/>
<path d="M234.102 157.885H238.368V162.158H234.102V157.885Z" fill="#F0F0F0"/>
<path d="M226.062 157.885H230.327V162.158H226.062V157.885Z" fill="#F0F0F0"/>
<path d="M218.022 157.885H222.289V162.158H218.022V157.885Z" fill="#F0F0F0"/>
<path d="M226.062 165.279H230.327V174.48H226.062V165.279Z" fill="#F0F0F0"/>
<path d="M234.102 165.279H238.368V169.553H234.102V165.279Z" fill="#F0F0F0"/>
<path d="M218.022 165.279H222.289V169.553H218.022V165.279Z" fill="#F0F0F0"/>
<path d="M183.654 80.9951V78.5306H214.99V80.9951H212.527V85.2658H214.99V114.675H241.566V70.2322H244.028V66.0836H241.627V63.6191H272.944V66.0836H270.442V70.2322H272.903V179H243.862H241.564H214.988H212.526H183.652V85.2645H186.112V80.9938H183.654V80.9951ZM267.981 66.2482H246.489V70.2322H267.981V66.2482ZM244.028 176.536H270.442V72.7378H244.028V176.536ZM214.99 176.536H241.401V117.141H214.99V176.536ZM186.113 176.536H212.527V114.675V87.7303H186.113V176.536ZM188.574 81.1584V85.1835H210.066V81.1584H188.574Z" fill="#F0F0F0"/>
<path d="M359.01 95.0645H363.276V99.3365H359.01V95.0645Z" fill="#F0F0F0"/>
<path d="M350.97 95.0645H355.237V99.3365H350.97V95.0645Z" fill="#F0F0F0"/>
<path d="M342.931 95.0645H347.196V99.3365H342.931V95.0645Z" fill="#F0F0F0"/>
<path d="M359.01 102.457H363.276V106.729H359.01V102.457Z" fill="#F0F0F0"/>
<path d="M350.97 102.457H355.237V106.729H350.97V102.457Z" fill="#F0F0F0"/>
<path d="M342.931 102.457H347.196V106.729H342.931V102.457Z" fill="#F0F0F0"/>
<path d="M359.01 109.851H363.276V114.121H359.01V109.851Z" fill="#F0F0F0"/>
<path d="M350.97 109.851H355.237V114.121H350.97V109.851Z" fill="#F0F0F0"/>
<path d="M342.931 109.851H347.196V114.121H342.931V109.851Z" fill="#F0F0F0"/>
<path d="M359.01 117.244H363.276V121.516H359.01V117.244Z" fill="#F0F0F0"/>
<path d="M350.97 117.244H355.237V121.516H350.97V117.244Z" fill="#F0F0F0"/>
<path d="M342.931 117.244H347.196V121.516H342.931V117.244Z" fill="#F0F0F0"/>
<path d="M359.01 124.638H363.276V128.91H359.01V124.638Z" fill="#F0F0F0"/>
<path d="M350.97 124.638H355.237V128.91H350.97V124.638Z" fill="#F0F0F0"/>
<path d="M342.931 124.638H347.196V128.91H342.931V124.638Z" fill="#F0F0F0"/>
<path d="M359.01 132.031H363.276V136.305H359.01V132.031Z" fill="#F0F0F0"/>
<path d="M350.97 132.031H355.237V136.305H350.97V132.031Z" fill="#F0F0F0"/>
<path d="M342.931 132.031H347.196V136.305H342.931V132.031Z" fill="#F0F0F0"/>
<path d="M359.01 139.425H363.276V143.698H359.01V139.425Z" fill="#F0F0F0"/>
<path d="M350.97 139.425H355.237V143.698H350.97V139.425Z" fill="#F0F0F0"/>
<path d="M342.931 139.425H347.196V143.698H342.931V139.425Z" fill="#F0F0F0"/>
<path d="M359.01 146.819H363.276V151.091H359.01V146.819Z" fill="#F0F0F0"/>
<path d="M350.97 146.819H355.237V151.091H350.97V146.819Z" fill="#F0F0F0"/>
<path d="M342.931 146.819H347.196V151.091H342.931V146.819Z" fill="#F0F0F0"/>
<path d="M359.01 154.213H363.276V158.485H359.01V154.213Z" fill="#F0F0F0"/>
<path d="M350.97 154.213H355.237V158.485H350.97V154.213Z" fill="#F0F0F0"/>
<path d="M342.931 154.213H347.196V158.485H342.931V154.213Z" fill="#F0F0F0"/>
<path d="M359.01 161.604H363.276V165.876H359.01V161.604Z" fill="#F0F0F0"/>
<path d="M350.97 161.604H355.237V165.876H350.97V161.604Z" fill="#F0F0F0"/>
<path d="M342.931 161.604H347.196V165.876H342.931V161.604Z" fill="#F0F0F0"/>
<path d="M301.096 109.851H305.361V114.121H301.096V109.851Z" fill="#F0F0F0"/>
<path d="M293.057 109.851H297.321V114.121H293.057V109.851Z" fill="#F0F0F0"/>
<path d="M285.017 109.851H289.281V114.121H285.017V109.851Z" fill="#F0F0F0"/>
<path d="M301.096 117.244H305.361V121.516H301.096V117.244Z" fill="#F0F0F0"/>
<path d="M293.057 117.244H297.321V121.516H293.057V117.244Z" fill="#F0F0F0"/>
<path d="M285.017 117.244H289.281V121.516H285.017V117.244Z" fill="#F0F0F0"/>
<path d="M301.096 124.638H305.361V128.91H301.096V124.638Z" fill="#F0F0F0"/>
<path d="M293.057 124.638H297.321V128.91H293.057V124.638Z" fill="#F0F0F0"/>
<path d="M285.017 124.638H289.281V128.91H285.017V124.638Z" fill="#F0F0F0"/>
<path d="M301.096 132.031H305.361V136.305H301.096V132.031Z" fill="#F0F0F0"/>
<path d="M293.057 132.031H297.321V136.305H293.057V132.031Z" fill="#F0F0F0"/>
<path d="M285.017 132.031H289.281V136.305H285.017V132.031Z" fill="#F0F0F0"/>
<path d="M301.096 139.425H305.361V143.698H301.096V139.425Z" fill="#F0F0F0"/>
<path d="M293.057 139.425H297.321V143.698H293.057V139.425Z" fill="#F0F0F0"/>
<path d="M285.017 139.425H289.281V143.698H285.017V139.425Z" fill="#F0F0F0"/>
<path d="M301.096 146.819H305.361V151.091H301.096V146.819Z" fill="#F0F0F0"/>
<path d="M293.057 146.819H297.321V151.091H293.057V146.819Z" fill="#F0F0F0"/>
<path d="M285.017 146.819H289.281V151.091H285.017V146.819Z" fill="#F0F0F0"/>
<path d="M301.096 154.213H305.361V158.485H301.096V154.213Z" fill="#F0F0F0"/>
<path d="M293.057 154.213H297.321V158.485H293.057V154.213Z" fill="#F0F0F0"/>
<path d="M285.017 154.213H289.281V158.485H285.017V154.213Z" fill="#F0F0F0"/>
<path d="M301.096 161.604H305.361V165.876H301.096V161.604Z" fill="#F0F0F0"/>
<path d="M293.057 161.604H297.321V165.876H293.057V161.604Z" fill="#F0F0F0"/>
<path d="M285.017 161.604H289.281V165.876H285.017V161.604Z" fill="#F0F0F0"/>
<path d="M329.971 139.425H334.237V143.698H329.971V139.425Z" fill="#F0F0F0"/>
<path d="M321.931 139.425H326.195V143.698H321.931V139.425Z" fill="#F0F0F0"/>
<path d="M313.891 139.425H318.158V143.698H313.891V139.425Z" fill="#F0F0F0"/>
<path d="M329.971 146.819H334.237V151.091H329.971V146.819Z" fill="#F0F0F0"/>
<path d="M321.931 146.819H326.195V151.091H321.931V146.819Z" fill="#F0F0F0"/>
<path d="M313.891 146.819H318.158V151.091H313.891V146.819Z" fill="#F0F0F0"/>
<path d="M329.971 154.213H334.237V158.485H329.971V154.213Z" fill="#F0F0F0"/>
<path d="M321.931 154.213H326.195V158.485H321.931V154.213Z" fill="#F0F0F0"/>
<path d="M313.891 154.213H318.158V158.485H313.891V154.213Z" fill="#F0F0F0"/>
<path d="M329.971 161.604H334.237V165.876H329.971V161.604Z" fill="#F0F0F0"/>
<path d="M321.931 161.604H326.195V165.876H321.931V161.604Z" fill="#F0F0F0"/>
<path d="M313.891 161.604H318.158V165.876H313.891V161.604Z" fill="#F0F0F0"/>
<path d="M279.522 99.5019V97.0375H310.858V99.5019H308.396V103.773H310.858V133.182H337.434V88.739H339.897V84.5904H337.496V82.126H368.813V84.5904H366.311V88.739H368.772V197.507H339.731H337.433H310.857H308.395H279.521V103.771H281.981V99.5007H279.522V99.5019ZM363.85 84.755H342.358V88.739H363.85V84.755ZM339.897 195.043H366.311V91.2446H339.897V195.043ZM310.858 195.043H337.27V135.647H310.858V195.043ZM281.982 195.043H308.396V133.182V106.237H281.982V195.043ZM284.443 99.6652V103.69H305.935V99.6652H284.443Z" fill="#F0F0F0"/>
</svg>
