<svg width="258" height="313" viewBox="0 0 258 313" fill="none" xmlns="http://www.w3.org/2000/svg">
<path d="M109.631 61.241C123.111 51.4151 137.807 33.4181 153.001 30.8015C168.228 28.5008 183.81 41.7475 196.104 57.0885C208.365 72.1137 217.37 89.5492 218.701 106.788C220.031 124.027 214.004 141.052 204.375 154.152C194.922 167.401 182.009 176.559 168.836 187.797C155.522 199.202 141.947 212.687 125.301 216.658C108.512 220.795 88.7947 215.251 75.2802 203.475C61.4486 191.717 53.7869 173.41 48.3019 156.091C42.8169 138.772 39.8256 122.422 43.9984 108.998C48.1712 95.5746 59.8251 85.059 71.7679 78.8159C83.7437 72.8886 96.0085 71.2338 109.631 61.241Z" fill="#F66464"/>
<rect y="169" width="258" height="144" rx="28" fill="#EFEDED"/>
<path d="M60.1704 202.8C61.3224 202.8 62.3464 203.072 63.2424 203.616C64.1491 204.16 64.8158 204.944 65.2424 205.968H63.4824C63.1624 205.36 62.7144 204.896 62.1384 204.576C61.5624 204.256 60.9064 204.096 60.1704 204.096C59.3811 204.096 58.6664 204.277 58.0264 204.64C57.3971 204.992 56.9011 205.499 56.5384 206.16C56.1864 206.821 56.0104 207.584 56.0104 208.448C56.0104 209.312 56.1864 210.075 56.5384 210.736C56.9011 211.397 57.3971 211.909 58.0264 212.272C58.6664 212.635 59.3811 212.816 60.1704 212.816C60.9064 212.816 61.5624 212.656 62.1384 212.336C62.7144 212.005 63.1624 211.536 63.4824 210.928H65.2424C64.8158 211.952 64.1491 212.736 63.2424 213.28C62.3464 213.824 61.3224 214.096 60.1704 214.096C59.1358 214.096 58.1864 213.856 57.3224 213.376C56.4584 212.885 55.7758 212.213 55.2744 211.36C54.7731 210.496 54.5224 209.525 54.5224 208.448C54.5224 207.36 54.7731 206.389 55.2744 205.536C55.7758 204.672 56.4584 204 57.3224 203.52C58.1864 203.04 59.1358 202.8 60.1704 202.8ZM75.1839 205.216V214H73.7279V212.592C73.4399 213.104 73.0453 213.493 72.5439 213.76C72.0426 214.016 71.4826 214.144 70.8639 214.144C70.2346 214.144 69.6586 214.005 69.1359 213.728C68.6239 213.44 68.2133 213.019 67.9039 212.464C67.6053 211.909 67.4559 211.232 67.4559 210.432V205.216H68.8959V210.192C68.8959 211.067 69.1093 211.739 69.5359 212.208C69.9733 212.667 70.5653 212.896 71.3119 212.896C72.0586 212.896 72.6453 212.667 73.0719 212.208C73.5093 211.739 73.7279 211.067 73.7279 210.192V205.216H75.1839ZM79.0388 206.704C79.5615 205.616 80.4521 205.072 81.7108 205.072V206.592H81.3268C80.5801 206.592 80.0095 206.789 79.6148 207.184C79.2308 207.568 79.0388 208.24 79.0388 209.2V214H77.5828V205.216H79.0388V206.704ZM84.9294 206.704C85.4521 205.616 86.3428 205.072 87.6014 205.072V206.592H87.2174C86.4708 206.592 85.9001 206.789 85.5054 207.184C85.1214 207.568 84.9294 208.24 84.9294 209.2V214H83.4734V205.216H84.9294V206.704ZM97.3321 209.248C97.3321 209.557 97.3107 209.845 97.2681 210.112H90.2761C90.3187 210.987 90.5907 211.68 91.0921 212.192C91.6041 212.693 92.2547 212.944 93.0441 212.944C93.6414 212.944 94.1427 212.811 94.5481 212.544C94.9641 212.277 95.2681 211.925 95.4601 211.488H97.0281C96.7507 212.256 96.2707 212.891 95.5881 213.392C94.9161 213.893 94.0681 214.144 93.0441 214.144C92.2227 214.144 91.4867 213.957 90.8361 213.584C90.1961 213.211 89.6947 212.683 89.3321 212C88.9694 211.307 88.7881 210.512 88.7881 209.616C88.7881 208.709 88.9694 207.915 89.3321 207.232C89.6947 206.539 90.2067 206.005 90.8681 205.632C91.5294 205.259 92.2921 205.072 93.1561 205.072C93.9774 205.072 94.7027 205.253 95.3321 205.616C95.9614 205.979 96.4521 206.475 96.8041 207.104C97.1561 207.733 97.3321 208.448 97.3321 209.248ZM95.8121 209.056C95.8121 208.491 95.6894 208 95.4441 207.584C95.1987 207.157 94.8627 206.832 94.4361 206.608C94.0201 206.384 93.5561 206.272 93.0441 206.272C92.2867 206.272 91.6521 206.523 91.1401 207.024C90.6281 207.515 90.3454 208.192 90.2921 209.056H95.8121ZM103.465 205.072C104.095 205.072 104.665 205.216 105.177 205.504C105.7 205.781 106.111 206.203 106.409 206.768C106.719 207.323 106.873 208 106.873 208.8V214H105.433V209.04C105.433 208.155 105.22 207.483 104.793 207.024C104.367 206.565 103.775 206.336 103.017 206.336C102.271 206.336 101.679 206.565 101.241 207.024C100.815 207.483 100.601 208.155 100.601 209.04V214H99.1453V205.216H100.601V206.64C100.889 206.128 101.284 205.739 101.785 205.472C102.287 205.205 102.847 205.072 103.465 205.072ZM113.272 212.816V214H111.8C111.054 214 110.483 213.819 110.088 213.456C109.704 213.093 109.512 212.523 109.512 211.744V206.4H108.376V205.216H109.512V203.04H110.984V205.216H113.256V206.4H110.984V211.744C110.984 212.139 111.064 212.416 111.224 212.576C111.384 212.736 111.667 212.816 112.072 212.816H113.272ZM116.336 202.16V214H114.88V202.16H116.336ZM119.331 205.216L122.019 212.32L124.755 205.216H126.259L120.963 218.112H119.459L121.203 213.856L117.731 205.216H119.331ZM133.034 205.216L135.722 212.32L138.458 205.216H139.962L134.666 218.112H133.162L134.906 213.856L131.434 205.216H133.034ZM145.204 205.072C146.036 205.072 146.788 205.259 147.46 205.632C148.132 206.005 148.66 206.539 149.044 207.232C149.439 207.925 149.636 208.72 149.636 209.616C149.636 210.501 149.434 211.291 149.028 211.984C148.623 212.667 148.074 213.2 147.38 213.584C146.687 213.957 145.919 214.144 145.076 214.144C144.255 214.144 143.514 213.957 142.852 213.584C142.202 213.211 141.69 212.683 141.316 212C140.954 211.307 140.772 210.512 140.772 209.616C140.772 208.709 140.964 207.915 141.348 207.232C141.743 206.539 142.276 206.005 142.948 205.632C143.62 205.259 144.372 205.072 145.204 205.072ZM145.156 206.272C144.623 206.272 144.138 206.4 143.7 206.656C143.263 206.912 142.911 207.291 142.644 207.792C142.388 208.293 142.26 208.901 142.26 209.616C142.26 210.32 142.383 210.923 142.628 211.424C142.884 211.925 143.226 212.304 143.652 212.56C144.079 212.816 144.554 212.944 145.076 212.944C145.61 212.944 146.106 212.816 146.564 212.56C147.034 212.293 147.412 211.909 147.7 211.408C147.988 210.907 148.132 210.309 148.132 209.616C148.132 208.912 147.994 208.309 147.716 207.808C147.45 207.296 147.087 206.912 146.628 206.656C146.18 206.4 145.69 206.272 145.156 206.272ZM159.106 205.216V214H157.65V212.592C157.362 213.104 156.967 213.493 156.466 213.76C155.964 214.016 155.404 214.144 154.786 214.144C154.156 214.144 153.58 214.005 153.058 213.728C152.546 213.44 152.135 213.019 151.826 212.464C151.527 211.909 151.378 211.232 151.378 210.432V205.216H152.818V210.192C152.818 211.067 153.031 211.739 153.458 212.208C153.895 212.667 154.487 212.896 155.234 212.896C155.98 212.896 156.567 212.667 156.994 212.208C157.431 211.739 157.65 211.067 157.65 210.192V205.216H159.106ZM169.918 205.072C170.664 205.072 171.315 205.248 171.87 205.6C172.435 205.952 172.862 206.411 173.15 206.976V202.16H174.622V214H173.15V212.208C172.862 212.784 172.435 213.253 171.87 213.616C171.315 213.968 170.664 214.144 169.918 214.144C169.128 214.144 168.414 213.952 167.774 213.568C167.144 213.173 166.643 212.629 166.27 211.936C165.907 211.232 165.726 210.437 165.726 209.552C165.726 208.667 165.907 207.888 166.27 207.216C166.643 206.533 167.144 206.005 167.774 205.632C168.414 205.259 169.128 205.072 169.918 205.072ZM170.174 206.336C169.651 206.336 169.16 206.464 168.702 206.72C168.254 206.976 167.891 207.349 167.614 207.84C167.347 208.32 167.214 208.891 167.214 209.552C167.214 210.213 167.347 210.8 167.614 211.312C167.891 211.813 168.254 212.203 168.702 212.48C169.16 212.757 169.651 212.896 170.174 212.896C170.707 212.896 171.198 212.763 171.646 212.496C172.104 212.229 172.467 211.851 172.734 211.36C173.011 210.859 173.15 210.277 173.15 209.616C173.15 208.955 173.011 208.379 172.734 207.888C172.467 207.387 172.104 207.003 171.646 206.736C171.198 206.469 170.707 206.336 170.174 206.336ZM180.876 205.072C181.708 205.072 182.46 205.259 183.132 205.632C183.804 206.005 184.332 206.539 184.716 207.232C185.111 207.925 185.308 208.72 185.308 209.616C185.308 210.501 185.106 211.291 184.7 211.984C184.295 212.667 183.746 213.2 183.052 213.584C182.359 213.957 181.591 214.144 180.748 214.144C179.927 214.144 179.186 213.957 178.524 213.584C177.874 213.211 177.362 212.683 176.988 212C176.626 211.307 176.444 210.512 176.444 209.616C176.444 208.709 176.636 207.915 177.02 207.232C177.415 206.539 177.948 206.005 178.62 205.632C179.292 205.259 180.044 205.072 180.876 205.072ZM180.828 206.272C180.295 206.272 179.81 206.4 179.372 206.656C178.935 206.912 178.583 207.291 178.316 207.792C178.06 208.293 177.932 208.901 177.932 209.616C177.932 210.32 178.055 210.923 178.3 211.424C178.556 211.925 178.898 212.304 179.324 212.56C179.751 212.816 180.226 212.944 180.748 212.944C181.282 212.944 181.778 212.816 182.236 212.56C182.706 212.293 183.084 211.909 183.372 211.408C183.66 210.907 183.804 210.309 183.804 209.616C183.804 208.912 183.666 208.309 183.388 207.808C183.122 207.296 182.759 206.912 182.3 206.656C181.852 206.4 181.362 206.272 180.828 206.272ZM191.45 205.072C192.079 205.072 192.65 205.216 193.162 205.504C193.684 205.781 194.095 206.203 194.394 206.768C194.703 207.323 194.858 208 194.858 208.8V214H193.418V209.04C193.418 208.155 193.204 207.483 192.778 207.024C192.351 206.565 191.759 206.336 191.002 206.336C190.255 206.336 189.663 206.565 189.226 207.024C188.799 207.483 188.586 208.155 188.586 209.04V214H187.13V205.216H188.586V206.64C188.874 206.128 189.268 205.739 189.77 205.472C190.271 205.205 190.831 205.072 191.45 205.072ZM197.833 201.472C197.961 202.027 198.025 202.517 198.025 202.944C198.025 203.573 197.886 204.032 197.609 204.32C197.342 204.608 196.942 204.752 196.409 204.752V204.048C196.665 204.048 196.851 203.984 196.969 203.856C197.097 203.717 197.161 203.504 197.161 203.216V202.848H196.377V201.472H197.833ZM203.694 212.816V214H202.222C201.475 214 200.905 213.819 200.51 213.456C200.126 213.093 199.934 212.523 199.934 211.744V206.4H198.798V205.216H199.934V203.04H201.406V205.216H203.678V206.4H201.406V211.744C201.406 212.139 201.486 212.416 201.646 212.576C201.806 212.736 202.089 212.816 202.494 212.816H203.694ZM54.8325 229.072C55.4618 229.072 56.0325 229.216 56.5445 229.504C57.0672 229.781 57.4778 230.203 57.7765 230.768C58.0858 231.323 58.2405 232 58.2405 232.8V238H56.8005V233.04C56.8005 232.155 56.5872 231.483 56.1605 231.024C55.7338 230.565 55.1418 230.336 54.3845 230.336C53.6378 230.336 53.0458 230.565 52.6085 231.024C52.1818 231.483 51.9685 232.155 51.9685 233.04V238H50.5125V226.16H51.9685V230.64C52.2565 230.128 52.6512 229.739 53.1525 229.472C53.6538 229.205 54.2138 229.072 54.8325 229.072ZM64.1754 229.072C64.922 229.072 65.5727 229.248 66.1274 229.6C66.6927 229.952 67.1194 230.411 67.4074 230.976V229.216H68.8794V238H67.4074V236.208C67.1194 236.784 66.6927 237.253 66.1274 237.616C65.5727 237.968 64.922 238.144 64.1754 238.144C63.386 238.144 62.6714 237.952 62.0314 237.568C61.402 237.173 60.9007 236.629 60.5274 235.936C60.1647 235.232 59.9834 234.437 59.9834 233.552C59.9834 232.667 60.1647 231.888 60.5274 231.216C60.9007 230.533 61.402 230.005 62.0314 229.632C62.6714 229.259 63.386 229.072 64.1754 229.072ZM64.4314 230.336C63.9087 230.336 63.418 230.464 62.9594 230.72C62.5114 230.976 62.1487 231.349 61.8714 231.84C61.6047 232.32 61.4714 232.891 61.4714 233.552C61.4714 234.213 61.6047 234.8 61.8714 235.312C62.1487 235.813 62.5114 236.203 62.9594 236.48C63.418 236.757 63.9087 236.896 64.4314 236.896C64.9647 236.896 65.4554 236.763 65.9034 236.496C66.362 236.229 66.7247 235.851 66.9914 235.36C67.2687 234.859 67.4074 234.277 67.4074 233.616C67.4074 232.955 67.2687 232.379 66.9914 231.888C66.7247 231.387 66.362 231.003 65.9034 230.736C65.4554 230.469 64.9647 230.336 64.4314 230.336ZM74.5101 236.64L77.2141 229.216H78.7821L75.3421 238H73.6941L70.2701 229.216H71.8221L74.5101 236.64ZM88.1368 233.248C88.1368 233.557 88.1154 233.845 88.0728 234.112H81.0807C81.1234 234.987 81.3954 235.68 81.8968 236.192C82.4088 236.693 83.0594 236.944 83.8488 236.944C84.4461 236.944 84.9474 236.811 85.3528 236.544C85.7688 236.277 86.0728 235.925 86.2648 235.488H87.8328C87.5554 236.256 87.0754 236.891 86.3928 237.392C85.7208 237.893 84.8728 238.144 83.8488 238.144C83.0274 238.144 82.2914 237.957 81.6408 237.584C81.0008 237.211 80.4994 236.683 80.1368 236C79.7741 235.307 79.5928 234.512 79.5928 233.616C79.5928 232.709 79.7741 231.915 80.1368 231.232C80.4994 230.539 81.0114 230.005 81.6728 229.632C82.3341 229.259 83.0968 229.072 83.9608 229.072C84.7821 229.072 85.5074 229.253 86.1368 229.616C86.7661 229.979 87.2568 230.475 87.6088 231.104C87.9608 231.733 88.1368 232.448 88.1368 233.248ZM86.6168 233.056C86.6168 232.491 86.4941 232 86.2488 231.584C86.0034 231.157 85.6674 230.832 85.2408 230.608C84.8248 230.384 84.3608 230.272 83.8488 230.272C83.0914 230.272 82.4568 230.523 81.9448 231.024C81.4328 231.515 81.1501 232.192 81.0968 233.056H86.6168ZM99.8189 226.8C100.971 226.8 101.995 227.072 102.891 227.616C103.798 228.16 104.464 228.944 104.891 229.968H103.131C102.811 229.36 102.363 228.896 101.787 228.576C101.211 228.256 100.555 228.096 99.8189 228.096C99.0295 228.096 98.3149 228.277 97.6749 228.64C97.0455 228.992 96.5495 229.499 96.1869 230.16C95.8349 230.821 95.6589 231.584 95.6589 232.448C95.6589 233.312 95.8349 234.075 96.1869 234.736C96.5495 235.397 97.0455 235.909 97.6749 236.272C98.3149 236.635 99.0295 236.816 99.8189 236.816C100.555 236.816 101.211 236.656 101.787 236.336C102.363 236.005 102.811 235.536 103.131 234.928H104.891C104.464 235.952 103.798 236.736 102.891 237.28C101.995 237.824 100.971 238.096 99.8189 238.096C98.7842 238.096 97.8349 237.856 96.9709 237.376C96.1069 236.885 95.4242 236.213 94.9229 235.36C94.4215 234.496 94.1709 233.525 94.1709 232.448C94.1709 231.36 94.4215 230.389 94.9229 229.536C95.4242 228.672 96.1069 228 96.9709 227.52C97.8349 227.04 98.7842 226.8 99.8189 226.8ZM108.64 226.16V238H107.184V226.16H108.64ZM110.804 226.816C110.804 226.539 110.9 226.304 111.092 226.112C111.284 225.92 111.513 225.824 111.78 225.824C112.057 225.824 112.292 225.92 112.484 226.112C112.676 226.304 112.772 226.539 112.772 226.816C112.772 227.093 112.676 227.328 112.484 227.52C112.292 227.712 112.057 227.808 111.78 227.808C111.502 227.808 111.268 227.712 111.076 227.52C110.894 227.328 110.804 227.093 110.804 226.816ZM112.5 229.216V238H111.044V229.216H112.5ZM122.871 233.248C122.871 233.557 122.85 233.845 122.807 234.112H115.815C115.858 234.987 116.13 235.68 116.631 236.192C117.143 236.693 117.794 236.944 118.583 236.944C119.18 236.944 119.682 236.811 120.087 236.544C120.503 236.277 120.807 235.925 120.999 235.488H122.567C122.29 236.256 121.81 236.891 121.127 237.392C120.455 237.893 119.607 238.144 118.583 238.144C117.762 238.144 117.026 237.957 116.375 237.584C115.735 237.211 115.234 236.683 114.871 236C114.508 235.307 114.327 234.512 114.327 233.616C114.327 232.709 114.508 231.915 114.871 231.232C115.234 230.539 115.746 230.005 116.407 229.632C117.068 229.259 117.831 229.072 118.695 229.072C119.516 229.072 120.242 229.253 120.871 229.616C121.5 229.979 121.991 230.475 122.343 231.104C122.695 231.733 122.871 232.448 122.871 233.248ZM121.351 233.056C121.351 232.491 121.228 232 120.983 231.584C120.738 231.157 120.402 230.832 119.975 230.608C119.559 230.384 119.095 230.272 118.583 230.272C117.826 230.272 117.191 230.523 116.679 231.024C116.167 231.515 115.884 232.192 115.831 233.056H121.351ZM129.004 229.072C129.634 229.072 130.204 229.216 130.716 229.504C131.239 229.781 131.65 230.203 131.948 230.768C132.258 231.323 132.412 232 132.412 232.8V238H130.972V233.04C130.972 232.155 130.759 231.483 130.332 231.024C129.906 230.565 129.314 230.336 128.556 230.336C127.81 230.336 127.218 230.565 126.78 231.024C126.354 231.483 126.14 232.155 126.14 233.04V238H124.684V229.216H126.14V230.64C126.428 230.128 126.823 229.739 127.324 229.472C127.826 229.205 128.386 229.072 129.004 229.072ZM138.811 236.816V238H137.339C136.593 238 136.022 237.819 135.627 237.456C135.243 237.093 135.051 236.523 135.051 235.744V230.4H133.915V229.216H135.051V227.04H136.523V229.216H138.795V230.4H136.523V235.744C136.523 236.139 136.603 236.416 136.763 236.576C136.923 236.736 137.206 236.816 137.611 236.816H138.811ZM143.443 229.072C144.392 229.072 145.144 229.323 145.699 229.824C146.253 230.315 146.557 230.992 146.611 231.856H145.107C145.085 231.365 144.92 230.971 144.611 230.672C144.301 230.373 143.875 230.224 143.331 230.224C142.776 230.224 142.339 230.357 142.019 230.624C141.709 230.88 141.555 231.205 141.555 231.6C141.555 231.931 141.651 232.197 141.843 232.4C142.045 232.592 142.291 232.736 142.579 232.832C142.877 232.928 143.277 233.029 143.779 233.136C144.419 233.285 144.931 233.435 145.315 233.584C145.709 233.723 146.045 233.963 146.323 234.304C146.6 234.635 146.739 235.088 146.739 235.664C146.739 236.144 146.6 236.576 146.323 236.96C146.045 237.333 145.656 237.627 145.155 237.84C144.653 238.043 144.077 238.144 143.427 238.144C142.445 238.144 141.656 237.899 141.059 237.408C140.472 236.917 140.152 236.24 140.099 235.376H141.603C141.624 235.867 141.795 236.261 142.115 236.56C142.445 236.848 142.883 236.992 143.427 236.992C144.024 236.992 144.483 236.869 144.803 236.624C145.133 236.379 145.299 236.053 145.299 235.648C145.299 235.317 145.197 235.056 144.995 234.864C144.803 234.661 144.557 234.512 144.259 234.416C143.96 234.309 143.549 234.197 143.027 234.08C142.397 233.941 141.885 233.803 141.491 233.664C141.107 233.515 140.776 233.285 140.499 232.976C140.232 232.667 140.099 232.24 140.099 231.696C140.099 231.216 140.232 230.779 140.499 230.384C140.776 229.979 141.165 229.659 141.667 229.424C142.179 229.189 142.771 229.072 143.443 229.072ZM149.753 236.928C149.891 237.493 149.961 238.011 149.961 238.48C149.961 239.685 149.411 240.288 148.313 240.288V239.584C148.579 239.584 148.771 239.52 148.889 239.392C149.017 239.264 149.081 239.061 149.081 238.784V238.416H148.265V236.928H149.753ZM161.31 229.072C162.1 229.072 162.809 229.259 163.438 229.632C164.078 230.005 164.58 230.533 164.942 231.216C165.316 231.888 165.502 232.667 165.502 233.552C165.502 234.437 165.316 235.232 164.942 235.936C164.58 236.629 164.078 237.173 163.438 237.568C162.809 237.952 162.1 238.144 161.31 238.144C160.564 238.144 159.908 237.968 159.342 237.616C158.788 237.253 158.361 236.784 158.062 236.208V242.16H156.606V229.216H158.062V230.976C158.361 230.411 158.788 229.952 159.342 229.6C159.908 229.248 160.564 229.072 161.31 229.072ZM161.022 230.336C160.5 230.336 160.009 230.469 159.55 230.736C159.102 231.003 158.74 231.387 158.462 231.888C158.196 232.379 158.062 232.955 158.062 233.616C158.062 234.277 158.196 234.859 158.462 235.36C158.74 235.851 159.102 236.229 159.55 236.496C160.009 236.763 160.5 236.896 161.022 236.896C161.545 236.896 162.036 236.763 162.494 236.496C162.953 236.219 163.316 235.824 163.582 235.312C163.86 234.8 163.998 234.213 163.998 233.552C163.998 232.891 163.86 232.32 163.582 231.84C163.316 231.349 162.953 230.976 162.494 230.72C162.046 230.464 161.556 230.336 161.022 230.336ZM168.781 226.16V238H167.325V226.16H168.781ZM179.152 233.248C179.152 233.557 179.131 233.845 179.088 234.112H172.096C172.139 234.987 172.411 235.68 172.912 236.192C173.424 236.693 174.075 236.944 174.864 236.944C175.462 236.944 175.963 236.811 176.368 236.544C176.784 236.277 177.088 235.925 177.28 235.488H178.848C178.571 236.256 178.091 236.891 177.408 237.392C176.736 237.893 175.888 238.144 174.864 238.144C174.043 238.144 173.307 237.957 172.656 237.584C172.016 237.211 171.515 236.683 171.152 236C170.79 235.307 170.608 234.512 170.608 233.616C170.608 232.709 170.79 231.915 171.152 231.232C171.515 230.539 172.027 230.005 172.688 229.632C173.35 229.259 174.112 229.072 174.976 229.072C175.798 229.072 176.523 229.253 177.152 229.616C177.782 229.979 178.272 230.475 178.624 231.104C178.976 231.733 179.152 232.448 179.152 233.248ZM177.632 233.056C177.632 232.491 177.51 232 177.264 231.584C177.019 231.157 176.683 230.832 176.256 230.608C175.84 230.384 175.376 230.272 174.864 230.272C174.107 230.272 173.472 230.523 172.96 231.024C172.448 231.515 172.166 232.192 172.112 233.056H177.632ZM184.582 229.072C185.328 229.072 185.979 229.248 186.534 229.6C187.099 229.952 187.526 230.411 187.814 230.976V229.216H189.286V238H187.814V236.208C187.526 236.784 187.099 237.253 186.534 237.616C185.979 237.968 185.328 238.144 184.582 238.144C183.792 238.144 183.078 237.952 182.438 237.568C181.808 237.173 181.307 236.629 180.934 235.936C180.571 235.232 180.39 234.437 180.39 233.552C180.39 232.667 180.571 231.888 180.934 231.216C181.307 230.533 181.808 230.005 182.438 229.632C183.078 229.259 183.792 229.072 184.582 229.072ZM184.838 230.336C184.315 230.336 183.824 230.464 183.366 230.72C182.918 230.976 182.555 231.349 182.278 231.84C182.011 232.32 181.878 232.891 181.878 233.552C181.878 234.213 182.011 234.8 182.278 235.312C182.555 235.813 182.918 236.203 183.366 236.48C183.824 236.757 184.315 236.896 184.838 236.896C185.371 236.896 185.862 236.763 186.31 236.496C186.768 236.229 187.131 235.851 187.398 235.36C187.675 234.859 187.814 234.277 187.814 233.616C187.814 232.955 187.675 232.379 187.398 231.888C187.131 231.387 186.768 231.003 186.31 230.736C185.862 230.469 185.371 230.336 184.838 230.336ZM194.708 229.072C195.658 229.072 196.41 229.323 196.964 229.824C197.519 230.315 197.823 230.992 197.876 231.856H196.372C196.351 231.365 196.186 230.971 195.876 230.672C195.567 230.373 195.14 230.224 194.596 230.224C194.042 230.224 193.604 230.357 193.284 230.624C192.975 230.88 192.82 231.205 192.82 231.6C192.82 231.931 192.916 232.197 193.108 232.4C193.311 232.592 193.556 232.736 193.844 232.832C194.143 232.928 194.543 233.029 195.044 233.136C195.684 233.285 196.196 233.435 196.58 233.584C196.975 233.723 197.311 233.963 197.588 234.304C197.866 234.635 198.004 235.088 198.004 235.664C198.004 236.144 197.866 236.576 197.588 236.96C197.311 237.333 196.922 237.627 196.42 237.84C195.919 238.043 195.343 238.144 194.692 238.144C193.711 238.144 192.922 237.899 192.324 237.408C191.738 236.917 191.418 236.24 191.364 235.376H192.868C192.89 235.867 193.06 236.261 193.38 236.56C193.711 236.848 194.148 236.992 194.692 236.992C195.29 236.992 195.748 236.869 196.068 236.624C196.399 236.379 196.564 236.053 196.564 235.648C196.564 235.317 196.463 235.056 196.26 234.864C196.068 234.661 195.823 234.512 195.524 234.416C195.226 234.309 194.815 234.197 194.292 234.08C193.663 233.941 193.151 233.803 192.756 233.664C192.372 233.515 192.042 233.285 191.764 232.976C191.498 232.667 191.364 232.24 191.364 231.696C191.364 231.216 191.498 230.779 191.764 230.384C192.042 229.979 192.431 229.659 192.932 229.424C193.444 229.189 194.036 229.072 194.708 229.072ZM208.074 233.248C208.074 233.557 208.053 233.845 208.01 234.112H201.018C201.061 234.987 201.333 235.68 201.834 236.192C202.346 236.693 202.997 236.944 203.786 236.944C204.384 236.944 204.885 236.811 205.29 236.544C205.706 236.277 206.01 235.925 206.202 235.488H207.77C207.493 236.256 207.013 236.891 206.33 237.392C205.658 237.893 204.81 238.144 203.786 238.144C202.965 238.144 202.229 237.957 201.578 237.584C200.938 237.211 200.437 236.683 200.074 236C199.712 235.307 199.53 234.512 199.53 233.616C199.53 232.709 199.712 231.915 200.074 231.232C200.437 230.539 200.949 230.005 201.61 229.632C202.272 229.259 203.034 229.072 203.898 229.072C204.72 229.072 205.445 229.253 206.074 229.616C206.704 229.979 207.194 230.475 207.546 231.104C207.898 231.733 208.074 232.448 208.074 233.248ZM206.554 233.056C206.554 232.491 206.432 232 206.186 231.584C205.941 231.157 205.605 230.832 205.178 230.608C204.762 230.384 204.298 230.272 203.786 230.272C203.029 230.272 202.394 230.523 201.882 231.024C201.37 231.515 201.088 232.192 201.034 233.056H206.554ZM88.2926 254.072C89.0392 254.072 89.6899 254.248 90.2446 254.6C90.8099 254.952 91.2366 255.411 91.5246 255.976V254.216H92.9966V263H91.5246V261.208C91.2366 261.784 90.8099 262.253 90.2446 262.616C89.6899 262.968 89.0392 263.144 88.2926 263.144C87.5032 263.144 86.7886 262.952 86.1486 262.568C85.5192 262.173 85.0179 261.629 84.6446 260.936C84.2819 260.232 84.1006 259.437 84.1006 258.552C84.1006 257.667 84.2819 256.888 84.6446 256.216C85.0179 255.533 85.5192 255.005 86.1486 254.632C86.7886 254.259 87.5032 254.072 88.2926 254.072ZM88.5486 255.336C88.0259 255.336 87.5352 255.464 87.0766 255.72C86.6286 255.976 86.2659 256.349 85.9886 256.84C85.7219 257.32 85.5886 257.891 85.5886 258.552C85.5886 259.213 85.7219 259.8 85.9886 260.312C86.2659 260.813 86.6286 261.203 87.0766 261.48C87.5352 261.757 88.0259 261.896 88.5486 261.896C89.0819 261.896 89.5726 261.763 90.0206 261.496C90.4792 261.229 90.8419 260.851 91.1086 260.36C91.3859 259.859 91.5246 259.277 91.5246 258.616C91.5246 257.955 91.3859 257.379 91.1086 256.888C90.8419 256.387 90.4792 256.003 90.0206 255.736C89.5726 255.469 89.0819 255.336 88.5486 255.336ZM99.0113 254.072C99.758 254.072 100.409 254.248 100.963 254.6C101.529 254.952 101.955 255.411 102.243 255.976V251.16H103.715V263H102.243V261.208C101.955 261.784 101.529 262.253 100.963 262.616C100.409 262.968 99.758 263.144 99.0113 263.144C98.222 263.144 97.5073 262.952 96.8673 262.568C96.238 262.173 95.7366 261.629 95.3633 260.936C95.0006 260.232 94.8193 259.437 94.8193 258.552C94.8193 257.667 95.0006 256.888 95.3633 256.216C95.7366 255.533 96.238 255.005 96.8673 254.632C97.5073 254.259 98.222 254.072 99.0113 254.072ZM99.2673 255.336C98.7446 255.336 98.254 255.464 97.7953 255.72C97.3473 255.976 96.9846 256.349 96.7073 256.84C96.4406 257.32 96.3073 257.891 96.3073 258.552C96.3073 259.213 96.4406 259.8 96.7073 260.312C96.9846 260.813 97.3473 261.203 97.7953 261.48C98.254 261.757 98.7446 261.896 99.2673 261.896C99.8006 261.896 100.291 261.763 100.739 261.496C101.198 261.229 101.561 260.851 101.827 260.36C102.105 259.859 102.243 259.277 102.243 258.616C102.243 257.955 102.105 257.379 101.827 256.888C101.561 256.387 101.198 256.003 100.739 255.736C100.291 255.469 99.8006 255.336 99.2673 255.336ZM109.73 254.072C110.477 254.072 111.127 254.248 111.682 254.6C112.247 254.952 112.674 255.411 112.962 255.976V251.16H114.434V263H112.962V261.208C112.674 261.784 112.247 262.253 111.682 262.616C111.127 262.968 110.477 263.144 109.73 263.144C108.941 263.144 108.226 262.952 107.586 262.568C106.957 262.173 106.455 261.629 106.082 260.936C105.719 260.232 105.538 259.437 105.538 258.552C105.538 257.667 105.719 256.888 106.082 256.216C106.455 255.533 106.957 255.005 107.586 254.632C108.226 254.259 108.941 254.072 109.73 254.072ZM109.986 255.336C109.463 255.336 108.973 255.464 108.514 255.72C108.066 255.976 107.703 256.349 107.426 256.84C107.159 257.32 107.026 257.891 107.026 258.552C107.026 259.213 107.159 259.8 107.426 260.312C107.703 260.813 108.066 261.203 108.514 261.48C108.973 261.757 109.463 261.896 109.986 261.896C110.519 261.896 111.01 261.763 111.458 261.496C111.917 261.229 112.279 260.851 112.546 260.36C112.823 259.859 112.962 259.277 112.962 258.616C112.962 257.955 112.823 257.379 112.546 256.888C112.279 256.387 111.917 256.003 111.458 255.736C111.01 255.469 110.519 255.336 109.986 255.336ZM126.702 251.8C127.854 251.8 128.878 252.072 129.774 252.616C130.68 253.16 131.347 253.944 131.774 254.968H130.014C129.694 254.36 129.246 253.896 128.67 253.576C128.094 253.256 127.438 253.096 126.702 253.096C125.912 253.096 125.198 253.277 124.558 253.64C123.928 253.992 123.432 254.499 123.07 255.16C122.718 255.821 122.542 256.584 122.542 257.448C122.542 258.312 122.718 259.075 123.07 259.736C123.432 260.397 123.928 260.909 124.558 261.272C125.198 261.635 125.912 261.816 126.702 261.816C127.438 261.816 128.094 261.656 128.67 261.336C129.246 261.005 129.694 260.536 130.014 259.928H131.774C131.347 260.952 130.68 261.736 129.774 262.28C128.878 262.824 127.854 263.096 126.702 263.096C125.667 263.096 124.718 262.856 123.854 262.376C122.99 261.885 122.307 261.213 121.806 260.36C121.304 259.496 121.054 258.525 121.054 257.448C121.054 256.36 121.304 255.389 121.806 254.536C122.307 253.672 122.99 253 123.854 252.52C124.718 252.04 125.667 251.8 126.702 251.8ZM135.523 251.16V263H134.067V251.16H135.523ZM137.687 251.816C137.687 251.539 137.783 251.304 137.975 251.112C138.167 250.92 138.396 250.824 138.663 250.824C138.94 250.824 139.175 250.92 139.367 251.112C139.559 251.304 139.655 251.539 139.655 251.816C139.655 252.093 139.559 252.328 139.367 252.52C139.175 252.712 138.94 252.808 138.663 252.808C138.385 252.808 138.151 252.712 137.959 252.52C137.777 252.328 137.687 252.093 137.687 251.816ZM139.383 254.216V263H137.927V254.216H139.383ZM149.754 258.248C149.754 258.557 149.733 258.845 149.69 259.112H142.698C142.741 259.987 143.013 260.68 143.514 261.192C144.026 261.693 144.677 261.944 145.466 261.944C146.063 261.944 146.565 261.811 146.97 261.544C147.386 261.277 147.69 260.925 147.882 260.488H149.45C149.173 261.256 148.693 261.891 148.01 262.392C147.338 262.893 146.49 263.144 145.466 263.144C144.645 263.144 143.909 262.957 143.258 262.584C142.618 262.211 142.117 261.683 141.754 261C141.391 260.307 141.21 259.512 141.21 258.616C141.21 257.709 141.391 256.915 141.754 256.232C142.117 255.539 142.629 255.005 143.29 254.632C143.951 254.259 144.714 254.072 145.578 254.072C146.399 254.072 147.125 254.253 147.754 254.616C148.383 254.979 148.874 255.475 149.226 256.104C149.578 256.733 149.754 257.448 149.754 258.248ZM148.234 258.056C148.234 257.491 148.111 257 147.866 256.584C147.621 256.157 147.285 255.832 146.858 255.608C146.442 255.384 145.978 255.272 145.466 255.272C144.709 255.272 144.074 255.523 143.562 256.024C143.05 256.515 142.767 257.192 142.714 258.056H148.234ZM155.887 254.072C156.517 254.072 157.087 254.216 157.599 254.504C158.122 254.781 158.533 255.203 158.831 255.768C159.141 256.323 159.295 257 159.295 257.8V263H157.855V258.04C157.855 257.155 157.642 256.483 157.215 256.024C156.789 255.565 156.197 255.336 155.439 255.336C154.693 255.336 154.101 255.565 153.663 256.024C153.237 256.483 153.023 257.155 153.023 258.04V263H151.567V254.216H153.023V255.64C153.311 255.128 153.706 254.739 154.207 254.472C154.709 254.205 155.269 254.072 155.887 254.072ZM165.694 261.816V263H164.222C163.475 263 162.905 262.819 162.51 262.456C162.126 262.093 161.934 261.523 161.934 260.744V255.4H160.798V254.216H161.934V252.04H163.406V254.216H165.678V255.4H163.406V260.744C163.406 261.139 163.486 261.416 163.646 261.576C163.806 261.736 164.089 261.816 164.494 261.816H165.694ZM170.326 254.072C171.275 254.072 172.027 254.323 172.582 254.824C173.136 255.315 173.44 255.992 173.494 256.856H171.99C171.968 256.365 171.803 255.971 171.494 255.672C171.184 255.373 170.758 255.224 170.214 255.224C169.659 255.224 169.222 255.357 168.902 255.624C168.592 255.88 168.438 256.205 168.438 256.6C168.438 256.931 168.534 257.197 168.726 257.4C168.928 257.592 169.174 257.736 169.462 257.832C169.76 257.928 170.16 258.029 170.662 258.136C171.302 258.285 171.814 258.435 172.198 258.584C172.592 258.723 172.928 258.963 173.206 259.304C173.483 259.635 173.622 260.088 173.622 260.664C173.622 261.144 173.483 261.576 173.206 261.96C172.928 262.333 172.539 262.627 172.038 262.84C171.536 263.043 170.96 263.144 170.31 263.144C169.328 263.144 168.539 262.899 167.942 262.408C167.355 261.917 167.035 261.24 166.982 260.376H168.486C168.507 260.867 168.678 261.261 168.998 261.56C169.328 261.848 169.766 261.992 170.31 261.992C170.907 261.992 171.366 261.869 171.686 261.624C172.016 261.379 172.182 261.053 172.182 260.648C172.182 260.317 172.08 260.056 171.878 259.864C171.686 259.661 171.44 259.512 171.142 259.416C170.843 259.309 170.432 259.197 169.91 259.08C169.28 258.941 168.768 258.803 168.374 258.664C167.99 258.515 167.659 258.285 167.382 257.976C167.115 257.667 166.982 257.24 166.982 256.696C166.982 256.216 167.115 255.779 167.382 255.384C167.659 254.979 168.048 254.659 168.55 254.424C169.062 254.189 169.654 254.072 170.326 254.072Z" fill="black"/>
<path d="M141.407 122.131C145.385 118.304 150.699 116.178 156.22 116.207C160.175 116.121 164.069 117.188 167.427 119.279C170.785 121.369 173.461 124.393 175.129 127.979C175.345 128.469 175.745 128.853 176.244 129.048C176.742 129.242 177.298 129.231 177.788 129.017C178.278 128.803 178.663 128.403 178.859 127.905C179.054 127.407 179.044 126.851 178.831 126.361C177.435 123.257 175.389 120.489 172.829 118.246C170.27 116.003 167.259 114.336 163.999 113.358C165.625 111.993 166.929 110.285 167.818 108.356C168.707 106.427 169.158 104.326 169.139 102.203C169.139 94.4807 163.345 88.1983 156.224 88.1983C153.517 88.2675 150.9 89.1791 148.735 90.8062C146.571 92.4333 144.968 94.6948 144.15 97.2758C141.794 95.4452 139.128 94.0518 136.28 93.1616C137.907 91.7963 139.212 90.0879 140.101 88.1589C140.99 86.2299 141.441 84.1281 141.422 82.0042C141.422 74.2824 135.628 68 128.506 68C121.385 68 115.591 74.2824 115.591 82.0042C115.572 84.128 116.024 86.2297 116.913 88.1586C117.802 90.0875 119.106 91.7959 120.733 93.1613C117.882 94.0529 115.214 95.4474 112.854 97.2788C112.037 94.6971 110.434 92.4349 108.269 90.8072C106.105 89.1795 103.487 88.2676 100.779 88.1984C93.6583 88.1984 87.8644 94.4808 87.8644 102.203C87.8456 104.326 88.2967 106.427 89.1854 108.356C90.0741 110.285 91.3785 111.993 93.005 113.359C89.745 114.336 86.7333 116.003 84.1742 118.246C81.615 120.489 79.5682 123.257 78.1725 126.361C78.0652 126.604 78.0071 126.866 78.0013 127.132C77.9955 127.397 78.0422 127.662 78.1387 127.909C78.2353 128.157 78.3797 128.383 78.5638 128.575C78.7479 128.766 78.9681 128.92 79.2116 129.026C79.4552 129.133 79.7173 129.19 79.9831 129.195C80.2488 129.2 80.513 129.153 80.7603 129.055C81.0077 128.958 81.2334 128.813 81.4246 128.628C81.6158 128.444 81.7686 128.223 81.8743 127.979C83.5424 124.393 86.2189 121.369 89.5769 119.279C92.9349 117.188 96.829 116.121 100.784 116.207C106.309 116.176 111.629 118.305 115.607 122.14C115.632 124.206 116.103 126.243 116.987 128.111C117.871 129.979 119.148 131.634 120.73 132.964C117.88 133.856 115.212 135.25 112.853 137.081C112.035 134.5 110.432 132.239 108.268 130.612C106.104 128.985 103.486 128.073 100.779 128.004C93.6583 128.004 87.8644 134.286 87.8644 142.008C87.8455 144.132 88.2969 146.234 89.186 148.163C90.0752 150.092 91.3802 151.8 93.0074 153.166C89.7483 154.143 86.7372 155.809 84.178 158.051C81.6187 160.293 79.5711 163.059 78.1736 166.161C78.0657 166.404 78.0069 166.666 78.0006 166.932C77.9942 167.198 78.0405 167.463 78.1367 167.711C78.2329 167.959 78.3771 168.185 78.5611 168.377C78.7451 168.569 78.9652 168.723 79.2088 168.83C79.4524 168.937 79.7148 168.994 79.9807 169C80.2467 169.005 80.511 168.957 80.7586 168.86C81.0061 168.763 81.232 168.618 81.4233 168.433C81.6146 168.248 81.7675 168.027 81.8732 167.783C83.543 164.198 86.2202 161.176 89.5781 159.086C92.936 156.996 96.8295 155.929 100.784 156.014C104.738 155.929 108.632 156.996 111.989 159.086C115.347 161.175 118.025 164.197 119.694 167.782C119.801 168.025 119.954 168.245 120.145 168.429C120.336 168.612 120.562 168.757 120.809 168.853C121.056 168.95 121.32 168.997 121.585 168.991C121.85 168.986 122.112 168.928 122.354 168.822C122.597 168.715 122.817 168.562 123.001 168.371C123.184 168.18 123.329 167.954 123.425 167.707C123.522 167.46 123.569 167.196 123.563 166.931C123.558 166.666 123.5 166.405 123.394 166.162C121.996 163.058 119.948 160.292 117.388 158.049C114.827 155.806 111.815 154.14 108.554 153.163C110.18 151.798 111.485 150.09 112.373 148.161C113.262 146.233 113.713 144.131 113.694 142.008C113.694 141.918 113.683 141.832 113.682 141.742C117.677 137.935 122.983 135.812 128.501 135.811C134.02 135.811 139.327 137.934 143.322 141.74C143.32 141.83 143.309 141.918 143.309 142.008C143.29 144.131 143.742 146.233 144.63 148.161C145.519 150.09 146.823 151.798 148.45 153.163C145.189 154.14 142.176 155.806 139.616 158.049C137.056 160.292 135.007 163.058 133.61 166.162C133.503 166.405 133.446 166.666 133.44 166.931C133.435 167.196 133.482 167.46 133.578 167.707C133.675 167.954 133.819 168.18 134.003 168.371C134.187 168.562 134.406 168.715 134.649 168.822C134.892 168.928 135.154 168.986 135.419 168.991C135.684 168.997 135.947 168.95 136.195 168.853C136.442 168.757 136.667 168.612 136.858 168.429C137.05 168.245 137.203 168.025 137.309 167.782C138.979 164.197 141.656 161.175 145.014 159.086C148.372 156.996 152.266 155.929 156.22 156.014C160.174 155.929 164.068 156.996 167.426 159.086C170.783 161.176 173.461 164.198 175.13 167.783C175.237 168.026 175.39 168.245 175.582 168.429C175.773 168.613 175.999 168.757 176.246 168.853C176.493 168.95 176.756 168.997 177.022 168.991C177.287 168.986 177.548 168.928 177.791 168.822C178.034 168.715 178.254 168.562 178.437 168.371C178.621 168.179 178.765 167.954 178.862 167.707C178.958 167.46 179.005 167.196 179 166.931C178.994 166.666 178.937 166.404 178.83 166.161C177.433 163.059 175.385 160.293 172.826 158.051C170.266 155.809 167.255 154.143 163.996 153.166C165.623 151.8 166.928 150.092 167.818 148.163C168.707 146.234 169.158 144.132 169.139 142.008C169.139 134.286 163.345 128.004 156.224 128.004C153.518 128.073 150.901 128.984 148.737 130.611C146.573 132.237 144.97 134.498 144.151 137.079C141.795 135.248 139.13 133.855 136.283 132.964C137.866 131.634 139.144 129.977 140.028 128.107C140.912 126.238 141.383 124.199 141.407 122.131ZM100.779 151.972C95.8852 151.972 91.9039 147.502 91.9039 142.008C91.9039 136.513 95.8852 132.043 100.779 132.043C105.36 132.043 109.141 135.96 109.606 140.967C109.639 141.34 109.655 141.672 109.655 142.008C109.655 147.502 105.674 151.972 100.779 151.972ZM156.224 132.043C161.118 132.043 165.1 136.514 165.1 142.008C165.1 147.502 161.118 151.972 156.224 151.972C151.33 151.972 147.349 147.502 147.349 142.008C147.349 141.673 147.365 141.341 147.394 141.014C147.862 135.961 151.643 132.043 156.224 132.043ZM156.224 92.2376C161.118 92.2376 165.1 96.708 165.1 102.203C165.1 107.697 161.118 112.167 156.224 112.167C151.33 112.167 147.349 107.697 147.349 102.203C147.349 101.869 147.365 101.539 147.393 101.213C147.862 96.1558 151.642 92.2376 156.224 92.2376ZM128.506 72.0392C133.4 72.0392 137.383 76.5096 137.383 82.0041C137.383 87.4986 133.4 91.9691 128.506 91.9691C123.612 91.9691 119.631 87.4986 119.631 82.0041C119.631 76.5096 123.612 72.0392 128.506 72.0392ZM128.502 96.0083C134.025 95.98 139.342 98.1074 143.322 101.938C143.32 102.027 143.309 102.113 143.309 102.203C143.29 104.326 143.741 106.427 144.63 108.356C145.519 110.285 146.823 111.993 148.45 113.358C145.666 114.227 143.056 115.575 140.737 117.343C139.984 114.656 138.39 112.28 136.19 110.564C133.989 108.848 131.296 107.881 128.506 107.805C125.715 107.881 123.022 108.848 120.821 110.566C118.62 112.283 117.027 114.659 116.275 117.348C113.955 115.576 111.342 114.226 108.555 113.357C110.181 111.992 111.485 110.284 112.374 108.355C113.262 106.427 113.713 104.326 113.694 102.203C113.694 102.114 113.684 102.028 113.682 101.94C117.663 98.1115 122.979 95.9839 128.502 96.0083ZM100.779 92.2376C105.361 92.2376 109.141 96.1552 109.606 101.163C109.639 101.538 109.655 101.868 109.655 102.203C109.655 107.697 105.674 112.167 100.779 112.167C95.8852 112.167 91.9039 107.697 91.9039 102.203C91.9039 96.708 95.8852 92.2376 100.779 92.2376ZM128.545 131.772C123.59 131.746 119.631 127.288 119.631 121.81C119.631 116.315 123.612 111.845 128.506 111.845C133.4 111.845 137.383 116.315 137.383 121.81C137.383 127.289 133.421 131.748 128.545 131.772Z" fill="white"/>
</svg>
