<svg width="22" height="22" viewBox="0 0 22 22" fill="none" xmlns="http://www.w3.org/2000/svg">
<path d="M13.3512 8.8C13.259 8.8 13.1703 8.83403 13.1048 8.89487C13.0393 8.95574 13.0023 9.03849 13.0023 9.125V20.3624H11.3455V13.2171C11.3455 13.1306 11.3085 13.0479 11.243 12.987C11.1775 12.9262 11.0889 12.8921 10.9967 12.8921C10.9044 12.8921 10.8158 12.9262 10.7503 12.987C10.6848 13.0479 10.6478 13.1306 10.6478 13.2171V20.3624H8.99101V9.125C8.99101 9.03849 8.95401 8.95574 8.8885 8.89487C8.82302 8.83403 8.73439 8.8 8.64215 8.8C8.54991 8.8 8.46128 8.83403 8.3958 8.89487C8.33028 8.95574 8.29329 9.03849 8.29329 9.125V20.6874C8.29329 20.7739 8.33028 20.8566 8.3958 20.9175C8.46128 20.9783 8.54991 21.0124 8.64215 21.0124H13.3512C13.4434 21.0124 13.5321 20.9783 13.5975 20.9175C13.6631 20.8566 13.7001 20.7739 13.7001 20.6874V9.125C13.7001 9.03849 13.6631 8.95574 13.5975 8.89487C13.5321 8.83403 13.4434 8.8 13.3512 8.8Z" fill="#DE0C0C" stroke="#DE0C0C" stroke-width="0.025"/>
<path d="M12.9963 5.97986H12.9963C13.6786 5.98028 14.3331 6.23218 14.8161 6.68055C15.299 7.12894 15.5709 7.73724 15.5718 8.372V8.37202V13.9876C15.5718 14.0741 15.5348 14.1568 15.4693 14.2177C15.4039 14.2785 15.3152 14.3126 15.223 14.3126C15.1307 14.3126 15.0421 14.2785 14.9766 14.2177C14.9111 14.1568 14.8741 14.0741 14.8741 13.9876V8.37204C14.8732 7.91028 14.6753 7.46748 14.3234 7.14081C13.9714 6.8141 13.4942 6.63026 12.9963 6.62985H12.572L11.2842 8.37475C11.2842 8.37475 11.2842 8.37475 11.2842 8.37476C11.252 8.41832 11.209 8.45387 11.159 8.4784C11.1089 8.50293 11.0531 8.51573 10.9966 8.51573C10.9401 8.51573 10.8844 8.50293 10.8343 8.4784C10.7842 8.45387 10.7412 8.41832 10.7091 8.37476C10.7091 8.37475 10.7091 8.37475 10.7091 8.37475L9.42118 6.62985H8.99696C8.49906 6.63026 8.02182 6.8141 7.66986 7.14081C7.31792 7.46748 7.11998 7.91028 7.1191 8.37204V13.9876C7.1191 14.0741 7.0821 14.1568 7.01659 14.2177C6.95111 14.2785 6.86248 14.3126 6.77024 14.3126C6.678 14.3126 6.58937 14.2785 6.52389 14.2177C6.45837 14.1568 6.42138 14.0741 6.42138 13.9876V8.37202V8.37201C6.42182 7.73725 6.69333 7.12879 7.17597 6.6801C7.65858 6.23143 8.31288 5.97913 8.99525 5.9783H8.99526H9.06062C8.75861 5.74683 8.50766 5.46299 8.32184 5.14243C8.12994 4.81139 8.01141 4.44792 7.97328 4.07351C7.93516 3.6991 7.97822 3.3214 8.0999 2.96275C8.22156 2.60419 8.41932 2.27198 8.68144 1.98574C8.69339 1.97143 8.70659 1.95809 8.72091 1.94584C9.00461 1.64482 9.3542 1.40363 9.74624 1.23837C10.1385 1.07303 10.5642 0.9875 10.9949 0.9875C11.4256 0.9875 11.8513 1.07303 12.2436 1.23837C12.6356 1.40361 12.9852 1.64477 13.2689 1.94575C13.2859 1.95973 13.3014 1.97524 13.3152 1.99204C13.3153 1.99213 13.3153 1.99221 13.3154 1.9923L13.3057 2.00022L12.9963 5.97986ZM12.9963 5.97986H12.9309H12.9963ZM10.9966 3.00959C11.6706 3.01887 12.3376 2.88244 12.945 2.6111C13.1462 2.89126 13.2746 3.21097 13.3201 3.54506C13.3661 3.88242 13.3262 4.2251 13.2037 4.54559C13.0811 4.86608 12.8794 5.15549 12.6145 5.39051C12.3496 5.62554 12.029 5.79963 11.6784 5.8987C11.3278 5.99778 10.9571 6.01907 10.596 5.96085C10.2349 5.90263 9.89364 5.76654 9.59957 5.56358C9.30551 5.36061 9.06688 5.09645 8.90279 4.79237C8.7387 4.4883 8.65371 4.15277 8.65458 3.81273V3.81268C8.6541 3.38684 8.78932 2.97038 9.0432 2.61577C9.65259 2.88616 10.3214 3.021 10.9966 3.00959ZM10.9966 3.00959C10.9966 3.00958 10.9965 3.00958 10.9964 3.00958L10.9966 2.99708L10.9968 3.00958C10.9968 3.00958 10.9967 3.00958 10.9966 3.00959ZM10.9968 2.35959L10.9965 2.35959C10.4988 2.36584 10.0048 2.2812 9.54244 2.11056C9.95513 1.80447 10.4678 1.63747 10.9966 1.63747C11.5254 1.63747 12.0381 1.80447 12.4508 2.11056C11.9884 2.2812 11.4944 2.36584 10.9968 2.35959ZM11.7319 6.62985L10.9967 7.61667L10.2679 6.62985H11.7319Z" fill="#DE0C0C" stroke="#DE0C0C" stroke-width="0.025"/>
<path d="M6.40627 16.2232V18.0856H5.16487V12.2498C5.16487 12.1633 5.12787 12.0805 5.06236 12.0196C4.99688 11.9588 4.90825 11.9248 4.81601 11.9248C4.72377 11.9248 4.63514 11.9588 4.56966 12.0196C4.50414 12.0805 4.46715 12.1633 4.46715 12.2498V18.0763H3.22575V8.87011C3.22575 8.78361 3.18875 8.70085 3.12324 8.63999C3.05776 8.57915 2.96913 8.54512 2.87689 8.54512C2.78465 8.54512 2.69602 8.57915 2.63054 8.63999C2.56502 8.70085 2.52803 8.78361 2.52803 8.87011V18.4013C2.52803 18.4878 2.56502 18.5705 2.63054 18.6314C2.69602 18.6922 2.78465 18.7262 2.87689 18.7262H6.75513C6.84737 18.7262 6.936 18.6922 7.00148 18.6314C7.06699 18.5705 7.10399 18.4878 7.10399 18.4013L7.10399 16.2138L7.10398 16.2134C7.10124 16.1286 7.06305 16.0483 6.99784 15.9896C6.93266 15.9308 6.84558 15.8981 6.75513 15.8982C6.66289 15.8982 6.57426 15.9322 6.50878 15.993C6.44326 16.0539 6.40627 16.1366 6.40627 16.2232Z" fill="#DE0C0C" stroke="#DE0C0C" stroke-width="0.025"/>
<path d="M3.06137 6.24081C2.58301 5.82855 2.2925 5.261 2.25087 4.65482C2.20854 4.03848 2.42688 3.43129 2.85911 2.96253C2.86913 2.95067 2.88003 2.93947 2.89172 2.92902C2.89185 2.9289 2.89199 2.92878 2.89212 2.92866L2.90044 2.93799L3.06137 6.24081ZM3.06137 6.24081C2.50909 6.26665 1.9873 6.48636 1.60202 6.85639C1.20926 7.23359 0.988893 7.73769 0.9875 8.2629V8.26293V12.8879C0.9875 12.9744 1.0245 13.0571 1.09001 13.118C1.15549 13.1788 1.24412 13.2129 1.33636 13.2129C1.4286 13.2129 1.51723 13.1788 1.58271 13.118C1.64823 13.0571 1.68522 12.9744 1.68522 12.8879V8.26295C1.68566 7.89788 1.84195 7.54768 2.12013 7.28924C2.39833 7.03077 2.77573 6.88523 3.16954 6.88482H3.48612L4.52845 8.29691C4.56058 8.34048 4.60358 8.37603 4.65367 8.40056C4.70376 8.42509 4.75948 8.43789 4.81601 8.43789C4.87255 8.43789 4.92826 8.42509 4.97835 8.40056C5.02845 8.37603 5.07144 8.34048 5.10357 8.29692C5.10357 8.29692 5.10357 8.29691 5.10357 8.29691L6.1459 6.88482H6.28759H6.28762C6.36263 6.88464 6.43566 6.86195 6.49581 6.81999C6.55598 6.77803 6.6001 6.719 6.62139 6.65159C6.64269 6.58417 6.63995 6.51213 6.61361 6.4463C6.5894 6.3858 6.54651 6.33363 6.49069 6.29616C6.99579 5.88883 7.30902 5.31316 7.36212 4.69281C7.41569 4.06696 7.20011 3.44705 6.76287 2.96883M3.06137 6.24081L6.72385 2.92941C6.7237 2.92925 6.72355 2.92908 6.72339 2.92892C6.73772 2.94117 6.75092 2.95452 6.76287 2.96883M6.76287 2.96883C6.76293 2.96891 6.76299 2.96898 6.76305 2.96905L6.75345 2.97706L6.76267 2.96862C6.76274 2.96869 6.7628 2.96876 6.76287 2.96883ZM4.81601 3.89736C5.36131 3.90435 5.90145 3.79864 6.39736 3.58791C6.54792 3.81249 6.64099 4.06614 6.66942 4.32935C6.69821 4.5959 6.65994 4.86504 6.55758 5.11554C6.45522 5.36604 6.29156 5.59111 6.07944 5.77293C5.86731 5.95476 5.61254 6.08834 5.33519 6.16309C5.05785 6.23783 4.76559 6.25168 4.48148 6.20351C4.19738 6.15535 3.92927 6.04651 3.69831 5.88564C3.46735 5.72478 3.27988 5.5163 3.15062 5.27673C3.02136 5.03716 2.95383 4.77302 2.9533 4.50514L2.95407 4.50514L2.95257 4.50094L2.95162 4.49831C2.95213 4.1762 3.05019 3.86072 3.23462 3.58789C3.73055 3.79864 4.2707 3.90435 4.81601 3.89736ZM4.81601 3.89736C4.81596 3.89736 4.81591 3.89736 4.81585 3.89736L4.81601 3.88486L4.81617 3.89736C4.81612 3.89736 4.81607 3.89736 4.81601 3.89736ZM5.87973 3.0919C5.53805 3.20283 5.17822 3.25809 4.81611 3.25518L4.81591 3.25518C4.45222 3.25811 4.09082 3.20234 3.7478 3.09044C4.05926 2.88674 4.43114 2.77717 4.81265 2.77717C5.19507 2.77717 5.56781 2.88726 5.87973 3.0919ZM5.29588 6.88795L4.81601 7.54181L4.33615 6.88795H5.29588Z" fill="#DE0C0C" stroke="#DE0C0C" stroke-width="0.025"/>
<path d="M18.7676 8.87988V18.086H17.5262V12.2502C17.5262 12.1636 17.4892 12.0809 17.4237 12.02C17.3582 11.9592 17.2696 11.9252 17.1773 11.9252C17.0851 11.9252 16.9965 11.9592 16.931 12.02C16.8655 12.0809 16.8285 12.1636 16.8285 12.2502V18.0766H15.5871V16.2142C15.5871 16.1277 15.5501 16.0449 15.4846 15.984C15.4191 15.9232 15.3305 15.8892 15.2382 15.8892C15.146 15.8892 15.0573 15.9232 14.9919 15.984C14.9264 16.0449 14.8894 16.1277 14.8894 16.2142V18.4016C14.8894 18.4881 14.9264 18.5709 14.9919 18.6318C15.0573 18.6926 15.146 18.7266 15.2382 18.7266H19.1165C19.2087 18.7266 19.2973 18.6926 19.3628 18.6318C19.4283 18.5709 19.4653 18.4881 19.4653 18.4016L19.4653 8.8705L19.4653 8.8701C19.4626 8.78531 19.4244 8.70505 19.3592 8.64629C19.294 8.58755 19.2069 8.55485 19.1165 8.55488C19.0242 8.55488 18.9356 8.58892 18.8701 8.64975C18.8046 8.71062 18.7676 8.79338 18.7676 8.87988Z" fill="#DE0C0C" stroke="#DE0C0C" stroke-width="0.025"/>
<path d="M21.0125 8.26252V8.26254V12.8875C21.0125 12.974 20.9755 13.0567 20.91 13.1176C20.8445 13.1785 20.7559 13.2125 20.6636 13.2125C20.5714 13.2125 20.4828 13.1785 20.4173 13.1176C20.3518 13.0567 20.3148 12.974 20.3148 12.8875V8.26256C20.3143 7.89749 20.1581 7.54729 19.8799 7.28885C19.6017 7.03038 19.2243 6.88484 18.8305 6.88443H18.5139L17.4715 8.29652C17.4394 8.34009 17.3964 8.37564 17.3463 8.40017C17.2962 8.4247 17.2405 8.4375 17.184 8.4375C17.1275 8.4375 17.0717 8.4247 17.0216 8.40017C16.9716 8.37564 16.9286 8.34009 16.8964 8.29652L15.8541 6.88443H15.7058H15.7057V6.87193C15.6326 6.87313 15.561 6.85216 15.5019 6.8122C15.4428 6.77224 15.3992 6.71546 15.378 6.65047C15.3567 6.58548 15.3588 6.51581 15.3839 6.45202C15.4075 6.39217 15.4502 6.34056 15.5061 6.30398L21.0125 8.26252ZM21.0125 8.26252C21.0114 7.73492 20.7894 7.22862 20.3937 6.85075C20.0056 6.48009 19.4803 6.2615 18.9254 6.23868M21.0125 8.26252L18.9254 6.23868M19.0948 2.92707C18.8555 2.67389 18.5608 2.4711 18.2306 2.33217C17.9001 2.19318 17.5416 2.12129 17.1789 2.12129C16.8163 2.12129 16.4578 2.19318 16.1273 2.33217C15.7971 2.47108 15.5025 2.67384 15.2632 2.92697C15.2488 2.93922 15.2356 2.95257 15.2237 2.96688C14.7859 3.44518 14.57 4.06544 14.6236 4.69168C14.6767 5.3124 14.9903 5.88839 15.4958 6.29577L19.0861 2.93604M19.0948 2.92707C19.0949 2.9272 19.0951 2.92733 19.0952 2.92746L19.0861 2.93604M19.0948 2.92707C19.0947 2.92695 19.0946 2.92683 19.0944 2.92671L19.0861 2.93604M19.0948 2.92707C19.1065 2.93752 19.1174 2.94871 19.1274 2.96058M19.0861 2.93604C19.0976 2.94626 19.1083 2.95723 19.1181 2.96885M19.1274 2.96058C19.1274 2.96051 19.1273 2.96045 19.1272 2.96038L19.1181 2.96885M19.1274 2.96058C19.5597 3.42933 19.778 4.03652 19.7357 4.65287C19.694 5.25896 19.4036 5.82643 18.9254 6.23868M19.1274 2.96058C19.1275 2.96065 19.1276 2.96072 19.1276 2.9608L19.1181 2.96885M19.1181 2.96885L18.9254 6.23868M17.1773 3.89697C17.7226 3.90396 18.2627 3.79825 18.7586 3.58752C18.9092 3.8121 19.0022 4.06575 19.0307 4.32896C19.0595 4.59551 19.0212 4.86465 18.9188 5.11515C18.8165 5.36565 18.6528 5.59072 18.4407 5.77254C18.2286 5.95437 17.9738 6.08795 17.6964 6.1627C17.4191 6.23744 17.1268 6.25129 16.8427 6.20312C16.5586 6.15496 16.2905 6.04612 16.0596 5.88525C15.8286 5.72439 15.6411 5.51591 15.5119 5.27634C15.3826 5.03677 15.3151 4.77263 15.3145 4.50475L15.3153 4.50475L15.3138 4.50055L15.3129 4.49792C15.3134 4.17581 15.4114 3.86033 15.5959 3.5875C16.0918 3.79825 16.6319 3.90396 17.1773 3.89697ZM17.1773 3.89697C17.1772 3.89697 17.1772 3.89697 17.1771 3.89697L17.1773 3.88447L17.1774 3.89697C17.1774 3.89697 17.1773 3.89697 17.1773 3.89697ZM18.241 3.09151C17.8993 3.20244 17.5395 3.2577 17.1774 3.25479L17.1772 3.25479C16.8135 3.25772 16.4521 3.20195 16.109 3.09005C16.4205 2.88635 16.7924 2.77678 17.1739 2.77678C17.5563 2.77678 17.9291 2.88687 18.241 3.09151ZM17.6571 6.88756L17.1773 7.54142L16.6974 6.88756H17.6571Z" fill="#DE0C0C" stroke="#DE0C0C" stroke-width="0.025"/>
</svg>
