<svg width="301" height="360" viewBox="0 0 301 360" fill="none" xmlns="http://www.w3.org/2000/svg">
<g clip-path="url(#clip0_577_602)">
<path d="M288 59.8846H286.614V21.9534C286.614 16.131 284.297 10.5471 280.171 6.43001C276.045 2.31294 270.45 2.86371e-09 264.616 2.8637e-09H184.086C181.197 -4.65608e-05 178.336 0.567749 175.667 1.67097C172.998 2.77419 170.573 4.39122 168.53 6.42976C166.487 8.46829 164.867 10.8884 163.761 13.5519C162.656 16.2154 162.087 19.0701 162.087 21.9531V230.047C162.087 235.869 164.404 241.453 168.53 245.57C172.656 249.687 178.251 252 184.085 252H264.615C270.449 252 276.044 249.687 280.17 245.57C284.296 241.453 286.613 235.869 286.613 230.047V86.8847H287.999L288 59.8846Z" fill="#3F3D56"/>
<path d="M282.128 20.483V231.516C282.127 235.931 280.37 240.164 277.242 243.286C274.115 246.408 269.873 248.163 265.449 248.164H183.267C178.842 248.165 174.598 246.411 171.468 243.289C168.338 240.167 166.579 235.933 166.577 231.516V20.483C166.579 16.067 168.338 11.8323 171.467 8.71036C174.597 5.58841 178.841 3.83488 183.267 3.83545H193.236C192.746 5.03674 192.56 6.33963 192.693 7.62961C192.826 8.91959 193.275 10.1572 194 11.2335C194.725 12.3099 195.703 13.1921 196.85 13.8027C197.996 14.4132 199.275 14.7334 200.575 14.735H247.428C248.728 14.7334 250.007 14.4132 251.153 13.8027C252.3 13.1921 253.278 12.3099 254.003 11.2335C254.728 10.1572 255.177 8.91959 255.31 7.62961C255.443 6.33963 255.257 5.03674 254.767 3.83545H265.446C269.869 3.8362 274.112 5.58994 277.24 8.71111C280.368 11.8323 282.126 16.0654 282.128 20.4798V20.483Z" fill="white"/>
<path d="M225.234 104.909C215.877 104.913 206.902 101.207 200.283 94.6073C193.664 88.0075 189.943 79.0541 189.939 69.7166V69.6854C189.939 69.6117 189.939 69.534 189.943 69.4603C190.05 50.1715 205.883 34.4639 225.234 34.4639C234.595 34.4634 243.572 38.1738 250.192 44.7789C256.811 51.3839 260.53 60.3427 260.531 69.6842C260.531 79.0257 256.813 87.9848 250.195 94.5907C243.576 101.196 234.599 104.908 225.238 104.908H225.234V104.909ZM225.234 35.2049C216.112 35.2253 207.366 38.8371 200.898 45.2557C194.429 51.6743 190.759 60.381 190.687 69.484C190.683 69.5627 190.683 69.6259 190.683 69.6858C190.682 76.5063 192.708 83.1739 196.504 88.8454C200.301 94.5169 205.697 98.9376 212.011 101.549C218.325 104.159 225.273 104.843 231.976 103.513C238.68 102.184 244.838 98.8999 249.671 94.0777C254.504 89.2555 257.796 83.1112 259.13 76.4219C260.465 69.7326 259.781 62.7987 257.166 56.4971C254.552 50.1954 250.123 44.8091 244.441 41.0191C238.759 37.2291 232.078 35.2058 225.243 35.2049H225.234Z" fill="#E6E6E6"/>
<path d="M261.731 141.941H188.703C188.344 141.941 188.001 141.799 187.747 141.546C187.494 141.293 187.351 140.95 187.351 140.592V122.514C187.351 122.157 187.494 121.814 187.747 121.561C188.001 121.308 188.344 121.165 188.703 121.165H261.731C262.09 121.165 262.433 121.308 262.687 121.561C262.94 121.814 263.083 122.157 263.084 122.514V140.592C263.083 140.95 262.94 141.293 262.687 141.546C262.433 141.799 262.09 141.941 261.731 141.942V141.941ZM188.703 121.704C188.488 121.705 188.282 121.79 188.129 121.942C187.977 122.094 187.892 122.3 187.891 122.514V140.592C187.892 140.807 187.977 141.013 188.129 141.165C188.282 141.317 188.488 141.402 188.703 141.402H261.731C261.946 141.402 262.153 141.317 262.305 141.165C262.457 141.013 262.543 140.807 262.543 140.592V122.514C262.543 122.3 262.457 122.094 262.305 121.942C262.153 121.79 261.946 121.705 261.731 121.704H188.703Z" fill="#E6E6E6"/>
<path d="M211.288 127.774C211.037 127.774 210.796 127.874 210.618 128.051C210.441 128.228 210.341 128.469 210.341 128.719C210.341 128.97 210.441 129.21 210.618 129.387C210.796 129.564 211.037 129.664 211.288 129.664H255.916C256.04 129.669 256.164 129.649 256.28 129.606C256.397 129.563 256.504 129.497 256.595 129.413C256.687 129.329 256.76 129.227 256.812 129.114C256.864 129.002 256.893 128.88 256.898 128.756C256.903 128.632 256.883 128.508 256.84 128.392C256.797 128.275 256.731 128.169 256.647 128.078C256.562 127.987 256.46 127.913 256.347 127.861C256.235 127.809 256.112 127.78 255.988 127.775C255.974 127.775 255.96 127.775 255.947 127.775H211.288V127.774Z" fill="#E6E6E6"/>
<path d="M211.288 133.443C211.037 133.443 210.796 133.542 210.618 133.719C210.441 133.897 210.341 134.137 210.341 134.387C210.341 134.638 210.441 134.878 210.618 135.055C210.796 135.233 211.037 135.332 211.288 135.332H255.916C256.04 135.337 256.164 135.317 256.28 135.274C256.397 135.231 256.504 135.165 256.595 135.081C256.687 134.997 256.76 134.895 256.812 134.783C256.864 134.67 256.893 134.548 256.898 134.424C256.903 134.3 256.883 134.176 256.84 134.06C256.797 133.944 256.731 133.837 256.647 133.746C256.562 133.655 256.46 133.581 256.347 133.529C256.235 133.478 256.112 133.448 255.988 133.444C255.974 133.443 255.96 133.443 255.947 133.443L211.288 133.443Z" fill="#E6E6E6"/>
<path d="M261.731 172.172H188.703C188.344 172.172 188.001 172.03 187.747 171.777C187.494 171.524 187.351 171.181 187.351 170.823V152.745C187.351 152.388 187.494 152.045 187.747 151.792C188.001 151.539 188.344 151.396 188.703 151.396H261.731C262.09 151.396 262.433 151.539 262.687 151.792C262.94 152.045 263.083 152.388 263.084 152.745V170.823C263.083 171.181 262.94 171.524 262.687 171.777C262.433 172.03 262.09 172.172 261.731 172.172ZM188.703 151.935C188.488 151.936 188.282 152.021 188.129 152.173C187.977 152.325 187.892 152.531 187.891 152.745V170.823C187.892 171.038 187.977 171.244 188.129 171.396C188.282 171.547 188.488 171.633 188.703 171.633H261.731C261.946 171.633 262.153 171.547 262.305 171.396C262.457 171.244 262.543 171.038 262.543 170.823V152.745C262.543 152.531 262.457 152.325 262.305 152.173C262.153 152.021 261.946 151.936 261.731 151.935H188.703Z" fill="#E6E6E6"/>
<path d="M211.288 158.004C211.037 158.004 210.796 158.103 210.618 158.281C210.441 158.458 210.341 158.698 210.341 158.949C210.341 159.199 210.441 159.44 210.618 159.617C210.796 159.794 211.037 159.893 211.288 159.893H255.916C256.163 159.892 256.4 159.794 256.576 159.62C256.752 159.446 256.853 159.211 256.857 158.964C256.861 158.717 256.768 158.478 256.598 158.299C256.428 158.119 256.194 158.014 255.947 158.004L211.288 158.004Z" fill="#E6E6E6"/>
<path d="M211.288 163.674C211.037 163.674 210.796 163.773 210.618 163.95C210.441 164.127 210.341 164.368 210.341 164.618C210.341 164.869 210.441 165.109 210.618 165.286C210.796 165.464 211.037 165.563 211.288 165.563H255.916C256.163 165.562 256.4 165.464 256.576 165.29C256.752 165.116 256.853 164.881 256.857 164.634C256.861 164.387 256.768 164.148 256.598 163.969C256.428 163.789 256.194 163.683 255.947 163.674L211.288 163.674Z" fill="#E6E6E6"/>
<path d="M261.731 202.403H188.703C188.344 202.402 188.001 202.26 187.747 202.007C187.494 201.754 187.351 201.411 187.351 201.053V182.975C187.351 182.618 187.494 182.275 187.747 182.022C188.001 181.769 188.344 181.626 188.703 181.626H261.731C262.09 181.626 262.433 181.769 262.687 182.022C262.94 182.275 263.083 182.618 263.084 182.975V201.053C263.083 201.411 262.94 201.754 262.687 202.007C262.433 202.26 262.09 202.402 261.731 202.403V202.403ZM188.703 182.166C188.488 182.166 188.282 182.251 188.129 182.403C187.977 182.555 187.892 182.761 187.891 182.975V201.053C187.892 201.268 187.977 201.474 188.129 201.626C188.282 201.778 188.488 201.863 188.703 201.863H261.731C261.946 201.863 262.153 201.778 262.305 201.626C262.457 201.474 262.543 201.268 262.543 201.053V182.975C262.543 182.761 262.457 182.555 262.305 182.403C262.153 182.251 261.946 182.166 261.731 182.166H188.703Z" fill="#E6E6E6"/>
<path d="M211.288 188.235C211.037 188.235 210.796 188.335 210.618 188.512C210.441 188.689 210.341 188.93 210.341 189.18C210.341 189.431 210.441 189.671 210.618 189.848C210.796 190.025 211.037 190.125 211.288 190.125H255.916C256.04 190.13 256.164 190.11 256.28 190.067C256.397 190.024 256.504 189.958 256.595 189.874C256.687 189.79 256.76 189.688 256.812 189.575C256.864 189.463 256.893 189.341 256.898 189.217C256.903 189.093 256.883 188.969 256.84 188.853C256.797 188.736 256.731 188.63 256.647 188.539C256.562 188.447 256.46 188.374 256.347 188.322C256.235 188.27 256.112 188.241 255.988 188.236C255.974 188.236 255.96 188.236 255.947 188.236L211.288 188.235Z" fill="#E6E6E6"/>
<path d="M211.288 193.904C211.037 193.904 210.796 194.003 210.618 194.181C210.441 194.358 210.341 194.598 210.341 194.849C210.341 195.099 210.441 195.339 210.618 195.517C210.796 195.694 211.037 195.793 211.288 195.793H255.916C256.04 195.798 256.164 195.778 256.28 195.735C256.397 195.692 256.504 195.627 256.595 195.542C256.687 195.458 256.76 195.357 256.812 195.244C256.864 195.131 256.893 195.009 256.898 194.885C256.903 194.761 256.883 194.638 256.84 194.521C256.797 194.405 256.731 194.298 256.647 194.207C256.562 194.116 256.46 194.042 256.347 193.991C256.235 193.939 256.112 193.91 255.988 193.905C255.974 193.904 255.96 193.904 255.947 193.904L211.288 193.904Z" fill="#E6E6E6"/>
<path d="M236.387 68.8309H226.093V58.5586H224.378V68.8309H214.085V70.5428H224.378V80.8152H226.093V70.5428H236.387V68.8309Z" fill="#DE0C0C"/>
<path d="M78.3177 198.006C78.3177 198.006 69.9012 207.205 68.6989 228.403C67.4965 249.6 67.0957 252 67.0957 252H97.1545L102.763 237.603L109.177 251.999H137.632C137.632 251.999 140.838 208.004 137.632 206.804C134.426 205.604 78.3177 198.006 78.3177 198.006Z" fill="#2F2E41"/>
<path d="M118.595 89.8181C126.563 89.8181 133.023 83.3718 133.023 75.4199C133.023 67.468 126.563 61.0217 118.595 61.0217C110.627 61.0217 104.167 67.468 104.167 75.4199C104.167 83.3718 110.627 89.8181 118.595 89.8181Z" fill="#FFB8B8"/>
<path d="M180.917 198.408L158.874 158.412L146.047 137.614L161.278 130.814L169.695 147.213C169.695 147.213 180.917 163.611 183.722 177.21C186.527 190.809 189.333 197.208 189.333 197.208L180.917 198.408Z" fill="#FFB8B8"/>
<path d="M59.4784 186.807L92.3423 158.011L90.7409 134.813H81.5229L78.716 146.812L52.2646 181.608L59.4784 186.807Z" fill="#FFB8B8"/>
<path d="M101.962 96.8183C101.962 96.8183 113.865 101.798 122.742 95.7085C122.742 95.7085 144.445 99.2188 145.647 100.418C146.85 101.617 144.445 137.613 144.445 137.613L139.636 158.011C139.636 158.011 146.449 189.208 136.43 197.207L138.434 208.006C138.434 208.006 93.9475 211.206 76.313 200.407L79.5186 189.607L87.9351 155.611L82.7249 108.417C82.7249 108.417 86.7313 97.6182 101.962 96.8183Z" fill="#E4E4E4"/>
<path d="M135.428 102.217L145.848 100.619C145.848 100.619 151.058 101.419 155.868 111.418C160.677 121.417 165.887 134.615 165.887 134.615L147.852 142.614L133.024 119.417L135.428 102.217Z" fill="#E4E4E4"/>
<path d="M85.1303 106.417L82.7256 108.417C82.7256 108.417 79.5193 120.016 79.5193 128.014V138.813L93.9475 140.413L85.1303 106.417Z" fill="#E4E4E4"/>
<path d="M104.171 79.3276C104.171 79.3276 102.21 77.214 102.408 74.5681C102.539 73.0631 102.443 71.5469 102.122 70.0704C102.122 70.0704 102.736 65.74 103.643 63.2296C104.549 60.7192 103.785 59.8459 107.681 58.4755C111.577 57.105 109.097 52.1495 120.584 56.0998C121.021 56.5401 121.578 56.8413 122.187 56.9655C122.795 57.0897 123.426 57.0313 124.001 56.7976C126.122 56.0225 127.4 58.93 127.4 58.93C127.4 58.93 128.723 57.8468 129.465 58.9729C130.207 60.0991 133.797 57.5327 135.115 65.7244C136.432 73.9161 131.912 81.2214 131.912 81.2214C131.912 81.2214 131.278 68.1128 123.818 67.8749C116.358 67.6369 107.921 64.8174 106.875 70.3374C105.829 75.8574 104.171 79.3276 104.171 79.3276Z" fill="#2F2E41"/>
<path d="M54.2212 192.933C57.6553 192.933 60.4391 190.155 60.4391 186.728C60.4391 183.301 57.6553 180.523 54.2212 180.523C50.7872 180.523 48.0034 183.301 48.0034 186.728C48.0034 190.155 50.7872 192.933 54.2212 192.933Z" fill="#FFB8B8"/>
<path d="M9.39603 228.637L111.801 208.238L103.243 165.455L0.838165 185.854L9.39603 228.637Z" fill="white"/>
<path d="M112.639 208.797L8.83713 229.476L0 185.296L103.802 164.618L112.639 208.797ZM9.95563 227.802L110.963 207.681L102.683 166.291L1.67633 186.412L9.95563 227.802Z" fill="#E4E4E4"/>
<path d="M42.7852 215.039L42.7432 215.057C42.4093 215.194 42.0708 215.324 41.7231 215.437C41.6063 215.477 41.4851 215.513 41.3677 215.549C41.2503 215.584 41.129 215.622 41.0074 215.655C40.8096 215.712 40.6071 215.762 40.4036 215.809C40.3164 215.831 40.2246 215.85 40.1367 215.869L40.0839 215.88C39.9748 215.903 39.8657 215.926 39.7558 215.946L39.4718 215.995C39.419 216.007 39.3668 216.014 39.3153 216.021C37.057 216.375 34.7478 216.213 32.5612 215.548C30.3747 214.882 28.3678 213.731 26.6914 212.18C25.015 210.629 23.7128 208.719 22.8827 206.594C22.0526 204.468 21.7162 202.182 21.8988 199.909C22.0814 197.635 22.7783 195.432 23.937 193.465C25.0957 191.499 26.6861 189.82 28.5886 188.555C30.4911 187.291 32.6562 186.473 34.921 186.164C37.1858 185.854 39.4914 186.061 41.6645 186.769C39.6978 188.542 38.2326 190.8 37.4158 193.316C36.599 195.832 36.4593 198.518 37.0106 201.105C37.5619 203.692 38.785 206.089 40.5571 208.056C42.3293 210.023 44.5883 211.49 47.1078 212.311C45.8338 213.46 44.3722 214.383 42.7862 215.04L42.7852 215.039Z" fill="#DE0C0C"/>
<path d="M64.4028 207.364C65.0637 207.695 65.7485 207.976 66.4515 208.204C64.4834 209.984 62.0783 211.211 59.4806 211.763L59.2905 211.803C57.0226 212.257 54.6805 212.186 52.4444 211.595C50.2084 211.005 48.1379 209.91 46.3924 208.395C44.6469 206.88 43.2728 204.986 42.376 202.859C41.4792 200.731 41.0835 198.426 41.2193 196.122C41.3552 193.817 42.0189 191.575 43.1596 189.567C44.3003 187.558 45.8874 185.838 47.7988 184.538C49.7102 183.238 51.8951 182.393 54.1851 182.068C56.4752 181.743 58.8095 181.947 61.0083 182.663C59.1751 184.307 57.7732 186.374 56.9252 188.684C56.0772 190.993 55.809 193.475 56.1438 195.912C56.4787 198.349 57.4066 200.667 58.8463 202.663C60.286 204.659 62.1937 206.274 64.4028 207.364Z" fill="#DE0C0C"/>
<path d="M90.4649 189.761C91.087 192.68 90.8278 195.717 89.7199 198.49C88.612 201.262 86.7053 203.644 84.2408 205.335C81.7764 207.025 78.8649 207.949 75.8745 207.988C72.8841 208.028 69.9492 207.181 67.4408 205.556C64.9325 203.931 62.9634 201.6 61.7825 198.858C60.6016 196.116 60.2621 193.086 60.8067 190.151C61.3514 187.217 62.7558 184.509 64.8424 182.371C66.929 180.233 69.604 178.761 72.5292 178.14C74.4715 177.728 76.4761 177.701 78.4286 178.062C80.3811 178.423 82.2432 179.164 83.9087 180.243C85.5742 181.322 87.0104 182.718 88.1353 184.351C89.2602 185.984 90.0518 187.822 90.4649 189.761Z" fill="#DE0C0C"/>
<path d="M84.1328 203.226C84.2757 203.894 84.3504 204.575 84.3558 205.258C82.6908 206.421 80.8082 207.237 78.8203 207.659C76.8324 208.081 74.7797 208.1 72.7845 207.713C72.5109 207.087 72.3016 206.435 72.1597 205.767C71.4198 202.295 72.5666 198.985 74.7971 197.487C73.7357 197.285 72.777 196.722 72.0839 195.895C71.3908 195.068 71.0059 194.026 70.9946 192.948C70.9832 191.87 71.3461 190.821 72.0217 189.979C72.6973 189.137 73.6439 188.555 74.7009 188.331C75.7579 188.106 76.86 188.254 77.8204 188.748C78.7807 189.243 79.54 190.054 79.9694 191.043C80.3987 192.033 80.4717 193.14 80.176 194.177C79.8802 195.215 79.2339 196.118 78.3467 196.733C80.996 197.196 83.3929 199.754 84.1328 203.226Z" fill="white"/>
<path d="M64.403 207.365L64.4128 207.411C64.54 208.25 64.5976 209.098 64.585 209.946C63.0187 211.042 61.2679 211.359 59.2908 211.804L59.1007 211.845C57.113 212.269 55.0598 212.287 53.0648 211.899C53.0378 211.841 53.0142 211.783 52.9943 211.723C52.7532 211.152 52.5678 210.559 52.4404 209.952C51.7005 206.48 52.8473 203.17 55.0779 201.672C54.0163 201.47 53.0575 200.908 52.3643 200.081C51.671 199.253 51.2861 198.212 51.2747 197.134C51.2634 196.055 51.6264 195.006 52.3021 194.165C52.9778 193.323 53.9246 192.741 54.9816 192.517C55.3398 192.44 55.706 192.406 56.0722 192.418C55.7796 195.458 56.4196 198.516 57.9074 201.185C59.3952 203.855 61.6606 206.01 64.4035 207.366L64.403 207.365Z" fill="white"/>
<path d="M45.4333 211.652C45.5534 212.254 45.6159 212.865 45.6202 213.479C44.4234 214.316 43.1109 214.976 41.7237 215.437C41.6068 215.476 41.4857 215.513 41.3683 215.548C41.2509 215.584 41.1296 215.621 41.0081 215.654C40.8102 215.711 40.6077 215.761 40.4042 215.808C40.3625 215.821 40.317 215.83 40.2746 215.839L40.0845 215.88C39.9754 215.903 39.8663 215.926 39.7564 215.946L39.4724 215.995C39.4196 216.006 39.3674 216.014 39.3159 216.021C37.5688 216.303 35.7856 216.273 34.0487 215.934C34.0442 215.927 34.0412 215.919 34.04 215.91C34.0159 215.861 33.9952 215.81 33.9782 215.758C33.7372 215.187 33.5517 214.594 33.4243 213.988C32.6844 210.516 33.8312 207.205 36.0618 205.707C35.0002 205.505 34.0415 204.943 33.3482 204.116C32.655 203.289 32.27 202.247 32.2587 201.169C32.2473 200.091 32.6103 199.042 33.286 198.2C33.9617 197.359 34.9085 196.776 35.9655 196.552C36.2192 196.498 36.477 196.465 36.7361 196.455C36.4209 199.576 37.0894 202.718 38.6485 205.442C40.2075 208.166 42.5794 210.337 45.4335 211.652L45.4333 211.652Z" fill="white"/>
<path d="M201.23 134.265C201.23 134.606 201.196 134.947 201.127 135.282C200.192 135.678 199.186 135.882 198.169 135.882C197.153 135.882 196.147 135.678 195.211 135.282C195.143 134.947 195.108 134.606 195.109 134.265C195.109 132.49 196.014 130.99 197.262 130.488C196.764 130.279 196.354 129.905 196.101 129.428C195.848 128.951 195.768 128.402 195.875 127.874C195.982 127.345 196.269 126.869 196.687 126.528C197.105 126.186 197.629 126 198.169 126C198.71 126 199.233 126.186 199.651 126.528C200.07 126.869 200.357 127.345 200.463 127.874C200.57 128.402 200.49 128.951 200.238 129.428C199.985 129.905 199.575 130.279 199.076 130.488C200.324 130.99 201.23 132.49 201.23 134.265Z" fill="#DE0C0C"/>
<path d="M201.23 165.108C201.23 165.45 201.196 165.79 201.127 166.125C200.192 166.521 199.186 166.725 198.169 166.725C197.153 166.725 196.147 166.521 195.211 166.125C195.143 165.79 195.108 165.45 195.109 165.108C195.109 163.333 196.014 161.833 197.262 161.332C196.764 161.122 196.354 160.748 196.101 160.271C195.848 159.795 195.768 159.245 195.875 158.717C195.982 158.188 196.269 157.713 196.687 157.371C197.105 157.03 197.629 156.843 198.169 156.843C198.71 156.843 199.233 157.03 199.651 157.371C200.07 157.713 200.357 158.188 200.463 158.717C200.57 159.245 200.49 159.795 200.238 160.271C199.985 160.748 199.575 161.122 199.076 161.332C200.324 161.833 201.23 163.333 201.23 165.108Z" fill="#DE0C0C"/>
<path d="M201.23 195.338C201.23 195.68 201.196 196.02 201.127 196.355C200.192 196.751 199.186 196.955 198.169 196.955C197.153 196.955 196.147 196.751 195.211 196.355C195.143 196.02 195.108 195.68 195.109 195.338C195.109 193.563 196.014 192.063 197.262 191.562C196.764 191.352 196.354 190.978 196.101 190.501C195.848 190.025 195.768 189.475 195.875 188.947C195.982 188.418 196.269 187.943 196.687 187.601C197.105 187.26 197.629 187.073 198.169 187.073C198.71 187.073 199.233 187.26 199.651 187.601C200.07 187.943 200.357 188.418 200.463 188.947C200.57 189.475 200.49 190.025 200.238 190.501C199.985 190.978 199.575 191.352 199.076 191.562C200.324 192.063 201.23 193.563 201.23 195.338Z" fill="#DE0C0C"/>
<path d="M185.506 205.698C188.646 205.698 191.191 203.158 191.191 200.025C191.191 196.892 188.646 194.352 185.506 194.352C182.367 194.352 179.821 196.892 179.821 200.025C179.821 203.158 182.367 205.698 185.506 205.698Z" fill="#FFB8B8"/>
</g>
<rect x="43" y="234" width="258" height="126" rx="28" fill="#EFEDED"/>
<path d="M103.17 267.8C104.322 267.8 105.346 268.072 106.242 268.616C107.149 269.16 107.816 269.944 108.242 270.968H106.482C106.162 270.36 105.714 269.896 105.138 269.576C104.562 269.256 103.906 269.096 103.17 269.096C102.381 269.096 101.666 269.277 101.026 269.64C100.397 269.992 99.9011 270.499 99.5384 271.16C99.1864 271.821 99.0104 272.584 99.0104 273.448C99.0104 274.312 99.1864 275.075 99.5384 275.736C99.9011 276.397 100.397 276.909 101.026 277.272C101.666 277.635 102.381 277.816 103.17 277.816C103.906 277.816 104.562 277.656 105.138 277.336C105.714 277.005 106.162 276.536 106.482 275.928H108.242C107.816 276.952 107.149 277.736 106.242 278.28C105.346 278.824 104.322 279.096 103.17 279.096C102.136 279.096 101.186 278.856 100.322 278.376C99.4584 277.885 98.7758 277.213 98.2744 276.36C97.7731 275.496 97.5224 274.525 97.5224 273.448C97.5224 272.36 97.7731 271.389 98.2744 270.536C98.7758 269.672 99.4584 269 100.322 268.52C101.186 268.04 102.136 267.8 103.17 267.8ZM118.184 270.216V279H116.728V277.592C116.44 278.104 116.045 278.493 115.544 278.76C115.043 279.016 114.483 279.144 113.864 279.144C113.235 279.144 112.659 279.005 112.136 278.728C111.624 278.44 111.213 278.019 110.904 277.464C110.605 276.909 110.456 276.232 110.456 275.432V270.216H111.896V275.192C111.896 276.067 112.109 276.739 112.536 277.208C112.973 277.667 113.565 277.896 114.312 277.896C115.059 277.896 115.645 277.667 116.072 277.208C116.509 276.739 116.728 276.067 116.728 275.192V270.216H118.184ZM122.039 271.704C122.561 270.616 123.452 270.072 124.711 270.072V271.592H124.327C123.58 271.592 123.009 271.789 122.615 272.184C122.231 272.568 122.039 273.24 122.039 274.2V279H120.583V270.216H122.039V271.704ZM127.929 271.704C128.452 270.616 129.343 270.072 130.601 270.072V271.592H130.217C129.471 271.592 128.9 271.789 128.505 272.184C128.121 272.568 127.929 273.24 127.929 274.2V279H126.473V270.216H127.929V271.704ZM140.332 274.248C140.332 274.557 140.311 274.845 140.268 275.112H133.276C133.319 275.987 133.591 276.68 134.092 277.192C134.604 277.693 135.255 277.944 136.044 277.944C136.641 277.944 137.143 277.811 137.548 277.544C137.964 277.277 138.268 276.925 138.46 276.488H140.028C139.751 277.256 139.271 277.891 138.588 278.392C137.916 278.893 137.068 279.144 136.044 279.144C135.223 279.144 134.487 278.957 133.836 278.584C133.196 278.211 132.695 277.683 132.332 277C131.969 276.307 131.788 275.512 131.788 274.616C131.788 273.709 131.969 272.915 132.332 272.232C132.695 271.539 133.207 271.005 133.868 270.632C134.529 270.259 135.292 270.072 136.156 270.072C136.977 270.072 137.703 270.253 138.332 270.616C138.961 270.979 139.452 271.475 139.804 272.104C140.156 272.733 140.332 273.448 140.332 274.248ZM138.812 274.056C138.812 273.491 138.689 273 138.444 272.584C138.199 272.157 137.863 271.832 137.436 271.608C137.02 271.384 136.556 271.272 136.044 271.272C135.287 271.272 134.652 271.523 134.14 272.024C133.628 272.515 133.345 273.192 133.292 274.056H138.812ZM146.465 270.072C147.095 270.072 147.665 270.216 148.177 270.504C148.7 270.781 149.111 271.203 149.409 271.768C149.719 272.323 149.873 273 149.873 273.8V279H148.433V274.04C148.433 273.155 148.22 272.483 147.793 272.024C147.367 271.565 146.775 271.336 146.017 271.336C145.271 271.336 144.679 271.565 144.241 272.024C143.815 272.483 143.601 273.155 143.601 274.04V279H142.145V270.216H143.601V271.64C143.889 271.128 144.284 270.739 144.785 270.472C145.287 270.205 145.847 270.072 146.465 270.072ZM156.272 277.816V279H154.8C154.054 279 153.483 278.819 153.088 278.456C152.704 278.093 152.512 277.523 152.512 276.744V271.4H151.376V270.216H152.512V268.04H153.984V270.216H156.256V271.4H153.984V276.744C153.984 277.139 154.064 277.416 154.224 277.576C154.384 277.736 154.667 277.816 155.072 277.816H156.272ZM159.336 267.16V279H157.88V267.16H159.336ZM162.331 270.216L165.019 277.32L167.755 270.216H169.259L163.963 283.112H162.459L164.203 278.856L160.731 270.216H162.331ZM176.034 270.216L178.722 277.32L181.458 270.216H182.962L177.666 283.112H176.162L177.906 278.856L174.434 270.216H176.034ZM188.204 270.072C189.036 270.072 189.788 270.259 190.46 270.632C191.132 271.005 191.66 271.539 192.044 272.232C192.439 272.925 192.636 273.72 192.636 274.616C192.636 275.501 192.434 276.291 192.028 276.984C191.623 277.667 191.074 278.2 190.38 278.584C189.687 278.957 188.919 279.144 188.076 279.144C187.255 279.144 186.514 278.957 185.852 278.584C185.202 278.211 184.69 277.683 184.316 277C183.954 276.307 183.772 275.512 183.772 274.616C183.772 273.709 183.964 272.915 184.348 272.232C184.743 271.539 185.276 271.005 185.948 270.632C186.62 270.259 187.372 270.072 188.204 270.072ZM188.156 271.272C187.623 271.272 187.138 271.4 186.7 271.656C186.263 271.912 185.911 272.291 185.644 272.792C185.388 273.293 185.26 273.901 185.26 274.616C185.26 275.32 185.383 275.923 185.628 276.424C185.884 276.925 186.226 277.304 186.652 277.56C187.079 277.816 187.554 277.944 188.076 277.944C188.61 277.944 189.106 277.816 189.564 277.56C190.034 277.293 190.412 276.909 190.7 276.408C190.988 275.907 191.132 275.309 191.132 274.616C191.132 273.912 190.994 273.309 190.716 272.808C190.45 272.296 190.087 271.912 189.628 271.656C189.18 271.4 188.69 271.272 188.156 271.272ZM202.106 270.216V279H200.65V277.592C200.362 278.104 199.967 278.493 199.466 278.76C198.964 279.016 198.404 279.144 197.786 279.144C197.156 279.144 196.58 279.005 196.058 278.728C195.546 278.44 195.135 278.019 194.826 277.464C194.527 276.909 194.378 276.232 194.378 275.432V270.216H195.818V275.192C195.818 276.067 196.031 276.739 196.458 277.208C196.895 277.667 197.487 277.896 198.234 277.896C198.98 277.896 199.567 277.667 199.994 277.208C200.431 276.739 200.65 276.067 200.65 275.192V270.216H202.106ZM212.918 270.072C213.664 270.072 214.315 270.248 214.87 270.6C215.435 270.952 215.862 271.411 216.15 271.976V267.16H217.622V279H216.15V277.208C215.862 277.784 215.435 278.253 214.87 278.616C214.315 278.968 213.664 279.144 212.918 279.144C212.128 279.144 211.414 278.952 210.774 278.568C210.144 278.173 209.643 277.629 209.27 276.936C208.907 276.232 208.726 275.437 208.726 274.552C208.726 273.667 208.907 272.888 209.27 272.216C209.643 271.533 210.144 271.005 210.774 270.632C211.414 270.259 212.128 270.072 212.918 270.072ZM213.174 271.336C212.651 271.336 212.16 271.464 211.702 271.72C211.254 271.976 210.891 272.349 210.614 272.84C210.347 273.32 210.214 273.891 210.214 274.552C210.214 275.213 210.347 275.8 210.614 276.312C210.891 276.813 211.254 277.203 211.702 277.48C212.16 277.757 212.651 277.896 213.174 277.896C213.707 277.896 214.198 277.763 214.646 277.496C215.104 277.229 215.467 276.851 215.734 276.36C216.011 275.859 216.15 275.277 216.15 274.616C216.15 273.955 216.011 273.379 215.734 272.888C215.467 272.387 215.104 272.003 214.646 271.736C214.198 271.469 213.707 271.336 213.174 271.336ZM223.876 270.072C224.708 270.072 225.46 270.259 226.132 270.632C226.804 271.005 227.332 271.539 227.716 272.232C228.111 272.925 228.308 273.72 228.308 274.616C228.308 275.501 228.106 276.291 227.7 276.984C227.295 277.667 226.746 278.2 226.052 278.584C225.359 278.957 224.591 279.144 223.748 279.144C222.927 279.144 222.186 278.957 221.524 278.584C220.874 278.211 220.362 277.683 219.988 277C219.626 276.307 219.444 275.512 219.444 274.616C219.444 273.709 219.636 272.915 220.02 272.232C220.415 271.539 220.948 271.005 221.62 270.632C222.292 270.259 223.044 270.072 223.876 270.072ZM223.828 271.272C223.295 271.272 222.81 271.4 222.372 271.656C221.935 271.912 221.583 272.291 221.316 272.792C221.06 273.293 220.932 273.901 220.932 274.616C220.932 275.32 221.055 275.923 221.3 276.424C221.556 276.925 221.898 277.304 222.324 277.56C222.751 277.816 223.226 277.944 223.748 277.944C224.282 277.944 224.778 277.816 225.236 277.56C225.706 277.293 226.084 276.909 226.372 276.408C226.66 275.907 226.804 275.309 226.804 274.616C226.804 273.912 226.666 273.309 226.388 272.808C226.122 272.296 225.759 271.912 225.3 271.656C224.852 271.4 224.362 271.272 223.828 271.272ZM234.45 270.072C235.079 270.072 235.65 270.216 236.162 270.504C236.684 270.781 237.095 271.203 237.394 271.768C237.703 272.323 237.858 273 237.858 273.8V279H236.418V274.04C236.418 273.155 236.204 272.483 235.778 272.024C235.351 271.565 234.759 271.336 234.002 271.336C233.255 271.336 232.663 271.565 232.226 272.024C231.799 272.483 231.586 273.155 231.586 274.04V279H230.13V270.216H231.586V271.64C231.874 271.128 232.268 270.739 232.77 270.472C233.271 270.205 233.831 270.072 234.45 270.072ZM240.833 266.472C240.961 267.027 241.025 267.517 241.025 267.944C241.025 268.573 240.886 269.032 240.609 269.32C240.342 269.608 239.942 269.752 239.409 269.752V269.048C239.665 269.048 239.851 268.984 239.969 268.856C240.097 268.717 240.161 268.504 240.161 268.216V267.848H239.377V266.472H240.833ZM246.694 277.816V279H245.222C244.475 279 243.905 278.819 243.51 278.456C243.126 278.093 242.934 277.523 242.934 276.744V271.4H241.798V270.216H242.934V268.04H244.406V270.216H246.678V271.4H244.406V276.744C244.406 277.139 244.486 277.416 244.646 277.576C244.806 277.736 245.089 277.816 245.494 277.816H246.694ZM103.598 294.072C104.227 294.072 104.798 294.216 105.31 294.504C105.833 294.781 106.243 295.203 106.542 295.768C106.851 296.323 107.006 297 107.006 297.8V303H105.566V298.04C105.566 297.155 105.353 296.483 104.926 296.024C104.499 295.565 103.907 295.336 103.15 295.336C102.403 295.336 101.811 295.565 101.374 296.024C100.947 296.483 100.734 297.155 100.734 298.04V303H99.2781V291.16H100.734V295.64C101.022 295.128 101.417 294.739 101.918 294.472C102.419 294.205 102.979 294.072 103.598 294.072ZM112.941 294.072C113.688 294.072 114.338 294.248 114.893 294.6C115.458 294.952 115.885 295.411 116.173 295.976V294.216H117.645V303H116.173V301.208C115.885 301.784 115.458 302.253 114.893 302.616C114.338 302.968 113.688 303.144 112.941 303.144C112.152 303.144 111.437 302.952 110.797 302.568C110.168 302.173 109.666 301.629 109.293 300.936C108.93 300.232 108.749 299.437 108.749 298.552C108.749 297.667 108.93 296.888 109.293 296.216C109.666 295.533 110.168 295.005 110.797 294.632C111.437 294.259 112.152 294.072 112.941 294.072ZM113.197 295.336C112.674 295.336 112.184 295.464 111.725 295.72C111.277 295.976 110.914 296.349 110.637 296.84C110.37 297.32 110.237 297.891 110.237 298.552C110.237 299.213 110.37 299.8 110.637 300.312C110.914 300.813 111.277 301.203 111.725 301.48C112.184 301.757 112.674 301.896 113.197 301.896C113.73 301.896 114.221 301.763 114.669 301.496C115.128 301.229 115.49 300.851 115.757 300.36C116.034 299.859 116.173 299.277 116.173 298.616C116.173 297.955 116.034 297.379 115.757 296.888C115.49 296.387 115.128 296.003 114.669 295.736C114.221 295.469 113.73 295.336 113.197 295.336ZM123.276 301.64L125.98 294.216H127.548L124.108 303H122.46L119.036 294.216H120.588L123.276 301.64ZM136.902 298.248C136.902 298.557 136.881 298.845 136.838 299.112H129.846C129.889 299.987 130.161 300.68 130.662 301.192C131.174 301.693 131.825 301.944 132.614 301.944C133.212 301.944 133.713 301.811 134.118 301.544C134.534 301.277 134.838 300.925 135.03 300.488H136.598C136.321 301.256 135.841 301.891 135.158 302.392C134.486 302.893 133.638 303.144 132.614 303.144C131.793 303.144 131.057 302.957 130.406 302.584C129.766 302.211 129.265 301.683 128.902 301C128.54 300.307 128.358 299.512 128.358 298.616C128.358 297.709 128.54 296.915 128.902 296.232C129.265 295.539 129.777 295.005 130.438 294.632C131.1 294.259 131.862 294.072 132.726 294.072C133.548 294.072 134.273 294.253 134.902 294.616C135.532 294.979 136.022 295.475 136.374 296.104C136.726 296.733 136.902 297.448 136.902 298.248ZM135.382 298.056C135.382 297.491 135.26 297 135.014 296.584C134.769 296.157 134.433 295.832 134.006 295.608C133.59 295.384 133.126 295.272 132.614 295.272C131.857 295.272 131.222 295.523 130.71 296.024C130.198 296.515 129.916 297.192 129.862 298.056H135.382ZM151.161 294.216V303H149.705V301.592C149.417 302.104 149.022 302.493 148.521 302.76C148.019 303.016 147.459 303.144 146.841 303.144C146.211 303.144 145.635 303.005 145.113 302.728C144.601 302.44 144.19 302.019 143.881 301.464C143.582 300.909 143.433 300.232 143.433 299.432V294.216H144.873V299.192C144.873 300.067 145.086 300.739 145.513 301.208C145.95 301.667 146.542 301.896 147.289 301.896C148.035 301.896 148.622 301.667 149.049 301.208C149.486 300.739 149.705 300.067 149.705 299.192V294.216H151.161ZM156.583 294.072C157.533 294.072 158.285 294.323 158.839 294.824C159.394 295.315 159.698 295.992 159.751 296.856H158.247C158.226 296.365 158.061 295.971 157.751 295.672C157.442 295.373 157.015 295.224 156.471 295.224C155.917 295.224 155.479 295.357 155.159 295.624C154.85 295.88 154.695 296.205 154.695 296.6C154.695 296.931 154.791 297.197 154.983 297.4C155.186 297.592 155.431 297.736 155.719 297.832C156.018 297.928 156.418 298.029 156.919 298.136C157.559 298.285 158.071 298.435 158.455 298.584C158.85 298.723 159.186 298.963 159.463 299.304C159.741 299.635 159.879 300.088 159.879 300.664C159.879 301.144 159.741 301.576 159.463 301.96C159.186 302.333 158.797 302.627 158.295 302.84C157.794 303.043 157.218 303.144 156.567 303.144C155.586 303.144 154.797 302.899 154.199 302.408C153.613 301.917 153.293 301.24 153.239 300.376H154.743C154.765 300.867 154.935 301.261 155.255 301.56C155.586 301.848 156.023 301.992 156.567 301.992C157.165 301.992 157.623 301.869 157.943 301.624C158.274 301.379 158.439 301.053 158.439 300.648C158.439 300.317 158.338 300.056 158.135 299.864C157.943 299.661 157.698 299.512 157.399 299.416C157.101 299.309 156.69 299.197 156.167 299.08C155.538 298.941 155.026 298.803 154.631 298.664C154.247 298.515 153.917 298.285 153.639 297.976C153.373 297.667 153.239 297.24 153.239 296.696C153.239 296.216 153.373 295.779 153.639 295.384C153.917 294.979 154.306 294.659 154.807 294.424C155.319 294.189 155.911 294.072 156.583 294.072ZM169.949 298.248C169.949 298.557 169.928 298.845 169.885 299.112H162.893C162.936 299.987 163.208 300.68 163.709 301.192C164.221 301.693 164.872 301.944 165.661 301.944C166.259 301.944 166.76 301.811 167.165 301.544C167.581 301.277 167.885 300.925 168.077 300.488H169.645C169.368 301.256 168.888 301.891 168.205 302.392C167.533 302.893 166.685 303.144 165.661 303.144C164.84 303.144 164.104 302.957 163.453 302.584C162.813 302.211 162.312 301.683 161.949 301C161.587 300.307 161.405 299.512 161.405 298.616C161.405 297.709 161.587 296.915 161.949 296.232C162.312 295.539 162.824 295.005 163.485 294.632C164.147 294.259 164.909 294.072 165.773 294.072C166.595 294.072 167.32 294.253 167.949 294.616C168.579 294.979 169.069 295.475 169.421 296.104C169.773 296.733 169.949 297.448 169.949 298.248ZM168.429 298.056C168.429 297.491 168.307 297 168.061 296.584C167.816 296.157 167.48 295.832 167.053 295.608C166.637 295.384 166.173 295.272 165.661 295.272C164.904 295.272 164.269 295.523 163.757 296.024C163.245 296.515 162.963 297.192 162.909 298.056H168.429ZM173.219 295.704C173.741 294.616 174.632 294.072 175.891 294.072V295.592H175.507C174.76 295.592 174.189 295.789 173.795 296.184C173.411 296.568 173.219 297.24 173.219 298.2V303H171.763V294.216H173.219V295.704ZM180.677 294.072C181.626 294.072 182.378 294.323 182.933 294.824C183.488 295.315 183.792 295.992 183.845 296.856H182.341C182.32 296.365 182.154 295.971 181.845 295.672C181.536 295.373 181.109 295.224 180.565 295.224C180.01 295.224 179.573 295.357 179.253 295.624C178.944 295.88 178.789 296.205 178.789 296.6C178.789 296.931 178.885 297.197 179.077 297.4C179.28 297.592 179.525 297.736 179.813 297.832C180.112 297.928 180.512 298.029 181.013 298.136C181.653 298.285 182.165 298.435 182.549 298.584C182.944 298.723 183.28 298.963 183.557 299.304C183.834 299.635 183.973 300.088 183.973 300.664C183.973 301.144 183.834 301.576 183.557 301.96C183.28 302.333 182.89 302.627 182.389 302.84C181.888 303.043 181.312 303.144 180.661 303.144C179.68 303.144 178.89 302.899 178.293 302.408C177.706 301.917 177.386 301.24 177.333 300.376H178.837C178.858 300.867 179.029 301.261 179.349 301.56C179.68 301.848 180.117 301.992 180.661 301.992C181.258 301.992 181.717 301.869 182.037 301.624C182.368 301.379 182.533 301.053 182.533 300.648C182.533 300.317 182.432 300.056 182.229 299.864C182.037 299.661 181.792 299.512 181.493 299.416C181.194 299.309 180.784 299.197 180.261 299.08C179.632 298.941 179.12 298.803 178.725 298.664C178.341 298.515 178.01 298.285 177.733 297.976C177.466 297.667 177.333 297.24 177.333 296.696C177.333 296.216 177.466 295.779 177.733 295.384C178.01 294.979 178.4 294.659 178.901 294.424C179.413 294.189 180.005 294.072 180.677 294.072ZM186.987 301.928C187.126 302.493 187.195 303.011 187.195 303.48C187.195 304.685 186.646 305.288 185.547 305.288V304.584C185.814 304.584 186.006 304.52 186.123 304.392C186.251 304.264 186.315 304.061 186.315 303.784V303.416H185.499V301.928H186.987ZM198.545 294.072C199.334 294.072 200.043 294.259 200.673 294.632C201.313 295.005 201.814 295.533 202.177 296.216C202.55 296.888 202.737 297.667 202.737 298.552C202.737 299.437 202.55 300.232 202.177 300.936C201.814 301.629 201.313 302.173 200.673 302.568C200.043 302.952 199.334 303.144 198.545 303.144C197.798 303.144 197.142 302.968 196.577 302.616C196.022 302.253 195.595 301.784 195.297 301.208V307.16H193.841V294.216H195.297V295.976C195.595 295.411 196.022 294.952 196.577 294.6C197.142 294.248 197.798 294.072 198.545 294.072ZM198.257 295.336C197.734 295.336 197.243 295.469 196.785 295.736C196.337 296.003 195.974 296.387 195.697 296.888C195.43 297.379 195.297 297.955 195.297 298.616C195.297 299.277 195.43 299.859 195.697 300.36C195.974 300.851 196.337 301.229 196.785 301.496C197.243 301.763 197.734 301.896 198.257 301.896C198.779 301.896 199.27 301.763 199.729 301.496C200.187 301.219 200.55 300.824 200.817 300.312C201.094 299.8 201.233 299.213 201.233 298.552C201.233 297.891 201.094 297.32 200.817 296.84C200.55 296.349 200.187 295.976 199.729 295.72C199.281 295.464 198.79 295.336 198.257 295.336ZM206.015 291.16V303H204.559V291.16H206.015ZM216.387 298.248C216.387 298.557 216.365 298.845 216.323 299.112H209.331C209.373 299.987 209.645 300.68 210.147 301.192C210.659 301.693 211.309 301.944 212.099 301.944C212.696 301.944 213.197 301.811 213.603 301.544C214.019 301.277 214.323 300.925 214.515 300.488H216.083C215.805 301.256 215.325 301.891 214.643 302.392C213.971 302.893 213.123 303.144 212.099 303.144C211.277 303.144 210.541 302.957 209.891 302.584C209.251 302.211 208.749 301.683 208.387 301C208.024 300.307 207.843 299.512 207.843 298.616C207.843 297.709 208.024 296.915 208.387 296.232C208.749 295.539 209.261 295.005 209.923 294.632C210.584 294.259 211.347 294.072 212.211 294.072C213.032 294.072 213.757 294.253 214.387 294.616C215.016 294.979 215.507 295.475 215.859 296.104C216.211 296.733 216.387 297.448 216.387 298.248ZM214.867 298.056C214.867 297.491 214.744 297 214.499 296.584C214.253 296.157 213.917 295.832 213.491 295.608C213.075 295.384 212.611 295.272 212.099 295.272C211.341 295.272 210.707 295.523 210.195 296.024C209.683 296.515 209.4 297.192 209.347 298.056H214.867ZM221.816 294.072C222.563 294.072 223.213 294.248 223.768 294.6C224.333 294.952 224.76 295.411 225.048 295.976V294.216H226.52V303H225.048V301.208C224.76 301.784 224.333 302.253 223.768 302.616C223.213 302.968 222.563 303.144 221.816 303.144C221.027 303.144 220.312 302.952 219.672 302.568C219.043 302.173 218.541 301.629 218.168 300.936C217.805 300.232 217.624 299.437 217.624 298.552C217.624 297.667 217.805 296.888 218.168 296.216C218.541 295.533 219.043 295.005 219.672 294.632C220.312 294.259 221.027 294.072 221.816 294.072ZM222.072 295.336C221.549 295.336 221.059 295.464 220.6 295.72C220.152 295.976 219.789 296.349 219.512 296.84C219.245 297.32 219.112 297.891 219.112 298.552C219.112 299.213 219.245 299.8 219.512 300.312C219.789 300.813 220.152 301.203 220.6 301.48C221.059 301.757 221.549 301.896 222.072 301.896C222.605 301.896 223.096 301.763 223.544 301.496C224.003 301.229 224.365 300.851 224.632 300.36C224.909 299.859 225.048 299.277 225.048 298.616C225.048 297.955 224.909 297.379 224.632 296.888C224.365 296.387 224.003 296.003 223.544 295.736C223.096 295.469 222.605 295.336 222.072 295.336ZM231.943 294.072C232.892 294.072 233.644 294.323 234.199 294.824C234.753 295.315 235.057 295.992 235.111 296.856H233.607C233.585 296.365 233.42 295.971 233.111 295.672C232.801 295.373 232.375 295.224 231.831 295.224C231.276 295.224 230.839 295.357 230.519 295.624C230.209 295.88 230.055 296.205 230.055 296.6C230.055 296.931 230.151 297.197 230.343 297.4C230.545 297.592 230.791 297.736 231.079 297.832C231.377 297.928 231.777 298.029 232.279 298.136C232.919 298.285 233.431 298.435 233.815 298.584C234.209 298.723 234.545 298.963 234.823 299.304C235.1 299.635 235.239 300.088 235.239 300.664C235.239 301.144 235.1 301.576 234.823 301.96C234.545 302.333 234.156 302.627 233.655 302.84C233.153 303.043 232.577 303.144 231.927 303.144C230.945 303.144 230.156 302.899 229.559 302.408C228.972 301.917 228.652 301.24 228.599 300.376H230.103C230.124 300.867 230.295 301.261 230.615 301.56C230.945 301.848 231.383 301.992 231.927 301.992C232.524 301.992 232.983 301.869 233.303 301.624C233.633 301.379 233.799 301.053 233.799 300.648C233.799 300.317 233.697 300.056 233.495 299.864C233.303 299.661 233.057 299.512 232.759 299.416C232.46 299.309 232.049 299.197 231.527 299.08C230.897 298.941 230.385 298.803 229.991 298.664C229.607 298.515 229.276 298.285 228.999 297.976C228.732 297.667 228.599 297.24 228.599 296.696C228.599 296.216 228.732 295.779 228.999 295.384C229.276 294.979 229.665 294.659 230.167 294.424C230.679 294.189 231.271 294.072 231.943 294.072ZM245.309 298.248C245.309 298.557 245.287 298.845 245.245 299.112H238.253C238.295 299.987 238.567 300.68 239.069 301.192C239.581 301.693 240.231 301.944 241.021 301.944C241.618 301.944 242.119 301.811 242.525 301.544C242.941 301.277 243.245 300.925 243.437 300.488H245.005C244.727 301.256 244.247 301.891 243.565 302.392C242.893 302.893 242.045 303.144 241.021 303.144C240.199 303.144 239.463 302.957 238.813 302.584C238.173 302.211 237.671 301.683 237.309 301C236.946 300.307 236.765 299.512 236.765 298.616C236.765 297.709 236.946 296.915 237.309 296.232C237.671 295.539 238.183 295.005 238.845 294.632C239.506 294.259 240.269 294.072 241.133 294.072C241.954 294.072 242.679 294.253 243.309 294.616C243.938 294.979 244.429 295.475 244.781 296.104C245.133 296.733 245.309 297.448 245.309 298.248ZM243.789 298.056C243.789 297.491 243.666 297 243.421 296.584C243.175 296.157 242.839 295.832 242.413 295.608C241.997 295.384 241.533 295.272 241.021 295.272C240.263 295.272 239.629 295.523 239.117 296.024C238.605 296.515 238.322 297.192 238.269 298.056H243.789ZM123.864 319.072C124.92 319.072 125.779 319.317 126.44 319.808C127.112 320.299 127.582 320.997 127.848 321.904H126.28C126.11 321.392 125.816 320.992 125.4 320.704C124.984 320.416 124.472 320.272 123.864 320.272C123.032 320.272 122.36 320.565 121.848 321.152C121.347 321.728 121.096 322.549 121.096 323.616C121.096 324.672 121.347 325.493 121.848 326.08C122.36 326.656 123.032 326.944 123.864 326.944C124.483 326.944 124.995 326.805 125.4 326.528C125.806 326.251 126.099 325.845 126.28 325.312H127.848C127.582 326.176 127.107 326.864 126.424 327.376C125.752 327.888 124.899 328.144 123.864 328.144C123.043 328.144 122.307 327.957 121.656 327.584C121.016 327.211 120.515 326.683 120.152 326C119.79 325.307 119.608 324.512 119.608 323.616C119.608 322.709 119.79 321.915 120.152 321.232C120.515 320.539 121.016 320.005 121.656 319.632C122.296 319.259 123.032 319.072 123.864 319.072ZM131.234 320.704C131.757 319.616 132.647 319.072 133.906 319.072V320.592H133.522C132.775 320.592 132.205 320.789 131.81 321.184C131.426 321.568 131.234 322.24 131.234 323.2V328H129.778V319.216H131.234V320.704ZM143.637 323.248C143.637 323.557 143.615 323.845 143.573 324.112H136.581C136.623 324.987 136.895 325.68 137.397 326.192C137.909 326.693 138.559 326.944 139.349 326.944C139.946 326.944 140.447 326.811 140.853 326.544C141.269 326.277 141.573 325.925 141.765 325.488H143.333C143.055 326.256 142.575 326.891 141.893 327.392C141.221 327.893 140.373 328.144 139.349 328.144C138.527 328.144 137.791 327.957 137.141 327.584C136.501 327.211 135.999 326.683 135.637 326C135.274 325.307 135.093 324.512 135.093 323.616C135.093 322.709 135.274 321.915 135.637 321.232C135.999 320.539 136.511 320.005 137.173 319.632C137.834 319.259 138.597 319.072 139.461 319.072C140.282 319.072 141.007 319.253 141.637 319.616C142.266 319.979 142.757 320.475 143.109 321.104C143.461 321.733 143.637 322.448 143.637 323.248ZM142.117 323.056C142.117 322.491 141.994 322 141.749 321.584C141.503 321.157 141.167 320.832 140.741 320.608C140.325 320.384 139.861 320.272 139.349 320.272C138.591 320.272 137.957 320.523 137.445 321.024C136.933 321.515 136.65 322.192 136.597 323.056H142.117ZM149.066 319.072C149.813 319.072 150.463 319.248 151.018 319.6C151.583 319.952 152.01 320.411 152.298 320.976V319.216H153.77V328H152.298V326.208C152.01 326.784 151.583 327.253 151.018 327.616C150.463 327.968 149.813 328.144 149.066 328.144C148.277 328.144 147.562 327.952 146.922 327.568C146.293 327.173 145.791 326.629 145.418 325.936C145.055 325.232 144.874 324.437 144.874 323.552C144.874 322.667 145.055 321.888 145.418 321.216C145.791 320.533 146.293 320.005 146.922 319.632C147.562 319.259 148.277 319.072 149.066 319.072ZM149.322 320.336C148.799 320.336 148.309 320.464 147.85 320.72C147.402 320.976 147.039 321.349 146.762 321.84C146.495 322.32 146.362 322.891 146.362 323.552C146.362 324.213 146.495 324.8 146.762 325.312C147.039 325.813 147.402 326.203 147.85 326.48C148.309 326.757 148.799 326.896 149.322 326.896C149.855 326.896 150.346 326.763 150.794 326.496C151.253 326.229 151.615 325.851 151.882 325.36C152.159 324.859 152.298 324.277 152.298 323.616C152.298 322.955 152.159 322.379 151.882 321.888C151.615 321.387 151.253 321.003 150.794 320.736C150.346 320.469 149.855 320.336 149.322 320.336ZM160.249 326.816V328H158.777C158.03 328 157.459 327.819 157.065 327.456C156.681 327.093 156.489 326.523 156.489 325.744V320.4H155.353V319.216H156.489V317.04H157.961V319.216H160.233V320.4H157.961V325.744C157.961 326.139 158.041 326.416 158.201 326.576C158.361 326.736 158.643 326.816 159.049 326.816H160.249ZM169.824 323.248C169.824 323.557 169.803 323.845 169.76 324.112H162.768C162.811 324.987 163.083 325.68 163.584 326.192C164.096 326.693 164.747 326.944 165.536 326.944C166.134 326.944 166.635 326.811 167.04 326.544C167.456 326.277 167.76 325.925 167.952 325.488H169.52C169.243 326.256 168.763 326.891 168.08 327.392C167.408 327.893 166.56 328.144 165.536 328.144C164.715 328.144 163.979 327.957 163.328 327.584C162.688 327.211 162.187 326.683 161.824 326C161.462 325.307 161.28 324.512 161.28 323.616C161.28 322.709 161.462 321.915 161.824 321.232C162.187 320.539 162.699 320.005 163.36 319.632C164.022 319.259 164.784 319.072 165.648 319.072C166.47 319.072 167.195 319.253 167.824 319.616C168.454 319.979 168.944 320.475 169.296 321.104C169.648 321.733 169.824 322.448 169.824 323.248ZM168.304 323.056C168.304 322.491 168.182 322 167.936 321.584C167.691 321.157 167.355 320.832 166.928 320.608C166.512 320.384 166.048 320.272 165.536 320.272C164.779 320.272 164.144 320.523 163.632 321.024C163.12 321.515 162.838 322.192 162.784 323.056H168.304ZM184.082 319.216V328H182.626V326.592C182.338 327.104 181.944 327.493 181.442 327.76C180.941 328.016 180.381 328.144 179.762 328.144C179.133 328.144 178.557 328.005 178.034 327.728C177.522 327.44 177.112 327.019 176.802 326.464C176.504 325.909 176.354 325.232 176.354 324.432V319.216H177.794V324.192C177.794 325.067 178.008 325.739 178.434 326.208C178.872 326.667 179.464 326.896 180.21 326.896C180.957 326.896 181.544 326.667 181.97 326.208C182.408 325.739 182.626 325.067 182.626 324.192V319.216H184.082ZM189.505 319.072C190.455 319.072 191.207 319.323 191.761 319.824C192.316 320.315 192.62 320.992 192.673 321.856H191.169C191.148 321.365 190.983 320.971 190.673 320.672C190.364 320.373 189.937 320.224 189.393 320.224C188.839 320.224 188.401 320.357 188.081 320.624C187.772 320.88 187.617 321.205 187.617 321.6C187.617 321.931 187.713 322.197 187.905 322.4C188.108 322.592 188.353 322.736 188.641 322.832C188.94 322.928 189.34 323.029 189.841 323.136C190.481 323.285 190.993 323.435 191.377 323.584C191.772 323.723 192.108 323.963 192.385 324.304C192.663 324.635 192.801 325.088 192.801 325.664C192.801 326.144 192.663 326.576 192.385 326.96C192.108 327.333 191.719 327.627 191.217 327.84C190.716 328.043 190.14 328.144 189.489 328.144C188.508 328.144 187.719 327.899 187.121 327.408C186.535 326.917 186.215 326.24 186.161 325.376H187.665C187.687 325.867 187.857 326.261 188.177 326.56C188.508 326.848 188.945 326.992 189.489 326.992C190.087 326.992 190.545 326.869 190.865 326.624C191.196 326.379 191.361 326.053 191.361 325.648C191.361 325.317 191.26 325.056 191.057 324.864C190.865 324.661 190.62 324.512 190.321 324.416C190.023 324.309 189.612 324.197 189.089 324.08C188.46 323.941 187.948 323.803 187.553 323.664C187.169 323.515 186.839 323.285 186.561 322.976C186.295 322.667 186.161 322.24 186.161 321.696C186.161 321.216 186.295 320.779 186.561 320.384C186.839 319.979 187.228 319.659 187.729 319.424C188.241 319.189 188.833 319.072 189.505 319.072ZM202.871 323.248C202.871 323.557 202.85 323.845 202.807 324.112H195.815C195.858 324.987 196.13 325.68 196.631 326.192C197.143 326.693 197.794 326.944 198.583 326.944C199.18 326.944 199.682 326.811 200.087 326.544C200.503 326.277 200.807 325.925 200.999 325.488H202.567C202.29 326.256 201.81 326.891 201.127 327.392C200.455 327.893 199.607 328.144 198.583 328.144C197.762 328.144 197.026 327.957 196.375 327.584C195.735 327.211 195.234 326.683 194.871 326C194.508 325.307 194.327 324.512 194.327 323.616C194.327 322.709 194.508 321.915 194.871 321.232C195.234 320.539 195.746 320.005 196.407 319.632C197.068 319.259 197.831 319.072 198.695 319.072C199.516 319.072 200.242 319.253 200.871 319.616C201.5 319.979 201.991 320.475 202.343 321.104C202.695 321.733 202.871 322.448 202.871 323.248ZM201.351 323.056C201.351 322.491 201.228 322 200.983 321.584C200.738 321.157 200.402 320.832 199.975 320.608C199.559 320.384 199.095 320.272 198.583 320.272C197.826 320.272 197.191 320.523 196.679 321.024C196.167 321.515 195.884 322.192 195.831 323.056H201.351ZM206.14 320.704C206.663 319.616 207.554 319.072 208.812 319.072V320.592H208.428C207.682 320.592 207.111 320.789 206.716 321.184C206.332 321.568 206.14 322.24 206.14 323.2V328H204.684V319.216H206.14V320.704ZM213.599 319.072C214.548 319.072 215.3 319.323 215.855 319.824C216.41 320.315 216.714 320.992 216.767 321.856H215.263C215.242 321.365 215.076 320.971 214.767 320.672C214.458 320.373 214.031 320.224 213.487 320.224C212.932 320.224 212.495 320.357 212.175 320.624C211.866 320.88 211.711 321.205 211.711 321.6C211.711 321.931 211.807 322.197 211.999 322.4C212.202 322.592 212.447 322.736 212.735 322.832C213.034 322.928 213.434 323.029 213.935 323.136C214.575 323.285 215.087 323.435 215.471 323.584C215.866 323.723 216.202 323.963 216.479 324.304C216.756 324.635 216.895 325.088 216.895 325.664C216.895 326.144 216.756 326.576 216.479 326.96C216.202 327.333 215.812 327.627 215.311 327.84C214.81 328.043 214.234 328.144 213.583 328.144C212.602 328.144 211.812 327.899 211.215 327.408C210.628 326.917 210.308 326.24 210.255 325.376H211.759C211.78 325.867 211.951 326.261 212.271 326.56C212.602 326.848 213.039 326.992 213.583 326.992C214.18 326.992 214.639 326.869 214.959 326.624C215.29 326.379 215.455 326.053 215.455 325.648C215.455 325.317 215.354 325.056 215.151 324.864C214.959 324.661 214.714 324.512 214.415 324.416C214.116 324.309 213.706 324.197 213.183 324.08C212.554 323.941 212.042 323.803 211.647 323.664C211.263 323.515 210.932 323.285 210.655 322.976C210.388 322.667 210.255 322.24 210.255 321.696C210.255 321.216 210.388 320.779 210.655 320.384C210.932 319.979 211.322 319.659 211.823 319.424C212.335 319.189 212.927 319.072 213.599 319.072ZM218.677 327.072C218.677 326.805 218.768 326.581 218.949 326.4C219.13 326.219 219.349 326.128 219.605 326.128C219.861 326.128 220.08 326.219 220.261 326.4C220.442 326.581 220.533 326.805 220.533 327.072C220.533 327.328 220.442 327.547 220.261 327.728C220.08 327.909 219.861 328 219.605 328C219.349 328 219.13 327.909 218.949 327.728C218.768 327.547 218.677 327.328 218.677 327.072ZM222.286 327.072C222.286 326.805 222.377 326.581 222.558 326.4C222.74 326.219 222.958 326.128 223.214 326.128C223.47 326.128 223.689 326.219 223.87 326.4C224.052 326.581 224.142 326.805 224.142 327.072C224.142 327.328 224.052 327.547 223.87 327.728C223.689 327.909 223.47 328 223.214 328C222.958 328 222.74 327.909 222.558 327.728C222.377 327.547 222.286 327.328 222.286 327.072Z" fill="black"/>
<defs>
<clipPath id="clip0_577_602">
<rect width="288" height="252" fill="white"/>
</clipPath>
</defs>
</svg>
