<svg width="22" height="22" viewBox="0 0 22 22" fill="none" xmlns="http://www.w3.org/2000/svg">
<path d="M2.74963 5.5H4.58297H19.2496" stroke="#FF0000" stroke-width="1.83333" stroke-linecap="round" stroke-linejoin="round"/>
<path d="M17.4159 5.49992V18.3333C17.4159 18.8195 17.2227 19.2858 16.8789 19.6296C16.5351 19.9734 16.0687 20.1666 15.5825 20.1666H6.41585C5.92962 20.1666 5.46331 19.9734 5.11949 19.6296C4.77567 19.2858 4.58252 18.8195 4.58252 18.3333V5.49992M7.33252 5.49992V3.66659C7.33252 3.18036 7.52567 2.71404 7.86949 2.37022C8.21331 2.02641 8.67962 1.83325 9.16585 1.83325H12.8325C13.3187 1.83325 13.7851 2.02641 14.1289 2.37022C14.4727 2.71404 14.6659 3.18036 14.6659 3.66659V5.49992" stroke="#FF0000" stroke-width="1.83333" stroke-linecap="round" stroke-linejoin="round"/>
<path d="M9.16663 10.0833V15.5833" stroke="#FF0000" stroke-width="1.83333" stroke-linecap="round" stroke-linejoin="round"/>
<path d="M12.8324 10.0833V15.5833" stroke="#FF0000" stroke-width="1.83333" stroke-linecap="round" stroke-linejoin="round"/>
</svg>
