<svg width="22" height="22" viewBox="0 0 22 22" fill="none" xmlns="http://www.w3.org/2000/svg">
<g clip-path="url(#clip0_565_714)">
<path d="M10.0829 3.66675H3.66622C3.17999 3.66675 2.71367 3.8599 2.36986 4.20372C2.02604 4.54754 1.83289 5.01385 1.83289 5.50008V18.3334C1.83289 18.8196 2.02604 19.286 2.36986 19.6298C2.71367 19.9736 3.17999 20.1667 3.66622 20.1667H16.4996C16.9858 20.1667 17.4521 19.9736 17.7959 19.6298C18.1397 19.286 18.3329 18.8196 18.3329 18.3334V11.9167" stroke="black" stroke-width="1.83333" stroke-linecap="round" stroke-linejoin="round"/>
<path d="M16.9578 2.29171C17.3224 1.92704 17.817 1.72217 18.3328 1.72217C18.8485 1.72217 19.3431 1.92704 19.7078 2.29171C20.0724 2.65638 20.2773 3.15099 20.2773 3.66671C20.2773 4.18244 20.0724 4.67704 19.7078 5.04171L10.9994 13.75L7.33276 14.6667L8.24943 11L16.9578 2.29171Z" stroke="black" stroke-width="1.83333" stroke-linecap="round" stroke-linejoin="round"/>
</g>
<defs>
<clipPath id="clip0_565_714">
<rect width="22" height="22" fill="white"/>
</clipPath>
</defs>
</svg>
