<svg width="22" height="19" viewBox="0 0 22 19" fill="none" xmlns="http://www.w3.org/2000/svg">
<path d="M16 18V16C16 14.9391 15.6049 13.9217 14.9017 13.1716C14.1984 12.4214 13.2446 12 12.25 12H4.75C3.75544 12 2.80161 12.4214 2.09835 13.1716C1.39509 13.9217 1 14.9391 1 16V18" stroke="#DE0C0C" stroke-width="2" stroke-linecap="round" stroke-linejoin="round"/>
<path d="M8.5 8C10.433 8 12 6.433 12 4.5C12 2.567 10.433 1 8.5 1C6.567 1 5 2.567 5 4.5C5 6.433 6.567 8 8.5 8Z" stroke="#DE0C0C" stroke-width="2" stroke-linecap="round" stroke-linejoin="round"/>
<path d="M21 18V15.9557C20.9993 15.0498 20.7044 14.1698 20.1614 13.4538C19.6184 12.7378 18.8581 12.2265 18 12" stroke="#DE0C0C" stroke-width="2" stroke-linecap="round" stroke-linejoin="round"/>
<path d="M15 1C15.5721 1.19898 16.0792 1.65096 16.4413 2.28467C16.8034 2.91838 17 3.69778 17 4.5C17 5.30222 16.8034 6.08162 16.4413 6.71533C16.0792 7.34904 15.5721 7.80102 15 8" stroke="#DE0C0C" stroke-width="2" stroke-linecap="round" stroke-linejoin="round"/>
</svg>
