<svg width="25" height="29" viewBox="0 0 25 29" fill="none" xmlns="http://www.w3.org/2000/svg">
<path d="M12.675 0C10.6816 0 9.05 1.63156 9.05 3.625C9.05 4.44187 9.33133 5.19207 9.79199 5.8V5.80283C9.78605 5.8027 9.78097 5.8 9.775 5.8H2.525C1.32378 5.8 0.349998 6.77378 0.349998 7.975C0.349998 9.17622 1.32378 10.15 2.525 10.15H9.05V26.825C9.05 28.0262 10.0238 29 11.225 29H14.125C15.3262 29 16.3 28.0262 16.3 26.825V26.1H14.85V26.825C14.85 27.2254 14.5254 27.55 14.125 27.55H13.4V26.1H11.95V27.55H11.225C10.8246 27.55 10.5 27.2254 10.5 26.825V26.1V21.75V9.425C10.5 9.02459 10.1754 8.7 9.775 8.7H2.525C2.12459 8.7 1.8 8.37541 1.8 7.975C1.8 7.57459 2.12459 7.25 2.525 7.25H9.775C9.78094 7.25 9.78602 7.24731 9.79199 7.24717V7.25C10.5928 7.25 11.242 6.60081 11.242 5.8C11.2412 5.48497 11.1385 5.17827 10.9078 4.86826C10.6771 4.55825 10.5 4.12057 10.5 3.625C10.5 2.41519 11.4652 1.45 12.675 1.45C13.8848 1.45 14.85 2.41519 14.85 3.625C14.85 4.12057 14.6729 4.55825 14.4422 4.86826C14.2114 5.17827 14.1088 5.48497 14.108 5.8C14.108 6.60081 14.7572 7.25 15.558 7.25H15.575C16.7848 7.25 17.75 8.21519 17.75 9.425V15.225C17.75 16.1786 17.1465 16.973 16.3 17.2697V10.875C16.3 10.4746 15.9754 10.15 15.575 10.15C15.1746 10.15 14.85 10.4746 14.85 10.875V17.4H18.458C18.9187 16.792 19.2 16.0419 19.2 15.225V9.425C19.2 7.43155 17.5684 5.8 15.575 5.8H15.558C16.0187 5.19207 16.3 4.44187 16.3 3.625C16.3 1.63156 14.6684 0 12.675 0ZM12.675 17.4C12.2746 17.4 11.95 17.7246 11.95 18.125V21.75H13.4V18.125C13.4 17.7246 13.0754 17.4 12.675 17.4ZM14.85 18.0004V21.75H16.3V19.4504L14.85 18.0004ZM17.75 18.85L22.1 23.2H11.95V24.65H22.1L17.75 29H19.925L25 23.925L19.925 18.85H17.75Z" fill="#DE0C0C"/>
</svg>
