<svg width="258" height="281" viewBox="0 0 258 281" fill="none" xmlns="http://www.w3.org/2000/svg">
<path d="M163.621 22.35C179.838 26.2566 203.069 25.797 214.903 35.6783C226.519 45.7895 226.519 66.2415 222.793 85.5446C219.286 104.618 211.835 122.772 199.562 134.951C187.29 147.131 170.415 153.565 154.197 154.714C137.98 156.093 122.639 152.186 105.545 149.429C88.2313 146.671 69.1648 145.062 55.358 134.951C41.332 124.84 32.785 106.226 33.0041 88.3022C33.0041 70.1481 41.9895 52.4536 51.6323 37.0571C61.2752 21.6606 71.7947 8.79192 84.7248 3.27676C97.655 -2.2384 113.215 -0.170217 125.707 4.88535C137.98 10.1707 147.184 18.4435 163.621 22.35Z" fill="#F66464"/>
<rect y="137" width="258" height="144" rx="28" fill="#EFEDED"/>
<path d="M53.6411 176.416C53.6411 175.328 53.8865 174.352 54.3771 173.488C54.8678 172.613 55.5345 171.931 56.3771 171.44C57.2305 170.949 58.1745 170.704 59.2091 170.704C60.4251 170.704 61.4865 170.997 62.3931 171.584C63.2998 172.171 63.9611 173.003 64.3771 174.08H62.6331C62.3238 173.408 61.8758 172.891 61.2891 172.528C60.7131 172.165 60.0198 171.984 59.2091 171.984C58.4305 171.984 57.7318 172.165 57.1131 172.528C56.4945 172.891 56.0091 173.408 55.6571 174.08C55.3051 174.741 55.1291 175.52 55.1291 176.416C55.1291 177.301 55.3051 178.08 55.6571 178.752C56.0091 179.413 56.4945 179.925 57.1131 180.288C57.7318 180.651 58.4305 180.832 59.2091 180.832C60.0198 180.832 60.7131 180.656 61.2891 180.304C61.8758 179.941 62.3238 179.424 62.6331 178.752H64.3771C63.9611 179.819 63.2998 180.645 62.3931 181.232C61.4865 181.808 60.4251 182.096 59.2091 182.096C58.1745 182.096 57.2305 181.856 56.3771 181.376C55.5345 180.885 54.8678 180.208 54.3771 179.344C53.8865 178.48 53.6411 177.504 53.6411 176.416ZM74.3205 173.232V182H72.8645V180.704C72.5872 181.152 72.1978 181.504 71.6965 181.76C71.2058 182.005 70.6618 182.128 70.0645 182.128C69.3818 182.128 68.7685 181.989 68.2245 181.712C67.6805 181.424 67.2485 180.997 66.9285 180.432C66.6192 179.867 66.4645 179.179 66.4645 178.368V173.232H67.9045V178.176C67.9045 179.04 68.1232 179.707 68.5605 180.176C68.9978 180.635 69.5952 180.864 70.3525 180.864C71.1312 180.864 71.7445 180.624 72.1925 180.144C72.6405 179.664 72.8645 178.965 72.8645 178.048V173.232H74.3205ZM78.2349 174.656C78.4909 174.155 78.8535 173.765 79.3229 173.488C79.8029 173.211 80.3842 173.072 81.0669 173.072V174.576H80.6829C79.0509 174.576 78.2349 175.461 78.2349 177.232V182H76.7789V173.232H78.2349V174.656ZM84.2036 174.656C84.4596 174.155 84.8223 173.765 85.2916 173.488C85.7716 173.211 86.353 173.072 87.0356 173.072V174.576H86.6516C85.0196 174.576 84.2036 175.461 84.2036 177.232V182H82.7476V173.232H84.2036V174.656ZM96.7164 177.28C96.7164 177.557 96.7004 177.851 96.6684 178.16H89.6604C89.7137 179.024 90.007 179.701 90.5404 180.192C91.0844 180.672 91.7404 180.912 92.5084 180.912C93.1377 180.912 93.6604 180.768 94.0764 180.48C94.503 180.181 94.8017 179.787 94.9724 179.296H96.5404C96.3057 180.139 95.8364 180.827 95.1324 181.36C94.4284 181.883 93.5537 182.144 92.5084 182.144C91.6764 182.144 90.9297 181.957 90.2684 181.584C89.6177 181.211 89.1057 180.683 88.7324 180C88.359 179.307 88.1724 178.507 88.1724 177.6C88.1724 176.693 88.3537 175.899 88.7164 175.216C89.079 174.533 89.5857 174.011 90.2364 173.648C90.8977 173.275 91.655 173.088 92.5084 173.088C93.3404 173.088 94.0764 173.269 94.7164 173.632C95.3564 173.995 95.847 174.496 96.1884 175.136C96.5404 175.765 96.7164 176.48 96.7164 177.28ZM95.2124 176.976C95.2124 176.421 95.0897 175.947 94.8444 175.552C94.599 175.147 94.263 174.843 93.8364 174.64C93.4204 174.427 92.9564 174.32 92.4444 174.32C91.7084 174.32 91.079 174.555 90.5564 175.024C90.0444 175.493 89.751 176.144 89.6764 176.976H95.2124ZM102.91 173.072C103.977 173.072 104.841 173.397 105.502 174.048C106.164 174.688 106.494 175.616 106.494 176.832V182H105.054V177.04C105.054 176.165 104.836 175.499 104.398 175.04C103.961 174.571 103.364 174.336 102.606 174.336C101.838 174.336 101.225 174.576 100.766 175.056C100.318 175.536 100.094 176.235 100.094 177.152V182H98.6383V173.232H100.094V174.48C100.382 174.032 100.772 173.685 101.262 173.44C101.764 173.195 102.313 173.072 102.91 173.072ZM110.649 174.432V179.6C110.649 180.027 110.739 180.331 110.921 180.512C111.102 180.683 111.417 180.768 111.865 180.768H112.937V182H111.625C110.814 182 110.206 181.813 109.801 181.44C109.395 181.067 109.193 180.453 109.193 179.6V174.432H108.057V173.232H109.193V171.024H110.649V173.232H112.937V174.432H110.649ZM116.157 170.16V182H114.701V170.16H116.157ZM126.19 173.232L120.91 186.128H119.406L121.134 181.904L117.598 173.232H119.214L121.966 180.336L124.686 173.232H126.19ZM139.472 173.232L134.192 186.128H132.688L134.416 181.904L130.88 173.232H132.496L135.248 180.336L137.968 173.232H139.472ZM144.759 182.144C143.938 182.144 143.191 181.957 142.519 181.584C141.858 181.211 141.335 180.683 140.951 180C140.578 179.307 140.391 178.507 140.391 177.6C140.391 176.704 140.583 175.915 140.967 175.232C141.362 174.539 141.895 174.011 142.567 173.648C143.239 173.275 143.991 173.088 144.823 173.088C145.655 173.088 146.407 173.275 147.079 173.648C147.751 174.011 148.279 174.533 148.663 175.216C149.058 175.899 149.255 176.693 149.255 177.6C149.255 178.507 149.052 179.307 148.647 180C148.252 180.683 147.714 181.211 147.031 181.584C146.348 181.957 145.591 182.144 144.759 182.144ZM144.759 180.864C145.282 180.864 145.772 180.741 146.231 180.496C146.69 180.251 147.058 179.883 147.335 179.392C147.623 178.901 147.767 178.304 147.767 177.6C147.767 176.896 147.628 176.299 147.351 175.808C147.074 175.317 146.711 174.955 146.263 174.72C145.815 174.475 145.33 174.352 144.807 174.352C144.274 174.352 143.783 174.475 143.335 174.72C142.898 174.955 142.546 175.317 142.279 175.808C142.012 176.299 141.879 176.896 141.879 177.6C141.879 178.315 142.007 178.917 142.263 179.408C142.53 179.899 142.882 180.267 143.319 180.512C143.756 180.747 144.236 180.864 144.759 180.864ZM158.946 173.232V182H157.49V180.704C157.212 181.152 156.823 181.504 156.322 181.76C155.831 182.005 155.287 182.128 154.69 182.128C154.007 182.128 153.394 181.989 152.85 181.712C152.306 181.424 151.874 180.997 151.554 180.432C151.244 179.867 151.09 179.179 151.09 178.368V173.232H152.53V178.176C152.53 179.04 152.748 179.707 153.186 180.176C153.623 180.635 154.22 180.864 154.978 180.864C155.756 180.864 156.37 180.624 156.818 180.144C157.266 179.664 157.49 178.965 157.49 178.048V173.232H158.946ZM165.126 177.584C165.126 176.688 165.307 175.904 165.67 175.232C166.032 174.549 166.528 174.021 167.158 173.648C167.798 173.275 168.512 173.088 169.302 173.088C169.984 173.088 170.619 173.248 171.206 173.568C171.792 173.877 172.24 174.288 172.55 174.8V170.16H174.022V182H172.55V180.352C172.262 180.875 171.835 181.307 171.27 181.648C170.704 181.979 170.043 182.144 169.286 182.144C168.507 182.144 167.798 181.952 167.158 181.568C166.528 181.184 166.032 180.645 165.67 179.952C165.307 179.259 165.126 178.469 165.126 177.584ZM172.55 177.6C172.55 176.939 172.416 176.363 172.15 175.872C171.883 175.381 171.52 175.008 171.062 174.752C170.614 174.485 170.118 174.352 169.574 174.352C169.03 174.352 168.534 174.48 168.086 174.736C167.638 174.992 167.28 175.365 167.014 175.856C166.747 176.347 166.614 176.923 166.614 177.584C166.614 178.256 166.747 178.843 167.014 179.344C167.28 179.835 167.638 180.213 168.086 180.48C168.534 180.736 169.03 180.864 169.574 180.864C170.118 180.864 170.614 180.736 171.062 180.48C171.52 180.213 171.883 179.835 172.15 179.344C172.416 178.843 172.55 178.261 172.55 177.6ZM180.306 182.144C179.485 182.144 178.738 181.957 178.066 181.584C177.405 181.211 176.882 180.683 176.498 180C176.125 179.307 175.938 178.507 175.938 177.6C175.938 176.704 176.13 175.915 176.514 175.232C176.909 174.539 177.442 174.011 178.114 173.648C178.786 173.275 179.538 173.088 180.37 173.088C181.202 173.088 181.954 173.275 182.626 173.648C183.298 174.011 183.826 174.533 184.21 175.216C184.605 175.899 184.802 176.693 184.802 177.6C184.802 178.507 184.599 179.307 184.194 180C183.799 180.683 183.261 181.211 182.578 181.584C181.895 181.957 181.138 182.144 180.306 182.144ZM180.306 180.864C180.829 180.864 181.319 180.741 181.778 180.496C182.237 180.251 182.605 179.883 182.882 179.392C183.17 178.901 183.314 178.304 183.314 177.6C183.314 176.896 183.175 176.299 182.898 175.808C182.621 175.317 182.258 174.955 181.81 174.72C181.362 174.475 180.877 174.352 180.354 174.352C179.821 174.352 179.33 174.475 178.882 174.72C178.445 174.955 178.093 175.317 177.826 175.808C177.559 176.299 177.426 176.896 177.426 177.6C177.426 178.315 177.554 178.917 177.81 179.408C178.077 179.899 178.429 180.267 178.866 180.512C179.303 180.747 179.783 180.864 180.306 180.864ZM190.988 173.072C192.055 173.072 192.919 173.397 193.58 174.048C194.242 174.688 194.572 175.616 194.572 176.832V182H193.132V177.04C193.132 176.165 192.914 175.499 192.476 175.04C192.039 174.571 191.442 174.336 190.684 174.336C189.916 174.336 189.303 174.576 188.844 175.056C188.396 175.536 188.172 176.235 188.172 177.152V182H186.716V173.232H188.172V174.48C188.46 174.032 188.85 173.685 189.34 173.44C189.842 173.195 190.391 173.072 190.988 173.072ZM197.175 170.848H198.791L197.255 174.48H196.231L197.175 170.848ZM202.227 174.432V179.6C202.227 180.027 202.317 180.331 202.499 180.512C202.68 180.683 202.995 180.768 203.443 180.768H204.515V182H203.203C202.392 182 201.784 181.813 201.379 181.44C200.973 181.067 200.771 180.453 200.771 179.6V174.432H199.635V173.232H200.771V171.024H202.227V173.232H204.515V174.432H202.227ZM45.1231 197.072C45.7844 197.072 46.3817 197.216 46.9151 197.504C47.4484 197.781 47.8644 198.203 48.1631 198.768C48.4724 199.333 48.6271 200.021 48.6271 200.832V206H47.1871V201.04C47.1871 200.165 46.9684 199.499 46.5311 199.04C46.0937 198.571 45.4964 198.336 44.7391 198.336C43.9711 198.336 43.3577 198.576 42.8991 199.056C42.4511 199.536 42.2271 200.235 42.2271 201.152V206H40.7711V194.16H42.2271V198.48C42.5151 198.032 42.9097 197.685 43.4111 197.44C43.9231 197.195 44.4937 197.072 45.1231 197.072ZM50.4614 201.584C50.4614 200.688 50.6428 199.904 51.0054 199.232C51.3681 198.549 51.8641 198.021 52.4934 197.648C53.1334 197.275 53.8428 197.088 54.6214 197.088C55.3894 197.088 56.0561 197.253 56.6214 197.584C57.1868 197.915 57.6081 198.331 57.8854 198.832V197.232H59.3574V206H57.8854V204.368C57.5974 204.88 57.1654 205.307 56.5894 205.648C56.0241 205.979 55.3628 206.144 54.6054 206.144C53.8268 206.144 53.1228 205.952 52.4934 205.568C51.8641 205.184 51.3681 204.645 51.0054 203.952C50.6428 203.259 50.4614 202.469 50.4614 201.584ZM57.8854 201.6C57.8854 200.939 57.7521 200.363 57.4854 199.872C57.2188 199.381 56.8561 199.008 56.3974 198.752C55.9494 198.485 55.4534 198.352 54.9094 198.352C54.3654 198.352 53.8694 198.48 53.4214 198.736C52.9734 198.992 52.6161 199.365 52.3494 199.856C52.0828 200.347 51.9494 200.923 51.9494 201.584C51.9494 202.256 52.0828 202.843 52.3494 203.344C52.6161 203.835 52.9734 204.213 53.4214 204.48C53.8694 204.736 54.3654 204.864 54.9094 204.864C55.4534 204.864 55.9494 204.736 56.3974 204.48C56.8561 204.213 57.2188 203.835 57.4854 203.344C57.7521 202.843 57.8854 202.261 57.8854 201.6ZM65.0819 204.656L67.8019 197.232H69.3539L65.9139 206H64.2179L60.7779 197.232H62.3459L65.0819 204.656ZM78.7867 201.28C78.7867 201.557 78.7707 201.851 78.7387 202.16H71.7307C71.784 203.024 72.0774 203.701 72.6107 204.192C73.1547 204.672 73.8107 204.912 74.5787 204.912C75.208 204.912 75.7307 204.768 76.1467 204.48C76.5734 204.181 76.872 203.787 77.0427 203.296H78.6107C78.376 204.139 77.9067 204.827 77.2027 205.36C76.4987 205.883 75.624 206.144 74.5787 206.144C73.7467 206.144 73 205.957 72.3387 205.584C71.688 205.211 71.176 204.683 70.8027 204C70.4294 203.307 70.2427 202.507 70.2427 201.6C70.2427 200.693 70.424 199.899 70.7867 199.216C71.1494 198.533 71.656 198.011 72.3067 197.648C72.968 197.275 73.7254 197.088 74.5787 197.088C75.4107 197.088 76.1467 197.269 76.7867 197.632C77.4267 197.995 77.9174 198.496 78.2587 199.136C78.6107 199.765 78.7867 200.48 78.7867 201.28ZM77.2827 200.976C77.2827 200.421 77.16 199.947 76.9147 199.552C76.6694 199.147 76.3334 198.843 75.9067 198.64C75.4907 198.427 75.0267 198.32 74.5147 198.32C73.7787 198.32 73.1494 198.555 72.6267 199.024C72.1147 199.493 71.8214 200.144 71.7467 200.976H77.2827ZM86.4302 194.16V206H84.9742V194.16H86.4302ZM88.3677 201.584C88.3677 200.688 88.549 199.904 88.9117 199.232C89.2744 198.549 89.7704 198.021 90.3997 197.648C91.0397 197.275 91.749 197.088 92.5277 197.088C93.2957 197.088 93.9624 197.253 94.5277 197.584C95.093 197.915 95.5144 198.331 95.7917 198.832V197.232H97.2637V206H95.7917V204.368C95.5037 204.88 95.0717 205.307 94.4957 205.648C93.9304 205.979 93.269 206.144 92.5117 206.144C91.733 206.144 91.029 205.952 90.3997 205.568C89.7704 205.184 89.2744 204.645 88.9117 203.952C88.549 203.259 88.3677 202.469 88.3677 201.584ZM95.7917 201.6C95.7917 200.939 95.6584 200.363 95.3917 199.872C95.125 199.381 94.7624 199.008 94.3037 198.752C93.8557 198.485 93.3597 198.352 92.8157 198.352C92.2717 198.352 91.7757 198.48 91.3277 198.736C90.8797 198.992 90.5224 199.365 90.2557 199.856C89.989 200.347 89.8557 200.923 89.8557 201.584C89.8557 202.256 89.989 202.843 90.2557 203.344C90.5224 203.835 90.8797 204.213 91.3277 204.48C91.7757 204.736 92.2717 204.864 92.8157 204.864C93.3597 204.864 93.8557 204.736 94.3037 204.48C94.7624 204.213 95.125 203.835 95.3917 203.344C95.6584 202.843 95.7917 202.261 95.7917 201.6ZM101.18 198.864C101.479 198.341 101.916 197.915 102.492 197.584C103.068 197.253 103.724 197.088 104.46 197.088C105.25 197.088 105.959 197.275 106.588 197.648C107.218 198.021 107.714 198.549 108.076 199.232C108.439 199.904 108.62 200.688 108.62 201.584C108.62 202.469 108.439 203.259 108.076 203.952C107.714 204.645 107.212 205.184 106.572 205.568C105.943 205.952 105.239 206.144 104.46 206.144C103.703 206.144 103.036 205.979 102.46 205.648C101.895 205.317 101.468 204.896 101.18 204.384V206H99.7242V194.16H101.18V198.864ZM107.132 201.584C107.132 200.923 106.999 200.347 106.732 199.856C106.466 199.365 106.103 198.992 105.644 198.736C105.196 198.48 104.7 198.352 104.156 198.352C103.623 198.352 103.127 198.485 102.668 198.752C102.22 199.008 101.858 199.387 101.58 199.888C101.314 200.379 101.18 200.949 101.18 201.6C101.18 202.261 101.314 202.843 101.58 203.344C101.858 203.835 102.22 204.213 102.668 204.48C103.127 204.736 103.623 204.864 104.156 204.864C104.7 204.864 105.196 204.736 105.644 204.48C106.103 204.213 106.466 203.835 106.732 203.344C106.999 202.843 107.132 202.256 107.132 201.584ZM114.361 206.144C113.539 206.144 112.793 205.957 112.121 205.584C111.459 205.211 110.937 204.683 110.553 204C110.179 203.307 109.993 202.507 109.993 201.6C109.993 200.704 110.185 199.915 110.569 199.232C110.963 198.539 111.497 198.011 112.169 197.648C112.841 197.275 113.593 197.088 114.425 197.088C115.257 197.088 116.009 197.275 116.681 197.648C117.353 198.011 117.881 198.533 118.265 199.216C118.659 199.899 118.857 200.693 118.857 201.6C118.857 202.507 118.654 203.307 118.249 204C117.854 204.683 117.315 205.211 116.633 205.584C115.95 205.957 115.193 206.144 114.361 206.144ZM114.361 204.864C114.883 204.864 115.374 204.741 115.833 204.496C116.291 204.251 116.659 203.883 116.937 203.392C117.225 202.901 117.369 202.304 117.369 201.6C117.369 200.896 117.23 200.299 116.953 199.808C116.675 199.317 116.313 198.955 115.865 198.72C115.417 198.475 114.931 198.352 114.409 198.352C113.875 198.352 113.385 198.475 112.937 198.72C112.499 198.955 112.147 199.317 111.881 199.808C111.614 200.299 111.481 200.896 111.481 201.6C111.481 202.315 111.609 202.917 111.865 203.408C112.131 203.899 112.483 204.267 112.921 204.512C113.358 204.747 113.838 204.864 114.361 204.864ZM122.227 198.656C122.483 198.155 122.846 197.765 123.315 197.488C123.795 197.211 124.376 197.072 125.059 197.072V198.576H124.675C123.043 198.576 122.227 199.461 122.227 201.232V206H120.771V197.232H122.227V198.656ZM130.461 201.6C130.461 200.693 130.643 199.904 131.005 199.232C131.368 198.549 131.869 198.021 132.509 197.648C133.16 197.275 133.901 197.088 134.733 197.088C135.811 197.088 136.696 197.349 137.389 197.872C138.093 198.395 138.557 199.12 138.781 200.048H137.213C137.064 199.515 136.771 199.093 136.333 198.784C135.907 198.475 135.373 198.32 134.733 198.32C133.901 198.32 133.229 198.608 132.717 199.184C132.205 199.749 131.949 200.555 131.949 201.6C131.949 202.656 132.205 203.472 132.717 204.048C133.229 204.624 133.901 204.912 134.733 204.912C135.373 204.912 135.907 204.763 136.333 204.464C136.76 204.165 137.053 203.739 137.213 203.184H138.781C138.547 204.08 138.077 204.8 137.373 205.344C136.669 205.877 135.789 206.144 134.733 206.144C133.901 206.144 133.16 205.957 132.509 205.584C131.869 205.211 131.368 204.683 131.005 204C130.643 203.317 130.461 202.517 130.461 201.6ZM140.18 201.584C140.18 200.688 140.362 199.904 140.724 199.232C141.087 198.549 141.583 198.021 142.212 197.648C142.852 197.275 143.562 197.088 144.34 197.088C145.108 197.088 145.775 197.253 146.34 197.584C146.906 197.915 147.327 198.331 147.604 198.832V197.232H149.076V206H147.604V204.368C147.316 204.88 146.884 205.307 146.308 205.648C145.743 205.979 145.082 206.144 144.324 206.144C143.546 206.144 142.842 205.952 142.212 205.568C141.583 205.184 141.087 204.645 140.724 203.952C140.362 203.259 140.18 202.469 140.18 201.584ZM147.604 201.6C147.604 200.939 147.471 200.363 147.204 199.872C146.938 199.381 146.575 199.008 146.116 198.752C145.668 198.485 145.172 198.352 144.628 198.352C144.084 198.352 143.588 198.48 143.14 198.736C142.692 198.992 142.335 199.365 142.068 199.856C141.802 200.347 141.668 200.923 141.668 201.584C141.668 202.256 141.802 202.843 142.068 203.344C142.335 203.835 142.692 204.213 143.14 204.48C143.588 204.736 144.084 204.864 144.628 204.864C145.172 204.864 145.668 204.736 146.116 204.48C146.575 204.213 146.938 203.835 147.204 203.344C147.471 202.843 147.604 202.261 147.604 201.6ZM153.313 198.432V203.6C153.313 204.027 153.403 204.331 153.585 204.512C153.766 204.683 154.081 204.768 154.529 204.768H155.601V206H154.289C153.478 206 152.87 205.813 152.465 205.44C152.059 205.067 151.857 204.453 151.857 203.6V198.432H150.721V197.232H151.857V195.024H153.313V197.232H155.601V198.432H153.313ZM165.365 201.28C165.365 201.557 165.349 201.851 165.317 202.16H158.309C158.362 203.024 158.655 203.701 159.189 204.192C159.733 204.672 160.389 204.912 161.157 204.912C161.786 204.912 162.309 204.768 162.725 204.48C163.151 204.181 163.45 203.787 163.621 203.296H165.189C164.954 204.139 164.485 204.827 163.781 205.36C163.077 205.883 162.202 206.144 161.157 206.144C160.325 206.144 159.578 205.957 158.917 205.584C158.266 205.211 157.754 204.683 157.381 204C157.007 203.307 156.821 202.507 156.821 201.6C156.821 200.693 157.002 199.899 157.365 199.216C157.727 198.533 158.234 198.011 158.885 197.648C159.546 197.275 160.303 197.088 161.157 197.088C161.989 197.088 162.725 197.269 163.365 197.632C164.005 197.995 164.495 198.496 164.837 199.136C165.189 199.765 165.365 200.48 165.365 201.28ZM163.861 200.976C163.861 200.421 163.738 199.947 163.493 199.552C163.247 199.147 162.911 198.843 162.485 198.64C162.069 198.427 161.605 198.32 161.093 198.32C160.357 198.32 159.727 198.555 159.205 199.024C158.693 199.493 158.399 200.144 158.325 200.976H163.861ZM170.903 197.088C171.66 197.088 172.321 197.253 172.887 197.584C173.463 197.915 173.889 198.331 174.167 198.832V197.232H175.639V206.192C175.639 206.992 175.468 207.701 175.127 208.32C174.785 208.949 174.295 209.44 173.655 209.792C173.025 210.144 172.289 210.32 171.447 210.32C170.295 210.32 169.335 210.048 168.567 209.504C167.799 208.96 167.345 208.219 167.207 207.28H168.647C168.807 207.813 169.137 208.24 169.639 208.56C170.14 208.891 170.743 209.056 171.447 209.056C172.247 209.056 172.897 208.805 173.399 208.304C173.911 207.803 174.167 207.099 174.167 206.192V204.352C173.879 204.864 173.452 205.291 172.887 205.632C172.321 205.973 171.66 206.144 170.903 206.144C170.124 206.144 169.415 205.952 168.775 205.568C168.145 205.184 167.649 204.645 167.287 203.952C166.924 203.259 166.743 202.469 166.743 201.584C166.743 200.688 166.924 199.904 167.287 199.232C167.649 198.549 168.145 198.021 168.775 197.648C169.415 197.275 170.124 197.088 170.903 197.088ZM174.167 201.6C174.167 200.939 174.033 200.363 173.767 199.872C173.5 199.381 173.137 199.008 172.679 198.752C172.231 198.485 171.735 198.352 171.191 198.352C170.647 198.352 170.151 198.48 169.703 198.736C169.255 198.992 168.897 199.365 168.631 199.856C168.364 200.347 168.231 200.923 168.231 201.584C168.231 202.256 168.364 202.843 168.631 203.344C168.897 203.835 169.255 204.213 169.703 204.48C170.151 204.736 170.647 204.864 171.191 204.864C171.735 204.864 172.231 204.736 172.679 204.48C173.137 204.213 173.5 203.835 173.767 203.344C174.033 202.843 174.167 202.261 174.167 201.6ZM181.923 206.144C181.102 206.144 180.355 205.957 179.683 205.584C179.022 205.211 178.499 204.683 178.115 204C177.742 203.307 177.555 202.507 177.555 201.6C177.555 200.704 177.747 199.915 178.131 199.232C178.526 198.539 179.059 198.011 179.731 197.648C180.403 197.275 181.155 197.088 181.987 197.088C182.819 197.088 183.571 197.275 184.243 197.648C184.915 198.011 185.443 198.533 185.827 199.216C186.222 199.899 186.419 200.693 186.419 201.6C186.419 202.507 186.217 203.307 185.811 204C185.417 204.683 184.878 205.211 184.195 205.584C183.513 205.957 182.755 206.144 181.923 206.144ZM181.923 204.864C182.446 204.864 182.937 204.741 183.395 204.496C183.854 204.251 184.222 203.883 184.499 203.392C184.787 202.901 184.931 202.304 184.931 201.6C184.931 200.896 184.793 200.299 184.515 199.808C184.238 199.317 183.875 198.955 183.427 198.72C182.979 198.475 182.494 198.352 181.971 198.352C181.438 198.352 180.947 198.475 180.499 198.72C180.062 198.955 179.71 199.317 179.443 199.808C179.177 200.299 179.043 200.896 179.043 201.6C179.043 202.315 179.171 202.917 179.427 203.408C179.694 203.899 180.046 204.267 180.483 204.512C180.921 204.747 181.401 204.864 181.923 204.864ZM189.79 198.656C190.046 198.155 190.408 197.765 190.878 197.488C191.358 197.211 191.939 197.072 192.622 197.072V198.576H192.238C190.606 198.576 189.79 199.461 189.79 201.232V206H188.334V197.232H189.79V198.656ZM195.054 195.808C194.777 195.808 194.542 195.712 194.35 195.52C194.158 195.328 194.062 195.093 194.062 194.816C194.062 194.539 194.158 194.304 194.35 194.112C194.542 193.92 194.777 193.824 195.054 193.824C195.321 193.824 195.545 193.92 195.726 194.112C195.918 194.304 196.014 194.539 196.014 194.816C196.014 195.093 195.918 195.328 195.726 195.52C195.545 195.712 195.321 195.808 195.054 195.808ZM195.758 197.232V206H194.302V197.232H195.758ZM206.24 201.28C206.24 201.557 206.224 201.851 206.192 202.16H199.184C199.237 203.024 199.53 203.701 200.064 204.192C200.608 204.672 201.264 204.912 202.032 204.912C202.661 204.912 203.184 204.768 203.6 204.48C204.026 204.181 204.325 203.787 204.496 203.296H206.064C205.829 204.139 205.36 204.827 204.656 205.36C203.952 205.883 203.077 206.144 202.032 206.144C201.2 206.144 200.453 205.957 199.792 205.584C199.141 205.211 198.629 204.683 198.256 204C197.882 203.307 197.696 202.507 197.696 201.6C197.696 200.693 197.877 199.899 198.24 199.216C198.602 198.533 199.109 198.011 199.76 197.648C200.421 197.275 201.178 197.088 202.032 197.088C202.864 197.088 203.6 197.269 204.24 197.632C204.88 197.995 205.37 198.496 205.712 199.136C206.064 199.765 206.24 200.48 206.24 201.28ZM204.736 200.976C204.736 200.421 204.613 199.947 204.368 199.552C204.122 199.147 203.786 198.843 203.36 198.64C202.944 198.427 202.48 198.32 201.968 198.32C201.232 198.32 200.602 198.555 200.08 199.024C199.568 199.493 199.274 200.144 199.2 200.976H204.736ZM211.266 206.144C210.594 206.144 209.991 206.032 209.458 205.808C208.924 205.573 208.503 205.253 208.194 204.848C207.884 204.432 207.714 203.957 207.682 203.424H209.186C209.228 203.861 209.431 204.219 209.794 204.496C210.167 204.773 210.652 204.912 211.25 204.912C211.804 204.912 212.242 204.789 212.562 204.544C212.882 204.299 213.042 203.989 213.042 203.616C213.042 203.232 212.871 202.949 212.53 202.768C212.188 202.576 211.66 202.389 210.946 202.208C210.295 202.037 209.762 201.867 209.346 201.696C208.94 201.515 208.588 201.253 208.29 200.912C208.002 200.56 207.858 200.101 207.858 199.536C207.858 199.088 207.991 198.677 208.258 198.304C208.524 197.931 208.903 197.637 209.394 197.424C209.884 197.2 210.444 197.088 211.074 197.088C212.044 197.088 212.828 197.333 213.426 197.824C214.023 198.315 214.343 198.987 214.386 199.84H212.93C212.898 199.381 212.711 199.013 212.37 198.736C212.039 198.459 211.591 198.32 211.026 198.32C210.503 198.32 210.087 198.432 209.778 198.656C209.468 198.88 209.314 199.173 209.314 199.536C209.314 199.824 209.404 200.064 209.586 200.256C209.778 200.437 210.012 200.587 210.29 200.704C210.578 200.811 210.972 200.933 211.474 201.072C212.103 201.243 212.615 201.413 213.01 201.584C213.404 201.744 213.74 201.989 214.018 202.32C214.306 202.651 214.455 203.083 214.466 203.616C214.466 204.096 214.332 204.528 214.066 204.912C213.799 205.296 213.42 205.6 212.93 205.824C212.45 206.037 211.895 206.144 211.266 206.144ZM218.025 203.984L216.233 208.288H215.257L216.425 203.984H218.025ZM53.5708 223.848C53.8588 223.347 54.2855 222.931 54.8508 222.6C55.4268 222.259 56.0935 222.088 56.8508 222.088C57.6295 222.088 58.3335 222.275 58.9628 222.648C59.6028 223.021 60.1041 223.549 60.4668 224.232C60.8295 224.904 61.0108 225.688 61.0108 226.584C61.0108 227.469 60.8295 228.259 60.4668 228.952C60.1041 229.645 59.6028 230.184 58.9628 230.568C58.3335 230.952 57.6295 231.144 56.8508 231.144C56.1041 231.144 55.4428 230.979 54.8668 230.648C54.3015 230.307 53.8695 229.885 53.5708 229.384V235.16H52.1148V222.232H53.5708V223.848ZM59.5228 226.584C59.5228 225.923 59.3895 225.347 59.1228 224.856C58.8561 224.365 58.4935 223.992 58.0348 223.736C57.5868 223.48 57.0908 223.352 56.5468 223.352C56.0135 223.352 55.5175 223.485 55.0588 223.752C54.6108 224.008 54.2481 224.387 53.9708 224.888C53.7041 225.379 53.5708 225.949 53.5708 226.6C53.5708 227.261 53.7041 227.843 53.9708 228.344C54.2481 228.835 54.6108 229.213 55.0588 229.48C55.5175 229.736 56.0135 229.864 56.5468 229.864C57.0908 229.864 57.5868 229.736 58.0348 229.48C58.4935 229.213 58.8561 228.835 59.1228 228.344C59.3895 227.843 59.5228 227.256 59.5228 226.584ZM64.3833 219.16V231H62.9273V219.16H64.3833ZM74.8648 226.28C74.8648 226.557 74.8488 226.851 74.8168 227.16H67.8088C67.8621 228.024 68.1555 228.701 68.6888 229.192C69.2328 229.672 69.8888 229.912 70.6568 229.912C71.2861 229.912 71.8088 229.768 72.2248 229.48C72.6515 229.181 72.9501 228.787 73.1208 228.296H74.6888C74.4541 229.139 73.9848 229.827 73.2808 230.36C72.5768 230.883 71.7021 231.144 70.6568 231.144C69.8248 231.144 69.0781 230.957 68.4168 230.584C67.7661 230.211 67.2541 229.683 66.8808 229C66.5075 228.307 66.3208 227.507 66.3208 226.6C66.3208 225.693 66.5021 224.899 66.8648 224.216C67.2275 223.533 67.7341 223.011 68.3848 222.648C69.0461 222.275 69.8035 222.088 70.6568 222.088C71.4888 222.088 72.2248 222.269 72.8648 222.632C73.5048 222.995 73.9955 223.496 74.3368 224.136C74.6888 224.765 74.8648 225.48 74.8648 226.28ZM73.3608 225.976C73.3608 225.421 73.2381 224.947 72.9928 224.552C72.7475 224.147 72.4115 223.843 71.9848 223.64C71.5688 223.427 71.1048 223.32 70.5928 223.32C69.8568 223.32 69.2275 223.555 68.7048 224.024C68.1928 224.493 67.8995 225.144 67.8248 225.976H73.3608ZM76.2427 226.584C76.2427 225.688 76.424 224.904 76.7867 224.232C77.1494 223.549 77.6454 223.021 78.2747 222.648C78.9147 222.275 79.624 222.088 80.4027 222.088C81.1707 222.088 81.8374 222.253 82.4027 222.584C82.968 222.915 83.3894 223.331 83.6667 223.832V222.232H85.1387V231H83.6667V229.368C83.3787 229.88 82.9467 230.307 82.3707 230.648C81.8054 230.979 81.144 231.144 80.3867 231.144C79.608 231.144 78.904 230.952 78.2747 230.568C77.6454 230.184 77.1494 229.645 76.7867 228.952C76.424 228.259 76.2427 227.469 76.2427 226.584ZM83.6667 226.6C83.6667 225.939 83.5334 225.363 83.2667 224.872C83 224.381 82.6374 224.008 82.1787 223.752C81.7307 223.485 81.2347 223.352 80.6907 223.352C80.1467 223.352 79.6507 223.48 79.2027 223.736C78.7547 223.992 78.3974 224.365 78.1307 224.856C77.864 225.347 77.7307 225.923 77.7307 226.584C77.7307 227.256 77.864 227.843 78.1307 228.344C78.3974 228.835 78.7547 229.213 79.2027 229.48C79.6507 229.736 80.1467 229.864 80.6907 229.864C81.2347 229.864 81.7307 229.736 82.1787 229.48C82.6374 229.213 83 228.835 83.2667 228.344C83.5334 227.843 83.6667 227.261 83.6667 226.6ZM90.7032 231.144C90.0312 231.144 89.4285 231.032 88.8952 230.808C88.3619 230.573 87.9405 230.253 87.6312 229.848C87.3219 229.432 87.1512 228.957 87.1192 228.424H88.6232C88.6659 228.861 88.8685 229.219 89.2312 229.496C89.6045 229.773 90.0899 229.912 90.6872 229.912C91.2419 229.912 91.6792 229.789 91.9992 229.544C92.3192 229.299 92.4792 228.989 92.4792 228.616C92.4792 228.232 92.3085 227.949 91.9672 227.768C91.6259 227.576 91.0979 227.389 90.3832 227.208C89.7325 227.037 89.1992 226.867 88.7832 226.696C88.3779 226.515 88.0259 226.253 87.7272 225.912C87.4392 225.56 87.2952 225.101 87.2952 224.536C87.2952 224.088 87.4285 223.677 87.6952 223.304C87.9619 222.931 88.3405 222.637 88.8312 222.424C89.3219 222.2 89.8819 222.088 90.5112 222.088C91.4819 222.088 92.2659 222.333 92.8632 222.824C93.4605 223.315 93.7805 223.987 93.8232 224.84H92.3672C92.3352 224.381 92.1485 224.013 91.8072 223.736C91.4765 223.459 91.0285 223.32 90.4632 223.32C89.9405 223.32 89.5245 223.432 89.2152 223.656C88.9059 223.88 88.7512 224.173 88.7512 224.536C88.7512 224.824 88.8419 225.064 89.0232 225.256C89.2152 225.437 89.4499 225.587 89.7272 225.704C90.0152 225.811 90.4099 225.933 90.9112 226.072C91.5405 226.243 92.0525 226.413 92.4472 226.584C92.8419 226.744 93.1779 226.989 93.4552 227.32C93.7432 227.651 93.8925 228.083 93.9032 228.616C93.9032 229.096 93.7699 229.528 93.5032 229.912C93.2365 230.296 92.8579 230.6 92.3672 230.824C91.8872 231.037 91.3325 231.144 90.7032 231.144ZM103.959 226.28C103.959 226.557 103.943 226.851 103.911 227.16H96.9026C96.9559 228.024 97.2492 228.701 97.7826 229.192C98.3266 229.672 98.9826 229.912 99.7506 229.912C100.38 229.912 100.903 229.768 101.319 229.48C101.745 229.181 102.044 228.787 102.215 228.296H103.783C103.548 229.139 103.079 229.827 102.375 230.36C101.671 230.883 100.796 231.144 99.7506 231.144C98.9186 231.144 98.1719 230.957 97.5106 230.584C96.8599 230.211 96.3479 229.683 95.9746 229C95.6012 228.307 95.4146 227.507 95.4146 226.6C95.4146 225.693 95.5959 224.899 95.9586 224.216C96.3212 223.533 96.8279 223.011 97.4786 222.648C98.1399 222.275 98.8972 222.088 99.7506 222.088C100.583 222.088 101.319 222.269 101.959 222.632C102.599 222.995 103.089 223.496 103.431 224.136C103.783 224.765 103.959 225.48 103.959 226.28ZM102.455 225.976C102.455 225.421 102.332 224.947 102.087 224.552C101.841 224.147 101.505 223.843 101.079 223.64C100.663 223.427 100.199 223.32 99.6866 223.32C98.9506 223.32 98.3212 223.555 97.7986 224.024C97.2866 224.493 96.9932 225.144 96.9186 225.976H102.455ZM109.602 226.6C109.602 225.693 109.783 224.904 110.146 224.232C110.509 223.549 111.01 223.021 111.65 222.648C112.301 222.275 113.042 222.088 113.874 222.088C114.951 222.088 115.837 222.349 116.53 222.872C117.234 223.395 117.698 224.12 117.922 225.048H116.354C116.205 224.515 115.911 224.093 115.474 223.784C115.047 223.475 114.514 223.32 113.874 223.32C113.042 223.32 112.37 223.608 111.858 224.184C111.346 224.749 111.09 225.555 111.09 226.6C111.09 227.656 111.346 228.472 111.858 229.048C112.37 229.624 113.042 229.912 113.874 229.912C114.514 229.912 115.047 229.763 115.474 229.464C115.901 229.165 116.194 228.739 116.354 228.184H117.922C117.687 229.08 117.218 229.8 116.514 230.344C115.81 230.877 114.93 231.144 113.874 231.144C113.042 231.144 112.301 230.957 111.65 230.584C111.01 230.211 110.509 229.683 110.146 229C109.783 228.317 109.602 227.517 109.602 226.6ZM121.321 223.656C121.577 223.155 121.939 222.765 122.409 222.488C122.889 222.211 123.47 222.072 124.153 222.072V223.576H123.769C122.137 223.576 121.321 224.461 121.321 226.232V231H119.865V222.232H121.321V223.656ZM133.834 226.28C133.834 226.557 133.818 226.851 133.786 227.16H126.778C126.831 228.024 127.124 228.701 127.658 229.192C128.202 229.672 128.858 229.912 129.626 229.912C130.255 229.912 130.778 229.768 131.194 229.48C131.62 229.181 131.919 228.787 132.09 228.296H133.658C133.423 229.139 132.954 229.827 132.25 230.36C131.546 230.883 130.671 231.144 129.626 231.144C128.794 231.144 128.047 230.957 127.386 230.584C126.735 230.211 126.223 229.683 125.85 229C125.476 228.307 125.29 227.507 125.29 226.6C125.29 225.693 125.471 224.899 125.834 224.216C126.196 223.533 126.703 223.011 127.354 222.648C128.015 222.275 128.772 222.088 129.626 222.088C130.458 222.088 131.194 222.269 131.834 222.632C132.474 222.995 132.964 223.496 133.306 224.136C133.658 224.765 133.834 225.48 133.834 226.28ZM132.33 225.976C132.33 225.421 132.207 224.947 131.962 224.552C131.716 224.147 131.38 223.843 130.954 223.64C130.538 223.427 130.074 223.32 129.562 223.32C128.826 223.32 128.196 223.555 127.674 224.024C127.162 224.493 126.868 225.144 126.794 225.976H132.33ZM135.211 226.584C135.211 225.688 135.393 224.904 135.755 224.232C136.118 223.549 136.614 223.021 137.243 222.648C137.883 222.275 138.593 222.088 139.371 222.088C140.139 222.088 140.806 222.253 141.371 222.584C141.937 222.915 142.358 223.331 142.635 223.832V222.232H144.107V231H142.635V229.368C142.347 229.88 141.915 230.307 141.339 230.648C140.774 230.979 140.113 231.144 139.355 231.144C138.577 231.144 137.873 230.952 137.243 230.568C136.614 230.184 136.118 229.645 135.755 228.952C135.393 228.259 135.211 227.469 135.211 226.584ZM142.635 226.6C142.635 225.939 142.502 225.363 142.235 224.872C141.969 224.381 141.606 224.008 141.147 223.752C140.699 223.485 140.203 223.352 139.659 223.352C139.115 223.352 138.619 223.48 138.171 223.736C137.723 223.992 137.366 224.365 137.099 224.856C136.833 225.347 136.699 225.923 136.699 226.584C136.699 227.256 136.833 227.843 137.099 228.344C137.366 228.835 137.723 229.213 138.171 229.48C138.619 229.736 139.115 229.864 139.659 229.864C140.203 229.864 140.699 229.736 141.147 229.48C141.606 229.213 141.969 228.835 142.235 228.344C142.502 227.843 142.635 227.261 142.635 226.6ZM148.344 223.432V228.6C148.344 229.027 148.435 229.331 148.616 229.512C148.797 229.683 149.112 229.768 149.56 229.768H150.632V231H149.32C148.509 231 147.901 230.813 147.496 230.44C147.091 230.067 146.888 229.453 146.888 228.6V223.432H145.752V222.232H146.888V220.024H148.344V222.232H150.632V223.432H148.344ZM160.396 226.28C160.396 226.557 160.38 226.851 160.348 227.16H153.34C153.393 228.024 153.687 228.701 154.22 229.192C154.764 229.672 155.42 229.912 156.188 229.912C156.817 229.912 157.34 229.768 157.756 229.48C158.183 229.181 158.481 228.787 158.652 228.296H160.22C159.985 229.139 159.516 229.827 158.812 230.36C158.108 230.883 157.233 231.144 156.188 231.144C155.356 231.144 154.609 230.957 153.948 230.584C153.297 230.211 152.785 229.683 152.412 229C152.039 228.307 151.852 227.507 151.852 226.6C151.852 225.693 152.033 224.899 152.396 224.216C152.759 223.533 153.265 223.011 153.916 222.648C154.577 222.275 155.335 222.088 156.188 222.088C157.02 222.088 157.756 222.269 158.396 222.632C159.036 222.995 159.527 223.496 159.868 224.136C160.22 224.765 160.396 225.48 160.396 226.28ZM158.892 225.976C158.892 225.421 158.769 224.947 158.524 224.552C158.279 224.147 157.943 223.843 157.516 223.64C157.1 223.427 156.636 223.32 156.124 223.32C155.388 223.32 154.759 223.555 154.236 224.024C153.724 224.493 153.431 225.144 153.356 225.976H158.892ZM168.04 219.16V231H166.584V219.16H168.04ZM169.977 226.584C169.977 225.688 170.158 224.904 170.521 224.232C170.884 223.549 171.38 223.021 172.009 222.648C172.649 222.275 173.358 222.088 174.137 222.088C174.905 222.088 175.572 222.253 176.137 222.584C176.702 222.915 177.124 223.331 177.401 223.832V222.232H178.873V231H177.401V229.368C177.113 229.88 176.681 230.307 176.105 230.648C175.54 230.979 174.878 231.144 174.121 231.144C173.342 231.144 172.638 230.952 172.009 230.568C171.38 230.184 170.884 229.645 170.521 228.952C170.158 228.259 169.977 227.469 169.977 226.584ZM177.401 226.6C177.401 225.939 177.268 225.363 177.001 224.872C176.734 224.381 176.372 224.008 175.913 223.752C175.465 223.485 174.969 223.352 174.425 223.352C173.881 223.352 173.385 223.48 172.937 223.736C172.489 223.992 172.132 224.365 171.865 224.856C171.598 225.347 171.465 225.923 171.465 226.584C171.465 227.256 171.598 227.843 171.865 228.344C172.132 228.835 172.489 229.213 172.937 229.48C173.385 229.736 173.881 229.864 174.425 229.864C174.969 229.864 175.465 229.736 175.913 229.48C176.372 229.213 176.734 228.835 177.001 228.344C177.268 227.843 177.401 227.261 177.401 226.6ZM182.79 223.864C183.088 223.341 183.526 222.915 184.102 222.584C184.678 222.253 185.334 222.088 186.07 222.088C186.859 222.088 187.568 222.275 188.198 222.648C188.827 223.021 189.323 223.549 189.686 224.232C190.048 224.904 190.23 225.688 190.23 226.584C190.23 227.469 190.048 228.259 189.686 228.952C189.323 229.645 188.822 230.184 188.182 230.568C187.552 230.952 186.848 231.144 186.07 231.144C185.312 231.144 184.646 230.979 184.07 230.648C183.504 230.317 183.078 229.896 182.79 229.384V231H181.334V219.16H182.79V223.864ZM188.742 226.584C188.742 225.923 188.608 225.347 188.342 224.856C188.075 224.365 187.712 223.992 187.254 223.736C186.806 223.48 186.31 223.352 185.766 223.352C185.232 223.352 184.736 223.485 184.278 223.752C183.83 224.008 183.467 224.387 183.19 224.888C182.923 225.379 182.79 225.949 182.79 226.6C182.79 227.261 182.923 227.843 183.19 228.344C183.467 228.835 183.83 229.213 184.278 229.48C184.736 229.736 185.232 229.864 185.766 229.864C186.31 229.864 186.806 229.736 187.254 229.48C187.712 229.213 188.075 228.835 188.342 228.344C188.608 227.843 188.742 227.256 188.742 226.584ZM195.97 231.144C195.149 231.144 194.402 230.957 193.73 230.584C193.069 230.211 192.546 229.683 192.162 229C191.789 228.307 191.602 227.507 191.602 226.6C191.602 225.704 191.794 224.915 192.178 224.232C192.573 223.539 193.106 223.011 193.778 222.648C194.45 222.275 195.202 222.088 196.034 222.088C196.866 222.088 197.618 222.275 198.29 222.648C198.962 223.011 199.49 223.533 199.874 224.216C200.269 224.899 200.466 225.693 200.466 226.6C200.466 227.507 200.263 228.307 199.858 229C199.463 229.683 198.925 230.211 198.242 230.584C197.559 230.957 196.802 231.144 195.97 231.144ZM195.97 229.864C196.493 229.864 196.983 229.741 197.442 229.496C197.901 229.251 198.269 228.883 198.546 228.392C198.834 227.901 198.978 227.304 198.978 226.6C198.978 225.896 198.839 225.299 198.562 224.808C198.285 224.317 197.922 223.955 197.474 223.72C197.026 223.475 196.541 223.352 196.018 223.352C195.485 223.352 194.994 223.475 194.546 223.72C194.109 223.955 193.757 224.317 193.49 224.808C193.223 225.299 193.09 225.896 193.09 226.6C193.09 227.315 193.218 227.917 193.474 228.408C193.741 228.899 194.093 229.267 194.53 229.512C194.967 229.747 195.447 229.864 195.97 229.864ZM203.836 223.656C204.092 223.155 204.455 222.765 204.924 222.488C205.404 222.211 205.986 222.072 206.668 222.072V223.576H206.284C204.652 223.576 203.836 224.461 203.836 226.232V231H202.38V222.232H203.836V223.656ZM83.5708 250.6C83.5708 249.693 83.7521 248.904 84.1148 248.232C84.4775 247.549 84.9788 247.021 85.6188 246.648C86.2695 246.275 87.0108 246.088 87.8428 246.088C88.9201 246.088 89.8055 246.349 90.4988 246.872C91.2028 247.395 91.6668 248.12 91.8908 249.048H90.3228C90.1735 248.515 89.8801 248.093 89.4428 247.784C89.0161 247.475 88.4828 247.32 87.8428 247.32C87.0108 247.32 86.3388 247.608 85.8268 248.184C85.3148 248.749 85.0588 249.555 85.0588 250.6C85.0588 251.656 85.3148 252.472 85.8268 253.048C86.3388 253.624 87.0108 253.912 87.8428 253.912C88.4828 253.912 89.0161 253.763 89.4428 253.464C89.8695 253.165 90.1628 252.739 90.3228 252.184H91.8908C91.6561 253.08 91.1868 253.8 90.4828 254.344C89.7788 254.877 88.8988 255.144 87.8428 255.144C87.0108 255.144 86.2695 254.957 85.6188 254.584C84.9788 254.211 84.4775 253.683 84.1148 253C83.7521 252.317 83.5708 251.517 83.5708 250.6ZM93.2896 250.584C93.2896 249.688 93.4709 248.904 93.8336 248.232C94.1962 247.549 94.6922 247.021 95.3216 246.648C95.9616 246.275 96.6709 246.088 97.4496 246.088C98.2176 246.088 98.8842 246.253 99.4496 246.584C100.015 246.915 100.436 247.331 100.714 247.832V246.232H102.186V255H100.714V253.368C100.426 253.88 99.9936 254.307 99.4176 254.648C98.8522 254.979 98.1909 255.144 97.4336 255.144C96.6549 255.144 95.9509 254.952 95.3216 254.568C94.6922 254.184 94.1962 253.645 93.8336 252.952C93.4709 252.259 93.2896 251.469 93.2896 250.584ZM100.714 250.6C100.714 249.939 100.58 249.363 100.314 248.872C100.047 248.381 99.6842 248.008 99.2256 247.752C98.7776 247.485 98.2816 247.352 97.7376 247.352C97.1936 247.352 96.6976 247.48 96.2496 247.736C95.8016 247.992 95.4442 248.365 95.1776 248.856C94.9109 249.347 94.7776 249.923 94.7776 250.584C94.7776 251.256 94.9109 251.843 95.1776 252.344C95.4442 252.835 95.8016 253.213 96.2496 253.48C96.6976 253.736 97.1936 253.864 97.7376 253.864C98.2816 253.864 98.7776 253.736 99.2256 253.48C99.6842 253.213 100.047 252.835 100.314 252.344C100.58 251.843 100.714 251.261 100.714 250.6ZM106.422 247.432V252.6C106.422 253.027 106.513 253.331 106.694 253.512C106.875 253.683 107.19 253.768 107.638 253.768H108.71V255H107.398C106.587 255 105.979 254.813 105.574 254.44C105.169 254.067 104.966 253.453 104.966 252.6V247.432H103.83V246.232H104.966V244.024H106.422V246.232H108.71V247.432H106.422ZM118.474 250.28C118.474 250.557 118.458 250.851 118.426 251.16H111.418C111.472 252.024 111.765 252.701 112.298 253.192C112.842 253.672 113.498 253.912 114.266 253.912C114.896 253.912 115.418 253.768 115.834 253.48C116.261 253.181 116.56 252.787 116.73 252.296H118.298C118.064 253.139 117.594 253.827 116.89 254.36C116.186 254.883 115.312 255.144 114.266 255.144C113.434 255.144 112.688 254.957 112.026 254.584C111.376 254.211 110.864 253.683 110.49 253C110.117 252.307 109.93 251.507 109.93 250.6C109.93 249.693 110.112 248.899 110.474 248.216C110.837 247.533 111.344 247.011 111.994 246.648C112.656 246.275 113.413 246.088 114.266 246.088C115.098 246.088 115.834 246.269 116.474 246.632C117.114 246.995 117.605 247.496 117.946 248.136C118.298 248.765 118.474 249.48 118.474 250.28ZM116.97 249.976C116.97 249.421 116.848 248.947 116.602 248.552C116.357 248.147 116.021 247.843 115.594 247.64C115.178 247.427 114.714 247.32 114.202 247.32C113.466 247.32 112.837 247.555 112.314 248.024C111.802 248.493 111.509 249.144 111.434 249.976H116.97ZM124.012 246.088C124.769 246.088 125.431 246.253 125.996 246.584C126.572 246.915 126.999 247.331 127.276 247.832V246.232H128.748V255.192C128.748 255.992 128.577 256.701 128.236 257.32C127.895 257.949 127.404 258.44 126.764 258.792C126.135 259.144 125.399 259.32 124.556 259.32C123.404 259.32 122.444 259.048 121.676 258.504C120.908 257.96 120.455 257.219 120.316 256.28H121.756C121.916 256.813 122.247 257.24 122.748 257.56C123.249 257.891 123.852 258.056 124.556 258.056C125.356 258.056 126.007 257.805 126.508 257.304C127.02 256.803 127.276 256.099 127.276 255.192V253.352C126.988 253.864 126.561 254.291 125.996 254.632C125.431 254.973 124.769 255.144 124.012 255.144C123.233 255.144 122.524 254.952 121.884 254.568C121.255 254.184 120.759 253.645 120.396 252.952C120.033 252.259 119.852 251.469 119.852 250.584C119.852 249.688 120.033 248.904 120.396 248.232C120.759 247.549 121.255 247.021 121.884 246.648C122.524 246.275 123.233 246.088 124.012 246.088ZM127.276 250.6C127.276 249.939 127.143 249.363 126.876 248.872C126.609 248.381 126.247 248.008 125.788 247.752C125.34 247.485 124.844 247.352 124.3 247.352C123.756 247.352 123.26 247.48 122.812 247.736C122.364 247.992 122.007 248.365 121.74 248.856C121.473 249.347 121.34 249.923 121.34 250.584C121.34 251.256 121.473 251.843 121.74 252.344C122.007 252.835 122.364 253.213 122.812 253.48C123.26 253.736 123.756 253.864 124.3 253.864C124.844 253.864 125.34 253.736 125.788 253.48C126.247 253.213 126.609 252.835 126.876 252.344C127.143 251.843 127.276 251.261 127.276 250.6ZM135.033 255.144C134.211 255.144 133.465 254.957 132.793 254.584C132.131 254.211 131.609 253.683 131.225 253C130.851 252.307 130.665 251.507 130.665 250.6C130.665 249.704 130.857 248.915 131.241 248.232C131.635 247.539 132.169 247.011 132.841 246.648C133.513 246.275 134.265 246.088 135.097 246.088C135.929 246.088 136.681 246.275 137.353 246.648C138.025 247.011 138.553 247.533 138.937 248.216C139.331 248.899 139.529 249.693 139.529 250.6C139.529 251.507 139.326 252.307 138.921 253C138.526 253.683 137.987 254.211 137.305 254.584C136.622 254.957 135.865 255.144 135.033 255.144ZM135.033 253.864C135.555 253.864 136.046 253.741 136.505 253.496C136.963 253.251 137.331 252.883 137.609 252.392C137.897 251.901 138.041 251.304 138.041 250.6C138.041 249.896 137.902 249.299 137.625 248.808C137.347 248.317 136.985 247.955 136.537 247.72C136.089 247.475 135.603 247.352 135.081 247.352C134.547 247.352 134.057 247.475 133.609 247.72C133.171 247.955 132.819 248.317 132.553 248.808C132.286 249.299 132.153 249.896 132.153 250.6C132.153 251.315 132.281 251.917 132.537 252.408C132.803 252.899 133.155 253.267 133.593 253.512C134.03 253.747 134.51 253.864 135.033 253.864ZM142.899 247.656C143.155 247.155 143.518 246.765 143.987 246.488C144.467 246.211 145.048 246.072 145.731 246.072V247.576H145.347C143.715 247.576 142.899 248.461 142.899 250.232V255H141.443V246.232H142.899V247.656ZM148.164 244.808C147.886 244.808 147.652 244.712 147.46 244.52C147.268 244.328 147.172 244.093 147.172 243.816C147.172 243.539 147.268 243.304 147.46 243.112C147.652 242.92 147.886 242.824 148.164 242.824C148.43 242.824 148.654 242.92 148.836 243.112C149.028 243.304 149.124 243.539 149.124 243.816C149.124 244.093 149.028 244.328 148.836 244.52C148.654 244.712 148.43 244.808 148.164 244.808ZM148.868 246.232V255H147.412V246.232H148.868ZM159.349 250.28C159.349 250.557 159.333 250.851 159.301 251.16H152.293C152.347 252.024 152.64 252.701 153.173 253.192C153.717 253.672 154.373 253.912 155.141 253.912C155.771 253.912 156.293 253.768 156.709 253.48C157.136 253.181 157.435 252.787 157.605 252.296H159.173C158.939 253.139 158.469 253.827 157.765 254.36C157.061 254.883 156.187 255.144 155.141 255.144C154.309 255.144 153.563 254.957 152.901 254.584C152.251 254.211 151.739 253.683 151.365 253C150.992 252.307 150.805 251.507 150.805 250.6C150.805 249.693 150.987 248.899 151.349 248.216C151.712 247.533 152.219 247.011 152.869 246.648C153.531 246.275 154.288 246.088 155.141 246.088C155.973 246.088 156.709 246.269 157.349 246.632C157.989 246.995 158.48 247.496 158.821 248.136C159.173 248.765 159.349 249.48 159.349 250.28ZM157.845 249.976C157.845 249.421 157.723 248.947 157.477 248.552C157.232 248.147 156.896 247.843 156.469 247.64C156.053 247.427 155.589 247.32 155.077 247.32C154.341 247.32 153.712 247.555 153.189 248.024C152.677 248.493 152.384 249.144 152.309 249.976H157.845ZM164.375 255.144C163.703 255.144 163.1 255.032 162.567 254.808C162.034 254.573 161.612 254.253 161.303 253.848C160.994 253.432 160.823 252.957 160.791 252.424H162.295C162.338 252.861 162.54 253.219 162.903 253.496C163.276 253.773 163.762 253.912 164.359 253.912C164.914 253.912 165.351 253.789 165.671 253.544C165.991 253.299 166.151 252.989 166.151 252.616C166.151 252.232 165.98 251.949 165.639 251.768C165.298 251.576 164.77 251.389 164.055 251.208C163.404 251.037 162.871 250.867 162.455 250.696C162.05 250.515 161.698 250.253 161.399 249.912C161.111 249.56 160.967 249.101 160.967 248.536C160.967 248.088 161.1 247.677 161.367 247.304C161.634 246.931 162.012 246.637 162.503 246.424C162.994 246.2 163.554 246.088 164.183 246.088C165.154 246.088 165.938 246.333 166.535 246.824C167.132 247.315 167.452 247.987 167.495 248.84H166.039C166.007 248.381 165.82 248.013 165.479 247.736C165.148 247.459 164.7 247.32 164.135 247.32C163.612 247.32 163.196 247.432 162.887 247.656C162.578 247.88 162.423 248.173 162.423 248.536C162.423 248.824 162.514 249.064 162.695 249.256C162.887 249.437 163.122 249.587 163.399 249.704C163.687 249.811 164.082 249.933 164.583 250.072C165.212 250.243 165.724 250.413 166.119 250.584C166.514 250.744 166.85 250.989 167.127 251.32C167.415 251.651 167.564 252.083 167.575 252.616C167.575 253.096 167.442 253.528 167.175 253.912C166.908 254.296 166.53 254.6 166.039 254.824C165.559 255.037 165.004 255.144 164.375 255.144ZM170.094 255.096C169.817 255.096 169.582 255 169.39 254.808C169.198 254.616 169.102 254.381 169.102 254.104C169.102 253.827 169.198 253.592 169.39 253.4C169.582 253.208 169.817 253.112 170.094 253.112C170.361 253.112 170.585 253.208 170.766 253.4C170.958 253.592 171.054 253.827 171.054 254.104C171.054 254.381 170.958 254.616 170.766 254.808C170.585 255 170.361 255.096 170.094 255.096ZM173.454 255.096C173.176 255.096 172.942 255 172.75 254.808C172.558 254.616 172.462 254.381 172.462 254.104C172.462 253.827 172.558 253.592 172.75 253.4C172.942 253.208 173.176 253.112 173.454 253.112C173.72 253.112 173.944 253.208 174.126 253.4C174.318 253.592 174.414 253.827 174.414 254.104C174.414 254.381 174.318 254.616 174.126 254.808C173.944 255 173.72 255.096 173.454 255.096Z" fill="black"/>
<path d="M92.4195 91.9714C94.859 91.9727 97.2611 91.3711 99.4128 90.2201C101.565 89.0691 103.399 87.4043 104.755 85.3732C106.11 83.3421 106.944 81.0075 107.182 78.5765C107.42 76.1455 107.056 73.6931 106.121 71.4369C106.491 72.0265 106.989 72.5253 107.577 72.8967C108.166 73.2681 108.83 73.5025 109.521 73.5827C110.585 78.3187 112.52 82.8154 115.226 86.8433C117.817 90.4555 122.966 92.6151 129 92.6151C135.034 92.6151 140.183 90.4582 142.774 86.8475C145.48 82.8195 147.415 78.3229 148.479 73.5868C149.171 73.507 149.835 73.2725 150.423 72.9009C151.012 72.5292 151.509 72.0298 151.879 71.4397C150.376 75.0426 150.344 79.092 151.789 82.7186C153.234 86.3452 156.042 89.2599 159.609 90.837C163.176 92.4142 167.219 92.5281 170.869 91.1543C174.519 89.7806 177.486 87.0286 179.132 83.4891C180.779 79.9497 180.974 75.9049 179.676 72.223C178.378 68.5411 175.69 65.5156 172.189 63.7959C168.688 62.0762 164.653 61.7994 160.95 63.025C157.248 64.2505 154.173 66.8807 152.385 70.3509C152.525 69.9048 152.596 69.4402 152.596 68.9728V68.1238C152.594 67.173 152.302 66.2455 151.758 65.4661C151.214 64.6868 150.444 64.093 149.553 63.7647C149.158 59.9986 147.745 56.4116 145.465 53.3903C143.186 50.369 140.126 48.0278 136.615 46.619C135.827 44.414 132.953 43 129.061 43H128.941C125.038 43 122.162 44.4154 121.371 46.619C117.861 48.0278 114.801 50.369 112.521 53.3903C110.241 56.4116 108.828 59.9986 108.433 63.7647C107.542 64.093 106.773 64.6868 106.229 65.4661C105.685 66.2455 105.392 67.173 105.39 68.1238V68.9728C105.39 69.44 105.461 69.9046 105.599 70.3509C104.397 68.0033 102.592 66.0188 100.37 64.6014C98.1481 63.1841 95.589 62.3851 92.9561 62.2866C90.3233 62.1882 87.7117 62.7939 85.3902 64.0413C83.0687 65.2888 81.121 67.133 79.7474 69.3843C78.3739 71.6356 77.6241 74.2126 77.5752 76.8504C77.5263 79.4881 78.1801 82.0912 79.4692 84.392C80.7584 86.6927 82.6364 88.6081 84.9101 89.9409C87.1838 91.2738 89.7711 91.9761 92.4058 91.9756L92.4195 91.9714ZM165.58 65.7589C167.825 65.7589 170.018 66.4253 171.884 67.6738C173.75 68.9222 175.205 70.6967 176.063 72.7729C176.922 74.849 177.147 77.1335 176.709 79.3375C176.271 81.5414 175.19 83.5658 173.603 85.1547C172.016 86.7436 169.994 87.8256 167.793 88.2638C165.592 88.702 163.311 88.4769 161.237 87.6167C159.164 86.7566 157.392 85.3001 156.145 83.4316C154.899 81.563 154.234 79.3662 154.234 77.119C154.238 74.107 155.434 71.2194 157.561 69.0897C159.688 66.9601 162.572 65.7622 165.58 65.7589ZM139.943 84.8064C138.034 87.4676 133.841 89.1214 129 89.1214C124.159 89.1214 119.966 87.4676 118.057 84.8064C115.766 81.3988 114.099 77.6099 113.135 73.6172H144.865C143.901 77.6099 142.234 81.3988 139.943 84.8064ZM149.108 68.9659C149.104 69.2722 148.981 69.5648 148.765 69.7816C148.549 69.9983 148.257 70.122 147.951 70.1263H110.049C109.743 70.122 109.451 69.9984 109.234 69.7817C109.018 69.565 108.895 69.2723 108.89 68.9659V68.1169C108.895 67.8106 109.018 67.5181 109.234 67.3016C109.451 67.0851 109.743 66.9618 110.049 66.9579H147.951C148.257 66.9618 148.549 67.0852 148.765 67.3017C148.981 67.5182 149.104 67.8108 149.108 68.1169V68.9659ZM146.007 63.4656H135.492C135.407 60.2747 135.658 57.0836 136.241 53.9453C136.427 52.6967 136.6 51.5349 136.714 50.4793C139.191 51.7377 141.328 53.5748 142.946 55.8352C144.564 58.0956 145.614 60.7129 146.007 63.4656ZM124.649 47.8511C124.681 47.3839 126.225 46.484 128.96 46.484H129.052C131.775 46.484 133.319 47.3839 133.351 47.8511C133.326 49.7238 133.14 51.5908 132.793 53.4313C132.186 56.7401 131.919 60.1024 131.996 63.4656H126.002C126.08 60.1024 125.814 56.74 125.207 53.4313C124.86 51.5908 124.674 49.7238 124.649 47.8511ZM121.292 50.4793C121.407 51.5349 121.58 52.6981 121.765 53.9453C122.349 57.0834 122.6 60.2746 122.515 63.4656H111.999C112.393 60.7129 113.443 58.0956 115.061 55.8352C116.678 53.5748 118.816 51.7377 121.292 50.4793ZM92.4195 65.7589C94.6638 65.7586 96.8577 66.4248 98.7239 67.6731C100.59 68.9214 102.045 70.6958 102.904 72.7719C103.762 74.848 103.987 77.1326 103.55 79.3366C103.112 81.5407 102.031 83.5652 100.444 85.1542C98.8572 86.7433 96.8353 87.8254 94.6342 88.2637C92.433 88.7021 90.1515 88.4769 88.0781 87.6168C86.0047 86.7567 84.2327 85.3003 82.986 83.4317C81.7393 81.5631 81.0741 79.3663 81.0743 77.119C81.078 74.1073 82.2744 71.2199 84.4013 69.0902C86.5281 66.9606 89.4117 65.7625 92.4195 65.7589ZM165.58 95.2818C159.483 95.2838 153.559 97.3205 148.746 101.07C146.329 99.6686 143.77 98.5275 141.112 97.666C140.8 97.5674 140.467 97.5584 140.151 97.6401C139.835 97.7217 139.548 97.8906 139.323 98.1277C137.189 100.352 133.334 101.683 129 101.683C124.666 101.683 120.811 100.352 118.684 98.1222C118.459 97.8861 118.171 97.7182 117.855 97.6375C117.539 97.5569 117.206 97.5667 116.895 97.666C114.237 98.5257 111.678 99.6649 109.26 101.065C105.209 97.9075 100.353 95.9529 95.2462 95.4232C90.1395 94.8935 84.9868 95.81 80.3747 98.0684C75.7626 100.327 71.8763 103.836 69.1582 108.198C66.4401 112.559 64.9994 117.597 65 122.737C65 122.967 65.0451 123.194 65.1328 123.405C65.2204 123.617 65.3489 123.81 65.5108 123.972C65.6728 124.134 65.865 124.262 66.0766 124.35C66.2882 124.437 66.5149 124.482 66.7438 124.482H91.0432C90.0571 127.987 89.5592 131.612 89.5636 135.254C89.5636 135.717 89.7473 136.161 90.0744 136.489C90.4014 136.816 90.8449 137 91.3074 137H166.693C167.155 137 167.599 136.816 167.926 136.489C168.253 136.161 168.436 135.717 168.436 135.254C168.441 131.612 167.943 127.987 166.957 124.482H191.256C191.485 124.482 191.712 124.437 191.923 124.35C192.135 124.262 192.327 124.134 192.489 123.972C192.651 123.81 192.78 123.617 192.867 123.405C192.955 123.194 193 122.967 193 122.737C192.992 115.458 190.1 108.48 184.96 103.333C179.819 98.1855 172.85 95.2902 165.58 95.2818ZM68.5496 120.991C68.8575 116.77 70.2764 112.706 72.6619 109.213C75.0475 105.719 78.3146 102.921 82.1309 101.102C85.9472 99.2829 90.1766 98.5086 94.3887 98.8577C98.6009 99.2067 102.646 100.667 106.111 103.089C99.8408 107.581 95.0109 113.803 92.2103 120.995L68.5496 120.991ZM152.147 133.509V119.832C152.135 119.378 151.945 118.946 151.62 118.629C151.294 118.313 150.858 118.135 150.404 118.135C149.95 118.135 149.514 118.313 149.189 118.629C148.863 118.946 148.674 119.378 148.661 119.832V133.509H109.339V119.832C109.326 119.378 109.137 118.946 108.811 118.629C108.486 118.313 108.05 118.135 107.596 118.135C107.142 118.135 106.706 118.313 106.38 118.629C106.055 118.946 105.865 119.378 105.853 119.832V133.509H93.0912C93.4199 126.37 95.8704 119.492 100.129 113.756C104.387 108.02 110.259 103.689 116.991 101.317C120.429 103.953 124.672 105.317 129 105.176C133.328 105.317 137.571 103.954 141.009 101.317C147.741 103.689 153.613 108.02 157.871 113.756C162.13 119.492 164.58 126.37 164.909 133.509H152.147ZM165.791 120.991C162.989 113.8 158.159 107.58 151.889 103.089C155.354 100.667 159.399 99.2067 163.611 98.8577C167.823 98.5086 172.053 99.2829 175.869 101.102C179.685 102.921 182.953 105.719 185.338 109.213C187.724 112.706 189.143 116.77 189.45 120.991H165.791Z" fill="white"/>
</svg>
