<svg width="265" height="325" viewBox="0 0 265 325" fill="none" xmlns="http://www.w3.org/2000/svg">
<path d="M178.743 45.242C197.922 52.2301 226.235 54.9041 239.257 68.5207C251.981 82.3853 249.147 107.162 241.942 130.029C235.036 152.648 223.459 173.604 206.848 186.652C190.236 199.7 168.824 205.148 148.944 204.285C129.032 203.7 110.918 196.833 90.5134 191.115C69.8419 185.367 46.8793 180.767 31.4907 166.597C15.8356 152.397 8.02102 128.659 10.7709 106.975C13.2862 84.982 26.6643 64.7956 40.5235 47.4844C54.3827 30.1733 68.9577 16.0464 85.4453 11.1632C101.933 6.28008 120.568 10.9496 135.058 18.8115C149.25 26.9213 159.296 38.2235 178.743 45.242Z" fill="#F66464"/>
<rect y="181" width="258" height="144" rx="28" fill="#EFEDED"/>
<path d="M38.0533 214.8C39.2053 214.8 40.2293 215.072 41.1253 215.616C42.0319 216.16 42.6986 216.944 43.1253 217.968H41.3653C41.0453 217.36 40.5973 216.896 40.0213 216.576C39.4453 216.256 38.7893 216.096 38.0533 216.096C37.2639 216.096 36.5493 216.277 35.9093 216.64C35.2799 216.992 34.7839 217.499 34.4213 218.16C34.0693 218.821 33.8932 219.584 33.8932 220.448C33.8932 221.312 34.0693 222.075 34.4213 222.736C34.7839 223.397 35.2799 223.909 35.9093 224.272C36.5493 224.635 37.2639 224.816 38.0533 224.816C38.7893 224.816 39.4453 224.656 40.0213 224.336C40.5973 224.005 41.0453 223.536 41.3653 222.928H43.1253C42.6986 223.952 42.0319 224.736 41.1253 225.28C40.2293 225.824 39.2053 226.096 38.0533 226.096C37.0186 226.096 36.0693 225.856 35.2053 225.376C34.3413 224.885 33.6586 224.213 33.1573 223.36C32.6559 222.496 32.4053 221.525 32.4053 220.448C32.4053 219.36 32.6559 218.389 33.1573 217.536C33.6586 216.672 34.3413 216 35.2053 215.52C36.0693 215.04 37.0186 214.8 38.0533 214.8ZM53.0668 217.216V226H51.6108V224.592C51.3228 225.104 50.9281 225.493 50.4268 225.76C49.9254 226.016 49.3654 226.144 48.7468 226.144C48.1174 226.144 47.5414 226.005 47.0188 225.728C46.5068 225.44 46.0961 225.019 45.7868 224.464C45.4881 223.909 45.3388 223.232 45.3388 222.432V217.216H46.7788V222.192C46.7788 223.067 46.9921 223.739 47.4188 224.208C47.8561 224.667 48.4481 224.896 49.1948 224.896C49.9414 224.896 50.5281 224.667 50.9548 224.208C51.3921 223.739 51.6108 223.067 51.6108 222.192V217.216H53.0668ZM56.9216 218.704C57.4443 217.616 58.335 217.072 59.5936 217.072V218.592H59.2096C58.463 218.592 57.8923 218.789 57.4976 219.184C57.1136 219.568 56.9216 220.24 56.9216 221.2V226H55.4656V217.216H56.9216V218.704ZM62.8123 218.704C63.3349 217.616 64.2256 217.072 65.4843 217.072V218.592H65.1003C64.3536 218.592 63.7829 218.789 63.3883 219.184C63.0043 219.568 62.8123 220.24 62.8123 221.2V226H61.3563V217.216H62.8123V218.704ZM75.2149 221.248C75.2149 221.557 75.1935 221.845 75.1509 222.112H68.1589C68.2015 222.987 68.4735 223.68 68.9749 224.192C69.4869 224.693 70.1375 224.944 70.9269 224.944C71.5242 224.944 72.0255 224.811 72.4309 224.544C72.8469 224.277 73.1509 223.925 73.3429 223.488H74.9109C74.6335 224.256 74.1535 224.891 73.4709 225.392C72.7989 225.893 71.9509 226.144 70.9269 226.144C70.1055 226.144 69.3695 225.957 68.7189 225.584C68.0789 225.211 67.5775 224.683 67.2149 224C66.8522 223.307 66.6709 222.512 66.6709 221.616C66.6709 220.709 66.8522 219.915 67.2149 219.232C67.5775 218.539 68.0895 218.005 68.7509 217.632C69.4122 217.259 70.1749 217.072 71.0389 217.072C71.8602 217.072 72.5855 217.253 73.2149 217.616C73.8442 217.979 74.3349 218.475 74.6869 219.104C75.0389 219.733 75.2149 220.448 75.2149 221.248ZM73.6949 221.056C73.6949 220.491 73.5722 220 73.3269 219.584C73.0815 219.157 72.7455 218.832 72.3189 218.608C71.9029 218.384 71.4389 218.272 70.9269 218.272C70.1695 218.272 69.5349 218.523 69.0229 219.024C68.5109 219.515 68.2282 220.192 68.1749 221.056H73.6949ZM81.3481 217.072C81.9775 217.072 82.5481 217.216 83.0601 217.504C83.5828 217.781 83.9935 218.203 84.2921 218.768C84.6015 219.323 84.7561 220 84.7561 220.8V226H83.3161V221.04C83.3161 220.155 83.1028 219.483 82.6761 219.024C82.2495 218.565 81.6575 218.336 80.9001 218.336C80.1535 218.336 79.5615 218.565 79.1241 219.024C78.6975 219.483 78.4841 220.155 78.4841 221.04V226H77.0281V217.216H78.4841V218.64C78.7721 218.128 79.1668 217.739 79.6681 217.472C80.1695 217.205 80.7295 217.072 81.3481 217.072ZM91.155 224.816V226H89.683C88.9363 226 88.3657 225.819 87.971 225.456C87.587 225.093 87.395 224.523 87.395 223.744V218.4H86.259V217.216H87.395V215.04H88.867V217.216H91.139V218.4H88.867V223.744C88.867 224.139 88.947 224.416 89.107 224.576C89.267 224.736 89.5497 224.816 89.955 224.816H91.155ZM94.2185 214.16V226H92.7625V214.16H94.2185ZM97.2139 217.216L99.9019 224.32L102.638 217.216H104.142L98.8459 230.112H97.3419L99.0859 225.856L95.6139 217.216H97.2139ZM110.917 217.216L113.605 224.32L116.341 217.216H117.845L112.549 230.112H111.045L112.789 225.856L109.317 217.216H110.917ZM123.087 217.072C123.919 217.072 124.671 217.259 125.343 217.632C126.015 218.005 126.543 218.539 126.927 219.232C127.322 219.925 127.519 220.72 127.519 221.616C127.519 222.501 127.317 223.291 126.911 223.984C126.506 224.667 125.957 225.2 125.263 225.584C124.57 225.957 123.802 226.144 122.959 226.144C122.138 226.144 121.397 225.957 120.735 225.584C120.085 225.211 119.573 224.683 119.199 224C118.837 223.307 118.655 222.512 118.655 221.616C118.655 220.709 118.847 219.915 119.231 219.232C119.626 218.539 120.159 218.005 120.831 217.632C121.503 217.259 122.255 217.072 123.087 217.072ZM123.039 218.272C122.506 218.272 122.021 218.4 121.583 218.656C121.146 218.912 120.794 219.291 120.527 219.792C120.271 220.293 120.143 220.901 120.143 221.616C120.143 222.32 120.266 222.923 120.511 223.424C120.767 223.925 121.109 224.304 121.535 224.56C121.962 224.816 122.437 224.944 122.959 224.944C123.493 224.944 123.989 224.816 124.447 224.56C124.917 224.293 125.295 223.909 125.583 223.408C125.871 222.907 126.015 222.309 126.015 221.616C126.015 220.912 125.877 220.309 125.599 219.808C125.333 219.296 124.97 218.912 124.511 218.656C124.063 218.4 123.573 218.272 123.039 218.272ZM136.989 217.216V226H135.533V224.592C135.245 225.104 134.85 225.493 134.349 225.76C133.847 226.016 133.287 226.144 132.669 226.144C132.039 226.144 131.463 226.005 130.941 225.728C130.429 225.44 130.018 225.019 129.709 224.464C129.41 223.909 129.261 223.232 129.261 222.432V217.216H130.701V222.192C130.701 223.067 130.914 223.739 131.341 224.208C131.778 224.667 132.37 224.896 133.117 224.896C133.863 224.896 134.45 224.667 134.877 224.208C135.314 223.739 135.533 223.067 135.533 222.192V217.216H136.989ZM147.8 217.072C148.547 217.072 149.198 217.248 149.752 217.6C150.318 217.952 150.744 218.411 151.032 218.976V214.16H152.504V226H151.032V224.208C150.744 224.784 150.318 225.253 149.752 225.616C149.198 225.968 148.547 226.144 147.8 226.144C147.011 226.144 146.296 225.952 145.656 225.568C145.027 225.173 144.526 224.629 144.152 223.936C143.79 223.232 143.608 222.437 143.608 221.552C143.608 220.667 143.79 219.888 144.152 219.216C144.526 218.533 145.027 218.005 145.656 217.632C146.296 217.259 147.011 217.072 147.8 217.072ZM148.056 218.336C147.534 218.336 147.043 218.464 146.584 218.72C146.136 218.976 145.774 219.349 145.496 219.84C145.23 220.32 145.096 220.891 145.096 221.552C145.096 222.213 145.23 222.8 145.496 223.312C145.774 223.813 146.136 224.203 146.584 224.48C147.043 224.757 147.534 224.896 148.056 224.896C148.59 224.896 149.08 224.763 149.528 224.496C149.987 224.229 150.35 223.851 150.616 223.36C150.894 222.859 151.032 222.277 151.032 221.616C151.032 220.955 150.894 220.379 150.616 219.888C150.35 219.387 149.987 219.003 149.528 218.736C149.08 218.469 148.59 218.336 148.056 218.336ZM158.759 217.072C159.591 217.072 160.343 217.259 161.015 217.632C161.687 218.005 162.215 218.539 162.599 219.232C162.994 219.925 163.191 220.72 163.191 221.616C163.191 222.501 162.988 223.291 162.583 223.984C162.178 224.667 161.628 225.2 160.935 225.584C160.242 225.957 159.474 226.144 158.631 226.144C157.81 226.144 157.068 225.957 156.407 225.584C155.756 225.211 155.244 224.683 154.871 224C154.508 223.307 154.327 222.512 154.327 221.616C154.327 220.709 154.519 219.915 154.903 219.232C155.298 218.539 155.831 218.005 156.503 217.632C157.175 217.259 157.927 217.072 158.759 217.072ZM158.711 218.272C158.178 218.272 157.692 218.4 157.255 218.656C156.818 218.912 156.466 219.291 156.199 219.792C155.943 220.293 155.815 220.901 155.815 221.616C155.815 222.32 155.938 222.923 156.183 223.424C156.439 223.925 156.78 224.304 157.207 224.56C157.634 224.816 158.108 224.944 158.631 224.944C159.164 224.944 159.66 224.816 160.119 224.56C160.588 224.293 160.967 223.909 161.255 223.408C161.543 222.907 161.687 222.309 161.687 221.616C161.687 220.912 161.548 220.309 161.271 219.808C161.004 219.296 160.642 218.912 160.183 218.656C159.735 218.4 159.244 218.272 158.711 218.272ZM169.333 217.072C169.962 217.072 170.533 217.216 171.045 217.504C171.567 217.781 171.978 218.203 172.277 218.768C172.586 219.323 172.741 220 172.741 220.8V226H171.301V221.04C171.301 220.155 171.087 219.483 170.661 219.024C170.234 218.565 169.642 218.336 168.885 218.336C168.138 218.336 167.546 218.565 167.109 219.024C166.682 219.483 166.469 220.155 166.469 221.04V226H165.013V217.216H166.469V218.64C166.757 218.128 167.151 217.739 167.653 217.472C168.154 217.205 168.714 217.072 169.333 217.072ZM175.715 213.472C175.843 214.027 175.907 214.517 175.907 214.944C175.907 215.573 175.769 216.032 175.491 216.32C175.225 216.608 174.825 216.752 174.291 216.752V216.048C174.547 216.048 174.734 215.984 174.851 215.856C174.979 215.717 175.043 215.504 175.043 215.216V214.848H174.259V213.472H175.715ZM181.577 224.816V226H180.105C179.358 226 178.788 225.819 178.393 225.456C178.009 225.093 177.817 224.523 177.817 223.744V218.4H176.681V217.216H177.817V215.04H179.289V217.216H181.561V218.4H179.289V223.744C179.289 224.139 179.369 224.416 179.529 224.576C179.689 224.736 179.972 224.816 180.377 224.816H181.577ZM192.301 217.072C192.931 217.072 193.501 217.216 194.013 217.504C194.536 217.781 194.947 218.203 195.245 218.768C195.555 219.323 195.709 220 195.709 220.8V226H194.269V221.04C194.269 220.155 194.056 219.483 193.629 219.024C193.203 218.565 192.611 218.336 191.853 218.336C191.107 218.336 190.515 218.565 190.077 219.024C189.651 219.483 189.437 220.155 189.437 221.04V226H187.981V214.16H189.437V218.64C189.725 218.128 190.12 217.739 190.621 217.472C191.123 217.205 191.683 217.072 192.301 217.072ZM201.644 217.072C202.391 217.072 203.041 217.248 203.596 217.6C204.161 217.952 204.588 218.411 204.876 218.976V217.216H206.348V226H204.876V224.208C204.588 224.784 204.161 225.253 203.596 225.616C203.041 225.968 202.391 226.144 201.644 226.144C200.855 226.144 200.14 225.952 199.5 225.568C198.871 225.173 198.369 224.629 197.996 223.936C197.633 223.232 197.452 222.437 197.452 221.552C197.452 220.667 197.633 219.888 197.996 219.216C198.369 218.533 198.871 218.005 199.5 217.632C200.14 217.259 200.855 217.072 201.644 217.072ZM201.9 218.336C201.377 218.336 200.887 218.464 200.428 218.72C199.98 218.976 199.617 219.349 199.34 219.84C199.073 220.32 198.94 220.891 198.94 221.552C198.94 222.213 199.073 222.8 199.34 223.312C199.617 223.813 199.98 224.203 200.428 224.48C200.887 224.757 201.377 224.896 201.9 224.896C202.433 224.896 202.924 224.763 203.372 224.496C203.831 224.229 204.193 223.851 204.46 223.36C204.737 222.859 204.876 222.277 204.876 221.616C204.876 220.955 204.737 220.379 204.46 219.888C204.193 219.387 203.831 219.003 203.372 218.736C202.924 218.469 202.433 218.336 201.9 218.336ZM211.979 224.64L214.683 217.216H216.251L212.811 226H211.163L207.739 217.216H209.291L211.979 224.64ZM225.606 221.248C225.606 221.557 225.584 221.845 225.542 222.112H218.549C218.592 222.987 218.864 223.68 219.366 224.192C219.878 224.693 220.528 224.944 221.318 224.944C221.915 224.944 222.416 224.811 222.822 224.544C223.238 224.277 223.542 223.925 223.734 223.488H225.302C225.024 224.256 224.544 224.891 223.862 225.392C223.19 225.893 222.342 226.144 221.318 226.144C220.496 226.144 219.76 225.957 219.11 225.584C218.47 225.211 217.968 224.683 217.606 224C217.243 223.307 217.062 222.512 217.062 221.616C217.062 220.709 217.243 219.915 217.606 219.232C217.968 218.539 218.48 218.005 219.142 217.632C219.803 217.259 220.566 217.072 221.43 217.072C222.251 217.072 222.976 217.253 223.606 217.616C224.235 217.979 224.726 218.475 225.078 219.104C225.43 219.733 225.606 220.448 225.606 221.248ZM224.086 221.056C224.086 220.491 223.963 220 223.718 219.584C223.472 219.157 223.136 218.832 222.71 218.608C222.294 218.384 221.83 218.272 221.318 218.272C220.56 218.272 219.926 218.523 219.414 219.024C218.902 219.515 218.619 220.192 218.566 221.056H224.086ZM46.6248 248.88H50.5128V250H45.1688V238.912H46.6248V248.88ZM55.6441 241.072C56.3908 241.072 57.0415 241.248 57.5961 241.6C58.1615 241.952 58.5881 242.411 58.8761 242.976V241.216H60.3481V250H58.8761V248.208C58.5881 248.784 58.1615 249.253 57.5961 249.616C57.0415 249.968 56.3908 250.144 55.6441 250.144C54.8548 250.144 54.1401 249.952 53.5001 249.568C52.8708 249.173 52.3695 248.629 51.9961 247.936C51.6335 247.232 51.4521 246.437 51.4521 245.552C51.4521 244.667 51.6335 243.888 51.9961 243.216C52.3695 242.533 52.8708 242.005 53.5001 241.632C54.1401 241.259 54.8548 241.072 55.6441 241.072ZM55.9001 242.336C55.3775 242.336 54.8868 242.464 54.4281 242.72C53.9801 242.976 53.6175 243.349 53.3401 243.84C53.0735 244.32 52.9401 244.891 52.9401 245.552C52.9401 246.213 53.0735 246.8 53.3401 247.312C53.6175 247.813 53.9801 248.203 54.4281 248.48C54.8868 248.757 55.3775 248.896 55.9001 248.896C56.4335 248.896 56.9241 248.763 57.3721 248.496C57.8308 248.229 58.1935 247.851 58.4601 247.36C58.7375 246.859 58.8761 246.277 58.8761 245.616C58.8761 244.955 58.7375 244.379 58.4601 243.888C58.1935 243.387 57.8308 243.003 57.3721 242.736C56.9241 242.469 56.4335 242.336 55.9001 242.336ZM67.4509 241.072C68.2402 241.072 68.9495 241.259 69.5789 241.632C70.2189 242.005 70.7202 242.533 71.0829 243.216C71.4562 243.888 71.6429 244.667 71.6429 245.552C71.6429 246.437 71.4562 247.232 71.0829 247.936C70.7202 248.629 70.2189 249.173 69.5789 249.568C68.9495 249.952 68.2402 250.144 67.4509 250.144C66.7042 250.144 66.0482 249.968 65.4829 249.616C64.9282 249.253 64.5015 248.784 64.2029 248.208V250H62.7469V238.16H64.2029V242.976C64.5015 242.411 64.9282 241.952 65.4829 241.6C66.0482 241.248 66.7042 241.072 67.4509 241.072ZM67.1629 242.336C66.6402 242.336 66.1495 242.469 65.6909 242.736C65.2429 243.003 64.8802 243.387 64.6029 243.888C64.3362 244.379 64.2029 244.955 64.2029 245.616C64.2029 246.277 64.3362 246.859 64.6029 247.36C64.8802 247.851 65.2429 248.229 65.6909 248.496C66.1495 248.763 66.6402 248.896 67.1629 248.896C67.6855 248.896 68.1762 248.763 68.6349 248.496C69.0935 248.219 69.4562 247.824 69.7229 247.312C70.0002 246.8 70.1389 246.213 70.1389 245.552C70.1389 244.891 70.0002 244.32 69.7229 243.84C69.4562 243.349 69.0935 242.976 68.6349 242.72C68.1869 242.464 67.6962 242.336 67.1629 242.336ZM77.3216 241.072C78.1536 241.072 78.9056 241.259 79.5776 241.632C80.2496 242.005 80.7776 242.539 81.1616 243.232C81.5563 243.925 81.7536 244.72 81.7536 245.616C81.7536 246.501 81.551 247.291 81.1456 247.984C80.7403 248.667 80.191 249.2 79.4976 249.584C78.8043 249.957 78.0363 250.144 77.1936 250.144C76.3723 250.144 75.631 249.957 74.9696 249.584C74.319 249.211 73.807 248.683 73.4336 248C73.071 247.307 72.8896 246.512 72.8896 245.616C72.8896 244.709 73.0816 243.915 73.4656 243.232C73.8603 242.539 74.3936 242.005 75.0656 241.632C75.7376 241.259 76.4896 241.072 77.3216 241.072ZM77.2736 242.272C76.7403 242.272 76.255 242.4 75.8176 242.656C75.3803 242.912 75.0283 243.291 74.7616 243.792C74.5056 244.293 74.3776 244.901 74.3776 245.616C74.3776 246.32 74.5003 246.923 74.7456 247.424C75.0016 247.925 75.343 248.304 75.7696 248.56C76.1963 248.816 76.671 248.944 77.1936 248.944C77.727 248.944 78.223 248.816 78.6816 248.56C79.151 248.293 79.5296 247.909 79.8176 247.408C80.1056 246.907 80.2496 246.309 80.2496 245.616C80.2496 244.912 80.111 244.309 79.8336 243.808C79.567 243.296 79.2043 242.912 78.7456 242.656C78.2976 242.4 77.807 242.272 77.2736 242.272ZM85.031 242.704C85.5537 241.616 86.4443 241.072 87.703 241.072V242.592H87.319C86.5723 242.592 86.0017 242.789 85.607 243.184C85.223 243.568 85.031 244.24 85.031 245.2V250H83.575V241.216H85.031V242.704ZM99.3345 238.8C100.369 238.8 101.313 239.04 102.167 239.52C103.031 240 103.713 240.672 104.215 241.536C104.716 242.389 104.967 243.36 104.967 244.448C104.967 245.525 104.716 246.496 104.215 247.36C103.713 248.224 103.031 248.901 102.167 249.392C101.313 249.872 100.369 250.112 99.3345 250.112C98.2998 250.112 97.3505 249.872 96.4865 249.392C95.6225 248.901 94.9398 248.224 94.4385 247.36C93.9372 246.496 93.6865 245.525 93.6865 244.448C93.6865 243.36 93.9372 242.389 94.4385 241.536C94.9398 240.672 95.6225 240 96.4865 239.52C97.3505 239.04 98.2998 238.8 99.3345 238.8ZM99.3345 240.096C98.5452 240.096 97.8305 240.277 97.1905 240.64C96.5612 240.992 96.0652 241.499 95.7025 242.16C95.3398 242.821 95.1585 243.584 95.1585 244.448C95.1585 245.312 95.3398 246.075 95.7025 246.736C96.0652 247.397 96.5612 247.909 97.1905 248.272C97.8305 248.635 98.5452 248.816 99.3345 248.816C100.124 248.816 100.833 248.635 101.463 248.272C102.092 247.909 102.583 247.397 102.935 246.736C103.297 246.075 103.479 245.312 103.479 244.448C103.479 243.584 103.297 242.821 102.935 242.16C102.583 241.499 102.092 240.992 101.463 240.64C100.833 240.277 100.124 240.096 99.3345 240.096ZM114.426 241.216V250H112.97V248.592C112.682 249.104 112.287 249.493 111.786 249.76C111.285 250.016 110.725 250.144 110.106 250.144C109.477 250.144 108.901 250.005 108.378 249.728C107.866 249.44 107.455 249.019 107.146 248.464C106.847 247.909 106.698 247.232 106.698 246.432V241.216H108.138V246.192C108.138 247.067 108.351 247.739 108.778 248.208C109.215 248.667 109.807 248.896 110.554 248.896C111.301 248.896 111.887 248.667 112.314 248.208C112.751 247.739 112.97 247.067 112.97 246.192V241.216H114.426ZM120.905 248.816V250H119.433C118.686 250 118.116 249.819 117.721 249.456C117.337 249.093 117.145 248.523 117.145 247.744V242.4H116.009V241.216H117.145V239.04H118.617V241.216H120.889V242.4H118.617V247.744C118.617 248.139 118.697 248.416 118.857 248.576C119.017 248.736 119.3 248.816 119.705 248.816H120.905ZM126.593 248.816V250H125.121C124.374 250 123.803 249.819 123.409 249.456C123.025 249.093 122.833 248.523 122.833 247.744V242.4H121.697V241.216H122.833V239.04H124.305V241.216H126.577V242.4H124.305V247.744C124.305 248.139 124.385 248.416 124.545 248.576C124.705 248.736 124.987 248.816 125.393 248.816H126.593ZM135.848 241.216V250H134.392V248.592C134.104 249.104 133.709 249.493 133.208 249.76C132.707 250.016 132.147 250.144 131.528 250.144C130.899 250.144 130.323 250.005 129.8 249.728C129.288 249.44 128.877 249.019 128.568 248.464C128.269 247.909 128.12 247.232 128.12 246.432V241.216H129.56V246.192C129.56 247.067 129.773 247.739 130.2 248.208C130.637 248.667 131.229 248.896 131.976 248.896C132.723 248.896 133.309 248.667 133.736 248.208C134.173 247.739 134.392 247.067 134.392 246.192V241.216H135.848ZM139.703 242.704C140.226 241.616 141.116 241.072 142.375 241.072V242.592H141.991C141.244 242.592 140.674 242.789 140.279 243.184C139.895 243.568 139.703 244.24 139.703 245.2V250H138.247V241.216H139.703V242.704ZM148.458 241.072C149.087 241.072 149.658 241.216 150.17 241.504C150.692 241.781 151.103 242.203 151.402 242.768C151.711 243.323 151.866 244 151.866 244.8V250H150.426V245.04C150.426 244.155 150.212 243.483 149.786 243.024C149.359 242.565 148.767 242.336 148.01 242.336C147.263 242.336 146.671 242.565 146.234 243.024C145.807 243.483 145.594 244.155 145.594 245.04V250H144.138V241.216H145.594V242.64C145.882 242.128 146.276 241.739 146.778 241.472C147.279 241.205 147.839 241.072 148.458 241.072ZM155.096 248.928C155.235 249.493 155.304 250.011 155.304 250.48C155.304 251.685 154.755 252.288 153.656 252.288V251.584C153.923 251.584 154.115 251.52 154.232 251.392C154.36 251.264 154.424 251.061 154.424 250.784V250.416H153.608V248.928H155.096ZM166.654 241.072C167.443 241.072 168.153 241.259 168.782 241.632C169.422 242.005 169.923 242.533 170.286 243.216C170.659 243.888 170.846 244.667 170.846 245.552C170.846 246.437 170.659 247.232 170.286 247.936C169.923 248.629 169.422 249.173 168.782 249.568C168.153 249.952 167.443 250.144 166.654 250.144C165.907 250.144 165.251 249.968 164.686 249.616C164.131 249.253 163.705 248.784 163.406 248.208V254.16H161.95V241.216H163.406V242.976C163.705 242.411 164.131 241.952 164.686 241.6C165.251 241.248 165.907 241.072 166.654 241.072ZM166.366 242.336C165.843 242.336 165.353 242.469 164.894 242.736C164.446 243.003 164.083 243.387 163.806 243.888C163.539 244.379 163.406 244.955 163.406 245.616C163.406 246.277 163.539 246.859 163.806 247.36C164.083 247.851 164.446 248.229 164.894 248.496C165.353 248.763 165.843 248.896 166.366 248.896C166.889 248.896 167.379 248.763 167.838 248.496C168.297 248.219 168.659 247.824 168.926 247.312C169.203 246.8 169.342 246.213 169.342 245.552C169.342 244.891 169.203 244.32 168.926 243.84C168.659 243.349 168.297 242.976 167.838 242.72C167.39 242.464 166.899 242.336 166.366 242.336ZM174.125 238.16V250H172.669V238.16H174.125ZM184.496 245.248C184.496 245.557 184.475 245.845 184.432 246.112H177.44C177.483 246.987 177.755 247.68 178.256 248.192C178.768 248.693 179.419 248.944 180.208 248.944C180.805 248.944 181.307 248.811 181.712 248.544C182.128 248.277 182.432 247.925 182.624 247.488H184.192C183.915 248.256 183.435 248.891 182.752 249.392C182.08 249.893 181.232 250.144 180.208 250.144C179.387 250.144 178.651 249.957 178 249.584C177.36 249.211 176.859 248.683 176.496 248C176.133 247.307 175.952 246.512 175.952 245.616C175.952 244.709 176.133 243.915 176.496 243.232C176.859 242.539 177.371 242.005 178.032 241.632C178.693 241.259 179.456 241.072 180.32 241.072C181.141 241.072 181.867 241.253 182.496 241.616C183.125 241.979 183.616 242.475 183.968 243.104C184.32 243.733 184.496 244.448 184.496 245.248ZM182.976 245.056C182.976 244.491 182.853 244 182.608 243.584C182.363 243.157 182.027 242.832 181.6 242.608C181.184 242.384 180.72 242.272 180.208 242.272C179.451 242.272 178.816 242.523 178.304 243.024C177.792 243.515 177.509 244.192 177.456 245.056H182.976ZM189.925 241.072C190.672 241.072 191.323 241.248 191.877 241.6C192.443 241.952 192.869 242.411 193.157 242.976V241.216H194.629V250H193.157V248.208C192.869 248.784 192.443 249.253 191.877 249.616C191.323 249.968 190.672 250.144 189.925 250.144C189.136 250.144 188.421 249.952 187.781 249.568C187.152 249.173 186.651 248.629 186.277 247.936C185.915 247.232 185.733 246.437 185.733 245.552C185.733 244.667 185.915 243.888 186.277 243.216C186.651 242.533 187.152 242.005 187.781 241.632C188.421 241.259 189.136 241.072 189.925 241.072ZM190.181 242.336C189.659 242.336 189.168 242.464 188.709 242.72C188.261 242.976 187.899 243.349 187.621 243.84C187.355 244.32 187.221 244.891 187.221 245.552C187.221 246.213 187.355 246.8 187.621 247.312C187.899 247.813 188.261 248.203 188.709 248.48C189.168 248.757 189.659 248.896 190.181 248.896C190.715 248.896 191.205 248.763 191.653 248.496C192.112 248.229 192.475 247.851 192.741 247.36C193.019 246.859 193.157 246.277 193.157 245.616C193.157 244.955 193.019 244.379 192.741 243.888C192.475 243.387 192.112 243.003 191.653 242.736C191.205 242.469 190.715 242.336 190.181 242.336ZM200.052 241.072C201.001 241.072 201.753 241.323 202.308 241.824C202.863 242.315 203.167 242.992 203.22 243.856H201.716C201.695 243.365 201.529 242.971 201.22 242.672C200.911 242.373 200.484 242.224 199.94 242.224C199.385 242.224 198.948 242.357 198.628 242.624C198.319 242.88 198.164 243.205 198.164 243.6C198.164 243.931 198.26 244.197 198.452 244.4C198.655 244.592 198.9 244.736 199.188 244.832C199.487 244.928 199.887 245.029 200.388 245.136C201.028 245.285 201.54 245.435 201.924 245.584C202.319 245.723 202.655 245.963 202.932 246.304C203.209 246.635 203.348 247.088 203.348 247.664C203.348 248.144 203.209 248.576 202.932 248.96C202.655 249.333 202.265 249.627 201.764 249.84C201.263 250.043 200.687 250.144 200.036 250.144C199.055 250.144 198.265 249.899 197.668 249.408C197.081 248.917 196.761 248.24 196.708 247.376H198.212C198.233 247.867 198.404 248.261 198.724 248.56C199.055 248.848 199.492 248.992 200.036 248.992C200.633 248.992 201.092 248.869 201.412 248.624C201.743 248.379 201.908 248.053 201.908 247.648C201.908 247.317 201.807 247.056 201.604 246.864C201.412 246.661 201.167 246.512 200.868 246.416C200.569 246.309 200.159 246.197 199.636 246.08C199.007 245.941 198.495 245.803 198.1 245.664C197.716 245.515 197.385 245.285 197.108 244.976C196.841 244.667 196.708 244.24 196.708 243.696C196.708 243.216 196.841 242.779 197.108 242.384C197.385 241.979 197.775 241.659 198.276 241.424C198.788 241.189 199.38 241.072 200.052 241.072ZM213.418 245.248C213.418 245.557 213.397 245.845 213.354 246.112H206.362C206.405 246.987 206.677 247.68 207.178 248.192C207.69 248.693 208.341 248.944 209.13 248.944C209.727 248.944 210.229 248.811 210.634 248.544C211.05 248.277 211.354 247.925 211.546 247.488H213.114C212.837 248.256 212.357 248.891 211.674 249.392C211.002 249.893 210.154 250.144 209.13 250.144C208.309 250.144 207.573 249.957 206.922 249.584C206.282 249.211 205.781 248.683 205.418 248C205.055 247.307 204.874 246.512 204.874 245.616C204.874 244.709 205.055 243.915 205.418 243.232C205.781 242.539 206.293 242.005 206.954 241.632C207.615 241.259 208.378 241.072 209.242 241.072C210.063 241.072 210.789 241.253 211.418 241.616C212.047 241.979 212.538 242.475 212.89 243.104C213.242 243.733 213.418 244.448 213.418 245.248ZM211.898 245.056C211.898 244.491 211.775 244 211.53 243.584C211.285 243.157 210.949 242.832 210.522 242.608C210.106 242.384 209.642 242.272 209.13 242.272C208.373 242.272 207.738 242.523 207.226 243.024C206.714 243.515 206.431 244.192 206.378 245.056H211.898ZM51.2472 266.072C52.3032 266.072 53.1619 266.317 53.8232 266.808C54.4952 267.299 54.9645 267.997 55.2312 268.904H53.6632C53.4925 268.392 53.1992 267.992 52.7832 267.704C52.3672 267.416 51.8552 267.272 51.2472 267.272C50.4152 267.272 49.7432 267.565 49.2312 268.152C48.7299 268.728 48.4792 269.549 48.4792 270.616C48.4792 271.672 48.7299 272.493 49.2312 273.08C49.7432 273.656 50.4152 273.944 51.2472 273.944C51.8659 273.944 52.3779 273.805 52.7832 273.528C53.1885 273.251 53.4819 272.845 53.6632 272.312H55.2312C54.9645 273.176 54.4899 273.864 53.8072 274.376C53.1352 274.888 52.2819 275.144 51.2472 275.144C50.4259 275.144 49.6899 274.957 49.0392 274.584C48.3992 274.211 47.8979 273.683 47.5352 273C47.1725 272.307 46.9912 271.512 46.9912 270.616C46.9912 269.709 47.1725 268.915 47.5352 268.232C47.8979 267.539 48.3992 267.005 49.0392 266.632C49.6792 266.259 50.4152 266.072 51.2472 266.072ZM58.6169 267.704C59.1396 266.616 60.0303 266.072 61.2889 266.072V267.592H60.9049C60.1583 267.592 59.5876 267.789 59.1929 268.184C58.8089 268.568 58.6169 269.24 58.6169 270.2V275H57.1609V266.216H58.6169V267.704ZM71.0196 270.248C71.0196 270.557 70.9982 270.845 70.9556 271.112H63.9636C64.0062 271.987 64.2782 272.68 64.7796 273.192C65.2916 273.693 65.9422 273.944 66.7316 273.944C67.3289 273.944 67.8302 273.811 68.2356 273.544C68.6516 273.277 68.9556 272.925 69.1476 272.488H70.7156C70.4382 273.256 69.9582 273.891 69.2756 274.392C68.6036 274.893 67.7556 275.144 66.7316 275.144C65.9102 275.144 65.1742 274.957 64.5236 274.584C63.8836 274.211 63.3822 273.683 63.0196 273C62.6569 272.307 62.4756 271.512 62.4756 270.616C62.4756 269.709 62.6569 268.915 63.0196 268.232C63.3822 267.539 63.8942 267.005 64.5556 266.632C65.2169 266.259 65.9796 266.072 66.8436 266.072C67.6649 266.072 68.3902 266.253 69.0196 266.616C69.6489 266.979 70.1396 267.475 70.4916 268.104C70.8436 268.733 71.0196 269.448 71.0196 270.248ZM69.4996 270.056C69.4996 269.491 69.3769 269 69.1316 268.584C68.8862 268.157 68.5502 267.832 68.1236 267.608C67.7076 267.384 67.2436 267.272 66.7316 267.272C65.9742 267.272 65.3396 267.523 64.8276 268.024C64.3156 268.515 64.0329 269.192 63.9796 270.056H69.4996ZM76.4488 266.072C77.1955 266.072 77.8461 266.248 78.4008 266.6C78.9661 266.952 79.3928 267.411 79.6808 267.976V266.216H81.1528V275H79.6808V273.208C79.3928 273.784 78.9661 274.253 78.4008 274.616C77.8461 274.968 77.1955 275.144 76.4488 275.144C75.6595 275.144 74.9448 274.952 74.3048 274.568C73.6755 274.173 73.1741 273.629 72.8008 272.936C72.4381 272.232 72.2568 271.437 72.2568 270.552C72.2568 269.667 72.4381 268.888 72.8008 268.216C73.1741 267.533 73.6755 267.005 74.3048 266.632C74.9448 266.259 75.6595 266.072 76.4488 266.072ZM76.7048 267.336C76.1821 267.336 75.6915 267.464 75.2328 267.72C74.7848 267.976 74.4221 268.349 74.1448 268.84C73.8781 269.32 73.7448 269.891 73.7448 270.552C73.7448 271.213 73.8781 271.8 74.1448 272.312C74.4221 272.813 74.7848 273.203 75.2328 273.48C75.6915 273.757 76.1821 273.896 76.7048 273.896C77.2381 273.896 77.7288 273.763 78.1768 273.496C78.6355 273.229 78.9981 272.851 79.2648 272.36C79.5421 271.859 79.6808 271.277 79.6808 270.616C79.6808 269.955 79.5421 269.379 79.2648 268.888C78.9981 268.387 78.6355 268.003 78.1768 267.736C77.7288 267.469 77.2381 267.336 76.7048 267.336ZM87.6316 273.816V275H86.1596C85.4129 275 84.8422 274.819 84.4476 274.456C84.0636 274.093 83.8716 273.523 83.8716 272.744V267.4H82.7356V266.216H83.8716V264.04H85.3436V266.216H87.6156V267.4H85.3436V272.744C85.3436 273.139 85.4236 273.416 85.5836 273.576C85.7436 273.736 86.0262 273.816 86.4316 273.816H87.6316ZM97.2071 270.248C97.2071 270.557 97.1857 270.845 97.1431 271.112H90.1511C90.1937 271.987 90.4657 272.68 90.9671 273.192C91.4791 273.693 92.1297 273.944 92.9191 273.944C93.5164 273.944 94.0177 273.811 94.4231 273.544C94.8391 273.277 95.1431 272.925 95.3351 272.488H96.9031C96.6257 273.256 96.1457 273.891 95.4631 274.392C94.7911 274.893 93.9431 275.144 92.9191 275.144C92.0977 275.144 91.3617 274.957 90.7111 274.584C90.0711 274.211 89.5697 273.683 89.2071 273C88.8444 272.307 88.6631 271.512 88.6631 270.616C88.6631 269.709 88.8444 268.915 89.2071 268.232C89.5697 267.539 90.0817 267.005 90.7431 266.632C91.4044 266.259 92.1671 266.072 93.0311 266.072C93.8524 266.072 94.5777 266.253 95.2071 266.616C95.8364 266.979 96.3271 267.475 96.6791 268.104C97.0311 268.733 97.2071 269.448 97.2071 270.248ZM95.6871 270.056C95.6871 269.491 95.5644 269 95.3191 268.584C95.0737 268.157 94.7377 267.832 94.3111 267.608C93.8951 267.384 93.4311 267.272 92.9191 267.272C92.1617 267.272 91.5271 267.523 91.0151 268.024C90.5031 268.515 90.2204 269.192 90.1671 270.056H95.6871ZM105.273 273.88H109.161V275H103.817V263.912H105.273V273.88ZM114.293 266.072C115.039 266.072 115.69 266.248 116.245 266.6C116.81 266.952 117.237 267.411 117.525 267.976V266.216H118.997V275H117.525V273.208C117.237 273.784 116.81 274.253 116.245 274.616C115.69 274.968 115.039 275.144 114.293 275.144C113.503 275.144 112.789 274.952 112.149 274.568C111.519 274.173 111.018 273.629 110.645 272.936C110.282 272.232 110.101 271.437 110.101 270.552C110.101 269.667 110.282 268.888 110.645 268.216C111.018 267.533 111.519 267.005 112.149 266.632C112.789 266.259 113.503 266.072 114.293 266.072ZM114.549 267.336C114.026 267.336 113.535 267.464 113.077 267.72C112.629 267.976 112.266 268.349 111.989 268.84C111.722 269.32 111.589 269.891 111.589 270.552C111.589 271.213 111.722 271.8 111.989 272.312C112.266 272.813 112.629 273.203 113.077 273.48C113.535 273.757 114.026 273.896 114.549 273.896C115.082 273.896 115.573 273.763 116.021 273.496C116.479 273.229 116.842 272.851 117.109 272.36C117.386 271.859 117.525 271.277 117.525 270.616C117.525 269.955 117.386 269.379 117.109 268.888C116.842 268.387 116.479 268.003 116.021 267.736C115.573 267.469 115.082 267.336 114.549 267.336ZM126.099 266.072C126.889 266.072 127.598 266.259 128.227 266.632C128.867 267.005 129.369 267.533 129.731 268.216C130.105 268.888 130.291 269.667 130.291 270.552C130.291 271.437 130.105 272.232 129.731 272.936C129.369 273.629 128.867 274.173 128.227 274.568C127.598 274.952 126.889 275.144 126.099 275.144C125.353 275.144 124.697 274.968 124.131 274.616C123.577 274.253 123.15 273.784 122.851 273.208V275H121.395V263.16H122.851V267.976C123.15 267.411 123.577 266.952 124.131 266.6C124.697 266.248 125.353 266.072 126.099 266.072ZM125.811 267.336C125.289 267.336 124.798 267.469 124.339 267.736C123.891 268.003 123.529 268.387 123.251 268.888C122.985 269.379 122.851 269.955 122.851 270.616C122.851 271.277 122.985 271.859 123.251 272.36C123.529 272.851 123.891 273.229 124.339 273.496C124.798 273.763 125.289 273.896 125.811 273.896C126.334 273.896 126.825 273.763 127.283 273.496C127.742 273.219 128.105 272.824 128.371 272.312C128.649 271.8 128.787 271.213 128.787 270.552C128.787 269.891 128.649 269.32 128.371 268.84C128.105 268.349 127.742 267.976 127.283 267.72C126.835 267.464 126.345 267.336 125.811 267.336ZM135.97 266.072C136.802 266.072 137.554 266.259 138.226 266.632C138.898 267.005 139.426 267.539 139.81 268.232C140.205 268.925 140.402 269.72 140.402 270.616C140.402 271.501 140.199 272.291 139.794 272.984C139.389 273.667 138.839 274.2 138.146 274.584C137.453 274.957 136.685 275.144 135.842 275.144C135.021 275.144 134.279 274.957 133.618 274.584C132.967 274.211 132.455 273.683 132.082 273C131.719 272.307 131.538 271.512 131.538 270.616C131.538 269.709 131.73 268.915 132.114 268.232C132.509 267.539 133.042 267.005 133.714 266.632C134.386 266.259 135.138 266.072 135.97 266.072ZM135.922 267.272C135.389 267.272 134.903 267.4 134.466 267.656C134.029 267.912 133.677 268.291 133.41 268.792C133.154 269.293 133.026 269.901 133.026 270.616C133.026 271.32 133.149 271.923 133.394 272.424C133.65 272.925 133.991 273.304 134.418 273.56C134.845 273.816 135.319 273.944 135.842 273.944C136.375 273.944 136.871 273.816 137.33 273.56C137.799 273.293 138.178 272.909 138.466 272.408C138.754 271.907 138.898 271.309 138.898 270.616C138.898 269.912 138.759 269.309 138.482 268.808C138.215 268.296 137.853 267.912 137.394 267.656C136.946 267.4 136.455 267.272 135.922 267.272ZM143.679 267.704C144.202 266.616 145.093 266.072 146.351 266.072V267.592H145.967C145.221 267.592 144.65 267.789 144.255 268.184C143.871 268.568 143.679 269.24 143.679 270.2V275H142.223V266.216H143.679V267.704ZM157.983 263.8C159.018 263.8 159.962 264.04 160.815 264.52C161.679 265 162.362 265.672 162.863 266.536C163.364 267.389 163.615 268.36 163.615 269.448C163.615 270.525 163.364 271.496 162.863 272.36C162.362 273.224 161.679 273.901 160.815 274.392C159.962 274.872 159.018 275.112 157.983 275.112C156.948 275.112 155.999 274.872 155.135 274.392C154.271 273.901 153.588 273.224 153.087 272.36C152.586 271.496 152.335 270.525 152.335 269.448C152.335 268.36 152.586 267.389 153.087 266.536C153.588 265.672 154.271 265 155.135 264.52C155.999 264.04 156.948 263.8 157.983 263.8ZM157.983 265.096C157.194 265.096 156.479 265.277 155.839 265.64C155.21 265.992 154.714 266.499 154.351 267.16C153.988 267.821 153.807 268.584 153.807 269.448C153.807 270.312 153.988 271.075 154.351 271.736C154.714 272.397 155.21 272.909 155.839 273.272C156.479 273.635 157.194 273.816 157.983 273.816C158.772 273.816 159.482 273.635 160.111 273.272C160.74 272.909 161.231 272.397 161.583 271.736C161.946 271.075 162.127 270.312 162.127 269.448C162.127 268.584 161.946 267.821 161.583 267.16C161.231 266.499 160.74 265.992 160.111 265.64C159.482 265.277 158.772 265.096 157.983 265.096ZM173.075 266.216V275H171.619V273.592C171.331 274.104 170.936 274.493 170.435 274.76C169.933 275.016 169.373 275.144 168.755 275.144C168.125 275.144 167.549 275.005 167.027 274.728C166.515 274.44 166.104 274.019 165.795 273.464C165.496 272.909 165.347 272.232 165.347 271.432V266.216H166.787V271.192C166.787 272.067 167 272.739 167.427 273.208C167.864 273.667 168.456 273.896 169.203 273.896C169.949 273.896 170.536 273.667 170.963 273.208C171.4 272.739 171.619 272.067 171.619 271.192V266.216H173.075ZM179.553 273.816V275H178.081C177.335 275 176.764 274.819 176.369 274.456C175.985 274.093 175.793 273.523 175.793 272.744V267.4H174.657V266.216H175.793V264.04H177.265V266.216H179.537V267.4H177.265V272.744C177.265 273.139 177.345 273.416 177.505 273.576C177.665 273.736 177.948 273.816 178.353 273.816H179.553ZM185.241 273.816V275H183.769C183.022 275 182.452 274.819 182.057 274.456C181.673 274.093 181.481 273.523 181.481 272.744V267.4H180.345V266.216H181.481V264.04H182.953V266.216H185.225V267.4H182.953V272.744C182.953 273.139 183.033 273.416 183.193 273.576C183.353 273.736 183.636 273.816 184.041 273.816H185.241ZM194.496 266.216V275H193.04V273.592C192.752 274.104 192.358 274.493 191.856 274.76C191.355 275.016 190.795 275.144 190.176 275.144C189.547 275.144 188.971 275.005 188.448 274.728C187.936 274.44 187.526 274.019 187.216 273.464C186.918 272.909 186.768 272.232 186.768 271.432V266.216H188.208V271.192C188.208 272.067 188.422 272.739 188.848 273.208C189.286 273.667 189.878 273.896 190.624 273.896C191.371 273.896 191.958 273.667 192.384 273.208C192.822 272.739 193.04 272.067 193.04 271.192V266.216H194.496ZM198.351 267.704C198.874 266.616 199.765 266.072 201.023 266.072V267.592H200.639C199.893 267.592 199.322 267.789 198.927 268.184C198.543 268.568 198.351 269.24 198.351 270.2V275H196.895V266.216H198.351V267.704ZM207.106 266.072C207.735 266.072 208.306 266.216 208.818 266.504C209.341 266.781 209.751 267.203 210.05 267.768C210.359 268.323 210.514 269 210.514 269.8V275H209.074V270.04C209.074 269.155 208.861 268.483 208.434 268.024C208.007 267.565 207.415 267.336 206.658 267.336C205.911 267.336 205.319 267.565 204.882 268.024C204.455 268.483 204.242 269.155 204.242 270.04V275H202.786V266.216H204.242V267.64C204.53 267.128 204.925 266.739 205.426 266.472C205.927 266.205 206.487 266.072 207.106 266.072Z" fill="black"/>
</svg>
