<svg width="258" height="281" viewBox="0 0 258 281" fill="none" xmlns="http://www.w3.org/2000/svg">
<path d="M163.621 22.35C179.838 26.2566 203.069 25.797 214.903 35.6783C226.519 45.7895 226.519 66.2415 222.793 85.5446C219.286 104.618 211.835 122.772 199.562 134.951C187.29 147.131 170.415 153.565 154.197 154.714C137.98 156.093 122.639 152.186 105.545 149.429C88.2313 146.671 69.1648 145.062 55.358 134.951C41.332 124.84 32.785 106.226 33.0041 88.3022C33.0041 70.1481 41.9895 52.4536 51.6323 37.0571C61.2752 21.6606 71.7947 8.79192 84.7248 3.27676C97.655 -2.2384 113.215 -0.170217 125.707 4.88535C137.98 10.1707 147.184 18.4435 163.621 22.35Z" fill="#F66464"/>
<rect y="137" width="258" height="144" rx="28" fill="#EFEDED"/>
<path d="M60.1704 170.8C61.3224 170.8 62.3464 171.072 63.2424 171.616C64.1491 172.16 64.8158 172.944 65.2424 173.968H63.4824C63.1624 173.36 62.7144 172.896 62.1384 172.576C61.5624 172.256 60.9064 172.096 60.1704 172.096C59.3811 172.096 58.6664 172.277 58.0264 172.64C57.3971 172.992 56.9011 173.499 56.5384 174.16C56.1864 174.821 56.0104 175.584 56.0104 176.448C56.0104 177.312 56.1864 178.075 56.5384 178.736C56.9011 179.397 57.3971 179.909 58.0264 180.272C58.6664 180.635 59.3811 180.816 60.1704 180.816C60.9064 180.816 61.5624 180.656 62.1384 180.336C62.7144 180.005 63.1624 179.536 63.4824 178.928H65.2424C64.8158 179.952 64.1491 180.736 63.2424 181.28C62.3464 181.824 61.3224 182.096 60.1704 182.096C59.1358 182.096 58.1864 181.856 57.3224 181.376C56.4584 180.885 55.7758 180.213 55.2744 179.36C54.7731 178.496 54.5224 177.525 54.5224 176.448C54.5224 175.36 54.7731 174.389 55.2744 173.536C55.7758 172.672 56.4584 172 57.3224 171.52C58.1864 171.04 59.1358 170.8 60.1704 170.8ZM75.1839 173.216V182H73.7279V180.592C73.4399 181.104 73.0453 181.493 72.5439 181.76C72.0426 182.016 71.4826 182.144 70.8639 182.144C70.2346 182.144 69.6586 182.005 69.1359 181.728C68.6239 181.44 68.2133 181.019 67.9039 180.464C67.6053 179.909 67.4559 179.232 67.4559 178.432V173.216H68.8959V178.192C68.8959 179.067 69.1093 179.739 69.5359 180.208C69.9733 180.667 70.5653 180.896 71.3119 180.896C72.0586 180.896 72.6453 180.667 73.0719 180.208C73.5093 179.739 73.7279 179.067 73.7279 178.192V173.216H75.1839ZM79.0388 174.704C79.5615 173.616 80.4521 173.072 81.7108 173.072V174.592H81.3268C80.5801 174.592 80.0095 174.789 79.6148 175.184C79.2308 175.568 79.0388 176.24 79.0388 177.2V182H77.5828V173.216H79.0388V174.704ZM84.9294 174.704C85.4521 173.616 86.3428 173.072 87.6014 173.072V174.592H87.2174C86.4708 174.592 85.9001 174.789 85.5054 175.184C85.1214 175.568 84.9294 176.24 84.9294 177.2V182H83.4734V173.216H84.9294V174.704ZM97.3321 177.248C97.3321 177.557 97.3107 177.845 97.2681 178.112H90.2761C90.3187 178.987 90.5907 179.68 91.0921 180.192C91.6041 180.693 92.2547 180.944 93.0441 180.944C93.6414 180.944 94.1427 180.811 94.5481 180.544C94.9641 180.277 95.2681 179.925 95.4601 179.488H97.0281C96.7507 180.256 96.2707 180.891 95.5881 181.392C94.9161 181.893 94.0681 182.144 93.0441 182.144C92.2227 182.144 91.4867 181.957 90.8361 181.584C90.1961 181.211 89.6947 180.683 89.3321 180C88.9694 179.307 88.7881 178.512 88.7881 177.616C88.7881 176.709 88.9694 175.915 89.3321 175.232C89.6947 174.539 90.2067 174.005 90.8681 173.632C91.5294 173.259 92.2921 173.072 93.1561 173.072C93.9774 173.072 94.7027 173.253 95.3321 173.616C95.9614 173.979 96.4521 174.475 96.8041 175.104C97.1561 175.733 97.3321 176.448 97.3321 177.248ZM95.8121 177.056C95.8121 176.491 95.6894 176 95.4441 175.584C95.1987 175.157 94.8627 174.832 94.4361 174.608C94.0201 174.384 93.5561 174.272 93.0441 174.272C92.2867 174.272 91.6521 174.523 91.1401 175.024C90.6281 175.515 90.3454 176.192 90.2921 177.056H95.8121ZM103.465 173.072C104.095 173.072 104.665 173.216 105.177 173.504C105.7 173.781 106.111 174.203 106.409 174.768C106.719 175.323 106.873 176 106.873 176.8V182H105.433V177.04C105.433 176.155 105.22 175.483 104.793 175.024C104.367 174.565 103.775 174.336 103.017 174.336C102.271 174.336 101.679 174.565 101.241 175.024C100.815 175.483 100.601 176.155 100.601 177.04V182H99.1453V173.216H100.601V174.64C100.889 174.128 101.284 173.739 101.785 173.472C102.287 173.205 102.847 173.072 103.465 173.072ZM113.272 180.816V182H111.8C111.054 182 110.483 181.819 110.088 181.456C109.704 181.093 109.512 180.523 109.512 179.744V174.4H108.376V173.216H109.512V171.04H110.984V173.216H113.256V174.4H110.984V179.744C110.984 180.139 111.064 180.416 111.224 180.576C111.384 180.736 111.667 180.816 112.072 180.816H113.272ZM116.336 170.16V182H114.88V170.16H116.336ZM119.331 173.216L122.019 180.32L124.755 173.216H126.259L120.963 186.112H119.459L121.203 181.856L117.731 173.216H119.331ZM133.034 173.216L135.722 180.32L138.458 173.216H139.962L134.666 186.112H133.162L134.906 181.856L131.434 173.216H133.034ZM145.204 173.072C146.036 173.072 146.788 173.259 147.46 173.632C148.132 174.005 148.66 174.539 149.044 175.232C149.439 175.925 149.636 176.72 149.636 177.616C149.636 178.501 149.434 179.291 149.028 179.984C148.623 180.667 148.074 181.2 147.38 181.584C146.687 181.957 145.919 182.144 145.076 182.144C144.255 182.144 143.514 181.957 142.852 181.584C142.202 181.211 141.69 180.683 141.316 180C140.954 179.307 140.772 178.512 140.772 177.616C140.772 176.709 140.964 175.915 141.348 175.232C141.743 174.539 142.276 174.005 142.948 173.632C143.62 173.259 144.372 173.072 145.204 173.072ZM145.156 174.272C144.623 174.272 144.138 174.4 143.7 174.656C143.263 174.912 142.911 175.291 142.644 175.792C142.388 176.293 142.26 176.901 142.26 177.616C142.26 178.32 142.383 178.923 142.628 179.424C142.884 179.925 143.226 180.304 143.652 180.56C144.079 180.816 144.554 180.944 145.076 180.944C145.61 180.944 146.106 180.816 146.564 180.56C147.034 180.293 147.412 179.909 147.7 179.408C147.988 178.907 148.132 178.309 148.132 177.616C148.132 176.912 147.994 176.309 147.716 175.808C147.45 175.296 147.087 174.912 146.628 174.656C146.18 174.4 145.69 174.272 145.156 174.272ZM159.106 173.216V182H157.65V180.592C157.362 181.104 156.967 181.493 156.466 181.76C155.964 182.016 155.404 182.144 154.786 182.144C154.156 182.144 153.58 182.005 153.058 181.728C152.546 181.44 152.135 181.019 151.826 180.464C151.527 179.909 151.378 179.232 151.378 178.432V173.216H152.818V178.192C152.818 179.067 153.031 179.739 153.458 180.208C153.895 180.667 154.487 180.896 155.234 180.896C155.98 180.896 156.567 180.667 156.994 180.208C157.431 179.739 157.65 179.067 157.65 178.192V173.216H159.106ZM169.918 173.072C170.664 173.072 171.315 173.248 171.87 173.6C172.435 173.952 172.862 174.411 173.15 174.976V170.16H174.622V182H173.15V180.208C172.862 180.784 172.435 181.253 171.87 181.616C171.315 181.968 170.664 182.144 169.918 182.144C169.128 182.144 168.414 181.952 167.774 181.568C167.144 181.173 166.643 180.629 166.27 179.936C165.907 179.232 165.726 178.437 165.726 177.552C165.726 176.667 165.907 175.888 166.27 175.216C166.643 174.533 167.144 174.005 167.774 173.632C168.414 173.259 169.128 173.072 169.918 173.072ZM170.174 174.336C169.651 174.336 169.16 174.464 168.702 174.72C168.254 174.976 167.891 175.349 167.614 175.84C167.347 176.32 167.214 176.891 167.214 177.552C167.214 178.213 167.347 178.8 167.614 179.312C167.891 179.813 168.254 180.203 168.702 180.48C169.16 180.757 169.651 180.896 170.174 180.896C170.707 180.896 171.198 180.763 171.646 180.496C172.104 180.229 172.467 179.851 172.734 179.36C173.011 178.859 173.15 178.277 173.15 177.616C173.15 176.955 173.011 176.379 172.734 175.888C172.467 175.387 172.104 175.003 171.646 174.736C171.198 174.469 170.707 174.336 170.174 174.336ZM180.876 173.072C181.708 173.072 182.46 173.259 183.132 173.632C183.804 174.005 184.332 174.539 184.716 175.232C185.111 175.925 185.308 176.72 185.308 177.616C185.308 178.501 185.106 179.291 184.7 179.984C184.295 180.667 183.746 181.2 183.052 181.584C182.359 181.957 181.591 182.144 180.748 182.144C179.927 182.144 179.186 181.957 178.524 181.584C177.874 181.211 177.362 180.683 176.988 180C176.626 179.307 176.444 178.512 176.444 177.616C176.444 176.709 176.636 175.915 177.02 175.232C177.415 174.539 177.948 174.005 178.62 173.632C179.292 173.259 180.044 173.072 180.876 173.072ZM180.828 174.272C180.295 174.272 179.81 174.4 179.372 174.656C178.935 174.912 178.583 175.291 178.316 175.792C178.06 176.293 177.932 176.901 177.932 177.616C177.932 178.32 178.055 178.923 178.3 179.424C178.556 179.925 178.898 180.304 179.324 180.56C179.751 180.816 180.226 180.944 180.748 180.944C181.282 180.944 181.778 180.816 182.236 180.56C182.706 180.293 183.084 179.909 183.372 179.408C183.66 178.907 183.804 178.309 183.804 177.616C183.804 176.912 183.666 176.309 183.388 175.808C183.122 175.296 182.759 174.912 182.3 174.656C181.852 174.4 181.362 174.272 180.828 174.272ZM191.45 173.072C192.079 173.072 192.65 173.216 193.162 173.504C193.684 173.781 194.095 174.203 194.394 174.768C194.703 175.323 194.858 176 194.858 176.8V182H193.418V177.04C193.418 176.155 193.204 175.483 192.778 175.024C192.351 174.565 191.759 174.336 191.002 174.336C190.255 174.336 189.663 174.565 189.226 175.024C188.799 175.483 188.586 176.155 188.586 177.04V182H187.13V173.216H188.586V174.64C188.874 174.128 189.268 173.739 189.77 173.472C190.271 173.205 190.831 173.072 191.45 173.072ZM197.833 169.472C197.961 170.027 198.025 170.517 198.025 170.944C198.025 171.573 197.886 172.032 197.609 172.32C197.342 172.608 196.942 172.752 196.409 172.752V172.048C196.665 172.048 196.851 171.984 196.969 171.856C197.097 171.717 197.161 171.504 197.161 171.216V170.848H196.377V169.472H197.833ZM203.694 180.816V182H202.222C201.475 182 200.905 181.819 200.51 181.456C200.126 181.093 199.934 180.523 199.934 179.744V174.4H198.798V173.216H199.934V171.04H201.406V173.216H203.678V174.4H201.406V179.744C201.406 180.139 201.486 180.416 201.646 180.576C201.806 180.736 202.089 180.816 202.494 180.816H203.694ZM57.02 197.072C57.6493 197.072 58.22 197.216 58.732 197.504C59.2547 197.781 59.6653 198.203 59.964 198.768C60.2733 199.323 60.428 200 60.428 200.8V206H58.988V201.04C58.988 200.155 58.7747 199.483 58.348 199.024C57.9213 198.565 57.3293 198.336 56.572 198.336C55.8253 198.336 55.2333 198.565 54.796 199.024C54.3693 199.483 54.156 200.155 54.156 201.04V206H52.7V194.16H54.156V198.64C54.444 198.128 54.8387 197.739 55.34 197.472C55.8413 197.205 56.4013 197.072 57.02 197.072ZM66.3629 197.072C67.1095 197.072 67.7602 197.248 68.3149 197.6C68.8802 197.952 69.3069 198.411 69.5949 198.976V197.216H71.0669V206H69.5949V204.208C69.3069 204.784 68.8802 205.253 68.3149 205.616C67.7602 205.968 67.1095 206.144 66.3629 206.144C65.5735 206.144 64.8589 205.952 64.2189 205.568C63.5895 205.173 63.0882 204.629 62.7149 203.936C62.3522 203.232 62.1709 202.437 62.1709 201.552C62.1709 200.667 62.3522 199.888 62.7149 199.216C63.0882 198.533 63.5895 198.005 64.2189 197.632C64.8589 197.259 65.5735 197.072 66.3629 197.072ZM66.6189 198.336C66.0962 198.336 65.6055 198.464 65.1469 198.72C64.6989 198.976 64.3362 199.349 64.0589 199.84C63.7922 200.32 63.6589 200.891 63.6589 201.552C63.6589 202.213 63.7922 202.8 64.0589 203.312C64.3362 203.813 64.6989 204.203 65.1469 204.48C65.6055 204.757 66.0962 204.896 66.6189 204.896C67.1522 204.896 67.6429 204.763 68.0909 204.496C68.5495 204.229 68.9122 203.851 69.1789 203.36C69.4562 202.859 69.5949 202.277 69.5949 201.616C69.5949 200.955 69.4562 200.379 69.1789 199.888C68.9122 199.387 68.5495 199.003 68.0909 198.736C67.6429 198.469 67.1522 198.336 66.6189 198.336ZM76.6976 204.64L79.4016 197.216H80.9696L77.5296 206H75.8816L72.4576 197.216H74.0096L76.6976 204.64ZM90.3243 201.248C90.3243 201.557 90.3029 201.845 90.2603 202.112H83.2682C83.3109 202.987 83.5829 203.68 84.0843 204.192C84.5963 204.693 85.2469 204.944 86.0363 204.944C86.6336 204.944 87.1349 204.811 87.5403 204.544C87.9563 204.277 88.2603 203.925 88.4523 203.488H90.0203C89.7429 204.256 89.2629 204.891 88.5803 205.392C87.9083 205.893 87.0603 206.144 86.0363 206.144C85.2149 206.144 84.4789 205.957 83.8283 205.584C83.1883 205.211 82.6869 204.683 82.3243 204C81.9616 203.307 81.7803 202.512 81.7803 201.616C81.7803 200.709 81.9616 199.915 82.3243 199.232C82.6869 198.539 83.1989 198.005 83.8603 197.632C84.5216 197.259 85.2843 197.072 86.1483 197.072C86.9696 197.072 87.6949 197.253 88.3243 197.616C88.9536 197.979 89.4443 198.475 89.7963 199.104C90.1483 199.733 90.3243 200.448 90.3243 201.248ZM88.8043 201.056C88.8043 200.491 88.6816 200 88.4363 199.584C88.1909 199.157 87.8549 198.832 87.4283 198.608C87.0123 198.384 86.5483 198.272 86.0363 198.272C85.2789 198.272 84.6443 198.523 84.1323 199.024C83.6203 199.515 83.3376 200.192 83.2843 201.056H88.8043ZM98.3904 194.16V206H96.9344V194.16H98.3904ZM104.41 197.072C105.156 197.072 105.807 197.248 106.362 197.6C106.927 197.952 107.354 198.411 107.642 198.976V197.216H109.114V206H107.642V204.208C107.354 204.784 106.927 205.253 106.362 205.616C105.807 205.968 105.156 206.144 104.41 206.144C103.62 206.144 102.906 205.952 102.266 205.568C101.636 205.173 101.135 204.629 100.762 203.936C100.399 203.232 100.218 202.437 100.218 201.552C100.218 200.667 100.399 199.888 100.762 199.216C101.135 198.533 101.636 198.005 102.266 197.632C102.906 197.259 103.62 197.072 104.41 197.072ZM104.666 198.336C104.143 198.336 103.652 198.464 103.194 198.72C102.746 198.976 102.383 199.349 102.106 199.84C101.839 200.32 101.706 200.891 101.706 201.552C101.706 202.213 101.839 202.8 102.106 203.312C102.383 203.813 102.746 204.203 103.194 204.48C103.652 204.757 104.143 204.896 104.666 204.896C105.199 204.896 105.69 204.763 106.138 204.496C106.596 204.229 106.959 203.851 107.226 203.36C107.503 202.859 107.642 202.277 107.642 201.616C107.642 200.955 107.503 200.379 107.226 199.888C106.959 199.387 106.596 199.003 106.138 198.736C105.69 198.469 105.199 198.336 104.666 198.336ZM116.217 197.072C117.006 197.072 117.715 197.259 118.345 197.632C118.985 198.005 119.486 198.533 119.849 199.216C120.222 199.888 120.409 200.667 120.409 201.552C120.409 202.437 120.222 203.232 119.849 203.936C119.486 204.629 118.985 205.173 118.345 205.568C117.715 205.952 117.006 206.144 116.217 206.144C115.47 206.144 114.814 205.968 114.249 205.616C113.694 205.253 113.267 204.784 112.969 204.208V206H111.513V194.16H112.969V198.976C113.267 198.411 113.694 197.952 114.249 197.6C114.814 197.248 115.47 197.072 116.217 197.072ZM115.929 198.336C115.406 198.336 114.915 198.469 114.457 198.736C114.009 199.003 113.646 199.387 113.369 199.888C113.102 200.379 112.969 200.955 112.969 201.616C112.969 202.277 113.102 202.859 113.369 203.36C113.646 203.851 114.009 204.229 114.457 204.496C114.915 204.763 115.406 204.896 115.929 204.896C116.451 204.896 116.942 204.763 117.401 204.496C117.859 204.219 118.222 203.824 118.489 203.312C118.766 202.8 118.905 202.213 118.905 201.552C118.905 200.891 118.766 200.32 118.489 199.84C118.222 199.349 117.859 198.976 117.401 198.72C116.953 198.464 116.462 198.336 115.929 198.336ZM126.087 197.072C126.919 197.072 127.671 197.259 128.343 197.632C129.015 198.005 129.543 198.539 129.927 199.232C130.322 199.925 130.519 200.72 130.519 201.616C130.519 202.501 130.317 203.291 129.911 203.984C129.506 204.667 128.957 205.2 128.263 205.584C127.57 205.957 126.802 206.144 125.959 206.144C125.138 206.144 124.397 205.957 123.735 205.584C123.085 205.211 122.573 204.683 122.199 204C121.837 203.307 121.655 202.512 121.655 201.616C121.655 200.709 121.847 199.915 122.231 199.232C122.626 198.539 123.159 198.005 123.831 197.632C124.503 197.259 125.255 197.072 126.087 197.072ZM126.039 198.272C125.506 198.272 125.021 198.4 124.583 198.656C124.146 198.912 123.794 199.291 123.527 199.792C123.271 200.293 123.143 200.901 123.143 201.616C123.143 202.32 123.266 202.923 123.511 203.424C123.767 203.925 124.109 204.304 124.535 204.56C124.962 204.816 125.437 204.944 125.959 204.944C126.493 204.944 126.989 204.816 127.447 204.56C127.917 204.293 128.295 203.909 128.583 203.408C128.871 202.907 129.015 202.309 129.015 201.616C129.015 200.912 128.877 200.309 128.599 199.808C128.333 199.296 127.97 198.912 127.511 198.656C127.063 198.4 126.573 198.272 126.039 198.272ZM133.797 198.704C134.319 197.616 135.21 197.072 136.469 197.072V198.592H136.085C135.338 198.592 134.767 198.789 134.373 199.184C133.989 199.568 133.797 200.24 133.797 201.2V206H132.341V197.216H133.797V198.704ZM141.255 197.072C142.205 197.072 142.957 197.323 143.511 197.824C144.066 198.315 144.37 198.992 144.423 199.856H142.919C142.898 199.365 142.733 198.971 142.423 198.672C142.114 198.373 141.687 198.224 141.143 198.224C140.589 198.224 140.151 198.357 139.831 198.624C139.522 198.88 139.367 199.205 139.367 199.6C139.367 199.931 139.463 200.197 139.655 200.4C139.858 200.592 140.103 200.736 140.391 200.832C140.69 200.928 141.09 201.029 141.591 201.136C142.231 201.285 142.743 201.435 143.127 201.584C143.522 201.723 143.858 201.963 144.135 202.304C144.413 202.635 144.551 203.088 144.551 203.664C144.551 204.144 144.413 204.576 144.135 204.96C143.858 205.333 143.469 205.627 142.967 205.84C142.466 206.043 141.89 206.144 141.239 206.144C140.258 206.144 139.469 205.899 138.871 205.408C138.285 204.917 137.965 204.24 137.911 203.376H139.415C139.437 203.867 139.607 204.261 139.927 204.56C140.258 204.848 140.695 204.992 141.239 204.992C141.837 204.992 142.295 204.869 142.615 204.624C142.946 204.379 143.111 204.053 143.111 203.648C143.111 203.317 143.01 203.056 142.807 202.864C142.615 202.661 142.37 202.512 142.071 202.416C141.773 202.309 141.362 202.197 140.839 202.08C140.21 201.941 139.698 201.803 139.303 201.664C138.919 201.515 138.589 201.285 138.311 200.976C138.045 200.667 137.911 200.24 137.911 199.696C137.911 199.216 138.045 198.779 138.311 198.384C138.589 197.979 138.978 197.659 139.479 197.424C139.991 197.189 140.583 197.072 141.255 197.072ZM147.565 204.928C147.704 205.493 147.773 206.011 147.773 206.48C147.773 207.685 147.224 208.288 146.125 208.288V207.584C146.392 207.584 146.584 207.52 146.701 207.392C146.829 207.264 146.893 207.061 146.893 206.784V206.416H146.077V204.928H147.565ZM159.123 197.072C159.912 197.072 160.621 197.259 161.251 197.632C161.891 198.005 162.392 198.533 162.755 199.216C163.128 199.888 163.315 200.667 163.315 201.552C163.315 202.437 163.128 203.232 162.755 203.936C162.392 204.629 161.891 205.173 161.251 205.568C160.621 205.952 159.912 206.144 159.123 206.144C158.376 206.144 157.72 205.968 157.155 205.616C156.6 205.253 156.173 204.784 155.875 204.208V210.16H154.419V197.216H155.875V198.976C156.173 198.411 156.6 197.952 157.155 197.6C157.72 197.248 158.376 197.072 159.123 197.072ZM158.835 198.336C158.312 198.336 157.821 198.469 157.363 198.736C156.915 199.003 156.552 199.387 156.275 199.888C156.008 200.379 155.875 200.955 155.875 201.616C155.875 202.277 156.008 202.859 156.275 203.36C156.552 203.851 156.915 204.229 157.363 204.496C157.821 204.763 158.312 204.896 158.835 204.896C159.357 204.896 159.848 204.763 160.307 204.496C160.765 204.219 161.128 203.824 161.395 203.312C161.672 202.8 161.811 202.213 161.811 201.552C161.811 200.891 161.672 200.32 161.395 199.84C161.128 199.349 160.765 198.976 160.307 198.72C159.859 198.464 159.368 198.336 158.835 198.336ZM166.594 194.16V206H165.138V194.16H166.594ZM176.965 201.248C176.965 201.557 176.944 201.845 176.901 202.112H169.909C169.952 202.987 170.224 203.68 170.725 204.192C171.237 204.693 171.888 204.944 172.677 204.944C173.274 204.944 173.776 204.811 174.181 204.544C174.597 204.277 174.901 203.925 175.093 203.488H176.661C176.384 204.256 175.904 204.891 175.221 205.392C174.549 205.893 173.701 206.144 172.677 206.144C171.856 206.144 171.12 205.957 170.469 205.584C169.829 205.211 169.328 204.683 168.965 204C168.602 203.307 168.421 202.512 168.421 201.616C168.421 200.709 168.602 199.915 168.965 199.232C169.328 198.539 169.84 198.005 170.501 197.632C171.162 197.259 171.925 197.072 172.789 197.072C173.61 197.072 174.336 197.253 174.965 197.616C175.594 197.979 176.085 198.475 176.437 199.104C176.789 199.733 176.965 200.448 176.965 201.248ZM175.445 201.056C175.445 200.491 175.322 200 175.077 199.584C174.832 199.157 174.496 198.832 174.069 198.608C173.653 198.384 173.189 198.272 172.677 198.272C171.92 198.272 171.285 198.523 170.773 199.024C170.261 199.515 169.978 200.192 169.925 201.056H175.445ZM182.394 197.072C183.141 197.072 183.791 197.248 184.346 197.6C184.911 197.952 185.338 198.411 185.626 198.976V197.216H187.098V206H185.626V204.208C185.338 204.784 184.911 205.253 184.346 205.616C183.791 205.968 183.141 206.144 182.394 206.144C181.605 206.144 180.89 205.952 180.25 205.568C179.621 205.173 179.119 204.629 178.746 203.936C178.383 203.232 178.202 202.437 178.202 201.552C178.202 200.667 178.383 199.888 178.746 199.216C179.119 198.533 179.621 198.005 180.25 197.632C180.89 197.259 181.605 197.072 182.394 197.072ZM182.65 198.336C182.127 198.336 181.637 198.464 181.178 198.72C180.73 198.976 180.367 199.349 180.09 199.84C179.823 200.32 179.69 200.891 179.69 201.552C179.69 202.213 179.823 202.8 180.09 203.312C180.367 203.813 180.73 204.203 181.178 204.48C181.637 204.757 182.127 204.896 182.65 204.896C183.183 204.896 183.674 204.763 184.122 204.496C184.581 204.229 184.943 203.851 185.21 203.36C185.487 202.859 185.626 202.277 185.626 201.616C185.626 200.955 185.487 200.379 185.21 199.888C184.943 199.387 184.581 199.003 184.122 198.736C183.674 198.469 183.183 198.336 182.65 198.336ZM192.521 197.072C193.47 197.072 194.222 197.323 194.777 197.824C195.332 198.315 195.636 198.992 195.689 199.856H194.185C194.164 199.365 193.998 198.971 193.689 198.672C193.38 198.373 192.953 198.224 192.409 198.224C191.854 198.224 191.417 198.357 191.097 198.624C190.788 198.88 190.633 199.205 190.633 199.6C190.633 199.931 190.729 200.197 190.921 200.4C191.124 200.592 191.369 200.736 191.657 200.832C191.956 200.928 192.356 201.029 192.857 201.136C193.497 201.285 194.009 201.435 194.393 201.584C194.788 201.723 195.124 201.963 195.401 202.304C195.678 202.635 195.817 203.088 195.817 203.664C195.817 204.144 195.678 204.576 195.401 204.96C195.124 205.333 194.734 205.627 194.233 205.84C193.732 206.043 193.156 206.144 192.505 206.144C191.524 206.144 190.734 205.899 190.137 205.408C189.55 204.917 189.23 204.24 189.177 203.376H190.681C190.702 203.867 190.873 204.261 191.193 204.56C191.524 204.848 191.961 204.992 192.505 204.992C193.102 204.992 193.561 204.869 193.881 204.624C194.212 204.379 194.377 204.053 194.377 203.648C194.377 203.317 194.276 203.056 194.073 202.864C193.881 202.661 193.636 202.512 193.337 202.416C193.038 202.309 192.628 202.197 192.105 202.08C191.476 201.941 190.964 201.803 190.569 201.664C190.185 201.515 189.854 201.285 189.577 200.976C189.31 200.667 189.177 200.24 189.177 199.696C189.177 199.216 189.31 198.779 189.577 198.384C189.854 197.979 190.244 197.659 190.745 197.424C191.257 197.189 191.849 197.072 192.521 197.072ZM205.887 201.248C205.887 201.557 205.865 201.845 205.823 202.112H198.831C198.873 202.987 199.145 203.68 199.647 204.192C200.159 204.693 200.809 204.944 201.599 204.944C202.196 204.944 202.697 204.811 203.103 204.544C203.519 204.277 203.823 203.925 204.015 203.488H205.583C205.305 204.256 204.825 204.891 204.143 205.392C203.471 205.893 202.623 206.144 201.599 206.144C200.777 206.144 200.041 205.957 199.391 205.584C198.751 205.211 198.249 204.683 197.887 204C197.524 203.307 197.343 202.512 197.343 201.616C197.343 200.709 197.524 199.915 197.887 199.232C198.249 198.539 198.761 198.005 199.423 197.632C200.084 197.259 200.847 197.072 201.711 197.072C202.532 197.072 203.257 197.253 203.887 197.616C204.516 197.979 205.007 198.475 205.359 199.104C205.711 199.733 205.887 200.448 205.887 201.248ZM204.367 201.056C204.367 200.491 204.244 200 203.999 199.584C203.753 199.157 203.417 198.832 202.991 198.608C202.575 198.384 202.111 198.272 201.599 198.272C200.841 198.272 200.207 198.523 199.695 199.024C199.183 199.515 198.9 200.192 198.847 201.056H204.367ZM80.8956 222.072C81.9516 222.072 82.8103 222.317 83.4716 222.808C84.1436 223.299 84.613 223.997 84.8796 224.904H83.3116C83.141 224.392 82.8476 223.992 82.4316 223.704C82.0156 223.416 81.5036 223.272 80.8956 223.272C80.0636 223.272 79.3916 223.565 78.8796 224.152C78.3783 224.728 78.1276 225.549 78.1276 226.616C78.1276 227.672 78.3783 228.493 78.8796 229.08C79.3916 229.656 80.0636 229.944 80.8956 229.944C81.5143 229.944 82.0263 229.805 82.4316 229.528C82.837 229.251 83.1303 228.845 83.3116 228.312H84.8796C84.613 229.176 84.1383 229.864 83.4556 230.376C82.7836 230.888 81.9303 231.144 80.8956 231.144C80.0743 231.144 79.3383 230.957 78.6876 230.584C78.0476 230.211 77.5463 229.683 77.1836 229C76.821 228.307 76.6396 227.512 76.6396 226.616C76.6396 225.709 76.821 224.915 77.1836 224.232C77.5463 223.539 78.0476 223.005 78.6876 222.632C79.3276 222.259 80.0636 222.072 80.8956 222.072ZM88.2654 223.704C88.788 222.616 89.6787 222.072 90.9374 222.072V223.592H90.5534C89.8067 223.592 89.236 223.789 88.8414 224.184C88.4574 224.568 88.2654 225.24 88.2654 226.2V231H86.8094V222.216H88.2654V223.704ZM100.668 226.248C100.668 226.557 100.647 226.845 100.604 227.112H93.612C93.6547 227.987 93.9267 228.68 94.428 229.192C94.94 229.693 95.5907 229.944 96.38 229.944C96.9773 229.944 97.4787 229.811 97.884 229.544C98.3 229.277 98.604 228.925 98.796 228.488H100.364C100.087 229.256 99.6067 229.891 98.924 230.392C98.252 230.893 97.404 231.144 96.38 231.144C95.5587 231.144 94.8227 230.957 94.172 230.584C93.532 230.211 93.0307 229.683 92.668 229C92.3053 228.307 92.124 227.512 92.124 226.616C92.124 225.709 92.3053 224.915 92.668 224.232C93.0307 223.539 93.5427 223.005 94.204 222.632C94.8653 222.259 95.628 222.072 96.492 222.072C97.3133 222.072 98.0387 222.253 98.668 222.616C99.2973 222.979 99.788 223.475 100.14 224.104C100.492 224.733 100.668 225.448 100.668 226.248ZM99.148 226.056C99.148 225.491 99.0253 225 98.78 224.584C98.5347 224.157 98.1987 223.832 97.772 223.608C97.356 223.384 96.892 223.272 96.38 223.272C95.6227 223.272 94.988 223.523 94.476 224.024C93.964 224.515 93.6813 225.192 93.628 226.056H99.148ZM106.097 222.072C106.844 222.072 107.495 222.248 108.049 222.6C108.615 222.952 109.041 223.411 109.329 223.976V222.216H110.801V231H109.329V229.208C109.041 229.784 108.615 230.253 108.049 230.616C107.495 230.968 106.844 231.144 106.097 231.144C105.308 231.144 104.593 230.952 103.953 230.568C103.324 230.173 102.823 229.629 102.449 228.936C102.087 228.232 101.905 227.437 101.905 226.552C101.905 225.667 102.087 224.888 102.449 224.216C102.823 223.533 103.324 223.005 103.953 222.632C104.593 222.259 105.308 222.072 106.097 222.072ZM106.353 223.336C105.831 223.336 105.34 223.464 104.881 223.72C104.433 223.976 104.071 224.349 103.793 224.84C103.527 225.32 103.393 225.891 103.393 226.552C103.393 227.213 103.527 227.8 103.793 228.312C104.071 228.813 104.433 229.203 104.881 229.48C105.34 229.757 105.831 229.896 106.353 229.896C106.887 229.896 107.377 229.763 107.825 229.496C108.284 229.229 108.647 228.851 108.913 228.36C109.191 227.859 109.329 227.277 109.329 226.616C109.329 225.955 109.191 225.379 108.913 224.888C108.647 224.387 108.284 224.003 107.825 223.736C107.377 223.469 106.887 223.336 106.353 223.336ZM117.28 229.816V231H115.808C115.061 231 114.491 230.819 114.096 230.456C113.712 230.093 113.52 229.523 113.52 228.744V223.4H112.384V222.216H113.52V220.04H114.992V222.216H117.264V223.4H114.992V228.744C114.992 229.139 115.072 229.416 115.232 229.576C115.392 229.736 115.675 229.816 116.08 229.816H117.28ZM126.856 226.248C126.856 226.557 126.834 226.845 126.792 227.112H119.799C119.842 227.987 120.114 228.68 120.616 229.192C121.128 229.693 121.778 229.944 122.568 229.944C123.165 229.944 123.666 229.811 124.072 229.544C124.488 229.277 124.792 228.925 124.984 228.488H126.552C126.274 229.256 125.794 229.891 125.112 230.392C124.44 230.893 123.592 231.144 122.568 231.144C121.746 231.144 121.01 230.957 120.36 230.584C119.72 230.211 119.218 229.683 118.856 229C118.493 228.307 118.312 227.512 118.312 226.616C118.312 225.709 118.493 224.915 118.856 224.232C119.218 223.539 119.73 223.005 120.392 222.632C121.053 222.259 121.816 222.072 122.68 222.072C123.501 222.072 124.226 222.253 124.856 222.616C125.485 222.979 125.976 223.475 126.328 224.104C126.68 224.733 126.856 225.448 126.856 226.248ZM125.336 226.056C125.336 225.491 125.213 225 124.968 224.584C124.722 224.157 124.386 223.832 123.96 223.608C123.544 223.384 123.08 223.272 122.568 223.272C121.81 223.272 121.176 223.523 120.664 224.024C120.152 224.515 119.869 225.192 119.816 226.056H125.336ZM134.922 219.16V231H133.466V219.16H134.922ZM140.941 222.072C141.688 222.072 142.338 222.248 142.893 222.6C143.458 222.952 143.885 223.411 144.173 223.976V222.216H145.645V231H144.173V229.208C143.885 229.784 143.458 230.253 142.893 230.616C142.338 230.968 141.688 231.144 140.941 231.144C140.152 231.144 139.437 230.952 138.797 230.568C138.168 230.173 137.666 229.629 137.293 228.936C136.93 228.232 136.749 227.437 136.749 226.552C136.749 225.667 136.93 224.888 137.293 224.216C137.666 223.533 138.168 223.005 138.797 222.632C139.437 222.259 140.152 222.072 140.941 222.072ZM141.197 223.336C140.674 223.336 140.184 223.464 139.725 223.72C139.277 223.976 138.914 224.349 138.637 224.84C138.37 225.32 138.237 225.891 138.237 226.552C138.237 227.213 138.37 227.8 138.637 228.312C138.914 228.813 139.277 229.203 139.725 229.48C140.184 229.757 140.674 229.896 141.197 229.896C141.73 229.896 142.221 229.763 142.669 229.496C143.128 229.229 143.49 228.851 143.757 228.36C144.034 227.859 144.173 227.277 144.173 226.616C144.173 225.955 144.034 225.379 143.757 224.888C143.49 224.387 143.128 224.003 142.669 223.736C142.221 223.469 141.73 223.336 141.197 223.336ZM152.748 222.072C153.537 222.072 154.246 222.259 154.876 222.632C155.516 223.005 156.017 223.533 156.38 224.216C156.753 224.888 156.94 225.667 156.94 226.552C156.94 227.437 156.753 228.232 156.38 228.936C156.017 229.629 155.516 230.173 154.876 230.568C154.246 230.952 153.537 231.144 152.748 231.144C152.001 231.144 151.345 230.968 150.78 230.616C150.225 230.253 149.798 229.784 149.5 229.208V231H148.044V219.16H149.5V223.976C149.798 223.411 150.225 222.952 150.78 222.6C151.345 222.248 152.001 222.072 152.748 222.072ZM152.46 223.336C151.937 223.336 151.446 223.469 150.988 223.736C150.54 224.003 150.177 224.387 149.9 224.888C149.633 225.379 149.5 225.955 149.5 226.616C149.5 227.277 149.633 227.859 149.9 228.36C150.177 228.851 150.54 229.229 150.988 229.496C151.446 229.763 151.937 229.896 152.46 229.896C152.982 229.896 153.473 229.763 153.932 229.496C154.39 229.219 154.753 228.824 155.02 228.312C155.297 227.8 155.436 227.213 155.436 226.552C155.436 225.891 155.297 225.32 155.02 224.84C154.753 224.349 154.39 223.976 153.932 223.72C153.484 223.464 152.993 223.336 152.46 223.336ZM162.619 222.072C163.451 222.072 164.203 222.259 164.875 222.632C165.547 223.005 166.075 223.539 166.459 224.232C166.853 224.925 167.051 225.72 167.051 226.616C167.051 227.501 166.848 228.291 166.443 228.984C166.037 229.667 165.488 230.2 164.795 230.584C164.101 230.957 163.333 231.144 162.491 231.144C161.669 231.144 160.928 230.957 160.267 230.584C159.616 230.211 159.104 229.683 158.731 229C158.368 228.307 158.187 227.512 158.187 226.616C158.187 225.709 158.379 224.915 158.763 224.232C159.157 223.539 159.691 223.005 160.363 222.632C161.035 222.259 161.787 222.072 162.619 222.072ZM162.571 223.272C162.037 223.272 161.552 223.4 161.115 223.656C160.677 223.912 160.325 224.291 160.059 224.792C159.803 225.293 159.674 225.901 159.674 226.616C159.674 227.32 159.797 227.923 160.043 228.424C160.299 228.925 160.64 229.304 161.067 229.56C161.493 229.816 161.968 229.944 162.491 229.944C163.024 229.944 163.52 229.816 163.979 229.56C164.448 229.293 164.827 228.909 165.115 228.408C165.403 227.907 165.547 227.309 165.547 226.616C165.547 225.912 165.408 225.309 165.131 224.808C164.864 224.296 164.501 223.912 164.043 223.656C163.595 223.4 163.104 223.272 162.571 223.272ZM170.328 223.704C170.851 222.616 171.741 222.072 173 222.072V223.592H172.616C171.869 223.592 171.299 223.789 170.904 224.184C170.52 224.568 170.328 225.24 170.328 226.2V231H168.872V222.216H170.328V223.704ZM177.786 222.072C178.736 222.072 179.488 222.323 180.043 222.824C180.597 223.315 180.901 223.992 180.955 224.856H179.451C179.429 224.365 179.264 223.971 178.955 223.672C178.645 223.373 178.219 223.224 177.674 223.224C177.12 223.224 176.683 223.357 176.363 223.624C176.053 223.88 175.899 224.205 175.899 224.6C175.899 224.931 175.995 225.197 176.187 225.4C176.389 225.592 176.635 225.736 176.923 225.832C177.221 225.928 177.621 226.029 178.123 226.136C178.763 226.285 179.275 226.435 179.659 226.584C180.053 226.723 180.389 226.963 180.667 227.304C180.944 227.635 181.083 228.088 181.083 228.664C181.083 229.144 180.944 229.576 180.667 229.96C180.389 230.333 180 230.627 179.499 230.84C178.997 231.043 178.421 231.144 177.771 231.144C176.789 231.144 176 230.899 175.403 230.408C174.816 229.917 174.496 229.24 174.443 228.376H175.947C175.968 228.867 176.139 229.261 176.459 229.56C176.789 229.848 177.227 229.992 177.771 229.992C178.368 229.992 178.827 229.869 179.147 229.624C179.477 229.379 179.643 229.053 179.643 228.648C179.643 228.317 179.541 228.056 179.339 227.864C179.147 227.661 178.901 227.512 178.603 227.416C178.304 227.309 177.893 227.197 177.371 227.08C176.741 226.941 176.229 226.803 175.835 226.664C175.451 226.515 175.12 226.285 174.843 225.976C174.576 225.667 174.443 225.24 174.443 224.696C174.443 224.216 174.576 223.779 174.843 223.384C175.12 222.979 175.509 222.659 176.011 222.424C176.523 222.189 177.115 222.072 177.786 222.072Z" fill="black"/>
<path d="M92.4195 91.9714C94.859 91.9727 97.2611 91.3711 99.4128 90.2201C101.565 89.0691 103.399 87.4043 104.755 85.3732C106.11 83.3421 106.944 81.0075 107.182 78.5765C107.42 76.1455 107.056 73.6931 106.121 71.4369C106.491 72.0265 106.989 72.5253 107.577 72.8967C108.166 73.2681 108.83 73.5025 109.521 73.5827C110.585 78.3187 112.52 82.8154 115.226 86.8433C117.817 90.4555 122.966 92.6151 129 92.6151C135.034 92.6151 140.183 90.4582 142.774 86.8475C145.48 82.8195 147.415 78.3229 148.479 73.5868C149.171 73.507 149.835 73.2725 150.423 72.9009C151.012 72.5292 151.509 72.0298 151.879 71.4397C150.376 75.0426 150.344 79.092 151.789 82.7186C153.234 86.3452 156.042 89.2599 159.609 90.837C163.176 92.4142 167.219 92.5281 170.869 91.1543C174.519 89.7806 177.486 87.0286 179.132 83.4891C180.779 79.9497 180.974 75.9049 179.676 72.223C178.378 68.5411 175.69 65.5156 172.189 63.7959C168.688 62.0762 164.653 61.7994 160.95 63.025C157.248 64.2505 154.173 66.8807 152.385 70.3509C152.525 69.9048 152.596 69.4402 152.596 68.9728V68.1238C152.594 67.173 152.302 66.2455 151.758 65.4661C151.214 64.6868 150.444 64.093 149.553 63.7647C149.158 59.9986 147.745 56.4116 145.465 53.3903C143.186 50.369 140.126 48.0278 136.615 46.619C135.827 44.414 132.953 43 129.061 43H128.941C125.038 43 122.162 44.4154 121.371 46.619C117.861 48.0278 114.801 50.369 112.521 53.3903C110.241 56.4116 108.828 59.9986 108.433 63.7647C107.542 64.093 106.773 64.6868 106.229 65.4661C105.685 66.2455 105.392 67.173 105.39 68.1238V68.9728C105.39 69.4401 105.461 69.9046 105.599 70.3509C104.397 68.0033 102.592 66.0188 100.37 64.6014C98.1481 63.1841 95.589 62.3851 92.9561 62.2866C90.3233 62.1882 87.7117 62.7939 85.3902 64.0413C83.0687 65.2888 81.121 67.133 79.7474 69.3843C78.3739 71.6356 77.6241 74.2126 77.5752 76.8504C77.5263 79.4881 78.1801 82.0912 79.4692 84.392C80.7584 86.6927 82.6364 88.6081 84.9101 89.9409C87.1838 91.2738 89.7711 91.9761 92.4058 91.9756L92.4195 91.9714ZM165.58 65.7589C167.825 65.7589 170.018 66.4253 171.884 67.6738C173.75 68.9222 175.205 70.6967 176.063 72.7729C176.922 74.849 177.147 77.1335 176.709 79.3375C176.271 81.5414 175.19 83.5658 173.603 85.1547C172.016 86.7436 169.994 87.8256 167.793 88.2638C165.592 88.702 163.311 88.4769 161.237 87.6167C159.164 86.7566 157.392 85.3001 156.145 83.4316C154.899 81.563 154.234 79.3662 154.234 77.119C154.238 74.107 155.434 71.2194 157.561 69.0897C159.688 66.9601 162.572 65.7622 165.58 65.7589ZM139.943 84.8064C138.034 87.4676 133.841 89.1214 129 89.1214C124.159 89.1214 119.966 87.4676 118.057 84.8064C115.766 81.3988 114.099 77.6099 113.135 73.6172H144.865C143.901 77.6099 142.234 81.3988 139.943 84.8064ZM149.108 68.9659C149.104 69.2722 148.981 69.5648 148.765 69.7816C148.549 69.9983 148.257 70.122 147.951 70.1263H110.049C109.743 70.122 109.451 69.9984 109.234 69.7817C109.018 69.565 108.895 69.2723 108.89 68.9659V68.1169C108.895 67.8106 109.018 67.5181 109.234 67.3016C109.451 67.0851 109.743 66.9618 110.049 66.9579H147.951C148.257 66.9618 148.549 67.0852 148.765 67.3017C148.981 67.5182 149.104 67.8108 149.108 68.1169V68.9659ZM146.007 63.4656H135.492C135.407 60.2747 135.658 57.0836 136.241 53.9453C136.427 52.6967 136.6 51.5349 136.714 50.4793C139.191 51.7377 141.328 53.5748 142.946 55.8352C144.564 58.0956 145.614 60.7129 146.007 63.4656ZM124.649 47.8511C124.681 47.3839 126.225 46.484 128.96 46.484H129.052C131.775 46.484 133.319 47.3839 133.351 47.8511C133.326 49.7238 133.14 51.5908 132.793 53.4313C132.186 56.7401 131.919 60.1024 131.996 63.4656H126.002C126.08 60.1024 125.814 56.74 125.207 53.4313C124.86 51.5908 124.674 49.7238 124.649 47.8511ZM121.292 50.4793C121.407 51.5349 121.58 52.6981 121.765 53.9453C122.349 57.0834 122.6 60.2746 122.515 63.4656H111.999C112.393 60.7129 113.443 58.0956 115.061 55.8352C116.678 53.5748 118.816 51.7377 121.292 50.4793ZM92.4195 65.7589C94.6638 65.7586 96.8577 66.4248 98.7239 67.6731C100.59 68.9214 102.045 70.6958 102.904 72.7719C103.762 74.848 103.987 77.1326 103.55 79.3366C103.112 81.5407 102.031 83.5652 100.444 85.1542C98.8572 86.7433 96.8353 87.8254 94.6342 88.2637C92.433 88.7021 90.1515 88.4769 88.0781 87.6168C86.0047 86.7567 84.2327 85.3003 82.986 83.4317C81.7393 81.5631 81.0741 79.3663 81.0743 77.119C81.078 74.1073 82.2744 71.2199 84.4013 69.0902C86.5281 66.9606 89.4117 65.7625 92.4195 65.7589ZM165.58 95.2818C159.483 95.2838 153.559 97.3205 148.746 101.07C146.329 99.6686 143.77 98.5275 141.112 97.666C140.8 97.5674 140.467 97.5584 140.151 97.64C139.835 97.7217 139.548 97.8906 139.323 98.1277C137.189 100.352 133.334 101.683 129 101.683C124.666 101.683 120.811 100.352 118.684 98.1222C118.459 97.8861 118.171 97.7182 117.855 97.6375C117.539 97.5569 117.206 97.5667 116.895 97.666C114.237 98.5257 111.678 99.6649 109.26 101.065C105.209 97.9075 100.353 95.9529 95.2462 95.4232C90.1395 94.8935 84.9868 95.81 80.3747 98.0684C75.7626 100.327 71.8763 103.836 69.1582 108.198C66.4401 112.559 64.9994 117.597 65 122.737C65 122.967 65.0451 123.194 65.1328 123.405C65.2204 123.617 65.3489 123.81 65.5108 123.972C65.6728 124.134 65.865 124.262 66.0766 124.35C66.2882 124.437 66.5149 124.482 66.7438 124.482H91.0432C90.0571 127.987 89.5592 131.612 89.5636 135.254C89.5636 135.717 89.7473 136.161 90.0744 136.489C90.4014 136.816 90.8449 137 91.3074 137H166.693C167.155 137 167.599 136.816 167.926 136.489C168.253 136.161 168.436 135.717 168.436 135.254C168.441 131.612 167.943 127.987 166.957 124.482H191.256C191.485 124.482 191.712 124.437 191.923 124.35C192.135 124.262 192.327 124.134 192.489 123.972C192.651 123.81 192.78 123.617 192.867 123.405C192.955 123.194 193 122.967 193 122.737C192.992 115.458 190.1 108.48 184.96 103.333C179.819 98.1855 172.85 95.2902 165.58 95.2818ZM68.5496 120.991C68.8575 116.77 70.2764 112.706 72.6619 109.213C75.0475 105.719 78.3146 102.921 82.1309 101.102C85.9472 99.2829 90.1766 98.5086 94.3887 98.8577C98.6009 99.2067 102.646 100.667 106.111 103.089C99.8408 107.581 95.0109 113.803 92.2103 120.995L68.5496 120.991ZM152.147 133.509V119.832C152.135 119.378 151.945 118.946 151.62 118.629C151.294 118.313 150.858 118.135 150.404 118.135C149.95 118.135 149.514 118.313 149.189 118.629C148.863 118.946 148.674 119.378 148.661 119.832V133.509H109.339V119.832C109.326 119.378 109.137 118.946 108.811 118.629C108.486 118.313 108.05 118.135 107.596 118.135C107.142 118.135 106.706 118.313 106.38 118.629C106.055 118.946 105.865 119.378 105.853 119.832V133.509H93.0912C93.4199 126.37 95.8704 119.492 100.129 113.756C104.387 108.02 110.259 103.689 116.991 101.317C120.429 103.953 124.672 105.317 129 105.176C133.328 105.317 137.571 103.954 141.009 101.317C147.741 103.689 153.613 108.02 157.871 113.756C162.13 119.492 164.58 126.37 164.909 133.509H152.147ZM165.791 120.991C162.989 113.8 158.159 107.58 151.889 103.089C155.354 100.667 159.399 99.2067 163.611 98.8577C167.823 98.5086 172.053 99.2829 175.869 101.102C179.685 102.921 182.953 105.719 185.338 109.213C187.724 112.706 189.143 116.77 189.45 120.991H165.791Z" fill="white"/>
</svg>
