<svg width="69" height="28" viewBox="0 0 69 28" fill="none" xmlns="http://www.w3.org/2000/svg">
<path d="M24.2202 18.0783V16.0427L33.2239 16.0583C33.6832 16.0583 34.0329 15.9539 34.273 15.7452C34.5235 15.5259 34.6488 15.1762 34.6488 14.696C34.6488 14.2159 34.5235 13.8714 34.273 13.6626C34.0329 13.4434 33.6832 13.3338 33.2239 13.3338H27.6181C26.4594 13.3338 25.5564 13.0571 24.9092 12.5039C24.2724 11.9401 23.954 11.1155 23.954 10.0298C23.954 8.94414 24.2724 8.12468 24.9092 7.57141C25.5564 7.0077 26.4594 6.72585 27.6181 6.72585H36.4182V8.76146L27.8843 8.7458C27.4354 8.7458 27.0857 8.85019 26.8352 9.05897C26.5846 9.25731 26.4594 9.58092 26.4594 10.0298C26.4594 10.4787 26.5846 10.8075 26.8352 11.0163C27.0857 11.2146 27.4354 11.3138 27.8843 11.3138H33.4901C34.6488 11.3138 35.5466 11.6009 36.1833 12.175C36.8306 12.7387 37.1542 13.5791 37.1542 14.696C37.1542 15.8026 36.8306 16.6429 36.1833 17.2171C35.5466 17.7912 34.6488 18.0783 33.4901 18.0783H24.2202ZM38.725 18V6.80414H40.8233L46.0063 10.4369H46.0845L51.2675 6.80414H53.3658V18H50.8604V9.93585L47.3059 12.3159V18H44.8005V12.3159L41.2304 9.93585V18H38.725ZM55.2009 18.0783V16.0427L64.2045 16.0583C64.6639 16.0583 65.0136 15.9539 65.2537 15.7452C65.5042 15.5259 65.6295 15.1762 65.6295 14.696C65.6295 14.2159 65.5042 13.8714 65.2537 13.6626C65.0136 13.4434 64.6639 13.3338 64.2045 13.3338H58.5988C57.4401 13.3338 56.5371 13.0571 55.8899 12.5039C55.2531 11.9401 54.9347 11.1155 54.9347 10.0298C54.9347 8.94414 55.2531 8.12468 55.8899 7.57141C56.5371 7.0077 57.4401 6.72585 58.5988 6.72585H67.3989V8.76146L58.865 8.7458C58.4161 8.7458 58.0664 8.85019 57.8159 9.05897C57.5653 9.25731 57.4401 9.58092 57.4401 10.0298C57.4401 10.4787 57.5653 10.8075 57.8159 11.0163C58.0664 11.2146 58.4161 11.3138 58.865 11.3138H64.4707C65.6295 11.3138 66.5272 11.6009 67.164 12.175C67.8112 12.7387 68.1348 13.5791 68.1348 14.696C68.1348 15.8026 67.8112 16.6429 67.164 17.2171C66.5272 17.7912 65.6295 18.0783 64.4707 18.0783H55.2009Z" fill="#DE0C0C"/>
<path d="M24.7388 23.2979C24.6202 23.2979 24.508 23.2839 24.4022 23.2559C24.2976 23.2278 24.2058 23.1915 24.1267 23.1468C24.0477 23.1022 23.9852 23.0557 23.9393 23.0072L24.1344 22.6055C24.1637 22.6438 24.2083 22.6846 24.2683 22.728C24.3282 22.7713 24.3964 22.8083 24.4729 22.8389C24.5507 22.8695 24.6279 22.8848 24.7044 22.8848C24.8051 22.8848 24.8893 22.8574 24.9569 22.8025C25.0257 22.7464 25.0601 22.668 25.0601 22.5673C25.0601 22.5023 25.0442 22.4461 25.0123 22.399C24.9817 22.3505 24.9403 22.3078 24.888 22.2708C24.837 22.2326 24.7579 22.1809 24.6508 22.1159C24.5042 22.0266 24.3894 21.9508 24.3065 21.8883C24.2237 21.8245 24.1516 21.7416 24.0904 21.6396C24.0305 21.5363 24.0005 21.412 24.0005 21.2666C24.0005 21.1251 24.0305 21.0001 24.0904 20.8918C24.1516 20.7821 24.2415 20.6967 24.3601 20.6355C24.4787 20.5742 24.6215 20.5436 24.7885 20.5436C25.0601 20.5436 25.2871 20.6265 25.4695 20.7923L25.2552 21.1825C25.2336 21.1519 25.201 21.1187 25.1577 21.083C25.1143 21.046 25.0621 21.0148 25.0008 20.9893C24.9396 20.9625 24.8752 20.9491 24.8077 20.9491C24.7095 20.9491 24.633 20.9778 24.5781 21.0352C24.5246 21.0913 24.4978 21.1621 24.4978 21.2475C24.4978 21.3125 24.5137 21.3706 24.5456 21.4216C24.5788 21.4713 24.6215 21.5159 24.6738 21.5555C24.7273 21.595 24.7987 21.6415 24.888 21.6951C25.0499 21.7907 25.1736 21.8711 25.2591 21.9361C25.3445 22.0011 25.4159 22.084 25.4733 22.1847C25.5319 22.2842 25.5613 22.4066 25.5613 22.552C25.5613 22.7063 25.5281 22.8395 25.4618 22.9517C25.3955 23.064 25.3005 23.15 25.1768 23.21C25.0531 23.2686 24.9071 23.2979 24.7388 23.2979ZM25.9626 20.5322H26.4981V21.0409H25.9626V20.5322ZM25.9817 21.3508H26.479V23.2559H25.9817V21.3508ZM27.6774 23.3132C27.5359 23.3132 27.4249 23.289 27.3446 23.2406C27.2643 23.1921 27.2075 23.1194 27.1744 23.0225C27.1425 22.9243 27.1266 22.7955 27.1266 22.6361V21.7525H26.8779V21.3508H27.1457L27.1725 20.9491L27.5894 20.7693V21.3508H28.06V21.7525H27.5894V22.6247C27.5894 22.7318 27.6041 22.8076 27.6334 22.8523C27.6627 22.8969 27.7067 22.9192 27.7654 22.9192C27.8177 22.9192 27.8744 22.9058 27.9356 22.8791C27.9981 22.851 28.0497 22.8198 28.0906 22.7853L28.1824 23.1717C28.1263 23.2112 28.0453 23.2444 27.9395 23.2712C27.8349 23.2992 27.7475 23.3132 27.6774 23.3132ZM29.2722 23.3056C29.067 23.3056 28.8974 23.2622 28.7635 23.1755C28.6296 23.0875 28.5314 22.9702 28.4689 22.8236C28.4077 22.6769 28.3771 22.5112 28.3771 22.3263C28.3771 22.1376 28.4115 21.9661 28.4804 21.8118C28.5505 21.6562 28.6525 21.5331 28.7864 21.4426C28.9203 21.3508 29.0797 21.3049 29.2646 21.3049C29.54 21.3049 29.737 21.3846 29.8556 21.544C29.9742 21.7021 30.0335 21.9386 30.0335 22.2536C30.0335 22.3148 30.031 22.3837 30.0259 22.4602H28.8782C28.8859 22.6145 28.9286 22.7337 29.0064 22.8178C29.0854 22.9007 29.2008 22.9422 29.3526 22.9422C29.4316 22.9422 29.5164 22.925 29.607 22.8905C29.6975 22.8548 29.7645 22.8121 29.8078 22.7624L29.9608 23.1258C29.781 23.2457 29.5515 23.3056 29.2722 23.3056ZM29.5477 22.1618C29.5477 21.9743 29.5241 21.8456 29.4769 21.7754C29.431 21.704 29.3641 21.6683 29.2761 21.6683C29.1524 21.6683 29.0561 21.7142 28.9873 21.806C28.9197 21.8978 28.8821 22.0164 28.8744 22.1618H29.5477ZM33.4801 20.5436V23.2559H33.0058V22.1121L33.023 21.6607L32.8872 21.8672L32.3631 22.4831L31.839 21.8672L31.7032 21.6607L31.7243 22.1121V23.2559H31.2499V20.5436H31.2882L32.3669 21.8156L33.4381 20.5436H33.4801ZM34.467 23.3094C34.3535 23.3094 34.2579 23.2839 34.1801 23.2329C34.1023 23.1819 34.0437 23.113 34.0041 23.0263C33.9659 22.9396 33.9468 22.8427 33.9468 22.7356C33.9468 22.6425 33.9774 22.5501 34.0386 22.4583C34.101 22.3652 34.2113 22.2861 34.3695 22.2211C34.5276 22.1561 34.7412 22.1235 35.0102 22.1235V22.0356C35.0102 21.931 34.9847 21.85 34.9337 21.7926C34.884 21.7353 34.796 21.7066 34.6698 21.7066C34.5703 21.7066 34.4727 21.7238 34.3771 21.7582C34.2828 21.7914 34.2133 21.8328 34.1686 21.8825L34.0156 21.5153C34.1023 21.4566 34.2101 21.4069 34.3389 21.3661C34.4676 21.3253 34.6047 21.3049 34.7501 21.3049C34.9324 21.3049 35.0765 21.333 35.1824 21.3891C35.2895 21.4452 35.3647 21.5242 35.4081 21.6262C35.4514 21.7282 35.4731 21.8545 35.4731 22.0049V23.2559H35.0638L35.0293 22.9843C34.9618 23.0939 34.8814 23.1755 34.7883 23.2291C34.6965 23.2826 34.5894 23.3094 34.467 23.3094ZM34.6698 22.9422C34.7284 22.9422 34.7903 22.9186 34.8553 22.8714C34.9203 22.8242 34.972 22.7649 35.0102 22.6935V22.4219C34.9924 22.4194 34.9618 22.4181 34.9184 22.4181C34.7896 22.4181 34.6742 22.4398 34.5722 22.4831C34.4715 22.5252 34.4211 22.5941 34.4211 22.6897C34.4211 22.7802 34.4409 22.8453 34.4804 22.8848C34.5212 22.923 34.5843 22.9422 34.6698 22.9422ZM36.9997 21.3049C37.1897 21.3049 37.3325 21.3655 37.4281 21.4866C37.5251 21.6065 37.5735 21.7767 37.5735 21.9973V23.2559H37.0839V22.0394C37.0839 21.931 37.0609 21.8449 37.015 21.7812C36.9691 21.7161 36.9015 21.6836 36.8123 21.6836C36.7523 21.6836 36.6962 21.6989 36.6439 21.7295C36.5929 21.7601 36.5521 21.8028 36.5215 21.8577C36.4909 21.9112 36.4756 21.9718 36.4756 22.0394V23.2559H35.986V21.3508H36.4297L36.4393 21.6014C36.5706 21.4037 36.7574 21.3049 36.9997 21.3049ZM38.5054 23.3094C38.3919 23.3094 38.2962 23.2839 38.2185 23.2329C38.1407 23.1819 38.082 23.113 38.0425 23.0263C38.0042 22.9396 37.9851 22.8427 37.9851 22.7356C37.9851 22.6425 38.0157 22.5501 38.0769 22.4583C38.1394 22.3652 38.2497 22.2861 38.4078 22.2211C38.5659 22.1561 38.7795 22.1235 39.0486 22.1235V22.0356C39.0486 21.931 39.0231 21.85 38.9721 21.7926C38.9223 21.7353 38.8343 21.7066 38.7081 21.7066C38.6086 21.7066 38.5111 21.7238 38.4155 21.7582C38.3211 21.7914 38.2516 21.8328 38.207 21.8825L38.054 21.5153C38.1407 21.4566 38.2484 21.4069 38.3772 21.3661C38.506 21.3253 38.6431 21.3049 38.7884 21.3049C38.9708 21.3049 39.1149 21.333 39.2207 21.3891C39.3278 21.4452 39.4031 21.5242 39.4464 21.6262C39.4898 21.7282 39.5114 21.8545 39.5114 22.0049V23.2559H39.1021L39.0677 22.9843C39.0001 23.0939 38.9198 23.1755 38.8267 23.2291C38.7349 23.2826 38.6278 23.3094 38.5054 23.3094ZM38.7081 22.9422C38.7668 22.9422 38.8286 22.9186 38.8936 22.8714C38.9587 22.8242 39.0103 22.7649 39.0486 22.6935V22.4219C39.0307 22.4194 39.0001 22.4181 38.9568 22.4181C38.828 22.4181 38.7126 22.4398 38.6106 22.4831C38.5098 22.5252 38.4595 22.5941 38.4595 22.6897C38.4595 22.7802 38.4792 22.8453 38.5187 22.8848C38.5596 22.923 38.6227 22.9422 38.7081 22.9422ZM40.2883 23.5848C40.4069 23.6588 40.5395 23.6958 40.6861 23.6958C40.8506 23.6958 40.973 23.6531 41.0534 23.5676C41.135 23.4822 41.1758 23.3477 41.1758 23.164V22.8657C41.1439 22.983 41.0884 23.0812 41.0094 23.1602C40.9303 23.2393 40.82 23.2788 40.6785 23.2788C40.528 23.2788 40.3947 23.245 40.2787 23.1774C40.1639 23.1099 40.0728 23.0034 40.0052 22.858C39.9389 22.7127 39.9057 22.529 39.9057 22.3072C39.9057 22.0815 39.9389 21.894 40.0052 21.7448C40.0715 21.5944 40.162 21.4834 40.2768 21.412C40.3916 21.3406 40.5216 21.3049 40.667 21.3049C40.7664 21.3049 40.8519 21.3228 40.9233 21.3585C40.996 21.3942 41.0527 21.4407 41.0935 21.4981C41.1356 21.5542 41.163 21.6148 41.1758 21.6798L41.2293 21.3508H41.6042V23.164C41.6042 23.3604 41.5711 23.5294 41.5048 23.6709C41.4384 23.8137 41.3403 23.9228 41.2102 23.998C41.0801 24.0745 40.9207 24.1128 40.732 24.1128C40.593 24.1128 40.4668 24.0955 40.3533 24.0611C40.2411 24.028 40.148 23.9891 40.074 23.9444L40.2883 23.5848ZM40.7741 22.9039C40.8863 22.9039 40.9737 22.8516 41.0361 22.7471C41.0986 22.6412 41.1299 22.4921 41.1299 22.2995C41.1299 22.1108 41.1012 21.9622 41.0438 21.8538C40.9877 21.7455 40.9029 21.6913 40.7894 21.6913C40.7193 21.6913 40.6549 21.7117 40.5962 21.7525C40.5376 21.7933 40.4897 21.8596 40.4528 21.9514C40.4171 22.0419 40.3992 22.1592 40.3992 22.3033C40.3992 22.5023 40.433 22.6521 40.5006 22.7528C40.5694 22.8536 40.6606 22.9039 40.7741 22.9039ZM42.9302 23.3056C42.7249 23.3056 42.5553 23.2622 42.4214 23.1755C42.2875 23.0875 42.1893 22.9702 42.1268 22.8236C42.0656 22.6769 42.035 22.5112 42.035 22.3263C42.035 22.1376 42.0694 21.9661 42.1383 21.8118C42.2084 21.6562 42.3105 21.5331 42.4443 21.4426C42.5782 21.3508 42.7376 21.3049 42.9225 21.3049C43.1979 21.3049 43.395 21.3846 43.5135 21.544C43.6321 21.7021 43.6914 21.9386 43.6914 22.2536C43.6914 22.3148 43.6889 22.3837 43.6838 22.4602H42.5361C42.5438 22.6145 42.5865 22.7337 42.6643 22.8178C42.7434 22.9007 42.8588 22.9422 43.0105 22.9422C43.0896 22.9422 43.1744 22.925 43.2649 22.8905C43.3554 22.8548 43.4224 22.8121 43.4657 22.7624L43.6187 23.1258C43.4389 23.2457 43.2094 23.3056 42.9302 23.3056ZM43.2056 22.1618C43.2056 21.9743 43.182 21.8456 43.1348 21.7754C43.0889 21.704 43.022 21.6683 42.934 21.6683C42.8103 21.6683 42.714 21.7142 42.6452 21.806C42.5776 21.8978 42.54 22.0164 42.5323 22.1618H43.2056ZM46.2604 21.3049C46.4478 21.3049 46.5894 21.3655 46.685 21.4866C46.7819 21.6065 46.8304 21.7767 46.8304 21.9973V23.2559H46.3446V22.047C46.3446 21.9361 46.3229 21.8494 46.2795 21.7869C46.2374 21.7231 46.1724 21.6913 46.0844 21.6913C46.0245 21.6913 45.9671 21.7066 45.9123 21.7372C45.8587 21.7678 45.8154 21.8105 45.7822 21.8653C45.7491 21.9189 45.7325 21.9794 45.7325 22.047V23.2559H45.2428V22.047C45.2428 21.9386 45.2186 21.8513 45.1702 21.785C45.123 21.7174 45.0554 21.6836 44.9674 21.6836C44.9062 21.6836 44.8501 21.6996 44.7991 21.7314C44.7481 21.762 44.7073 21.8054 44.6767 21.8615C44.6461 21.9163 44.6308 21.9782 44.6308 22.047V23.2559H44.1411V21.3508H44.581L44.5925 21.6033C44.7213 21.4044 44.9088 21.3049 45.1549 21.3049C45.2824 21.3049 45.3888 21.333 45.4743 21.3891C45.561 21.4452 45.626 21.5268 45.6694 21.6339C45.7994 21.4146 45.9964 21.3049 46.2604 21.3049ZM48.1528 23.3056C47.9475 23.3056 47.7779 23.2622 47.644 23.1755C47.5101 23.0875 47.4119 22.9702 47.3494 22.8236C47.2882 22.6769 47.2576 22.5112 47.2576 22.3263C47.2576 22.1376 47.292 21.9661 47.3609 21.8118C47.431 21.6562 47.533 21.5331 47.6669 21.4426C47.8008 21.3508 47.9602 21.3049 48.1451 21.3049C48.4205 21.3049 48.6175 21.3846 48.7361 21.544C48.8547 21.7021 48.914 21.9386 48.914 22.2536C48.914 22.3148 48.9115 22.3837 48.9064 22.4602H47.7587C47.7664 22.6145 47.8091 22.7337 47.8869 22.8178C47.9659 22.9007 48.0813 22.9422 48.2331 22.9422C48.3121 22.9422 48.3969 22.925 48.4875 22.8905C48.578 22.8548 48.645 22.8121 48.6883 22.7624L48.8413 23.1258C48.6615 23.2457 48.432 23.3056 48.1528 23.3056ZM48.4282 22.1618C48.4282 21.9743 48.4046 21.8456 48.3574 21.7754C48.3115 21.704 48.2446 21.6683 48.1566 21.6683C48.0329 21.6683 47.9366 21.7142 47.8678 21.806C47.8002 21.8978 47.7626 22.0164 47.7549 22.1618H48.4282ZM50.3774 21.3049C50.5674 21.3049 50.7102 21.3655 50.8059 21.4866C50.9028 21.6065 50.9513 21.7767 50.9513 21.9973V23.2559H50.4616V22.0394C50.4616 21.931 50.4386 21.8449 50.3927 21.7812C50.3468 21.7161 50.2793 21.6836 50.19 21.6836C50.1301 21.6836 50.074 21.6989 50.0217 21.7295C49.9707 21.7601 49.9299 21.8028 49.8993 21.8577C49.8687 21.9112 49.8534 21.9718 49.8534 22.0394V23.2559H49.3637V21.3508H49.8075L49.817 21.6014C49.9484 21.4037 50.1352 21.3049 50.3774 21.3049ZM52.1279 23.3132C51.9864 23.3132 51.8754 23.289 51.7951 23.2406C51.7148 23.1921 51.658 23.1194 51.6249 23.0225C51.593 22.9243 51.5771 22.7955 51.5771 22.6361V21.7525H51.3284V21.3508H51.5962L51.623 20.9491L52.0399 20.7693V21.3508H52.5105V21.7525H52.0399V22.6247C52.0399 22.7318 52.0546 22.8076 52.0839 22.8523C52.1133 22.8969 52.1573 22.9192 52.2159 22.9192C52.2682 22.9192 52.3249 22.9058 52.3861 22.8791C52.4486 22.851 52.5003 22.8198 52.5411 22.7853L52.6329 23.1717C52.5768 23.2112 52.4958 23.2444 52.39 23.2712C52.2854 23.2992 52.1981 23.3132 52.1279 23.3132ZM54.4044 23.2979C54.2858 23.2979 54.1736 23.2839 54.0678 23.2559C53.9632 23.2278 53.8714 23.1915 53.7924 23.1468C53.7133 23.1022 53.6508 23.0557 53.6049 23.0072L53.8 22.6055C53.8293 22.6438 53.874 22.6846 53.9339 22.728C53.9938 22.7713 54.0621 22.8083 54.1386 22.8389C54.2163 22.8695 54.2935 22.8848 54.37 22.8848C54.4707 22.8848 54.5549 22.8574 54.6225 22.8025C54.6913 22.7464 54.7258 22.668 54.7258 22.5673C54.7258 22.5023 54.7098 22.4461 54.6779 22.399C54.6473 22.3505 54.6059 22.3078 54.5536 22.2708C54.5026 22.2326 54.4236 22.1809 54.3164 22.1159C54.1698 22.0266 54.055 21.9508 53.9722 21.8883C53.8893 21.8245 53.8172 21.7416 53.756 21.6396C53.6961 21.5363 53.6661 21.412 53.6661 21.2666C53.6661 21.1251 53.6961 21.0001 53.756 20.8918C53.8172 20.7821 53.9071 20.6967 54.0257 20.6355C54.1443 20.5742 54.2871 20.5436 54.4542 20.5436C54.7258 20.5436 54.9527 20.6265 55.1351 20.7923L54.9209 21.1825C54.8992 21.1519 54.8667 21.1187 54.8233 21.083C54.78 21.046 54.7277 21.0148 54.6665 20.9893C54.6053 20.9625 54.5409 20.9491 54.4733 20.9491C54.3751 20.9491 54.2986 20.9778 54.2438 21.0352C54.1902 21.0913 54.1634 21.1621 54.1634 21.2475C54.1634 21.3125 54.1794 21.3706 54.2112 21.4216C54.2444 21.4713 54.2871 21.5159 54.3394 21.5555C54.393 21.595 54.4644 21.6415 54.5536 21.6951C54.7156 21.7907 54.8393 21.8711 54.9247 21.9361C55.0101 22.0011 55.0815 22.084 55.1389 22.1847C55.1976 22.2842 55.2269 22.4066 55.2269 22.552C55.2269 22.7063 55.1937 22.8395 55.1274 22.9517C55.0611 23.064 54.9661 23.15 54.8424 23.21C54.7188 23.2686 54.5728 23.2979 54.4044 23.2979ZM56.4009 23.2941C56.2148 23.2941 56.056 23.2546 55.9247 23.1755C55.7933 23.0965 55.6932 22.983 55.6244 22.8351C55.5555 22.6859 55.5211 22.5074 55.5211 22.2995C55.5211 22.0917 55.5562 21.9131 55.6263 21.7639C55.6977 21.6148 55.8003 21.5013 55.9342 21.4235C56.0694 21.3444 56.2301 21.3049 56.4162 21.3049C56.6011 21.3049 56.758 21.3457 56.8868 21.4273C57.0168 21.5076 57.115 21.6224 57.1813 21.7716C57.2476 21.9208 57.2808 22.0968 57.2808 22.2995C57.2808 22.501 57.2464 22.6769 57.1775 22.8274C57.1086 22.9766 57.0079 23.092 56.8753 23.1736C56.744 23.2539 56.5858 23.2941 56.4009 23.2941ZM56.4086 22.9116C56.5272 22.9116 56.6171 22.8599 56.6783 22.7566C56.7408 22.6534 56.772 22.501 56.772 22.2995C56.772 22.0968 56.7408 21.9437 56.6783 21.8405C56.6171 21.7359 56.5272 21.6836 56.4086 21.6836C56.2836 21.6836 56.1893 21.7327 56.1255 21.8309C56.0618 21.9291 56.0299 22.0853 56.0299 22.2995C56.0299 22.5137 56.0618 22.6693 56.1255 22.7662C56.1893 22.8631 56.2836 22.9116 56.4086 22.9116ZM57.7511 21.7525H57.4948V21.3508H57.7511V20.9989C57.7511 20.8165 57.7849 20.6724 57.8525 20.5666C57.9201 20.4608 58.0023 20.3881 58.0992 20.3485C58.1961 20.3077 58.2956 20.2873 58.3976 20.2873C58.506 20.2873 58.594 20.2969 58.6615 20.316C58.7304 20.3352 58.7738 20.3536 58.7916 20.3715V20.7885C58.7648 20.7553 58.7234 20.7292 58.6673 20.71C58.6125 20.6909 58.5621 20.6814 58.5162 20.6814C58.3147 20.6814 58.214 20.7834 58.214 20.9874V21.3508H58.6769V21.7525H58.214V23.2559H57.7511V21.7525ZM59.6854 23.3132C59.5438 23.3132 59.4329 23.289 59.3525 23.2406C59.2722 23.1921 59.2155 23.1194 59.1823 23.0225C59.1504 22.9243 59.1345 22.7955 59.1345 22.6361V21.7525H58.8858V21.3508H59.1536L59.1804 20.9491L59.5974 20.7693V21.3508H60.0679V21.7525H59.5974V22.6247C59.5974 22.7318 59.612 22.8076 59.6414 22.8523C59.6707 22.8969 59.7147 22.9192 59.7733 22.9192C59.8256 22.9192 59.8824 22.9058 59.9436 22.8791C60.0061 22.851 60.0577 22.8198 60.0985 22.7853L60.1903 23.1717C60.1342 23.2112 60.0532 23.2444 59.9474 23.2712C59.8428 23.2992 59.7555 23.3132 59.6854 23.3132ZM60.2847 21.3508H60.7705L61 22.2574L61.0995 22.6591L61.1837 22.2574L61.4323 21.3508H61.8302L62.0941 22.2574L62.1936 22.6591L62.2816 22.2574L62.5034 21.3508H62.974L62.3734 23.2559H61.987L61.681 22.2192L61.6198 21.9093L61.5585 22.2192L61.2755 23.2559H60.8929L60.2847 21.3508ZM63.6619 23.3094C63.5484 23.3094 63.4528 23.2839 63.375 23.2329C63.2972 23.1819 63.2386 23.113 63.1991 23.0263C63.1608 22.9396 63.1417 22.8427 63.1417 22.7356C63.1417 22.6425 63.1723 22.5501 63.2335 22.4583C63.296 22.3652 63.4063 22.2861 63.5644 22.2211C63.7225 22.1561 63.9361 22.1235 64.2051 22.1235V22.0356C64.2051 21.931 64.1796 21.85 64.1286 21.7926C64.0789 21.7353 63.9909 21.7066 63.8647 21.7066C63.7652 21.7066 63.6677 21.7238 63.572 21.7582C63.4777 21.7914 63.4082 21.8328 63.3635 21.8825L63.2105 21.5153C63.2972 21.4566 63.405 21.4069 63.5338 21.3661C63.6626 21.3253 63.7996 21.3049 63.945 21.3049C64.1274 21.3049 64.2714 21.333 64.3773 21.3891C64.4844 21.4452 64.5596 21.5242 64.603 21.6262C64.6463 21.7282 64.668 21.8545 64.668 22.0049V23.2559H64.2587L64.2243 22.9843C64.1567 23.0939 64.0763 23.1755 63.9833 23.2291C63.8915 23.2826 63.7843 23.3094 63.6619 23.3094ZM63.8647 22.9422C63.9233 22.9422 63.9852 22.9186 64.0502 22.8714C64.1152 22.8242 64.1669 22.7649 64.2051 22.6935V22.4219C64.1873 22.4194 64.1567 22.4181 64.1133 22.4181C63.9845 22.4181 63.8691 22.4398 63.7671 22.4831C63.6664 22.5252 63.616 22.5941 63.616 22.6897C63.616 22.7802 63.6358 22.8453 63.6753 22.8848C63.7161 22.923 63.7792 22.9422 63.8647 22.9422ZM65.1618 21.3508H65.594L65.617 21.6874C65.6578 21.5893 65.7222 21.5051 65.8102 21.435C65.8982 21.3636 66.0225 21.3279 66.1831 21.3279C66.2469 21.3279 66.3056 21.3381 66.3591 21.3585L66.252 21.8596C66.2303 21.8379 66.2042 21.8226 66.1736 21.8137C66.1443 21.8035 66.1079 21.7984 66.0646 21.7984C65.9753 21.7984 65.8982 21.8175 65.8331 21.8558C65.7694 21.8927 65.7209 21.9361 65.6878 21.9858C65.6559 22.0356 65.6399 22.0764 65.6399 22.1082V23.2559H65.1618V21.3508ZM67.3769 23.3056C67.1716 23.3056 67.0021 23.2622 66.8682 23.1755C66.7343 23.0875 66.6361 22.9702 66.5736 22.8236C66.5124 22.6769 66.4818 22.5112 66.4818 22.3263C66.4818 22.1376 66.5162 21.9661 66.5851 21.8118C66.6552 21.6562 66.7572 21.5331 66.8911 21.4426C67.025 21.3508 67.1844 21.3049 67.3693 21.3049C67.6447 21.3049 67.8417 21.3846 67.9603 21.544C68.0789 21.7021 68.1382 21.9386 68.1382 22.2536C68.1382 22.3148 68.1356 22.3837 68.1305 22.4602H66.9829C66.9906 22.6145 67.0333 22.7337 67.1111 22.8178C67.1901 22.9007 67.3055 22.9422 67.4573 22.9422C67.5363 22.9422 67.6211 22.925 67.7117 22.8905C67.8022 22.8548 67.8691 22.8121 67.9125 22.7624L68.0655 23.1258C67.8857 23.2457 67.6562 23.3056 67.3769 23.3056ZM67.6524 22.1618C67.6524 21.9743 67.6288 21.8456 67.5816 21.7754C67.5357 21.704 67.4688 21.6683 67.3808 21.6683C67.2571 21.6683 67.1608 21.7142 67.0919 21.806C67.0244 21.8978 66.9868 22.0164 66.9791 22.1618H67.6524Z" fill="#504D55"/>
<path d="M18.7241 8.4504C18.4579 8.62336 18.1017 8.54299 17.9119 8.28825C16.3739 6.22362 13.8924 5.17589 11.4039 5.34902C11.0043 5.37683 10.8065 5.81866 11.019 6.1568L13.3563 9.87429C13.4463 10.0174 13.4027 10.2056 13.2589 10.2946C13.1151 10.3835 12.9255 10.3397 12.8355 10.1965L10.1654 5.94978C10.0324 5.7382 9.77498 5.6359 9.53719 5.71418C8.96971 5.90099 8.41458 6.15689 7.8839 6.48519C7.31195 6.83901 6.80425 7.25548 6.36266 7.71881C6.19301 7.8968 6.17508 8.1667 6.30619 8.37524L8.95902 12.5946C9.04897 12.7377 9.00542 12.9259 8.86154 13.0149C8.71765 13.1039 8.52819 13.06 8.43816 12.9168L6.13549 9.25439C5.92062 8.91264 5.42712 8.89882 5.23099 9.25024C4.04683 11.3719 3.93554 13.9876 5.11048 16.2225C5.25583 16.499 5.17741 16.8459 4.91163 17.0103L4.43237 17.3068C4.16658 17.4712 4.08598 17.819 4.25232 18.0836L4.37874 18.2847C4.54509 18.5492 4.89541 18.6304 5.16119 18.466L19.822 9.39643C20.0877 9.23201 20.1684 8.88423 20.002 8.61965L19.8638 8.39977C19.6948 8.13102 19.3368 8.05221 19.0707 8.22516L18.7241 8.4504Z" fill="#DE0C0C"/>
<path d="M10.0419 17.4037C11.1813 19.1309 13.539 19.6156 15.3325 18.5062C17.1308 17.3938 17.7591 14.9601 16.5779 13.17C16.5719 13.1608 16.5637 13.1493 16.5505 13.1309C16.3729 12.881 16.0322 12.8047 15.7715 12.9659L10.1192 16.4622C9.85866 16.6234 9.77354 16.9628 9.93087 17.2257C9.97467 17.2988 10.0063 17.3497 10.0419 17.4037Z" fill="#DE0C0C"/>
<path d="M20.4908 13.0341C20.4113 12.7806 20.5001 12.5011 20.7234 12.3564L21.3878 11.926C21.6502 11.756 21.7233 11.4063 21.5511 11.1452L21.0553 10.3938C20.8865 10.1378 20.5436 10.0613 20.2821 10.2213L17.31 12.0384C17.0576 12.1926 17.0184 12.5241 17.181 12.7711C18.5831 14.8964 17.8532 17.791 15.7139 19.1143C13.5872 20.4298 10.7878 19.8487 9.43115 17.7928C9.40636 17.7552 9.3831 17.7187 9.36115 17.683C9.17686 17.3836 8.78768 17.2487 8.48768 17.4321L5.60814 19.1928C5.33638 19.359 5.25688 19.7156 5.43231 19.9815L6.17555 21.1081C6.34757 21.3688 6.69926 21.4425 6.96134 21.2727L7.61438 20.8495C7.83621 20.7058 8.1277 20.7359 8.32943 20.9077C8.76898 21.2819 9.24741 21.6009 9.75308 21.8627C9.99265 21.9866 10.1295 22.2511 10.0718 22.5127L9.91372 23.2289C9.84558 23.5377 10.0465 23.8425 10.359 23.9045L12.3838 24.3058C12.6867 24.3659 12.9817 24.1746 13.0477 23.8752L13.2143 23.1205C13.2705 22.8655 13.4961 22.6851 13.7583 22.6653C14.3371 22.6217 14.9173 22.5098 15.4825 22.3301C15.7407 22.248 16.0275 22.3396 16.1735 22.5673L16.5382 23.1363C16.7064 23.3987 17.0561 23.4773 17.3203 23.312L19.1081 22.194C19.3763 22.0263 19.4533 21.6724 19.2791 21.4083L18.8802 20.8036C18.7334 20.581 18.7643 20.2886 18.9407 20.0892C19.3346 19.6437 19.6714 19.1597 19.9484 18.6491C20.072 18.4212 20.3274 18.2912 20.5834 18.3419L21.3533 18.4945C21.6562 18.5546 21.9512 18.3633 22.0173 18.0639L22.4574 16.0698C22.5259 15.7595 22.3227 15.4534 22.0082 15.3934L21.2795 15.2543C21.011 15.2031 20.8192 14.969 20.8015 14.698C20.765 14.1383 20.6614 13.5785 20.4908 13.0341Z" fill="#504D55"/>
</svg>
