<svg width="270" height="290" viewBox="0 0 270 290" fill="none" xmlns="http://www.w3.org/2000/svg">
<path d="M177.218 45.242C196.398 52.2301 224.71 54.9041 237.732 68.5207C250.456 82.3853 247.622 107.162 240.417 130.029C233.511 152.648 221.934 173.604 205.323 186.652C188.711 199.7 167.299 205.148 147.419 204.285C127.507 203.7 109.393 196.833 88.9885 191.115C68.317 185.367 45.3544 180.767 29.9658 166.597C14.3107 152.397 6.49612 128.659 9.24604 106.975C11.7613 84.982 25.1394 64.7956 38.9986 47.4844C52.8578 30.1733 67.4327 16.0464 83.9204 11.1632C100.408 6.28008 119.043 10.9496 133.533 18.8115C147.725 26.9213 157.772 38.2235 177.218 45.242Z" fill="#F66464"/>
<rect x="5" y="146" width="258" height="144" rx="28" fill="#EFEDED"/>
<path d="M36.5396 185.416C36.5396 184.328 36.7849 183.352 37.2756 182.488C37.7662 181.613 38.4329 180.931 39.2756 180.44C40.1289 179.949 41.0729 179.704 42.1076 179.704C43.3236 179.704 44.3849 179.997 45.2916 180.584C46.1982 181.171 46.8596 182.003 47.2756 183.08H45.5316C45.2222 182.408 44.7742 181.891 44.1876 181.528C43.6116 181.165 42.9182 180.984 42.1076 180.984C41.3289 180.984 40.6302 181.165 40.0116 181.528C39.3929 181.891 38.9076 182.408 38.5556 183.08C38.2036 183.741 38.0276 184.52 38.0276 185.416C38.0276 186.301 38.2036 187.08 38.5556 187.752C38.9076 188.413 39.3929 188.925 40.0116 189.288C40.6302 189.651 41.3289 189.832 42.1076 189.832C42.9182 189.832 43.6116 189.656 44.1876 189.304C44.7742 188.941 45.2222 188.424 45.5316 187.752H47.2756C46.8596 188.819 46.1982 189.645 45.2916 190.232C44.3849 190.808 43.3236 191.096 42.1076 191.096C41.0729 191.096 40.1289 190.856 39.2756 190.376C38.4329 189.885 37.7662 189.208 37.2756 188.344C36.7849 187.48 36.5396 186.504 36.5396 185.416ZM57.2189 182.232V191H55.7629V189.704C55.4856 190.152 55.0963 190.504 54.5949 190.76C54.1043 191.005 53.5603 191.128 52.9629 191.128C52.2803 191.128 51.6669 190.989 51.1229 190.712C50.5789 190.424 50.1469 189.997 49.8269 189.432C49.5176 188.867 49.3629 188.179 49.3629 187.368V182.232H50.8029V187.176C50.8029 188.04 51.0216 188.707 51.4589 189.176C51.8963 189.635 52.4936 189.864 53.2509 189.864C54.0296 189.864 54.6429 189.624 55.0909 189.144C55.5389 188.664 55.7629 187.965 55.7629 187.048V182.232H57.2189ZM61.1333 183.656C61.3893 183.155 61.752 182.765 62.2213 182.488C62.7013 182.211 63.2826 182.072 63.9653 182.072V183.576H63.5813C61.9493 183.576 61.1333 184.461 61.1333 186.232V191H59.6773V182.232H61.1333V183.656ZM67.1021 183.656C67.3581 183.155 67.7207 182.765 68.1901 182.488C68.6701 182.211 69.2514 182.072 69.9341 182.072V183.576H69.5501C67.9181 183.576 67.1021 184.461 67.1021 186.232V191H65.6461V182.232H67.1021V183.656ZM79.6148 186.28C79.6148 186.557 79.5988 186.851 79.5668 187.16H72.5588C72.6121 188.024 72.9055 188.701 73.4388 189.192C73.9828 189.672 74.6388 189.912 75.4068 189.912C76.0361 189.912 76.5588 189.768 76.9748 189.48C77.4015 189.181 77.7001 188.787 77.8708 188.296H79.4388C79.2041 189.139 78.7348 189.827 78.0308 190.36C77.3268 190.883 76.4521 191.144 75.4068 191.144C74.5748 191.144 73.8281 190.957 73.1668 190.584C72.5161 190.211 72.0041 189.683 71.6308 189C71.2575 188.307 71.0708 187.507 71.0708 186.6C71.0708 185.693 71.2521 184.899 71.6148 184.216C71.9775 183.533 72.4841 183.011 73.1348 182.648C73.7961 182.275 74.5535 182.088 75.4068 182.088C76.2388 182.088 76.9748 182.269 77.6148 182.632C78.2548 182.995 78.7455 183.496 79.0868 184.136C79.4388 184.765 79.6148 185.48 79.6148 186.28ZM78.1108 185.976C78.1108 185.421 77.9881 184.947 77.7428 184.552C77.4975 184.147 77.1615 183.843 76.7348 183.64C76.3188 183.427 75.8548 183.32 75.3428 183.32C74.6068 183.32 73.9775 183.555 73.4548 184.024C72.9428 184.493 72.6495 185.144 72.5748 185.976H78.1108ZM85.8087 182.072C86.8754 182.072 87.7394 182.397 88.4007 183.048C89.062 183.688 89.3927 184.616 89.3927 185.832V191H87.9527V186.04C87.9527 185.165 87.734 184.499 87.2967 184.04C86.8594 183.571 86.262 183.336 85.5047 183.336C84.7367 183.336 84.1234 183.576 83.6647 184.056C83.2167 184.536 82.9927 185.235 82.9927 186.152V191H81.5367V182.232H82.9927V183.48C83.2807 183.032 83.67 182.685 84.1607 182.44C84.662 182.195 85.2114 182.072 85.8087 182.072ZM93.5471 183.432V188.6C93.5471 189.027 93.6377 189.331 93.8191 189.512C94.0004 189.683 94.3151 189.768 94.7631 189.768H95.8351V191H94.5231C93.7124 191 93.1044 190.813 92.6991 190.44C92.2937 190.067 92.0911 189.453 92.0911 188.6V183.432H90.9551V182.232H92.0911V180.024H93.5471V182.232H95.8351V183.432H93.5471ZM99.0552 179.16V191H97.5992V179.16H99.0552ZM109.089 182.232L103.809 195.128H102.305L104.033 190.904L100.497 182.232H102.113L104.865 189.336L107.585 182.232H109.089ZM122.37 182.232L117.09 195.128H115.586L117.314 190.904L113.778 182.232H115.394L118.146 189.336L120.866 182.232H122.37ZM127.658 191.144C126.836 191.144 126.09 190.957 125.418 190.584C124.756 190.211 124.234 189.683 123.85 189C123.476 188.307 123.29 187.507 123.29 186.6C123.29 185.704 123.482 184.915 123.866 184.232C124.26 183.539 124.794 183.011 125.466 182.648C126.138 182.275 126.89 182.088 127.722 182.088C128.554 182.088 129.306 182.275 129.978 182.648C130.65 183.011 131.178 183.533 131.562 184.216C131.956 184.899 132.154 185.693 132.154 186.6C132.154 187.507 131.951 188.307 131.546 189C131.151 189.683 130.612 190.211 129.93 190.584C129.247 190.957 128.49 191.144 127.658 191.144ZM127.658 189.864C128.18 189.864 128.671 189.741 129.13 189.496C129.588 189.251 129.956 188.883 130.234 188.392C130.522 187.901 130.666 187.304 130.666 186.6C130.666 185.896 130.527 185.299 130.25 184.808C129.972 184.317 129.61 183.955 129.162 183.72C128.714 183.475 128.228 183.352 127.706 183.352C127.172 183.352 126.682 183.475 126.234 183.72C125.796 183.955 125.444 184.317 125.178 184.808C124.911 185.299 124.778 185.896 124.778 186.6C124.778 187.315 124.906 187.917 125.162 188.408C125.428 188.899 125.78 189.267 126.218 189.512C126.655 189.747 127.135 189.864 127.658 189.864ZM141.844 182.232V191H140.388V189.704C140.111 190.152 139.721 190.504 139.22 190.76C138.729 191.005 138.185 191.128 137.588 191.128C136.905 191.128 136.292 190.989 135.748 190.712C135.204 190.424 134.772 189.997 134.452 189.432C134.143 188.867 133.988 188.179 133.988 187.368V182.232H135.428V187.176C135.428 188.04 135.647 188.707 136.084 189.176C136.521 189.635 137.119 189.864 137.876 189.864C138.655 189.864 139.268 189.624 139.716 189.144C140.164 188.664 140.388 187.965 140.388 187.048V182.232H141.844ZM148.024 186.584C148.024 185.688 148.205 184.904 148.568 184.232C148.931 183.549 149.427 183.021 150.056 182.648C150.696 182.275 151.411 182.088 152.2 182.088C152.883 182.088 153.517 182.248 154.104 182.568C154.691 182.877 155.139 183.288 155.448 183.8V179.16H156.92V191H155.448V189.352C155.16 189.875 154.733 190.307 154.168 190.648C153.603 190.979 152.941 191.144 152.184 191.144C151.405 191.144 150.696 190.952 150.056 190.568C149.427 190.184 148.931 189.645 148.568 188.952C148.205 188.259 148.024 187.469 148.024 186.584ZM155.448 186.6C155.448 185.939 155.315 185.363 155.048 184.872C154.781 184.381 154.419 184.008 153.96 183.752C153.512 183.485 153.016 183.352 152.472 183.352C151.928 183.352 151.432 183.48 150.984 183.736C150.536 183.992 150.179 184.365 149.912 184.856C149.645 185.347 149.512 185.923 149.512 186.584C149.512 187.256 149.645 187.843 149.912 188.344C150.179 188.835 150.536 189.213 150.984 189.48C151.432 189.736 151.928 189.864 152.472 189.864C153.016 189.864 153.512 189.736 153.96 189.48C154.419 189.213 154.781 188.835 155.048 188.344C155.315 187.843 155.448 187.261 155.448 186.6ZM163.204 191.144C162.383 191.144 161.636 190.957 160.964 190.584C160.303 190.211 159.78 189.683 159.396 189C159.023 188.307 158.836 187.507 158.836 186.6C158.836 185.704 159.028 184.915 159.412 184.232C159.807 183.539 160.34 183.011 161.012 182.648C161.684 182.275 162.436 182.088 163.268 182.088C164.1 182.088 164.852 182.275 165.524 182.648C166.196 183.011 166.724 183.533 167.108 184.216C167.503 184.899 167.7 185.693 167.7 186.6C167.7 187.507 167.498 188.307 167.092 189C166.698 189.683 166.159 190.211 165.476 190.584C164.794 190.957 164.036 191.144 163.204 191.144ZM163.204 189.864C163.727 189.864 164.218 189.741 164.676 189.496C165.135 189.251 165.503 188.883 165.78 188.392C166.068 187.901 166.212 187.304 166.212 186.6C166.212 185.896 166.074 185.299 165.796 184.808C165.519 184.317 165.156 183.955 164.708 183.72C164.26 183.475 163.775 183.352 163.252 183.352C162.719 183.352 162.228 183.475 161.78 183.72C161.343 183.955 160.991 184.317 160.724 184.808C160.458 185.299 160.324 185.896 160.324 186.6C160.324 187.315 160.452 187.917 160.708 188.408C160.975 188.899 161.327 189.267 161.764 189.512C162.202 189.747 162.682 189.864 163.204 189.864ZM173.887 182.072C174.953 182.072 175.817 182.397 176.479 183.048C177.14 183.688 177.471 184.616 177.471 185.832V191H176.031V186.04C176.031 185.165 175.812 184.499 175.375 184.04C174.937 183.571 174.34 183.336 173.583 183.336C172.815 183.336 172.201 183.576 171.743 184.056C171.295 184.536 171.071 185.235 171.071 186.152V191H169.615V182.232H171.071V183.48C171.359 183.032 171.748 182.685 172.239 182.44C172.74 182.195 173.289 182.072 173.887 182.072ZM180.073 179.848H181.689L180.153 183.48H179.129L180.073 179.848ZM185.125 183.432V188.6C185.125 189.027 185.216 189.331 185.397 189.512C185.579 189.683 185.893 189.768 186.341 189.768H187.413V191H186.101C185.291 191 184.683 190.813 184.277 190.44C183.872 190.067 183.669 189.453 183.669 188.6V183.432H182.533V182.232H183.669V180.024H185.125V182.232H187.413V183.432H185.125ZM197.795 182.072C198.456 182.072 199.054 182.216 199.587 182.504C200.12 182.781 200.536 183.203 200.835 183.768C201.144 184.333 201.299 185.021 201.299 185.832V191H199.859V186.04C199.859 185.165 199.64 184.499 199.203 184.04C198.766 183.571 198.168 183.336 197.411 183.336C196.643 183.336 196.03 183.576 195.571 184.056C195.123 184.536 194.899 185.235 194.899 186.152V191H193.443V179.16H194.899V183.48C195.187 183.032 195.582 182.685 196.083 182.44C196.595 182.195 197.166 182.072 197.795 182.072ZM203.133 186.584C203.133 185.688 203.315 184.904 203.677 184.232C204.04 183.549 204.536 183.021 205.165 182.648C205.805 182.275 206.515 182.088 207.293 182.088C208.061 182.088 208.728 182.253 209.293 182.584C209.859 182.915 210.28 183.331 210.557 183.832V182.232H212.029V191H210.557V189.368C210.269 189.88 209.837 190.307 209.261 190.648C208.696 190.979 208.035 191.144 207.277 191.144C206.499 191.144 205.795 190.952 205.165 190.568C204.536 190.184 204.04 189.645 203.677 188.952C203.315 188.259 203.133 187.469 203.133 186.584ZM210.557 186.6C210.557 185.939 210.424 185.363 210.157 184.872C209.891 184.381 209.528 184.008 209.069 183.752C208.621 183.485 208.125 183.352 207.581 183.352C207.037 183.352 206.541 183.48 206.093 183.736C205.645 183.992 205.288 184.365 205.021 184.856C204.755 185.347 204.621 185.923 204.621 186.584C204.621 187.256 204.755 187.843 205.021 188.344C205.288 188.835 205.645 189.213 206.093 189.48C206.541 189.736 207.037 189.864 207.581 189.864C208.125 189.864 208.621 189.736 209.069 189.48C209.528 189.213 209.891 188.835 210.157 188.344C210.424 187.843 210.557 187.261 210.557 186.6ZM217.754 189.656L220.474 182.232H222.026L218.586 191H216.89L213.45 182.232H215.018L217.754 189.656ZM231.459 186.28C231.459 186.557 231.443 186.851 231.411 187.16H224.403C224.456 188.024 224.749 188.701 225.283 189.192C225.827 189.672 226.483 189.912 227.251 189.912C227.88 189.912 228.403 189.768 228.819 189.48C229.245 189.181 229.544 188.787 229.715 188.296H231.283C231.048 189.139 230.579 189.827 229.875 190.36C229.171 190.883 228.296 191.144 227.251 191.144C226.419 191.144 225.672 190.957 225.011 190.584C224.36 190.211 223.848 189.683 223.475 189C223.101 188.307 222.915 187.507 222.915 186.6C222.915 185.693 223.096 184.899 223.459 184.216C223.821 183.533 224.328 183.011 224.979 182.648C225.64 182.275 226.397 182.088 227.251 182.088C228.083 182.088 228.819 182.269 229.459 182.632C230.099 182.995 230.589 183.496 230.931 184.136C231.283 184.765 231.459 185.48 231.459 186.28ZM229.955 185.976C229.955 185.421 229.832 184.947 229.587 184.552C229.341 184.147 229.005 183.843 228.579 183.64C228.163 183.427 227.699 183.32 227.187 183.32C226.451 183.32 225.821 183.555 225.299 184.024C224.787 184.493 224.493 185.144 224.419 185.976H229.955ZM47.0909 203.928V215H45.6349V206.744L41.9549 215H40.9309L37.2349 206.728V215H35.7789V203.928H37.3469L41.4429 213.08L45.5389 203.928H47.0909ZM49.0161 210.584C49.0161 209.688 49.1975 208.904 49.5601 208.232C49.9228 207.549 50.4188 207.021 51.0481 206.648C51.6881 206.275 52.3975 206.088 53.1761 206.088C53.9441 206.088 54.6108 206.253 55.1761 206.584C55.7415 206.915 56.1628 207.331 56.4401 207.832V206.232H57.9121V215H56.4401V213.368C56.1521 213.88 55.7201 214.307 55.1441 214.648C54.5788 214.979 53.9175 215.144 53.1601 215.144C52.3815 215.144 51.6775 214.952 51.0481 214.568C50.4188 214.184 49.9228 213.645 49.5601 212.952C49.1975 212.259 49.0161 211.469 49.0161 210.584ZM56.4401 210.6C56.4401 209.939 56.3068 209.363 56.0401 208.872C55.7735 208.381 55.4108 208.008 54.9521 207.752C54.5041 207.485 54.0081 207.352 53.4641 207.352C52.9201 207.352 52.4241 207.48 51.9761 207.736C51.5281 207.992 51.1708 208.365 50.9041 208.856C50.6375 209.347 50.5041 209.923 50.5041 210.584C50.5041 211.256 50.6375 211.843 50.9041 212.344C51.1708 212.835 51.5281 213.213 51.9761 213.48C52.4241 213.736 52.9201 213.864 53.4641 213.864C54.0081 213.864 54.5041 213.736 54.9521 213.48C55.4108 213.213 55.7735 212.835 56.0401 212.344C56.3068 211.843 56.4401 211.261 56.4401 210.6ZM59.8286 210.6C59.8286 209.693 60.01 208.904 60.3726 208.232C60.7353 207.549 61.2366 207.021 61.8766 206.648C62.5273 206.275 63.2686 206.088 64.1006 206.088C65.178 206.088 66.0633 206.349 66.7566 206.872C67.4606 207.395 67.9246 208.12 68.1486 209.048H66.5806C66.4313 208.515 66.138 208.093 65.7006 207.784C65.274 207.475 64.7406 207.32 64.1006 207.32C63.2686 207.32 62.5966 207.608 62.0846 208.184C61.5726 208.749 61.3166 209.555 61.3166 210.6C61.3166 211.656 61.5726 212.472 62.0846 213.048C62.5966 213.624 63.2686 213.912 64.1006 213.912C64.7406 213.912 65.274 213.763 65.7006 213.464C66.1273 213.165 66.4206 212.739 66.5806 212.184H68.1486C67.914 213.08 67.4446 213.8 66.7406 214.344C66.0366 214.877 65.1566 215.144 64.1006 215.144C63.2686 215.144 62.5273 214.957 61.8766 214.584C61.2366 214.211 60.7353 213.683 60.3726 213C60.01 212.317 59.8286 211.517 59.8286 210.6ZM74.4434 206.072C75.1047 206.072 75.702 206.216 76.2354 206.504C76.7687 206.781 77.1847 207.203 77.4834 207.768C77.7927 208.333 77.9474 209.021 77.9474 209.832V215H76.5074V210.04C76.5074 209.165 76.2887 208.499 75.8514 208.04C75.414 207.571 74.8167 207.336 74.0594 207.336C73.2914 207.336 72.678 207.576 72.2194 208.056C71.7714 208.536 71.5474 209.235 71.5474 210.152V215H70.0914V203.16H71.5474V207.48C71.8354 207.032 72.23 206.685 72.7314 206.44C73.2434 206.195 73.814 206.072 74.4434 206.072ZM81.0778 204.808C80.8004 204.808 80.5658 204.712 80.3738 204.52C80.1818 204.328 80.0858 204.093 80.0858 203.816C80.0858 203.539 80.1818 203.304 80.3738 203.112C80.5658 202.92 80.8004 202.824 81.0778 202.824C81.3444 202.824 81.5684 202.92 81.7498 203.112C81.9418 203.304 82.0378 203.539 82.0378 203.816C82.0378 204.093 81.9418 204.328 81.7498 204.52C81.5684 204.712 81.3444 204.808 81.0778 204.808ZM81.7818 206.232V215H80.3258V206.232H81.7818ZM88.5353 206.072C89.6019 206.072 90.4659 206.397 91.1273 207.048C91.7886 207.688 92.1193 208.616 92.1193 209.832V215H90.6793V210.04C90.6793 209.165 90.4606 208.499 90.0233 208.04C89.5859 207.571 88.9886 207.336 88.2313 207.336C87.4633 207.336 86.8499 207.576 86.3913 208.056C85.9433 208.536 85.7193 209.235 85.7193 210.152V215H84.2633V206.232H85.7193V207.48C86.0073 207.032 86.3966 206.685 86.8873 206.44C87.3886 206.195 87.9379 206.072 88.5353 206.072ZM102.498 210.28C102.498 210.557 102.482 210.851 102.45 211.16H95.4416C95.495 212.024 95.7883 212.701 96.3216 213.192C96.8656 213.672 97.5216 213.912 98.2896 213.912C98.919 213.912 99.4416 213.768 99.8576 213.48C100.284 213.181 100.583 212.787 100.754 212.296H102.322C102.087 213.139 101.618 213.827 100.914 214.36C100.21 214.883 99.335 215.144 98.2896 215.144C97.4576 215.144 96.711 214.957 96.0496 214.584C95.399 214.211 94.887 213.683 94.5136 213C94.1403 212.307 93.9536 211.507 93.9536 210.6C93.9536 209.693 94.135 208.899 94.4976 208.216C94.8603 207.533 95.367 207.011 96.0176 206.648C96.679 206.275 97.4363 206.088 98.2896 206.088C99.1216 206.088 99.8576 206.269 100.498 206.632C101.138 206.995 101.628 207.496 101.97 208.136C102.322 208.765 102.498 209.48 102.498 210.28ZM100.994 209.976C100.994 209.421 100.871 208.947 100.626 208.552C100.38 208.147 100.044 207.843 99.6176 207.64C99.2016 207.427 98.7376 207.32 98.2256 207.32C97.4896 207.32 96.8603 207.555 96.3376 208.024C95.8256 208.493 95.5323 209.144 95.4576 209.976H100.994ZM107.524 215.144C106.852 215.144 106.249 215.032 105.716 214.808C105.182 214.573 104.761 214.253 104.452 213.848C104.142 213.432 103.972 212.957 103.94 212.424H105.444C105.486 212.861 105.689 213.219 106.052 213.496C106.425 213.773 106.91 213.912 107.508 213.912C108.062 213.912 108.5 213.789 108.82 213.544C109.14 213.299 109.3 212.989 109.3 212.616C109.3 212.232 109.129 211.949 108.788 211.768C108.446 211.576 107.918 211.389 107.204 211.208C106.553 211.037 106.02 210.867 105.604 210.696C105.198 210.515 104.846 210.253 104.548 209.912C104.26 209.56 104.116 209.101 104.116 208.536C104.116 208.088 104.249 207.677 104.516 207.304C104.782 206.931 105.161 206.637 105.652 206.424C106.142 206.2 106.702 206.088 107.332 206.088C108.302 206.088 109.086 206.333 109.684 206.824C110.281 207.315 110.601 207.987 110.644 208.84H109.188C109.156 208.381 108.969 208.013 108.628 207.736C108.297 207.459 107.849 207.32 107.284 207.32C106.761 207.32 106.345 207.432 106.036 207.656C105.726 207.88 105.572 208.173 105.572 208.536C105.572 208.824 105.662 209.064 105.844 209.256C106.036 209.437 106.27 209.587 106.548 209.704C106.836 209.811 107.23 209.933 107.732 210.072C108.361 210.243 108.873 210.413 109.268 210.584C109.662 210.744 109.998 210.989 110.276 211.32C110.564 211.651 110.713 212.083 110.724 212.616C110.724 213.096 110.59 213.528 110.324 213.912C110.057 214.296 109.678 214.6 109.188 214.824C108.708 215.037 108.153 215.144 107.524 215.144ZM118.549 212.984L116.757 217.288H115.78L116.949 212.984H118.549ZM125.938 207.848C126.226 207.347 126.653 206.931 127.218 206.6C127.794 206.259 128.461 206.088 129.218 206.088C129.997 206.088 130.701 206.275 131.33 206.648C131.97 207.021 132.471 207.549 132.834 208.232C133.197 208.904 133.378 209.688 133.378 210.584C133.378 211.469 133.197 212.259 132.834 212.952C132.471 213.645 131.97 214.184 131.33 214.568C130.701 214.952 129.997 215.144 129.218 215.144C128.471 215.144 127.81 214.979 127.234 214.648C126.669 214.307 126.237 213.885 125.938 213.384V219.16H124.482V206.232H125.938V207.848ZM131.89 210.584C131.89 209.923 131.757 209.347 131.49 208.856C131.223 208.365 130.861 207.992 130.402 207.736C129.954 207.48 129.458 207.352 128.914 207.352C128.381 207.352 127.885 207.485 127.426 207.752C126.978 208.008 126.615 208.387 126.338 208.888C126.071 209.379 125.938 209.949 125.938 210.6C125.938 211.261 126.071 211.843 126.338 212.344C126.615 212.835 126.978 213.213 127.426 213.48C127.885 213.736 128.381 213.864 128.914 213.864C129.458 213.864 129.954 213.736 130.402 213.48C130.861 213.213 131.223 212.835 131.49 212.344C131.757 211.843 131.89 211.256 131.89 210.584ZM136.751 203.16V215H135.295V203.16H136.751ZM147.232 210.28C147.232 210.557 147.216 210.851 147.184 211.16H140.176C140.229 212.024 140.523 212.701 141.056 213.192C141.6 213.672 142.256 213.912 143.024 213.912C143.653 213.912 144.176 213.768 144.592 213.48C145.019 213.181 145.317 212.787 145.488 212.296H147.056C146.821 213.139 146.352 213.827 145.648 214.36C144.944 214.883 144.069 215.144 143.024 215.144C142.192 215.144 141.445 214.957 140.784 214.584C140.133 214.211 139.621 213.683 139.248 213C138.875 212.307 138.688 211.507 138.688 210.6C138.688 209.693 138.869 208.899 139.232 208.216C139.595 207.533 140.101 207.011 140.752 206.648C141.413 206.275 142.171 206.088 143.024 206.088C143.856 206.088 144.592 206.269 145.232 206.632C145.872 206.995 146.363 207.496 146.704 208.136C147.056 208.765 147.232 209.48 147.232 210.28ZM145.728 209.976C145.728 209.421 145.605 208.947 145.36 208.552C145.115 208.147 144.779 207.843 144.352 207.64C143.936 207.427 143.472 207.32 142.96 207.32C142.224 207.32 141.595 207.555 141.072 208.024C140.56 208.493 140.267 209.144 140.192 209.976H145.728ZM148.61 210.584C148.61 209.688 148.791 208.904 149.154 208.232C149.517 207.549 150.013 207.021 150.642 206.648C151.282 206.275 151.991 206.088 152.77 206.088C153.538 206.088 154.205 206.253 154.77 206.584C155.335 206.915 155.757 207.331 156.034 207.832V206.232H157.506V215H156.034V213.368C155.746 213.88 155.314 214.307 154.738 214.648C154.173 214.979 153.511 215.144 152.754 215.144C151.975 215.144 151.271 214.952 150.642 214.568C150.013 214.184 149.517 213.645 149.154 212.952C148.791 212.259 148.61 211.469 148.61 210.584ZM156.034 210.6C156.034 209.939 155.901 209.363 155.634 208.872C155.367 208.381 155.005 208.008 154.546 207.752C154.098 207.485 153.602 207.352 153.058 207.352C152.514 207.352 152.018 207.48 151.57 207.736C151.122 207.992 150.765 208.365 150.498 208.856C150.231 209.347 150.098 209.923 150.098 210.584C150.098 211.256 150.231 211.843 150.498 212.344C150.765 212.835 151.122 213.213 151.57 213.48C152.018 213.736 152.514 213.864 153.058 213.864C153.602 213.864 154.098 213.736 154.546 213.48C155.005 213.213 155.367 212.835 155.634 212.344C155.901 211.843 156.034 211.261 156.034 210.6ZM163.07 215.144C162.398 215.144 161.796 215.032 161.262 214.808C160.729 214.573 160.308 214.253 159.998 213.848C159.689 213.432 159.518 212.957 159.486 212.424H160.99C161.033 212.861 161.236 213.219 161.598 213.496C161.972 213.773 162.457 213.912 163.054 213.912C163.609 213.912 164.046 213.789 164.366 213.544C164.686 213.299 164.846 212.989 164.846 212.616C164.846 212.232 164.676 211.949 164.334 211.768C163.993 211.576 163.465 211.389 162.75 211.208C162.1 211.037 161.566 210.867 161.15 210.696C160.745 210.515 160.393 210.253 160.094 209.912C159.806 209.56 159.662 209.101 159.662 208.536C159.662 208.088 159.796 207.677 160.062 207.304C160.329 206.931 160.708 206.637 161.198 206.424C161.689 206.2 162.249 206.088 162.878 206.088C163.849 206.088 164.633 206.333 165.23 206.824C165.828 207.315 166.148 207.987 166.19 208.84H164.734C164.702 208.381 164.516 208.013 164.174 207.736C163.844 207.459 163.396 207.32 162.83 207.32C162.308 207.32 161.892 207.432 161.582 207.656C161.273 207.88 161.118 208.173 161.118 208.536C161.118 208.824 161.209 209.064 161.39 209.256C161.582 209.437 161.817 209.587 162.094 209.704C162.382 209.811 162.777 209.933 163.278 210.072C163.908 210.243 164.42 210.413 164.814 210.584C165.209 210.744 165.545 210.989 165.822 211.32C166.11 211.651 166.26 212.083 166.27 212.616C166.27 213.096 166.137 213.528 165.87 213.912C165.604 214.296 165.225 214.6 164.734 214.824C164.254 215.037 163.7 215.144 163.07 215.144ZM176.326 210.28C176.326 210.557 176.31 210.851 176.278 211.16H169.27C169.323 212.024 169.616 212.701 170.15 213.192C170.694 213.672 171.35 213.912 172.118 213.912C172.747 213.912 173.27 213.768 173.686 213.48C174.112 213.181 174.411 212.787 174.582 212.296H176.15C175.915 213.139 175.446 213.827 174.742 214.36C174.038 214.883 173.163 215.144 172.118 215.144C171.286 215.144 170.539 214.957 169.878 214.584C169.227 214.211 168.715 213.683 168.342 213C167.968 212.307 167.782 211.507 167.782 210.6C167.782 209.693 167.963 208.899 168.326 208.216C168.688 207.533 169.195 207.011 169.846 206.648C170.507 206.275 171.264 206.088 172.118 206.088C172.95 206.088 173.686 206.269 174.326 206.632C174.966 206.995 175.456 207.496 175.798 208.136C176.15 208.765 176.326 209.48 176.326 210.28ZM174.822 209.976C174.822 209.421 174.699 208.947 174.454 208.552C174.208 208.147 173.872 207.843 173.446 207.64C173.03 207.427 172.566 207.32 172.054 207.32C171.318 207.32 170.688 207.555 170.166 208.024C169.654 208.493 169.36 209.144 169.286 209.976H174.822ZM181.969 210.6C181.969 209.693 182.151 208.904 182.513 208.232C182.876 207.549 183.377 207.021 184.017 206.648C184.668 206.275 185.409 206.088 186.241 206.088C187.319 206.088 188.204 206.349 188.897 206.872C189.601 207.395 190.065 208.12 190.289 209.048H188.721C188.572 208.515 188.279 208.093 187.841 207.784C187.415 207.475 186.881 207.32 186.241 207.32C185.409 207.32 184.737 207.608 184.225 208.184C183.713 208.749 183.457 209.555 183.457 210.6C183.457 211.656 183.713 212.472 184.225 213.048C184.737 213.624 185.409 213.912 186.241 213.912C186.881 213.912 187.415 213.763 187.841 213.464C188.268 213.165 188.561 212.739 188.721 212.184H190.289C190.055 213.08 189.585 213.8 188.881 214.344C188.177 214.877 187.297 215.144 186.241 215.144C185.409 215.144 184.668 214.957 184.017 214.584C183.377 214.211 182.876 213.683 182.513 213C182.151 212.317 181.969 211.517 181.969 210.6ZM193.688 207.656C193.944 207.155 194.307 206.765 194.776 206.488C195.256 206.211 195.837 206.072 196.52 206.072V207.576H196.136C194.504 207.576 193.688 208.461 193.688 210.232V215H192.232V206.232H193.688V207.656ZM206.201 210.28C206.201 210.557 206.185 210.851 206.153 211.16H199.145C199.198 212.024 199.491 212.701 200.025 213.192C200.569 213.672 201.225 213.912 201.993 213.912C202.622 213.912 203.145 213.768 203.561 213.48C203.987 213.181 204.286 212.787 204.457 212.296H206.025C205.79 213.139 205.321 213.827 204.617 214.36C203.913 214.883 203.038 215.144 201.993 215.144C201.161 215.144 200.414 214.957 199.753 214.584C199.102 214.211 198.59 213.683 198.217 213C197.843 212.307 197.657 211.507 197.657 210.6C197.657 209.693 197.838 208.899 198.201 208.216C198.563 207.533 199.07 207.011 199.721 206.648C200.382 206.275 201.139 206.088 201.993 206.088C202.825 206.088 203.561 206.269 204.201 206.632C204.841 206.995 205.331 207.496 205.673 208.136C206.025 208.765 206.201 209.48 206.201 210.28ZM204.697 209.976C204.697 209.421 204.574 208.947 204.329 208.552C204.083 208.147 203.747 207.843 203.321 207.64C202.905 207.427 202.441 207.32 201.929 207.32C201.193 207.32 200.563 207.555 200.041 208.024C199.529 208.493 199.235 209.144 199.161 209.976H204.697ZM207.579 210.584C207.579 209.688 207.76 208.904 208.123 208.232C208.485 207.549 208.981 207.021 209.611 206.648C210.251 206.275 210.96 206.088 211.739 206.088C212.507 206.088 213.173 206.253 213.739 206.584C214.304 206.915 214.725 207.331 215.003 207.832V206.232H216.475V215H215.003V213.368C214.715 213.88 214.283 214.307 213.707 214.648C213.141 214.979 212.48 215.144 211.723 215.144C210.944 215.144 210.24 214.952 209.611 214.568C208.981 214.184 208.485 213.645 208.123 212.952C207.76 212.259 207.579 211.469 207.579 210.584ZM215.003 210.6C215.003 209.939 214.869 209.363 214.603 208.872C214.336 208.381 213.973 208.008 213.515 207.752C213.067 207.485 212.571 207.352 212.027 207.352C211.483 207.352 210.987 207.48 210.539 207.736C210.091 207.992 209.733 208.365 209.467 208.856C209.2 209.347 209.067 209.923 209.067 210.584C209.067 211.256 209.2 211.843 209.467 212.344C209.733 212.835 210.091 213.213 210.539 213.48C210.987 213.736 211.483 213.864 212.027 213.864C212.571 213.864 213.067 213.736 213.515 213.48C213.973 213.213 214.336 212.835 214.603 212.344C214.869 211.843 215.003 211.261 215.003 210.6ZM220.711 207.432V212.6C220.711 213.027 220.802 213.331 220.983 213.512C221.164 213.683 221.479 213.768 221.927 213.768H222.999V215H221.687C220.876 215 220.268 214.813 219.863 214.44C219.458 214.067 219.255 213.453 219.255 212.6V207.432H218.119V206.232H219.255V204.024H220.711V206.232H222.999V207.432H220.711ZM232.763 210.28C232.763 210.557 232.747 210.851 232.715 211.16H225.707C225.761 212.024 226.054 212.701 226.587 213.192C227.131 213.672 227.787 213.912 228.555 213.912C229.185 213.912 229.707 213.768 230.123 213.48C230.55 213.181 230.849 212.787 231.019 212.296H232.587C232.353 213.139 231.883 213.827 231.179 214.36C230.475 214.883 229.601 215.144 228.555 215.144C227.723 215.144 226.977 214.957 226.315 214.584C225.665 214.211 225.153 213.683 224.779 213C224.406 212.307 224.219 211.507 224.219 210.6C224.219 209.693 224.401 208.899 224.763 208.216C225.126 207.533 225.633 207.011 226.283 206.648C226.945 206.275 227.702 206.088 228.555 206.088C229.387 206.088 230.123 206.269 230.763 206.632C231.403 206.995 231.894 207.496 232.235 208.136C232.587 208.765 232.763 209.48 232.763 210.28ZM231.259 209.976C231.259 209.421 231.137 208.947 230.891 208.552C230.646 208.147 230.31 207.843 229.883 207.64C229.467 207.427 229.003 207.32 228.491 207.32C227.755 207.32 227.126 207.555 226.603 208.024C226.091 208.493 225.798 209.144 225.723 209.976H231.259ZM108.044 228.928V240H106.588V231.744L102.908 240H101.884L98.188 231.728V240H96.732V228.928H98.3L102.396 238.08L106.492 228.928H108.044ZM109.969 235.584C109.969 234.688 110.151 233.904 110.513 233.232C110.876 232.549 111.372 232.021 112.001 231.648C112.641 231.275 113.351 231.088 114.129 231.088C114.897 231.088 115.564 231.253 116.129 231.584C116.695 231.915 117.116 232.331 117.393 232.832V231.232H118.865V240H117.393V238.368C117.105 238.88 116.673 239.307 116.097 239.648C115.532 239.979 114.871 240.144 114.113 240.144C113.335 240.144 112.631 239.952 112.001 239.568C111.372 239.184 110.876 238.645 110.513 237.952C110.151 237.259 109.969 236.469 109.969 235.584ZM117.393 235.6C117.393 234.939 117.26 234.363 116.993 233.872C116.727 233.381 116.364 233.008 115.905 232.752C115.457 232.485 114.961 232.352 114.417 232.352C113.873 232.352 113.377 232.48 112.929 232.736C112.481 232.992 112.124 233.365 111.857 233.856C111.591 234.347 111.457 234.923 111.457 235.584C111.457 236.256 111.591 236.843 111.857 237.344C112.124 237.835 112.481 238.213 112.929 238.48C113.377 238.736 113.873 238.864 114.417 238.864C114.961 238.864 115.457 238.736 115.905 238.48C116.364 238.213 116.727 237.835 116.993 237.344C117.26 236.843 117.393 236.261 117.393 235.6ZM120.782 235.6C120.782 234.693 120.963 233.904 121.326 233.232C121.688 232.549 122.19 232.021 122.83 231.648C123.48 231.275 124.222 231.088 125.054 231.088C126.131 231.088 127.016 231.349 127.71 231.872C128.414 232.395 128.878 233.12 129.102 234.048H127.534C127.384 233.515 127.091 233.093 126.654 232.784C126.227 232.475 125.694 232.32 125.054 232.32C124.222 232.32 123.55 232.608 123.038 233.184C122.526 233.749 122.27 234.555 122.27 235.6C122.27 236.656 122.526 237.472 123.038 238.048C123.55 238.624 124.222 238.912 125.054 238.912C125.694 238.912 126.227 238.763 126.654 238.464C127.08 238.165 127.374 237.739 127.534 237.184H129.102C128.867 238.08 128.398 238.8 127.694 239.344C126.99 239.877 126.11 240.144 125.054 240.144C124.222 240.144 123.48 239.957 122.83 239.584C122.19 239.211 121.688 238.683 121.326 238C120.963 237.317 120.782 236.517 120.782 235.6ZM135.397 231.072C136.058 231.072 136.655 231.216 137.189 231.504C137.722 231.781 138.138 232.203 138.437 232.768C138.746 233.333 138.901 234.021 138.901 234.832V240H137.461V235.04C137.461 234.165 137.242 233.499 136.805 233.04C136.367 232.571 135.77 232.336 135.013 232.336C134.245 232.336 133.631 232.576 133.173 233.056C132.725 233.536 132.501 234.235 132.501 235.152V240H131.045V228.16H132.501V232.48C132.789 232.032 133.183 231.685 133.685 231.44C134.197 231.195 134.767 231.072 135.397 231.072ZM142.031 229.808C141.754 229.808 141.519 229.712 141.327 229.52C141.135 229.328 141.039 229.093 141.039 228.816C141.039 228.539 141.135 228.304 141.327 228.112C141.519 227.92 141.754 227.824 142.031 227.824C142.298 227.824 142.522 227.92 142.703 228.112C142.895 228.304 142.991 228.539 142.991 228.816C142.991 229.093 142.895 229.328 142.703 229.52C142.522 229.712 142.298 229.808 142.031 229.808ZM142.735 231.232V240H141.279V231.232H142.735ZM149.488 231.072C150.555 231.072 151.419 231.397 152.08 232.048C152.742 232.688 153.072 233.616 153.072 234.832V240H151.632V235.04C151.632 234.165 151.414 233.499 150.976 233.04C150.539 232.571 149.942 232.336 149.184 232.336C148.416 232.336 147.803 232.576 147.344 233.056C146.896 233.536 146.672 234.235 146.672 235.152V240H145.216V231.232H146.672V232.48C146.96 232.032 147.35 231.685 147.84 231.44C148.342 231.195 148.891 231.072 149.488 231.072ZM163.451 235.28C163.451 235.557 163.435 235.851 163.403 236.16H156.395C156.448 237.024 156.741 237.701 157.275 238.192C157.819 238.672 158.475 238.912 159.243 238.912C159.872 238.912 160.395 238.768 160.811 238.48C161.237 238.181 161.536 237.787 161.707 237.296H163.275C163.04 238.139 162.571 238.827 161.867 239.36C161.163 239.883 160.288 240.144 159.243 240.144C158.411 240.144 157.664 239.957 157.003 239.584C156.352 239.211 155.84 238.683 155.467 238C155.093 237.307 154.907 236.507 154.907 235.6C154.907 234.693 155.088 233.899 155.451 233.216C155.813 232.533 156.32 232.011 156.971 231.648C157.632 231.275 158.389 231.088 159.243 231.088C160.075 231.088 160.811 231.269 161.451 231.632C162.091 231.995 162.581 232.496 162.923 233.136C163.275 233.765 163.451 234.48 163.451 235.28ZM161.947 234.976C161.947 234.421 161.824 233.947 161.579 233.552C161.333 233.147 160.997 232.843 160.571 232.64C160.155 232.427 159.691 232.32 159.179 232.32C158.443 232.32 157.813 232.555 157.291 233.024C156.779 233.493 156.485 234.144 156.411 234.976H161.947ZM168.477 240.144C167.805 240.144 167.202 240.032 166.669 239.808C166.135 239.573 165.714 239.253 165.405 238.848C165.095 238.432 164.925 237.957 164.893 237.424H166.397C166.439 237.861 166.642 238.219 167.005 238.496C167.378 238.773 167.863 238.912 168.461 238.912C169.015 238.912 169.453 238.789 169.773 238.544C170.093 238.299 170.253 237.989 170.253 237.616C170.253 237.232 170.082 236.949 169.741 236.768C169.399 236.576 168.871 236.389 168.157 236.208C167.506 236.037 166.973 235.867 166.557 235.696C166.151 235.515 165.799 235.253 165.501 234.912C165.213 234.56 165.069 234.101 165.069 233.536C165.069 233.088 165.202 232.677 165.469 232.304C165.735 231.931 166.114 231.637 166.605 231.424C167.095 231.2 167.655 231.088 168.285 231.088C169.255 231.088 170.039 231.333 170.637 231.824C171.234 232.315 171.554 232.987 171.597 233.84H170.141C170.109 233.381 169.922 233.013 169.581 232.736C169.25 232.459 168.802 232.32 168.237 232.32C167.714 232.32 167.298 232.432 166.989 232.656C166.679 232.88 166.525 233.173 166.525 233.536C166.525 233.824 166.615 234.064 166.797 234.256C166.989 234.437 167.223 234.587 167.501 234.704C167.789 234.811 168.183 234.933 168.685 235.072C169.314 235.243 169.826 235.413 170.221 235.584C170.615 235.744 170.951 235.989 171.229 236.32C171.517 236.651 171.666 237.083 171.677 237.616C171.677 238.096 171.543 238.528 171.277 238.912C171.01 239.296 170.631 239.6 170.141 239.824C169.661 240.037 169.106 240.144 168.477 240.144Z" fill="black"/>
<path d="M109.75 89.0998V86.4998C103.314 86.4998 98.0781 81.2517 98.0781 74.7998H95.4844C95.4844 82.6843 101.884 89.0998 109.75 89.0998Z" fill="white"/>
<path d="M109.75 83.9002C114.755 83.9002 118.828 79.8169 118.828 74.8002C118.828 69.7835 114.755 65.7002 109.75 65.7002C104.745 65.7002 100.672 69.7835 100.672 74.8002C100.672 79.8169 104.745 83.9002 109.75 83.9002ZM109.75 68.3002C113.325 68.3002 116.234 71.2161 116.234 74.8002C116.234 78.3843 113.325 81.3002 109.75 81.3002C106.175 81.3002 103.266 78.3843 103.266 74.8002C103.266 71.2161 106.175 68.3002 109.75 68.3002Z" fill="white"/>
<path d="M109.75 78.6994C111.895 78.6994 113.641 76.9496 113.641 74.7994C113.641 72.6492 111.895 70.8994 109.75 70.8994C107.605 70.8994 105.859 72.6492 105.859 74.7994C105.859 76.9496 107.605 78.6994 109.75 78.6994ZM109.75 73.4994C110.466 73.4994 111.047 74.0818 111.047 74.7994C111.047 75.517 110.466 76.0994 109.75 76.0994C109.034 76.0994 108.453 75.517 108.453 74.7994C108.453 74.0818 109.034 73.4994 109.75 73.4994Z" fill="white"/>
<path d="M170.703 117.323V107.677L167.194 106.45C166.8 105.152 166.285 103.902 165.653 102.716L167.269 99.3646L166.016 98.1088C165.437 97.3457 164.485 96.3382 163.765 95.6089C162.869 94.7002 161.835 93.7148 161.133 93.0986L152.505 85.5352L153.246 83.3083L156.248 84.8137L161.239 79.8113L159.737 76.8018L162.922 75.7371V68.6638L159.737 67.6004L161.239 64.5909L156.248 59.5885L153.246 61.0939L152.185 57.8998H145.129L144.068 61.0926L141.066 59.5872L136.075 64.5896L137.577 67.5991L134.391 68.6625V69.6544L123.716 60.297C120.042 57.0743 115.33 55.2998 110.448 55.2998V55.3349C110.214 55.3271 109.986 55.2998 109.75 55.2998C99.0235 55.2998 90.2969 64.0475 90.2969 74.7998C90.2969 75.0364 90.3241 75.2652 90.3319 75.4992H90.2969C90.2969 80.3937 92.0671 85.1153 95.2821 88.7982L104.623 99.4998H103.627L102.567 102.693L99.5643 101.187L94.574 106.19L96.0757 109.199L92.8906 110.263V117.336L96.0757 118.399L94.574 121.409L99.5643 126.411L102.567 124.906L103.627 128.1H110.684L111.745 124.907L114.747 126.412L119.737 121.41L118.235 118.401L120.471 117.654L128 126.279C128.59 126.953 129.474 127.893 130.307 128.734C131.095 129.529 132.181 130.576 132.995 131.199L134.252 132.459L137.595 130.839C138.778 131.471 140.026 131.988 141.32 132.383L142.548 135.9H152.171L153.395 132.382C154.689 131.987 155.937 131.471 157.12 130.838L160.463 132.457L167.269 125.635L165.653 122.284C166.283 121.098 166.8 119.847 167.194 118.55L170.703 117.323ZM129.066 102.716C128.435 103.902 127.919 105.152 127.525 106.45L124.016 107.677V117.323L127.525 118.55C127.919 119.847 128.434 121.098 129.066 122.284L128.673 123.099L102.194 92.7684C104.518 93.7538 107.072 94.2998 109.75 94.2998C120.476 94.2998 129.203 85.5521 129.203 74.7998C129.203 72.1127 128.658 69.5517 127.674 67.2208L157.95 93.7603L157.121 94.162C155.938 93.5302 154.691 93.0128 153.396 92.6176L152.171 89.0998H142.548L141.324 92.6176C140.029 93.0128 138.782 93.5289 137.599 94.162L134.256 92.5422L127.45 99.3646L129.066 102.716ZM136.984 70.5371L139.962 69.5426L140.18 68.9667C140.243 68.799 140.31 68.6365 140.38 68.4753L140.631 67.9124L139.229 65.1018L141.575 62.7501L144.379 64.1554L144.941 63.9032C145.102 63.8317 145.264 63.7667 145.431 63.703L146.005 63.4846L146.998 60.4998H150.316L151.308 63.4846L151.883 63.703C152.05 63.7667 152.212 63.833 152.373 63.9032L152.935 64.1554L155.738 62.7501L158.085 65.1018L156.683 67.9124L156.934 68.4753C157.006 68.6365 157.07 68.799 157.134 68.9667L157.352 69.5426L160.328 70.5371V73.8638L157.35 74.8583L157.133 75.4342C157.069 75.6019 157.003 75.7644 156.933 75.9256L156.681 76.4885L158.083 79.2991L155.737 81.6508L152.933 80.2455L152.372 80.4977C152.211 80.5692 152.049 80.6342 151.882 80.6979L151.307 80.9163L150.389 83.6801L136.984 71.9281V70.5371ZM109.75 57.8998C119.046 57.8998 126.609 65.4814 126.609 74.7998C126.609 84.1182 119.046 91.6998 109.75 91.6998C100.454 91.6998 92.8906 84.1182 92.8906 74.7998C92.8906 65.4814 100.454 57.8998 109.75 57.8998ZM115.851 116.457L115.633 117.033C115.569 117.201 115.503 117.363 115.433 117.524L115.181 118.087L116.583 120.898L114.237 123.25L111.433 121.844L110.872 122.096C110.711 122.168 110.549 122.233 110.382 122.297L109.807 122.515L108.815 125.5H105.496L104.504 122.515L103.93 122.297C103.762 122.233 103.6 122.167 103.439 122.096L102.878 121.844L100.075 123.25L97.7293 120.898L99.1312 118.087L98.8796 117.524C98.8083 117.363 98.7434 117.201 98.6799 117.033L98.462 116.457L95.4844 115.463V112.136L98.462 111.141L98.6799 110.565C98.7434 110.398 98.8096 110.235 98.8796 110.074L99.1312 109.511L97.7293 106.702L100.075 104.35L102.879 105.755L103.441 105.503C103.602 105.432 103.764 105.367 103.931 105.303L104.505 105.085L105.498 102.1H106.894L118.621 115.533L115.851 116.457ZM165.057 116.544L164.879 117.208C164.466 118.753 163.858 120.227 163.071 121.591L162.726 122.187L164.131 125.102L159.931 129.311L157.024 127.904L156.428 128.249C155.068 129.037 153.596 129.647 152.057 130.062L151.394 130.24L150.329 133.3H144.39L143.325 130.24L142.662 130.062C141.121 129.648 139.651 129.038 138.29 128.249L137.695 127.904L134.787 129.311L130.588 125.102L131.993 122.187L131.648 121.591C130.862 120.227 130.254 118.752 129.84 117.208L129.662 116.544L126.609 115.477V109.523L129.662 108.456L129.84 107.791C130.252 106.247 130.861 104.773 131.648 103.409L131.993 102.812L130.588 99.8976L134.787 95.6882L137.695 97.0961L138.29 96.7503C139.651 95.9625 141.123 95.3528 142.662 94.9381L143.325 94.76L144.39 91.6998H150.329L151.394 94.76L152.057 94.9381C153.597 95.3515 155.068 95.9612 156.428 96.7503L157.024 97.0961L159.931 95.6882L164.131 99.8976L162.726 102.812L163.071 103.409C163.857 104.773 164.465 106.248 164.879 107.791L165.057 108.456L168.109 109.523V115.477L165.057 116.544Z" fill="white"/>
<path d="M147.359 99.5C140.208 99.5 134.391 105.332 134.391 112.5C134.391 119.668 140.208 125.5 147.359 125.5C154.51 125.5 160.328 119.668 160.328 112.5C160.328 105.332 154.51 99.5 147.359 99.5ZM147.359 122.9C141.639 122.9 136.984 118.234 136.984 112.5C136.984 106.766 141.639 102.1 147.359 102.1C153.08 102.1 157.734 106.766 157.734 112.5C157.734 118.234 153.08 122.9 147.359 122.9Z" fill="white"/>
<path d="M147.359 104.7C143.068 104.7 139.578 108.198 139.578 112.5C139.578 116.802 143.068 120.3 147.359 120.3C151.651 120.3 155.141 116.802 155.141 112.5C155.141 108.198 151.651 104.7 147.359 104.7ZM147.359 117.7C144.498 117.7 142.172 115.368 142.172 112.5C142.172 109.632 144.498 107.3 147.359 107.3C150.22 107.3 152.547 109.632 152.547 112.5C152.547 115.368 150.22 117.7 147.359 117.7Z" fill="white"/>
<path d="M155.141 72.2002C155.141 68.6161 152.232 65.7002 148.656 65.7002C145.081 65.7002 142.172 68.6161 142.172 72.2002C142.172 75.7843 145.081 78.7002 148.656 78.7002C152.232 78.7002 155.141 75.7843 155.141 72.2002ZM144.766 72.2002C144.766 70.05 146.511 68.3002 148.656 68.3002C150.801 68.3002 152.547 70.05 152.547 72.2002C152.547 74.3504 150.801 76.1002 148.656 76.1002C146.511 76.1002 144.766 74.3504 144.766 72.2002Z" fill="white"/>
<path d="M100.672 113.8C100.672 117.384 103.581 120.3 107.156 120.3C110.732 120.3 113.641 117.384 113.641 113.8C113.641 110.216 110.732 107.3 107.156 107.3C103.581 107.3 100.672 110.216 100.672 113.8ZM111.047 113.8C111.047 115.95 109.301 117.7 107.156 117.7C105.011 117.7 103.266 115.95 103.266 113.8C103.266 111.65 105.011 109.9 107.156 109.9C109.301 109.9 111.047 111.65 111.047 113.8Z" fill="white"/>
</svg>
