<svg width="29" height="28" viewBox="0 0 29 28" fill="none" xmlns="http://www.w3.org/2000/svg">
<mask id="path-1-outside-1_577_1653" maskUnits="userSpaceOnUse" x="0" y="0" width="29" height="28" fill="black">
<rect fill="white" width="29" height="28"/>
<path fill-rule="evenodd" clip-rule="evenodd" d="M13.3407 1.0004C13.2259 0.995746 13.1133 1.03168 13.0235 1.10159C12.9337 1.17151 12.8729 1.27069 12.8522 1.38087L12.3778 3.90795C11.3018 4.11397 10.2828 4.47797 9.34469 4.97433L7.28036 3.33425C7.19197 3.26403 7.08068 3.22704 6.96671 3.23C6.85273 3.23295 6.74361 3.27565 6.65918 3.35036L4.13404 5.58477C4.04803 5.66093 3.99352 5.76511 3.98078 5.87771C3.96803 5.99031 3.99791 6.10358 4.06481 6.1962L5.58823 8.30465C4.99821 9.16018 4.53973 10.106 4.23562 11.117L1.57007 11.3611C1.45527 11.3716 1.34827 11.4224 1.26892 11.504C1.18957 11.5856 1.14325 11.6924 1.13856 11.8048L1.00039 15.103C0.995726 15.2152 1.03288 15.3252 1.10498 15.4127C1.17708 15.5002 1.27925 15.5594 1.3926 15.5791L4.02312 16.0383C4.23886 17.0723 4.61834 18.0504 5.13295 18.9474L3.43591 20.9281C3.36153 21.015 3.32221 21.1253 3.32534 21.2384C3.32847 21.3516 3.37384 21.4596 3.45292 21.5424L5.77795 23.9767C5.85577 24.0581 5.961 24.1096 6.07448 24.1218C6.18796 24.1339 6.30216 24.1059 6.39628 24.0429L8.59191 22.573C9.48295 23.1436 10.4678 23.5911 11.521 23.885L11.7794 26.4417C11.7907 26.5531 11.8429 26.6568 11.9264 26.7337C12.0098 26.8106 12.119 26.8555 12.2337 26.8602L15.6593 26.9996C15.7741 27.0043 15.8868 26.9683 15.9766 26.8984C16.0663 26.8285 16.1271 26.7293 16.1478 26.6191L16.6222 24.092C17.6988 23.8854 18.7201 23.5186 19.6553 23.0218L21.7192 24.6656C21.8076 24.736 21.9189 24.7731 22.033 24.7702C22.1471 24.7673 22.2563 24.7246 22.3408 24.6498L24.8659 22.4154C24.952 22.3392 25.0066 22.235 25.0194 22.1224C25.0321 22.0097 25.0022 21.8964 24.9353 21.8038L23.4119 19.6954C24.0019 18.8398 24.4603 17.894 24.7644 16.8831L27.43 16.6389C27.5447 16.6283 27.6517 16.5776 27.731 16.4961C27.8104 16.4145 27.8567 16.3077 27.8614 16.1954L27.9996 12.8972C28.0043 12.785 27.9672 12.675 27.8951 12.5874C27.8231 12.4998 27.7209 12.4407 27.6076 12.4209L24.9769 11.9617C24.761 10.9273 24.3815 9.94868 23.8669 9.04869L25.5638 7.07237C25.6383 6.9856 25.6777 6.8753 25.6747 6.76219C25.6717 6.64907 25.6265 6.54092 25.5475 6.45802L23.2273 4.02385C23.1495 3.94232 23.0443 3.89068 22.9309 3.8784C22.8174 3.86612 22.7031 3.89398 22.609 3.95691L20.4084 5.42733C19.5172 4.85666 18.5323 4.40896 17.479 4.11501L17.2205 1.55833C17.2093 1.44691 17.1571 1.34319 17.0736 1.2663C16.9902 1.1894 16.881 1.1445 16.7663 1.13981L13.3407 1.0004ZM13.7148 1.94544L16.3129 2.05111L16.5629 4.52491C16.5725 4.62009 16.6121 4.71006 16.6761 4.78252C16.7401 4.85499 16.8255 4.90642 16.9207 4.92979C18.0918 5.21746 19.1773 5.71333 20.1367 6.36938C20.2159 6.42398 20.3104 6.45367 20.4074 6.4545C20.5044 6.45533 20.5994 6.42726 20.6797 6.37403L22.8089 4.95125L24.5634 6.79196L22.9227 8.70284C22.8591 8.7769 22.8208 8.86845 22.813 8.96473C22.8053 9.06102 22.8285 9.15725 22.8795 9.24007C23.4792 10.2147 23.9004 11.293 24.0998 12.4417C24.1162 12.5361 24.162 12.6232 24.2311 12.6912C24.3002 12.7591 24.3891 12.8047 24.4857 12.8215L27.0305 13.2657L26.9263 15.7536L24.3487 15.9896C24.2512 15.9986 24.1589 16.0366 24.0844 16.0985C24.0098 16.1605 23.9567 16.2433 23.9321 16.3357C23.6326 17.4642 23.1246 18.5076 22.4442 19.4276C22.3862 19.5061 22.3548 19.6001 22.3543 19.6968C22.3538 19.7934 22.3842 19.8878 22.4413 19.9668L23.914 22.0049L22.0044 23.6947L20.0067 22.1035C19.9314 22.0436 19.8392 22.0074 19.7423 22.0001C19.6454 21.9927 19.5485 22.0144 19.4646 22.0622C18.4558 22.6382 17.3294 23.0454 16.1361 23.2356C16.0391 23.2511 15.9494 23.2954 15.8793 23.3625C15.8092 23.4296 15.762 23.5162 15.7443 23.6104L15.2853 26.056L12.6872 25.9504L12.4372 23.4766C12.4276 23.3814 12.388 23.2914 12.324 23.219C12.26 23.1465 12.1746 23.0951 12.0795 23.0717C10.9084 22.784 9.8228 22.2882 8.86348 21.6321C8.7842 21.5774 8.68968 21.5477 8.59258 21.5469C8.49549 21.546 8.40045 21.5742 8.3202 21.6274L6.19555 23.0499L4.43672 21.2086L6.07778 19.2934C6.14135 19.2192 6.1796 19.1275 6.18721 19.0312C6.19482 18.9348 6.17141 18.8385 6.12023 18.7557C5.52101 17.7864 5.09979 16.7082 4.9004 15.5594C4.88402 15.4651 4.83818 15.378 4.76913 15.3101C4.70008 15.2421 4.6112 15.1966 4.51462 15.1797L1.96966 14.7355L2.07391 12.2476L4.65146 12.0115C4.74898 12.0026 4.84131 11.9646 4.91589 11.9027C4.99046 11.8407 5.04364 11.7579 5.0682 11.6655C5.36774 10.537 5.87553 9.4937 6.55603 8.57369C6.61406 8.49531 6.64557 8.40126 6.64616 8.30459C6.64676 8.20793 6.61642 8.11347 6.55936 8.03441L5.08673 5.99626L6.9965 4.30636L8.99431 5.89348C9.06946 5.95319 9.16151 5.98911 9.25815 5.99649C9.3548 6.00386 9.45146 5.98232 9.53522 5.93473C10.549 5.3585 11.6702 4.95578 12.8645 4.7654C12.9615 4.74992 13.0511 4.70562 13.1213 4.63852C13.1914 4.57142 13.2385 4.4848 13.2562 4.39057L13.7152 1.94495L13.7148 1.94544Z"/>
</mask>
<path fill-rule="evenodd" clip-rule="evenodd" d="M13.3407 1.0004C13.2259 0.995746 13.1133 1.03168 13.0235 1.10159C12.9337 1.17151 12.8729 1.27069 12.8522 1.38087L12.3778 3.90795C11.3018 4.11397 10.2828 4.47797 9.34469 4.97433L7.28036 3.33425C7.19197 3.26403 7.08068 3.22704 6.96671 3.23C6.85273 3.23295 6.74361 3.27565 6.65918 3.35036L4.13404 5.58477C4.04803 5.66093 3.99352 5.76511 3.98078 5.87771C3.96803 5.99031 3.99791 6.10358 4.06481 6.1962L5.58823 8.30465C4.99821 9.16018 4.53973 10.106 4.23562 11.117L1.57007 11.3611C1.45527 11.3716 1.34827 11.4224 1.26892 11.504C1.18957 11.5856 1.14325 11.6924 1.13856 11.8048L1.00039 15.103C0.995726 15.2152 1.03288 15.3252 1.10498 15.4127C1.17708 15.5002 1.27925 15.5594 1.3926 15.5791L4.02312 16.0383C4.23886 17.0723 4.61834 18.0504 5.13295 18.9474L3.43591 20.9281C3.36153 21.015 3.32221 21.1253 3.32534 21.2384C3.32847 21.3516 3.37384 21.4596 3.45292 21.5424L5.77795 23.9767C5.85577 24.0581 5.961 24.1096 6.07448 24.1218C6.18796 24.1339 6.30216 24.1059 6.39628 24.0429L8.59191 22.573C9.48295 23.1436 10.4678 23.5911 11.521 23.885L11.7794 26.4417C11.7907 26.5531 11.8429 26.6568 11.9264 26.7337C12.0098 26.8106 12.119 26.8555 12.2337 26.8602L15.6593 26.9996C15.7741 27.0043 15.8868 26.9683 15.9766 26.8984C16.0663 26.8285 16.1271 26.7293 16.1478 26.6191L16.6222 24.092C17.6988 23.8854 18.7201 23.5186 19.6553 23.0218L21.7192 24.6656C21.8076 24.736 21.9189 24.7731 22.033 24.7702C22.1471 24.7673 22.2563 24.7246 22.3408 24.6498L24.8659 22.4154C24.952 22.3392 25.0066 22.235 25.0194 22.1224C25.0321 22.0097 25.0022 21.8964 24.9353 21.8038L23.4119 19.6954C24.0019 18.8398 24.4603 17.894 24.7644 16.8831L27.43 16.6389C27.5447 16.6283 27.6517 16.5776 27.731 16.4961C27.8104 16.4145 27.8567 16.3077 27.8614 16.1954L27.9996 12.8972C28.0043 12.785 27.9672 12.675 27.8951 12.5874C27.8231 12.4998 27.7209 12.4407 27.6076 12.4209L24.9769 11.9617C24.761 10.9273 24.3815 9.94868 23.8669 9.04869L25.5638 7.07237C25.6383 6.9856 25.6777 6.8753 25.6747 6.76219C25.6717 6.64907 25.6265 6.54092 25.5475 6.45802L23.2273 4.02385C23.1495 3.94232 23.0443 3.89068 22.9309 3.8784C22.8174 3.86612 22.7031 3.89398 22.609 3.95691L20.4084 5.42733C19.5172 4.85666 18.5323 4.40896 17.479 4.11501L17.2205 1.55833C17.2093 1.44691 17.1571 1.34319 17.0736 1.2663C16.9902 1.1894 16.881 1.1445 16.7663 1.13981L13.3407 1.0004ZM13.7148 1.94544L16.3129 2.05111L16.5629 4.52491C16.5725 4.62009 16.6121 4.71006 16.6761 4.78252C16.7401 4.85499 16.8255 4.90642 16.9207 4.92979C18.0918 5.21746 19.1773 5.71333 20.1367 6.36938C20.2159 6.42398 20.3104 6.45367 20.4074 6.4545C20.5044 6.45533 20.5994 6.42726 20.6797 6.37403L22.8089 4.95125L24.5634 6.79196L22.9227 8.70284C22.8591 8.7769 22.8208 8.86845 22.813 8.96473C22.8053 9.06102 22.8285 9.15725 22.8795 9.24007C23.4792 10.2147 23.9004 11.293 24.0998 12.4417C24.1162 12.5361 24.162 12.6232 24.2311 12.6912C24.3002 12.7591 24.3891 12.8047 24.4857 12.8215L27.0305 13.2657L26.9263 15.7536L24.3487 15.9896C24.2512 15.9986 24.1589 16.0366 24.0844 16.0985C24.0098 16.1605 23.9567 16.2433 23.9321 16.3357C23.6326 17.4642 23.1246 18.5076 22.4442 19.4276C22.3862 19.5061 22.3548 19.6001 22.3543 19.6968C22.3538 19.7934 22.3842 19.8878 22.4413 19.9668L23.914 22.0049L22.0044 23.6947L20.0067 22.1035C19.9314 22.0436 19.8392 22.0074 19.7423 22.0001C19.6454 21.9927 19.5485 22.0144 19.4646 22.0622C18.4558 22.6382 17.3294 23.0454 16.1361 23.2356C16.0391 23.2511 15.9494 23.2954 15.8793 23.3625C15.8092 23.4296 15.762 23.5162 15.7443 23.6104L15.2853 26.056L12.6872 25.9504L12.4372 23.4766C12.4276 23.3814 12.388 23.2914 12.324 23.219C12.26 23.1465 12.1746 23.0951 12.0795 23.0717C10.9084 22.784 9.8228 22.2882 8.86348 21.6321C8.7842 21.5774 8.68968 21.5477 8.59258 21.5469C8.49549 21.546 8.40045 21.5742 8.3202 21.6274L6.19555 23.0499L4.43672 21.2086L6.07778 19.2934C6.14135 19.2192 6.1796 19.1275 6.18721 19.0312C6.19482 18.9348 6.17141 18.8385 6.12023 18.7557C5.52101 17.7864 5.09979 16.7082 4.9004 15.5594C4.88402 15.4651 4.83818 15.378 4.76913 15.3101C4.70008 15.2421 4.6112 15.1966 4.51462 15.1797L1.96966 14.7355L2.07391 12.2476L4.65146 12.0115C4.74898 12.0026 4.84131 11.9646 4.91589 11.9027C4.99046 11.8407 5.04364 11.7579 5.0682 11.6655C5.36774 10.537 5.87553 9.4937 6.55603 8.57369C6.61406 8.49531 6.64557 8.40126 6.64616 8.30459C6.64676 8.20793 6.61642 8.11347 6.55936 8.03441L5.08673 5.99626L6.9965 4.30636L8.99431 5.89348C9.06946 5.95319 9.16151 5.98911 9.25815 5.99649C9.3548 6.00386 9.45146 5.98232 9.53522 5.93473C10.549 5.3585 11.6702 4.95578 12.8645 4.7654C12.9615 4.74992 13.0511 4.70562 13.1213 4.63852C13.1914 4.57142 13.2385 4.4848 13.2562 4.39057L13.7152 1.94495L13.7148 1.94544Z" fill="#DE0C0C"/>
<path fill-rule="evenodd" clip-rule="evenodd" d="M13.3407 1.0004C13.2259 0.995746 13.1133 1.03168 13.0235 1.10159C12.9337 1.17151 12.8729 1.27069 12.8522 1.38087L12.3778 3.90795C11.3018 4.11397 10.2828 4.47797 9.34469 4.97433L7.28036 3.33425C7.19197 3.26403 7.08068 3.22704 6.96671 3.23C6.85273 3.23295 6.74361 3.27565 6.65918 3.35036L4.13404 5.58477C4.04803 5.66093 3.99352 5.76511 3.98078 5.87771C3.96803 5.99031 3.99791 6.10358 4.06481 6.1962L5.58823 8.30465C4.99821 9.16018 4.53973 10.106 4.23562 11.117L1.57007 11.3611C1.45527 11.3716 1.34827 11.4224 1.26892 11.504C1.18957 11.5856 1.14325 11.6924 1.13856 11.8048L1.00039 15.103C0.995726 15.2152 1.03288 15.3252 1.10498 15.4127C1.17708 15.5002 1.27925 15.5594 1.3926 15.5791L4.02312 16.0383C4.23886 17.0723 4.61834 18.0504 5.13295 18.9474L3.43591 20.9281C3.36153 21.015 3.32221 21.1253 3.32534 21.2384C3.32847 21.3516 3.37384 21.4596 3.45292 21.5424L5.77795 23.9767C5.85577 24.0581 5.961 24.1096 6.07448 24.1218C6.18796 24.1339 6.30216 24.1059 6.39628 24.0429L8.59191 22.573C9.48295 23.1436 10.4678 23.5911 11.521 23.885L11.7794 26.4417C11.7907 26.5531 11.8429 26.6568 11.9264 26.7337C12.0098 26.8106 12.119 26.8555 12.2337 26.8602L15.6593 26.9996C15.7741 27.0043 15.8868 26.9683 15.9766 26.8984C16.0663 26.8285 16.1271 26.7293 16.1478 26.6191L16.6222 24.092C17.6988 23.8854 18.7201 23.5186 19.6553 23.0218L21.7192 24.6656C21.8076 24.736 21.9189 24.7731 22.033 24.7702C22.1471 24.7673 22.2563 24.7246 22.3408 24.6498L24.8659 22.4154C24.952 22.3392 25.0066 22.235 25.0194 22.1224C25.0321 22.0097 25.0022 21.8964 24.9353 21.8038L23.4119 19.6954C24.0019 18.8398 24.4603 17.894 24.7644 16.8831L27.43 16.6389C27.5447 16.6283 27.6517 16.5776 27.731 16.4961C27.8104 16.4145 27.8567 16.3077 27.8614 16.1954L27.9996 12.8972C28.0043 12.785 27.9672 12.675 27.8951 12.5874C27.8231 12.4998 27.7209 12.4407 27.6076 12.4209L24.9769 11.9617C24.761 10.9273 24.3815 9.94868 23.8669 9.04869L25.5638 7.07237C25.6383 6.9856 25.6777 6.8753 25.6747 6.76219C25.6717 6.64907 25.6265 6.54092 25.5475 6.45802L23.2273 4.02385C23.1495 3.94232 23.0443 3.89068 22.9309 3.8784C22.8174 3.86612 22.7031 3.89398 22.609 3.95691L20.4084 5.42733C19.5172 4.85666 18.5323 4.40896 17.479 4.11501L17.2205 1.55833C17.2093 1.44691 17.1571 1.34319 17.0736 1.2663C16.9902 1.1894 16.881 1.1445 16.7663 1.13981L13.3407 1.0004ZM13.7148 1.94544L16.3129 2.05111L16.5629 4.52491C16.5725 4.62009 16.6121 4.71006 16.6761 4.78252C16.7401 4.85499 16.8255 4.90642 16.9207 4.92979C18.0918 5.21746 19.1773 5.71333 20.1367 6.36938C20.2159 6.42398 20.3104 6.45367 20.4074 6.4545C20.5044 6.45533 20.5994 6.42726 20.6797 6.37403L22.8089 4.95125L24.5634 6.79196L22.9227 8.70284C22.8591 8.7769 22.8208 8.86845 22.813 8.96473C22.8053 9.06102 22.8285 9.15725 22.8795 9.24007C23.4792 10.2147 23.9004 11.293 24.0998 12.4417C24.1162 12.5361 24.162 12.6232 24.2311 12.6912C24.3002 12.7591 24.3891 12.8047 24.4857 12.8215L27.0305 13.2657L26.9263 15.7536L24.3487 15.9896C24.2512 15.9986 24.1589 16.0366 24.0844 16.0985C24.0098 16.1605 23.9567 16.2433 23.9321 16.3357C23.6326 17.4642 23.1246 18.5076 22.4442 19.4276C22.3862 19.5061 22.3548 19.6001 22.3543 19.6968C22.3538 19.7934 22.3842 19.8878 22.4413 19.9668L23.914 22.0049L22.0044 23.6947L20.0067 22.1035C19.9314 22.0436 19.8392 22.0074 19.7423 22.0001C19.6454 21.9927 19.5485 22.0144 19.4646 22.0622C18.4558 22.6382 17.3294 23.0454 16.1361 23.2356C16.0391 23.2511 15.9494 23.2954 15.8793 23.3625C15.8092 23.4296 15.762 23.5162 15.7443 23.6104L15.2853 26.056L12.6872 25.9504L12.4372 23.4766C12.4276 23.3814 12.388 23.2914 12.324 23.219C12.26 23.1465 12.1746 23.0951 12.0795 23.0717C10.9084 22.784 9.8228 22.2882 8.86348 21.6321C8.7842 21.5774 8.68968 21.5477 8.59258 21.5469C8.49549 21.546 8.40045 21.5742 8.3202 21.6274L6.19555 23.0499L4.43672 21.2086L6.07778 19.2934C6.14135 19.2192 6.1796 19.1275 6.18721 19.0312C6.19482 18.9348 6.17141 18.8385 6.12023 18.7557C5.52101 17.7864 5.09979 16.7082 4.9004 15.5594C4.88402 15.4651 4.83818 15.378 4.76913 15.3101C4.70008 15.2421 4.6112 15.1966 4.51462 15.1797L1.96966 14.7355L2.07391 12.2476L4.65146 12.0115C4.74898 12.0026 4.84131 11.9646 4.91589 11.9027C4.99046 11.8407 5.04364 11.7579 5.0682 11.6655C5.36774 10.537 5.87553 9.4937 6.55603 8.57369C6.61406 8.49531 6.64557 8.40126 6.64616 8.30459C6.64676 8.20793 6.61642 8.11347 6.55936 8.03441L5.08673 5.99626L6.9965 4.30636L8.99431 5.89348C9.06946 5.95319 9.16151 5.98911 9.25815 5.99649C9.3548 6.00386 9.45146 5.98232 9.53522 5.93473C10.549 5.3585 11.6702 4.95578 12.8645 4.7654C12.9615 4.74992 13.0511 4.70562 13.1213 4.63852C13.1914 4.57142 13.2385 4.4848 13.2562 4.39057L13.7152 1.94495L13.7148 1.94544Z" stroke="#DE0C0C" stroke-width="0.5" mask="url(#path-1-outside-1_577_1653)"/>
<path d="M14.8236 6.41237L14.8236 6.41226L14.8199 6.41226C14.6893 6.40714 14.5592 6.40539 14.43 6.40679C10.3986 6.45071 7.05346 9.64005 6.87876 13.6891C6.69842 17.8693 9.96809 21.4107 14.1774 21.5822C18.3821 21.7536 21.9411 18.4899 22.1214 14.3103C22.3018 10.1301 19.0324 6.58883 14.8236 6.41237ZM8.08069 13.7391C8.22906 10.2999 11.0463 7.62251 14.4425 7.58566L14.7733 7.59068C14.7734 7.59068 14.7734 7.59068 14.7734 7.59068C18.3204 7.74009 21.0726 10.7113 20.9195 14.2606C20.7663 17.811 17.7693 20.5488 14.2273 20.4043C10.6802 20.2599 7.92752 17.2889 8.08069 13.7391L7.95581 13.7337L8.08069 13.7391Z" fill="#DE0C0C" stroke="#DE0C0C" stroke-width="0.25"/>
</svg>
