<svg width="258" height="285" viewBox="0 0 258 285" fill="none" xmlns="http://www.w3.org/2000/svg">
<path d="M163.621 26.35C179.838 30.2566 203.069 29.797 214.903 39.6783C226.519 49.7895 226.519 70.2415 222.793 89.5446C219.286 108.618 211.835 126.772 199.562 138.951C187.29 151.131 170.415 157.565 154.197 158.714C137.98 160.093 122.639 156.186 105.545 153.429C88.2313 150.671 69.1648 149.062 55.358 138.951C41.332 128.84 32.785 110.226 33.0041 92.3022C33.0041 74.1481 41.9895 56.4536 51.6323 41.0571C61.2752 25.6606 71.7947 12.7919 84.7248 7.27676C97.655 1.7616 113.215 3.82978 125.707 8.88535C137.98 14.1707 147.184 22.4435 163.621 26.35Z" fill="#F66464"/>
<rect y="141" width="258" height="144" rx="28" fill="#EFEDED"/>
<path d="M60.1704 174.8C61.3224 174.8 62.3464 175.072 63.2424 175.616C64.1491 176.16 64.8158 176.944 65.2424 177.968H63.4824C63.1624 177.36 62.7144 176.896 62.1384 176.576C61.5624 176.256 60.9064 176.096 60.1704 176.096C59.3811 176.096 58.6664 176.277 58.0264 176.64C57.3971 176.992 56.9011 177.499 56.5384 178.16C56.1864 178.821 56.0104 179.584 56.0104 180.448C56.0104 181.312 56.1864 182.075 56.5384 182.736C56.9011 183.397 57.3971 183.909 58.0264 184.272C58.6664 184.635 59.3811 184.816 60.1704 184.816C60.9064 184.816 61.5624 184.656 62.1384 184.336C62.7144 184.005 63.1624 183.536 63.4824 182.928H65.2424C64.8158 183.952 64.1491 184.736 63.2424 185.28C62.3464 185.824 61.3224 186.096 60.1704 186.096C59.1358 186.096 58.1864 185.856 57.3224 185.376C56.4584 184.885 55.7758 184.213 55.2744 183.36C54.7731 182.496 54.5224 181.525 54.5224 180.448C54.5224 179.36 54.7731 178.389 55.2744 177.536C55.7758 176.672 56.4584 176 57.3224 175.52C58.1864 175.04 59.1358 174.8 60.1704 174.8ZM75.1839 177.216V186H73.7279V184.592C73.4399 185.104 73.0453 185.493 72.5439 185.76C72.0426 186.016 71.4826 186.144 70.8639 186.144C70.2346 186.144 69.6586 186.005 69.1359 185.728C68.6239 185.44 68.2133 185.019 67.9039 184.464C67.6053 183.909 67.4559 183.232 67.4559 182.432V177.216H68.8959V182.192C68.8959 183.067 69.1093 183.739 69.5359 184.208C69.9733 184.667 70.5653 184.896 71.3119 184.896C72.0586 184.896 72.6453 184.667 73.0719 184.208C73.5093 183.739 73.7279 183.067 73.7279 182.192V177.216H75.1839ZM79.0388 178.704C79.5615 177.616 80.4521 177.072 81.7108 177.072V178.592H81.3268C80.5801 178.592 80.0095 178.789 79.6148 179.184C79.2308 179.568 79.0388 180.24 79.0388 181.2V186H77.5828V177.216H79.0388V178.704ZM84.9294 178.704C85.4521 177.616 86.3428 177.072 87.6014 177.072V178.592H87.2174C86.4708 178.592 85.9001 178.789 85.5054 179.184C85.1214 179.568 84.9294 180.24 84.9294 181.2V186H83.4734V177.216H84.9294V178.704ZM97.3321 181.248C97.3321 181.557 97.3107 181.845 97.2681 182.112H90.2761C90.3187 182.987 90.5907 183.68 91.0921 184.192C91.6041 184.693 92.2547 184.944 93.0441 184.944C93.6414 184.944 94.1427 184.811 94.5481 184.544C94.9641 184.277 95.2681 183.925 95.4601 183.488H97.0281C96.7507 184.256 96.2707 184.891 95.5881 185.392C94.9161 185.893 94.0681 186.144 93.0441 186.144C92.2227 186.144 91.4867 185.957 90.8361 185.584C90.1961 185.211 89.6947 184.683 89.3321 184C88.9694 183.307 88.7881 182.512 88.7881 181.616C88.7881 180.709 88.9694 179.915 89.3321 179.232C89.6947 178.539 90.2067 178.005 90.8681 177.632C91.5294 177.259 92.2921 177.072 93.1561 177.072C93.9774 177.072 94.7027 177.253 95.3321 177.616C95.9614 177.979 96.4521 178.475 96.8041 179.104C97.1561 179.733 97.3321 180.448 97.3321 181.248ZM95.8121 181.056C95.8121 180.491 95.6894 180 95.4441 179.584C95.1987 179.157 94.8627 178.832 94.4361 178.608C94.0201 178.384 93.5561 178.272 93.0441 178.272C92.2867 178.272 91.6521 178.523 91.1401 179.024C90.6281 179.515 90.3454 180.192 90.2921 181.056H95.8121ZM103.465 177.072C104.095 177.072 104.665 177.216 105.177 177.504C105.7 177.781 106.111 178.203 106.409 178.768C106.719 179.323 106.873 180 106.873 180.8V186H105.433V181.04C105.433 180.155 105.22 179.483 104.793 179.024C104.367 178.565 103.775 178.336 103.017 178.336C102.271 178.336 101.679 178.565 101.241 179.024C100.815 179.483 100.601 180.155 100.601 181.04V186H99.1453V177.216H100.601V178.64C100.889 178.128 101.284 177.739 101.785 177.472C102.287 177.205 102.847 177.072 103.465 177.072ZM113.272 184.816V186H111.8C111.054 186 110.483 185.819 110.088 185.456C109.704 185.093 109.512 184.523 109.512 183.744V178.4H108.376V177.216H109.512V175.04H110.984V177.216H113.256V178.4H110.984V183.744C110.984 184.139 111.064 184.416 111.224 184.576C111.384 184.736 111.667 184.816 112.072 184.816H113.272ZM116.336 174.16V186H114.88V174.16H116.336ZM119.331 177.216L122.019 184.32L124.755 177.216H126.259L120.963 190.112H119.459L121.203 185.856L117.731 177.216H119.331ZM133.034 177.216L135.722 184.32L138.458 177.216H139.962L134.666 190.112H133.162L134.906 185.856L131.434 177.216H133.034ZM145.204 177.072C146.036 177.072 146.788 177.259 147.46 177.632C148.132 178.005 148.66 178.539 149.044 179.232C149.439 179.925 149.636 180.72 149.636 181.616C149.636 182.501 149.434 183.291 149.028 183.984C148.623 184.667 148.074 185.2 147.38 185.584C146.687 185.957 145.919 186.144 145.076 186.144C144.255 186.144 143.514 185.957 142.852 185.584C142.202 185.211 141.69 184.683 141.316 184C140.954 183.307 140.772 182.512 140.772 181.616C140.772 180.709 140.964 179.915 141.348 179.232C141.743 178.539 142.276 178.005 142.948 177.632C143.62 177.259 144.372 177.072 145.204 177.072ZM145.156 178.272C144.623 178.272 144.138 178.4 143.7 178.656C143.263 178.912 142.911 179.291 142.644 179.792C142.388 180.293 142.26 180.901 142.26 181.616C142.26 182.32 142.383 182.923 142.628 183.424C142.884 183.925 143.226 184.304 143.652 184.56C144.079 184.816 144.554 184.944 145.076 184.944C145.61 184.944 146.106 184.816 146.564 184.56C147.034 184.293 147.412 183.909 147.7 183.408C147.988 182.907 148.132 182.309 148.132 181.616C148.132 180.912 147.994 180.309 147.716 179.808C147.45 179.296 147.087 178.912 146.628 178.656C146.18 178.4 145.69 178.272 145.156 178.272ZM159.106 177.216V186H157.65V184.592C157.362 185.104 156.967 185.493 156.466 185.76C155.964 186.016 155.404 186.144 154.786 186.144C154.156 186.144 153.58 186.005 153.058 185.728C152.546 185.44 152.135 185.019 151.826 184.464C151.527 183.909 151.378 183.232 151.378 182.432V177.216H152.818V182.192C152.818 183.067 153.031 183.739 153.458 184.208C153.895 184.667 154.487 184.896 155.234 184.896C155.98 184.896 156.567 184.667 156.994 184.208C157.431 183.739 157.65 183.067 157.65 182.192V177.216H159.106ZM169.918 177.072C170.664 177.072 171.315 177.248 171.87 177.6C172.435 177.952 172.862 178.411 173.15 178.976V174.16H174.622V186H173.15V184.208C172.862 184.784 172.435 185.253 171.87 185.616C171.315 185.968 170.664 186.144 169.918 186.144C169.128 186.144 168.414 185.952 167.774 185.568C167.144 185.173 166.643 184.629 166.27 183.936C165.907 183.232 165.726 182.437 165.726 181.552C165.726 180.667 165.907 179.888 166.27 179.216C166.643 178.533 167.144 178.005 167.774 177.632C168.414 177.259 169.128 177.072 169.918 177.072ZM170.174 178.336C169.651 178.336 169.16 178.464 168.702 178.72C168.254 178.976 167.891 179.349 167.614 179.84C167.347 180.32 167.214 180.891 167.214 181.552C167.214 182.213 167.347 182.8 167.614 183.312C167.891 183.813 168.254 184.203 168.702 184.48C169.16 184.757 169.651 184.896 170.174 184.896C170.707 184.896 171.198 184.763 171.646 184.496C172.104 184.229 172.467 183.851 172.734 183.36C173.011 182.859 173.15 182.277 173.15 181.616C173.15 180.955 173.011 180.379 172.734 179.888C172.467 179.387 172.104 179.003 171.646 178.736C171.198 178.469 170.707 178.336 170.174 178.336ZM180.876 177.072C181.708 177.072 182.46 177.259 183.132 177.632C183.804 178.005 184.332 178.539 184.716 179.232C185.111 179.925 185.308 180.72 185.308 181.616C185.308 182.501 185.106 183.291 184.7 183.984C184.295 184.667 183.746 185.2 183.052 185.584C182.359 185.957 181.591 186.144 180.748 186.144C179.927 186.144 179.186 185.957 178.524 185.584C177.874 185.211 177.362 184.683 176.988 184C176.626 183.307 176.444 182.512 176.444 181.616C176.444 180.709 176.636 179.915 177.02 179.232C177.415 178.539 177.948 178.005 178.62 177.632C179.292 177.259 180.044 177.072 180.876 177.072ZM180.828 178.272C180.295 178.272 179.81 178.4 179.372 178.656C178.935 178.912 178.583 179.291 178.316 179.792C178.06 180.293 177.932 180.901 177.932 181.616C177.932 182.32 178.055 182.923 178.3 183.424C178.556 183.925 178.898 184.304 179.324 184.56C179.751 184.816 180.226 184.944 180.748 184.944C181.282 184.944 181.778 184.816 182.236 184.56C182.706 184.293 183.084 183.909 183.372 183.408C183.66 182.907 183.804 182.309 183.804 181.616C183.804 180.912 183.666 180.309 183.388 179.808C183.122 179.296 182.759 178.912 182.3 178.656C181.852 178.4 181.362 178.272 180.828 178.272ZM191.45 177.072C192.079 177.072 192.65 177.216 193.162 177.504C193.684 177.781 194.095 178.203 194.394 178.768C194.703 179.323 194.858 180 194.858 180.8V186H193.418V181.04C193.418 180.155 193.204 179.483 192.778 179.024C192.351 178.565 191.759 178.336 191.002 178.336C190.255 178.336 189.663 178.565 189.226 179.024C188.799 179.483 188.586 180.155 188.586 181.04V186H187.13V177.216H188.586V178.64C188.874 178.128 189.268 177.739 189.77 177.472C190.271 177.205 190.831 177.072 191.45 177.072ZM197.833 173.472C197.961 174.027 198.025 174.517 198.025 174.944C198.025 175.573 197.886 176.032 197.609 176.32C197.342 176.608 196.942 176.752 196.409 176.752V176.048C196.665 176.048 196.851 175.984 196.969 175.856C197.097 175.717 197.161 175.504 197.161 175.216V174.848H196.377V173.472H197.833ZM203.694 184.816V186H202.222C201.475 186 200.905 185.819 200.51 185.456C200.126 185.093 199.934 184.523 199.934 183.744V178.4H198.798V177.216H199.934V175.04H201.406V177.216H203.678V178.4H201.406V183.744C201.406 184.139 201.486 184.416 201.646 184.576C201.806 184.736 202.089 184.816 202.494 184.816H203.694ZM44.2544 201.072C44.8837 201.072 45.4544 201.216 45.9664 201.504C46.489 201.781 46.8997 202.203 47.1984 202.768C47.5077 203.323 47.6624 204 47.6624 204.8V210H46.2224V205.04C46.2224 204.155 46.009 203.483 45.5824 203.024C45.1557 202.565 44.5637 202.336 43.8064 202.336C43.0597 202.336 42.4677 202.565 42.0304 203.024C41.6037 203.483 41.3904 204.155 41.3904 205.04V210H39.9344V198.16H41.3904V202.64C41.6784 202.128 42.073 201.739 42.5744 201.472C43.0757 201.205 43.6357 201.072 44.2544 201.072ZM53.5973 201.072C54.3439 201.072 54.9946 201.248 55.5493 201.6C56.1146 201.952 56.5413 202.411 56.8293 202.976V201.216H58.3013V210H56.8293V208.208C56.5413 208.784 56.1146 209.253 55.5493 209.616C54.9946 209.968 54.3439 210.144 53.5973 210.144C52.8079 210.144 52.0933 209.952 51.4533 209.568C50.8239 209.173 50.3226 208.629 49.9493 207.936C49.5866 207.232 49.4053 206.437 49.4053 205.552C49.4053 204.667 49.5866 203.888 49.9493 203.216C50.3226 202.533 50.8239 202.005 51.4533 201.632C52.0933 201.259 52.8079 201.072 53.5973 201.072ZM53.8533 202.336C53.3306 202.336 52.8399 202.464 52.3813 202.72C51.9333 202.976 51.5706 203.349 51.2933 203.84C51.0266 204.32 50.8932 204.891 50.8932 205.552C50.8932 206.213 51.0266 206.8 51.2933 207.312C51.5706 207.813 51.9333 208.203 52.3813 208.48C52.8399 208.757 53.3306 208.896 53.8533 208.896C54.3866 208.896 54.8773 208.763 55.3253 208.496C55.7839 208.229 56.1466 207.851 56.4133 207.36C56.6906 206.859 56.8293 206.277 56.8293 205.616C56.8293 204.955 56.6906 204.379 56.4133 203.888C56.1466 203.387 55.7839 203.003 55.3253 202.736C54.8773 202.469 54.3866 202.336 53.8533 202.336ZM63.932 208.64L66.636 201.216H68.204L64.764 210H63.116L59.692 201.216H61.244L63.932 208.64ZM77.5586 205.248C77.5586 205.557 77.5373 205.845 77.4946 206.112H70.5026C70.5453 206.987 70.8173 207.68 71.3186 208.192C71.8306 208.693 72.4813 208.944 73.2706 208.944C73.868 208.944 74.3693 208.811 74.7746 208.544C75.1906 208.277 75.4946 207.925 75.6866 207.488H77.2546C76.9773 208.256 76.4973 208.891 75.8146 209.392C75.1426 209.893 74.2946 210.144 73.2706 210.144C72.4493 210.144 71.7133 209.957 71.0626 209.584C70.4226 209.211 69.9213 208.683 69.5586 208C69.196 207.307 69.0146 206.512 69.0146 205.616C69.0146 204.709 69.196 203.915 69.5586 203.232C69.9213 202.539 70.4333 202.005 71.0946 201.632C71.756 201.259 72.5186 201.072 73.3826 201.072C74.204 201.072 74.9293 201.253 75.5586 201.616C76.188 201.979 76.6786 202.475 77.0306 203.104C77.3826 203.733 77.5586 204.448 77.5586 205.248ZM76.0386 205.056C76.0386 204.491 75.916 204 75.6706 203.584C75.4253 203.157 75.0893 202.832 74.6626 202.608C74.2466 202.384 73.7826 202.272 73.2706 202.272C72.5133 202.272 71.8786 202.523 71.3666 203.024C70.8546 203.515 70.572 204.192 70.5186 205.056H76.0386ZM94.7288 201.072C95.3688 201.072 95.9501 201.216 96.4728 201.504C96.9954 201.781 97.4061 202.203 97.7048 202.768C98.0141 203.323 98.1688 204 98.1688 204.8V210H96.7288V205.04C96.7288 204.155 96.5101 203.483 96.0728 203.024C95.6461 202.565 95.0594 202.336 94.3128 202.336C93.5661 202.336 92.9741 202.565 92.5368 203.024C92.1101 203.483 91.8968 204.155 91.8968 205.04V210H90.4568V205.04C90.4568 204.155 90.2434 203.483 89.8168 203.024C89.3901 202.565 88.7981 202.336 88.0408 202.336C87.2941 202.336 86.7021 202.565 86.2648 203.024C85.8381 203.483 85.6248 204.155 85.6248 205.04V210H84.1688V201.216H85.6248V202.64C85.9128 202.128 86.3074 201.739 86.8088 201.472C87.3101 201.205 87.8701 201.072 88.4888 201.072C89.1608 201.072 89.7688 201.237 90.3128 201.568C90.8568 201.888 91.2674 202.357 91.5448 202.976C91.8648 202.379 92.2968 201.915 92.8408 201.584C93.3954 201.243 94.0248 201.072 94.7288 201.072ZM104.097 201.072C104.844 201.072 105.495 201.248 106.049 201.6C106.615 201.952 107.041 202.411 107.329 202.976V201.216H108.801V210H107.329V208.208C107.041 208.784 106.615 209.253 106.049 209.616C105.495 209.968 104.844 210.144 104.097 210.144C103.308 210.144 102.593 209.952 101.953 209.568C101.324 209.173 100.823 208.629 100.449 207.936C100.087 207.232 99.9053 206.437 99.9053 205.552C99.9053 204.667 100.087 203.888 100.449 203.216C100.823 202.533 101.324 202.005 101.953 201.632C102.593 201.259 103.308 201.072 104.097 201.072ZM104.353 202.336C103.831 202.336 103.34 202.464 102.881 202.72C102.433 202.976 102.071 203.349 101.793 203.84C101.527 204.32 101.393 204.891 101.393 205.552C101.393 206.213 101.527 206.8 101.793 207.312C102.071 207.813 102.433 208.203 102.881 208.48C103.34 208.757 103.831 208.896 104.353 208.896C104.887 208.896 105.377 208.763 105.825 208.496C106.284 208.229 106.647 207.851 106.913 207.36C107.191 206.859 107.329 206.277 107.329 205.616C107.329 204.955 107.191 204.379 106.913 203.888C106.647 203.387 106.284 203.003 105.825 202.736C105.377 202.469 104.887 202.336 104.353 202.336ZM115.28 208.816V210H113.808C113.061 210 112.491 209.819 112.096 209.456C111.712 209.093 111.52 208.523 111.52 207.744V202.4H110.384V201.216H111.52V199.04H112.992V201.216H115.264V202.4H112.992V207.744C112.992 208.139 113.072 208.416 113.232 208.576C113.392 208.736 113.675 208.816 114.08 208.816H115.28ZM124.856 205.248C124.856 205.557 124.834 205.845 124.792 206.112H117.799C117.842 206.987 118.114 207.68 118.616 208.192C119.128 208.693 119.778 208.944 120.568 208.944C121.165 208.944 121.666 208.811 122.072 208.544C122.488 208.277 122.792 207.925 122.984 207.488H124.552C124.274 208.256 123.794 208.891 123.112 209.392C122.44 209.893 121.592 210.144 120.568 210.144C119.746 210.144 119.01 209.957 118.36 209.584C117.72 209.211 117.218 208.683 116.856 208C116.493 207.307 116.312 206.512 116.312 205.616C116.312 204.709 116.493 203.915 116.856 203.232C117.218 202.539 117.73 202.005 118.392 201.632C119.053 201.259 119.816 201.072 120.68 201.072C121.501 201.072 122.226 201.253 122.856 201.616C123.485 201.979 123.976 202.475 124.328 203.104C124.68 203.733 124.856 204.448 124.856 205.248ZM123.336 205.056C123.336 204.491 123.213 204 122.968 203.584C122.722 203.157 122.386 202.832 121.96 202.608C121.544 202.384 121.08 202.272 120.568 202.272C119.81 202.272 119.176 202.523 118.664 203.024C118.152 203.515 117.869 204.192 117.816 205.056H123.336ZM128.125 202.704C128.647 201.616 129.538 201.072 130.797 201.072V202.592H130.413C129.666 202.592 129.095 202.789 128.701 203.184C128.317 203.568 128.125 204.24 128.125 205.2V210H126.669V201.216H128.125V202.704ZM132.319 198.816C132.319 198.539 132.415 198.304 132.607 198.112C132.799 197.92 133.029 197.824 133.295 197.824C133.573 197.824 133.807 197.92 133.999 198.112C134.191 198.304 134.287 198.539 134.287 198.816C134.287 199.093 134.191 199.328 133.999 199.52C133.807 199.712 133.573 199.808 133.295 199.808C133.018 199.808 132.783 199.712 132.591 199.52C132.41 199.328 132.319 199.093 132.319 198.816ZM134.015 201.216V210H132.559V201.216H134.015ZM140.035 201.072C140.781 201.072 141.432 201.248 141.987 201.6C142.552 201.952 142.979 202.411 143.267 202.976V201.216H144.739V210H143.267V208.208C142.979 208.784 142.552 209.253 141.987 209.616C141.432 209.968 140.781 210.144 140.035 210.144C139.245 210.144 138.531 209.952 137.891 209.568C137.261 209.173 136.76 208.629 136.387 207.936C136.024 207.232 135.843 206.437 135.843 205.552C135.843 204.667 136.024 203.888 136.387 203.216C136.76 202.533 137.261 202.005 137.891 201.632C138.531 201.259 139.245 201.072 140.035 201.072ZM140.291 202.336C139.768 202.336 139.277 202.464 138.819 202.72C138.371 202.976 138.008 203.349 137.731 203.84C137.464 204.32 137.331 204.891 137.331 205.552C137.331 206.213 137.464 206.8 137.731 207.312C138.008 207.813 138.371 208.203 138.819 208.48C139.277 208.757 139.768 208.896 140.291 208.896C140.824 208.896 141.315 208.763 141.763 208.496C142.221 208.229 142.584 207.851 142.851 207.36C143.128 206.859 143.267 206.277 143.267 205.616C143.267 204.955 143.128 204.379 142.851 203.888C142.584 203.387 142.221 203.003 141.763 202.736C141.315 202.469 140.824 202.336 140.291 202.336ZM148.594 198.16V210H147.138V198.16H148.594ZM154.021 201.072C154.97 201.072 155.722 201.323 156.277 201.824C156.832 202.315 157.136 202.992 157.189 203.856H155.685C155.664 203.365 155.498 202.971 155.189 202.672C154.88 202.373 154.453 202.224 153.909 202.224C153.354 202.224 152.917 202.357 152.597 202.624C152.288 202.88 152.133 203.205 152.133 203.6C152.133 203.931 152.229 204.197 152.421 204.4C152.624 204.592 152.869 204.736 153.157 204.832C153.456 204.928 153.856 205.029 154.357 205.136C154.997 205.285 155.509 205.435 155.893 205.584C156.288 205.723 156.624 205.963 156.901 206.304C157.178 206.635 157.317 207.088 157.317 207.664C157.317 208.144 157.178 208.576 156.901 208.96C156.624 209.333 156.234 209.627 155.733 209.84C155.232 210.043 154.656 210.144 154.005 210.144C153.024 210.144 152.234 209.899 151.637 209.408C151.05 208.917 150.73 208.24 150.677 207.376H152.181C152.202 207.867 152.373 208.261 152.693 208.56C153.024 208.848 153.461 208.992 154.005 208.992C154.602 208.992 155.061 208.869 155.381 208.624C155.712 208.379 155.877 208.053 155.877 207.648C155.877 207.317 155.776 207.056 155.573 206.864C155.381 206.661 155.136 206.512 154.837 206.416C154.538 206.309 154.128 206.197 153.605 206.08C152.976 205.941 152.464 205.803 152.069 205.664C151.685 205.515 151.354 205.285 151.077 204.976C150.81 204.667 150.677 204.24 150.677 203.696C150.677 203.216 150.81 202.779 151.077 202.384C151.354 201.979 151.744 201.659 152.245 201.424C152.757 201.189 153.349 201.072 154.021 201.072ZM160.331 208.928C160.469 209.493 160.539 210.011 160.539 210.48C160.539 211.685 159.989 212.288 158.891 212.288V211.584C159.157 211.584 159.349 211.52 159.467 211.392C159.595 211.264 159.659 211.061 159.659 210.784V210.416H158.843V208.928H160.331ZM171.888 201.072C172.678 201.072 173.387 201.259 174.016 201.632C174.656 202.005 175.158 202.533 175.52 203.216C175.894 203.888 176.08 204.667 176.08 205.552C176.08 206.437 175.894 207.232 175.52 207.936C175.158 208.629 174.656 209.173 174.016 209.568C173.387 209.952 172.678 210.144 171.888 210.144C171.142 210.144 170.486 209.968 169.92 209.616C169.366 209.253 168.939 208.784 168.64 208.208V214.16H167.184V201.216H168.64V202.976C168.939 202.411 169.366 201.952 169.92 201.6C170.486 201.248 171.142 201.072 171.888 201.072ZM171.6 202.336C171.078 202.336 170.587 202.469 170.128 202.736C169.68 203.003 169.318 203.387 169.04 203.888C168.774 204.379 168.64 204.955 168.64 205.616C168.64 206.277 168.774 206.859 169.04 207.36C169.318 207.851 169.68 208.229 170.128 208.496C170.587 208.763 171.078 208.896 171.6 208.896C172.123 208.896 172.614 208.763 173.072 208.496C173.531 208.219 173.894 207.824 174.16 207.312C174.438 206.8 174.576 206.213 174.576 205.552C174.576 204.891 174.438 204.32 174.16 203.84C173.894 203.349 173.531 202.976 173.072 202.72C172.624 202.464 172.134 202.336 171.6 202.336ZM179.359 198.16V210H177.903V198.16H179.359ZM189.731 205.248C189.731 205.557 189.709 205.845 189.667 206.112H182.674C182.717 206.987 182.989 207.68 183.491 208.192C184.003 208.693 184.653 208.944 185.443 208.944C186.04 208.944 186.541 208.811 186.947 208.544C187.363 208.277 187.667 207.925 187.859 207.488H189.427C189.149 208.256 188.669 208.891 187.987 209.392C187.315 209.893 186.467 210.144 185.443 210.144C184.621 210.144 183.885 209.957 183.235 209.584C182.595 209.211 182.093 208.683 181.731 208C181.368 207.307 181.187 206.512 181.187 205.616C181.187 204.709 181.368 203.915 181.731 203.232C182.093 202.539 182.605 202.005 183.267 201.632C183.928 201.259 184.691 201.072 185.555 201.072C186.376 201.072 187.101 201.253 187.731 201.616C188.36 201.979 188.851 202.475 189.203 203.104C189.555 203.733 189.731 204.448 189.731 205.248ZM188.211 205.056C188.211 204.491 188.088 204 187.843 203.584C187.597 203.157 187.261 202.832 186.835 202.608C186.419 202.384 185.955 202.272 185.443 202.272C184.685 202.272 184.051 202.523 183.539 203.024C183.027 203.515 182.744 204.192 182.691 205.056H188.211ZM195.16 201.072C195.906 201.072 196.557 201.248 197.112 201.6C197.677 201.952 198.104 202.411 198.392 202.976V201.216H199.864V210H198.392V208.208C198.104 208.784 197.677 209.253 197.112 209.616C196.557 209.968 195.906 210.144 195.16 210.144C194.37 210.144 193.656 209.952 193.016 209.568C192.386 209.173 191.885 208.629 191.512 207.936C191.149 207.232 190.968 206.437 190.968 205.552C190.968 204.667 191.149 203.888 191.512 203.216C191.885 202.533 192.386 202.005 193.016 201.632C193.656 201.259 194.37 201.072 195.16 201.072ZM195.416 202.336C194.893 202.336 194.402 202.464 193.944 202.72C193.496 202.976 193.133 203.349 192.856 203.84C192.589 204.32 192.456 204.891 192.456 205.552C192.456 206.213 192.589 206.8 192.856 207.312C193.133 207.813 193.496 208.203 193.944 208.48C194.402 208.757 194.893 208.896 195.416 208.896C195.949 208.896 196.44 208.763 196.888 208.496C197.346 208.229 197.709 207.851 197.976 207.36C198.253 206.859 198.392 206.277 198.392 205.616C198.392 204.955 198.253 204.379 197.976 203.888C197.709 203.387 197.346 203.003 196.888 202.736C196.44 202.469 195.949 202.336 195.416 202.336ZM205.286 201.072C206.236 201.072 206.988 201.323 207.543 201.824C208.097 202.315 208.401 202.992 208.455 203.856H206.951C206.929 203.365 206.764 202.971 206.455 202.672C206.145 202.373 205.719 202.224 205.174 202.224C204.62 202.224 204.183 202.357 203.863 202.624C203.553 202.88 203.399 203.205 203.399 203.6C203.399 203.931 203.495 204.197 203.687 204.4C203.889 204.592 204.135 204.736 204.423 204.832C204.721 204.928 205.121 205.029 205.623 205.136C206.263 205.285 206.775 205.435 207.159 205.584C207.553 205.723 207.889 205.963 208.167 206.304C208.444 206.635 208.583 207.088 208.583 207.664C208.583 208.144 208.444 208.576 208.167 208.96C207.889 209.333 207.5 209.627 206.999 209.84C206.497 210.043 205.921 210.144 205.271 210.144C204.289 210.144 203.5 209.899 202.903 209.408C202.316 208.917 201.996 208.24 201.943 207.376H203.447C203.468 207.867 203.639 208.261 203.959 208.56C204.289 208.848 204.727 208.992 205.271 208.992C205.868 208.992 206.327 208.869 206.647 208.624C206.977 208.379 207.143 208.053 207.143 207.648C207.143 207.317 207.041 207.056 206.839 206.864C206.647 206.661 206.401 206.512 206.103 206.416C205.804 206.309 205.393 206.197 204.871 206.08C204.241 205.941 203.729 205.803 203.335 205.664C202.951 205.515 202.62 205.285 202.343 204.976C202.076 204.667 201.943 204.24 201.943 203.696C201.943 203.216 202.076 202.779 202.343 202.384C202.62 201.979 203.009 201.659 203.511 201.424C204.023 201.189 204.615 201.072 205.286 201.072ZM218.652 205.248C218.652 205.557 218.631 205.845 218.588 206.112H211.596C211.639 206.987 211.911 207.68 212.412 208.192C212.924 208.693 213.575 208.944 214.364 208.944C214.962 208.944 215.463 208.811 215.868 208.544C216.284 208.277 216.588 207.925 216.78 207.488H218.348C218.071 208.256 217.591 208.891 216.908 209.392C216.236 209.893 215.388 210.144 214.364 210.144C213.543 210.144 212.807 209.957 212.156 209.584C211.516 209.211 211.015 208.683 210.652 208C210.29 207.307 210.108 206.512 210.108 205.616C210.108 204.709 210.29 203.915 210.652 203.232C211.015 202.539 211.527 202.005 212.188 201.632C212.85 201.259 213.612 201.072 214.476 201.072C215.298 201.072 216.023 201.253 216.652 201.616C217.282 201.979 217.772 202.475 218.124 203.104C218.476 203.733 218.652 204.448 218.652 205.248ZM217.132 205.056C217.132 204.491 217.01 204 216.764 203.584C216.519 203.157 216.183 202.832 215.756 202.608C215.34 202.384 214.876 202.272 214.364 202.272C213.607 202.272 212.972 202.523 212.46 203.024C211.948 203.515 211.666 204.192 211.612 205.056H217.132ZM77.7144 226.072C78.4611 226.072 79.1118 226.248 79.6664 226.6C80.2318 226.952 80.6584 227.411 80.9464 227.976V226.216H82.4184V235H80.9464V233.208C80.6584 233.784 80.2318 234.253 79.6664 234.616C79.1118 234.968 78.4611 235.144 77.7144 235.144C76.9251 235.144 76.2104 234.952 75.5704 234.568C74.9411 234.173 74.4398 233.629 74.0664 232.936C73.7038 232.232 73.5224 231.437 73.5224 230.552C73.5224 229.667 73.7038 228.888 74.0664 228.216C74.4398 227.533 74.9411 227.005 75.5704 226.632C76.2104 226.259 76.9251 226.072 77.7144 226.072ZM77.9704 227.336C77.4478 227.336 76.9571 227.464 76.4984 227.72C76.0504 227.976 75.6878 228.349 75.4104 228.84C75.1438 229.32 75.0104 229.891 75.0104 230.552C75.0104 231.213 75.1438 231.8 75.4104 232.312C75.6878 232.813 76.0504 233.203 76.4984 233.48C76.9571 233.757 77.4478 233.896 77.9704 233.896C78.5038 233.896 78.9944 233.763 79.4424 233.496C79.9011 233.229 80.2638 232.851 80.5304 232.36C80.8078 231.859 80.9464 231.277 80.9464 230.616C80.9464 229.955 80.8078 229.379 80.5304 228.888C80.2638 228.387 79.9011 228.003 79.4424 227.736C78.9944 227.469 78.5038 227.336 77.9704 227.336ZM88.4332 226.072C89.1799 226.072 89.8305 226.248 90.3852 226.6C90.9505 226.952 91.3772 227.411 91.6652 227.976V223.16H93.1372V235H91.6652V233.208C91.3772 233.784 90.9505 234.253 90.3852 234.616C89.8305 234.968 89.1799 235.144 88.4332 235.144C87.6439 235.144 86.9292 234.952 86.2892 234.568C85.6599 234.173 85.1585 233.629 84.7852 232.936C84.4225 232.232 84.2412 231.437 84.2412 230.552C84.2412 229.667 84.4225 228.888 84.7852 228.216C85.1585 227.533 85.6599 227.005 86.2892 226.632C86.9292 226.259 87.6439 226.072 88.4332 226.072ZM88.6892 227.336C88.1665 227.336 87.6759 227.464 87.2172 227.72C86.7692 227.976 86.4065 228.349 86.1292 228.84C85.8625 229.32 85.7292 229.891 85.7292 230.552C85.7292 231.213 85.8625 231.8 86.1292 232.312C86.4065 232.813 86.7692 233.203 87.2172 233.48C87.6759 233.757 88.1665 233.896 88.6892 233.896C89.2225 233.896 89.7132 233.763 90.1612 233.496C90.6199 233.229 90.9825 232.851 91.2492 232.36C91.5265 231.859 91.6652 231.277 91.6652 230.616C91.6652 229.955 91.5265 229.379 91.2492 228.888C90.9825 228.387 90.6199 228.003 90.1612 227.736C89.7132 227.469 89.2225 227.336 88.6892 227.336ZM99.1519 226.072C99.8986 226.072 100.549 226.248 101.104 226.6C101.669 226.952 102.096 227.411 102.384 227.976V223.16H103.856V235H102.384V233.208C102.096 233.784 101.669 234.253 101.104 234.616C100.549 234.968 99.8986 235.144 99.1519 235.144C98.3626 235.144 97.6479 234.952 97.0079 234.568C96.3786 234.173 95.8773 233.629 95.5039 232.936C95.1413 232.232 94.9599 231.437 94.9599 230.552C94.9599 229.667 95.1413 228.888 95.5039 228.216C95.8773 227.533 96.3786 227.005 97.0079 226.632C97.6479 226.259 98.3626 226.072 99.1519 226.072ZM99.4079 227.336C98.8853 227.336 98.3946 227.464 97.9359 227.72C97.4879 227.976 97.1253 228.349 96.8479 228.84C96.5813 229.32 96.4479 229.891 96.4479 230.552C96.4479 231.213 96.5813 231.8 96.8479 232.312C97.1253 232.813 97.4879 233.203 97.9359 233.48C98.3946 233.757 98.8853 233.896 99.4079 233.896C99.9413 233.896 100.432 233.763 100.88 233.496C101.339 233.229 101.701 232.851 101.968 232.36C102.245 231.859 102.384 231.277 102.384 230.616C102.384 229.955 102.245 229.379 101.968 228.888C101.701 228.387 101.339 228.003 100.88 227.736C100.432 227.469 99.9413 227.336 99.4079 227.336ZM121.612 226.072C122.252 226.072 122.833 226.216 123.356 226.504C123.878 226.781 124.289 227.203 124.588 227.768C124.897 228.323 125.052 229 125.052 229.8V235H123.612V230.04C123.612 229.155 123.393 228.483 122.956 228.024C122.529 227.565 121.942 227.336 121.196 227.336C120.449 227.336 119.857 227.565 119.42 228.024C118.993 228.483 118.78 229.155 118.78 230.04V235H117.34V230.04C117.34 229.155 117.126 228.483 116.7 228.024C116.273 227.565 115.681 227.336 114.924 227.336C114.177 227.336 113.585 227.565 113.148 228.024C112.721 228.483 112.508 229.155 112.508 230.04V235H111.052V226.216H112.508V227.64C112.796 227.128 113.19 226.739 113.692 226.472C114.193 226.205 114.753 226.072 115.372 226.072C116.044 226.072 116.652 226.237 117.196 226.568C117.74 226.888 118.15 227.357 118.428 227.976C118.748 227.379 119.18 226.915 119.724 226.584C120.278 226.243 120.908 226.072 121.612 226.072ZM130.98 226.072C131.727 226.072 132.377 226.248 132.932 226.6C133.497 226.952 133.924 227.411 134.212 227.976V226.216H135.684V235H134.212V233.208C133.924 233.784 133.497 234.253 132.932 234.616C132.377 234.968 131.727 235.144 130.98 235.144C130.191 235.144 129.476 234.952 128.836 234.568C128.207 234.173 127.705 233.629 127.332 232.936C126.969 232.232 126.788 231.437 126.788 230.552C126.788 229.667 126.969 228.888 127.332 228.216C127.705 227.533 128.207 227.005 128.836 226.632C129.476 226.259 130.191 226.072 130.98 226.072ZM131.236 227.336C130.713 227.336 130.223 227.464 129.764 227.72C129.316 227.976 128.953 228.349 128.676 228.84C128.409 229.32 128.276 229.891 128.276 230.552C128.276 231.213 128.409 231.8 128.676 232.312C128.953 232.813 129.316 233.203 129.764 233.48C130.223 233.757 130.713 233.896 131.236 233.896C131.769 233.896 132.26 233.763 132.708 233.496C133.167 233.229 133.529 232.851 133.796 232.36C134.073 231.859 134.212 231.277 134.212 230.616C134.212 229.955 134.073 229.379 133.796 228.888C133.529 228.387 133.167 228.003 132.708 227.736C132.26 227.469 131.769 227.336 131.236 227.336ZM142.163 233.816V235H140.691C139.944 235 139.373 234.819 138.979 234.456C138.595 234.093 138.403 233.523 138.403 232.744V227.4H137.267V226.216H138.403V224.04H139.875V226.216H142.147V227.4H139.875V232.744C139.875 233.139 139.955 233.416 140.115 233.576C140.275 233.736 140.557 233.816 140.963 233.816H142.163ZM151.738 230.248C151.738 230.557 151.717 230.845 151.674 231.112H144.682C144.725 231.987 144.997 232.68 145.498 233.192C146.01 233.693 146.661 233.944 147.45 233.944C148.048 233.944 148.549 233.811 148.954 233.544C149.37 233.277 149.674 232.925 149.866 232.488H151.434C151.157 233.256 150.677 233.891 149.994 234.392C149.322 234.893 148.474 235.144 147.45 235.144C146.629 235.144 145.893 234.957 145.242 234.584C144.602 234.211 144.101 233.683 143.738 233C143.376 232.307 143.194 231.512 143.194 230.616C143.194 229.709 143.376 228.915 143.738 228.232C144.101 227.539 144.613 227.005 145.274 226.632C145.936 226.259 146.698 226.072 147.562 226.072C148.384 226.072 149.109 226.253 149.738 226.616C150.368 226.979 150.858 227.475 151.21 228.104C151.562 228.733 151.738 229.448 151.738 230.248ZM150.218 230.056C150.218 229.491 150.096 229 149.85 228.584C149.605 228.157 149.269 227.832 148.842 227.608C148.426 227.384 147.962 227.272 147.45 227.272C146.693 227.272 146.058 227.523 145.546 228.024C145.034 228.515 144.752 229.192 144.698 230.056H150.218ZM155.008 227.704C155.53 226.616 156.421 226.072 157.68 226.072V227.592H157.296C156.549 227.592 155.978 227.789 155.584 228.184C155.2 228.568 155.008 229.24 155.008 230.2V235H153.552V226.216H155.008V227.704ZM159.202 223.816C159.202 223.539 159.298 223.304 159.49 223.112C159.682 222.92 159.912 222.824 160.178 222.824C160.456 222.824 160.69 222.92 160.882 223.112C161.074 223.304 161.17 223.539 161.17 223.816C161.17 224.093 161.074 224.328 160.882 224.52C160.69 224.712 160.456 224.808 160.178 224.808C159.901 224.808 159.666 224.712 159.474 224.52C159.293 224.328 159.202 224.093 159.202 223.816ZM160.898 226.216V235H159.442V226.216H160.898ZM166.918 226.072C167.664 226.072 168.315 226.248 168.87 226.6C169.435 226.952 169.862 227.411 170.15 227.976V226.216H171.622V235H170.15V233.208C169.862 233.784 169.435 234.253 168.87 234.616C168.315 234.968 167.664 235.144 166.918 235.144C166.128 235.144 165.414 234.952 164.774 234.568C164.144 234.173 163.643 233.629 163.27 232.936C162.907 232.232 162.726 231.437 162.726 230.552C162.726 229.667 162.907 228.888 163.27 228.216C163.643 227.533 164.144 227.005 164.774 226.632C165.414 226.259 166.128 226.072 166.918 226.072ZM167.174 227.336C166.651 227.336 166.16 227.464 165.702 227.72C165.254 227.976 164.891 228.349 164.614 228.84C164.347 229.32 164.214 229.891 164.214 230.552C164.214 231.213 164.347 231.8 164.614 232.312C164.891 232.813 165.254 233.203 165.702 233.48C166.16 233.757 166.651 233.896 167.174 233.896C167.707 233.896 168.198 233.763 168.646 233.496C169.104 233.229 169.467 232.851 169.734 232.36C170.011 231.859 170.15 231.277 170.15 230.616C170.15 229.955 170.011 229.379 169.734 228.888C169.467 228.387 169.104 228.003 168.646 227.736C168.198 227.469 167.707 227.336 167.174 227.336ZM175.476 223.16V235H174.02V223.16H175.476ZM180.904 226.072C181.853 226.072 182.605 226.323 183.16 226.824C183.714 227.315 184.018 227.992 184.072 228.856H182.568C182.546 228.365 182.381 227.971 182.072 227.672C181.762 227.373 181.336 227.224 180.792 227.224C180.237 227.224 179.8 227.357 179.48 227.624C179.17 227.88 179.016 228.205 179.016 228.6C179.016 228.931 179.112 229.197 179.304 229.4C179.506 229.592 179.752 229.736 180.04 229.832C180.338 229.928 180.738 230.029 181.24 230.136C181.88 230.285 182.392 230.435 182.776 230.584C183.17 230.723 183.506 230.963 183.784 231.304C184.061 231.635 184.2 232.088 184.2 232.664C184.2 233.144 184.061 233.576 183.784 233.96C183.506 234.333 183.117 234.627 182.616 234.84C182.114 235.043 181.538 235.144 180.888 235.144C179.906 235.144 179.117 234.899 178.52 234.408C177.933 233.917 177.613 233.24 177.56 232.376H179.064C179.085 232.867 179.256 233.261 179.576 233.56C179.906 233.848 180.344 233.992 180.888 233.992C181.485 233.992 181.944 233.869 182.264 233.624C182.594 233.379 182.76 233.053 182.76 232.648C182.76 232.317 182.658 232.056 182.456 231.864C182.264 231.661 182.018 231.512 181.72 231.416C181.421 231.309 181.01 231.197 180.488 231.08C179.858 230.941 179.346 230.803 178.952 230.664C178.568 230.515 178.237 230.285 177.96 229.976C177.693 229.667 177.56 229.24 177.56 228.696C177.56 228.216 177.693 227.779 177.96 227.384C178.237 226.979 178.626 226.659 179.128 226.424C179.64 226.189 180.232 226.072 180.904 226.072Z" fill="black"/>
<g clip-path="url(#clip0_827_457)">
<path d="M131.253 127.704C111.381 103.354 112.648 104.673 111.413 103.877C112.258 90.3266 111.582 76.7245 109.399 63.3257L110.654 62.0671C111.375 61.3421 111.78 60.3599 111.78 59.3359C111.78 58.3118 111.375 57.3296 110.654 56.6046C109.919 55.9029 108.944 55.5115 107.929 55.5115C106.915 55.5115 105.939 55.9029 105.205 56.6046L103.994 57.8191C91.2678 54.7048 77.9814 54.7048 65.2556 57.8191L64.0441 56.6046C63.32 55.8881 62.3425 55.4878 61.3251 55.4912C60.3076 55.4945 59.3328 55.9012 58.6133 56.6225C57.8939 57.3438 57.4883 58.3212 57.485 59.3412C57.4817 60.3612 57.8811 61.3412 58.5959 62.0671L59.8511 63.3253C56.6868 82.7127 56.6868 102.487 59.8511 121.874L58.5959 123.133C58.2381 123.491 57.9543 123.917 57.7607 124.386C57.5671 124.854 57.4674 125.357 57.4674 125.864C57.4674 126.371 57.5671 126.873 57.7607 127.342C57.9543 127.81 58.2381 128.236 58.5959 128.595C59.3184 129.319 60.2984 129.726 61.3202 129.726C61.8261 129.726 62.3271 129.626 62.7946 129.432C63.262 129.238 63.6868 128.954 64.0445 128.595L65.2559 127.381C77.7309 130.405 81.8663 129.725 130.297 129.725C130.53 129.724 130.759 129.658 130.956 129.532C131.154 129.407 131.311 129.228 131.412 129.017C131.512 128.805 131.55 128.57 131.522 128.337C131.494 128.105 131.4 127.885 131.253 127.704ZM65.1752 124.812C64.9683 124.761 64.7517 124.763 64.5463 124.821C64.3408 124.878 64.1536 124.987 64.0025 125.138L62.2991 126.845C62.0357 127.098 61.6851 127.24 61.3203 127.24C60.9555 127.24 60.6049 127.098 60.3415 126.845C60.0822 126.585 59.9365 126.232 59.9365 125.864C59.9365 125.496 60.0822 125.143 60.3415 124.883L62.045 123.175C62.1838 123.036 62.2875 122.865 62.3475 122.678C62.4074 122.49 62.4219 122.291 62.3897 122.096C59.1314 102.568 59.1314 82.6323 62.3897 63.1037C62.4219 62.9094 62.4074 62.7101 62.3474 62.5224C62.2873 62.3348 62.1835 62.1642 62.0446 62.0249L60.3411 60.3171C60.0816 60.0569 59.9357 59.7038 59.9357 59.3358C59.9358 58.9677 60.0816 58.6147 60.3413 58.3545C60.6009 58.0942 60.953 57.948 61.3202 57.948C61.6873 57.9481 62.0394 58.0943 62.299 58.3546L64.0024 60.0623C64.153 60.2138 64.3403 60.3234 64.5458 60.3805C64.7514 60.4376 64.9682 60.4402 65.1751 60.388C77.9406 57.1505 91.3093 57.1505 104.075 60.388C104.282 60.4403 104.499 60.4377 104.704 60.3806C104.91 60.3235 105.097 60.2138 105.247 60.0623L106.951 58.3546C107.21 58.0943 107.563 57.9481 107.93 57.9481C108.297 57.9481 108.649 58.0943 108.908 58.3546C109.168 58.6148 109.314 58.9678 109.314 59.3359C109.314 59.7039 109.168 60.0569 108.908 60.3171L107.205 62.0249C107.066 62.1641 106.962 62.3346 106.903 62.522C106.843 62.7095 106.828 62.9087 106.86 63.1029C109.05 76.2698 109.764 89.6411 108.988 102.967C107.888 102.796 106.763 102.928 105.733 103.349C104.703 103.77 103.807 104.464 103.141 105.357V77.7498C103.141 77.4216 103.011 77.1068 102.779 76.8748C102.548 76.6427 102.234 76.5123 101.906 76.5123H67.3438C67.0164 76.5123 66.7024 76.6427 66.4709 76.8748C66.2394 77.1068 66.1094 77.4216 66.1094 77.7498V107.45C66.1094 107.778 66.2394 108.093 66.4709 108.325C66.7024 108.557 67.0164 108.687 67.3438 108.687H100.423L85.2937 127.225C78.5122 127.286 71.751 126.475 65.1752 124.812ZM100.672 106.212H68.5781V78.9873H100.672V106.212ZM88.4639 127.25L105.212 106.728C105.559 106.303 105.996 105.96 106.492 105.724C106.987 105.489 107.529 105.367 108.078 105.367C108.626 105.367 109.168 105.489 109.663 105.724C110.159 105.96 110.596 106.303 110.943 106.728L127.692 127.25H88.4639ZM111.781 117.35C111.781 117.105 111.854 116.866 111.989 116.662C112.125 116.459 112.318 116.3 112.543 116.207C112.769 116.113 113.017 116.088 113.256 116.136C113.496 116.184 113.716 116.302 113.888 116.475C114.061 116.648 114.179 116.868 114.226 117.108C114.274 117.348 114.249 117.597 114.156 117.823C114.063 118.049 113.904 118.243 113.701 118.379C113.498 118.515 113.26 118.587 113.016 118.587C112.688 118.587 112.374 118.457 112.143 118.225C111.911 117.993 111.781 117.678 111.781 117.35ZM117.953 123.537C117.953 123.293 118.026 123.053 118.161 122.85C118.297 122.646 118.49 122.488 118.715 122.394C118.941 122.3 119.189 122.276 119.428 122.324C119.668 122.371 119.888 122.489 120.06 122.662C120.233 122.835 120.351 123.056 120.398 123.296C120.446 123.536 120.421 123.785 120.328 124.011C120.234 124.237 120.076 124.43 119.873 124.566C119.67 124.702 119.432 124.775 119.188 124.775C118.86 124.775 118.546 124.644 118.315 124.412C118.083 124.18 117.953 123.866 117.953 123.537ZM109.313 122.3C109.313 122.545 109.24 122.784 109.104 122.987C108.969 123.191 108.776 123.349 108.551 123.443C108.325 123.537 108.077 123.561 107.837 123.514C107.598 123.466 107.378 123.348 107.205 123.175C107.033 123.002 106.915 122.781 106.867 122.541C106.82 122.301 106.844 122.052 106.938 121.826C107.031 121.6 107.189 121.407 107.392 121.271C107.595 121.135 107.834 121.062 108.078 121.062C108.406 121.062 108.719 121.193 108.951 121.425C109.182 121.657 109.313 121.972 109.313 122.3ZM104.375 114.875C104.375 115.12 104.303 115.359 104.167 115.562C104.031 115.766 103.839 115.924 103.613 116.018C103.387 116.112 103.139 116.136 102.9 116.089C102.66 116.041 102.44 115.923 102.268 115.75C102.095 115.577 101.978 115.356 101.93 115.116C101.882 114.876 101.907 114.627 102 114.401C102.094 114.175 102.252 113.982 102.455 113.846C102.658 113.71 102.896 113.637 103.141 113.637C103.468 113.637 103.782 113.768 104.013 114C104.245 114.232 104.375 114.547 104.375 114.875ZM110.547 111.162C110.547 111.407 110.474 111.646 110.339 111.85C110.203 112.053 110.01 112.212 109.785 112.306C109.559 112.399 109.311 112.424 109.072 112.376C108.832 112.328 108.612 112.21 108.44 112.037C108.267 111.864 108.149 111.644 108.102 111.404C108.054 111.164 108.079 110.915 108.172 110.689C108.266 110.463 108.424 110.269 108.627 110.133C108.83 109.997 109.068 109.925 109.313 109.925C109.64 109.925 109.954 110.055 110.185 110.287C110.417 110.519 110.547 110.834 110.547 111.162ZM100.672 122.3C100.672 122.545 100.599 122.784 100.464 122.987C100.328 123.191 100.135 123.349 99.9099 123.443C99.6843 123.537 99.4361 123.561 99.1967 123.514C98.9572 123.466 98.7373 123.348 98.5647 123.175C98.392 123.002 98.2745 122.781 98.2268 122.541C98.1792 122.301 98.2037 122.052 98.2971 121.826C98.3905 121.6 98.5487 121.407 98.7517 121.271C98.9547 121.135 99.1934 121.062 99.4375 121.062C99.7649 121.062 100.079 121.193 100.31 121.425C100.542 121.657 100.672 121.972 100.672 122.3ZM74.75 100.025H92.0313C92.2497 100.025 92.4642 99.9667 92.6529 99.8564C92.8417 99.7461 92.9978 99.5875 93.1054 99.3969C93.213 99.2064 93.2683 98.9906 93.2655 98.7716C93.2627 98.5526 93.202 98.3383 93.0896 98.1505L90.0724 93.1092L91.3489 92.4694C91.554 92.3666 91.7264 92.2086 91.8469 92.013C91.9675 91.8175 92.0313 91.5922 92.0313 91.3623V88.5417L94.8906 87.5863C95.0443 87.5349 95.1865 87.4536 95.309 87.3471C95.4315 87.2406 95.5318 87.111 95.6043 86.9656C95.6768 86.8202 95.72 86.6619 95.7314 86.4998C95.7429 86.3377 95.7224 86.1749 95.6711 86.0207C95.6198 85.8665 95.5388 85.724 95.4325 85.6012C95.3263 85.4784 95.197 85.3778 95.0519 85.3052C94.9069 85.2325 94.7491 85.1892 94.5873 85.1777C94.4256 85.1662 94.2632 85.1867 94.1094 85.2382L90.4063 86.4757C90.1606 86.5578 89.9468 86.7155 89.7954 86.9262C89.6439 87.1369 89.5625 87.3901 89.5625 87.6498V90.5973L88.7984 90.9809L85.6834 85.776C85.5806 85.6051 85.4382 85.4617 85.2683 85.3578C85.0983 85.2539 84.9059 85.1927 84.7074 85.1794C84.5088 85.166 84.3099 85.2009 84.1277 85.2811C83.9455 85.3612 83.7852 85.4843 83.6606 85.6399L73.7856 98.0149C73.6409 98.197 73.5505 98.4164 73.5245 98.6478C73.4986 98.8792 73.5382 99.1133 73.6389 99.3231C73.7396 99.533 73.8972 99.7101 74.0938 99.8342C74.2903 99.9583 74.5177 100.024 74.75 100.025ZM84.4803 88.575L86.584 92.0904L85.3074 92.7304C85.0145 92.8771 84.7918 93.1346 84.6883 93.446C84.5847 93.7574 84.6088 94.0972 84.7552 94.3908C84.9016 94.6844 85.1584 94.9077 85.469 95.0115C85.7796 95.1153 86.1187 95.0912 86.4115 94.9444L87.8578 94.2194L89.8506 97.5498H77.3189L84.4803 88.575Z" fill="white"/>
<path d="M56.7685 153.035V153.604H55.0852V153.035H56.7685ZM55.4705 155.763V152.838C55.4705 152.641 55.509 152.477 55.5859 152.347C55.6641 152.216 55.7706 152.119 55.9055 152.054C56.0405 151.988 56.1938 151.956 56.3654 151.956C56.4814 151.956 56.5874 151.965 56.6832 151.983C56.7803 152 56.8525 152.016 56.8999 152.03L56.7649 152.599C56.7353 152.589 56.6986 152.58 56.6548 152.572C56.6122 152.564 56.5684 152.56 56.5234 152.56C56.4122 152.56 56.3346 152.586 56.2908 152.638C56.247 152.689 56.2251 152.76 56.2251 152.853V155.763H55.4705ZM57.2306 155.763V153.035H57.9639V153.511H57.9923C58.042 153.342 58.1254 153.214 58.2426 153.128C58.3598 153.04 58.4948 152.996 58.6475 152.996C58.6853 152.996 58.7262 152.999 58.77 153.003C58.8138 153.008 58.8522 153.015 58.8854 153.023V153.694C58.8499 153.684 58.8008 153.674 58.738 153.666C58.6753 153.657 58.6179 153.653 58.5658 153.653C58.4545 153.653 58.3551 153.678 58.2675 153.726C58.1811 153.773 58.1124 153.84 58.0615 153.925C58.0118 154.01 57.9869 154.108 57.9869 154.22V155.763H57.2306ZM60.3817 155.816C60.1059 155.816 59.8674 155.757 59.6662 155.64C59.4661 155.522 59.3117 155.357 59.2028 155.147C59.0939 154.935 59.0394 154.689 59.0394 154.41C59.0394 154.128 59.0939 153.882 59.2028 153.671C59.3117 153.459 59.4661 153.295 59.6662 153.177C59.8674 153.059 60.1059 153 60.3817 153C60.6576 153 60.8955 153.059 61.0955 153.177C61.2968 153.295 61.4518 153.459 61.5607 153.671C61.6696 153.882 61.7241 154.128 61.7241 154.41C61.7241 154.689 61.6696 154.935 61.5607 155.147C61.4518 155.357 61.2968 155.522 61.0955 155.64C60.8955 155.757 60.6576 155.816 60.3817 155.816ZM60.3853 155.23C60.5108 155.23 60.6155 155.195 60.6996 155.123C60.7836 155.051 60.8469 154.953 60.8896 154.829C60.9334 154.704 60.9553 154.563 60.9553 154.404C60.9553 154.246 60.9334 154.104 60.8896 153.98C60.8469 153.856 60.7836 153.757 60.6996 153.685C60.6155 153.613 60.5108 153.577 60.3853 153.577C60.2586 153.577 60.1521 153.613 60.0657 153.685C59.9805 153.757 59.916 153.856 59.8722 153.98C59.8295 154.104 59.8082 154.246 59.8082 154.404C59.8082 154.563 59.8295 154.704 59.8722 154.829C59.916 154.953 59.9805 155.051 60.0657 155.123C60.1521 155.195 60.2586 155.23 60.3853 155.23ZM62.2159 155.763V153.035H62.9368V153.517H62.9688C63.0256 153.357 63.1203 153.231 63.2528 153.138C63.3854 153.046 63.544 153 63.7287 153C63.9157 153 64.0749 153.047 64.2063 153.14C64.3377 153.233 64.4253 153.358 64.4691 153.517H64.4975C64.5531 153.36 64.6538 153.235 64.7994 153.142C64.9461 153.047 65.1196 153 65.3196 153C65.5741 153 65.7807 153.081 65.9393 153.243C66.0991 153.404 66.179 153.633 66.179 153.929V155.763H65.4244V154.078C65.4244 153.926 65.3841 153.813 65.3036 153.737C65.2231 153.661 65.1225 153.623 65.0018 153.623C64.8645 153.623 64.7573 153.667 64.6804 153.755C64.6035 153.841 64.565 153.955 64.565 154.097V155.763H63.8317V154.062C63.8317 153.928 63.7932 153.821 63.7163 153.742C63.6405 153.663 63.5405 153.623 63.4162 153.623C63.3321 153.623 63.2564 153.644 63.1889 153.687C63.1226 153.728 63.07 153.787 63.0309 153.863C62.9918 153.937 62.9723 154.025 62.9723 154.126V155.763H62.2159ZM69.3843 153.035V153.604H67.7419V153.035H69.3843ZM68.1148 152.382H68.8712V154.925C68.8712 154.994 68.8818 155.049 68.9031 155.088C68.9244 155.126 68.954 155.152 68.9919 155.168C69.031 155.183 69.076 155.191 69.1269 155.191C69.1624 155.191 69.1979 155.188 69.2334 155.182C69.2689 155.175 69.2961 155.17 69.3151 155.166L69.434 155.729C69.3962 155.741 69.3429 155.754 69.2742 155.77C69.2056 155.786 69.1221 155.796 69.0239 155.8C68.8416 155.807 68.6818 155.783 68.5445 155.727C68.4084 155.672 68.3024 155.585 68.2267 155.468C68.1509 155.351 68.1136 155.203 68.1148 155.024V152.382ZM70.692 154.186V155.763H69.9356V152.126H70.6707V153.517H70.7027C70.7642 153.356 70.8637 153.23 71.001 153.138C71.1383 153.046 71.3105 153 71.5177 153C71.7071 153 71.8722 153.041 72.0131 153.124C72.1551 153.206 72.2652 153.324 72.3433 153.478C72.4226 153.63 72.4617 153.813 72.4605 154.026V155.763H71.7041V154.161C71.7053 153.993 71.6627 153.862 71.5763 153.769C71.491 153.675 71.3715 153.628 71.2176 153.628C71.1146 153.628 71.0235 153.65 70.9442 153.694C70.866 153.738 70.8045 153.802 70.7595 153.886C70.7157 153.969 70.6932 154.069 70.692 154.186ZM74.2987 155.816C74.0181 155.816 73.7766 155.759 73.5742 155.646C73.373 155.531 73.2179 155.369 73.109 155.159C73.0001 154.948 72.9457 154.699 72.9457 154.411C72.9457 154.131 73.0001 153.885 73.109 153.673C73.2179 153.461 73.3712 153.296 73.5689 153.177C73.7678 153.059 74.0009 153 74.2685 153C74.4484 153 74.6159 153.029 74.771 153.087C74.9272 153.144 75.0633 153.23 75.1793 153.344C75.2965 153.459 75.3877 153.604 75.4528 153.778C75.5179 153.95 75.5504 154.153 75.5504 154.385V154.593H73.2475V154.124H74.8384C74.8384 154.015 74.8147 153.918 74.7674 153.834C74.7201 153.75 74.6544 153.685 74.5703 153.637C74.4875 153.589 74.391 153.565 74.2809 153.565C74.1661 153.565 74.0643 153.591 73.9755 153.644C73.8879 153.697 73.8192 153.767 73.7695 153.856C73.7198 153.943 73.6944 154.041 73.6932 154.149V154.594C73.6932 154.729 73.718 154.846 73.7678 154.944C73.8187 155.042 73.8903 155.118 73.9826 155.171C74.0749 155.225 74.1844 155.251 74.3111 155.251C74.3951 155.251 74.4721 155.239 74.5419 155.216C74.6117 155.192 74.6715 155.157 74.7212 155.109C74.771 155.062 74.8088 155.004 74.8349 154.935L75.5344 154.981C75.4989 155.15 75.4261 155.296 75.3161 155.422C75.2071 155.546 75.0663 155.643 74.8935 155.713C74.7218 155.782 74.5236 155.816 74.2987 155.816ZM80.257 152.126V155.763H79.593L78.0109 153.474H77.9843V155.763H77.2155V152.126H77.8902L79.4598 154.413H79.4917V152.126H80.257ZM82.1103 155.816C81.8345 155.816 81.5959 155.757 81.3947 155.64C81.1947 155.522 81.0402 155.357 80.9313 155.147C80.8224 154.935 80.7679 154.689 80.7679 154.41C80.7679 154.128 80.8224 153.882 80.9313 153.671C81.0402 153.459 81.1947 153.295 81.3947 153.177C81.5959 153.059 81.8345 153 82.1103 153C82.3861 153 82.624 153.059 82.824 153.177C83.0253 153.295 83.1803 153.459 83.2892 153.671C83.3981 153.882 83.4526 154.128 83.4526 154.41C83.4526 154.689 83.3981 154.935 83.2892 155.147C83.1803 155.357 83.0253 155.522 82.824 155.64C82.624 155.757 82.3861 155.816 82.1103 155.816ZM82.1138 155.23C82.2393 155.23 82.344 155.195 82.4281 155.123C82.5121 155.051 82.5755 154.953 82.6181 154.829C82.6619 154.704 82.6838 154.563 82.6838 154.404C82.6838 154.246 82.6619 154.104 82.6181 153.98C82.5755 153.856 82.5121 153.757 82.4281 153.685C82.344 153.613 82.2393 153.577 82.1138 153.577C81.9872 153.577 81.8806 153.613 81.7942 153.685C81.709 153.757 81.6445 153.856 81.6007 153.98C81.5581 154.104 81.5368 154.246 81.5368 154.404C81.5368 154.563 81.5581 154.704 81.6007 154.829C81.6445 154.953 81.709 155.051 81.7942 155.123C81.8806 155.195 81.9872 155.23 82.1138 155.23ZM85.6934 154.601V153.035H86.4498V155.763H85.7235V155.267H85.6951C85.6336 155.427 85.5312 155.556 85.388 155.653C85.2459 155.75 85.0725 155.798 84.8677 155.798C84.6854 155.798 84.525 155.757 84.3865 155.674C84.248 155.591 84.1397 155.473 84.0616 155.321C83.9847 155.168 83.9456 154.985 83.9444 154.772V153.035H84.7008V154.637C84.702 154.798 84.7452 154.925 84.8304 155.019C84.9157 155.112 85.0299 155.159 85.1731 155.159C85.2643 155.159 85.3495 155.138 85.4288 155.097C85.5081 155.054 85.572 154.992 85.6206 154.909C85.6703 154.826 85.6945 154.723 85.6934 154.601ZM87.8112 154.186V155.763H87.0548V153.035H87.7757V153.517H87.8076C87.868 153.358 87.9692 153.233 88.1112 153.14C88.2533 153.047 88.4255 153 88.6279 153C88.8173 153 88.9825 153.041 89.1233 153.124C89.2642 153.207 89.3737 153.325 89.4518 153.479C89.5299 153.632 89.569 153.814 89.569 154.026V155.763H88.8126V154.161C88.8138 153.994 88.7712 153.864 88.6847 153.771C88.5983 153.676 88.4794 153.628 88.3279 153.628C88.2261 153.628 88.1361 153.65 88.058 153.694C87.981 153.738 87.9207 153.802 87.8769 153.886C87.8343 153.969 87.8124 154.069 87.8112 154.186ZM91.3366 155.763V152.126H92.7712C93.047 152.126 93.282 152.179 93.4761 152.284C93.6702 152.389 93.8182 152.534 93.92 152.719C94.023 152.904 94.0745 153.117 94.0745 153.359C94.0745 153.6 94.0224 153.813 93.9182 153.998C93.8141 154.182 93.6631 154.326 93.4655 154.429C93.269 154.532 93.031 154.584 92.7517 154.584H91.8373V153.968H92.6274C92.7754 153.968 92.8973 153.942 92.9932 153.891C93.0902 153.839 93.1624 153.768 93.2098 153.676C93.2583 153.584 93.2826 153.478 93.2826 153.359C93.2826 153.238 93.2583 153.132 93.2098 153.043C93.1624 152.951 93.0902 152.881 92.9932 152.831C92.8961 152.78 92.773 152.755 92.6238 152.755H92.1054V155.763H91.3366ZM94.5597 155.763V153.035H95.293V153.511H95.3214C95.3711 153.342 95.4545 153.214 95.5717 153.128C95.6889 153.04 95.8239 152.996 95.9766 152.996C96.0144 152.996 96.0553 152.999 96.0991 153.003C96.1429 153.008 96.1813 153.015 96.2145 153.023V153.694C96.179 153.684 96.1299 153.674 96.0671 153.666C96.0044 153.657 95.947 153.653 95.8949 153.653C95.7836 153.653 95.6842 153.678 95.5966 153.726C95.5102 153.773 95.4415 153.84 95.3906 153.925C95.3409 154.01 95.3161 154.108 95.3161 154.22V155.763H94.5597ZM97.7108 155.816C97.435 155.816 97.1965 155.757 96.9953 155.64C96.7952 155.522 96.6408 155.357 96.5319 155.147C96.423 154.935 96.3685 154.689 96.3685 154.41C96.3685 154.128 96.423 153.882 96.5319 153.671C96.6408 153.459 96.7952 153.295 96.9953 153.177C97.1965 153.059 97.435 153 97.7108 153C97.9867 153 98.2246 153.059 98.4246 153.177C98.6259 153.295 98.7809 153.459 98.8898 153.671C98.9987 153.882 99.0532 154.128 99.0532 154.41C99.0532 154.689 98.9987 154.935 98.8898 155.147C98.7809 155.357 98.6259 155.522 98.4246 155.64C98.2246 155.757 97.9867 155.816 97.7108 155.816ZM97.7144 155.23C97.8399 155.23 97.9446 155.195 98.0287 155.123C98.1127 155.051 98.176 154.953 98.2187 154.829C98.2625 154.704 98.2844 154.563 98.2844 154.404C98.2844 154.246 98.2625 154.104 98.2187 153.98C98.176 153.856 98.1127 153.757 98.0287 153.685C97.9446 153.613 97.8399 153.577 97.7144 153.577C97.5877 153.577 97.4812 153.613 97.3948 153.685C97.3096 153.757 97.2451 153.856 97.2013 153.98C97.1586 154.104 97.1373 154.246 97.1373 154.404C97.1373 154.563 97.1586 154.704 97.2013 154.829C97.2451 154.953 97.3096 155.051 97.3948 155.123C97.4812 155.195 97.5877 155.23 97.7144 155.23ZM99.545 153.035H100.301V155.898C100.301 156.108 100.26 156.279 100.177 156.409C100.094 156.539 99.9753 156.634 99.8202 156.695C99.6663 156.755 99.4823 156.785 99.268 156.785C99.242 156.785 99.2171 156.785 99.1934 156.784C99.1686 156.784 99.1425 156.783 99.1153 156.782V156.191C99.1354 156.192 99.1532 156.192 99.1686 156.192C99.1828 156.194 99.1982 156.194 99.2148 156.194C99.3367 156.194 99.4219 156.168 99.4704 156.116C99.5202 156.065 99.545 155.988 99.545 155.885V153.035ZM99.9214 152.684C99.8102 152.684 99.7143 152.647 99.6338 152.572C99.5533 152.496 99.5131 152.406 99.5131 152.3C99.5131 152.196 99.5533 152.107 99.6338 152.032C99.7143 151.956 99.8102 151.919 99.9214 151.919C100.035 151.919 100.132 151.956 100.211 152.032C100.291 152.107 100.332 152.196 100.332 152.3C100.332 152.406 100.291 152.496 100.211 152.572C100.132 152.647 100.035 152.684 99.9214 152.684ZM102.15 155.816C101.87 155.816 101.628 155.759 101.426 155.646C101.225 155.531 101.069 155.369 100.961 155.159C100.852 154.948 100.797 154.699 100.797 154.411C100.797 154.131 100.852 153.885 100.961 153.673C101.069 153.461 101.223 153.296 101.42 153.177C101.619 153.059 101.853 153 102.12 153C102.3 153 102.467 153.029 102.623 153.087C102.779 153.144 102.915 153.23 103.031 153.344C103.148 153.459 103.239 153.604 103.304 153.778C103.369 153.95 103.402 154.153 103.402 154.385V154.593H101.099V154.124H102.69C102.69 154.015 102.666 153.918 102.619 153.834C102.572 153.75 102.506 153.685 102.422 153.637C102.339 153.589 102.243 153.565 102.132 153.565C102.018 153.565 101.916 153.591 101.827 153.644C101.739 153.697 101.671 153.767 101.621 153.856C101.571 153.943 101.546 154.041 101.545 154.149V154.594C101.545 154.729 101.57 154.846 101.619 154.944C101.67 155.042 101.742 155.118 101.834 155.171C101.926 155.225 102.036 155.251 102.163 155.251C102.247 155.251 102.324 155.239 102.393 155.216C102.463 155.192 102.523 155.157 102.573 155.109C102.623 155.062 102.66 155.004 102.686 154.935L103.386 154.981C103.35 155.15 103.278 155.296 103.168 155.422C103.059 155.546 102.918 155.643 102.745 155.713C102.573 155.782 102.375 155.816 102.15 155.816ZM105.128 155.816C104.848 155.816 104.608 155.757 104.407 155.638C104.207 155.519 104.053 155.353 103.945 155.141C103.839 154.929 103.786 154.686 103.786 154.41C103.786 154.13 103.839 153.885 103.947 153.675C104.056 153.463 104.21 153.298 104.411 153.179C104.611 153.06 104.848 153 105.124 153C105.362 153 105.571 153.043 105.749 153.13C105.928 153.216 106.069 153.337 106.174 153.494C106.278 153.65 106.335 153.833 106.346 154.044H105.632C105.612 153.908 105.559 153.798 105.472 153.715C105.387 153.631 105.275 153.589 105.137 153.589C105.02 153.589 104.917 153.621 104.83 153.685C104.743 153.748 104.676 153.84 104.627 153.96C104.579 154.081 104.554 154.227 104.554 154.399C104.554 154.573 104.578 154.721 104.625 154.843C104.674 154.965 104.742 155.058 104.83 155.122C104.917 155.186 105.02 155.218 105.137 155.218C105.223 155.218 105.301 155.2 105.369 155.164C105.439 155.129 105.497 155.077 105.542 155.01C105.588 154.941 105.618 154.859 105.632 154.763H106.346C106.334 154.971 106.277 155.155 106.175 155.313C106.075 155.471 105.936 155.594 105.758 155.683C105.581 155.772 105.371 155.816 105.128 155.816ZM108.281 153.035V153.604H106.638V153.035H108.281ZM107.011 152.382H107.768V154.925C107.768 154.994 107.778 155.049 107.8 155.088C107.821 155.126 107.851 155.152 107.888 155.168C107.927 155.183 107.972 155.191 108.023 155.191C108.059 155.191 108.094 155.188 108.13 155.182C108.165 155.175 108.193 155.17 108.212 155.166L108.331 155.729C108.293 155.741 108.239 155.754 108.171 155.77C108.102 155.786 108.019 155.796 107.92 155.8C107.738 155.807 107.578 155.783 107.441 155.727C107.305 155.672 107.199 155.585 107.123 155.468C107.047 155.351 107.01 155.203 107.011 155.024V152.382Z" fill="white"/>
</g>
<path d="M153.813 53C153.354 53.0875 152.992 53.5334 153 54V65C147.277 65 141.521 65 135.813 65C135.354 65.0875 134.992 65.5334 135 66V78C135 78.5236 135.476 79 136 79H153V89C147.277 89 141.521 89 135.813 89C135.354 89.087 134.992 89.5334 135 90V101C132.613 101 130.184 101 127.813 101C127.354 101.087 126.992 101.533 127 102V114C127 114.524 127.476 115 128 115C154.003 115 180.001 115 206 115C206.524 115 207 114.524 207 114V103H214C214.524 103 215 102.524 215 102V90C215 89.4764 214.524 89 214 89H207V78C207 77.4764 206.524 77 206 77H189V66C189 65.4764 188.524 65 188 65H181V54C181 53.4764 180.524 53 180 53C171.276 53 162.522 53 153.813 53ZM155 55H179V65C170.998 64.9996 162.999 65 155 65V55ZM137 67H161V77H137V67ZM163 67H187V77H163V67ZM155 79C163.002 79.0008 170.996 79 179 79V89C170.998 88.9996 162.999 89 155 89V79ZM181 79C189.002 79.004 196.985 79 205 79V89C196.998 88.9996 188.999 89 181 89V79ZM137 91H161V101C153 101 145 101 137 101V91ZM163 91H187V101C179 101 171.002 101 163 101V91ZM189 91C197.016 91.017 205.008 91 213 91V101C205 101 197 101 189 101V91ZM129 103H153V113H129V103ZM155 103H179V113H155V103ZM181 103H205V113H181V103Z" fill="white"/>
<path d="M142.78 37.0825C142.626 36.9583 140.974 36.0227 138.938 34.8339C139.11 34.1042 139.22 33.3686 139.22 32.6797C139.22 30.8084 138.547 29.3654 137.367 28.6301C137.17 28.4511 139.272 29.7205 101.322 7.78294C100.042 7.06254 98.3948 7.20275 96.6801 8.18242C93.3857 10.0868 90.7164 14.6805 90.7292 18.4252C90.7403 20.0647 91.2378 21.3567 92.1328 22.1548C91.7809 22.286 91.4251 22.4447 91.0636 22.6515C87.7692 24.5558 85.0999 29.1556 85.1132 32.9069C85.1266 34.8651 85.8259 36.3379 87.0785 37.0516C87.2605 37.1568 122.87 57.7308 122.999 57.8049C124.455 58.6439 126.195 58.2515 127.666 57.4126C129.974 56.0765 131.7 53.8359 132.698 51.004C132.823 51.0755 134.373 51.964 134.248 51.8925C135.696 52.7585 137.46 52.3732 138.933 51.5219C142.216 49.6429 144.887 45.0437 144.887 41.2695C144.887 41.2683 144.887 41.2665 144.887 41.2653C144.874 39.31 144.131 37.8162 142.78 37.0825ZM137.893 37.76C138.166 37.2139 138.526 36.3 138.603 36.0726L139.929 36.8413C139.279 37.014 138.586 37.3152 137.893 37.76ZM132.937 44.3487C132.73 43.9839 132.349 43.5603 132.224 43.4458C132.52 43.3345 133.125 43.0559 133.614 42.7405C133.367 43.2426 133.049 44.0322 132.937 44.3487ZM137.975 32.6797C137.975 35.955 135.634 40.1486 132.658 41.872C130.3 43.2218 128.611 42.7542 127.948 39.9218C127.189 36.4315 130.964 30.2445 134.717 29.4187C136.929 28.9026 137.975 30.6992 137.975 32.6797ZM97.3034 9.25396C98.6174 8.50394 99.828 8.36434 100.702 8.85629L134.278 28.2479C133.268 28.4949 132.195 29.1139 131.397 29.7709C130.039 30.851 128.629 32.6144 127.666 34.7605C126.71 36.9576 126.503 39.0206 126.72 40.1303C126.721 40.1454 126.721 40.1611 126.723 40.1756L95.7091 22.2659C95.171 21.958 94.4165 21.79 93.8503 21.8066L93.3176 21.4978C92.4615 21.0106 91.9848 19.9167 91.9745 18.4191C91.9629 15.0704 94.355 10.9583 97.3034 9.25396ZM87.7011 35.9801C86.8456 35.4924 86.3689 34.3979 86.3585 32.9003C86.3464 29.5455 88.7378 25.4273 91.6875 23.723C92.719 23.132 94.0497 22.7466 95.0858 23.3374L127.29 41.9343C127.425 42.1881 127.761 42.6561 128.04 42.9085C126.809 43.3749 125.78 44.1621 124.883 45.0653C121.702 48.2649 120.531 52.7492 121.252 55.3626L87.7011 35.9801ZM127.044 56.3411C124.625 57.7193 122.84 56.9667 122.397 54.7817C121.918 52.5347 123.043 48.6979 125.737 45.9664C128.722 42.9315 132.186 43.0097 132.346 46.8738C132.346 46.8815 132.349 46.8877 132.349 46.8954C132.349 46.8952 132.349 46.8955 132.349 46.8954C131.959 51.1718 130.024 54.6151 127.044 56.3411ZM138.31 50.451C136.616 51.4302 134.734 51.5024 133.95 49.7451C133.439 48.7293 133.588 47.7276 133.604 47.0421C133.849 44.5026 135.242 41.545 137.828 39.3271C138.771 38.5786 140.232 37.7792 141.385 37.9231L141.39 37.9238C143.054 38.1328 143.63 39.6635 143.642 41.2701C143.642 44.6497 141.251 48.7672 138.31 50.451Z" fill="white"/>
<path d="M140.859 38.9229C138.229 38.9229 134.393 43.2944 134.41 47.4256C134.41 50.0289 136.048 50.7828 138.179 49.5542C140.655 48.1336 142.793 44.498 142.781 41.6105C142.781 39.9273 142.062 38.9229 140.859 38.9229ZM139.656 40.5625C141.871 39.2355 141.859 41.7257 141.091 43.8784L137.929 42.0515C138.459 41.4406 139.043 40.9155 139.656 40.5625ZM137.555 48.4827C136.096 49.3243 135.655 48.8336 135.655 47.4232C135.65 46.0457 136.262 44.4247 137.175 43.0478L140.594 45.0228C139.852 46.4754 138.753 47.7956 137.555 48.4827Z" fill="white"/>
<path d="M126.367 46.4246C123.989 48.6363 122.79 52.1405 123.228 54.2353C123.567 56.1813 125.188 56.4332 126.906 55.4441C129.064 54.1985 130.752 51.4769 131.283 49.2639C132.394 44.7327 129.488 43.4256 126.367 46.4246ZM130.072 48.9738C130.007 49.2469 129.928 49.5139 129.836 49.7719L126.638 47.9287C126.83 47.7106 127.027 47.5057 127.225 47.3214C129.673 44.9688 130.789 46.0533 130.072 48.9738ZM126.281 54.3737C125.363 54.9015 124.632 55.0386 124.451 54.0039C124.117 52.4163 124.98 50.3001 125.882 48.9237C126.008 48.9964 129.56 51.0444 129.335 50.9144C128.564 52.4289 127.448 53.6999 126.281 54.3737Z" fill="white"/>
<path d="M134.506 30.4413C133.775 30.5987 133.004 31.0857 132.438 31.5449C129.962 33.5569 128.311 37.3628 128.844 39.7534C129.139 41.4509 130.501 42.1218 132.523 40.9633C134.172 40.0098 135.539 38.2138 136.327 36.4475C136.915 35.1393 137.128 34.0401 137.128 33.0268C137.128 30.6801 135.71 29.9869 134.506 30.4413ZM135.883 33.0268C135.883 33.6752 135.804 34.2317 135.485 35.1683C135.47 35.2106 135.452 35.2517 135.437 35.2938L132.265 33.4659C132.445 33.2587 132.755 32.8867 133.226 32.5034C134.754 31.2602 135.883 31.0484 135.883 33.0268ZM130.066 39.5158C129.733 37.9833 130.633 35.805 131.516 34.4657C131.698 34.5708 135.133 36.55 134.93 36.4331C134.027 38.1959 132.891 39.319 131.898 39.8924C130.923 40.4518 130.248 40.5563 130.066 39.5158Z" fill="white"/>
<defs>
<clipPath id="clip0_827_457">
<rect width="79" height="99" fill="white" transform="translate(55 53)"/>
</clipPath>
</defs>
</svg>
