<svg width="258" height="313" viewBox="0 0 258 313" fill="none" xmlns="http://www.w3.org/2000/svg">
<path d="M109.631 61.241C123.111 51.4151 137.807 33.4181 153.001 30.8015C168.228 28.5008 183.81 41.7475 196.104 57.0885C208.365 72.1137 217.37 89.5492 218.701 106.788C220.031 124.027 214.004 141.052 204.375 154.152C194.922 167.401 182.009 176.559 168.836 187.797C155.522 199.202 141.947 212.687 125.301 216.658C108.512 220.795 88.7947 215.251 75.2802 203.475C61.4486 191.717 53.7869 173.41 48.3019 156.091C42.8169 138.772 39.8256 122.422 43.9984 108.998C48.1712 95.5746 59.8251 85.059 71.7679 78.8159C83.7437 72.8886 96.0085 71.2338 109.631 61.241Z" fill="#F66464"/>
<rect y="169" width="258" height="144" rx="28" fill="#EFEDED"/>
<path d="M60.1704 202.8C61.3224 202.8 62.3464 203.072 63.2424 203.616C64.1491 204.16 64.8158 204.944 65.2424 205.968H63.4824C63.1624 205.36 62.7144 204.896 62.1384 204.576C61.5624 204.256 60.9064 204.096 60.1704 204.096C59.3811 204.096 58.6664 204.277 58.0264 204.64C57.3971 204.992 56.9011 205.499 56.5384 206.16C56.1864 206.821 56.0104 207.584 56.0104 208.448C56.0104 209.312 56.1864 210.075 56.5384 210.736C56.9011 211.397 57.3971 211.909 58.0264 212.272C58.6664 212.635 59.3811 212.816 60.1704 212.816C60.9064 212.816 61.5624 212.656 62.1384 212.336C62.7144 212.005 63.1624 211.536 63.4824 210.928H65.2424C64.8158 211.952 64.1491 212.736 63.2424 213.28C62.3464 213.824 61.3224 214.096 60.1704 214.096C59.1358 214.096 58.1864 213.856 57.3224 213.376C56.4584 212.885 55.7758 212.213 55.2744 211.36C54.7731 210.496 54.5224 209.525 54.5224 208.448C54.5224 207.36 54.7731 206.389 55.2744 205.536C55.7758 204.672 56.4584 204 57.3224 203.52C58.1864 203.04 59.1358 202.8 60.1704 202.8ZM75.1839 205.216V214H73.7279V212.592C73.4399 213.104 73.0453 213.493 72.5439 213.76C72.0426 214.016 71.4826 214.144 70.8639 214.144C70.2346 214.144 69.6586 214.005 69.1359 213.728C68.6239 213.44 68.2133 213.019 67.9039 212.464C67.6053 211.909 67.4559 211.232 67.4559 210.432V205.216H68.8959V210.192C68.8959 211.067 69.1093 211.739 69.5359 212.208C69.9733 212.667 70.5653 212.896 71.3119 212.896C72.0586 212.896 72.6453 212.667 73.0719 212.208C73.5093 211.739 73.7279 211.067 73.7279 210.192V205.216H75.1839ZM79.0388 206.704C79.5615 205.616 80.4521 205.072 81.7108 205.072V206.592H81.3268C80.5801 206.592 80.0095 206.789 79.6148 207.184C79.2308 207.568 79.0388 208.24 79.0388 209.2V214H77.5828V205.216H79.0388V206.704ZM84.9294 206.704C85.4521 205.616 86.3428 205.072 87.6014 205.072V206.592H87.2174C86.4708 206.592 85.9001 206.789 85.5054 207.184C85.1214 207.568 84.9294 208.24 84.9294 209.2V214H83.4734V205.216H84.9294V206.704ZM97.3321 209.248C97.3321 209.557 97.3107 209.845 97.2681 210.112H90.2761C90.3187 210.987 90.5907 211.68 91.0921 212.192C91.6041 212.693 92.2547 212.944 93.0441 212.944C93.6414 212.944 94.1427 212.811 94.5481 212.544C94.9641 212.277 95.2681 211.925 95.4601 211.488H97.0281C96.7507 212.256 96.2707 212.891 95.5881 213.392C94.9161 213.893 94.0681 214.144 93.0441 214.144C92.2227 214.144 91.4867 213.957 90.8361 213.584C90.1961 213.211 89.6947 212.683 89.3321 212C88.9694 211.307 88.7881 210.512 88.7881 209.616C88.7881 208.709 88.9694 207.915 89.3321 207.232C89.6947 206.539 90.2067 206.005 90.8681 205.632C91.5294 205.259 92.2921 205.072 93.1561 205.072C93.9774 205.072 94.7027 205.253 95.3321 205.616C95.9614 205.979 96.4521 206.475 96.8041 207.104C97.1561 207.733 97.3321 208.448 97.3321 209.248ZM95.8121 209.056C95.8121 208.491 95.6894 208 95.4441 207.584C95.1987 207.157 94.8627 206.832 94.4361 206.608C94.0201 206.384 93.5561 206.272 93.0441 206.272C92.2867 206.272 91.6521 206.523 91.1401 207.024C90.6281 207.515 90.3454 208.192 90.2921 209.056H95.8121ZM103.465 205.072C104.095 205.072 104.665 205.216 105.177 205.504C105.7 205.781 106.111 206.203 106.409 206.768C106.719 207.323 106.873 208 106.873 208.8V214H105.433V209.04C105.433 208.155 105.22 207.483 104.793 207.024C104.367 206.565 103.775 206.336 103.017 206.336C102.271 206.336 101.679 206.565 101.241 207.024C100.815 207.483 100.601 208.155 100.601 209.04V214H99.1453V205.216H100.601V206.64C100.889 206.128 101.284 205.739 101.785 205.472C102.287 205.205 102.847 205.072 103.465 205.072ZM113.272 212.816V214H111.8C111.054 214 110.483 213.819 110.088 213.456C109.704 213.093 109.512 212.523 109.512 211.744V206.4H108.376V205.216H109.512V203.04H110.984V205.216H113.256V206.4H110.984V211.744C110.984 212.139 111.064 212.416 111.224 212.576C111.384 212.736 111.667 212.816 112.072 212.816H113.272ZM116.336 202.16V214H114.88V202.16H116.336ZM119.331 205.216L122.019 212.32L124.755 205.216H126.259L120.963 218.112H119.459L121.203 213.856L117.731 205.216H119.331ZM133.034 205.216L135.722 212.32L138.458 205.216H139.962L134.666 218.112H133.162L134.906 213.856L131.434 205.216H133.034ZM145.204 205.072C146.036 205.072 146.788 205.259 147.46 205.632C148.132 206.005 148.66 206.539 149.044 207.232C149.439 207.925 149.636 208.72 149.636 209.616C149.636 210.501 149.434 211.291 149.028 211.984C148.623 212.667 148.074 213.2 147.38 213.584C146.687 213.957 145.919 214.144 145.076 214.144C144.255 214.144 143.514 213.957 142.852 213.584C142.202 213.211 141.69 212.683 141.316 212C140.954 211.307 140.772 210.512 140.772 209.616C140.772 208.709 140.964 207.915 141.348 207.232C141.743 206.539 142.276 206.005 142.948 205.632C143.62 205.259 144.372 205.072 145.204 205.072ZM145.156 206.272C144.623 206.272 144.138 206.4 143.7 206.656C143.263 206.912 142.911 207.291 142.644 207.792C142.388 208.293 142.26 208.901 142.26 209.616C142.26 210.32 142.383 210.923 142.628 211.424C142.884 211.925 143.226 212.304 143.652 212.56C144.079 212.816 144.554 212.944 145.076 212.944C145.61 212.944 146.106 212.816 146.564 212.56C147.034 212.293 147.412 211.909 147.7 211.408C147.988 210.907 148.132 210.309 148.132 209.616C148.132 208.912 147.994 208.309 147.716 207.808C147.45 207.296 147.087 206.912 146.628 206.656C146.18 206.4 145.69 206.272 145.156 206.272ZM159.106 205.216V214H157.65V212.592C157.362 213.104 156.967 213.493 156.466 213.76C155.964 214.016 155.404 214.144 154.786 214.144C154.156 214.144 153.58 214.005 153.058 213.728C152.546 213.44 152.135 213.019 151.826 212.464C151.527 211.909 151.378 211.232 151.378 210.432V205.216H152.818V210.192C152.818 211.067 153.031 211.739 153.458 212.208C153.895 212.667 154.487 212.896 155.234 212.896C155.98 212.896 156.567 212.667 156.994 212.208C157.431 211.739 157.65 211.067 157.65 210.192V205.216H159.106ZM169.918 205.072C170.664 205.072 171.315 205.248 171.87 205.6C172.435 205.952 172.862 206.411 173.15 206.976V202.16H174.622V214H173.15V212.208C172.862 212.784 172.435 213.253 171.87 213.616C171.315 213.968 170.664 214.144 169.918 214.144C169.128 214.144 168.414 213.952 167.774 213.568C167.144 213.173 166.643 212.629 166.27 211.936C165.907 211.232 165.726 210.437 165.726 209.552C165.726 208.667 165.907 207.888 166.27 207.216C166.643 206.533 167.144 206.005 167.774 205.632C168.414 205.259 169.128 205.072 169.918 205.072ZM170.174 206.336C169.651 206.336 169.16 206.464 168.702 206.72C168.254 206.976 167.891 207.349 167.614 207.84C167.347 208.32 167.214 208.891 167.214 209.552C167.214 210.213 167.347 210.8 167.614 211.312C167.891 211.813 168.254 212.203 168.702 212.48C169.16 212.757 169.651 212.896 170.174 212.896C170.707 212.896 171.198 212.763 171.646 212.496C172.104 212.229 172.467 211.851 172.734 211.36C173.011 210.859 173.15 210.277 173.15 209.616C173.15 208.955 173.011 208.379 172.734 207.888C172.467 207.387 172.104 207.003 171.646 206.736C171.198 206.469 170.707 206.336 170.174 206.336ZM180.876 205.072C181.708 205.072 182.46 205.259 183.132 205.632C183.804 206.005 184.332 206.539 184.716 207.232C185.111 207.925 185.308 208.72 185.308 209.616C185.308 210.501 185.106 211.291 184.7 211.984C184.295 212.667 183.746 213.2 183.052 213.584C182.359 213.957 181.591 214.144 180.748 214.144C179.927 214.144 179.186 213.957 178.524 213.584C177.874 213.211 177.362 212.683 176.988 212C176.626 211.307 176.444 210.512 176.444 209.616C176.444 208.709 176.636 207.915 177.02 207.232C177.415 206.539 177.948 206.005 178.62 205.632C179.292 205.259 180.044 205.072 180.876 205.072ZM180.828 206.272C180.295 206.272 179.81 206.4 179.372 206.656C178.935 206.912 178.583 207.291 178.316 207.792C178.06 208.293 177.932 208.901 177.932 209.616C177.932 210.32 178.055 210.923 178.3 211.424C178.556 211.925 178.898 212.304 179.324 212.56C179.751 212.816 180.226 212.944 180.748 212.944C181.282 212.944 181.778 212.816 182.236 212.56C182.706 212.293 183.084 211.909 183.372 211.408C183.66 210.907 183.804 210.309 183.804 209.616C183.804 208.912 183.666 208.309 183.388 207.808C183.122 207.296 182.759 206.912 182.3 206.656C181.852 206.4 181.362 206.272 180.828 206.272ZM191.45 205.072C192.079 205.072 192.65 205.216 193.162 205.504C193.684 205.781 194.095 206.203 194.394 206.768C194.703 207.323 194.858 208 194.858 208.8V214H193.418V209.04C193.418 208.155 193.204 207.483 192.778 207.024C192.351 206.565 191.759 206.336 191.002 206.336C190.255 206.336 189.663 206.565 189.226 207.024C188.799 207.483 188.586 208.155 188.586 209.04V214H187.13V205.216H188.586V206.64C188.874 206.128 189.268 205.739 189.77 205.472C190.271 205.205 190.831 205.072 191.45 205.072ZM197.833 201.472C197.961 202.027 198.025 202.517 198.025 202.944C198.025 203.573 197.886 204.032 197.609 204.32C197.342 204.608 196.942 204.752 196.409 204.752V204.048C196.665 204.048 196.851 203.984 196.969 203.856C197.097 203.717 197.161 203.504 197.161 203.216V202.848H196.377V201.472H197.833ZM203.694 212.816V214H202.222C201.475 214 200.905 213.819 200.51 213.456C200.126 213.093 199.934 212.523 199.934 211.744V206.4H198.798V205.216H199.934V203.04H201.406V205.216H203.678V206.4H201.406V211.744C201.406 212.139 201.486 212.416 201.646 212.576C201.806 212.736 202.089 212.816 202.494 212.816H203.694ZM44.8325 229.072C45.4618 229.072 46.0325 229.216 46.5445 229.504C47.0672 229.781 47.4778 230.203 47.7765 230.768C48.0858 231.323 48.2405 232 48.2405 232.8V238H46.8005V233.04C46.8005 232.155 46.5872 231.483 46.1605 231.024C45.7338 230.565 45.1418 230.336 44.3845 230.336C43.6378 230.336 43.0458 230.565 42.6085 231.024C42.1818 231.483 41.9685 232.155 41.9685 233.04V238H40.5125V226.16H41.9685V230.64C42.2565 230.128 42.6512 229.739 43.1525 229.472C43.6538 229.205 44.2138 229.072 44.8325 229.072ZM54.1754 229.072C54.922 229.072 55.5727 229.248 56.1274 229.6C56.6927 229.952 57.1194 230.411 57.4074 230.976V229.216H58.8794V238H57.4074V236.208C57.1194 236.784 56.6927 237.253 56.1274 237.616C55.5727 237.968 54.922 238.144 54.1754 238.144C53.386 238.144 52.6714 237.952 52.0314 237.568C51.402 237.173 50.9007 236.629 50.5274 235.936C50.1647 235.232 49.9834 234.437 49.9834 233.552C49.9834 232.667 50.1647 231.888 50.5274 231.216C50.9007 230.533 51.402 230.005 52.0314 229.632C52.6714 229.259 53.386 229.072 54.1754 229.072ZM54.4314 230.336C53.9087 230.336 53.418 230.464 52.9594 230.72C52.5114 230.976 52.1487 231.349 51.8714 231.84C51.6047 232.32 51.4714 232.891 51.4714 233.552C51.4714 234.213 51.6047 234.8 51.8714 235.312C52.1487 235.813 52.5114 236.203 52.9594 236.48C53.418 236.757 53.9087 236.896 54.4314 236.896C54.9647 236.896 55.4554 236.763 55.9034 236.496C56.362 236.229 56.7247 235.851 56.9914 235.36C57.2687 234.859 57.4074 234.277 57.4074 233.616C57.4074 232.955 57.2687 232.379 56.9914 231.888C56.7247 231.387 56.362 231.003 55.9034 230.736C55.4554 230.469 54.9647 230.336 54.4314 230.336ZM64.5101 236.64L67.2141 229.216H68.7821L65.3421 238H63.6941L60.2701 229.216H61.8221L64.5101 236.64ZM78.1368 233.248C78.1368 233.557 78.1154 233.845 78.0728 234.112H71.0807C71.1234 234.987 71.3954 235.68 71.8968 236.192C72.4088 236.693 73.0594 236.944 73.8488 236.944C74.4461 236.944 74.9474 236.811 75.3528 236.544C75.7688 236.277 76.0728 235.925 76.2648 235.488H77.8328C77.5554 236.256 77.0754 236.891 76.3928 237.392C75.7208 237.893 74.8728 238.144 73.8488 238.144C73.0274 238.144 72.2914 237.957 71.6408 237.584C71.0008 237.211 70.4994 236.683 70.1368 236C69.7741 235.307 69.5928 234.512 69.5928 233.616C69.5928 232.709 69.7741 231.915 70.1368 231.232C70.4994 230.539 71.0114 230.005 71.6728 229.632C72.3341 229.259 73.0968 229.072 73.9608 229.072C74.7821 229.072 75.5074 229.253 76.1368 229.616C76.7661 229.979 77.2568 230.475 77.6088 231.104C77.9608 231.733 78.1368 232.448 78.1368 233.248ZM76.6168 233.056C76.6168 232.491 76.4941 232 76.2488 231.584C76.0034 231.157 75.6674 230.832 75.2408 230.608C74.8248 230.384 74.3608 230.272 73.8488 230.272C73.0914 230.272 72.4568 230.523 71.9448 231.024C71.4328 231.515 71.1501 232.192 71.0968 233.056H76.6168ZM91.9789 234.896C91.9789 235.451 91.8349 235.973 91.5469 236.464C91.2589 236.955 90.8322 237.355 90.2669 237.664C89.7015 237.963 89.0242 238.112 88.2349 238.112C87.5309 238.112 86.8962 238 86.3309 237.776C85.7655 237.541 85.3175 237.211 84.9869 236.784C84.6669 236.347 84.5069 235.829 84.5069 235.232H86.0589C86.1015 235.733 86.2989 236.139 86.6509 236.448C87.0135 236.757 87.5415 236.912 88.2349 236.912C88.9495 236.912 89.5149 236.731 89.9309 236.368C90.3469 236.005 90.5549 235.541 90.5549 234.976C90.5549 234.549 90.4375 234.213 90.2029 233.968C89.9682 233.712 89.6749 233.52 89.3229 233.392C88.9709 233.264 88.5015 233.136 87.9149 233.008C87.1789 232.837 86.5815 232.661 86.1229 232.48C85.6749 232.299 85.2909 232.005 84.9709 231.6C84.6615 231.195 84.5069 230.635 84.5069 229.92C84.5069 229.301 84.6562 228.757 84.9549 228.288C85.2535 227.819 85.6802 227.456 86.2349 227.2C86.8002 226.933 87.4562 226.8 88.2029 226.8C89.2162 226.8 90.0375 227.051 90.6669 227.552C91.3069 228.043 91.6749 228.725 91.7709 229.6H90.1549C90.1122 229.163 89.9042 228.789 89.5309 228.48C89.1682 228.171 88.6775 228.016 88.0589 228.016C87.4295 228.016 86.9175 228.176 86.5229 228.496C86.1282 228.805 85.9309 229.264 85.9309 229.872C85.9309 230.309 86.0482 230.656 86.2829 230.912C86.5175 231.168 86.8055 231.36 87.1469 231.488C87.4989 231.616 87.9842 231.749 88.6029 231.888C89.3282 232.059 89.9149 232.235 90.3629 232.416C90.8109 232.587 91.1895 232.869 91.4989 233.264C91.8189 233.659 91.9789 234.203 91.9789 234.896ZM93.8975 226.816C93.8975 226.539 93.9935 226.304 94.1855 226.112C94.3775 225.92 94.6068 225.824 94.8735 225.824C95.1508 225.824 95.3855 225.92 95.5775 226.112C95.7695 226.304 95.8655 226.539 95.8655 226.816C95.8655 227.093 95.7695 227.328 95.5775 227.52C95.3855 227.712 95.1508 227.808 94.8735 227.808C94.5962 227.808 94.3615 227.712 94.1695 227.52C93.9882 227.328 93.8975 227.093 93.8975 226.816ZM95.5935 229.216V238H94.1375V229.216H95.5935ZM102.077 236.816V238H100.605C99.8582 238 99.2875 237.819 98.8929 237.456C98.5089 237.093 98.3169 236.523 98.3169 235.744V230.4H97.1809V229.216H98.3169V227.04H99.7889V229.216H102.061V230.4H99.7889V235.744C99.7889 236.139 99.8689 236.416 100.029 236.576C100.189 236.736 100.472 236.816 100.877 236.816H102.077ZM111.652 233.248C111.652 233.557 111.631 233.845 111.588 234.112H104.596C104.639 234.987 104.911 235.68 105.412 236.192C105.924 236.693 106.575 236.944 107.364 236.944C107.962 236.944 108.463 236.811 108.868 236.544C109.284 236.277 109.588 235.925 109.78 235.488H111.348C111.071 236.256 110.591 236.891 109.908 237.392C109.236 237.893 108.388 238.144 107.364 238.144C106.543 238.144 105.807 237.957 105.156 237.584C104.516 237.211 104.015 236.683 103.652 236C103.29 235.307 103.108 234.512 103.108 233.616C103.108 232.709 103.29 231.915 103.652 231.232C104.015 230.539 104.527 230.005 105.188 229.632C105.85 229.259 106.612 229.072 107.476 229.072C108.298 229.072 109.023 229.253 109.652 229.616C110.282 229.979 110.772 230.475 111.124 231.104C111.476 231.733 111.652 232.448 111.652 233.248ZM110.132 233.056C110.132 232.491 110.01 232 109.764 231.584C109.519 231.157 109.183 230.832 108.756 230.608C108.34 230.384 107.876 230.272 107.364 230.272C106.607 230.272 105.972 230.523 105.46 231.024C104.948 231.515 104.666 232.192 104.612 233.056H110.132ZM116.49 229.072C117.439 229.072 118.191 229.323 118.746 229.824C119.3 230.315 119.604 230.992 119.658 231.856H118.154C118.132 231.365 117.967 230.971 117.658 230.672C117.348 230.373 116.922 230.224 116.378 230.224C115.823 230.224 115.386 230.357 115.066 230.624C114.756 230.88 114.602 231.205 114.602 231.6C114.602 231.931 114.698 232.197 114.89 232.4C115.092 232.592 115.338 232.736 115.626 232.832C115.924 232.928 116.324 233.029 116.826 233.136C117.466 233.285 117.978 233.435 118.362 233.584C118.756 233.723 119.092 233.963 119.37 234.304C119.647 234.635 119.786 235.088 119.786 235.664C119.786 236.144 119.647 236.576 119.37 236.96C119.092 237.333 118.703 237.627 118.202 237.84C117.7 238.043 117.124 238.144 116.474 238.144C115.492 238.144 114.703 237.899 114.106 237.408C113.519 236.917 113.199 236.24 113.146 235.376H114.65C114.671 235.867 114.842 236.261 115.162 236.56C115.492 236.848 115.93 236.992 116.474 236.992C117.071 236.992 117.53 236.869 117.85 236.624C118.18 236.379 118.346 236.053 118.346 235.648C118.346 235.317 118.244 235.056 118.042 234.864C117.85 234.661 117.604 234.512 117.306 234.416C117.007 234.309 116.596 234.197 116.074 234.08C115.444 233.941 114.932 233.803 114.538 233.664C114.154 233.515 113.823 233.285 113.546 232.976C113.279 232.667 113.146 232.24 113.146 231.696C113.146 231.216 113.279 230.779 113.546 230.384C113.823 229.979 114.212 229.659 114.714 229.424C115.226 229.189 115.818 229.072 116.49 229.072ZM122.799 236.928C122.938 237.493 123.008 238.011 123.008 238.48C123.008 239.685 122.458 240.288 121.36 240.288V239.584C121.626 239.584 121.818 239.52 121.936 239.392C122.064 239.264 122.128 239.061 122.128 238.784V238.416H121.312V236.928H122.799ZM134.357 229.072C135.146 229.072 135.856 229.259 136.485 229.632C137.125 230.005 137.626 230.533 137.989 231.216C138.362 231.888 138.549 232.667 138.549 233.552C138.549 234.437 138.362 235.232 137.989 235.936C137.626 236.629 137.125 237.173 136.485 237.568C135.856 237.952 135.146 238.144 134.357 238.144C133.61 238.144 132.954 237.968 132.389 237.616C131.834 237.253 131.408 236.784 131.109 236.208V242.16H129.653V229.216H131.109V230.976C131.408 230.411 131.834 229.952 132.389 229.6C132.954 229.248 133.61 229.072 134.357 229.072ZM134.069 230.336C133.546 230.336 133.056 230.469 132.597 230.736C132.149 231.003 131.786 231.387 131.509 231.888C131.242 232.379 131.109 232.955 131.109 233.616C131.109 234.277 131.242 234.859 131.509 235.36C131.786 235.851 132.149 236.229 132.597 236.496C133.056 236.763 133.546 236.896 134.069 236.896C134.592 236.896 135.082 236.763 135.541 236.496C136 236.219 136.362 235.824 136.629 235.312C136.906 234.8 137.045 234.213 137.045 233.552C137.045 232.891 136.906 232.32 136.629 231.84C136.362 231.349 136 230.976 135.541 230.72C135.093 230.464 134.602 230.336 134.069 230.336ZM141.828 226.16V238H140.372V226.16H141.828ZM152.199 233.248C152.199 233.557 152.178 233.845 152.135 234.112H145.143C145.186 234.987 145.458 235.68 145.959 236.192C146.471 236.693 147.122 236.944 147.911 236.944C148.509 236.944 149.01 236.811 149.415 236.544C149.831 236.277 150.135 235.925 150.327 235.488H151.895C151.618 236.256 151.138 236.891 150.455 237.392C149.783 237.893 148.935 238.144 147.911 238.144C147.09 238.144 146.354 237.957 145.703 237.584C145.063 237.211 144.562 236.683 144.199 236C143.837 235.307 143.655 234.512 143.655 233.616C143.655 232.709 143.837 231.915 144.199 231.232C144.562 230.539 145.074 230.005 145.735 229.632C146.397 229.259 147.159 229.072 148.023 229.072C148.845 229.072 149.57 229.253 150.199 229.616C150.829 229.979 151.319 230.475 151.671 231.104C152.023 231.733 152.199 232.448 152.199 233.248ZM150.679 233.056C150.679 232.491 150.557 232 150.311 231.584C150.066 231.157 149.73 230.832 149.303 230.608C148.887 230.384 148.423 230.272 147.911 230.272C147.154 230.272 146.519 230.523 146.007 231.024C145.495 231.515 145.213 232.192 145.159 233.056H150.679ZM157.629 229.072C158.375 229.072 159.026 229.248 159.581 229.6C160.146 229.952 160.573 230.411 160.861 230.976V229.216H162.333V238H160.861V236.208C160.573 236.784 160.146 237.253 159.581 237.616C159.026 237.968 158.375 238.144 157.629 238.144C156.839 238.144 156.125 237.952 155.485 237.568C154.855 237.173 154.354 236.629 153.981 235.936C153.618 235.232 153.437 234.437 153.437 233.552C153.437 232.667 153.618 231.888 153.981 231.216C154.354 230.533 154.855 230.005 155.485 229.632C156.125 229.259 156.839 229.072 157.629 229.072ZM157.885 230.336C157.362 230.336 156.871 230.464 156.413 230.72C155.965 230.976 155.602 231.349 155.325 231.84C155.058 232.32 154.924 232.891 154.924 233.552C154.924 234.213 155.058 234.8 155.325 235.312C155.602 235.813 155.965 236.203 156.413 236.48C156.871 236.757 157.362 236.896 157.885 236.896C158.418 236.896 158.909 236.763 159.357 236.496C159.815 236.229 160.178 235.851 160.445 235.36C160.722 234.859 160.861 234.277 160.861 233.616C160.861 232.955 160.722 232.379 160.445 231.888C160.178 231.387 159.815 231.003 159.357 230.736C158.909 230.469 158.418 230.336 157.885 230.336ZM167.755 229.072C168.705 229.072 169.457 229.323 170.011 229.824C170.566 230.315 170.87 230.992 170.923 231.856H169.419C169.398 231.365 169.233 230.971 168.923 230.672C168.614 230.373 168.187 230.224 167.643 230.224C167.089 230.224 166.651 230.357 166.331 230.624C166.022 230.88 165.867 231.205 165.867 231.6C165.867 231.931 165.963 232.197 166.155 232.4C166.358 232.592 166.603 232.736 166.891 232.832C167.19 232.928 167.59 233.029 168.091 233.136C168.731 233.285 169.243 233.435 169.627 233.584C170.022 233.723 170.358 233.963 170.635 234.304C170.913 234.635 171.051 235.088 171.051 235.664C171.051 236.144 170.913 236.576 170.635 236.96C170.358 237.333 169.969 237.627 169.467 237.84C168.966 238.043 168.39 238.144 167.739 238.144C166.758 238.144 165.969 237.899 165.371 237.408C164.785 236.917 164.465 236.24 164.411 235.376H165.915C165.937 235.867 166.107 236.261 166.427 236.56C166.758 236.848 167.195 236.992 167.739 236.992C168.337 236.992 168.795 236.869 169.115 236.624C169.446 236.379 169.611 236.053 169.611 235.648C169.611 235.317 169.51 235.056 169.307 234.864C169.115 234.661 168.87 234.512 168.571 234.416C168.273 234.309 167.862 234.197 167.339 234.08C166.71 233.941 166.198 233.803 165.803 233.664C165.419 233.515 165.089 233.285 164.811 232.976C164.545 232.667 164.411 232.24 164.411 231.696C164.411 231.216 164.545 230.779 164.811 230.384C165.089 229.979 165.478 229.659 165.979 229.424C166.491 229.189 167.083 229.072 167.755 229.072ZM181.121 233.248C181.121 233.557 181.1 233.845 181.057 234.112H174.065C174.108 234.987 174.38 235.68 174.881 236.192C175.393 236.693 176.044 236.944 176.833 236.944C177.43 236.944 177.932 236.811 178.337 236.544C178.753 236.277 179.057 235.925 179.249 235.488H180.817C180.54 236.256 180.06 236.891 179.377 237.392C178.705 237.893 177.857 238.144 176.833 238.144C176.012 238.144 175.276 237.957 174.625 237.584C173.985 237.211 173.484 236.683 173.121 236C172.758 235.307 172.577 234.512 172.577 233.616C172.577 232.709 172.758 231.915 173.121 231.232C173.484 230.539 173.996 230.005 174.657 229.632C175.318 229.259 176.081 229.072 176.945 229.072C177.766 229.072 178.492 229.253 179.121 229.616C179.75 229.979 180.241 230.475 180.593 231.104C180.945 231.733 181.121 232.448 181.121 233.248ZM179.601 233.056C179.601 232.491 179.478 232 179.233 231.584C178.988 231.157 178.652 230.832 178.225 230.608C177.809 230.384 177.345 230.272 176.833 230.272C176.076 230.272 175.441 230.523 174.929 231.024C174.417 231.515 174.134 232.192 174.081 233.056H179.601ZM191.347 229.072C192.094 229.072 192.745 229.248 193.299 229.6C193.865 229.952 194.291 230.411 194.579 230.976V229.216H196.051V238H194.579V236.208C194.291 236.784 193.865 237.253 193.299 237.616C192.745 237.968 192.094 238.144 191.347 238.144C190.558 238.144 189.843 237.952 189.203 237.568C188.574 237.173 188.073 236.629 187.699 235.936C187.337 235.232 187.155 234.437 187.155 233.552C187.155 232.667 187.337 231.888 187.699 231.216C188.073 230.533 188.574 230.005 189.203 229.632C189.843 229.259 190.558 229.072 191.347 229.072ZM191.603 230.336C191.081 230.336 190.59 230.464 190.131 230.72C189.683 230.976 189.321 231.349 189.043 231.84C188.777 232.32 188.643 232.891 188.643 233.552C188.643 234.213 188.777 234.8 189.043 235.312C189.321 235.813 189.683 236.203 190.131 236.48C190.59 236.757 191.081 236.896 191.603 236.896C192.137 236.896 192.627 236.763 193.075 236.496C193.534 236.229 193.897 235.851 194.163 235.36C194.441 234.859 194.579 234.277 194.579 233.616C194.579 232.955 194.441 232.379 194.163 231.888C193.897 231.387 193.534 231.003 193.075 230.736C192.627 230.469 192.137 230.336 191.603 230.336ZM202.066 229.072C202.813 229.072 203.463 229.248 204.018 229.6C204.583 229.952 205.01 230.411 205.298 230.976V226.16H206.77V238H205.298V236.208C205.01 236.784 204.583 237.253 204.018 237.616C203.463 237.968 202.813 238.144 202.066 238.144C201.277 238.144 200.562 237.952 199.922 237.568C199.293 237.173 198.791 236.629 198.418 235.936C198.055 235.232 197.874 234.437 197.874 233.552C197.874 232.667 198.055 231.888 198.418 231.216C198.791 230.533 199.293 230.005 199.922 229.632C200.562 229.259 201.277 229.072 202.066 229.072ZM202.322 230.336C201.799 230.336 201.309 230.464 200.85 230.72C200.402 230.976 200.039 231.349 199.762 231.84C199.495 232.32 199.362 232.891 199.362 233.552C199.362 234.213 199.495 234.8 199.762 235.312C200.039 235.813 200.402 236.203 200.85 236.48C201.309 236.757 201.799 236.896 202.322 236.896C202.855 236.896 203.346 236.763 203.794 236.496C204.253 236.229 204.615 235.851 204.882 235.36C205.159 234.859 205.298 234.277 205.298 233.616C205.298 232.955 205.159 232.379 204.882 231.888C204.615 231.387 204.253 231.003 203.794 230.736C203.346 230.469 202.855 230.336 202.322 230.336ZM212.785 229.072C213.531 229.072 214.182 229.248 214.737 229.6C215.302 229.952 215.729 230.411 216.017 230.976V226.16H217.489V238H216.017V236.208C215.729 236.784 215.302 237.253 214.737 237.616C214.182 237.968 213.531 238.144 212.785 238.144C211.995 238.144 211.281 237.952 210.641 237.568C210.011 237.173 209.51 236.629 209.137 235.936C208.774 235.232 208.593 234.437 208.593 233.552C208.593 232.667 208.774 231.888 209.137 231.216C209.51 230.533 210.011 230.005 210.641 229.632C211.281 229.259 211.995 229.072 212.785 229.072ZM213.041 230.336C212.518 230.336 212.027 230.464 211.569 230.72C211.121 230.976 210.758 231.349 210.481 231.84C210.214 232.32 210.081 232.891 210.081 233.552C210.081 234.213 210.214 234.8 210.481 235.312C210.758 235.813 211.121 236.203 211.569 236.48C212.027 236.757 212.518 236.896 213.041 236.896C213.574 236.896 214.065 236.763 214.513 236.496C214.971 236.229 215.334 235.851 215.601 235.36C215.878 234.859 216.017 234.277 216.017 233.616C216.017 232.955 215.878 232.379 215.601 231.888C215.334 231.387 214.971 231.003 214.513 230.736C214.065 230.469 213.574 230.336 213.041 230.336ZM118.862 259.896C118.862 260.451 118.718 260.973 118.43 261.464C118.142 261.955 117.715 262.355 117.15 262.664C116.584 262.963 115.907 263.112 115.118 263.112C114.414 263.112 113.779 263 113.214 262.776C112.648 262.541 112.2 262.211 111.87 261.784C111.55 261.347 111.39 260.829 111.39 260.232H112.942C112.984 260.733 113.182 261.139 113.534 261.448C113.896 261.757 114.424 261.912 115.118 261.912C115.832 261.912 116.398 261.731 116.814 261.368C117.23 261.005 117.438 260.541 117.438 259.976C117.438 259.549 117.32 259.213 117.086 258.968C116.851 258.712 116.558 258.52 116.206 258.392C115.854 258.264 115.384 258.136 114.798 258.008C114.062 257.837 113.464 257.661 113.006 257.48C112.558 257.299 112.174 257.005 111.854 256.6C111.544 256.195 111.39 255.635 111.39 254.92C111.39 254.301 111.539 253.757 111.838 253.288C112.136 252.819 112.563 252.456 113.118 252.2C113.683 251.933 114.339 251.8 115.086 251.8C116.099 251.8 116.92 252.051 117.55 252.552C118.19 253.043 118.558 253.725 118.654 254.6H117.038C116.995 254.163 116.787 253.789 116.414 253.48C116.051 253.171 115.56 253.016 114.942 253.016C114.312 253.016 113.8 253.176 113.406 253.496C113.011 253.805 112.814 254.264 112.814 254.872C112.814 255.309 112.931 255.656 113.166 255.912C113.4 256.168 113.688 256.36 114.03 256.488C114.382 256.616 114.867 256.749 115.486 256.888C116.211 257.059 116.798 257.235 117.246 257.416C117.694 257.587 118.072 257.869 118.382 258.264C118.702 258.659 118.862 259.203 118.862 259.896ZM120.78 251.816C120.78 251.539 120.876 251.304 121.068 251.112C121.26 250.92 121.49 250.824 121.756 250.824C122.034 250.824 122.268 250.92 122.46 251.112C122.652 251.304 122.748 251.539 122.748 251.816C122.748 252.093 122.652 252.328 122.46 252.52C122.268 252.712 122.034 252.808 121.756 252.808C121.479 252.808 121.244 252.712 121.052 252.52C120.871 252.328 120.78 252.093 120.78 251.816ZM122.476 254.216V263H121.02V254.216H122.476ZM128.96 261.816V263H127.488C126.741 263 126.17 262.819 125.776 262.456C125.392 262.093 125.2 261.523 125.2 260.744V255.4H124.064V254.216H125.2V252.04H126.672V254.216H128.944V255.4H126.672V260.744C126.672 261.139 126.752 261.416 126.912 261.576C127.072 261.736 127.354 261.816 127.76 261.816H128.96ZM138.535 258.248C138.535 258.557 138.514 258.845 138.471 259.112H131.479C131.522 259.987 131.794 260.68 132.295 261.192C132.807 261.693 133.458 261.944 134.247 261.944C134.845 261.944 135.346 261.811 135.751 261.544C136.167 261.277 136.471 260.925 136.663 260.488H138.231C137.954 261.256 137.474 261.891 136.791 262.392C136.119 262.893 135.271 263.144 134.247 263.144C133.426 263.144 132.69 262.957 132.039 262.584C131.399 262.211 130.898 261.683 130.535 261C130.173 260.307 129.991 259.512 129.991 258.616C129.991 257.709 130.173 256.915 130.535 256.232C130.898 255.539 131.41 255.005 132.071 254.632C132.733 254.259 133.495 254.072 134.359 254.072C135.181 254.072 135.906 254.253 136.535 254.616C137.165 254.979 137.655 255.475 138.007 256.104C138.359 256.733 138.535 257.448 138.535 258.248ZM137.015 258.056C137.015 257.491 136.893 257 136.647 256.584C136.402 256.157 136.066 255.832 135.639 255.608C135.223 255.384 134.759 255.272 134.247 255.272C133.49 255.272 132.855 255.523 132.343 256.024C131.831 256.515 131.549 257.192 131.495 258.056H137.015ZM143.372 254.072C144.322 254.072 145.074 254.323 145.628 254.824C146.183 255.315 146.487 255.992 146.54 256.856H145.036C145.015 256.365 144.85 255.971 144.54 255.672C144.231 255.373 143.804 255.224 143.26 255.224C142.706 255.224 142.268 255.357 141.948 255.624C141.639 255.88 141.484 256.205 141.484 256.6C141.484 256.931 141.58 257.197 141.772 257.4C141.975 257.592 142.22 257.736 142.508 257.832C142.807 257.928 143.207 258.029 143.708 258.136C144.348 258.285 144.86 258.435 145.244 258.584C145.639 258.723 145.975 258.963 146.252 259.304C146.53 259.635 146.668 260.088 146.668 260.664C146.668 261.144 146.53 261.576 146.252 261.96C145.975 262.333 145.586 262.627 145.084 262.84C144.583 263.043 144.007 263.144 143.356 263.144C142.375 263.144 141.586 262.899 140.988 262.408C140.402 261.917 140.082 261.24 140.028 260.376H141.532C141.554 260.867 141.724 261.261 142.044 261.56C142.375 261.848 142.812 261.992 143.356 261.992C143.954 261.992 144.412 261.869 144.732 261.624C145.063 261.379 145.228 261.053 145.228 260.648C145.228 260.317 145.127 260.056 144.924 259.864C144.732 259.661 144.487 259.512 144.188 259.416C143.89 259.309 143.479 259.197 142.956 259.08C142.327 258.941 141.815 258.803 141.42 258.664C141.036 258.515 140.706 258.285 140.428 257.976C140.162 257.667 140.028 257.24 140.028 256.696C140.028 256.216 140.162 255.779 140.428 255.384C140.706 254.979 141.095 254.659 141.596 254.424C142.108 254.189 142.7 254.072 143.372 254.072Z" fill="black"/>
<path d="M112.5 130H109.5V133H112.5V130Z" fill="white"/>
<path d="M118.5 130H115.5V133H118.5V130Z" fill="white"/>
<path d="M124.5 130H121.5V133H124.5V130Z" fill="white"/>
<path d="M112.5 136H109.5V139H112.5V136Z" fill="white"/>
<path d="M118.5 136H115.5V139H118.5V136Z" fill="white"/>
<path d="M124.5 136H121.5V139H124.5V136Z" fill="white"/>
<path d="M130.5 136H127.5V139H130.5V136Z" fill="white"/>
<path d="M136.5 136H133.5V139H136.5V136Z" fill="white"/>
<path d="M112.5 142H109.5V145H112.5V142Z" fill="white"/>
<path d="M118.5 142H115.5V145H118.5V142Z" fill="white"/>
<path d="M124.5 142H121.5V145H124.5V142Z" fill="white"/>
<path d="M130.5 142H127.5V145H130.5V142Z" fill="white"/>
<path d="M136.5 142H133.5V145H136.5V142Z" fill="white"/>
<path d="M112.5 148H109.5V151H112.5V148Z" fill="white"/>
<path d="M118.5 148H115.5V151H118.5V148Z" fill="white"/>
<path d="M124.5 148H121.5V151H124.5V148Z" fill="white"/>
<path d="M130.5 148H127.5V151H130.5V148Z" fill="white"/>
<path d="M136.5 148H133.5V151H136.5V148Z" fill="white"/>
<path d="M112.5 154H109.5V157H112.5V154Z" fill="white"/>
<path d="M118.5 154H115.5V157H118.5V154Z" fill="white"/>
<path d="M124.5 154H121.5V157H124.5V154Z" fill="white"/>
<path d="M130.5 154H127.5V157H130.5V154Z" fill="white"/>
<path d="M136.5 154H133.5V157H136.5V154Z" fill="white"/>
<path d="M112.5 160H109.5V163H112.5V160Z" fill="white"/>
<path d="M118.5 160H115.5V163H118.5V160Z" fill="white"/>
<path d="M124.5 160H121.5V163H124.5V160Z" fill="white"/>
<path d="M130.5 160H127.5V163H130.5V160Z" fill="white"/>
<path d="M136.5 160H133.5V163H136.5V160Z" fill="white"/>
<path d="M172.499 83.5H161.999V80.5C161.999 80.1022 161.841 79.7206 161.56 79.4393C161.279 79.158 160.897 79 160.499 79H145.5C145.102 79 144.72 79.158 144.439 79.4393C144.158 79.7206 144 80.1022 144 80.5V83.5H85.5C85.1022 83.5 84.7206 83.658 84.4393 83.9393C84.158 84.2206 84 84.6022 84 85V91C84 91.3978 84.158 91.7794 84.4393 92.0607C84.7206 92.342 85.1022 92.5 85.5 92.5H90V121C90 121.398 90.158 121.779 90.4393 122.061C90.7206 122.342 91.1021 122.5 91.4999 122.5C91.7966 122.5 92.0866 122.588 92.3333 122.753C92.58 122.918 92.7722 123.152 92.8858 123.426C92.9993 123.7 93.029 124.002 92.9711 124.293C92.9132 124.584 92.7704 124.851 92.5606 125.061C92.3508 125.27 92.0835 125.413 91.7926 125.471C91.5016 125.529 91.2 125.499 90.9259 125.386C90.6518 125.272 90.4176 125.08 90.2528 124.833C90.0879 124.587 90 124.297 90 124H87C87.0042 125.098 87.4127 126.156 88.1475 126.971L84.3 132.1L84.3195 132.115C84.119 132.367 84.0068 132.678 84 133V139C84.0001 139.398 84.1582 139.779 84.4395 140.061L87.4395 143.061C87.7207 143.342 88.1022 143.5 88.5 143.5H94.4999C94.8977 143.5 95.2792 143.342 95.5604 143.061L98.5604 140.061C98.8417 139.779 98.9998 139.398 98.9999 139V133C98.9931 132.678 98.8809 132.367 98.6804 132.115L98.6999 132.1L94.8524 126.971C95.3455 126.423 95.6954 125.762 95.8711 125.046C96.0468 124.33 96.0428 123.582 95.8594 122.868C95.6761 122.154 95.3191 121.496 94.8202 120.953C94.3213 120.41 93.696 119.999 92.9999 119.757V92.5H144V94C144 94.3978 144.158 94.7794 144.439 95.0607C144.72 95.342 145.102 95.5 145.5 95.5H148.5V166H142.5V106H139.5V112H130.5V109H127.5V112H118.5V110.5H115.5V112H106.5V107.5H126V104.5H106.5V98.5H103.5V166H101.121L94.0604 158.939C93.7791 158.658 93.3977 158.5 92.9999 158.5C92.6022 158.5 92.2207 158.658 91.9394 158.939L84.879 166H84V169H173.999V166H172.829C173.348 165.433 173.712 164.742 173.885 163.993C174.058 163.245 174.035 162.464 173.818 161.727C173.601 160.99 173.197 160.322 172.645 159.787C172.093 159.252 171.413 158.869 170.669 158.674C170.946 157.991 171.052 157.25 170.975 156.517C170.899 155.783 170.644 155.08 170.232 154.469C169.82 153.857 169.264 153.356 168.613 153.01C167.963 152.664 167.237 152.483 166.499 152.483C165.762 152.483 165.036 152.664 164.385 153.01C163.735 153.356 163.179 153.857 162.767 154.469C162.355 155.08 162.1 155.783 162.024 156.517C161.947 157.25 162.052 157.991 162.329 158.674C161.586 158.869 160.906 159.252 160.354 159.787C159.802 160.322 159.398 160.99 159.181 161.727C158.964 162.464 158.94 163.245 159.114 163.993C159.287 164.742 159.651 165.433 160.169 166H157.499V95.5H160.499C160.897 95.5 161.279 95.342 161.56 95.0607C161.841 94.7794 161.999 94.3978 161.999 94V92.5H172.499C172.897 92.5 173.279 92.342 173.56 92.0607C173.841 91.7794 173.999 91.3978 173.999 91V85C173.999 84.6022 173.841 84.2206 173.56 83.9393C173.279 83.658 172.897 83.5 172.499 83.5ZM92.2499 128.5L94.4999 131.5H88.5L90.75 128.5H92.2499ZM95.9999 138.379L93.8789 140.5H89.121L87 138.379V134.5H95.9999V138.379ZM166.049 86.5L161.999 89.2V86.5H166.049ZM147 82H153V88H147V82ZM106.5 86.8L110.55 89.5H102.45L106.5 86.8ZM97.4999 89.2L93.4499 86.5H101.55L97.4999 89.2ZM111.45 86.5H119.55L115.5 89.2L111.45 86.5ZM124.5 86.8L128.55 89.5H120.45L124.5 86.8ZM129.45 86.5H137.55L133.5 89.2L129.45 86.5ZM87 86.5H88.05L92.5499 89.5H87V86.5ZM138.45 89.5L142.95 86.5H144V89.5H138.45ZM154.499 161.05L151.8 157L154.499 152.95V161.05ZM154.499 125.05L151.8 121L154.499 116.95V125.05ZM151.5 125.95L154.199 130L151.5 134.05V125.95ZM151.5 116.05V107.95L154.199 112L151.5 116.05ZM151.5 143.95L154.199 148L151.5 152.05V143.95ZM154.499 143.041L151.8 139L154.499 134.95V143.041ZM151.8 103L154.499 98.95V107.05L151.8 103ZM151.5 98.05V95.5H153.198L151.5 98.05ZM139.5 115V130H130.5V115H139.5ZM127.5 115V127.9L124.05 124.491C123.77 124.214 123.393 124.058 123 124.057H118.5V115H127.5ZM115.5 115V117.5H106.5V115H115.5ZM92.9999 162.121L96.8789 166H89.121L92.9999 162.121ZM106.5 166V120.5H115.5V125.563C115.5 125.961 115.658 126.342 115.939 126.624C116.22 126.905 116.602 127.063 117 127.063H122.383L127.95 132.566C128.229 132.843 128.606 132.999 129 133H139.5V166H106.5ZM151.5 161.95L154.199 166H151.5V161.95ZM169.499 164.5C169.203 164.5 168.913 164.412 168.666 164.247C168.419 164.082 168.227 163.848 168.114 163.574C168 163.3 167.97 162.998 168.028 162.707C168.086 162.416 168.229 162.149 168.439 161.939C168.649 161.73 168.916 161.587 169.207 161.529C169.498 161.471 169.799 161.501 170.073 161.614C170.347 161.728 170.582 161.92 170.747 162.167C170.911 162.413 170.999 162.703 170.999 163C170.999 163.398 170.841 163.779 170.56 164.061C170.279 164.342 169.897 164.5 169.499 164.5ZM166.499 155.5C166.796 155.5 167.086 155.588 167.333 155.753C167.579 155.918 167.772 156.152 167.885 156.426C167.999 156.7 168.028 157.002 167.971 157.293C167.913 157.584 167.77 157.851 167.56 158.061C167.35 158.27 167.083 158.413 166.792 158.471C166.501 158.529 166.199 158.499 165.925 158.386C165.651 158.272 165.417 158.08 165.252 157.833C165.087 157.587 164.999 157.297 164.999 157C164.999 156.602 165.157 156.221 165.439 155.939C165.72 155.658 166.102 155.5 166.499 155.5ZM163.499 161.5C163.796 161.5 164.086 161.588 164.333 161.753C164.579 161.918 164.772 162.152 164.885 162.426C164.999 162.7 165.028 163.002 164.971 163.293C164.913 163.584 164.77 163.851 164.56 164.061C164.35 164.27 164.083 164.413 163.792 164.471C163.501 164.529 163.2 164.499 162.925 164.386C162.651 164.272 162.417 164.08 162.252 163.833C162.087 163.587 161.999 163.297 161.999 163C161.999 162.602 162.157 162.221 162.439 161.939C162.72 161.658 163.102 161.5 163.499 161.5ZM158.999 92.5H147V91H154.499C154.897 91 155.279 90.842 155.56 90.5607C155.841 90.2794 155.999 89.8978 155.999 89.5V82H158.999V92.5ZM166.949 89.5L170.999 86.8V89.5H166.949Z" fill="white"/>
</svg>
