<svg width="22" height="22" viewBox="0 0 22 22" fill="none" xmlns="http://www.w3.org/2000/svg">
<path d="M13.9408 9.46773H16.6489C16.8799 9.46773 17.0869 9.29714 17.0869 9.05926V6.8821C17.0869 6.64422 16.8799 6.47363 16.6489 6.47363H13.9408C13.7098 6.47363 13.5028 6.64422 13.5028 6.8821V9.05926C13.5028 9.29714 13.7098 9.46773 13.9408 9.46773ZM14.3788 7.29056H16.2109V8.6508H14.3788V7.29056Z" fill="#DE0C0C" stroke="#DE0C0C" stroke-width="0.25"/>
<path d="M13.9408 13.1835H16.6489C16.8799 13.1835 17.0869 13.013 17.0869 12.7751V10.5979C17.0869 10.36 16.8799 10.1895 16.6489 10.1895H13.9408C13.7098 10.1895 13.5028 10.36 13.5028 10.5979V12.7751C13.5028 13.013 13.7098 13.1835 13.9408 13.1835ZM14.3788 11.0064H16.2109V12.3706H14.3788V11.0064Z" fill="#DE0C0C" stroke="#DE0C0C" stroke-width="0.25"/>
<path d="M8.05502 6.47363H5.34691C5.11594 6.47363 4.90894 6.64422 4.90894 6.8821V9.05926C4.90894 9.29714 5.11594 9.46773 5.34691 9.46773H8.05502C8.28599 9.46773 8.49299 9.29714 8.49299 9.05926V6.8821C8.49299 6.64422 8.28599 6.47363 8.05502 6.47363ZM7.61704 8.6508H5.78489V7.29056H7.61704V8.6508Z" fill="#DE0C0C" stroke="#DE0C0C" stroke-width="0.25"/>
<path d="M8.05502 10.1943H5.34691C5.11594 10.1943 4.90894 10.3649 4.90894 10.6028V12.78C4.90894 13.0178 5.11594 13.1884 5.34691 13.1884H8.05502C8.28599 13.1884 8.49299 13.0178 8.49299 12.78V10.6028C8.49299 10.3649 8.28599 10.1943 8.05502 10.1943ZM7.61704 12.3715H5.78489V11.0073H7.61704V12.3715Z" fill="#DE0C0C" stroke="#DE0C0C" stroke-width="0.25"/>
<path d="M20.2404 20.3081H1.7466V19.2352H9.11997H12.867H20.2404V20.3081ZM20.6827 3.57776C20.9137 3.57776 21.1207 3.40717 21.1207 3.16929V1.28346C21.1207 1.04559 20.9137 0.875 20.6827 0.875H1.31298C1.082 0.875 0.875 1.04559 0.875 1.28346V3.16929C0.875 3.40717 1.082 3.57776 1.31298 3.57776H2.59636V5.04331V18.4222H1.31298C1.082 18.4222 0.875 18.5928 0.875 18.8307V20.7165C0.875 20.9544 1.082 21.125 1.31298 21.125H20.687C20.918 21.125 21.125 20.9544 21.125 20.7165V18.8307C21.125 18.5928 20.918 18.4222 20.687 18.4222H19.4036V3.57776H20.6827ZM9.5623 18.4222V14.436H12.4377V18.4222H9.5623ZM12.8713 13.6191H9.12432C8.89335 13.6191 8.68635 13.7897 8.68635 14.0276V18.4183H3.46797V5.45177H15.0361C15.2671 5.45177 15.4741 5.28118 15.4741 5.04331C15.4741 4.80543 15.2671 4.63484 15.0361 4.63484H3.46797V3.57776H18.5233V4.63484H17.0878C16.8568 4.63484 16.6498 4.80543 16.6498 5.04331C16.6498 5.28118 16.8568 5.45177 17.0878 5.45177H18.5233V18.4222H13.3093V14.0276C13.3093 13.7947 13.1035 13.6191 12.8713 13.6191ZM1.7466 1.69193H20.2447V2.76476H1.7466V1.69193Z" fill="#DE0C0C" stroke="#DE0C0C" stroke-width="0.25"/>
</svg>
