<svg width="155" height="62" viewBox="0 0 155 62" fill="none" xmlns="http://www.w3.org/2000/svg">
<path d="M54.2452 41.1753V36.6163L74.4105 36.6513C75.4392 36.6513 76.2224 36.4175 76.7601 35.9499C77.3213 35.4589 77.6018 34.6757 77.6018 33.6002C77.6018 32.5248 77.3213 31.7532 76.7601 31.2856C76.2224 30.7946 75.4392 30.5491 74.4105 30.5491H61.8554C59.2602 30.5491 57.2379 29.9296 55.7883 28.6904C54.3621 27.4279 53.649 25.5809 53.649 23.1494C53.649 20.7179 54.3621 18.8825 55.7883 17.6434C57.2379 16.3809 59.2602 15.7496 61.8554 15.7496H81.5647V20.3087L62.4516 20.2736C61.4463 20.2736 60.663 20.5074 60.1019 20.975C59.5408 21.4193 59.2602 22.144 59.2602 23.1494C59.2602 24.1547 59.5408 24.8912 60.1019 25.3588C60.663 25.803 61.4463 26.0251 62.4516 26.0251H75.0067C77.6018 26.0251 79.6125 26.6681 81.0387 27.954C82.4882 29.2165 83.213 31.0986 83.213 33.6002C83.213 36.0785 82.4882 37.9606 81.0387 39.2465C79.6125 40.5324 77.6018 41.1753 75.0067 41.1753H54.2452ZM86.7313 41V15.925H91.4306L103.039 24.0612H103.214L114.822 15.925H119.522V41H113.911V22.939L105.95 28.2696V41H100.338V28.2696L92.3425 22.939V41H86.7313ZM123.632 41.1753V36.6163L143.797 36.6513C144.826 36.6513 145.609 36.4175 146.147 35.9499C146.708 35.4589 146.988 34.6757 146.988 33.6002C146.988 32.5248 146.708 31.7532 146.147 31.2856C145.609 30.7946 144.826 30.5491 143.797 30.5491H131.242C128.647 30.5491 126.624 29.9296 125.175 28.6904C123.749 27.4279 123.036 25.5809 123.036 23.1494C123.036 20.7179 123.749 18.8825 125.175 17.6434C126.624 16.3809 128.647 15.7496 131.242 15.7496H150.951V20.3087L131.838 20.2736C130.833 20.2736 130.05 20.5074 129.488 20.975C128.927 21.4193 128.647 22.144 128.647 23.1494C128.647 24.1547 128.927 24.8912 129.488 25.3588C130.05 25.803 130.833 26.0251 131.838 26.0251H144.393C146.988 26.0251 148.999 26.6681 150.425 27.954C151.875 29.2165 152.6 31.0986 152.6 33.6002C152.6 36.0785 151.875 37.9606 150.425 39.2465C148.999 40.5324 146.988 41.1753 144.393 41.1753H123.632Z" fill="#DE0C0C"/>
<path d="M55.4068 50.9812C55.1412 50.9812 54.8899 50.9498 54.6528 50.887C54.4186 50.8241 54.213 50.7428 54.036 50.6428C53.8589 50.5428 53.7189 50.4386 53.6161 50.3301L54.0531 49.4305C54.1188 49.5162 54.2187 49.6075 54.353 49.7046C54.4872 49.8017 54.64 49.8846 54.8113 49.9531C54.9855 50.0216 55.1583 50.0559 55.3297 50.0559C55.5553 50.0559 55.7438 49.9945 55.8951 49.8717C56.0494 49.7461 56.1265 49.5704 56.1265 49.3448C56.1265 49.1991 56.0908 49.0735 56.0194 48.9678C55.9508 48.8593 55.858 48.7636 55.7409 48.6808C55.6267 48.5951 55.4496 48.4795 55.2097 48.3338C54.8813 48.1339 54.6243 47.964 54.4386 47.824C54.253 47.6812 54.0916 47.4956 53.9546 47.2671C53.8203 47.0358 53.7532 46.7574 53.7532 46.4318C53.7532 46.1148 53.8203 45.8349 53.9546 45.5922C54.0916 45.3466 54.293 45.1552 54.5586 45.0181C54.8242 44.881 55.144 44.8125 55.5182 44.8125C56.1265 44.8125 56.6348 44.9981 57.0432 45.3694L56.5634 46.2433C56.5149 46.1748 56.442 46.1005 56.3449 46.0205C56.2478 45.9377 56.1307 45.8678 55.9937 45.8106C55.8566 45.7507 55.7124 45.7207 55.561 45.7207C55.3411 45.7207 55.1697 45.7849 55.0469 45.9134C54.927 46.0391 54.867 46.1976 54.867 46.389C54.867 46.5346 54.9027 46.6645 54.9741 46.7788C55.0484 46.8902 55.144 46.9901 55.2611 47.0787C55.3811 47.1672 55.541 47.2714 55.7409 47.3914C56.1036 47.6056 56.3806 47.7855 56.572 47.9311C56.7633 48.0768 56.9233 48.2624 57.0518 48.488C57.1831 48.7108 57.2488 48.985 57.2488 49.3105C57.2488 49.6561 57.1746 49.9545 57.0261 50.2058C56.8776 50.4572 56.6648 50.6499 56.3878 50.7842C56.1108 50.9155 55.7838 50.9812 55.4068 50.9812ZM58.1476 44.7868H59.3471V45.9263H58.1476V44.7868ZM58.1905 46.6203H59.3043V50.887H58.1905V46.6203ZM61.9883 51.0155C61.6713 51.0155 61.4228 50.9612 61.2429 50.8527C61.063 50.7442 60.9359 50.5814 60.8616 50.3644C60.7902 50.1444 60.7545 49.856 60.7545 49.499V47.5199H60.1976V46.6203H60.7974L60.8574 45.7207L61.7912 45.318V46.6203H62.8451V47.5199H61.7912V49.4733C61.7912 49.7132 61.8241 49.8831 61.8898 49.9831C61.9554 50.083 62.054 50.133 62.1853 50.133C62.3024 50.133 62.4295 50.103 62.5666 50.0431C62.7065 49.9802 62.8222 49.9103 62.9136 49.8332L63.1192 50.6985C62.9936 50.787 62.8122 50.8613 62.5752 50.9212C62.341 50.9841 62.1454 51.0155 61.9883 51.0155ZM65.5602 50.9984C65.1004 50.9984 64.7206 50.9013 64.4207 50.7071C64.1208 50.51 63.9009 50.2473 63.761 49.9188C63.6239 49.5904 63.5554 49.2191 63.5554 48.805C63.5554 48.3824 63.6325 47.9982 63.7867 47.6527C63.9438 47.3043 64.1722 47.0287 64.4721 46.8259C64.772 46.6203 65.129 46.5175 65.5431 46.5175C66.1599 46.5175 66.6012 46.696 66.8668 47.0529C67.1324 47.4071 67.2652 47.9368 67.2652 48.6422C67.2652 48.7793 67.2595 48.9336 67.248 49.1049H64.6777C64.6949 49.4505 64.7905 49.7175 64.9647 49.906C65.1418 50.0916 65.4003 50.1844 65.7401 50.1844C65.9172 50.1844 66.1071 50.1459 66.3099 50.0688C66.5126 49.9888 66.6626 49.8931 66.7597 49.7817L67.1024 50.5957C66.6997 50.8641 66.1856 50.9984 65.5602 50.9984ZM66.1771 48.4366C66.1771 48.0168 66.1242 47.7284 66.0186 47.5713C65.9158 47.4114 65.7658 47.3314 65.5688 47.3314C65.2917 47.3314 65.0761 47.4342 64.9219 47.6398C64.7705 47.8455 64.6863 48.1111 64.6692 48.4366H66.1771ZM74.9845 44.8125V50.887H73.9221V48.3252L73.9607 47.3143L73.6565 47.7769L72.4827 49.1563L71.309 47.7769L71.0048 47.3143L71.0519 48.3252V50.887H69.9895V44.8125H70.0752L72.4913 47.6613L74.8903 44.8125H74.9845ZM77.1948 51.0069C76.9406 51.0069 76.7264 50.9498 76.5522 50.8356C76.378 50.7213 76.2466 50.5671 76.1581 50.3729C76.0724 50.1787 76.0296 49.9617 76.0296 49.7218C76.0296 49.5133 76.0981 49.3062 76.2352 49.1006C76.3751 48.8921 76.6221 48.7151 76.9763 48.5694C77.3304 48.4238 77.8088 48.3509 78.4114 48.3509V48.1539C78.4114 47.9197 78.3542 47.7384 78.24 47.6098C78.1286 47.4813 77.9316 47.4171 77.6488 47.4171C77.4261 47.4171 77.2076 47.4556 76.9934 47.5327C76.7821 47.607 76.6264 47.6998 76.5265 47.8112L76.1838 46.9887C76.378 46.8573 76.6193 46.7459 76.9077 46.6546C77.1962 46.5632 77.5032 46.5175 77.8288 46.5175C78.2372 46.5175 78.5599 46.5803 78.7969 46.706C79.0368 46.8316 79.2053 47.0087 79.3024 47.2372C79.3995 47.4656 79.448 47.7484 79.448 48.0854V50.887H78.5313L78.4542 50.2787C78.3028 50.5243 78.1229 50.7071 77.9144 50.827C77.7088 50.947 77.4689 51.0069 77.1948 51.0069ZM77.6488 50.1844C77.7802 50.1844 77.9187 50.1316 78.0644 50.0259C78.21 49.9203 78.3257 49.7875 78.4114 49.6275V49.0192C78.3714 49.0135 78.3028 49.0107 78.2057 49.0107C77.9173 49.0107 77.6588 49.0592 77.4304 49.1563C77.2047 49.2506 77.0919 49.4048 77.0919 49.619C77.0919 49.8217 77.1362 49.9674 77.2247 50.0559C77.3161 50.1416 77.4575 50.1844 77.6488 50.1844ZM82.8672 46.5175C83.2927 46.5175 83.6125 46.6531 83.8267 46.9244C84.0438 47.1929 84.1523 47.5741 84.1523 48.0682V50.887H83.0556V48.1625C83.0556 47.9197 83.0042 47.7269 82.9014 47.5841C82.7986 47.4385 82.6472 47.3657 82.4473 47.3657C82.3131 47.3657 82.1875 47.3999 82.0704 47.4685C81.9561 47.537 81.8647 47.6327 81.7962 47.7555C81.7277 47.8754 81.6934 48.0111 81.6934 48.1625V50.887H80.5967V46.6203H81.5906L81.612 47.1815C81.9061 46.7388 82.3245 46.5175 82.8672 46.5175ZM86.2393 51.0069C85.9852 51.0069 85.771 50.9498 85.5968 50.8356C85.4225 50.7213 85.2912 50.5671 85.2026 50.3729C85.117 50.1787 85.0741 49.9617 85.0741 49.7218C85.0741 49.5133 85.1427 49.3062 85.2798 49.1006C85.4197 48.8921 85.6667 48.7151 86.0209 48.5694C86.375 48.4238 86.8533 48.3509 87.4559 48.3509V48.1539C87.4559 47.9197 87.3988 47.7384 87.2846 47.6098C87.1732 47.4813 86.9762 47.4171 86.6934 47.4171C86.4707 47.4171 86.2522 47.4556 86.038 47.5327C85.8267 47.607 85.671 47.6998 85.5711 47.8112L85.2283 46.9887C85.4225 46.8573 85.6639 46.7459 85.9523 46.6546C86.2408 46.5632 86.5478 46.5175 86.8733 46.5175C87.2817 46.5175 87.6044 46.5803 87.8415 46.706C88.0814 46.8316 88.2499 47.0087 88.347 47.2372C88.4441 47.4656 88.4926 47.7484 88.4926 48.0854V50.887H87.5759L87.4988 50.2787C87.3474 50.5243 87.1675 50.7071 86.959 50.827C86.7534 50.947 86.5135 51.0069 86.2393 51.0069ZM86.6934 50.1844C86.8248 50.1844 86.9633 50.1316 87.109 50.0259C87.2546 49.9203 87.3703 49.7875 87.4559 49.6275V49.0192C87.416 49.0135 87.3474 49.0107 87.2503 49.0107C86.9619 49.0107 86.7034 49.0592 86.4749 49.1563C86.2493 49.2506 86.1365 49.4048 86.1365 49.619C86.1365 49.8217 86.1808 49.9674 86.2693 50.0559C86.3607 50.1416 86.5021 50.1844 86.6934 50.1844ZM90.2325 51.6238C90.4981 51.7894 90.7951 51.8723 91.1235 51.8723C91.4919 51.8723 91.7661 51.7766 91.946 51.5852C92.1288 51.3939 92.2202 51.0926 92.2202 50.6814V50.0131C92.1488 50.2758 92.0245 50.4957 91.8475 50.6728C91.6704 50.8499 91.4234 50.9384 91.1064 50.9384C90.7694 50.9384 90.4709 50.8627 90.211 50.7113C89.954 50.56 89.7498 50.3215 89.5985 49.9959C89.45 49.6704 89.3757 49.2591 89.3757 48.7622C89.3757 48.2567 89.45 47.8369 89.5985 47.5027C89.747 47.1658 89.9497 46.9173 90.2068 46.7574C90.4638 46.5974 90.7551 46.5175 91.0807 46.5175C91.3034 46.5175 91.4948 46.5575 91.6547 46.6374C91.8175 46.7174 91.9446 46.8216 92.036 46.9501C92.1302 47.0758 92.1916 47.2114 92.2202 47.3571L92.3401 46.6203H93.1797V50.6814C93.1797 51.1212 93.1055 51.4996 92.957 51.8166C92.8085 52.1364 92.5886 52.3806 92.2973 52.5491C92.006 52.7205 91.649 52.8061 91.2263 52.8061C90.915 52.8061 90.6323 52.7676 90.3781 52.6905C90.1268 52.6162 89.9183 52.5291 89.7527 52.4292L90.2325 51.6238ZM91.3206 50.0988C91.5719 50.0988 91.7675 49.9817 91.9074 49.7475C92.0474 49.5104 92.1174 49.1763 92.1174 48.7451C92.1174 48.3224 92.0531 47.9897 91.9246 47.7469C91.7989 47.5042 91.609 47.3828 91.3548 47.3828C91.1978 47.3828 91.0535 47.4285 90.9222 47.5199C90.7908 47.6113 90.6837 47.7598 90.6009 47.9654C90.5209 48.1682 90.4809 48.4309 90.4809 48.7536C90.4809 49.1991 90.5566 49.5347 90.708 49.7603C90.8622 49.9859 91.0664 50.0988 91.3206 50.0988ZM96.1494 50.9984C95.6896 50.9984 95.3098 50.9013 95.0099 50.7071C94.7101 50.51 94.4902 50.2473 94.3502 49.9188C94.2132 49.5904 94.1446 49.2191 94.1446 48.805C94.1446 48.3824 94.2217 47.9982 94.3759 47.6527C94.533 47.3043 94.7615 47.0287 95.0613 46.8259C95.3612 46.6203 95.7182 46.5175 96.1323 46.5175C96.7492 46.5175 97.1904 46.696 97.456 47.0529C97.7216 47.4071 97.8544 47.9368 97.8544 48.6422C97.8544 48.7793 97.8487 48.9336 97.8373 49.1049H95.267C95.2841 49.4505 95.3798 49.7175 95.554 49.906C95.7311 50.0916 95.9895 50.1844 96.3294 50.1844C96.5064 50.1844 96.6963 50.1459 96.8991 50.0688C97.1019 49.9888 97.2518 49.8931 97.3489 49.7817L97.6916 50.5957C97.2889 50.8641 96.7749 50.9984 96.1494 50.9984ZM96.7663 48.4366C96.7663 48.0168 96.7135 47.7284 96.6078 47.5713C96.505 47.4114 96.3551 47.3314 96.158 47.3314C95.881 47.3314 95.6654 47.4342 95.5112 47.6398C95.3598 47.8455 95.2755 48.1111 95.2584 48.4366H96.7663ZM103.608 46.5175C104.028 46.5175 104.345 46.6531 104.559 46.9244C104.776 47.1929 104.885 47.5741 104.885 48.0682V50.887H103.797V48.1796C103.797 47.9311 103.748 47.7369 103.651 47.597C103.557 47.4542 103.411 47.3828 103.214 47.3828C103.08 47.3828 102.951 47.4171 102.828 47.4856C102.708 47.5542 102.611 47.6498 102.537 47.7726C102.463 47.8926 102.426 48.0282 102.426 48.1796V50.887H101.329V48.1796C101.329 47.9368 101.275 47.7412 101.166 47.5927C101.061 47.4413 100.909 47.3657 100.712 47.3657C100.575 47.3657 100.449 47.4014 100.335 47.4728C100.221 47.5413 100.13 47.6384 100.061 47.7641C99.9925 47.8869 99.9582 48.0254 99.9582 48.1796V50.887H98.8616V46.6203H99.8469L99.8726 47.1857C100.161 46.7402 100.581 46.5175 101.132 46.5175C101.418 46.5175 101.656 46.5803 101.847 46.706C102.042 46.8316 102.187 47.0144 102.284 47.2543C102.576 46.7631 103.017 46.5175 103.608 46.5175ZM107.846 50.9984C107.387 50.9984 107.007 50.9013 106.707 50.7071C106.407 50.51 106.187 50.2473 106.047 49.9188C105.91 49.5904 105.841 49.2191 105.841 48.805C105.841 48.3824 105.919 47.9982 106.073 47.6527C106.23 47.3043 106.458 47.0287 106.758 46.8259C107.058 46.6203 107.415 46.5175 107.829 46.5175C108.446 46.5175 108.887 46.696 109.153 47.0529C109.418 47.4071 109.551 47.9368 109.551 48.6422C109.551 48.7793 109.546 48.9336 109.534 49.1049H106.964C106.981 49.4505 107.077 49.7175 107.251 49.906C107.428 50.0916 107.686 50.1844 108.026 50.1844C108.203 50.1844 108.393 50.1459 108.596 50.0688C108.799 49.9888 108.949 49.8931 109.046 49.7817L109.388 50.5957C108.986 50.8641 108.472 50.9984 107.846 50.9984ZM108.463 48.4366C108.463 48.0168 108.41 47.7284 108.305 47.5713C108.202 47.4114 108.052 47.3314 107.855 47.3314C107.578 47.3314 107.362 47.4342 107.208 47.6398C107.057 47.8455 106.972 48.1111 106.955 48.4366H108.463ZM112.829 46.5175C113.254 46.5175 113.574 46.6531 113.788 46.9244C114.006 47.1929 114.114 47.5741 114.114 48.0682V50.887H113.017V48.1625C113.017 47.9197 112.966 47.7269 112.863 47.5841C112.76 47.4385 112.609 47.3657 112.409 47.3657C112.275 47.3657 112.149 47.3999 112.032 47.4685C111.918 47.537 111.826 47.6327 111.758 47.7555C111.689 47.8754 111.655 48.0111 111.655 48.1625V50.887H110.558V46.6203H111.552L111.574 47.1815C111.868 46.7388 112.286 46.5175 112.829 46.5175ZM116.749 51.0155C116.432 51.0155 116.184 50.9612 116.004 50.8527C115.824 50.7442 115.697 50.5814 115.623 50.3644C115.551 50.1444 115.516 49.856 115.516 49.499V47.5199H114.959V46.6203H115.558L115.618 45.7207L116.552 45.318V46.6203H117.606V47.5199H116.552V49.4733C116.552 49.7132 116.585 49.8831 116.651 49.9831C116.717 50.083 116.815 50.133 116.946 50.133C117.064 50.133 117.191 50.103 117.328 50.0431C117.468 49.9802 117.583 49.9103 117.675 49.8332L117.88 50.6985C117.755 50.787 117.573 50.8613 117.336 50.9212C117.102 50.9841 116.906 51.0155 116.749 51.0155ZM121.848 50.9812C121.582 50.9812 121.331 50.9498 121.094 50.887C120.86 50.8241 120.654 50.7428 120.477 50.6428C120.3 50.5428 120.16 50.4386 120.057 50.3301L120.494 49.4305C120.56 49.5162 120.66 49.6075 120.794 49.7046C120.928 49.8017 121.081 49.8846 121.253 49.9531C121.427 50.0216 121.6 50.0559 121.771 50.0559C121.997 50.0559 122.185 49.9945 122.336 49.8717C122.491 49.7461 122.568 49.5704 122.568 49.3448C122.568 49.1991 122.532 49.0735 122.461 48.9678C122.392 48.8593 122.299 48.7636 122.182 48.6808C122.068 48.5951 121.891 48.4795 121.651 48.3338C121.323 48.1339 121.066 47.964 120.88 47.824C120.694 47.6812 120.533 47.4956 120.396 47.2671C120.262 47.0358 120.194 46.7574 120.194 46.4318C120.194 46.1148 120.262 45.8349 120.396 45.5922C120.533 45.3466 120.734 45.1552 121 45.0181C121.265 44.881 121.585 44.8125 121.959 44.8125C122.568 44.8125 123.076 44.9981 123.484 45.3694L123.005 46.2433C122.956 46.1748 122.883 46.1005 122.786 46.0205C122.689 45.9377 122.572 45.8678 122.435 45.8106C122.298 45.7507 122.154 45.7207 122.002 45.7207C121.782 45.7207 121.611 45.7849 121.488 45.9134C121.368 46.0391 121.308 46.1976 121.308 46.389C121.308 46.5346 121.344 46.6645 121.415 46.7788C121.49 46.8902 121.585 46.9901 121.702 47.0787C121.822 47.1672 121.982 47.2714 122.182 47.3914C122.545 47.6056 122.822 47.7855 123.013 47.9311C123.205 48.0768 123.365 48.2624 123.493 48.488C123.624 48.7108 123.69 48.985 123.69 49.3105C123.69 49.6561 123.616 49.9545 123.467 50.2058C123.319 50.4572 123.106 50.6499 122.829 50.7842C122.552 50.9155 122.225 50.9812 121.848 50.9812ZM126.32 50.9727C125.903 50.9727 125.547 50.8841 125.253 50.7071C124.959 50.53 124.735 50.2758 124.58 49.9445C124.426 49.6104 124.349 49.2106 124.349 48.7451C124.349 48.2796 124.428 47.8797 124.585 47.5456C124.745 47.2114 124.974 46.9573 125.274 46.7831C125.577 46.606 125.937 46.5175 126.354 46.5175C126.768 46.5175 127.119 46.6089 127.408 46.7916C127.699 46.9716 127.919 47.2286 128.067 47.5627C128.216 47.8969 128.29 48.291 128.29 48.7451C128.29 49.1963 128.213 49.5904 128.059 49.9274C127.905 50.2615 127.679 50.52 127.382 50.7028C127.088 50.8827 126.734 50.9727 126.32 50.9727ZM126.337 50.1159C126.602 50.1159 126.804 50.0002 126.941 49.7689C127.081 49.5376 127.151 49.1963 127.151 48.7451C127.151 48.291 127.081 47.9483 126.941 47.7169C126.804 47.4828 126.602 47.3657 126.337 47.3657C126.057 47.3657 125.845 47.4756 125.703 47.6955C125.56 47.9154 125.488 48.2653 125.488 48.7451C125.488 49.2249 125.56 49.5733 125.703 49.7903C125.845 50.0074 126.057 50.1159 126.337 50.1159ZM129.343 47.5199H128.769V46.6203H129.343V45.8321C129.343 45.4237 129.419 45.1009 129.57 44.8639C129.722 44.6269 129.906 44.4641 130.123 44.3756C130.34 44.2842 130.563 44.2385 130.791 44.2385C131.034 44.2385 131.231 44.2599 131.383 44.3027C131.537 44.3456 131.634 44.387 131.674 44.427V45.3608C131.614 45.2866 131.521 45.228 131.395 45.1852C131.273 45.1424 131.16 45.1209 131.057 45.1209C130.606 45.1209 130.38 45.3494 130.38 45.8064V46.6203H131.417V47.5199H130.38V50.887H129.343V47.5199ZM133.676 51.0155C133.359 51.0155 133.11 50.9612 132.93 50.8527C132.75 50.7442 132.623 50.5814 132.549 50.3644C132.478 50.1444 132.442 49.856 132.442 49.499V47.5199H131.885V46.6203H132.485L132.545 45.7207L133.478 45.318V46.6203H134.532V47.5199H133.478V49.4733C133.478 49.7132 133.511 49.8831 133.577 49.9831C133.643 50.083 133.741 50.133 133.873 50.133C133.99 50.133 134.117 50.103 134.254 50.0431C134.394 49.9802 134.509 49.9103 134.601 49.8332L134.806 50.6985C134.681 50.787 134.499 50.8613 134.262 50.9212C134.028 50.9841 133.833 51.0155 133.676 51.0155ZM135.018 46.6203H136.106L136.62 48.6508L136.843 49.5504L137.031 48.6508L137.588 46.6203H138.479L139.07 48.6508L139.293 49.5504L139.49 48.6508L139.987 46.6203H141.041L139.696 50.887H138.83L138.145 48.5651L138.008 47.8712L137.871 48.5651L137.237 50.887H136.38L135.018 46.6203ZM142.582 51.0069C142.328 51.0069 142.113 50.9498 141.939 50.8356C141.765 50.7213 141.634 50.5671 141.545 50.3729C141.459 50.1787 141.417 49.9617 141.417 49.7218C141.417 49.5133 141.485 49.3062 141.622 49.1006C141.762 48.8921 142.009 48.7151 142.363 48.5694C142.717 48.4238 143.196 48.3509 143.798 48.3509V48.1539C143.798 47.9197 143.741 47.7384 143.627 47.6098C143.516 47.4813 143.319 47.4171 143.036 47.4171C142.813 47.4171 142.595 47.4556 142.38 47.5327C142.169 47.607 142.013 47.6998 141.913 47.8112L141.571 46.9887C141.765 46.8573 142.006 46.7459 142.295 46.6546C142.583 46.5632 142.89 46.5175 143.216 46.5175C143.624 46.5175 143.947 46.5803 144.184 46.706C144.424 46.8316 144.592 47.0087 144.689 47.2372C144.787 47.4656 144.835 47.7484 144.835 48.0854V50.887H143.918L143.841 50.2787C143.69 50.5243 143.51 50.7071 143.301 50.827C143.096 50.947 142.856 51.0069 142.582 51.0069ZM143.036 50.1844C143.167 50.1844 143.306 50.1316 143.451 50.0259C143.597 49.9203 143.713 49.7875 143.798 49.6275V49.0192C143.758 49.0135 143.69 49.0107 143.593 49.0107C143.304 49.0107 143.046 49.0592 142.817 49.1563C142.592 49.2506 142.479 49.4048 142.479 49.619C142.479 49.8217 142.523 49.9674 142.612 50.0559C142.703 50.1416 142.845 50.1844 143.036 50.1844ZM145.941 46.6203H146.909L146.96 47.3742C147.052 47.1543 147.196 46.9658 147.393 46.8088C147.59 46.6488 147.869 46.5689 148.228 46.5689C148.371 46.5689 148.503 46.5917 148.623 46.6374L148.383 47.7598C148.334 47.7112 148.276 47.677 148.207 47.657C148.141 47.6341 148.06 47.6227 147.963 47.6227C147.763 47.6227 147.59 47.6655 147.445 47.7512C147.302 47.834 147.193 47.9311 147.119 48.0425C147.048 48.1539 147.012 48.2453 147.012 48.3167V50.887H145.941V46.6203ZM150.902 50.9984C150.442 50.9984 150.063 50.9013 149.763 50.7071C149.463 50.51 149.243 50.2473 149.103 49.9188C148.966 49.5904 148.897 49.2191 148.897 48.805C148.897 48.3824 148.974 47.9982 149.129 47.6527C149.286 47.3043 149.514 47.0287 149.814 46.8259C150.114 46.6203 150.471 46.5175 150.885 46.5175C151.502 46.5175 151.943 46.696 152.209 47.0529C152.474 47.4071 152.607 47.9368 152.607 48.6422C152.607 48.7793 152.601 48.9336 152.59 49.1049H150.02C150.037 49.4505 150.133 49.7175 150.307 49.906C150.484 50.0916 150.742 50.1844 151.082 50.1844C151.259 50.1844 151.449 50.1459 151.652 50.0688C151.855 49.9888 152.005 49.8931 152.102 49.7817L152.444 50.5957C152.042 50.8641 151.528 50.9984 150.902 50.9984ZM151.519 48.4366C151.519 48.0168 151.466 47.7284 151.361 47.5713C151.258 47.4114 151.108 47.3314 150.911 47.3314C150.634 47.3314 150.418 47.4342 150.264 47.6398C150.113 47.8455 150.028 48.1111 150.011 48.4366H151.519Z" fill="#504D55"/>
<path d="M41.9357 18.925C41.3396 19.3124 40.5417 19.1324 40.1167 18.5619C36.6721 13.9378 31.1142 11.5912 25.5409 11.979C24.6459 12.0412 24.2028 13.0308 24.679 13.7881L29.9137 22.1141C30.1152 22.4345 30.0177 22.856 29.6954 23.0554C29.3734 23.2546 28.9488 23.1564 28.7472 22.8357L22.7672 13.3245C22.4693 12.8506 21.8927 12.6215 21.3601 12.7968C20.0891 13.2152 18.8458 13.7883 17.6573 14.5236C16.3763 15.316 15.2392 16.2488 14.2502 17.2865C13.8702 17.6851 13.8301 18.2896 14.1237 18.7567L20.0652 28.2067C20.2666 28.5271 20.1691 28.9486 19.8469 29.148C19.5246 29.3473 19.1003 29.249 18.8986 28.9283L13.7414 20.7257C13.2602 19.9603 12.1549 19.9293 11.7156 20.7164C9.06351 25.4682 8.81424 31.3265 11.4457 36.332C11.7713 36.9513 11.5956 37.7282 11.0004 38.0965L9.92698 38.7605C9.33171 39.1287 9.15118 39.9076 9.52375 40.5002L9.80689 40.9505C10.1795 41.5431 10.964 41.725 11.5593 41.3567L44.3946 21.0438C44.9899 20.6756 45.1704 19.8967 44.7978 19.3041L44.4882 18.8116C44.1098 18.2097 43.3081 18.0332 42.712 18.4206L41.9357 18.925Z" fill="#DE0C0C"/>
<path d="M22.4905 38.9771C25.0425 42.8457 30.3228 43.9312 34.3398 41.4464C38.3674 38.9551 39.7745 33.5044 37.1289 29.4951C37.1155 29.4746 37.0971 29.4489 37.0677 29.4075C36.6698 28.8479 35.9068 28.6769 35.323 29.038L22.6637 36.8686C22.0801 37.2296 21.8895 37.9898 22.2418 38.5785C22.3399 38.7424 22.4108 38.8563 22.4905 38.9771Z" fill="#DE0C0C"/>
<path d="M45.8925 29.1917C45.7146 28.6239 45.9134 27.9981 46.4136 27.674L47.9015 26.71C48.4892 26.3292 48.6531 25.546 48.2673 24.9612L47.157 23.2782C46.7788 22.705 46.011 22.5337 45.4251 22.8919L38.7686 26.9616C38.2035 27.3071 38.1155 28.0494 38.4798 28.6027C41.6201 33.3628 39.9852 39.8456 35.194 42.8093C30.4307 45.7558 24.161 44.4543 21.1226 39.8497C21.0671 39.7654 21.015 39.6836 20.9658 39.6037C20.5531 38.9331 19.6815 38.631 19.0096 39.0418L12.5603 42.9852C11.9517 43.3573 11.7736 44.156 12.1665 44.7516L13.8311 47.2747C14.2164 47.8587 15.0041 48.0237 15.591 47.6434L17.0536 46.6957C17.5505 46.3738 18.2033 46.4413 18.6551 46.8259C19.6396 47.664 20.7111 48.3787 21.8436 48.9648C22.3802 49.2425 22.6866 49.8347 22.5574 50.4206L22.2034 52.0247C22.0508 52.7163 22.5008 53.3991 23.2006 53.5378L27.7355 54.4367C28.4141 54.5712 29.0746 54.1428 29.2226 53.4722L29.5956 51.782C29.7216 51.2108 30.2269 50.8068 30.8141 50.7626C32.1104 50.6649 33.4098 50.4142 34.6756 50.0118C35.2539 49.828 35.8962 50.033 36.2232 50.543L37.04 51.8173C37.4167 52.405 38.2 52.581 38.7918 52.2109L42.7958 49.7068C43.3964 49.3313 43.5689 48.5386 43.1788 47.9472L42.2855 46.5929C41.9565 46.0943 42.0259 45.4394 42.4208 44.9928C43.3031 43.9951 44.0574 42.911 44.6779 41.7674C44.9547 41.2571 45.5266 40.9659 46.1 41.0795L47.8243 41.4213C48.5028 41.5558 49.1633 41.1274 49.3113 40.4569L50.2972 35.9907C50.4506 35.2957 49.9953 34.6102 49.2911 34.4758L47.6591 34.1644C47.0577 34.0496 46.628 33.5252 46.5885 32.9183C46.5067 31.6647 46.2746 30.411 45.8925 29.1917Z" fill="#504D55"/>
</svg>
