<svg width="144" height="28" viewBox="0 0 144 28" fill="none" xmlns="http://www.w3.org/2000/svg">
<path d="M1.992 13.568V17H0.9V8.684H3.6C4.224 8.684 4.752 8.792 5.184 9.008C5.616 9.216 5.94 9.508 6.156 9.884C6.372 10.252 6.48 10.668 6.48 11.132C6.48 11.836 6.24 12.42 5.76 12.884C5.288 13.34 4.568 13.568 3.6 13.568H1.992ZM3.6 12.704C4.2 12.704 4.644 12.568 4.932 12.296C5.228 12.016 5.376 11.628 5.376 11.132C5.376 10.636 5.232 10.252 4.944 9.98C4.656 9.7 4.208 9.56 3.6 9.56H1.992V12.704H3.6ZM10.7295 10.304C11.3535 10.304 11.9175 10.444 12.4215 10.724C12.9255 11.004 13.3215 11.404 13.6095 11.924C13.9055 12.444 14.0535 13.04 14.0535 13.712C14.0535 14.376 13.9015 14.968 13.5975 15.488C13.2935 16 12.8815 16.4 12.3615 16.688C11.8415 16.968 11.2655 17.108 10.6335 17.108C10.0175 17.108 9.4615 16.968 8.9655 16.688C8.4775 16.408 8.0935 16.012 7.8135 15.5C7.5415 14.98 7.4055 14.384 7.4055 13.712C7.4055 13.032 7.5495 12.436 7.8375 11.924C8.1335 11.404 8.5335 11.004 9.0375 10.724C9.5415 10.444 10.1055 10.304 10.7295 10.304ZM10.6935 11.204C10.2935 11.204 9.9295 11.3 9.6015 11.492C9.2735 11.684 9.0095 11.968 8.8095 12.344C8.6175 12.72 8.5215 13.176 8.5215 13.712C8.5215 14.24 8.6135 14.692 8.7975 15.068C8.9895 15.444 9.2455 15.728 9.5655 15.92C9.8855 16.112 10.2415 16.208 10.6335 16.208C11.0335 16.208 11.4055 16.112 11.7495 15.92C12.1015 15.72 12.3855 15.432 12.6015 15.056C12.8175 14.68 12.9255 14.232 12.9255 13.712C12.9255 13.184 12.8215 12.732 12.6135 12.356C12.4135 11.972 12.1415 11.684 11.7975 11.492C11.4615 11.3 11.0935 11.204 10.6935 11.204ZM24.0715 10.412L21.9955 17H20.8675L19.3795 11.768L17.8915 17H16.7515L14.6635 10.412H15.7915L17.3155 15.908L18.8635 10.412H19.9915L21.4555 15.92L22.9675 10.412H24.0715ZM31.0869 13.436C31.0869 13.668 31.0709 13.884 31.0389 14.084H25.7949C25.8269 14.74 26.0309 15.26 26.4069 15.644C26.7909 16.02 27.2789 16.208 27.8709 16.208C28.3189 16.208 28.6949 16.108 28.9989 15.908C29.3109 15.708 29.5389 15.444 29.6829 15.116H30.8589C30.6509 15.692 30.2909 16.168 29.7789 16.544C29.2749 16.92 28.6389 17.108 27.8709 17.108C27.2549 17.108 26.7029 16.968 26.2149 16.688C25.7349 16.408 25.3589 16.012 25.0869 15.5C24.8149 14.98 24.6789 14.384 24.6789 13.712C24.6789 13.032 24.8149 12.436 25.0869 11.924C25.3589 11.404 25.7429 11.004 26.2389 10.724C26.7349 10.444 27.3069 10.304 27.9549 10.304C28.5709 10.304 29.1149 10.44 29.5869 10.712C30.0589 10.984 30.4269 11.356 30.6909 11.828C30.9549 12.3 31.0869 12.836 31.0869 13.436ZM29.9469 13.292C29.9469 12.868 29.8549 12.5 29.6709 12.188C29.4869 11.868 29.2349 11.624 28.9149 11.456C28.6029 11.288 28.2549 11.204 27.8709 11.204C27.3029 11.204 26.8269 11.392 26.4429 11.768C26.0589 12.136 25.8469 12.644 25.8069 13.292H29.9469ZM33.5389 11.528C33.9309 10.712 34.5989 10.304 35.5429 10.304V11.444H35.2549C34.6949 11.444 34.2669 11.592 33.9709 11.888C33.6829 12.176 33.5389 12.68 33.5389 13.4V17H32.4469V10.412H33.5389V11.528ZM42.8408 13.436C42.8408 13.668 42.8248 13.884 42.7928 14.084H37.5488C37.5808 14.74 37.7848 15.26 38.1608 15.644C38.5448 16.02 39.0328 16.208 39.6248 16.208C40.0728 16.208 40.4488 16.108 40.7528 15.908C41.0648 15.708 41.2928 15.444 41.4368 15.116H42.6128C42.4048 15.692 42.0448 16.168 41.5328 16.544C41.0288 16.92 40.3928 17.108 39.6248 17.108C39.0088 17.108 38.4568 16.968 37.9688 16.688C37.4888 16.408 37.1128 16.012 36.8408 15.5C36.5688 14.98 36.4328 14.384 36.4328 13.712C36.4328 13.032 36.5688 12.436 36.8408 11.924C37.1128 11.404 37.4968 11.004 37.9928 10.724C38.4888 10.444 39.0608 10.304 39.7088 10.304C40.3248 10.304 40.8688 10.44 41.3408 10.712C41.8128 10.984 42.1808 11.356 42.4448 11.828C42.7088 12.3 42.8408 12.836 42.8408 13.436ZM41.7008 13.292C41.7008 12.868 41.6088 12.5 41.4248 12.188C41.2408 11.868 40.9888 11.624 40.6688 11.456C40.3568 11.288 40.0088 11.204 39.6248 11.204C39.0568 11.204 38.5808 11.392 38.1968 11.768C37.8128 12.136 37.6008 12.644 37.5608 13.292H41.7008ZM46.9128 10.304C47.4728 10.304 47.9608 10.436 48.3768 10.7C48.8008 10.964 49.1208 11.308 49.3368 11.732V8.12H50.4408V17H49.3368V15.656C49.1208 16.088 48.8008 16.44 48.3768 16.712C47.9608 16.976 47.4728 17.108 46.9128 17.108C46.3208 17.108 45.7848 16.964 45.3048 16.676C44.8328 16.38 44.4568 15.972 44.1768 15.452C43.9048 14.924 43.7688 14.328 43.7688 13.664C43.7688 13 43.9048 12.416 44.1768 11.912C44.4568 11.4 44.8328 11.004 45.3048 10.724C45.7848 10.444 46.3208 10.304 46.9128 10.304ZM47.1048 11.252C46.7128 11.252 46.3448 11.348 46.0008 11.54C45.6648 11.732 45.3928 12.012 45.1848 12.38C44.9848 12.74 44.8848 13.168 44.8848 13.664C44.8848 14.16 44.9848 14.6 45.1848 14.984C45.3928 15.36 45.6648 15.652 46.0008 15.86C46.3448 16.068 46.7128 16.172 47.1048 16.172C47.5048 16.172 47.8728 16.072 48.2088 15.872C48.5528 15.672 48.8248 15.388 49.0248 15.02C49.2328 14.644 49.3368 14.208 49.3368 13.712C49.3368 13.216 49.2328 12.784 49.0248 12.416C48.8248 12.04 48.5528 11.752 48.2088 11.552C47.8728 11.352 47.5048 11.252 47.1048 11.252ZM59.3655 10.304C59.9575 10.304 60.4895 10.444 60.9615 10.724C61.4415 11.004 61.8175 11.4 62.0895 11.912C62.3695 12.416 62.5095 13 62.5095 13.664C62.5095 14.328 62.3695 14.924 62.0895 15.452C61.8175 15.972 61.4415 16.38 60.9615 16.676C60.4895 16.964 59.9575 17.108 59.3655 17.108C58.8055 17.108 58.3135 16.976 57.8895 16.712C57.4735 16.44 57.1535 16.088 56.9295 15.656V17H55.8375V8.12H56.9295V11.732C57.1535 11.308 57.4735 10.964 57.8895 10.7C58.3135 10.436 58.8055 10.304 59.3655 10.304ZM59.1495 11.252C58.7575 11.252 58.3895 11.352 58.0455 11.552C57.7095 11.752 57.4375 12.04 57.2295 12.416C57.0295 12.784 56.9295 13.216 56.9295 13.712C56.9295 14.208 57.0295 14.644 57.2295 15.02C57.4375 15.388 57.7095 15.672 58.0455 15.872C58.3895 16.072 58.7575 16.172 59.1495 16.172C59.5415 16.172 59.9095 16.072 60.2535 15.872C60.5975 15.664 60.8695 15.368 61.0695 14.984C61.2775 14.6 61.3815 14.16 61.3815 13.664C61.3815 13.168 61.2775 12.74 61.0695 12.38C60.8695 12.012 60.5975 11.732 60.2535 11.54C59.9175 11.348 59.5495 11.252 59.1495 11.252ZM64.3206 10.412L66.3366 15.74L68.3886 10.412H69.5166L65.5446 20.084H64.4166L65.7246 16.892L63.1206 10.412H64.3206Z" fill="#B0B0B0"/>
<path d="M99.2202 18.0783V16.0427L108.224 16.0583C108.683 16.0583 109.033 15.9539 109.273 15.7452C109.524 15.5259 109.649 15.1762 109.649 14.696C109.649 14.2159 109.524 13.8714 109.273 13.6626C109.033 13.4434 108.683 13.3338 108.224 13.3338H102.618C101.459 13.3338 100.556 13.0571 99.9092 12.5039C99.2724 11.9401 98.954 11.1155 98.954 10.0298C98.954 8.94414 99.2724 8.12468 99.9092 7.57141C100.556 7.0077 101.459 6.72585 102.618 6.72585H111.418V8.76146L102.884 8.7458C102.435 8.7458 102.086 8.85019 101.835 9.05897C101.585 9.25731 101.459 9.58092 101.459 10.0298C101.459 10.4787 101.585 10.8075 101.835 11.0163C102.086 11.2146 102.435 11.3138 102.884 11.3138H108.49C109.649 11.3138 110.547 11.6009 111.183 12.175C111.831 12.7387 112.154 13.5791 112.154 14.696C112.154 15.8026 111.831 16.6429 111.183 17.2171C110.547 17.7912 109.649 18.0783 108.49 18.0783H99.2202ZM113.725 18V6.80414H115.823L121.006 10.4369H121.085L126.268 6.80414H128.366V18H125.86V9.93585L122.306 12.3159V18H119.801V12.3159L116.23 9.93585V18H113.725ZM130.201 18.0783V16.0427L139.205 16.0583C139.664 16.0583 140.014 15.9539 140.254 15.7452C140.504 15.5259 140.629 15.1762 140.629 14.696C140.629 14.2159 140.504 13.8714 140.254 13.6626C140.014 13.4434 139.664 13.3338 139.205 13.3338H133.599C132.44 13.3338 131.537 13.0571 130.89 12.5039C130.253 11.9401 129.935 11.1155 129.935 10.0298C129.935 8.94414 130.253 8.12468 130.89 7.57141C131.537 7.0077 132.44 6.72585 133.599 6.72585H142.399V8.76146L133.865 8.7458C133.416 8.7458 133.066 8.85019 132.816 9.05897C132.565 9.25731 132.44 9.58092 132.44 10.0298C132.44 10.4787 132.565 10.8075 132.816 11.0163C133.066 11.2146 133.416 11.3138 133.865 11.3138H139.471C140.629 11.3138 141.527 11.6009 142.164 12.175C142.811 12.7387 143.135 13.5791 143.135 14.696C143.135 15.8026 142.811 16.6429 142.164 17.2171C141.527 17.7912 140.629 18.0783 139.471 18.0783H130.201Z" fill="#DE0C0C"/>
<path d="M99.7388 23.2979C99.6202 23.2979 99.508 23.2839 99.4022 23.2559C99.2976 23.2278 99.2058 23.1915 99.1267 23.1468C99.0477 23.1022 98.9852 23.0557 98.9393 23.0072L99.1344 22.6055C99.1637 22.6438 99.2083 22.6846 99.2683 22.728C99.3282 22.7713 99.3964 22.8083 99.4729 22.8389C99.5507 22.8695 99.6279 22.8848 99.7044 22.8848C99.8051 22.8848 99.8893 22.8574 99.9569 22.8025C100.026 22.7464 100.06 22.668 100.06 22.5673C100.06 22.5023 100.044 22.4461 100.012 22.399C99.9817 22.3505 99.9403 22.3078 99.888 22.2708C99.837 22.2326 99.7579 22.1809 99.6508 22.1159C99.5042 22.0266 99.3894 21.9508 99.3065 21.8883C99.2237 21.8245 99.1516 21.7416 99.0904 21.6396C99.0305 21.5363 99.0005 21.412 99.0005 21.2666C99.0005 21.1251 99.0305 21.0001 99.0904 20.8918C99.1516 20.7821 99.2415 20.6967 99.3601 20.6355C99.4787 20.5742 99.6215 20.5436 99.7885 20.5436C100.06 20.5436 100.287 20.6265 100.469 20.7923L100.255 21.1825C100.234 21.1519 100.201 21.1187 100.158 21.083C100.114 21.046 100.062 21.0148 100.001 20.9893C99.9396 20.9625 99.8752 20.9491 99.8077 20.9491C99.7095 20.9491 99.633 20.9778 99.5781 21.0352C99.5246 21.0913 99.4978 21.1621 99.4978 21.2475C99.4978 21.3125 99.5137 21.3706 99.5456 21.4216C99.5788 21.4713 99.6215 21.5159 99.6738 21.5555C99.7273 21.595 99.7987 21.6415 99.888 21.6951C100.05 21.7907 100.174 21.8711 100.259 21.9361C100.344 22.0011 100.416 22.084 100.473 22.1847C100.532 22.2842 100.561 22.4066 100.561 22.552C100.561 22.7063 100.528 22.8395 100.462 22.9517C100.396 23.064 100.301 23.15 100.177 23.21C100.053 23.2686 99.9071 23.2979 99.7388 23.2979ZM100.963 20.5322H101.498V21.0409H100.963V20.5322ZM100.982 21.3508H101.479V23.2559H100.982V21.3508ZM102.677 23.3132C102.536 23.3132 102.425 23.289 102.345 23.2406C102.264 23.1921 102.208 23.1194 102.174 23.0225C102.142 22.9243 102.127 22.7955 102.127 22.6361V21.7525H101.878V21.3508H102.146L102.172 20.9491L102.589 20.7693V21.3508H103.06V21.7525H102.589V22.6247C102.589 22.7318 102.604 22.8076 102.633 22.8523C102.663 22.8969 102.707 22.9192 102.765 22.9192C102.818 22.9192 102.874 22.9058 102.936 22.8791C102.998 22.851 103.05 22.8198 103.091 22.7853L103.182 23.1717C103.126 23.2112 103.045 23.2444 102.939 23.2712C102.835 23.2992 102.748 23.3132 102.677 23.3132ZM104.272 23.3056C104.067 23.3056 103.897 23.2622 103.763 23.1755C103.63 23.0875 103.531 22.9702 103.469 22.8236C103.408 22.6769 103.377 22.5112 103.377 22.3263C103.377 22.1376 103.412 21.9661 103.48 21.8118C103.551 21.6562 103.653 21.5331 103.786 21.4426C103.92 21.3508 104.08 21.3049 104.265 21.3049C104.54 21.3049 104.737 21.3846 104.856 21.544C104.974 21.7021 105.034 21.9386 105.034 22.2536C105.034 22.3148 105.031 22.3837 105.026 22.4602H103.878C103.886 22.6145 103.929 22.7337 104.006 22.8178C104.085 22.9007 104.201 22.9422 104.353 22.9422C104.432 22.9422 104.516 22.925 104.607 22.8905C104.698 22.8548 104.764 22.8121 104.808 22.7624L104.961 23.1258C104.781 23.2457 104.552 23.3056 104.272 23.3056ZM104.548 22.1618C104.548 21.9743 104.524 21.8456 104.477 21.7754C104.431 21.704 104.364 21.6683 104.276 21.6683C104.152 21.6683 104.056 21.7142 103.987 21.806C103.92 21.8978 103.882 22.0164 103.874 22.1618H104.548ZM108.48 20.5436V23.2559H108.006V22.1121L108.023 21.6607L107.887 21.8672L107.363 22.4831L106.839 21.8672L106.703 21.6607L106.724 22.1121V23.2559H106.25V20.5436H106.288L107.367 21.8156L108.438 20.5436H108.48ZM109.467 23.3094C109.354 23.3094 109.258 23.2839 109.18 23.2329C109.102 23.1819 109.044 23.113 109.004 23.0263C108.966 22.9396 108.947 22.8427 108.947 22.7356C108.947 22.6425 108.977 22.5501 109.039 22.4583C109.101 22.3652 109.211 22.2861 109.369 22.2211C109.528 22.1561 109.741 22.1235 110.01 22.1235V22.0356C110.01 21.931 109.985 21.85 109.934 21.7926C109.884 21.7353 109.796 21.7066 109.67 21.7066C109.57 21.7066 109.473 21.7238 109.377 21.7582C109.283 21.7914 109.213 21.8328 109.169 21.8825L109.016 21.5153C109.102 21.4566 109.21 21.4069 109.339 21.3661C109.468 21.3253 109.605 21.3049 109.75 21.3049C109.932 21.3049 110.077 21.333 110.182 21.3891C110.289 21.4452 110.365 21.5242 110.408 21.6262C110.451 21.7282 110.473 21.8545 110.473 22.0049V23.2559H110.064L110.029 22.9843C109.962 23.0939 109.881 23.1755 109.788 23.2291C109.697 23.2826 109.589 23.3094 109.467 23.3094ZM109.67 22.9422C109.728 22.9422 109.79 22.9186 109.855 22.8714C109.92 22.8242 109.972 22.7649 110.01 22.6935V22.4219C109.992 22.4194 109.962 22.4181 109.918 22.4181C109.79 22.4181 109.674 22.4398 109.572 22.4831C109.471 22.5252 109.421 22.5941 109.421 22.6897C109.421 22.7802 109.441 22.8453 109.48 22.8848C109.521 22.923 109.584 22.9422 109.67 22.9422ZM112 21.3049C112.19 21.3049 112.333 21.3655 112.428 21.4866C112.525 21.6065 112.574 21.7767 112.574 21.9973V23.2559H112.084V22.0394C112.084 21.931 112.061 21.8449 112.015 21.7812C111.969 21.7161 111.902 21.6836 111.812 21.6836C111.752 21.6836 111.696 21.6989 111.644 21.7295C111.593 21.7601 111.552 21.8028 111.522 21.8577C111.491 21.9112 111.476 21.9718 111.476 22.0394V23.2559H110.986V21.3508H111.43L111.439 21.6014C111.571 21.4037 111.757 21.3049 112 21.3049ZM113.505 23.3094C113.392 23.3094 113.296 23.2839 113.218 23.2329C113.141 23.1819 113.082 23.113 113.042 23.0263C113.004 22.9396 112.985 22.8427 112.985 22.7356C112.985 22.6425 113.016 22.5501 113.077 22.4583C113.139 22.3652 113.25 22.2861 113.408 22.2211C113.566 22.1561 113.78 22.1235 114.049 22.1235V22.0356C114.049 21.931 114.023 21.85 113.972 21.7926C113.922 21.7353 113.834 21.7066 113.708 21.7066C113.609 21.7066 113.511 21.7238 113.415 21.7582C113.321 21.7914 113.252 21.8328 113.207 21.8825L113.054 21.5153C113.141 21.4566 113.248 21.4069 113.377 21.3661C113.506 21.3253 113.643 21.3049 113.788 21.3049C113.971 21.3049 114.115 21.333 114.221 21.3891C114.328 21.4452 114.403 21.5242 114.446 21.6262C114.49 21.7282 114.511 21.8545 114.511 22.0049V23.2559H114.102L114.068 22.9843C114 23.0939 113.92 23.1755 113.827 23.2291C113.735 23.2826 113.628 23.3094 113.505 23.3094ZM113.708 22.9422C113.767 22.9422 113.829 22.9186 113.894 22.8714C113.959 22.8242 114.01 22.7649 114.049 22.6935V22.4219C114.031 22.4194 114 22.4181 113.957 22.4181C113.828 22.4181 113.713 22.4398 113.611 22.4831C113.51 22.5252 113.459 22.5941 113.459 22.6897C113.459 22.7802 113.479 22.8453 113.519 22.8848C113.56 22.923 113.623 22.9422 113.708 22.9422ZM115.288 23.5848C115.407 23.6588 115.539 23.6958 115.686 23.6958C115.851 23.6958 115.973 23.6531 116.053 23.5676C116.135 23.4822 116.176 23.3477 116.176 23.164V22.8657C116.144 22.983 116.088 23.0812 116.009 23.1602C115.93 23.2393 115.82 23.2788 115.678 23.2788C115.528 23.2788 115.395 23.245 115.279 23.1774C115.164 23.1099 115.073 23.0034 115.005 22.858C114.939 22.7127 114.906 22.529 114.906 22.3072C114.906 22.0815 114.939 21.894 115.005 21.7448C115.071 21.5944 115.162 21.4834 115.277 21.412C115.392 21.3406 115.522 21.3049 115.667 21.3049C115.766 21.3049 115.852 21.3228 115.923 21.3585C115.996 21.3942 116.053 21.4407 116.094 21.4981C116.136 21.5542 116.163 21.6148 116.176 21.6798L116.229 21.3508H116.604V23.164C116.604 23.3604 116.571 23.5294 116.505 23.6709C116.438 23.8137 116.34 23.9228 116.21 23.998C116.08 24.0745 115.921 24.1128 115.732 24.1128C115.593 24.1128 115.467 24.0955 115.353 24.0611C115.241 24.028 115.148 23.9891 115.074 23.9444L115.288 23.5848ZM115.774 22.9039C115.886 22.9039 115.974 22.8516 116.036 22.7471C116.099 22.6412 116.13 22.4921 116.13 22.2995C116.13 22.1108 116.101 21.9622 116.044 21.8538C115.988 21.7455 115.903 21.6913 115.789 21.6913C115.719 21.6913 115.655 21.7117 115.596 21.7525C115.538 21.7933 115.49 21.8596 115.453 21.9514C115.417 22.0419 115.399 22.1592 115.399 22.3033C115.399 22.5023 115.433 22.6521 115.501 22.7528C115.569 22.8536 115.661 22.9039 115.774 22.9039ZM117.93 23.3056C117.725 23.3056 117.555 23.2622 117.421 23.1755C117.287 23.0875 117.189 22.9702 117.127 22.8236C117.066 22.6769 117.035 22.5112 117.035 22.3263C117.035 22.1376 117.069 21.9661 117.138 21.8118C117.208 21.6562 117.31 21.5331 117.444 21.4426C117.578 21.3508 117.738 21.3049 117.923 21.3049C118.198 21.3049 118.395 21.3846 118.514 21.544C118.632 21.7021 118.691 21.9386 118.691 22.2536C118.691 22.3148 118.689 22.3837 118.684 22.4602H117.536C117.544 22.6145 117.587 22.7337 117.664 22.8178C117.743 22.9007 117.859 22.9422 118.011 22.9422C118.09 22.9422 118.174 22.925 118.265 22.8905C118.355 22.8548 118.422 22.8121 118.466 22.7624L118.619 23.1258C118.439 23.2457 118.209 23.3056 117.93 23.3056ZM118.206 22.1618C118.206 21.9743 118.182 21.8456 118.135 21.7754C118.089 21.704 118.022 21.6683 117.934 21.6683C117.81 21.6683 117.714 21.7142 117.645 21.806C117.578 21.8978 117.54 22.0164 117.532 22.1618H118.206ZM121.26 21.3049C121.448 21.3049 121.589 21.3655 121.685 21.4866C121.782 21.6065 121.83 21.7767 121.83 21.9973V23.2559H121.345V22.047C121.345 21.9361 121.323 21.8494 121.28 21.7869C121.237 21.7231 121.172 21.6913 121.084 21.6913C121.024 21.6913 120.967 21.7066 120.912 21.7372C120.859 21.7678 120.815 21.8105 120.782 21.8653C120.749 21.9189 120.732 21.9794 120.732 22.047V23.2559H120.243V22.047C120.243 21.9386 120.219 21.8513 120.17 21.785C120.123 21.7174 120.055 21.6836 119.967 21.6836C119.906 21.6836 119.85 21.6996 119.799 21.7314C119.748 21.762 119.707 21.8054 119.677 21.8615C119.646 21.9163 119.631 21.9782 119.631 22.047V23.2559H119.141V21.3508H119.581L119.593 21.6033C119.721 21.4044 119.909 21.3049 120.155 21.3049C120.282 21.3049 120.389 21.333 120.474 21.3891C120.561 21.4452 120.626 21.5268 120.669 21.6339C120.799 21.4146 120.996 21.3049 121.26 21.3049ZM123.153 23.3056C122.947 23.3056 122.778 23.2622 122.644 23.1755C122.51 23.0875 122.412 22.9702 122.349 22.8236C122.288 22.6769 122.258 22.5112 122.258 22.3263C122.258 22.1376 122.292 21.9661 122.361 21.8118C122.431 21.6562 122.533 21.5331 122.667 21.4426C122.801 21.3508 122.96 21.3049 123.145 21.3049C123.421 21.3049 123.618 21.3846 123.736 21.544C123.855 21.7021 123.914 21.9386 123.914 22.2536C123.914 22.3148 123.911 22.3837 123.906 22.4602H122.759C122.766 22.6145 122.809 22.7337 122.887 22.8178C122.966 22.9007 123.081 22.9422 123.233 22.9422C123.312 22.9422 123.397 22.925 123.487 22.8905C123.578 22.8548 123.645 22.8121 123.688 22.7624L123.841 23.1258C123.662 23.2457 123.432 23.3056 123.153 23.3056ZM123.428 22.1618C123.428 21.9743 123.405 21.8456 123.357 21.7754C123.312 21.704 123.245 21.6683 123.157 21.6683C123.033 21.6683 122.937 21.7142 122.868 21.806C122.8 21.8978 122.763 22.0164 122.755 22.1618H123.428ZM125.377 21.3049C125.567 21.3049 125.71 21.3655 125.806 21.4866C125.903 21.6065 125.951 21.7767 125.951 21.9973V23.2559H125.462V22.0394C125.462 21.931 125.439 21.8449 125.393 21.7812C125.347 21.7161 125.279 21.6836 125.19 21.6836C125.13 21.6836 125.074 21.6989 125.022 21.7295C124.971 21.7601 124.93 21.8028 124.899 21.8577C124.869 21.9112 124.853 21.9718 124.853 22.0394V23.2559H124.364V21.3508H124.807L124.817 21.6014C124.948 21.4037 125.135 21.3049 125.377 21.3049ZM127.128 23.3132C126.986 23.3132 126.875 23.289 126.795 23.2406C126.715 23.1921 126.658 23.1194 126.625 23.0225C126.593 22.9243 126.577 22.7955 126.577 22.6361V21.7525H126.328V21.3508H126.596L126.623 20.9491L127.04 20.7693V21.3508H127.51V21.7525H127.04V22.6247C127.04 22.7318 127.055 22.8076 127.084 22.8523C127.113 22.8969 127.157 22.9192 127.216 22.9192C127.268 22.9192 127.325 22.9058 127.386 22.8791C127.449 22.851 127.5 22.8198 127.541 22.7853L127.633 23.1717C127.577 23.2112 127.496 23.2444 127.39 23.2712C127.285 23.2992 127.198 23.3132 127.128 23.3132ZM129.404 23.2979C129.286 23.2979 129.174 23.2839 129.068 23.2559C128.963 23.2278 128.871 23.1915 128.792 23.1468C128.713 23.1022 128.651 23.0557 128.605 23.0072L128.8 22.6055C128.829 22.6438 128.874 22.6846 128.934 22.728C128.994 22.7713 129.062 22.8083 129.139 22.8389C129.216 22.8695 129.293 22.8848 129.37 22.8848C129.471 22.8848 129.555 22.8574 129.622 22.8025C129.691 22.7464 129.726 22.668 129.726 22.5673C129.726 22.5023 129.71 22.4461 129.678 22.399C129.647 22.3505 129.606 22.3078 129.554 22.2708C129.503 22.2326 129.424 22.1809 129.316 22.1159C129.17 22.0266 129.055 21.9508 128.972 21.8883C128.889 21.8245 128.817 21.7416 128.756 21.6396C128.696 21.5363 128.666 21.412 128.666 21.2666C128.666 21.1251 128.696 21.0001 128.756 20.8918C128.817 20.7821 128.907 20.6967 129.026 20.6355C129.144 20.5742 129.287 20.5436 129.454 20.5436C129.726 20.5436 129.953 20.6265 130.135 20.7923L129.921 21.1825C129.899 21.1519 129.867 21.1187 129.823 21.083C129.78 21.046 129.728 21.0148 129.666 20.9893C129.605 20.9625 129.541 20.9491 129.473 20.9491C129.375 20.9491 129.299 20.9778 129.244 21.0352C129.19 21.0913 129.163 21.1621 129.163 21.2475C129.163 21.3125 129.179 21.3706 129.211 21.4216C129.244 21.4713 129.287 21.5159 129.339 21.5555C129.393 21.595 129.464 21.6415 129.554 21.6951C129.716 21.7907 129.839 21.8711 129.925 21.9361C130.01 22.0011 130.082 22.084 130.139 22.1847C130.198 22.2842 130.227 22.4066 130.227 22.552C130.227 22.7063 130.194 22.8395 130.127 22.9517C130.061 23.064 129.966 23.15 129.842 23.21C129.719 23.2686 129.573 23.2979 129.404 23.2979ZM131.401 23.2941C131.215 23.2941 131.056 23.2546 130.925 23.1755C130.793 23.0965 130.693 22.983 130.624 22.8351C130.556 22.6859 130.521 22.5074 130.521 22.2995C130.521 22.0917 130.556 21.9131 130.626 21.7639C130.698 21.6148 130.8 21.5013 130.934 21.4235C131.069 21.3444 131.23 21.3049 131.416 21.3049C131.601 21.3049 131.758 21.3457 131.887 21.4273C132.017 21.5076 132.115 21.6224 132.181 21.7716C132.248 21.9208 132.281 22.0968 132.281 22.2995C132.281 22.501 132.246 22.6769 132.177 22.8274C132.109 22.9766 132.008 23.092 131.875 23.1736C131.744 23.2539 131.586 23.2941 131.401 23.2941ZM131.409 22.9116C131.527 22.9116 131.617 22.8599 131.678 22.7566C131.741 22.6534 131.772 22.501 131.772 22.2995C131.772 22.0968 131.741 21.9437 131.678 21.8405C131.617 21.7359 131.527 21.6836 131.409 21.6836C131.284 21.6836 131.189 21.7327 131.126 21.8309C131.062 21.9291 131.03 22.0853 131.03 22.2995C131.03 22.5137 131.062 22.6693 131.126 22.7662C131.189 22.8631 131.284 22.9116 131.409 22.9116ZM132.751 21.7525H132.495V21.3508H132.751V20.9989C132.751 20.8165 132.785 20.6724 132.852 20.5666C132.92 20.4608 133.002 20.3881 133.099 20.3485C133.196 20.3077 133.296 20.2873 133.398 20.2873C133.506 20.2873 133.594 20.2969 133.662 20.316C133.73 20.3352 133.774 20.3536 133.792 20.3715V20.7885C133.765 20.7553 133.723 20.7292 133.667 20.71C133.612 20.6909 133.562 20.6814 133.516 20.6814C133.315 20.6814 133.214 20.7834 133.214 20.9874V21.3508H133.677V21.7525H133.214V23.2559H132.751V21.7525ZM134.685 23.3132C134.544 23.3132 134.433 23.289 134.353 23.2406C134.272 23.1921 134.215 23.1194 134.182 23.0225C134.15 22.9243 134.134 22.7955 134.134 22.6361V21.7525H133.886V21.3508H134.154L134.18 20.9491L134.597 20.7693V21.3508H135.068V21.7525H134.597V22.6247C134.597 22.7318 134.612 22.8076 134.641 22.8523C134.671 22.8969 134.715 22.9192 134.773 22.9192C134.826 22.9192 134.882 22.9058 134.944 22.8791C135.006 22.851 135.058 22.8198 135.098 22.7853L135.19 23.1717C135.134 23.2112 135.053 23.2444 134.947 23.2712C134.843 23.2992 134.755 23.3132 134.685 23.3132ZM135.285 21.3508H135.771L136 22.2574L136.099 22.6591L136.184 22.2574L136.432 21.3508H136.83L137.094 22.2574L137.194 22.6591L137.282 22.2574L137.503 21.3508H137.974L137.373 23.2559H136.987L136.681 22.2192L136.62 21.9093L136.559 22.2192L136.275 23.2559H135.893L135.285 21.3508ZM138.662 23.3094C138.548 23.3094 138.453 23.2839 138.375 23.2329C138.297 23.1819 138.239 23.113 138.199 23.0263C138.161 22.9396 138.142 22.8427 138.142 22.7356C138.142 22.6425 138.172 22.5501 138.233 22.4583C138.296 22.3652 138.406 22.2861 138.564 22.2211C138.722 22.1561 138.936 22.1235 139.205 22.1235V22.0356C139.205 21.931 139.18 21.85 139.129 21.7926C139.079 21.7353 138.991 21.7066 138.865 21.7066C138.765 21.7066 138.668 21.7238 138.572 21.7582C138.478 21.7914 138.408 21.8328 138.364 21.8825L138.211 21.5153C138.297 21.4566 138.405 21.4069 138.534 21.3661C138.663 21.3253 138.8 21.3049 138.945 21.3049C139.127 21.3049 139.271 21.333 139.377 21.3891C139.484 21.4452 139.56 21.5242 139.603 21.6262C139.646 21.7282 139.668 21.8545 139.668 22.0049V23.2559H139.259L139.224 22.9843C139.157 23.0939 139.076 23.1755 138.983 23.2291C138.891 23.2826 138.784 23.3094 138.662 23.3094ZM138.865 22.9422C138.923 22.9422 138.985 22.9186 139.05 22.8714C139.115 22.8242 139.167 22.7649 139.205 22.6935V22.4219C139.187 22.4194 139.157 22.4181 139.113 22.4181C138.985 22.4181 138.869 22.4398 138.767 22.4831C138.666 22.5252 138.616 22.5941 138.616 22.6897C138.616 22.7802 138.636 22.8453 138.675 22.8848C138.716 22.923 138.779 22.9422 138.865 22.9422ZM140.162 21.3508H140.594L140.617 21.6874C140.658 21.5893 140.722 21.5051 140.81 21.435C140.898 21.3636 141.022 21.3279 141.183 21.3279C141.247 21.3279 141.306 21.3381 141.359 21.3585L141.252 21.8596C141.23 21.8379 141.204 21.8226 141.174 21.8137C141.144 21.8035 141.108 21.7984 141.065 21.7984C140.975 21.7984 140.898 21.8175 140.833 21.8558C140.769 21.8927 140.721 21.9361 140.688 21.9858C140.656 22.0356 140.64 22.0764 140.64 22.1082V23.2559H140.162V21.3508ZM142.377 23.3056C142.172 23.3056 142.002 23.2622 141.868 23.1755C141.734 23.0875 141.636 22.9702 141.574 22.8236C141.512 22.6769 141.482 22.5112 141.482 22.3263C141.482 22.1376 141.516 21.9661 141.585 21.8118C141.655 21.6562 141.757 21.5331 141.891 21.4426C142.025 21.3508 142.184 21.3049 142.369 21.3049C142.645 21.3049 142.842 21.3846 142.96 21.544C143.079 21.7021 143.138 21.9386 143.138 22.2536C143.138 22.3148 143.136 22.3837 143.131 22.4602H141.983C141.991 22.6145 142.033 22.7337 142.111 22.8178C142.19 22.9007 142.306 22.9422 142.457 22.9422C142.536 22.9422 142.621 22.925 142.712 22.8905C142.802 22.8548 142.869 22.8121 142.913 22.7624L143.066 23.1258C142.886 23.2457 142.656 23.3056 142.377 23.3056ZM142.652 22.1618C142.652 21.9743 142.629 21.8456 142.582 21.7754C142.536 21.704 142.469 21.6683 142.381 21.6683C142.257 21.6683 142.161 21.7142 142.092 21.806C142.024 21.8978 141.987 22.0164 141.979 22.1618H142.652Z" fill="#504D55"/>
<path d="M93.7241 8.4504C93.4579 8.62336 93.1017 8.54299 92.9119 8.28825C91.3739 6.22362 88.8924 5.17589 86.4039 5.34902C86.0043 5.37683 85.8065 5.81866 86.019 6.1568L88.3563 9.87429C88.4463 10.0174 88.4027 10.2056 88.2589 10.2946C88.1151 10.3835 87.9255 10.3397 87.8355 10.1965L85.1654 5.94978C85.0324 5.7382 84.775 5.6359 84.5372 5.71418C83.9697 5.90099 83.4146 6.15689 82.8839 6.48519C82.312 6.83901 81.8043 7.25548 81.3627 7.71881C81.193 7.8968 81.1751 8.1667 81.3062 8.37524L83.959 12.5946C84.049 12.7377 84.0054 12.9259 83.8615 13.0149C83.7177 13.1039 83.5282 13.06 83.4382 12.9168L81.1355 9.25439C80.9206 8.91264 80.4271 8.89882 80.231 9.25024C79.0468 11.3719 78.9355 13.9876 80.1105 16.2225C80.2558 16.499 80.1774 16.8459 79.9116 17.0103L79.4324 17.3068C79.1666 17.4712 79.086 17.819 79.2523 18.0836L79.3787 18.2847C79.5451 18.5492 79.8954 18.6304 80.1612 18.466L94.822 9.39643C95.0877 9.23201 95.1684 8.88423 95.002 8.61965L94.8638 8.39977C94.6948 8.13102 94.3368 8.05221 94.0707 8.22516L93.7241 8.4504Z" fill="#DE0C0C"/>
<path d="M85.0419 17.4037C86.1813 19.1309 88.539 19.6156 90.3325 18.5062C92.1308 17.3938 92.7591 14.9601 91.5779 13.17C91.5719 13.1608 91.5637 13.1493 91.5505 13.1309C91.3729 12.881 91.0322 12.8047 90.7715 12.9659L85.1192 16.4622C84.8587 16.6234 84.7735 16.9628 84.9309 17.2257C84.9747 17.2988 85.0063 17.3497 85.0419 17.4037Z" fill="#DE0C0C"/>
<path d="M95.4908 13.0341C95.4113 12.7806 95.5001 12.5011 95.7234 12.3564L96.3878 11.926C96.6502 11.756 96.7233 11.4063 96.5511 11.1452L96.0553 10.3938C95.8865 10.1378 95.5436 10.0613 95.2821 10.2213L92.31 12.0384C92.0576 12.1926 92.0184 12.5241 92.181 12.7711C93.5831 14.8964 92.8532 17.791 90.7139 19.1143C88.5872 20.4298 85.7878 19.8487 84.4312 17.7928C84.4064 17.7552 84.3831 17.7187 84.3612 17.683C84.1769 17.3836 83.7877 17.2487 83.4877 17.4321L80.6081 19.1928C80.3364 19.359 80.2569 19.7156 80.4323 19.9815L81.1755 21.1081C81.3476 21.3688 81.6993 21.4425 81.9613 21.2727L82.6144 20.8495C82.8362 20.7058 83.1277 20.7359 83.3294 20.9077C83.769 21.2819 84.2474 21.6009 84.7531 21.8627C84.9927 21.9866 85.1295 22.2511 85.0718 22.5127L84.9137 23.2289C84.8456 23.5377 85.0465 23.8425 85.359 23.9045L87.3838 24.3058C87.6867 24.3659 87.9817 24.1746 88.0477 23.8752L88.2143 23.1205C88.2705 22.8655 88.4961 22.6851 88.7583 22.6653C89.3371 22.6217 89.9173 22.5098 90.4825 22.3301C90.7407 22.248 91.0275 22.3396 91.1735 22.5673L91.5382 23.1363C91.7064 23.3987 92.0561 23.4773 92.3203 23.312L94.1081 22.194C94.3763 22.0263 94.4533 21.6724 94.2791 21.4083L93.8802 20.8036C93.7334 20.581 93.7643 20.2886 93.9407 20.0892C94.3346 19.6437 94.6714 19.1597 94.9484 18.6491C95.072 18.4212 95.3274 18.2912 95.5834 18.3419L96.3533 18.4945C96.6562 18.5546 96.9512 18.3633 97.0173 18.0639L97.4574 16.0698C97.5259 15.7595 97.3227 15.4534 97.0082 15.3934L96.2795 15.2543C96.011 15.2031 95.8192 14.969 95.8015 14.698C95.765 14.1383 95.6614 13.5785 95.4908 13.0341Z" fill="#504D55"/>
</svg>
