<svg width="271" height="325" viewBox="0 0 271 325" fill="none" xmlns="http://www.w3.org/2000/svg">
<path d="M177.218 45.242C196.398 52.2301 224.71 54.9041 237.732 68.5207C250.456 82.3853 247.622 107.162 240.417 130.029C233.511 152.648 221.934 173.604 205.323 186.652C188.711 199.7 167.299 205.148 147.419 204.285C127.507 203.7 109.393 196.833 88.9885 191.115C68.317 185.367 45.3544 180.767 29.9658 166.597C14.3107 152.397 6.49612 128.659 9.24604 106.975C11.7613 84.982 25.1394 64.7956 38.9986 47.4844C52.8578 30.1733 67.4327 16.0464 83.9204 11.1632C100.408 6.28008 119.043 10.9496 133.533 18.8115C147.725 26.9213 157.772 38.2235 177.218 45.242Z" fill="#F66464"/>
<rect x="6" y="181" width="258" height="144" rx="28" fill="#EFEDED"/>
<path d="M44.0533 214.8C45.2053 214.8 46.2293 215.072 47.1253 215.616C48.0319 216.16 48.6986 216.944 49.1253 217.968H47.3653C47.0453 217.36 46.5973 216.896 46.0213 216.576C45.4453 216.256 44.7893 216.096 44.0533 216.096C43.2639 216.096 42.5493 216.277 41.9093 216.64C41.2799 216.992 40.7839 217.499 40.4213 218.16C40.0693 218.821 39.8932 219.584 39.8932 220.448C39.8932 221.312 40.0693 222.075 40.4213 222.736C40.7839 223.397 41.2799 223.909 41.9093 224.272C42.5493 224.635 43.2639 224.816 44.0533 224.816C44.7893 224.816 45.4453 224.656 46.0213 224.336C46.5973 224.005 47.0453 223.536 47.3653 222.928H49.1253C48.6986 223.952 48.0319 224.736 47.1253 225.28C46.2293 225.824 45.2053 226.096 44.0533 226.096C43.0186 226.096 42.0693 225.856 41.2053 225.376C40.3413 224.885 39.6586 224.213 39.1573 223.36C38.6559 222.496 38.4053 221.525 38.4053 220.448C38.4053 219.36 38.6559 218.389 39.1573 217.536C39.6586 216.672 40.3413 216 41.2053 215.52C42.0693 215.04 43.0186 214.8 44.0533 214.8ZM59.0668 217.216V226H57.6108V224.592C57.3228 225.104 56.9281 225.493 56.4268 225.76C55.9254 226.016 55.3654 226.144 54.7468 226.144C54.1174 226.144 53.5414 226.005 53.0188 225.728C52.5068 225.44 52.0961 225.019 51.7868 224.464C51.4881 223.909 51.3388 223.232 51.3388 222.432V217.216H52.7788V222.192C52.7788 223.067 52.9921 223.739 53.4188 224.208C53.8561 224.667 54.4481 224.896 55.1948 224.896C55.9414 224.896 56.5281 224.667 56.9548 224.208C57.3921 223.739 57.6108 223.067 57.6108 222.192V217.216H59.0668ZM62.9216 218.704C63.4443 217.616 64.335 217.072 65.5936 217.072V218.592H65.2096C64.463 218.592 63.8923 218.789 63.4976 219.184C63.1136 219.568 62.9216 220.24 62.9216 221.2V226H61.4656V217.216H62.9216V218.704ZM68.8123 218.704C69.3349 217.616 70.2256 217.072 71.4843 217.072V218.592H71.1003C70.3536 218.592 69.7829 218.789 69.3883 219.184C69.0043 219.568 68.8123 220.24 68.8123 221.2V226H67.3563V217.216H68.8123V218.704ZM81.2149 221.248C81.2149 221.557 81.1935 221.845 81.1509 222.112H74.1589C74.2015 222.987 74.4735 223.68 74.9749 224.192C75.4869 224.693 76.1375 224.944 76.9269 224.944C77.5242 224.944 78.0255 224.811 78.4309 224.544C78.8469 224.277 79.1509 223.925 79.3429 223.488H80.9109C80.6335 224.256 80.1535 224.891 79.4709 225.392C78.7989 225.893 77.9509 226.144 76.9269 226.144C76.1055 226.144 75.3695 225.957 74.7189 225.584C74.0789 225.211 73.5775 224.683 73.2149 224C72.8522 223.307 72.6709 222.512 72.6709 221.616C72.6709 220.709 72.8522 219.915 73.2149 219.232C73.5775 218.539 74.0895 218.005 74.7509 217.632C75.4122 217.259 76.1749 217.072 77.0389 217.072C77.8602 217.072 78.5855 217.253 79.2149 217.616C79.8442 217.979 80.3349 218.475 80.6869 219.104C81.0389 219.733 81.2149 220.448 81.2149 221.248ZM79.6949 221.056C79.6949 220.491 79.5722 220 79.3269 219.584C79.0815 219.157 78.7455 218.832 78.3189 218.608C77.9029 218.384 77.4389 218.272 76.9269 218.272C76.1695 218.272 75.5349 218.523 75.0229 219.024C74.5109 219.515 74.2282 220.192 74.1749 221.056H79.6949ZM87.3481 217.072C87.9775 217.072 88.5481 217.216 89.0601 217.504C89.5828 217.781 89.9935 218.203 90.2921 218.768C90.6015 219.323 90.7561 220 90.7561 220.8V226H89.3161V221.04C89.3161 220.155 89.1028 219.483 88.6761 219.024C88.2495 218.565 87.6575 218.336 86.9001 218.336C86.1535 218.336 85.5615 218.565 85.1241 219.024C84.6975 219.483 84.4841 220.155 84.4841 221.04V226H83.0281V217.216H84.4841V218.64C84.7721 218.128 85.1668 217.739 85.6681 217.472C86.1695 217.205 86.7295 217.072 87.3481 217.072ZM97.155 224.816V226H95.683C94.9363 226 94.3657 225.819 93.971 225.456C93.587 225.093 93.395 224.523 93.395 223.744V218.4H92.259V217.216H93.395V215.04H94.867V217.216H97.139V218.4H94.867V223.744C94.867 224.139 94.947 224.416 95.107 224.576C95.267 224.736 95.5497 224.816 95.955 224.816H97.155ZM100.219 214.16V226H98.7625V214.16H100.219ZM103.214 217.216L105.902 224.32L108.638 217.216H110.142L104.846 230.112H103.342L105.086 225.856L101.614 217.216H103.214ZM116.917 217.216L119.605 224.32L122.341 217.216H123.845L118.549 230.112H117.045L118.789 225.856L115.317 217.216H116.917ZM129.087 217.072C129.919 217.072 130.671 217.259 131.343 217.632C132.015 218.005 132.543 218.539 132.927 219.232C133.322 219.925 133.519 220.72 133.519 221.616C133.519 222.501 133.317 223.291 132.911 223.984C132.506 224.667 131.957 225.2 131.263 225.584C130.57 225.957 129.802 226.144 128.959 226.144C128.138 226.144 127.397 225.957 126.735 225.584C126.085 225.211 125.573 224.683 125.199 224C124.837 223.307 124.655 222.512 124.655 221.616C124.655 220.709 124.847 219.915 125.231 219.232C125.626 218.539 126.159 218.005 126.831 217.632C127.503 217.259 128.255 217.072 129.087 217.072ZM129.039 218.272C128.506 218.272 128.021 218.4 127.583 218.656C127.146 218.912 126.794 219.291 126.527 219.792C126.271 220.293 126.143 220.901 126.143 221.616C126.143 222.32 126.266 222.923 126.511 223.424C126.767 223.925 127.109 224.304 127.535 224.56C127.962 224.816 128.437 224.944 128.959 224.944C129.493 224.944 129.989 224.816 130.447 224.56C130.917 224.293 131.295 223.909 131.583 223.408C131.871 222.907 132.015 222.309 132.015 221.616C132.015 220.912 131.877 220.309 131.599 219.808C131.333 219.296 130.97 218.912 130.511 218.656C130.063 218.4 129.573 218.272 129.039 218.272ZM142.989 217.216V226H141.533V224.592C141.245 225.104 140.85 225.493 140.349 225.76C139.847 226.016 139.287 226.144 138.669 226.144C138.039 226.144 137.463 226.005 136.941 225.728C136.429 225.44 136.018 225.019 135.709 224.464C135.41 223.909 135.261 223.232 135.261 222.432V217.216H136.701V222.192C136.701 223.067 136.914 223.739 137.341 224.208C137.778 224.667 138.37 224.896 139.117 224.896C139.863 224.896 140.45 224.667 140.877 224.208C141.314 223.739 141.533 223.067 141.533 222.192V217.216H142.989ZM153.8 217.072C154.547 217.072 155.198 217.248 155.752 217.6C156.318 217.952 156.744 218.411 157.032 218.976V214.16H158.504V226H157.032V224.208C156.744 224.784 156.318 225.253 155.752 225.616C155.198 225.968 154.547 226.144 153.8 226.144C153.011 226.144 152.296 225.952 151.656 225.568C151.027 225.173 150.526 224.629 150.152 223.936C149.79 223.232 149.608 222.437 149.608 221.552C149.608 220.667 149.79 219.888 150.152 219.216C150.526 218.533 151.027 218.005 151.656 217.632C152.296 217.259 153.011 217.072 153.8 217.072ZM154.056 218.336C153.534 218.336 153.043 218.464 152.584 218.72C152.136 218.976 151.774 219.349 151.496 219.84C151.23 220.32 151.096 220.891 151.096 221.552C151.096 222.213 151.23 222.8 151.496 223.312C151.774 223.813 152.136 224.203 152.584 224.48C153.043 224.757 153.534 224.896 154.056 224.896C154.59 224.896 155.08 224.763 155.528 224.496C155.987 224.229 156.35 223.851 156.616 223.36C156.894 222.859 157.032 222.277 157.032 221.616C157.032 220.955 156.894 220.379 156.616 219.888C156.35 219.387 155.987 219.003 155.528 218.736C155.08 218.469 154.59 218.336 154.056 218.336ZM164.759 217.072C165.591 217.072 166.343 217.259 167.015 217.632C167.687 218.005 168.215 218.539 168.599 219.232C168.994 219.925 169.191 220.72 169.191 221.616C169.191 222.501 168.988 223.291 168.583 223.984C168.178 224.667 167.628 225.2 166.935 225.584C166.242 225.957 165.474 226.144 164.631 226.144C163.81 226.144 163.068 225.957 162.407 225.584C161.756 225.211 161.244 224.683 160.871 224C160.508 223.307 160.327 222.512 160.327 221.616C160.327 220.709 160.519 219.915 160.903 219.232C161.298 218.539 161.831 218.005 162.503 217.632C163.175 217.259 163.927 217.072 164.759 217.072ZM164.711 218.272C164.178 218.272 163.692 218.4 163.255 218.656C162.818 218.912 162.466 219.291 162.199 219.792C161.943 220.293 161.815 220.901 161.815 221.616C161.815 222.32 161.938 222.923 162.183 223.424C162.439 223.925 162.78 224.304 163.207 224.56C163.634 224.816 164.108 224.944 164.631 224.944C165.164 224.944 165.66 224.816 166.119 224.56C166.588 224.293 166.967 223.909 167.255 223.408C167.543 222.907 167.687 222.309 167.687 221.616C167.687 220.912 167.548 220.309 167.271 219.808C167.004 219.296 166.642 218.912 166.183 218.656C165.735 218.4 165.244 218.272 164.711 218.272ZM175.333 217.072C175.962 217.072 176.533 217.216 177.045 217.504C177.567 217.781 177.978 218.203 178.277 218.768C178.586 219.323 178.741 220 178.741 220.8V226H177.301V221.04C177.301 220.155 177.087 219.483 176.661 219.024C176.234 218.565 175.642 218.336 174.885 218.336C174.138 218.336 173.546 218.565 173.109 219.024C172.682 219.483 172.469 220.155 172.469 221.04V226H171.013V217.216H172.469V218.64C172.757 218.128 173.151 217.739 173.653 217.472C174.154 217.205 174.714 217.072 175.333 217.072ZM181.715 213.472C181.843 214.027 181.907 214.517 181.907 214.944C181.907 215.573 181.769 216.032 181.491 216.32C181.225 216.608 180.825 216.752 180.291 216.752V216.048C180.547 216.048 180.734 215.984 180.851 215.856C180.979 215.717 181.043 215.504 181.043 215.216V214.848H180.259V213.472H181.715ZM187.577 224.816V226H186.105C185.358 226 184.788 225.819 184.393 225.456C184.009 225.093 183.817 224.523 183.817 223.744V218.4H182.681V217.216H183.817V215.04H185.289V217.216H187.561V218.4H185.289V223.744C185.289 224.139 185.369 224.416 185.529 224.576C185.689 224.736 185.972 224.816 186.377 224.816H187.577ZM198.301 217.072C198.931 217.072 199.501 217.216 200.013 217.504C200.536 217.781 200.947 218.203 201.245 218.768C201.555 219.323 201.709 220 201.709 220.8V226H200.269V221.04C200.269 220.155 200.056 219.483 199.629 219.024C199.203 218.565 198.611 218.336 197.853 218.336C197.107 218.336 196.515 218.565 196.077 219.024C195.651 219.483 195.437 220.155 195.437 221.04V226H193.981V214.16H195.437V218.64C195.725 218.128 196.12 217.739 196.621 217.472C197.123 217.205 197.683 217.072 198.301 217.072ZM207.644 217.072C208.391 217.072 209.041 217.248 209.596 217.6C210.161 217.952 210.588 218.411 210.876 218.976V217.216H212.348V226H210.876V224.208C210.588 224.784 210.161 225.253 209.596 225.616C209.041 225.968 208.391 226.144 207.644 226.144C206.855 226.144 206.14 225.952 205.5 225.568C204.871 225.173 204.369 224.629 203.996 223.936C203.633 223.232 203.452 222.437 203.452 221.552C203.452 220.667 203.633 219.888 203.996 219.216C204.369 218.533 204.871 218.005 205.5 217.632C206.14 217.259 206.855 217.072 207.644 217.072ZM207.9 218.336C207.377 218.336 206.887 218.464 206.428 218.72C205.98 218.976 205.617 219.349 205.34 219.84C205.073 220.32 204.94 220.891 204.94 221.552C204.94 222.213 205.073 222.8 205.34 223.312C205.617 223.813 205.98 224.203 206.428 224.48C206.887 224.757 207.377 224.896 207.9 224.896C208.433 224.896 208.924 224.763 209.372 224.496C209.831 224.229 210.193 223.851 210.46 223.36C210.737 222.859 210.876 222.277 210.876 221.616C210.876 220.955 210.737 220.379 210.46 219.888C210.193 219.387 209.831 219.003 209.372 218.736C208.924 218.469 208.433 218.336 207.9 218.336ZM217.979 224.64L220.683 217.216H222.251L218.811 226H217.163L213.739 217.216H215.291L217.979 224.64ZM231.606 221.248C231.606 221.557 231.584 221.845 231.542 222.112H224.549C224.592 222.987 224.864 223.68 225.366 224.192C225.878 224.693 226.528 224.944 227.318 224.944C227.915 224.944 228.416 224.811 228.822 224.544C229.238 224.277 229.542 223.925 229.734 223.488H231.302C231.024 224.256 230.544 224.891 229.862 225.392C229.19 225.893 228.342 226.144 227.318 226.144C226.496 226.144 225.76 225.957 225.11 225.584C224.47 225.211 223.968 224.683 223.606 224C223.243 223.307 223.062 222.512 223.062 221.616C223.062 220.709 223.243 219.915 223.606 219.232C223.968 218.539 224.48 218.005 225.142 217.632C225.803 217.259 226.566 217.072 227.43 217.072C228.251 217.072 228.976 217.253 229.606 217.616C230.235 217.979 230.726 218.475 231.078 219.104C231.43 219.733 231.606 220.448 231.606 221.248ZM230.086 221.056C230.086 220.491 229.963 220 229.718 219.584C229.472 219.157 229.136 218.832 228.71 218.608C228.294 218.384 227.83 218.272 227.318 218.272C226.56 218.272 225.926 218.523 225.414 219.024C224.902 219.515 224.619 220.192 224.566 221.056H230.086ZM65.1351 246.896C65.1351 247.451 64.9911 247.973 64.7031 248.464C64.4151 248.955 63.9885 249.355 63.4231 249.664C62.8578 249.963 62.1805 250.112 61.3911 250.112C60.6871 250.112 60.0525 250 59.4871 249.776C58.9218 249.541 58.4738 249.211 58.1431 248.784C57.8231 248.347 57.6631 247.829 57.6631 247.232H59.2151C59.2578 247.733 59.4551 248.139 59.8071 248.448C60.1698 248.757 60.6978 248.912 61.3911 248.912C62.1058 248.912 62.6711 248.731 63.0871 248.368C63.5031 248.005 63.7111 247.541 63.7111 246.976C63.7111 246.549 63.5938 246.213 63.3591 245.968C63.1245 245.712 62.8311 245.52 62.4791 245.392C62.1271 245.264 61.6578 245.136 61.0711 245.008C60.3351 244.837 59.7378 244.661 59.2791 244.48C58.8311 244.299 58.4471 244.005 58.1271 243.6C57.8178 243.195 57.6631 242.635 57.6631 241.92C57.6631 241.301 57.8125 240.757 58.1111 240.288C58.4098 239.819 58.8365 239.456 59.3911 239.2C59.9565 238.933 60.6125 238.8 61.3591 238.8C62.3725 238.8 63.1938 239.051 63.8231 239.552C64.4631 240.043 64.8311 240.725 64.9271 241.6H63.3111C63.2685 241.163 63.0605 240.789 62.6871 240.48C62.3245 240.171 61.8338 240.016 61.2151 240.016C60.5858 240.016 60.0738 240.176 59.6791 240.496C59.2845 240.805 59.0871 241.264 59.0871 241.872C59.0871 242.309 59.2045 242.656 59.4391 242.912C59.6738 243.168 59.9618 243.36 60.3031 243.488C60.6551 243.616 61.1405 243.749 61.7591 243.888C62.4845 244.059 63.0711 244.235 63.5191 244.416C63.9671 244.587 64.3458 244.869 64.6551 245.264C64.9751 245.659 65.1351 246.203 65.1351 246.896ZM74.9418 241.216V250H73.4858V248.592C73.1978 249.104 72.8031 249.493 72.3018 249.76C71.8004 250.016 71.2404 250.144 70.6218 250.144C69.9924 250.144 69.4164 250.005 68.8938 249.728C68.3818 249.44 67.9711 249.019 67.6618 248.464C67.3631 247.909 67.2138 247.232 67.2138 246.432V241.216H68.6538V246.192C68.6538 247.067 68.8671 247.739 69.2938 248.208C69.7311 248.667 70.3231 248.896 71.0698 248.896C71.8164 248.896 72.4031 248.667 72.8298 248.208C73.2671 247.739 73.4858 247.067 73.4858 246.192V241.216H74.9418ZM82.0446 241.072C82.834 241.072 83.5433 241.259 84.1726 241.632C84.8126 242.005 85.314 242.533 85.6766 243.216C86.05 243.888 86.2366 244.667 86.2366 245.552C86.2366 246.437 86.05 247.232 85.6766 247.936C85.314 248.629 84.8126 249.173 84.1726 249.568C83.5433 249.952 82.834 250.144 82.0446 250.144C81.298 250.144 80.642 249.968 80.0766 249.616C79.522 249.253 79.0953 248.784 78.7966 248.208V254.16H77.3406V241.216H78.7966V242.976C79.0953 242.411 79.522 241.952 80.0766 241.6C80.642 241.248 81.298 241.072 82.0446 241.072ZM81.7566 242.336C81.234 242.336 80.7433 242.469 80.2846 242.736C79.8366 243.003 79.474 243.387 79.1966 243.888C78.93 244.379 78.7966 244.955 78.7966 245.616C78.7966 246.277 78.93 246.859 79.1966 247.36C79.474 247.851 79.8366 248.229 80.2846 248.496C80.7433 248.763 81.234 248.896 81.7566 248.896C82.2793 248.896 82.77 248.763 83.2286 248.496C83.6873 248.219 84.05 247.824 84.3166 247.312C84.594 246.8 84.7326 246.213 84.7326 245.552C84.7326 244.891 84.594 244.32 84.3166 243.84C84.05 243.349 83.6873 242.976 83.2286 242.72C82.7806 242.464 82.29 242.336 81.7566 242.336ZM92.7634 241.072C93.5527 241.072 94.262 241.259 94.8914 241.632C95.5314 242.005 96.0327 242.533 96.3954 243.216C96.7687 243.888 96.9554 244.667 96.9554 245.552C96.9554 246.437 96.7687 247.232 96.3954 247.936C96.0327 248.629 95.5314 249.173 94.8914 249.568C94.262 249.952 93.5527 250.144 92.7634 250.144C92.0167 250.144 91.3607 249.968 90.7954 249.616C90.2407 249.253 89.814 248.784 89.5154 248.208V254.16H88.0594V241.216H89.5154V242.976C89.814 242.411 90.2407 241.952 90.7954 241.6C91.3607 241.248 92.0167 241.072 92.7634 241.072ZM92.4754 242.336C91.9527 242.336 91.462 242.469 91.0034 242.736C90.5554 243.003 90.1927 243.387 89.9154 243.888C89.6487 244.379 89.5154 244.955 89.5154 245.616C89.5154 246.277 89.6487 246.859 89.9154 247.36C90.1927 247.851 90.5554 248.229 91.0034 248.496C91.462 248.763 91.9527 248.896 92.4754 248.896C92.998 248.896 93.4887 248.763 93.9474 248.496C94.406 248.219 94.7687 247.824 95.0354 247.312C95.3127 246.8 95.4514 246.213 95.4514 245.552C95.4514 244.891 95.3127 244.32 95.0354 243.84C94.7687 243.349 94.406 242.976 93.9474 242.72C93.4994 242.464 93.0087 242.336 92.4754 242.336ZM100.234 238.16V250H98.7781V238.16H100.234ZM102.398 238.816C102.398 238.539 102.494 238.304 102.686 238.112C102.878 237.92 103.107 237.824 103.374 237.824C103.651 237.824 103.886 237.92 104.078 238.112C104.27 238.304 104.366 238.539 104.366 238.816C104.366 239.093 104.27 239.328 104.078 239.52C103.886 239.712 103.651 239.808 103.374 239.808C103.096 239.808 102.862 239.712 102.67 239.52C102.488 239.328 102.398 239.093 102.398 238.816ZM104.094 241.216V250H102.638V241.216H104.094ZM114.465 245.248C114.465 245.557 114.444 245.845 114.401 246.112H107.409C107.452 246.987 107.724 247.68 108.225 248.192C108.737 248.693 109.388 248.944 110.177 248.944C110.774 248.944 111.276 248.811 111.681 248.544C112.097 248.277 112.401 247.925 112.593 247.488H114.161C113.884 248.256 113.404 248.891 112.721 249.392C112.049 249.893 111.201 250.144 110.177 250.144C109.356 250.144 108.62 249.957 107.969 249.584C107.329 249.211 106.828 248.683 106.465 248C106.102 247.307 105.921 246.512 105.921 245.616C105.921 244.709 106.102 243.915 106.465 243.232C106.828 242.539 107.34 242.005 108.001 241.632C108.662 241.259 109.425 241.072 110.289 241.072C111.11 241.072 111.836 241.253 112.465 241.616C113.094 241.979 113.585 242.475 113.937 243.104C114.289 243.733 114.465 244.448 114.465 245.248ZM112.945 245.056C112.945 244.491 112.822 244 112.577 243.584C112.332 243.157 111.996 242.832 111.569 242.608C111.153 242.384 110.689 242.272 110.177 242.272C109.42 242.272 108.785 242.523 108.273 243.024C107.761 243.515 107.478 244.192 107.425 245.056H112.945ZM117.734 242.704C118.257 241.616 119.147 241.072 120.406 241.072V242.592H120.022C119.275 242.592 118.705 242.789 118.31 243.184C117.926 243.568 117.734 244.24 117.734 245.2V250H116.278V241.216H117.734V242.704ZM130.646 241.072C131.702 241.072 132.56 241.317 133.222 241.808C133.894 242.299 134.363 242.997 134.63 243.904H133.062C132.891 243.392 132.598 242.992 132.182 242.704C131.766 242.416 131.254 242.272 130.646 242.272C129.814 242.272 129.142 242.565 128.63 243.152C128.128 243.728 127.878 244.549 127.878 245.616C127.878 246.672 128.128 247.493 128.63 248.08C129.142 248.656 129.814 248.944 130.646 248.944C131.264 248.944 131.776 248.805 132.182 248.528C132.587 248.251 132.88 247.845 133.062 247.312H134.63C134.363 248.176 133.888 248.864 133.206 249.376C132.534 249.888 131.68 250.144 130.646 250.144C129.824 250.144 129.088 249.957 128.438 249.584C127.798 249.211 127.296 248.683 126.934 248C126.571 247.307 126.39 246.512 126.39 245.616C126.39 244.709 126.571 243.915 126.934 243.232C127.296 242.539 127.798 242.005 128.438 241.632C129.078 241.259 129.814 241.072 130.646 241.072ZM140.175 241.072C140.922 241.072 141.573 241.248 142.127 241.6C142.693 241.952 143.119 242.411 143.407 242.976V241.216H144.879V250H143.407V248.208C143.119 248.784 142.693 249.253 142.127 249.616C141.573 249.968 140.922 250.144 140.175 250.144C139.386 250.144 138.671 249.952 138.031 249.568C137.402 249.173 136.901 248.629 136.527 247.936C136.165 247.232 135.983 246.437 135.983 245.552C135.983 244.667 136.165 243.888 136.527 243.216C136.901 242.533 137.402 242.005 138.031 241.632C138.671 241.259 139.386 241.072 140.175 241.072ZM140.431 242.336C139.909 242.336 139.418 242.464 138.959 242.72C138.511 242.976 138.149 243.349 137.871 243.84C137.605 244.32 137.471 244.891 137.471 245.552C137.471 246.213 137.605 246.8 137.871 247.312C138.149 247.813 138.511 248.203 138.959 248.48C139.418 248.757 139.909 248.896 140.431 248.896C140.965 248.896 141.455 248.763 141.903 248.496C142.362 248.229 142.725 247.851 142.991 247.36C143.269 246.859 143.407 246.277 143.407 245.616C143.407 244.955 143.269 244.379 142.991 243.888C142.725 243.387 142.362 243.003 141.903 242.736C141.455 242.469 140.965 242.336 140.431 242.336ZM151.358 248.816V250H149.886C149.139 250 148.569 249.819 148.174 249.456C147.79 249.093 147.598 248.523 147.598 247.744V242.4H146.462V241.216H147.598V239.04H149.07V241.216H151.342V242.4H149.07V247.744C149.07 248.139 149.15 248.416 149.31 248.576C149.47 248.736 149.753 248.816 150.158 248.816H151.358ZM160.934 245.248C160.934 245.557 160.912 245.845 160.87 246.112H153.878C153.92 246.987 154.192 247.68 154.694 248.192C155.206 248.693 155.856 248.944 156.646 248.944C157.243 248.944 157.744 248.811 158.15 248.544C158.566 248.277 158.87 247.925 159.062 247.488H160.63C160.352 248.256 159.872 248.891 159.19 249.392C158.518 249.893 157.67 250.144 156.646 250.144C155.824 250.144 155.088 249.957 154.438 249.584C153.798 249.211 153.296 248.683 152.934 248C152.571 247.307 152.39 246.512 152.39 245.616C152.39 244.709 152.571 243.915 152.934 243.232C153.296 242.539 153.808 242.005 154.47 241.632C155.131 241.259 155.894 241.072 156.758 241.072C157.579 241.072 158.304 241.253 158.934 241.616C159.563 241.979 160.054 242.475 160.406 243.104C160.758 243.733 160.934 244.448 160.934 245.248ZM159.414 245.056C159.414 244.491 159.291 244 159.046 243.584C158.8 243.157 158.464 242.832 158.038 242.608C157.622 242.384 157.158 242.272 156.646 242.272C155.888 242.272 155.254 242.523 154.742 243.024C154.23 243.515 153.947 244.192 153.894 245.056H159.414ZM166.363 241.072C167.11 241.072 167.76 241.248 168.315 241.6C168.88 241.952 169.307 242.411 169.595 242.976V241.216H171.067V250.224C171.067 251.024 170.891 251.733 170.539 252.352C170.187 252.971 169.691 253.451 169.051 253.792C168.411 254.144 167.67 254.32 166.827 254.32C166.091 254.32 165.419 254.192 164.811 253.936C164.203 253.691 163.707 253.339 163.323 252.88C162.939 252.421 162.71 251.899 162.635 251.312H164.059C164.198 251.813 164.523 252.229 165.035 252.56C165.547 252.891 166.144 253.056 166.827 253.056C167.659 253.056 168.326 252.805 168.827 252.304C169.339 251.813 169.595 251.12 169.595 250.224V248.208C169.307 248.784 168.88 249.253 168.315 249.616C167.76 249.968 167.11 250.144 166.363 250.144C165.574 250.144 164.859 249.952 164.219 249.568C163.59 249.173 163.088 248.629 162.715 247.936C162.352 247.232 162.171 246.437 162.171 245.552C162.171 244.667 162.352 243.888 162.715 243.216C163.088 242.533 163.59 242.005 164.219 241.632C164.859 241.259 165.574 241.072 166.363 241.072ZM166.619 242.336C166.096 242.336 165.606 242.464 165.147 242.72C164.699 242.976 164.336 243.349 164.059 243.84C163.792 244.32 163.659 244.891 163.659 245.552C163.659 246.213 163.792 246.8 164.059 247.312C164.336 247.813 164.699 248.203 165.147 248.48C165.606 248.757 166.096 248.896 166.619 248.896C167.152 248.896 167.643 248.763 168.091 248.496C168.55 248.229 168.912 247.851 169.179 247.36C169.456 246.859 169.595 246.277 169.595 245.616C169.595 244.955 169.456 244.379 169.179 243.888C168.912 243.387 168.55 243.003 168.091 242.736C167.643 242.469 167.152 242.336 166.619 242.336ZM177.322 241.072C178.154 241.072 178.906 241.259 179.578 241.632C180.25 242.005 180.778 242.539 181.162 243.232C181.556 243.925 181.754 244.72 181.754 245.616C181.754 246.501 181.551 247.291 181.146 247.984C180.74 248.667 180.191 249.2 179.498 249.584C178.804 249.957 178.036 250.144 177.194 250.144C176.372 250.144 175.631 249.957 174.97 249.584C174.319 249.211 173.807 248.683 173.434 248C173.071 247.307 172.89 246.512 172.89 245.616C172.89 244.709 173.082 243.915 173.466 243.232C173.86 242.539 174.394 242.005 175.066 241.632C175.738 241.259 176.49 241.072 177.322 241.072ZM177.274 242.272C176.74 242.272 176.255 242.4 175.818 242.656C175.38 242.912 175.028 243.291 174.762 243.792C174.506 244.293 174.378 244.901 174.378 245.616C174.378 246.32 174.5 246.923 174.746 247.424C175.002 247.925 175.343 248.304 175.77 248.56C176.196 248.816 176.671 248.944 177.194 248.944C177.727 248.944 178.223 248.816 178.682 248.56C179.151 248.293 179.53 247.909 179.818 247.408C180.106 246.907 180.25 246.309 180.25 245.616C180.25 244.912 180.111 244.309 179.834 243.808C179.567 243.296 179.204 242.912 178.746 242.656C178.298 242.4 177.807 242.272 177.274 242.272ZM185.031 242.704C185.554 241.616 186.444 241.072 187.703 241.072V242.592H187.319C186.572 242.592 186.002 242.789 185.607 243.184C185.223 243.568 185.031 244.24 185.031 245.2V250H183.575V241.216H185.031V242.704ZM189.226 238.816C189.226 238.539 189.322 238.304 189.514 238.112C189.706 237.92 189.935 237.824 190.202 237.824C190.479 237.824 190.714 237.92 190.906 238.112C191.098 238.304 191.194 238.539 191.194 238.816C191.194 239.093 191.098 239.328 190.906 239.52C190.714 239.712 190.479 239.808 190.202 239.808C189.924 239.808 189.69 239.712 189.498 239.52C189.316 239.328 189.226 239.093 189.226 238.816ZM190.922 241.216V250H189.466V241.216H190.922ZM201.293 245.248C201.293 245.557 201.272 245.845 201.229 246.112H194.237C194.28 246.987 194.552 247.68 195.053 248.192C195.565 248.693 196.216 248.944 197.005 248.944C197.602 248.944 198.104 248.811 198.509 248.544C198.925 248.277 199.229 247.925 199.421 247.488H200.989C200.712 248.256 200.232 248.891 199.549 249.392C198.877 249.893 198.029 250.144 197.005 250.144C196.184 250.144 195.448 249.957 194.797 249.584C194.157 249.211 193.656 248.683 193.293 248C192.93 247.307 192.749 246.512 192.749 245.616C192.749 244.709 192.93 243.915 193.293 243.232C193.656 242.539 194.168 242.005 194.829 241.632C195.49 241.259 196.253 241.072 197.117 241.072C197.938 241.072 198.664 241.253 199.293 241.616C199.922 241.979 200.413 242.475 200.765 243.104C201.117 243.733 201.293 244.448 201.293 245.248ZM199.773 245.056C199.773 244.491 199.65 244 199.405 243.584C199.16 243.157 198.824 242.832 198.397 242.608C197.981 242.384 197.517 242.272 197.005 242.272C196.248 242.272 195.613 242.523 195.101 243.024C194.589 243.515 194.306 244.192 194.253 245.056H199.773ZM206.13 241.072C207.08 241.072 207.832 241.323 208.386 241.824C208.941 242.315 209.245 242.992 209.298 243.856H207.794C207.773 243.365 207.608 242.971 207.298 242.672C206.989 242.373 206.562 242.224 206.018 242.224C205.464 242.224 205.026 242.357 204.706 242.624C204.397 242.88 204.242 243.205 204.242 243.6C204.242 243.931 204.338 244.197 204.53 244.4C204.733 244.592 204.978 244.736 205.266 244.832C205.565 244.928 205.965 245.029 206.466 245.136C207.106 245.285 207.618 245.435 208.002 245.584C208.397 245.723 208.733 245.963 209.01 246.304C209.288 246.635 209.426 247.088 209.426 247.664C209.426 248.144 209.288 248.576 209.01 248.96C208.733 249.333 208.344 249.627 207.842 249.84C207.341 250.043 206.765 250.144 206.114 250.144C205.133 250.144 204.344 249.899 203.746 249.408C203.16 248.917 202.84 248.24 202.786 247.376H204.29C204.312 247.867 204.482 248.261 204.802 248.56C205.133 248.848 205.57 248.992 206.114 248.992C206.712 248.992 207.17 248.869 207.49 248.624C207.821 248.379 207.986 248.053 207.986 247.648C207.986 247.317 207.885 247.056 207.682 246.864C207.49 246.661 207.245 246.512 206.946 246.416C206.648 246.309 206.237 246.197 205.714 246.08C205.085 245.941 204.573 245.803 204.178 245.664C203.794 245.515 203.464 245.285 203.186 244.976C202.92 244.667 202.786 244.24 202.786 243.696C202.786 243.216 202.92 242.779 203.186 242.384C203.464 241.979 203.853 241.659 204.354 241.424C204.866 241.189 205.458 241.072 206.13 241.072ZM212.44 248.928C212.579 249.493 212.648 250.011 212.648 250.48C212.648 251.685 212.099 252.288 211 252.288V251.584C211.267 251.584 211.459 251.52 211.576 251.392C211.704 251.264 211.768 251.061 211.768 250.784V250.416H210.952V248.928H212.44ZM51.6071 266.072C52.3965 266.072 53.1058 266.259 53.7351 266.632C54.3751 267.005 54.8765 267.533 55.2391 268.216C55.6125 268.888 55.7991 269.667 55.7991 270.552C55.7991 271.437 55.6125 272.232 55.2391 272.936C54.8765 273.629 54.3751 274.173 53.7351 274.568C53.1058 274.952 52.3965 275.144 51.6071 275.144C50.8605 275.144 50.2045 274.968 49.6391 274.616C49.0845 274.253 48.6578 273.784 48.3591 273.208V279.16H46.9031V266.216H48.3591V267.976C48.6578 267.411 49.0845 266.952 49.6391 266.6C50.2045 266.248 50.8605 266.072 51.6071 266.072ZM51.3191 267.336C50.7965 267.336 50.3058 267.469 49.8471 267.736C49.3991 268.003 49.0365 268.387 48.7591 268.888C48.4925 269.379 48.3591 269.955 48.3591 270.616C48.3591 271.277 48.4925 271.859 48.7591 272.36C49.0365 272.851 49.3991 273.229 49.8471 273.496C50.3058 273.763 50.7965 273.896 51.3191 273.896C51.8418 273.896 52.3325 273.763 52.7911 273.496C53.2498 273.219 53.6125 272.824 53.8791 272.312C54.1565 271.8 54.2951 271.213 54.2951 270.552C54.2951 269.891 54.1565 269.32 53.8791 268.84C53.6125 268.349 53.2498 267.976 52.7911 267.72C52.3431 267.464 51.8525 267.336 51.3191 267.336ZM59.0779 263.16V275H57.6219V263.16H59.0779ZM69.4493 270.248C69.4493 270.557 69.4279 270.845 69.3853 271.112H62.3932C62.4359 271.987 62.7079 272.68 63.2093 273.192C63.7213 273.693 64.3719 273.944 65.1613 273.944C65.7586 273.944 66.2599 273.811 66.6653 273.544C67.0813 273.277 67.3853 272.925 67.5773 272.488H69.1453C68.8679 273.256 68.3879 273.891 67.7053 274.392C67.0333 274.893 66.1853 275.144 65.1613 275.144C64.3399 275.144 63.6039 274.957 62.9533 274.584C62.3133 274.211 61.8119 273.683 61.4493 273C61.0866 272.307 60.9053 271.512 60.9053 270.616C60.9053 269.709 61.0866 268.915 61.4493 268.232C61.8119 267.539 62.3239 267.005 62.9853 266.632C63.6466 266.259 64.4093 266.072 65.2733 266.072C66.0946 266.072 66.8199 266.253 67.4493 266.616C68.0786 266.979 68.5693 267.475 68.9213 268.104C69.2733 268.733 69.4493 269.448 69.4493 270.248ZM67.9293 270.056C67.9293 269.491 67.8066 269 67.5613 268.584C67.3159 268.157 66.9799 267.832 66.5533 267.608C66.1373 267.384 65.6733 267.272 65.1613 267.272C64.4039 267.272 63.7693 267.523 63.2573 268.024C62.7453 268.515 62.4626 269.192 62.4093 270.056H67.9293ZM74.8785 266.072C75.6252 266.072 76.2758 266.248 76.8305 266.6C77.3958 266.952 77.8225 267.411 78.1105 267.976V266.216H79.5825V275H78.1105V273.208C77.8225 273.784 77.3958 274.253 76.8305 274.616C76.2758 274.968 75.6252 275.144 74.8785 275.144C74.0892 275.144 73.3745 274.952 72.7345 274.568C72.1052 274.173 71.6038 273.629 71.2305 272.936C70.8678 272.232 70.6865 271.437 70.6865 270.552C70.6865 269.667 70.8678 268.888 71.2305 268.216C71.6038 267.533 72.1052 267.005 72.7345 266.632C73.3745 266.259 74.0892 266.072 74.8785 266.072ZM75.1345 267.336C74.6118 267.336 74.1212 267.464 73.6625 267.72C73.2145 267.976 72.8518 268.349 72.5745 268.84C72.3078 269.32 72.1745 269.891 72.1745 270.552C72.1745 271.213 72.3078 271.8 72.5745 272.312C72.8518 272.813 73.2145 273.203 73.6625 273.48C74.1212 273.757 74.6118 273.896 75.1345 273.896C75.6678 273.896 76.1585 273.763 76.6065 273.496C77.0652 273.229 77.4278 272.851 77.6945 272.36C77.9718 271.859 78.1105 271.277 78.1105 270.616C78.1105 269.955 77.9718 269.379 77.6945 268.888C77.4278 268.387 77.0652 268.003 76.6065 267.736C76.1585 267.469 75.6678 267.336 75.1345 267.336ZM85.0052 266.072C85.9546 266.072 86.7066 266.323 87.2613 266.824C87.8159 267.315 88.1199 267.992 88.1733 268.856H86.6693C86.6479 268.365 86.4826 267.971 86.1733 267.672C85.8639 267.373 85.4373 267.224 84.8932 267.224C84.3386 267.224 83.9013 267.357 83.5813 267.624C83.2719 267.88 83.1173 268.205 83.1173 268.6C83.1173 268.931 83.2133 269.197 83.4053 269.4C83.6079 269.592 83.8533 269.736 84.1413 269.832C84.4399 269.928 84.8399 270.029 85.3413 270.136C85.9813 270.285 86.4933 270.435 86.8773 270.584C87.2719 270.723 87.6079 270.963 87.8853 271.304C88.1626 271.635 88.3013 272.088 88.3013 272.664C88.3013 273.144 88.1626 273.576 87.8853 273.96C87.6079 274.333 87.2186 274.627 86.7173 274.84C86.2159 275.043 85.6399 275.144 84.9893 275.144C84.0079 275.144 83.2186 274.899 82.6213 274.408C82.0346 273.917 81.7146 273.24 81.6613 272.376H83.1653C83.1866 272.867 83.3573 273.261 83.6773 273.56C84.0079 273.848 84.4453 273.992 84.9893 273.992C85.5866 273.992 86.0453 273.869 86.3653 273.624C86.6959 273.379 86.8613 273.053 86.8613 272.648C86.8613 272.317 86.7599 272.056 86.5573 271.864C86.3653 271.661 86.1199 271.512 85.8213 271.416C85.5226 271.309 85.1119 271.197 84.5893 271.08C83.9599 270.941 83.4479 270.803 83.0533 270.664C82.6693 270.515 82.3386 270.285 82.0613 269.976C81.7946 269.667 81.6613 269.24 81.6613 268.696C81.6613 268.216 81.7946 267.779 82.0613 267.384C82.3386 266.979 82.7279 266.659 83.2293 266.424C83.7413 266.189 84.3333 266.072 85.0052 266.072ZM98.3711 270.248C98.3711 270.557 98.3498 270.845 98.3071 271.112H91.3151C91.3578 271.987 91.6298 272.68 92.1311 273.192C92.6431 273.693 93.2938 273.944 94.0831 273.944C94.6805 273.944 95.1818 273.811 95.5871 273.544C96.0031 273.277 96.3071 272.925 96.4991 272.488H98.0671C97.7898 273.256 97.3098 273.891 96.6271 274.392C95.9551 274.893 95.1071 275.144 94.0831 275.144C93.2618 275.144 92.5258 274.957 91.8751 274.584C91.2351 274.211 90.7338 273.683 90.3711 273C90.0085 272.307 89.8271 271.512 89.8271 270.616C89.8271 269.709 90.0085 268.915 90.3711 268.232C90.7338 267.539 91.2458 267.005 91.9071 266.632C92.5685 266.259 93.3311 266.072 94.1951 266.072C95.0165 266.072 95.7418 266.253 96.3711 266.616C97.0005 266.979 97.4911 267.475 97.8431 268.104C98.1951 268.733 98.3711 269.448 98.3711 270.248ZM96.8511 270.056C96.8511 269.491 96.7285 269 96.4831 268.584C96.2378 268.157 95.9018 267.832 95.4751 267.608C95.0591 267.384 94.5951 267.272 94.0831 267.272C93.3258 267.272 92.6911 267.523 92.1791 268.024C91.6671 268.515 91.3845 269.192 91.3311 270.056H96.8511ZM108.661 266.072C109.717 266.072 110.576 266.317 111.237 266.808C111.909 267.299 112.379 267.997 112.645 268.904H111.077C110.907 268.392 110.613 267.992 110.197 267.704C109.781 267.416 109.269 267.272 108.661 267.272C107.829 267.272 107.157 267.565 106.645 268.152C106.144 268.728 105.893 269.549 105.893 270.616C105.893 271.672 106.144 272.493 106.645 273.08C107.157 273.656 107.829 273.944 108.661 273.944C109.28 273.944 109.792 273.805 110.197 273.528C110.603 273.251 110.896 272.845 111.077 272.312H112.645C112.379 273.176 111.904 273.864 111.221 274.376C110.549 274.888 109.696 275.144 108.661 275.144C107.84 275.144 107.104 274.957 106.453 274.584C105.813 274.211 105.312 273.683 104.949 273C104.587 272.307 104.405 271.512 104.405 270.616C104.405 269.709 104.587 268.915 104.949 268.232C105.312 267.539 105.813 267.005 106.453 266.632C107.093 266.259 107.829 266.072 108.661 266.072ZM116.031 267.704C116.554 266.616 117.444 266.072 118.703 266.072V267.592H118.319C117.572 267.592 117.002 267.789 116.607 268.184C116.223 268.568 116.031 269.24 116.031 270.2V275H114.575V266.216H116.031V267.704ZM128.434 270.248C128.434 270.557 128.412 270.845 128.37 271.112H121.378C121.42 271.987 121.692 272.68 122.194 273.192C122.706 273.693 123.356 273.944 124.146 273.944C124.743 273.944 125.244 273.811 125.65 273.544C126.066 273.277 126.37 272.925 126.562 272.488H128.13C127.852 273.256 127.372 273.891 126.69 274.392C126.018 274.893 125.17 275.144 124.146 275.144C123.324 275.144 122.588 274.957 121.938 274.584C121.298 274.211 120.796 273.683 120.434 273C120.071 272.307 119.89 271.512 119.89 270.616C119.89 269.709 120.071 268.915 120.434 268.232C120.796 267.539 121.308 267.005 121.97 266.632C122.631 266.259 123.394 266.072 124.258 266.072C125.079 266.072 125.804 266.253 126.434 266.616C127.063 266.979 127.554 267.475 127.906 268.104C128.258 268.733 128.434 269.448 128.434 270.248ZM126.914 270.056C126.914 269.491 126.791 269 126.546 268.584C126.3 268.157 125.964 267.832 125.538 267.608C125.122 267.384 124.658 267.272 124.146 267.272C123.388 267.272 122.754 267.523 122.242 268.024C121.73 268.515 121.447 269.192 121.394 270.056H126.914ZM133.863 266.072C134.61 266.072 135.26 266.248 135.815 266.6C136.38 266.952 136.807 267.411 137.095 267.976V266.216H138.567V275H137.095V273.208C136.807 273.784 136.38 274.253 135.815 274.616C135.26 274.968 134.61 275.144 133.863 275.144C133.074 275.144 132.359 274.952 131.719 274.568C131.09 274.173 130.588 273.629 130.215 272.936C129.852 272.232 129.671 271.437 129.671 270.552C129.671 269.667 129.852 268.888 130.215 268.216C130.588 267.533 131.09 267.005 131.719 266.632C132.359 266.259 133.074 266.072 133.863 266.072ZM134.119 267.336C133.596 267.336 133.106 267.464 132.647 267.72C132.199 267.976 131.836 268.349 131.559 268.84C131.292 269.32 131.159 269.891 131.159 270.552C131.159 271.213 131.292 271.8 131.559 272.312C131.836 272.813 132.199 273.203 132.647 273.48C133.106 273.757 133.596 273.896 134.119 273.896C134.652 273.896 135.143 273.763 135.591 273.496C136.05 273.229 136.412 272.851 136.679 272.36C136.956 271.859 137.095 271.277 137.095 270.616C137.095 269.955 136.956 269.379 136.679 268.888C136.412 268.387 136.05 268.003 135.591 267.736C135.143 267.469 134.652 267.336 134.119 267.336ZM145.046 273.816V275H143.574C142.827 275 142.256 274.819 141.862 274.456C141.478 274.093 141.286 273.523 141.286 272.744V267.4H140.15V266.216H141.286V264.04H142.758V266.216H145.03V267.4H142.758V272.744C142.758 273.139 142.838 273.416 142.998 273.576C143.158 273.736 143.44 273.816 143.846 273.816H145.046ZM154.621 270.248C154.621 270.557 154.6 270.845 154.557 271.112H147.565C147.608 271.987 147.88 272.68 148.381 273.192C148.893 273.693 149.544 273.944 150.333 273.944C150.93 273.944 151.432 273.811 151.837 273.544C152.253 273.277 152.557 272.925 152.749 272.488H154.317C154.04 273.256 153.56 273.891 152.877 274.392C152.205 274.893 151.357 275.144 150.333 275.144C149.512 275.144 148.776 274.957 148.125 274.584C147.485 274.211 146.984 273.683 146.621 273C146.258 272.307 146.077 271.512 146.077 270.616C146.077 269.709 146.258 268.915 146.621 268.232C146.984 267.539 147.496 267.005 148.157 266.632C148.818 266.259 149.581 266.072 150.445 266.072C151.266 266.072 151.992 266.253 152.621 266.616C153.25 266.979 153.741 267.475 154.093 268.104C154.445 268.733 154.621 269.448 154.621 270.248ZM153.101 270.056C153.101 269.491 152.978 269 152.733 268.584C152.488 268.157 152.152 267.832 151.725 267.608C151.309 267.384 150.845 267.272 150.333 267.272C149.576 267.272 148.941 267.523 148.429 268.024C147.917 268.515 147.634 269.192 147.581 270.056H153.101ZM168.463 271.896C168.463 272.451 168.319 272.973 168.031 273.464C167.743 273.955 167.317 274.355 166.751 274.664C166.186 274.963 165.509 275.112 164.719 275.112C164.015 275.112 163.381 275 162.815 274.776C162.25 274.541 161.802 274.211 161.471 273.784C161.151 273.347 160.991 272.829 160.991 272.232H162.543C162.586 272.733 162.783 273.139 163.135 273.448C163.498 273.757 164.026 273.912 164.719 273.912C165.434 273.912 165.999 273.731 166.415 273.368C166.831 273.005 167.039 272.541 167.039 271.976C167.039 271.549 166.922 271.213 166.687 270.968C166.453 270.712 166.159 270.52 165.807 270.392C165.455 270.264 164.986 270.136 164.399 270.008C163.663 269.837 163.066 269.661 162.607 269.48C162.159 269.299 161.775 269.005 161.455 268.6C161.146 268.195 160.991 267.635 160.991 266.92C160.991 266.301 161.141 265.757 161.439 265.288C161.738 264.819 162.165 264.456 162.719 264.2C163.285 263.933 163.941 263.8 164.687 263.8C165.701 263.8 166.522 264.051 167.151 264.552C167.791 265.043 168.159 265.725 168.255 266.6H166.639C166.597 266.163 166.389 265.789 166.015 265.48C165.653 265.171 165.162 265.016 164.543 265.016C163.914 265.016 163.402 265.176 163.007 265.496C162.613 265.805 162.415 266.264 162.415 266.872C162.415 267.309 162.533 267.656 162.767 267.912C163.002 268.168 163.29 268.36 163.631 268.488C163.983 268.616 164.469 268.749 165.087 268.888C165.813 269.059 166.399 269.235 166.847 269.416C167.295 269.587 167.674 269.869 167.983 270.264C168.303 270.659 168.463 271.203 168.463 271.896ZM178.27 266.216V275H176.814V273.592C176.526 274.104 176.131 274.493 175.63 274.76C175.129 275.016 174.569 275.144 173.95 275.144C173.321 275.144 172.745 275.005 172.222 274.728C171.71 274.44 171.299 274.019 170.99 273.464C170.691 272.909 170.542 272.232 170.542 271.432V266.216H171.982V271.192C171.982 272.067 172.195 272.739 172.622 273.208C173.059 273.667 173.651 273.896 174.398 273.896C175.145 273.896 175.731 273.667 176.158 273.208C176.595 272.739 176.814 272.067 176.814 271.192V266.216H178.27ZM185.373 266.072C186.162 266.072 186.871 266.259 187.501 266.632C188.141 267.005 188.642 267.533 189.005 268.216C189.378 268.888 189.565 269.667 189.565 270.552C189.565 271.437 189.378 272.232 189.005 272.936C188.642 273.629 188.141 274.173 187.501 274.568C186.871 274.952 186.162 275.144 185.373 275.144C184.626 275.144 183.97 274.968 183.405 274.616C182.85 274.253 182.423 273.784 182.125 273.208V279.16H180.669V266.216H182.125V267.976C182.423 267.411 182.85 266.952 183.405 266.6C183.97 266.248 184.626 266.072 185.373 266.072ZM185.085 267.336C184.562 267.336 184.071 267.469 183.613 267.736C183.165 268.003 182.802 268.387 182.525 268.888C182.258 269.379 182.125 269.955 182.125 270.616C182.125 271.277 182.258 271.859 182.525 272.36C182.802 272.851 183.165 273.229 183.613 273.496C184.071 273.763 184.562 273.896 185.085 273.896C185.607 273.896 186.098 273.763 186.557 273.496C187.015 273.219 187.378 272.824 187.645 272.312C187.922 271.8 188.061 271.213 188.061 270.552C188.061 269.891 187.922 269.32 187.645 268.84C187.378 268.349 187.015 267.976 186.557 267.72C186.109 267.464 185.618 267.336 185.085 267.336ZM196.092 266.072C196.881 266.072 197.59 266.259 198.22 266.632C198.86 267.005 199.361 267.533 199.724 268.216C200.097 268.888 200.284 269.667 200.284 270.552C200.284 271.437 200.097 272.232 199.724 272.936C199.361 273.629 198.86 274.173 198.22 274.568C197.59 274.952 196.881 275.144 196.092 275.144C195.345 275.144 194.689 274.968 194.124 274.616C193.569 274.253 193.142 273.784 192.844 273.208V279.16H191.388V266.216H192.844V267.976C193.142 267.411 193.569 266.952 194.124 266.6C194.689 266.248 195.345 266.072 196.092 266.072ZM195.804 267.336C195.281 267.336 194.79 267.469 194.332 267.736C193.884 268.003 193.521 268.387 193.244 268.888C192.977 269.379 192.844 269.955 192.844 270.616C192.844 271.277 192.977 271.859 193.244 272.36C193.521 272.851 193.884 273.229 194.332 273.496C194.79 273.763 195.281 273.896 195.804 273.896C196.326 273.896 196.817 273.763 197.276 273.496C197.734 273.219 198.097 272.824 198.364 272.312C198.641 271.8 198.78 271.213 198.78 270.552C198.78 269.891 198.641 269.32 198.364 268.84C198.097 268.349 197.734 267.976 197.276 267.72C196.828 267.464 196.337 267.336 195.804 267.336ZM203.562 263.16V275H202.106V263.16H203.562ZM205.726 263.816C205.726 263.539 205.822 263.304 206.014 263.112C206.206 262.92 206.435 262.824 206.702 262.824C206.979 262.824 207.214 262.92 207.406 263.112C207.598 263.304 207.694 263.539 207.694 263.816C207.694 264.093 207.598 264.328 207.406 264.52C207.214 264.712 206.979 264.808 206.702 264.808C206.424 264.808 206.19 264.712 205.998 264.52C205.816 264.328 205.726 264.093 205.726 263.816ZM207.422 266.216V275H205.966V266.216H207.422ZM217.793 270.248C217.793 270.557 217.772 270.845 217.729 271.112H210.737C210.78 271.987 211.052 272.68 211.553 273.192C212.065 273.693 212.716 273.944 213.505 273.944C214.102 273.944 214.604 273.811 215.009 273.544C215.425 273.277 215.729 272.925 215.921 272.488H217.489C217.212 273.256 216.732 273.891 216.049 274.392C215.377 274.893 214.529 275.144 213.505 275.144C212.684 275.144 211.948 274.957 211.297 274.584C210.657 274.211 210.156 273.683 209.793 273C209.43 272.307 209.249 271.512 209.249 270.616C209.249 269.709 209.43 268.915 209.793 268.232C210.156 267.539 210.668 267.005 211.329 266.632C211.99 266.259 212.753 266.072 213.617 266.072C214.438 266.072 215.164 266.253 215.793 266.616C216.422 266.979 216.913 267.475 217.265 268.104C217.617 268.733 217.793 269.448 217.793 270.248ZM216.273 270.056C216.273 269.491 216.15 269 215.905 268.584C215.66 268.157 215.324 267.832 214.897 267.608C214.481 267.384 214.017 267.272 213.505 267.272C212.748 267.272 212.113 267.523 211.601 268.024C211.089 268.515 210.806 269.192 210.753 270.056H216.273ZM221.062 267.704C221.585 266.616 222.476 266.072 223.734 266.072V267.592H223.35C222.604 267.592 222.033 267.789 221.638 268.184C221.254 268.568 221.062 269.24 221.062 270.2V275H219.606V266.216H221.062V267.704ZM93.9894 290.072C95.0454 290.072 95.904 290.317 96.5654 290.808C97.2374 291.299 97.7067 291.997 97.9734 292.904H96.4054C96.2347 292.392 95.9414 291.992 95.5254 291.704C95.1094 291.416 94.5974 291.272 93.9894 291.272C93.1574 291.272 92.4854 291.565 91.9734 292.152C91.472 292.728 91.2214 293.549 91.2214 294.616C91.2214 295.672 91.472 296.493 91.9734 297.08C92.4854 297.656 93.1574 297.944 93.9894 297.944C94.608 297.944 95.12 297.805 95.5254 297.528C95.9307 297.251 96.224 296.845 96.4054 296.312H97.9734C97.7067 297.176 97.232 297.864 96.5494 298.376C95.8774 298.888 95.024 299.144 93.9894 299.144C93.168 299.144 92.432 298.957 91.7814 298.584C91.1414 298.211 90.64 297.683 90.2774 297C89.9147 296.307 89.7334 295.512 89.7334 294.616C89.7334 293.709 89.9147 292.915 90.2774 292.232C90.64 291.539 91.1414 291.005 91.7814 290.632C92.4214 290.259 93.1574 290.072 93.9894 290.072ZM103.519 290.072C104.266 290.072 104.916 290.248 105.471 290.6C106.036 290.952 106.463 291.411 106.751 291.976V290.216H108.223V299H106.751V297.208C106.463 297.784 106.036 298.253 105.471 298.616C104.916 298.968 104.266 299.144 103.519 299.144C102.73 299.144 102.015 298.952 101.375 298.568C100.746 298.173 100.244 297.629 99.8711 296.936C99.5085 296.232 99.3271 295.437 99.3271 294.552C99.3271 293.667 99.5085 292.888 99.8711 292.216C100.244 291.533 100.746 291.005 101.375 290.632C102.015 290.259 102.73 290.072 103.519 290.072ZM103.775 291.336C103.252 291.336 102.762 291.464 102.303 291.72C101.855 291.976 101.492 292.349 101.215 292.84C100.948 293.32 100.815 293.891 100.815 294.552C100.815 295.213 100.948 295.8 101.215 296.312C101.492 296.813 101.855 297.203 102.303 297.48C102.762 297.757 103.252 297.896 103.775 297.896C104.308 297.896 104.799 297.763 105.247 297.496C105.706 297.229 106.068 296.851 106.335 296.36C106.612 295.859 106.751 295.277 106.751 294.616C106.751 293.955 106.612 293.379 106.335 292.888C106.068 292.387 105.706 292.003 105.247 291.736C104.799 291.469 104.308 291.336 103.775 291.336ZM114.702 297.816V299H113.23C112.483 299 111.913 298.819 111.518 298.456C111.134 298.093 110.942 297.523 110.942 296.744V291.4H109.806V290.216H110.942V288.04H112.414V290.216H114.686V291.4H112.414V296.744C112.414 297.139 112.494 297.416 112.654 297.576C112.814 297.736 113.097 297.816 113.502 297.816H114.702ZM124.277 294.248C124.277 294.557 124.256 294.845 124.213 295.112H117.221C117.264 295.987 117.536 296.68 118.037 297.192C118.549 297.693 119.2 297.944 119.989 297.944C120.587 297.944 121.088 297.811 121.493 297.544C121.909 297.277 122.213 296.925 122.405 296.488H123.973C123.696 297.256 123.216 297.891 122.533 298.392C121.861 298.893 121.013 299.144 119.989 299.144C119.168 299.144 118.432 298.957 117.781 298.584C117.141 298.211 116.64 297.683 116.277 297C115.915 296.307 115.733 295.512 115.733 294.616C115.733 293.709 115.915 292.915 116.277 292.232C116.64 291.539 117.152 291.005 117.813 290.632C118.475 290.259 119.237 290.072 120.101 290.072C120.923 290.072 121.648 290.253 122.277 290.616C122.907 290.979 123.397 291.475 123.749 292.104C124.101 292.733 124.277 293.448 124.277 294.248ZM122.757 294.056C122.757 293.491 122.635 293 122.389 292.584C122.144 292.157 121.808 291.832 121.381 291.608C120.965 291.384 120.501 291.272 119.989 291.272C119.232 291.272 118.597 291.523 118.085 292.024C117.573 292.515 117.291 293.192 117.237 294.056H122.757ZM129.707 290.072C130.453 290.072 131.104 290.248 131.659 290.6C132.224 290.952 132.651 291.411 132.939 291.976V290.216H134.411V299.224C134.411 300.024 134.235 300.733 133.883 301.352C133.531 301.971 133.035 302.451 132.395 302.792C131.755 303.144 131.013 303.32 130.171 303.32C129.435 303.32 128.763 303.192 128.155 302.936C127.547 302.691 127.051 302.339 126.667 301.88C126.283 301.421 126.053 300.899 125.979 300.312H127.403C127.541 300.813 127.867 301.229 128.379 301.56C128.891 301.891 129.488 302.056 130.171 302.056C131.003 302.056 131.669 301.805 132.171 301.304C132.683 300.813 132.939 300.12 132.939 299.224V297.208C132.651 297.784 132.224 298.253 131.659 298.616C131.104 298.968 130.453 299.144 129.707 299.144C128.917 299.144 128.203 298.952 127.563 298.568C126.933 298.173 126.432 297.629 126.059 296.936C125.696 296.232 125.515 295.437 125.515 294.552C125.515 293.667 125.696 292.888 126.059 292.216C126.432 291.533 126.933 291.005 127.563 290.632C128.203 290.259 128.917 290.072 129.707 290.072ZM129.963 291.336C129.44 291.336 128.949 291.464 128.491 291.72C128.043 291.976 127.68 292.349 127.403 292.84C127.136 293.32 127.003 293.891 127.003 294.552C127.003 295.213 127.136 295.8 127.403 296.312C127.68 296.813 128.043 297.203 128.491 297.48C128.949 297.757 129.44 297.896 129.963 297.896C130.496 297.896 130.987 297.763 131.435 297.496C131.893 297.229 132.256 296.851 132.523 296.36C132.8 295.859 132.939 295.277 132.939 294.616C132.939 293.955 132.8 293.379 132.523 292.888C132.256 292.387 131.893 292.003 131.435 291.736C130.987 291.469 130.496 291.336 129.963 291.336ZM140.665 290.072C141.497 290.072 142.249 290.259 142.921 290.632C143.593 291.005 144.121 291.539 144.505 292.232C144.9 292.925 145.097 293.72 145.097 294.616C145.097 295.501 144.895 296.291 144.489 296.984C144.084 297.667 143.535 298.2 142.841 298.584C142.148 298.957 141.38 299.144 140.537 299.144C139.716 299.144 138.975 298.957 138.313 298.584C137.663 298.211 137.151 297.683 136.777 297C136.415 296.307 136.233 295.512 136.233 294.616C136.233 293.709 136.425 292.915 136.809 292.232C137.204 291.539 137.737 291.005 138.409 290.632C139.081 290.259 139.833 290.072 140.665 290.072ZM140.617 291.272C140.084 291.272 139.599 291.4 139.161 291.656C138.724 291.912 138.372 292.291 138.105 292.792C137.849 293.293 137.721 293.901 137.721 294.616C137.721 295.32 137.844 295.923 138.089 296.424C138.345 296.925 138.687 297.304 139.113 297.56C139.54 297.816 140.015 297.944 140.537 297.944C141.071 297.944 141.567 297.816 142.025 297.56C142.495 297.293 142.873 296.909 143.161 296.408C143.449 295.907 143.593 295.309 143.593 294.616C143.593 293.912 143.455 293.309 143.177 292.808C142.911 292.296 142.548 291.912 142.089 291.656C141.641 291.4 141.151 291.272 140.617 291.272ZM148.375 291.704C148.897 290.616 149.788 290.072 151.047 290.072V291.592H150.663C149.916 291.592 149.345 291.789 148.951 292.184C148.567 292.568 148.375 293.24 148.375 294.2V299H146.919V290.216H148.375V291.704ZM152.569 287.816C152.569 287.539 152.665 287.304 152.857 287.112C153.049 286.92 153.279 286.824 153.545 286.824C153.823 286.824 154.057 286.92 154.249 287.112C154.441 287.304 154.537 287.539 154.537 287.816C154.537 288.093 154.441 288.328 154.249 288.52C154.057 288.712 153.823 288.808 153.545 288.808C153.268 288.808 153.033 288.712 152.841 288.52C152.66 288.328 152.569 288.093 152.569 287.816ZM154.265 290.216V299H152.809V290.216H154.265ZM164.637 294.248C164.637 294.557 164.615 294.845 164.573 295.112H157.581C157.623 295.987 157.895 296.68 158.397 297.192C158.909 297.693 159.559 297.944 160.349 297.944C160.946 297.944 161.447 297.811 161.853 297.544C162.269 297.277 162.573 296.925 162.765 296.488H164.333C164.055 297.256 163.575 297.891 162.893 298.392C162.221 298.893 161.373 299.144 160.349 299.144C159.527 299.144 158.791 298.957 158.141 298.584C157.501 298.211 156.999 297.683 156.637 297C156.274 296.307 156.093 295.512 156.093 294.616C156.093 293.709 156.274 292.915 156.637 292.232C156.999 291.539 157.511 291.005 158.173 290.632C158.834 290.259 159.597 290.072 160.461 290.072C161.282 290.072 162.007 290.253 162.637 290.616C163.266 290.979 163.757 291.475 164.109 292.104C164.461 292.733 164.637 293.448 164.637 294.248ZM163.117 294.056C163.117 293.491 162.994 293 162.749 292.584C162.503 292.157 162.167 291.832 161.741 291.608C161.325 291.384 160.861 291.272 160.349 291.272C159.591 291.272 158.957 291.523 158.445 292.024C157.933 292.515 157.65 293.192 157.597 294.056H163.117ZM169.474 290.072C170.423 290.072 171.175 290.323 171.73 290.824C172.285 291.315 172.589 291.992 172.642 292.856H171.138C171.117 292.365 170.951 291.971 170.642 291.672C170.333 291.373 169.906 291.224 169.362 291.224C168.807 291.224 168.37 291.357 168.05 291.624C167.741 291.88 167.586 292.205 167.586 292.6C167.586 292.931 167.682 293.197 167.874 293.4C168.077 293.592 168.322 293.736 168.61 293.832C168.909 293.928 169.309 294.029 169.81 294.136C170.45 294.285 170.962 294.435 171.346 294.584C171.741 294.723 172.077 294.963 172.354 295.304C172.631 295.635 172.77 296.088 172.77 296.664C172.77 297.144 172.631 297.576 172.354 297.96C172.077 298.333 171.687 298.627 171.186 298.84C170.685 299.043 170.109 299.144 169.458 299.144C168.477 299.144 167.687 298.899 167.09 298.408C166.503 297.917 166.183 297.24 166.13 296.376H167.634C167.655 296.867 167.826 297.261 168.146 297.56C168.477 297.848 168.914 297.992 169.458 297.992C170.055 297.992 170.514 297.869 170.834 297.624C171.165 297.379 171.33 297.053 171.33 296.648C171.33 296.317 171.229 296.056 171.026 295.864C170.834 295.661 170.589 295.512 170.29 295.416C169.991 295.309 169.581 295.197 169.058 295.08C168.429 294.941 167.917 294.803 167.522 294.664C167.138 294.515 166.807 294.285 166.53 293.976C166.263 293.667 166.13 293.24 166.13 292.696C166.13 292.216 166.263 291.779 166.53 291.384C166.807 290.979 167.197 290.659 167.698 290.424C168.21 290.189 168.802 290.072 169.474 290.072ZM174.552 298.072C174.552 297.805 174.643 297.581 174.824 297.4C175.005 297.219 175.224 297.128 175.48 297.128C175.736 297.128 175.955 297.219 176.136 297.4C176.317 297.581 176.408 297.805 176.408 298.072C176.408 298.328 176.317 298.547 176.136 298.728C175.955 298.909 175.736 299 175.48 299C175.224 299 175.005 298.909 174.824 298.728C174.643 298.547 174.552 298.328 174.552 298.072ZM178.161 298.072C178.161 297.805 178.252 297.581 178.433 297.4C178.615 297.219 178.833 297.128 179.089 297.128C179.345 297.128 179.564 297.219 179.745 297.4C179.927 297.581 180.017 297.805 180.017 298.072C180.017 298.328 179.927 298.547 179.745 298.728C179.564 298.909 179.345 299 179.089 299C178.833 299 178.615 298.909 178.433 298.728C178.252 298.547 178.161 298.328 178.161 298.072Z" fill="black"/>
<path d="M118.167 101.52V101.793L118.396 101.94C122.38 104.499 126.974 106.186 131.924 106.677L132.631 106.747L132.459 106.058L128.555 90.4434L128.555 90.4427C128.482 90.1518 128.482 89.8459 128.555 89.555L128.555 89.5543L130.156 83.1563L130.31 82.5406L129.675 82.535L125.671 82.5H125.667H125.667H125.666H125.666H125.666H125.666H125.666H125.666H125.666H125.666H125.665H125.665H125.665H125.665H125.665H125.665H125.665H125.665H125.664H125.664H125.664H125.664H125.664H125.664H125.664H125.664H125.663H125.663H125.663H125.663H125.663H125.663H125.663H125.663H125.662H125.662H125.662H125.662H125.662H125.662H125.662H125.662H125.661H125.661H125.661H125.661H125.661H125.661H125.661H125.661H125.661H125.66H125.66H125.66H125.66H125.66H125.66H125.66H125.66H125.659H125.659H125.659H125.659H125.659H125.659H125.659H125.659H125.658H125.658H125.658H125.658H125.658H125.658H125.658H125.658H125.657H125.657H125.657H125.657H125.657H125.657H125.657H125.657H125.656H125.656H125.656H125.656H125.656H125.656H125.656H125.656H125.655H125.655H125.655H125.655H125.655H125.655H125.655H125.655H125.654H125.654H125.654H125.654H125.654H125.654H125.654H125.654H125.653H125.653H125.653H125.653H125.653H125.653H125.653H125.653H125.653H125.652H125.652H125.652H125.652H125.652H125.652H125.652H125.652H125.651H125.651H125.651H125.651H125.651H125.651H125.651H125.651H125.65H125.65H125.65H125.65H125.65H125.65H125.65H125.65H125.649H125.649H125.649H125.649H125.649H125.649H125.649H125.649H125.648H125.648H125.648H125.648H125.648H125.648H125.648H125.648H125.647H125.647H125.647H125.647H125.647H125.647H125.647H125.647H125.646H125.646H125.646H125.646H125.646H125.646H125.646H125.646H125.646H125.645H125.645H125.645H125.645H125.645H125.645H125.645H125.645H125.644H125.644H125.644H125.644H125.644H125.644H125.644H125.644H125.643H125.643H125.643H125.643H125.643H125.643H125.643H125.643H125.642H125.642H125.642H125.642H125.642H125.642H125.642H125.642H125.641H125.641H125.641H125.641H125.641H125.641H125.641H125.641H125.64H125.64H125.64H125.64H125.64H125.64H125.64H125.64H125.639H125.639H125.639H125.639H125.639H125.639H125.639H125.639H125.638H125.638H125.638H125.638H125.638H125.638H125.638H125.638H125.638H125.637H125.637H125.637H125.637H125.637H125.637H125.637H125.637H125.636H125.636H125.636H125.636H125.636H125.636H125.636H125.636H125.635H125.635H125.635H125.635H125.635H125.635H125.635H125.635H125.634H125.634H125.634H125.634H125.634H125.634H125.634H125.634H125.633H125.633H125.633H125.633H125.633H125.633H125.633H125.633H125.632H125.632H125.632H125.632H125.632H125.632H125.632H125.632H125.631H125.631H125.631H125.631H125.631H125.631H125.631H125.631H125.63H125.63H125.63H125.63H125.63H125.63H125.63H125.63H125.63H125.629H125.629H125.629H125.629H125.629H125.629H125.629H125.629H125.628H125.628H125.628H125.628H125.628H125.628H125.628H125.628H125.627H125.627H125.627H125.627H125.627H125.627H125.627H125.627H125.626H125.626H125.626H125.626H125.626H125.626H125.626H125.626H125.625H125.625H125.625H125.625H125.625H125.625H125.625H125.625H125.624H125.624H125.624H125.624H125.624H125.624H125.624H125.624H125.623H125.623H125.623H125.623H125.623H125.623H125.623H125.623H125.622H125.622H125.622H125.622H125.622H125.622H125.622H125.622H125.622H125.621H125.621H125.621H125.621H125.621H125.621H125.621H125.621H125.62H125.62H125.62H125.62H125.62H125.62H125.62H125.62H125.619H125.619H125.619H125.619H125.619H125.619H125.619H125.619H125.618H125.618H125.618H125.618H125.618H125.618H125.618H125.618H125.617H125.617H125.617H125.617H125.617H125.617H125.617H125.617H125.616H125.616H125.616H125.616H125.616H125.616H125.616H125.616H125.615H125.615H125.615H125.615H125.615H125.615H125.615H125.615H125.614H125.614H125.614H125.614H125.614H125.614H125.614H125.614H125.614H125.613H125.613H125.613H125.613H125.613H125.613H125.613H125.613H125.612H125.612H125.612H125.612H125.612H125.612H125.612H125.612H125.611H125.611H125.611H125.611H125.611H125.611H125.611H125.611H125.61H125.61H125.61H125.61H125.61H125.61H125.61H125.61H125.609H125.609H125.609H125.609H125.609H125.609H125.609H125.609H125.608H125.608H125.608H125.608H125.608H125.608H125.608H125.608H125.607H125.607H125.607H125.607H125.607H125.607H125.607H125.607H125.606H125.606H125.606H125.606H125.606H125.606H125.606H125.606H125.606H125.605H125.605H125.605H125.605H125.605H125.605H125.605H125.605H125.604H125.604H125.604H125.604H125.604H125.604H125.604C123.637 82.5 121.785 83.2641 120.382 84.6512L120.382 84.6513C118.952 86.0665 118.167 87.9587 118.167 89.9767V101.52ZM135.318 64.8297L135 64.5669L134.682 64.8298C131.578 67.3929 127.49 68.6594 123.591 68.4309L122.946 68.3931L123.071 69.0269C124.174 74.6084 129.097 78.8333 135 78.8333C140.903 78.8333 145.826 74.6084 146.929 69.0269L147.055 68.3872L146.404 68.4311C146.262 68.4407 146.136 68.4523 146.017 68.4633C145.805 68.4827 145.617 68.5 145.407 68.5C141.742 68.5 138.171 67.1847 135.318 64.8297ZM123.098 64.1628L122.983 64.7127L123.542 64.7636C123.592 64.7681 123.643 64.7729 123.694 64.7778C123.974 64.8043 124.281 64.8333 124.593 64.8333C127.999 64.8333 131.293 63.3471 133.643 60.7664C134.329 60.0134 135.669 60.0134 136.355 60.7664L136.355 60.7665C138.707 63.3471 142.004 64.8333 145.407 64.8333C145.719 64.8333 146.026 64.8043 146.306 64.7778C146.357 64.7729 146.408 64.7681 146.458 64.7636L147.017 64.7127L146.902 64.1628C145.743 58.6543 140.851 54.5 135 54.5C129.149 54.5 124.257 58.6543 123.098 64.1628ZM132.254 89.8788L132.224 90L132.254 90.1212L134.515 99.1676H135.485L137.746 90.1212L137.776 90L137.746 89.8787L136.017 82.965L135.923 82.5897L135.536 82.5864L134.472 82.577L134.078 82.5736L133.983 82.9558L132.254 89.8788ZM151.604 101.94L151.833 101.793L151.833 101.52L151.831 91.5165H151.831L151.831 91.5042C151.705 86.4525 148.664 82.6842 144.278 82.6633C144.278 82.6633 144.278 82.6633 144.277 82.6633L140.357 82.6284L139.711 82.6226L139.868 83.2497L141.445 89.5544L141.445 89.555C141.518 89.8459 141.518 90.1518 141.445 90.4427L141.445 90.4434L137.541 106.058L137.369 106.747L138.076 106.677C143.026 106.186 147.62 104.499 151.604 101.94ZM155.5 97.8377V99.0126L156.347 98.198C162.18 92.5856 165.833 84.7179 165.833 76C165.833 58.9985 152.001 45.1667 135 45.1667C117.999 45.1667 104.167 58.9985 104.167 76C104.167 84.7179 107.82 92.5856 113.653 98.198L114.5 99.0126V97.8377V89.9767C114.5 86.9712 115.67 84.157 117.798 82.0463C119.468 80.3942 121.614 79.3998 123.889 79.0226L124.883 78.8577L124.15 78.1657C121.088 75.2754 119.167 71.1955 119.167 66.6667C119.167 57.9362 126.272 50.8333 135 50.8333C143.728 50.8333 150.833 57.9362 150.833 66.6667C150.833 71.2743 148.842 75.4154 145.687 78.3127L144.923 79.0145L145.948 79.175C151.357 80.0219 155.33 84.8537 155.5 91.4624V97.8377ZM169.5 76C169.5 95.0229 154.023 110.5 135 110.5C115.977 110.5 100.5 95.0229 100.5 76C100.5 56.9771 115.977 41.5 135 41.5C154.023 41.5 169.5 56.9771 169.5 76Z" fill="white" stroke="#F66464"/>
<path d="M130.333 119.834H129.833V120.334V129.667V130.167H130.333H139.667H140.167V129.667V120.334V119.834H139.667H130.333ZM143.833 132C143.833 133.013 143.014 133.834 142 133.834H128C126.986 133.834 126.167 133.013 126.167 132V118C126.167 116.988 126.986 116.167 128 116.167H142C143.014 116.167 143.833 116.988 143.833 118V132Z" fill="white" stroke="#F66464"/>
<path d="M179.333 89.4997H178.833V89.9997V99.333V99.833H179.333H188.667H189.167V99.333V89.9997V89.4997H188.667H179.333ZM191 103.5H177C175.986 103.5 175.167 102.679 175.167 101.666V87.6663C175.167 86.6542 175.986 85.833 177 85.833H191C192.014 85.833 192.833 86.6542 192.833 87.6663V101.666C192.833 102.679 192.014 103.5 191 103.5Z" fill="white" stroke="#F66464"/>
<path d="M81.3334 89.4997H80.8334V89.9997V99.333V99.833H81.3334H90.6668H91.1668V99.333V89.9997V89.4997H90.6668H81.3334ZM93.0001 103.5H79.0001C77.9862 103.5 77.1668 102.679 77.1668 101.666V87.6663C77.1668 86.6542 77.9862 85.833 79.0001 85.833H93.0001C94.014 85.833 94.8334 86.6542 94.8334 87.6663V101.666C94.8334 102.679 94.014 103.5 93.0001 103.5Z" fill="white" stroke="#F66464"/>
<path d="M93.215 172.853L93.5 172.718V172.402V167C93.5 165.439 92.2311 164.167 90.6667 164.167H81.3333C79.7689 164.167 78.5 165.439 78.5 167V172.402V172.718L78.785 172.853C80.9736 173.896 83.4151 174.5 86 174.5C88.5849 174.5 91.0264 173.896 93.215 172.853ZM97.1667 169.075V170.3L98.024 169.424C100.993 166.391 102.833 162.242 102.833 157.667C102.833 148.384 95.2804 140.834 86 140.834C76.7196 140.834 69.1667 148.384 69.1667 157.667C69.1667 162.242 71.0073 166.391 73.976 169.424L74.8333 170.3V169.075V167C74.8333 164.407 76.373 162.176 78.5854 161.134L79.123 160.881L78.7816 160.394C77.7704 158.954 77.1667 157.217 77.1667 155.334C77.1667 150.462 81.1288 146.5 86 146.5C90.8712 146.5 94.8333 150.462 94.8333 155.334C94.8333 157.217 94.2294 158.956 93.2186 160.394L92.8766 160.881L93.4146 161.134C95.627 162.176 97.1667 164.407 97.1667 167V169.075ZM106.5 157.667C106.5 168.969 97.3042 178.167 86 178.167C74.6958 178.167 65.5 168.969 65.5 157.667C65.5 146.365 74.6958 137.167 86 137.167C97.3042 137.167 106.5 146.365 106.5 157.667ZM86 150.167C83.1502 150.167 80.8333 152.484 80.8333 155.334C80.8333 158.183 83.1502 160.5 86 160.5C88.8498 160.5 91.1667 158.183 91.1667 155.334C91.1667 152.484 88.8498 150.167 86 150.167Z" fill="white" stroke="#F66464"/>
<path d="M142.215 175.186L142.5 175.051V174.735V169.333C142.5 167.772 141.231 166.5 139.667 166.5H130.333C128.769 166.5 127.5 167.772 127.5 169.333V174.735V175.051L127.785 175.186C129.974 176.229 132.415 176.833 135 176.833C137.585 176.833 140.026 176.229 142.215 175.186ZM146.167 171.408V172.633L147.024 171.757C149.993 168.724 151.833 164.575 151.833 160C151.833 150.717 144.28 143.167 135 143.167C125.72 143.167 118.167 150.717 118.167 160C118.167 164.573 120.007 168.721 122.976 171.757L123.833 172.634V171.408V169.333C123.833 166.74 125.373 164.509 127.585 163.467L128.123 163.214L127.782 162.727C126.77 161.287 126.167 159.55 126.167 157.667C126.167 152.795 130.129 148.833 135 148.833C139.871 148.833 143.833 152.795 143.833 157.667C143.833 159.55 143.229 161.289 142.219 162.727L141.877 163.214L142.415 163.467C144.627 164.509 146.167 166.74 146.167 169.333V171.408ZM135 180.5C123.696 180.5 114.5 171.302 114.5 160C114.5 148.698 123.696 139.5 135 139.5C146.304 139.5 155.5 148.698 155.5 160C155.5 171.302 146.304 180.5 135 180.5ZM135 152.5C132.15 152.5 129.833 154.817 129.833 157.667C129.833 160.516 132.15 162.833 135 162.833C137.85 162.833 140.167 160.516 140.167 157.667C140.167 154.817 137.85 152.5 135 152.5Z" fill="white" stroke="#F66464"/>
<path d="M191.215 172.853L191.5 172.718V172.402V167C191.5 165.439 190.231 164.167 188.667 164.167H179.333C177.769 164.167 176.5 165.439 176.5 167V172.402V172.718L176.785 172.853C178.974 173.896 181.415 174.5 184 174.5C186.585 174.5 189.026 173.896 191.215 172.853ZM195.167 169.075V170.3L196.024 169.424C198.993 166.391 200.833 162.242 200.833 157.667C200.833 148.384 193.28 140.834 184 140.834C174.72 140.834 167.167 148.384 167.167 157.667C167.167 162.24 169.007 166.388 171.976 169.424L172.833 170.301V169.075V167C172.833 164.407 174.373 162.176 176.585 161.134L177.123 160.881L176.782 160.394C175.77 158.954 175.167 157.217 175.167 155.334C175.167 150.462 179.129 146.5 184 146.5C188.871 146.5 192.833 150.462 192.833 155.334C192.833 157.217 192.229 158.956 191.219 160.394L190.877 160.881L191.415 161.134C193.627 162.176 195.167 164.407 195.167 167V169.075ZM184 178.167C172.696 178.167 163.5 168.969 163.5 157.667C163.5 146.365 172.696 137.167 184 137.167C195.304 137.167 204.5 146.365 204.5 157.667C204.5 168.969 195.304 178.167 184 178.167ZM184 150.167C181.15 150.167 178.833 152.484 178.833 155.334C178.833 158.183 181.15 160.5 184 160.5C186.85 160.5 189.167 158.183 189.167 155.334C189.167 152.484 186.85 150.167 184 150.167Z" fill="white" stroke="#F66464"/>
<path d="M88.7331 122.967L91.2331 119.634L94.1664 121.834L87.4664 130.767C87.1198 131.229 86.5773 131.5 85.9997 131.5C85.4213 131.5 84.8774 131.229 84.5338 130.768L84.5331 130.767L77.8331 121.834L80.7664 119.634L83.2664 122.967L84.1664 124.167V122.667V109.167H87.8331V122.667V124.167L88.7331 122.967Z" fill="white" stroke="#F66464"/>
<path d="M186.733 122.967L189.233 119.634L192.166 121.834L185.466 130.767C185.12 131.229 184.577 131.5 184 131.5C183.421 131.5 182.877 131.229 182.534 130.768L182.533 130.767L175.833 121.834L178.766 119.634L181.266 122.967L182.166 124.167V122.667V109.167H185.833V122.667V124.167L186.733 122.967Z" fill="white" stroke="#F66464"/>
</svg>
