<svg width="258" height="281" viewBox="0 0 258 281" fill="none" xmlns="http://www.w3.org/2000/svg">
<path d="M163.621 22.35C179.838 26.2566 203.069 25.797 214.903 35.6783C226.519 45.7895 226.519 66.2415 222.793 85.5446C219.286 104.618 211.835 122.772 199.562 134.951C187.29 147.131 170.415 153.565 154.197 154.714C137.98 156.093 122.639 152.186 105.545 149.429C88.2313 146.671 69.1648 145.062 55.358 134.951C41.332 124.84 32.785 106.226 33.0041 88.3022C33.0041 70.1481 41.9895 52.4536 51.6323 37.0571C61.2752 21.6606 71.7947 8.79192 84.7248 3.27676C97.655 -2.2384 113.215 -0.170217 125.707 4.88535C137.98 10.1707 147.184 18.4435 163.621 22.35Z" fill="#F66464"/>
<rect y="137" width="258" height="144" rx="28" fill="#EFEDED"/>
<path d="M60.1704 171.8C61.3224 171.8 62.3464 172.072 63.2424 172.616C64.1491 173.16 64.8158 173.944 65.2424 174.968H63.4824C63.1624 174.36 62.7144 173.896 62.1384 173.576C61.5624 173.256 60.9064 173.096 60.1704 173.096C59.3811 173.096 58.6664 173.277 58.0264 173.64C57.3971 173.992 56.9011 174.499 56.5384 175.16C56.1864 175.821 56.0104 176.584 56.0104 177.448C56.0104 178.312 56.1864 179.075 56.5384 179.736C56.9011 180.397 57.3971 180.909 58.0264 181.272C58.6664 181.635 59.3811 181.816 60.1704 181.816C60.9064 181.816 61.5624 181.656 62.1384 181.336C62.7144 181.005 63.1624 180.536 63.4824 179.928H65.2424C64.8158 180.952 64.1491 181.736 63.2424 182.28C62.3464 182.824 61.3224 183.096 60.1704 183.096C59.1358 183.096 58.1864 182.856 57.3224 182.376C56.4584 181.885 55.7758 181.213 55.2744 180.36C54.7731 179.496 54.5224 178.525 54.5224 177.448C54.5224 176.36 54.7731 175.389 55.2744 174.536C55.7758 173.672 56.4584 173 57.3224 172.52C58.1864 172.04 59.1358 171.8 60.1704 171.8ZM75.1839 174.216V183H73.7279V181.592C73.4399 182.104 73.0453 182.493 72.5439 182.76C72.0426 183.016 71.4826 183.144 70.8639 183.144C70.2346 183.144 69.6586 183.005 69.1359 182.728C68.6239 182.44 68.2133 182.019 67.9039 181.464C67.6053 180.909 67.4559 180.232 67.4559 179.432V174.216H68.8959V179.192C68.8959 180.067 69.1093 180.739 69.5359 181.208C69.9733 181.667 70.5653 181.896 71.3119 181.896C72.0586 181.896 72.6453 181.667 73.0719 181.208C73.5093 180.739 73.7279 180.067 73.7279 179.192V174.216H75.1839ZM79.0388 175.704C79.5615 174.616 80.4521 174.072 81.7108 174.072V175.592H81.3268C80.5801 175.592 80.0095 175.789 79.6148 176.184C79.2308 176.568 79.0388 177.24 79.0388 178.2V183H77.5828V174.216H79.0388V175.704ZM84.9294 175.704C85.4521 174.616 86.3428 174.072 87.6014 174.072V175.592H87.2174C86.4708 175.592 85.9001 175.789 85.5054 176.184C85.1214 176.568 84.9294 177.24 84.9294 178.2V183H83.4734V174.216H84.9294V175.704ZM97.3321 178.248C97.3321 178.557 97.3107 178.845 97.2681 179.112H90.2761C90.3187 179.987 90.5907 180.68 91.0921 181.192C91.6041 181.693 92.2547 181.944 93.0441 181.944C93.6414 181.944 94.1427 181.811 94.5481 181.544C94.9641 181.277 95.2681 180.925 95.4601 180.488H97.0281C96.7507 181.256 96.2707 181.891 95.5881 182.392C94.9161 182.893 94.0681 183.144 93.0441 183.144C92.2227 183.144 91.4867 182.957 90.8361 182.584C90.1961 182.211 89.6947 181.683 89.3321 181C88.9694 180.307 88.7881 179.512 88.7881 178.616C88.7881 177.709 88.9694 176.915 89.3321 176.232C89.6947 175.539 90.2067 175.005 90.8681 174.632C91.5294 174.259 92.2921 174.072 93.1561 174.072C93.9774 174.072 94.7027 174.253 95.3321 174.616C95.9614 174.979 96.4521 175.475 96.8041 176.104C97.1561 176.733 97.3321 177.448 97.3321 178.248ZM95.8121 178.056C95.8121 177.491 95.6894 177 95.4441 176.584C95.1987 176.157 94.8627 175.832 94.4361 175.608C94.0201 175.384 93.5561 175.272 93.0441 175.272C92.2867 175.272 91.6521 175.523 91.1401 176.024C90.6281 176.515 90.3454 177.192 90.2921 178.056H95.8121ZM103.465 174.072C104.095 174.072 104.665 174.216 105.177 174.504C105.7 174.781 106.111 175.203 106.409 175.768C106.719 176.323 106.873 177 106.873 177.8V183H105.433V178.04C105.433 177.155 105.22 176.483 104.793 176.024C104.367 175.565 103.775 175.336 103.017 175.336C102.271 175.336 101.679 175.565 101.241 176.024C100.815 176.483 100.601 177.155 100.601 178.04V183H99.1453V174.216H100.601V175.64C100.889 175.128 101.284 174.739 101.785 174.472C102.287 174.205 102.847 174.072 103.465 174.072ZM113.272 181.816V183H111.8C111.054 183 110.483 182.819 110.088 182.456C109.704 182.093 109.512 181.523 109.512 180.744V175.4H108.376V174.216H109.512V172.04H110.984V174.216H113.256V175.4H110.984V180.744C110.984 181.139 111.064 181.416 111.224 181.576C111.384 181.736 111.667 181.816 112.072 181.816H113.272ZM116.336 171.16V183H114.88V171.16H116.336ZM119.331 174.216L122.019 181.32L124.755 174.216H126.259L120.963 187.112H119.459L121.203 182.856L117.731 174.216H119.331ZM133.034 174.216L135.722 181.32L138.458 174.216H139.962L134.666 187.112H133.162L134.906 182.856L131.434 174.216H133.034ZM145.204 174.072C146.036 174.072 146.788 174.259 147.46 174.632C148.132 175.005 148.66 175.539 149.044 176.232C149.439 176.925 149.636 177.72 149.636 178.616C149.636 179.501 149.434 180.291 149.028 180.984C148.623 181.667 148.074 182.2 147.38 182.584C146.687 182.957 145.919 183.144 145.076 183.144C144.255 183.144 143.514 182.957 142.852 182.584C142.202 182.211 141.69 181.683 141.316 181C140.954 180.307 140.772 179.512 140.772 178.616C140.772 177.709 140.964 176.915 141.348 176.232C141.743 175.539 142.276 175.005 142.948 174.632C143.62 174.259 144.372 174.072 145.204 174.072ZM145.156 175.272C144.623 175.272 144.138 175.4 143.7 175.656C143.263 175.912 142.911 176.291 142.644 176.792C142.388 177.293 142.26 177.901 142.26 178.616C142.26 179.32 142.383 179.923 142.628 180.424C142.884 180.925 143.226 181.304 143.652 181.56C144.079 181.816 144.554 181.944 145.076 181.944C145.61 181.944 146.106 181.816 146.564 181.56C147.034 181.293 147.412 180.909 147.7 180.408C147.988 179.907 148.132 179.309 148.132 178.616C148.132 177.912 147.994 177.309 147.716 176.808C147.45 176.296 147.087 175.912 146.628 175.656C146.18 175.4 145.69 175.272 145.156 175.272ZM159.106 174.216V183H157.65V181.592C157.362 182.104 156.967 182.493 156.466 182.76C155.964 183.016 155.404 183.144 154.786 183.144C154.156 183.144 153.58 183.005 153.058 182.728C152.546 182.44 152.135 182.019 151.826 181.464C151.527 180.909 151.378 180.232 151.378 179.432V174.216H152.818V179.192C152.818 180.067 153.031 180.739 153.458 181.208C153.895 181.667 154.487 181.896 155.234 181.896C155.98 181.896 156.567 181.667 156.994 181.208C157.431 180.739 157.65 180.067 157.65 179.192V174.216H159.106ZM169.918 174.072C170.664 174.072 171.315 174.248 171.87 174.6C172.435 174.952 172.862 175.411 173.15 175.976V171.16H174.622V183H173.15V181.208C172.862 181.784 172.435 182.253 171.87 182.616C171.315 182.968 170.664 183.144 169.918 183.144C169.128 183.144 168.414 182.952 167.774 182.568C167.144 182.173 166.643 181.629 166.27 180.936C165.907 180.232 165.726 179.437 165.726 178.552C165.726 177.667 165.907 176.888 166.27 176.216C166.643 175.533 167.144 175.005 167.774 174.632C168.414 174.259 169.128 174.072 169.918 174.072ZM170.174 175.336C169.651 175.336 169.16 175.464 168.702 175.72C168.254 175.976 167.891 176.349 167.614 176.84C167.347 177.32 167.214 177.891 167.214 178.552C167.214 179.213 167.347 179.8 167.614 180.312C167.891 180.813 168.254 181.203 168.702 181.48C169.16 181.757 169.651 181.896 170.174 181.896C170.707 181.896 171.198 181.763 171.646 181.496C172.104 181.229 172.467 180.851 172.734 180.36C173.011 179.859 173.15 179.277 173.15 178.616C173.15 177.955 173.011 177.379 172.734 176.888C172.467 176.387 172.104 176.003 171.646 175.736C171.198 175.469 170.707 175.336 170.174 175.336ZM180.876 174.072C181.708 174.072 182.46 174.259 183.132 174.632C183.804 175.005 184.332 175.539 184.716 176.232C185.111 176.925 185.308 177.72 185.308 178.616C185.308 179.501 185.106 180.291 184.7 180.984C184.295 181.667 183.746 182.2 183.052 182.584C182.359 182.957 181.591 183.144 180.748 183.144C179.927 183.144 179.186 182.957 178.524 182.584C177.874 182.211 177.362 181.683 176.988 181C176.626 180.307 176.444 179.512 176.444 178.616C176.444 177.709 176.636 176.915 177.02 176.232C177.415 175.539 177.948 175.005 178.62 174.632C179.292 174.259 180.044 174.072 180.876 174.072ZM180.828 175.272C180.295 175.272 179.81 175.4 179.372 175.656C178.935 175.912 178.583 176.291 178.316 176.792C178.06 177.293 177.932 177.901 177.932 178.616C177.932 179.32 178.055 179.923 178.3 180.424C178.556 180.925 178.898 181.304 179.324 181.56C179.751 181.816 180.226 181.944 180.748 181.944C181.282 181.944 181.778 181.816 182.236 181.56C182.706 181.293 183.084 180.909 183.372 180.408C183.66 179.907 183.804 179.309 183.804 178.616C183.804 177.912 183.666 177.309 183.388 176.808C183.122 176.296 182.759 175.912 182.3 175.656C181.852 175.4 181.362 175.272 180.828 175.272ZM191.45 174.072C192.079 174.072 192.65 174.216 193.162 174.504C193.684 174.781 194.095 175.203 194.394 175.768C194.703 176.323 194.858 177 194.858 177.8V183H193.418V178.04C193.418 177.155 193.204 176.483 192.778 176.024C192.351 175.565 191.759 175.336 191.002 175.336C190.255 175.336 189.663 175.565 189.226 176.024C188.799 176.483 188.586 177.155 188.586 178.04V183H187.13V174.216H188.586V175.64C188.874 175.128 189.268 174.739 189.77 174.472C190.271 174.205 190.831 174.072 191.45 174.072ZM197.833 170.472C197.961 171.027 198.025 171.517 198.025 171.944C198.025 172.573 197.886 173.032 197.609 173.32C197.342 173.608 196.942 173.752 196.409 173.752V173.048C196.665 173.048 196.851 172.984 196.969 172.856C197.097 172.717 197.161 172.504 197.161 172.216V171.848H196.377V170.472H197.833ZM203.694 181.816V183H202.222C201.475 183 200.905 182.819 200.51 182.456C200.126 182.093 199.934 181.523 199.934 180.744V175.4H198.798V174.216H199.934V172.04H201.406V174.216H203.678V175.4H201.406V180.744C201.406 181.139 201.486 181.416 201.646 181.576C201.806 181.736 202.089 181.816 202.494 181.816H203.694ZM45.5356 198.072C46.165 198.072 46.7356 198.216 47.2476 198.504C47.7703 198.781 48.181 199.203 48.4796 199.768C48.789 200.323 48.9436 201 48.9436 201.8V207H47.5036V202.04C47.5036 201.155 47.2903 200.483 46.8636 200.024C46.437 199.565 45.845 199.336 45.0876 199.336C44.341 199.336 43.749 199.565 43.3116 200.024C42.885 200.483 42.6716 201.155 42.6716 202.04V207H41.2156V195.16H42.6716V199.64C42.9596 199.128 43.3543 198.739 43.8556 198.472C44.357 198.205 44.917 198.072 45.5356 198.072ZM54.8785 198.072C55.6252 198.072 56.2758 198.248 56.8305 198.6C57.3958 198.952 57.8225 199.411 58.1105 199.976V198.216H59.5825V207H58.1105V205.208C57.8225 205.784 57.3958 206.253 56.8305 206.616C56.2758 206.968 55.6252 207.144 54.8785 207.144C54.0892 207.144 53.3745 206.952 52.7345 206.568C52.1052 206.173 51.6038 205.629 51.2305 204.936C50.8678 204.232 50.6865 203.437 50.6865 202.552C50.6865 201.667 50.8678 200.888 51.2305 200.216C51.6038 199.533 52.1052 199.005 52.7345 198.632C53.3745 198.259 54.0892 198.072 54.8785 198.072ZM55.1345 199.336C54.6118 199.336 54.1212 199.464 53.6625 199.72C53.2145 199.976 52.8518 200.349 52.5745 200.84C52.3078 201.32 52.1745 201.891 52.1745 202.552C52.1745 203.213 52.3078 203.8 52.5745 204.312C52.8518 204.813 53.2145 205.203 53.6625 205.48C54.1212 205.757 54.6118 205.896 55.1345 205.896C55.6678 205.896 56.1585 205.763 56.6065 205.496C57.0652 205.229 57.4278 204.851 57.6945 204.36C57.9718 203.859 58.1105 203.277 58.1105 202.616C58.1105 201.955 57.9718 201.379 57.6945 200.888C57.4278 200.387 57.0652 200.003 56.6065 199.736C56.1585 199.469 55.6678 199.336 55.1345 199.336ZM65.2133 205.64L67.9173 198.216H69.4853L66.0453 207H64.3973L60.9733 198.216H62.5253L65.2133 205.64ZM78.8399 202.248C78.8399 202.557 78.8185 202.845 78.7759 203.112H71.7839C71.8265 203.987 72.0985 204.68 72.5999 205.192C73.1119 205.693 73.7625 205.944 74.5519 205.944C75.1492 205.944 75.6505 205.811 76.0559 205.544C76.4719 205.277 76.7759 204.925 76.9679 204.488H78.5359C78.2585 205.256 77.7785 205.891 77.0959 206.392C76.4239 206.893 75.5759 207.144 74.5519 207.144C73.7305 207.144 72.9945 206.957 72.3439 206.584C71.7039 206.211 71.2025 205.683 70.8399 205C70.4772 204.307 70.2959 203.512 70.2959 202.616C70.2959 201.709 70.4772 200.915 70.8399 200.232C71.2025 199.539 71.7145 199.005 72.3759 198.632C73.0372 198.259 73.7999 198.072 74.6639 198.072C75.4852 198.072 76.2105 198.253 76.8399 198.616C77.4692 198.979 77.9599 199.475 78.3119 200.104C78.6639 200.733 78.8399 201.448 78.8399 202.248ZM77.3199 202.056C77.3199 201.491 77.1972 201 76.9519 200.584C76.7065 200.157 76.3705 199.832 75.9439 199.608C75.5279 199.384 75.0639 199.272 74.5519 199.272C73.7945 199.272 73.1599 199.523 72.6479 200.024C72.1359 200.515 71.8532 201.192 71.7999 202.056H77.3199ZM92.682 203.896C92.682 204.451 92.538 204.973 92.25 205.464C91.962 205.955 91.5353 206.355 90.97 206.664C90.4047 206.963 89.7273 207.112 88.938 207.112C88.234 207.112 87.5993 207 87.034 206.776C86.4687 206.541 86.0207 206.211 85.69 205.784C85.37 205.347 85.21 204.829 85.21 204.232H86.762C86.8047 204.733 87.002 205.139 87.354 205.448C87.7167 205.757 88.2447 205.912 88.938 205.912C89.6527 205.912 90.218 205.731 90.634 205.368C91.05 205.005 91.258 204.541 91.258 203.976C91.258 203.549 91.1407 203.213 90.906 202.968C90.6713 202.712 90.378 202.52 90.026 202.392C89.674 202.264 89.2047 202.136 88.618 202.008C87.882 201.837 87.2847 201.661 86.826 201.48C86.378 201.299 85.994 201.005 85.674 200.6C85.3647 200.195 85.21 199.635 85.21 198.92C85.21 198.301 85.3593 197.757 85.658 197.288C85.9567 196.819 86.3833 196.456 86.938 196.2C87.5033 195.933 88.1593 195.8 88.906 195.8C89.9193 195.8 90.7407 196.051 91.37 196.552C92.01 197.043 92.378 197.725 92.474 198.6H90.858C90.8153 198.163 90.6073 197.789 90.234 197.48C89.8713 197.171 89.3807 197.016 88.762 197.016C88.1327 197.016 87.6207 197.176 87.226 197.496C86.8313 197.805 86.634 198.264 86.634 198.872C86.634 199.309 86.7513 199.656 86.986 199.912C87.2207 200.168 87.5087 200.36 87.85 200.488C88.202 200.616 88.6873 200.749 89.306 200.888C90.0313 201.059 90.618 201.235 91.066 201.416C91.514 201.587 91.8927 201.869 92.202 202.264C92.522 202.659 92.682 203.203 92.682 203.896ZM102.489 198.216V207H101.033V205.592C100.745 206.104 100.35 206.493 99.8486 206.76C99.3473 207.016 98.7873 207.144 98.1686 207.144C97.5393 207.144 96.9633 207.005 96.4406 206.728C95.9286 206.44 95.518 206.019 95.2086 205.464C94.91 204.909 94.7606 204.232 94.7606 203.432V198.216H96.2006V203.192C96.2006 204.067 96.414 204.739 96.8406 205.208C97.278 205.667 97.87 205.896 98.6166 205.896C99.3633 205.896 99.95 205.667 100.377 205.208C100.814 204.739 101.033 204.067 101.033 203.192V198.216H102.489ZM109.592 198.072C110.381 198.072 111.09 198.259 111.72 198.632C112.36 199.005 112.861 199.533 113.224 200.216C113.597 200.888 113.784 201.667 113.784 202.552C113.784 203.437 113.597 204.232 113.224 204.936C112.861 205.629 112.36 206.173 111.72 206.568C111.09 206.952 110.381 207.144 109.592 207.144C108.845 207.144 108.189 206.968 107.624 206.616C107.069 206.253 106.642 205.784 106.344 205.208V211.16H104.888V198.216H106.344V199.976C106.642 199.411 107.069 198.952 107.624 198.6C108.189 198.248 108.845 198.072 109.592 198.072ZM109.304 199.336C108.781 199.336 108.29 199.469 107.832 199.736C107.384 200.003 107.021 200.387 106.744 200.888C106.477 201.379 106.344 201.955 106.344 202.616C106.344 203.277 106.477 203.859 106.744 204.36C107.021 204.851 107.384 205.229 107.832 205.496C108.29 205.763 108.781 205.896 109.304 205.896C109.826 205.896 110.317 205.763 110.776 205.496C111.234 205.219 111.597 204.824 111.864 204.312C112.141 203.8 112.28 203.213 112.28 202.552C112.28 201.891 112.141 201.32 111.864 200.84C111.597 200.349 111.234 199.976 110.776 199.72C110.328 199.464 109.837 199.336 109.304 199.336ZM120.31 198.072C121.1 198.072 121.809 198.259 122.438 198.632C123.078 199.005 123.58 199.533 123.942 200.216C124.316 200.888 124.502 201.667 124.502 202.552C124.502 203.437 124.316 204.232 123.942 204.936C123.58 205.629 123.078 206.173 122.438 206.568C121.809 206.952 121.1 207.144 120.31 207.144C119.564 207.144 118.908 206.968 118.342 206.616C117.788 206.253 117.361 205.784 117.062 205.208V211.16H115.606V198.216H117.062V199.976C117.361 199.411 117.788 198.952 118.342 198.6C118.908 198.248 119.564 198.072 120.31 198.072ZM120.022 199.336C119.5 199.336 119.009 199.469 118.55 199.736C118.102 200.003 117.74 200.387 117.462 200.888C117.196 201.379 117.062 201.955 117.062 202.616C117.062 203.277 117.196 203.859 117.462 204.36C117.74 204.851 118.102 205.229 118.55 205.496C119.009 205.763 119.5 205.896 120.022 205.896C120.545 205.896 121.036 205.763 121.494 205.496C121.953 205.219 122.316 204.824 122.582 204.312C122.86 203.8 122.998 203.213 122.998 202.552C122.998 201.891 122.86 201.32 122.582 200.84C122.316 200.349 121.953 199.976 121.494 199.72C121.046 199.464 120.556 199.336 120.022 199.336ZM127.781 195.16V207H126.325V195.16H127.781ZM129.944 195.816C129.944 195.539 130.04 195.304 130.232 195.112C130.424 194.92 130.654 194.824 130.92 194.824C131.198 194.824 131.432 194.92 131.624 195.112C131.816 195.304 131.912 195.539 131.912 195.816C131.912 196.093 131.816 196.328 131.624 196.52C131.432 196.712 131.198 196.808 130.92 196.808C130.643 196.808 130.408 196.712 130.216 196.52C130.035 196.328 129.944 196.093 129.944 195.816ZM131.64 198.216V207H130.184V198.216H131.64ZM142.012 202.248C142.012 202.557 141.99 202.845 141.948 203.112H134.956C134.998 203.987 135.27 204.68 135.772 205.192C136.284 205.693 136.934 205.944 137.724 205.944C138.321 205.944 138.822 205.811 139.228 205.544C139.644 205.277 139.948 204.925 140.14 204.488H141.708C141.43 205.256 140.95 205.891 140.268 206.392C139.596 206.893 138.748 207.144 137.724 207.144C136.902 207.144 136.166 206.957 135.516 206.584C134.876 206.211 134.374 205.683 134.012 205C133.649 204.307 133.468 203.512 133.468 202.616C133.468 201.709 133.649 200.915 134.012 200.232C134.374 199.539 134.886 199.005 135.548 198.632C136.209 198.259 136.972 198.072 137.836 198.072C138.657 198.072 139.382 198.253 140.012 198.616C140.641 198.979 141.132 199.475 141.484 200.104C141.836 200.733 142.012 201.448 142.012 202.248ZM140.492 202.056C140.492 201.491 140.369 201 140.124 200.584C139.878 200.157 139.542 199.832 139.116 199.608C138.7 199.384 138.236 199.272 137.724 199.272C136.966 199.272 136.332 199.523 135.82 200.024C135.308 200.515 135.025 201.192 134.972 202.056H140.492ZM145.281 199.704C145.804 198.616 146.694 198.072 147.953 198.072V199.592H147.569C146.822 199.592 146.252 199.789 145.857 200.184C145.473 200.568 145.281 201.24 145.281 202.2V207H143.825V198.216H145.281V199.704ZM152.74 198.072C153.689 198.072 154.441 198.323 154.996 198.824C155.55 199.315 155.854 199.992 155.908 200.856H154.404C154.382 200.365 154.217 199.971 153.908 199.672C153.598 199.373 153.172 199.224 152.628 199.224C152.073 199.224 151.636 199.357 151.316 199.624C151.006 199.88 150.852 200.205 150.852 200.6C150.852 200.931 150.948 201.197 151.14 201.4C151.342 201.592 151.588 201.736 151.876 201.832C152.174 201.928 152.574 202.029 153.076 202.136C153.716 202.285 154.228 202.435 154.612 202.584C155.006 202.723 155.342 202.963 155.62 203.304C155.897 203.635 156.036 204.088 156.036 204.664C156.036 205.144 155.897 205.576 155.62 205.96C155.342 206.333 154.953 206.627 154.452 206.84C153.95 207.043 153.374 207.144 152.724 207.144C151.742 207.144 150.953 206.899 150.356 206.408C149.769 205.917 149.449 205.24 149.396 204.376H150.9C150.921 204.867 151.092 205.261 151.412 205.56C151.742 205.848 152.18 205.992 152.724 205.992C153.321 205.992 153.78 205.869 154.1 205.624C154.43 205.379 154.596 205.053 154.596 204.648C154.596 204.317 154.494 204.056 154.292 203.864C154.1 203.661 153.854 203.512 153.556 203.416C153.257 203.309 152.846 203.197 152.324 203.08C151.694 202.941 151.182 202.803 150.788 202.664C150.404 202.515 150.073 202.285 149.796 201.976C149.529 201.667 149.396 201.24 149.396 200.696C149.396 200.216 149.529 199.779 149.796 199.384C150.073 198.979 150.462 198.659 150.964 198.424C151.476 198.189 152.068 198.072 152.74 198.072ZM159.049 205.928C159.188 206.493 159.258 207.011 159.258 207.48C159.258 208.685 158.708 209.288 157.61 209.288V208.584C157.876 208.584 158.068 208.52 158.186 208.392C158.314 208.264 158.378 208.061 158.378 207.784V207.416H157.562V205.928H159.049ZM170.607 198.072C171.396 198.072 172.106 198.259 172.735 198.632C173.375 199.005 173.876 199.533 174.239 200.216C174.612 200.888 174.799 201.667 174.799 202.552C174.799 203.437 174.612 204.232 174.239 204.936C173.876 205.629 173.375 206.173 172.735 206.568C172.106 206.952 171.396 207.144 170.607 207.144C169.86 207.144 169.204 206.968 168.639 206.616C168.084 206.253 167.658 205.784 167.359 205.208V211.16H165.903V198.216H167.359V199.976C167.658 199.411 168.084 198.952 168.639 198.6C169.204 198.248 169.86 198.072 170.607 198.072ZM170.319 199.336C169.796 199.336 169.306 199.469 168.847 199.736C168.399 200.003 168.036 200.387 167.759 200.888C167.492 201.379 167.359 201.955 167.359 202.616C167.359 203.277 167.492 203.859 167.759 204.36C168.036 204.851 168.399 205.229 168.847 205.496C169.306 205.763 169.796 205.896 170.319 205.896C170.842 205.896 171.332 205.763 171.791 205.496C172.25 205.219 172.612 204.824 172.879 204.312C173.156 203.8 173.295 203.213 173.295 202.552C173.295 201.891 173.156 201.32 172.879 200.84C172.612 200.349 172.25 199.976 171.791 199.72C171.343 199.464 170.852 199.336 170.319 199.336ZM178.078 195.16V207H176.622V195.16H178.078ZM188.449 202.248C188.449 202.557 188.428 202.845 188.385 203.112H181.393C181.436 203.987 181.708 204.68 182.209 205.192C182.721 205.693 183.372 205.944 184.161 205.944C184.759 205.944 185.26 205.811 185.665 205.544C186.081 205.277 186.385 204.925 186.577 204.488H188.145C187.868 205.256 187.388 205.891 186.705 206.392C186.033 206.893 185.185 207.144 184.161 207.144C183.34 207.144 182.604 206.957 181.953 206.584C181.313 206.211 180.812 205.683 180.449 205C180.087 204.307 179.905 203.512 179.905 202.616C179.905 201.709 180.087 200.915 180.449 200.232C180.812 199.539 181.324 199.005 181.985 198.632C182.647 198.259 183.409 198.072 184.273 198.072C185.095 198.072 185.82 198.253 186.449 198.616C187.079 198.979 187.569 199.475 187.921 200.104C188.273 200.733 188.449 201.448 188.449 202.248ZM186.929 202.056C186.929 201.491 186.807 201 186.561 200.584C186.316 200.157 185.98 199.832 185.553 199.608C185.137 199.384 184.673 199.272 184.161 199.272C183.404 199.272 182.769 199.523 182.257 200.024C181.745 200.515 181.463 201.192 181.409 202.056H186.929ZM193.879 198.072C194.625 198.072 195.276 198.248 195.831 198.6C196.396 198.952 196.823 199.411 197.111 199.976V198.216H198.583V207H197.111V205.208C196.823 205.784 196.396 206.253 195.831 206.616C195.276 206.968 194.625 207.144 193.879 207.144C193.089 207.144 192.375 206.952 191.735 206.568C191.105 206.173 190.604 205.629 190.231 204.936C189.868 204.232 189.687 203.437 189.687 202.552C189.687 201.667 189.868 200.888 190.231 200.216C190.604 199.533 191.105 199.005 191.735 198.632C192.375 198.259 193.089 198.072 193.879 198.072ZM194.135 199.336C193.612 199.336 193.121 199.464 192.663 199.72C192.215 199.976 191.852 200.349 191.575 200.84C191.308 201.32 191.174 201.891 191.174 202.552C191.174 203.213 191.308 203.8 191.575 204.312C191.852 204.813 192.215 205.203 192.663 205.48C193.121 205.757 193.612 205.896 194.135 205.896C194.668 205.896 195.159 205.763 195.607 205.496C196.065 205.229 196.428 204.851 196.695 204.36C196.972 203.859 197.111 203.277 197.111 202.616C197.111 201.955 196.972 201.379 196.695 200.888C196.428 200.387 196.065 200.003 195.607 199.736C195.159 199.469 194.668 199.336 194.135 199.336ZM204.005 198.072C204.955 198.072 205.707 198.323 206.261 198.824C206.816 199.315 207.12 199.992 207.173 200.856H205.669C205.648 200.365 205.483 199.971 205.173 199.672C204.864 199.373 204.437 199.224 203.893 199.224C203.339 199.224 202.901 199.357 202.581 199.624C202.272 199.88 202.117 200.205 202.117 200.6C202.117 200.931 202.213 201.197 202.405 201.4C202.608 201.592 202.853 201.736 203.141 201.832C203.44 201.928 203.84 202.029 204.341 202.136C204.981 202.285 205.493 202.435 205.877 202.584C206.272 202.723 206.608 202.963 206.885 203.304C207.163 203.635 207.301 204.088 207.301 204.664C207.301 205.144 207.163 205.576 206.885 205.96C206.608 206.333 206.219 206.627 205.717 206.84C205.216 207.043 204.64 207.144 203.989 207.144C203.008 207.144 202.219 206.899 201.621 206.408C201.035 205.917 200.715 205.24 200.661 204.376H202.165C202.187 204.867 202.357 205.261 202.677 205.56C203.008 205.848 203.445 205.992 203.989 205.992C204.587 205.992 205.045 205.869 205.365 205.624C205.696 205.379 205.861 205.053 205.861 204.648C205.861 204.317 205.76 204.056 205.557 203.864C205.365 203.661 205.12 203.512 204.821 203.416C204.523 203.309 204.112 203.197 203.589 203.08C202.96 202.941 202.448 202.803 202.053 202.664C201.669 202.515 201.339 202.285 201.061 201.976C200.795 201.667 200.661 201.24 200.661 200.696C200.661 200.216 200.795 199.779 201.061 199.384C201.339 198.979 201.728 198.659 202.229 198.424C202.741 198.189 203.333 198.072 204.005 198.072ZM217.371 202.248C217.371 202.557 217.35 202.845 217.307 203.112H210.315C210.358 203.987 210.63 204.68 211.131 205.192C211.643 205.693 212.294 205.944 213.083 205.944C213.68 205.944 214.182 205.811 214.587 205.544C215.003 205.277 215.307 204.925 215.499 204.488H217.067C216.79 205.256 216.31 205.891 215.627 206.392C214.955 206.893 214.107 207.144 213.083 207.144C212.262 207.144 211.526 206.957 210.875 206.584C210.235 206.211 209.734 205.683 209.371 205C209.008 204.307 208.827 203.512 208.827 202.616C208.827 201.709 209.008 200.915 209.371 200.232C209.734 199.539 210.246 199.005 210.907 198.632C211.568 198.259 212.331 198.072 213.195 198.072C214.016 198.072 214.742 198.253 215.371 198.616C216 198.979 216.491 199.475 216.843 200.104C217.195 200.733 217.371 201.448 217.371 202.248ZM215.851 202.056C215.851 201.491 215.728 201 215.483 200.584C215.238 200.157 214.902 199.832 214.475 199.608C214.059 199.384 213.595 199.272 213.083 199.272C212.326 199.272 211.691 199.523 211.179 200.024C210.667 200.515 210.384 201.192 210.331 202.056H215.851ZM69.4113 223.072C70.4673 223.072 71.3259 223.317 71.9873 223.808C72.6593 224.299 73.1286 224.997 73.3953 225.904H71.8273C71.6566 225.392 71.3633 224.992 70.9473 224.704C70.5313 224.416 70.0193 224.272 69.4113 224.272C68.5793 224.272 67.9073 224.565 67.3953 225.152C66.8939 225.728 66.6432 226.549 66.6432 227.616C66.6432 228.672 66.8939 229.493 67.3953 230.08C67.9073 230.656 68.5793 230.944 69.4113 230.944C70.0299 230.944 70.5419 230.805 70.9473 230.528C71.3526 230.251 71.6459 229.845 71.8273 229.312H73.3953C73.1286 230.176 72.6539 230.864 71.9713 231.376C71.2993 231.888 70.4459 232.144 69.4113 232.144C68.5899 232.144 67.8539 231.957 67.2033 231.584C66.5633 231.211 66.0619 230.683 65.6993 230C65.3366 229.307 65.1553 228.512 65.1553 227.616C65.1553 226.709 65.3366 225.915 65.6993 225.232C66.0619 224.539 66.5633 224.005 67.2033 223.632C67.8433 223.259 68.5793 223.072 69.4113 223.072ZM76.781 224.704C77.3037 223.616 78.1943 223.072 79.453 223.072V224.592H79.069C78.3223 224.592 77.7517 224.789 77.357 225.184C76.973 225.568 76.781 226.24 76.781 227.2V232H75.325V223.216H76.781V224.704ZM89.1836 227.248C89.1836 227.557 89.1623 227.845 89.1196 228.112H82.1276C82.1703 228.987 82.4423 229.68 82.9436 230.192C83.4556 230.693 84.1063 230.944 84.8956 230.944C85.493 230.944 85.9943 230.811 86.3996 230.544C86.8156 230.277 87.1196 229.925 87.3116 229.488H88.8796C88.6023 230.256 88.1223 230.891 87.4396 231.392C86.7676 231.893 85.9196 232.144 84.8956 232.144C84.0743 232.144 83.3383 231.957 82.6876 231.584C82.0476 231.211 81.5463 230.683 81.1836 230C80.821 229.307 80.6396 228.512 80.6396 227.616C80.6396 226.709 80.821 225.915 81.1836 225.232C81.5463 224.539 82.0583 224.005 82.7196 223.632C83.381 223.259 84.1436 223.072 85.0076 223.072C85.829 223.072 86.5543 223.253 87.1836 223.616C87.813 223.979 88.3036 224.475 88.6556 225.104C89.0076 225.733 89.1836 226.448 89.1836 227.248ZM87.6636 227.056C87.6636 226.491 87.541 226 87.2956 225.584C87.0503 225.157 86.7143 224.832 86.2876 224.608C85.8716 224.384 85.4076 224.272 84.8956 224.272C84.1383 224.272 83.5036 224.523 82.9916 225.024C82.4796 225.515 82.197 226.192 82.1436 227.056H87.6636ZM94.6129 223.072C95.3595 223.072 96.0102 223.248 96.5649 223.6C97.1302 223.952 97.5569 224.411 97.8449 224.976V223.216H99.3169V232H97.8449V230.208C97.5569 230.784 97.1302 231.253 96.5649 231.616C96.0102 231.968 95.3595 232.144 94.6129 232.144C93.8235 232.144 93.1089 231.952 92.4689 231.568C91.8395 231.173 91.3382 230.629 90.9649 229.936C90.6022 229.232 90.4209 228.437 90.4209 227.552C90.4209 226.667 90.6022 225.888 90.9649 225.216C91.3382 224.533 91.8395 224.005 92.4689 223.632C93.1089 223.259 93.8235 223.072 94.6129 223.072ZM94.8689 224.336C94.3462 224.336 93.8555 224.464 93.3969 224.72C92.9489 224.976 92.5862 225.349 92.3089 225.84C92.0422 226.32 91.9089 226.891 91.9089 227.552C91.9089 228.213 92.0422 228.8 92.3089 229.312C92.5862 229.813 92.9489 230.203 93.3969 230.48C93.8555 230.757 94.3462 230.896 94.8689 230.896C95.4022 230.896 95.8929 230.763 96.3409 230.496C96.7995 230.229 97.1622 229.851 97.4289 229.36C97.7062 228.859 97.8449 228.277 97.8449 227.616C97.8449 226.955 97.7062 226.379 97.4289 225.888C97.1622 225.387 96.7995 225.003 96.3409 224.736C95.8929 224.469 95.4022 224.336 94.8689 224.336ZM105.796 230.816V232H104.324C103.577 232 103.006 231.819 102.612 231.456C102.228 231.093 102.036 230.523 102.036 229.744V224.4H100.9V223.216H102.036V221.04H103.508V223.216H105.78V224.4H103.508V229.744C103.508 230.139 103.588 230.416 103.748 230.576C103.908 230.736 104.19 230.816 104.596 230.816H105.796ZM115.371 227.248C115.371 227.557 115.35 227.845 115.307 228.112H108.315C108.358 228.987 108.63 229.68 109.131 230.192C109.643 230.693 110.294 230.944 111.083 230.944C111.68 230.944 112.182 230.811 112.587 230.544C113.003 230.277 113.307 229.925 113.499 229.488H115.067C114.79 230.256 114.31 230.891 113.627 231.392C112.955 231.893 112.107 232.144 111.083 232.144C110.262 232.144 109.526 231.957 108.875 231.584C108.235 231.211 107.734 230.683 107.371 230C107.008 229.307 106.827 228.512 106.827 227.616C106.827 226.709 107.008 225.915 107.371 225.232C107.734 224.539 108.246 224.005 108.907 223.632C109.568 223.259 110.331 223.072 111.195 223.072C112.016 223.072 112.742 223.253 113.371 223.616C114 223.979 114.491 224.475 114.843 225.104C115.195 225.733 115.371 226.448 115.371 227.248ZM113.851 227.056C113.851 226.491 113.728 226 113.483 225.584C113.238 225.157 112.902 224.832 112.475 224.608C112.059 224.384 111.595 224.272 111.083 224.272C110.326 224.272 109.691 224.523 109.179 225.024C108.667 225.515 108.384 226.192 108.331 227.056H113.851ZM129.213 228.896C129.213 229.451 129.069 229.973 128.781 230.464C128.493 230.955 128.067 231.355 127.501 231.664C126.936 231.963 126.259 232.112 125.469 232.112C124.765 232.112 124.131 232 123.565 231.776C123 231.541 122.552 231.211 122.221 230.784C121.901 230.347 121.741 229.829 121.741 229.232H123.293C123.336 229.733 123.533 230.139 123.885 230.448C124.248 230.757 124.776 230.912 125.469 230.912C126.184 230.912 126.749 230.731 127.165 230.368C127.581 230.005 127.789 229.541 127.789 228.976C127.789 228.549 127.672 228.213 127.437 227.968C127.203 227.712 126.909 227.52 126.557 227.392C126.205 227.264 125.736 227.136 125.149 227.008C124.413 226.837 123.816 226.661 123.357 226.48C122.909 226.299 122.525 226.005 122.205 225.6C121.896 225.195 121.741 224.635 121.741 223.92C121.741 223.301 121.891 222.757 122.189 222.288C122.488 221.819 122.915 221.456 123.469 221.2C124.035 220.933 124.691 220.8 125.437 220.8C126.451 220.8 127.272 221.051 127.901 221.552C128.541 222.043 128.909 222.725 129.005 223.6H127.389C127.347 223.163 127.139 222.789 126.765 222.48C126.403 222.171 125.912 222.016 125.293 222.016C124.664 222.016 124.152 222.176 123.757 222.496C123.363 222.805 123.165 223.264 123.165 223.872C123.165 224.309 123.283 224.656 123.517 224.912C123.752 225.168 124.04 225.36 124.381 225.488C124.733 225.616 125.219 225.749 125.837 225.888C126.563 226.059 127.149 226.235 127.597 226.416C128.045 226.587 128.424 226.869 128.733 227.264C129.053 227.659 129.213 228.203 129.213 228.896ZM139.02 223.216V232H137.564V230.592C137.276 231.104 136.881 231.493 136.38 231.76C135.879 232.016 135.319 232.144 134.7 232.144C134.071 232.144 133.495 232.005 132.972 231.728C132.46 231.44 132.049 231.019 131.74 230.464C131.441 229.909 131.292 229.232 131.292 228.432V223.216H132.732V228.192C132.732 229.067 132.945 229.739 133.372 230.208C133.809 230.667 134.401 230.896 135.148 230.896C135.895 230.896 136.481 230.667 136.908 230.208C137.345 229.739 137.564 229.067 137.564 228.192V223.216H139.02ZM146.123 223.072C146.912 223.072 147.621 223.259 148.251 223.632C148.891 224.005 149.392 224.533 149.755 225.216C150.128 225.888 150.315 226.667 150.315 227.552C150.315 228.437 150.128 229.232 149.755 229.936C149.392 230.629 148.891 231.173 148.251 231.568C147.621 231.952 146.912 232.144 146.123 232.144C145.376 232.144 144.72 231.968 144.155 231.616C143.6 231.253 143.173 230.784 142.875 230.208V236.16H141.419V223.216H142.875V224.976C143.173 224.411 143.6 223.952 144.155 223.6C144.72 223.248 145.376 223.072 146.123 223.072ZM145.835 224.336C145.312 224.336 144.821 224.469 144.363 224.736C143.915 225.003 143.552 225.387 143.275 225.888C143.008 226.379 142.875 226.955 142.875 227.616C142.875 228.277 143.008 228.859 143.275 229.36C143.552 229.851 143.915 230.229 144.363 230.496C144.821 230.763 145.312 230.896 145.835 230.896C146.357 230.896 146.848 230.763 147.307 230.496C147.765 230.219 148.128 229.824 148.395 229.312C148.672 228.8 148.811 228.213 148.811 227.552C148.811 226.891 148.672 226.32 148.395 225.84C148.128 225.349 147.765 224.976 147.307 224.72C146.859 224.464 146.368 224.336 145.835 224.336ZM156.842 223.072C157.631 223.072 158.34 223.259 158.97 223.632C159.61 224.005 160.111 224.533 160.474 225.216C160.847 225.888 161.034 226.667 161.034 227.552C161.034 228.437 160.847 229.232 160.474 229.936C160.111 230.629 159.61 231.173 158.97 231.568C158.34 231.952 157.631 232.144 156.842 232.144C156.095 232.144 155.439 231.968 154.874 231.616C154.319 231.253 153.892 230.784 153.594 230.208V236.16H152.138V223.216H153.594V224.976C153.892 224.411 154.319 223.952 154.874 223.6C155.439 223.248 156.095 223.072 156.842 223.072ZM156.554 224.336C156.031 224.336 155.54 224.469 155.082 224.736C154.634 225.003 154.271 225.387 153.994 225.888C153.727 226.379 153.594 226.955 153.594 227.616C153.594 228.277 153.727 228.859 153.994 229.36C154.271 229.851 154.634 230.229 155.082 230.496C155.54 230.763 156.031 230.896 156.554 230.896C157.076 230.896 157.567 230.763 158.026 230.496C158.484 230.219 158.847 229.824 159.114 229.312C159.391 228.8 159.53 228.213 159.53 227.552C159.53 226.891 159.391 226.32 159.114 225.84C158.847 225.349 158.484 224.976 158.026 224.72C157.578 224.464 157.087 224.336 156.554 224.336ZM164.312 220.16V232H162.856V220.16H164.312ZM166.476 220.816C166.476 220.539 166.572 220.304 166.764 220.112C166.956 219.92 167.185 219.824 167.452 219.824C167.729 219.824 167.964 219.92 168.156 220.112C168.348 220.304 168.444 220.539 168.444 220.816C168.444 221.093 168.348 221.328 168.156 221.52C167.964 221.712 167.729 221.808 167.452 221.808C167.174 221.808 166.94 221.712 166.748 221.52C166.566 221.328 166.476 221.093 166.476 220.816ZM168.172 223.216V232H166.716V223.216H168.172ZM178.543 227.248C178.543 227.557 178.522 227.845 178.479 228.112H171.487C171.53 228.987 171.802 229.68 172.303 230.192C172.815 230.693 173.466 230.944 174.255 230.944C174.852 230.944 175.354 230.811 175.759 230.544C176.175 230.277 176.479 229.925 176.671 229.488H178.239C177.962 230.256 177.482 230.891 176.799 231.392C176.127 231.893 175.279 232.144 174.255 232.144C173.434 232.144 172.698 231.957 172.047 231.584C171.407 231.211 170.906 230.683 170.543 230C170.18 229.307 169.999 228.512 169.999 227.616C169.999 226.709 170.18 225.915 170.543 225.232C170.906 224.539 171.418 224.005 172.079 223.632C172.74 223.259 173.503 223.072 174.367 223.072C175.188 223.072 175.914 223.253 176.543 223.616C177.172 223.979 177.663 224.475 178.015 225.104C178.367 225.733 178.543 226.448 178.543 227.248ZM177.023 227.056C177.023 226.491 176.9 226 176.655 225.584C176.41 225.157 176.074 224.832 175.647 224.608C175.231 224.384 174.767 224.272 174.255 224.272C173.498 224.272 172.863 224.523 172.351 225.024C171.839 225.515 171.556 226.192 171.503 227.056H177.023ZM181.812 224.704C182.335 223.616 183.226 223.072 184.484 223.072V224.592H184.1C183.354 224.592 182.783 224.789 182.388 225.184C182.004 225.568 181.812 226.24 181.812 227.2V232H180.356V223.216H181.812V224.704ZM189.271 223.072C190.22 223.072 190.972 223.323 191.527 223.824C192.082 224.315 192.386 224.992 192.439 225.856H190.935C190.914 225.365 190.748 224.971 190.439 224.672C190.13 224.373 189.703 224.224 189.159 224.224C188.604 224.224 188.167 224.357 187.847 224.624C187.538 224.88 187.383 225.205 187.383 225.6C187.383 225.931 187.479 226.197 187.671 226.4C187.874 226.592 188.119 226.736 188.407 226.832C188.706 226.928 189.106 227.029 189.607 227.136C190.247 227.285 190.759 227.435 191.143 227.584C191.538 227.723 191.874 227.963 192.151 228.304C192.428 228.635 192.567 229.088 192.567 229.664C192.567 230.144 192.428 230.576 192.151 230.96C191.874 231.333 191.484 231.627 190.983 231.84C190.482 232.043 189.906 232.144 189.255 232.144C188.274 232.144 187.484 231.899 186.887 231.408C186.3 230.917 185.98 230.24 185.927 229.376H187.431C187.452 229.867 187.623 230.261 187.943 230.56C188.274 230.848 188.711 230.992 189.255 230.992C189.852 230.992 190.311 230.869 190.631 230.624C190.962 230.379 191.127 230.053 191.127 229.648C191.127 229.317 191.026 229.056 190.823 228.864C190.631 228.661 190.386 228.512 190.087 228.416C189.788 228.309 189.378 228.197 188.855 228.08C188.226 227.941 187.714 227.803 187.319 227.664C186.935 227.515 186.604 227.285 186.327 226.976C186.06 226.667 185.927 226.24 185.927 225.696C185.927 225.216 186.06 224.779 186.327 224.384C186.604 223.979 186.994 223.659 187.495 223.424C188.007 223.189 188.599 223.072 189.271 223.072Z" fill="black"/>
<path d="M162.978 67.341C163.496 68.4153 163.973 69.5289 164.392 70.6517C164.528 71.0183 164.875 71.2441 165.243 71.2441C165.349 71.2441 165.457 71.2249 165.563 71.1865C166.033 71.0092 166.271 70.4816 166.094 70.0089C165.654 68.8332 165.156 67.6665 164.613 66.5429C164.393 66.0876 163.848 65.9001 163.399 66.1196C162.947 66.3399 162.759 66.8876 162.978 67.341Z" fill="#F9F9F9"/>
<path d="M161.404 64.4062C161.574 64.6923 161.877 64.8523 162.186 64.8523C162.344 64.8523 162.504 64.8112 162.65 64.7234C163.082 64.4656 163.222 63.9042 162.966 63.4699C162.219 62.2073 161.392 60.9685 160.509 59.7863C160.207 59.3831 159.638 59.3035 159.236 59.6043C158.835 59.9079 158.754 60.4811 159.056 60.8843C159.9 62.0153 160.69 63.1993 161.404 64.4062Z" fill="#F9F9F9"/>
<path d="M156.735 58.0665C156.914 58.2649 157.16 58.3655 157.408 58.3655C157.627 58.3655 157.845 58.2869 158.019 58.1278C158.391 57.7886 158.419 57.2098 158.081 56.8359C157.02 55.6629 155.88 54.5374 154.691 53.4942C154.313 53.1632 153.739 53.2025 153.408 53.5829C153.078 53.9632 153.117 54.541 153.496 54.8729C154.631 55.8695 155.722 56.9438 156.735 58.0665Z" fill="#F9F9F9"/>
<path d="M148.07 50.8802C149.159 51.5458 150.23 52.2736 151.254 53.0462C151.417 53.1696 151.609 53.229 151.798 53.229C152.075 53.229 152.347 53.1029 152.526 52.8642C152.828 52.4601 152.746 51.8869 152.345 51.5842C151.274 50.776 150.153 50.0135 149.013 49.3177C148.584 49.0553 148.025 49.1915 147.764 49.6249C147.504 50.0565 147.641 50.6187 148.07 50.8802Z" fill="#F9F9F9"/>
<path d="M98.0805 56.3404C96.6522 57.869 95.3294 59.5221 94.1476 61.2556C93.863 61.6716 93.9694 62.2412 94.383 62.5264C94.5403 62.6352 94.7194 62.6873 94.8958 62.6873C95.1858 62.6873 95.4704 62.5493 95.6467 62.2896C96.7759 60.6338 98.0405 59.054 99.406 57.592C99.7497 57.2245 99.7315 56.6457 99.366 56.3001C99.0006 55.9545 98.4251 55.9719 98.0805 56.3404Z" fill="#F9F9F9"/>
<path d="M90.6264 69.8699C90.741 69.9184 90.8592 69.9403 90.9755 69.9403C91.3319 69.9403 91.6701 69.7291 91.8156 69.3781C92.4083 67.9472 93.0929 66.5365 93.8511 65.1851C94.0975 64.7463 93.9439 64.1877 93.5066 63.9399C93.0702 63.6912 92.5156 63.8466 92.2683 64.2873C91.4746 65.7008 90.7573 67.1765 90.1364 68.675C89.9446 69.1403 90.1627 69.6761 90.6264 69.8699Z" fill="#F9F9F9"/>
<path d="M93.0229 102.131H98.0196C98.5214 102.131 98.9287 101.723 98.9287 101.217V77.976C98.9287 77.4704 98.5214 77.0617 98.0196 77.0617H89.5445C89.7918 75.7589 90.0864 74.4606 90.4619 73.1943C90.6055 72.7116 90.3319 72.2014 89.8518 72.0569C89.3718 71.9143 88.8645 72.1877 88.72 72.6713C88.2927 74.1077 87.9599 75.5833 87.6917 77.0626H83.4069H74.9091C74.4073 77.0626 74 77.4713 74 77.9769V101.218C74 101.724 74.4073 102.132 74.9091 102.132H90.9955C91.5374 103.272 92.1274 104.403 92.7756 105.494C92.9457 105.78 93.2475 105.939 93.5566 105.939C93.7148 105.939 93.8757 105.897 94.0221 105.81C94.453 105.551 94.5939 104.989 94.3366 104.556C93.8675 103.765 93.4357 102.952 93.0229 102.131ZM88.6118 78.8903V88.6823H84.317V78.8903H88.6118ZM75.8183 78.8903H82.4987V89.5966C82.4987 90.1022 82.906 90.5109 83.4078 90.5109H89.5209C90.0228 90.5109 90.43 90.1022 90.43 89.5966V78.8903H97.1104V100.303H75.8183V78.8903Z" fill="#F9F9F9"/>
<path d="M96.2804 107.513C95.9849 107.103 95.4158 107.014 95.0103 107.311C94.6048 107.608 94.5148 108.179 94.8103 108.587C95.7213 109.848 96.7177 111.071 97.7687 112.224C97.9478 112.42 98.1932 112.52 98.4387 112.52C98.6578 112.52 98.8787 112.44 99.0533 112.278C99.4233 111.937 99.4479 111.358 99.1087 110.986C98.1032 109.885 97.1514 108.717 96.2804 107.513Z" fill="#F9F9F9"/>
<path d="M101.916 113.767C101.541 113.43 100.966 113.465 100.632 113.842C100.298 114.218 100.332 114.797 100.707 115.133C101.79 116.103 102.937 117.023 104.116 117.873C104.276 117.988 104.462 118.044 104.645 118.044C104.928 118.044 105.207 117.91 105.385 117.661C105.676 117.251 105.583 116.68 105.175 116.385C104.047 115.575 102.951 114.694 101.916 113.767Z" fill="#F9F9F9"/>
<path d="M154.377 113.229C153.384 114.157 152.331 115.04 151.247 115.859C150.845 116.161 150.764 116.734 151.065 117.138C151.245 117.378 151.517 117.503 151.794 117.503C151.983 117.503 152.175 117.444 152.338 117.32C153.473 116.465 154.575 115.539 155.615 114.569C155.983 114.226 156.005 113.647 155.663 113.277C155.321 112.906 154.744 112.885 154.377 113.229Z" fill="#F9F9F9"/>
<path d="M159.796 106.991C158.925 108.238 157.969 109.448 156.953 110.591C156.618 110.967 156.65 111.546 157.025 111.881C157.198 112.038 157.415 112.115 157.63 112.115C157.88 112.115 158.129 112.012 158.309 111.809C159.37 110.614 160.372 109.347 161.283 108.042C161.571 107.629 161.472 107.059 161.062 106.768C160.651 106.478 160.085 106.579 159.796 106.991Z" fill="#F9F9F9"/>
<path d="M148.044 121.849C147.827 121.393 147.549 120.98 147.24 120.595C147.896 120.239 148.546 119.87 149.177 119.482C149.605 119.218 149.739 118.655 149.477 118.225C149.214 117.794 148.654 117.66 148.227 117.923C147.448 118.403 146.639 118.855 145.821 119.283C144.771 118.57 143.521 118.156 142.214 118.156H139.609V110.482C139.609 109.976 139.202 109.567 138.7 109.567H108.061C107.559 109.567 107.152 109.976 107.152 110.482V133.238C107.152 133.744 107.559 134.152 108.061 134.152H111.947C112.375 136.453 114.383 138.2 116.793 138.2C119.203 138.2 121.211 136.453 121.639 134.152H133.854C134.282 136.453 136.29 138.2 138.699 138.2C141.109 138.2 143.118 136.453 143.546 134.152H147.753C149.092 134.152 150.317 133.472 151.031 132.332C151.745 131.193 151.825 129.787 151.247 128.573L148.044 121.849ZM108.97 111.397H137.791V128.364C135.799 128.739 134.227 130.321 133.854 132.324H121.639C121.211 130.024 119.203 128.275 116.793 128.275C114.383 128.275 112.375 130.023 111.947 132.324H108.97V111.397ZM116.793 136.371C115.074 136.371 113.677 134.966 113.677 133.238C113.677 131.51 115.074 130.104 116.793 130.104C118.511 130.104 119.908 131.51 119.908 133.238C119.908 134.966 118.511 136.371 116.793 136.371ZM138.7 136.371C136.982 136.371 135.585 134.966 135.585 133.238C135.585 131.51 136.982 130.104 138.7 130.104C140.418 130.104 141.816 131.51 141.816 133.238C141.816 134.966 140.418 136.371 138.7 136.371ZM149.493 131.358C149.108 131.973 148.473 132.325 147.753 132.325H143.546C143.173 130.321 141.601 128.74 139.608 128.365V119.986H142.213C143.991 119.986 145.636 121.028 146.404 122.639L149.606 129.363C149.919 130.016 149.877 130.744 149.493 131.358Z" fill="#F9F9F9"/>
<path d="M121.401 56.4007H128.224H141.93C142.431 56.4007 142.838 55.9938 142.839 55.4901C142.839 55.4901 142.852 52.1666 142.861 48.2279C143.621 48.547 144.376 48.8807 145.109 49.2446C145.239 49.3086 145.375 49.3397 145.511 49.3397C145.846 49.3397 146.168 49.1531 146.326 48.8295C146.549 48.3769 146.364 47.8283 145.913 47.6053C144.922 47.1134 143.898 46.6672 142.865 46.2558C142.866 46.0007 142.866 45.7456 142.867 45.4896C142.871 42.9881 142.874 40.4848 142.87 38.6069C142.864 34.8674 142.864 34.8674 142.28 34.6233C142.005 34.5109 141.698 34.5374 141.452 34.6901C141.263 34.7934 140.206 35.3246 138.74 36.0569L137.343 23.8101C137.29 23.3483 136.902 23 136.44 23H133.206C132.78 23 132.411 23.2981 132.318 23.7177L129.872 34.872L127.57 36.1739L126.159 23.8101C126.107 23.3483 125.718 23 125.256 23H122.022C121.596 23 121.226 23.2981 121.134 23.7177L118.689 34.8683L107.221 41.2208C106.931 41.3817 106.75 41.6889 106.75 42.0217V49.2912C104.904 50.4149 103.131 51.6866 101.482 53.091C101.098 53.4174 101.051 53.9943 101.375 54.3801C101.555 54.5931 101.812 54.7038 102.07 54.7038C102.278 54.7038 102.486 54.6325 102.657 54.488C103.953 53.3854 105.325 52.3641 106.751 51.4398V55.4882C106.751 55.9938 107.158 56.4025 107.66 56.4025H121.401V56.4007ZM122.31 54.5721V51.1417C122.31 49.9422 123.28 48.9666 124.472 48.9666H125.152C126.345 48.9666 127.315 49.9422 127.315 51.1417V54.5721H122.31ZM133.937 24.8286H135.629L137.009 36.9218C135.299 37.7739 133.341 38.7477 131.582 39.6208V35.5678L133.937 24.8286ZM122.753 24.8286H124.446L125.851 37.1458L120.4 40.2279V35.5623L122.753 24.8286ZM108.57 42.5621L118.582 37.0169V41.7913C118.582 42.1159 118.753 42.4167 119.032 42.5803C119.31 42.744 119.654 42.7467 119.936 42.5886L129.764 37.0325V41.0928C129.764 41.4091 129.927 41.7026 130.193 41.8699C130.461 42.0363 130.795 42.0537 131.075 41.9129C136.776 39.0841 139.616 37.6706 141.047 36.9465C141.064 40.1931 141.046 48.4062 141.024 54.573H129.132V51.1417C129.132 48.9346 127.347 47.1381 125.151 47.1381H124.471C122.276 47.1381 120.491 48.9346 120.491 51.1417V54.5721H108.57V42.5621Z" fill="#F9F9F9"/>
<path d="M179.35 85.3918C180.757 84.0011 181.634 82.0683 181.634 79.9316C181.634 75.7086 178.217 72.2727 174.018 72.2727C171.492 72.2727 169.14 73.5572 167.735 75.6171C167.571 74.8656 167.393 74.1159 167.189 73.3799C167.055 72.8935 166.553 72.6073 166.069 72.7454C165.585 72.8807 165.303 73.3854 165.438 73.8708C165.594 74.4322 165.734 75.0018 165.866 75.5742C165.648 75.555 165.43 75.5403 165.207 75.5403C164.39 75.5403 163.603 75.6738 162.864 75.9152C161.488 73.6834 159.04 72.2727 156.396 72.2727C152.196 72.2727 148.78 75.7086 148.78 79.9316C148.78 82.0683 149.656 84.0002 151.064 85.3908C148.613 87.4352 147.414 91.1289 147.414 96.6292C147.414 97.1348 147.822 97.5435 148.323 97.5435H156.308C156.254 98.2887 156.226 99.0704 156.226 99.896C156.226 100.402 156.633 100.81 157.135 100.81H163.314C162.917 101.679 162.5 102.54 162.042 103.374C161.8 103.816 161.96 104.373 162.4 104.616C162.539 104.693 162.69 104.73 162.838 104.73C163.159 104.73 163.469 104.559 163.634 104.257C164.247 103.14 164.801 101.981 165.307 100.809H173.279C173.78 100.809 174.188 100.401 174.188 99.8951C174.188 99.0695 174.159 98.2868 174.105 97.5426H182.09C182.592 97.5426 182.999 97.1339 182.999 96.6283C183 91.1298 181.802 87.437 179.35 85.3918ZM174.019 74.1022C177.215 74.1022 179.816 76.717 179.816 79.9326C179.816 83.1481 177.215 85.763 174.019 85.763C173.482 85.763 172.961 85.6834 172.456 85.5417C172.692 84.803 172.823 84.0176 172.823 83.2002C172.823 80.451 171.37 78.0427 169.201 76.6914C170.267 75.096 172.077 74.1022 174.019 74.1022ZM171.005 83.2002C171.005 86.4158 168.404 89.0306 165.207 89.0306C162.011 89.0306 159.41 86.4158 159.41 83.2002C159.41 79.9847 162.011 77.3698 165.207 77.3698C168.404 77.3698 171.005 79.9847 171.005 83.2002ZM150.598 79.9326C150.598 76.717 153.199 74.1022 156.396 74.1022C158.337 74.1022 160.147 75.0969 161.212 76.6914C159.043 78.0427 157.59 80.451 157.59 83.2002C157.59 84.0167 157.721 84.803 157.958 85.5417C157.452 85.6834 156.931 85.763 156.395 85.763C153.199 85.762 150.598 83.1472 150.598 79.9326ZM149.244 95.7159C149.367 91.0494 150.473 88.0532 152.581 86.5511C153.704 87.2084 155.005 87.5915 156.396 87.5915C157.201 87.5915 157.986 87.4663 158.738 87.2212C159.06 87.7451 159.44 88.2297 159.875 88.6594C158.107 90.1342 156.991 92.4665 156.507 95.7159H149.244ZM158.056 98.9826C158.179 94.3161 159.284 91.3209 161.392 89.8187C162.515 90.4761 163.816 90.8592 165.207 90.8592C166.597 90.8592 167.898 90.4761 169.021 89.8187C171.129 91.3218 172.234 94.3179 172.358 98.9826H158.056ZM173.907 95.7159C173.422 92.4665 172.307 90.1342 170.538 88.6594C170.974 88.2297 171.353 87.7451 171.676 87.2212C172.428 87.4663 173.212 87.5915 174.018 87.5915C175.408 87.5915 176.709 87.2084 177.832 86.5511C179.94 88.0542 181.045 91.0503 181.168 95.7159H173.907Z" fill="#F9F9F9"/>
</svg>
