<svg width="22" height="22" viewBox="0 0 22 22" fill="none" xmlns="http://www.w3.org/2000/svg">
<path d="M6.97676 9.03573L6.97254 9.05156V9.06795V9.06795V9.06796V9.06796V9.06796V9.06797V9.06797V9.06797V9.06798V9.06798V9.06799V9.06799V9.068V9.06801V9.06801V9.06802V9.06803V9.06804V9.06804V9.06805V9.06806V9.06807V9.06808V9.06809V9.0681V9.06811V9.06812V9.06813V9.06815V9.06816V9.06817V9.06818V9.0682V9.06821V9.06822V9.06824V9.06825V9.06827V9.06828V9.0683V9.06831V9.06833V9.06835V9.06836V9.06838V9.0684V9.06842V9.06844V9.06845V9.06847V9.06849V9.06851V9.06853V9.06855V9.06857V9.06859V9.06862V9.06864V9.06866V9.06868V9.0687V9.06873V9.06875V9.06877V9.0688V9.06882V9.06885V9.06887V9.0689V9.06892V9.06895V9.06897V9.069V9.06903V9.06905V9.06908V9.06911V9.06914V9.06916V9.06919V9.06922V9.06925V9.06928V9.06931V9.06934V9.06937V9.0694V9.06943V9.06946V9.0695V9.06953V9.06956V9.06959V9.06962V9.06966V9.06969V9.06972V9.06976V9.06979V9.06983V9.06986V9.0699V9.06993V9.06997V9.07V9.07004V9.07007V9.07011V9.07015V9.07018V9.07022V9.07026V9.0703V9.07033V9.07037V9.07041V9.07045V9.07049V9.07053V9.07057V9.07061V9.07065V9.07069V9.07073V9.07077V9.07081V9.07085V9.0709V9.07094V9.07098V9.07102V9.07107V9.07111V9.07115V9.07119V9.07124V9.07128V9.07133V9.07137V9.07142V9.07146V9.07151V9.07155V9.0716V9.07164V9.07169V9.07173V9.07178V9.07183V9.07187V9.07192V9.07197V9.07202V9.07206V9.07211V9.07216V9.07221V9.07226V9.07231V9.07236V9.0724V9.07245V9.0725V9.07255V9.0726V9.07265V9.07271V9.07276V9.07281V9.07286V9.07291V9.07296V9.07301V9.07306V9.07312V9.07317V9.07322V9.07327V9.07333V9.07338V9.07343V9.07349V9.07354V9.0736V9.07365V9.0737V9.07376V9.07381V9.07387V9.07392V9.07398V9.07403V9.07409V9.07414V9.0742V9.07426V9.07431V9.07437V9.07443V9.07448V9.07454V9.0746V9.07465V9.07471V9.07477V9.07483V9.07488V9.07494V9.075V9.07506V9.07512V9.07518V9.07524V9.07529V9.07535V9.07541V9.07547V9.07553V9.07559V9.07565V9.07571V9.07577V9.07583V9.07589V9.07595V9.07602V9.07608V9.07614V9.0762V9.07626V9.07632V9.07638V9.07644V9.07651V9.07657V9.07663V9.07669V9.07676V9.07682V9.07688V9.07694V9.07701V9.07707V9.07713V9.0772V9.07726V9.07732V9.07739V9.07745V9.07751V9.07758V9.07764V9.07771V9.07777V9.07784V9.0779V9.07797V9.07803V9.07809V9.07816V9.07823V9.07829V9.07836V9.07842V9.07849V9.07855V9.07862V9.07868V9.07875V9.07882V9.07888V9.07895V9.07901V9.07908V9.07915V9.07921V9.07928V9.07935V9.07941V9.07948V9.07955V9.07961V9.07968V9.07975V9.07982V9.07988V9.07995V9.08002V9.08009V9.08015V9.08022V9.08029V9.08036V9.08043V9.08049V9.08056V9.08063V9.0807V9.08077V9.08083V9.0809V9.08097V9.08104V9.08111V9.08118V9.08125V9.08131V9.08138V9.08145V9.08152V9.08159V9.08166V9.08173V9.0818V9.08187V9.08193V9.082V9.08207V9.08214V9.08221V9.08228V9.08235V9.08242V9.08249V9.08256V9.08263V9.0827V9.08277V9.08284V9.08291V9.08298V9.08305V9.08312V9.08319V9.08326V9.08333V9.0834V9.08347V9.08353V9.0836V9.08367V9.08374V9.08381V9.08388V9.08395V9.08402V9.08409V9.08416V9.08423V9.0843V9.08437V9.08444V9.08451V9.08458V9.08465V9.08472V9.08479V9.08486V9.08493V9.085V9.08507V9.08514V9.08521V9.08528V9.08535V9.08542V9.08549V9.08556V9.08563V9.0857V9.08577V9.08584V9.08591V9.08598V9.08605V9.08612V9.08619V9.08626V9.08633V9.0864V9.08647V9.08654V9.08661V9.08668V9.08675V9.08682V9.08689V9.08696V9.08703V9.0871V9.08717V9.08724V9.08731V9.08738V9.08744V9.08751V9.08758V9.08765V9.08772V9.08779V9.08786V9.08793V9.088V9.08806V9.08813V9.0882V9.08827V9.08834V9.08841V9.08848V9.08854V9.08861V9.08868V9.08875V9.08882V9.08889V9.08895V9.08902V9.08909V9.08916V9.08922V9.08929V9.08936V9.08943V9.08949V9.08956V9.08963V9.08963C6.97139 9.10524 6.97139 9.12091 6.97254 9.13651V15.2289C6.97254 15.3268 7.01141 15.4206 7.08059 15.4898L7.08059 15.4898C7.14977 15.559 7.2436 15.5978 7.34144 15.5978H14.6585C14.7563 15.5978 14.8502 15.559 14.9194 15.4898C14.9885 15.4206 15.0274 15.3268 15.0274 15.2289V9.13651C15.0286 9.12091 15.0286 9.10524 15.0274 9.08963V9.08961V9.08956V9.08951V9.08946V9.0894V9.08935V9.0893V9.08924V9.08919V9.08914V9.08908V9.08903V9.08897V9.08892V9.08886V9.08881V9.08875V9.0887V9.08864V9.08859V9.08853V9.08847V9.08842V9.08836V9.08831V9.08825V9.08819V9.08813V9.08808V9.08802V9.08796V9.0879V9.08785V9.08779V9.08773V9.08767V9.08761V9.08755V9.0875V9.08744V9.08738V9.08732V9.08726V9.0872V9.08714V9.08708V9.08702V9.08696V9.0869V9.08684V9.08678V9.08672V9.08666V9.08659V9.08653V9.08647V9.08641V9.08635V9.08629V9.08622V9.08616V9.0861V9.08604V9.08598V9.08591V9.08585V9.08579V9.08572V9.08566V9.0856V9.08554V9.08547V9.08541V9.08534V9.08528V9.08522V9.08515V9.08509V9.08502V9.08496V9.0849V9.08483V9.08477V9.0847V9.08464V9.08457V9.08451V9.08444V9.08438V9.08431V9.08424V9.08418V9.08411V9.08405V9.08398V9.08392V9.08385V9.08378V9.08372V9.08365V9.08358V9.08352V9.08345V9.08338V9.08332V9.08325V9.08318V9.08312V9.08305V9.08298V9.08292V9.08285V9.08278V9.08271V9.08265V9.08258V9.08251V9.08244V9.08237V9.08231V9.08224V9.08217V9.0821V9.08203V9.08197V9.0819V9.08183V9.08176V9.08169V9.08162V9.08155V9.08149V9.08142V9.08135V9.08128V9.08121V9.08114V9.08107V9.081V9.08094V9.08087V9.0808V9.08073V9.08066V9.08059V9.08052V9.08045V9.08038V9.08031V9.08024V9.08017V9.0801V9.08003V9.07996V9.07989V9.07982V9.07975V9.07968V9.07962V9.07955V9.07948V9.07941V9.07934V9.07927V9.0792V9.07913V9.07906V9.07899V9.07892V9.07885V9.07878V9.07871V9.07864V9.07857V9.0785V9.07843V9.07836V9.07829V9.07822V9.07815V9.07808V9.07801V9.07794V9.07787V9.0778V9.07773V9.07766V9.07759V9.07752V9.07745V9.07738V9.07731V9.07724V9.07717V9.0771V9.07703V9.07696V9.07689V9.07682V9.07675V9.07668V9.07661V9.07654V9.07647V9.0764V9.07633V9.07626V9.07619V9.07612V9.07605V9.07598V9.07591V9.07584V9.07577V9.0757V9.07563V9.07556V9.07549V9.07543V9.07536V9.07529V9.07522V9.07515V9.07508V9.07501V9.07494V9.07487V9.0748V9.07474V9.07467V9.0746V9.07453V9.07446V9.07439V9.07432V9.07425V9.07419V9.07412V9.07405V9.07398V9.07391V9.07385V9.07378V9.07371V9.07364V9.07357V9.07351V9.07344V9.07337V9.0733V9.07324V9.07317V9.0731V9.07303V9.07297V9.0729V9.07283V9.07277V9.0727V9.07263V9.07257V9.0725V9.07243V9.07237V9.0723V9.07223V9.07217V9.0721V9.07204V9.07197V9.07191V9.07184V9.07177V9.07171V9.07164V9.07158V9.07151V9.07145V9.07138V9.07132V9.07125V9.07119V9.07112V9.07106V9.071V9.07093V9.07087V9.0708V9.07074V9.07068V9.07061V9.07055V9.07049V9.07042V9.07036V9.0703V9.07023V9.07017V9.07011V9.07005V9.06998V9.06992V9.06986V9.0698V9.06974V9.06968V9.06961V9.06955V9.06949V9.06943V9.06937V9.06931V9.06925V9.06919V9.06913V9.06907V9.06901V9.06895V9.06889V9.06883V9.06877V9.06871V9.06865V9.06859V9.06853V9.06847V9.06841V9.06836V9.0683V9.06824V9.06818V9.06812V9.06807V9.06801V9.06795V9.05175L15.0233 9.03608L14.4015 6.67823C14.4015 6.67811 14.4014 6.67799 14.4014 6.67787C14.3805 6.59685 14.3326 6.52536 14.2656 6.47515C14.1991 6.42529 14.1178 6.39935 14.0348 6.40149H7.96095V6.40149L7.95992 6.40149C7.87866 6.40216 7.79989 6.42965 7.73585 6.47968C7.67196 6.52959 7.6263 6.59917 7.60592 6.67763L6.97676 9.03573ZM11.9186 7.13929H13.7521L14.1748 8.76246H11.9926L11.9186 7.13929ZM10.7456 8.76246L10.8217 7.13929H11.1783L11.2543 8.76246H10.7456ZM10.7299 9.50027H11.2725V10.1649H10.7299V9.50027ZM11.6414 10.9027C11.7393 10.9027 11.8331 10.8638 11.9023 10.7947C11.9715 10.7255 12.0103 10.6316 12.0103 10.5338V9.50027H14.2896V14.86H7.71034V9.50027H9.99205V10.5338C9.99205 10.6316 10.0309 10.7255 10.1001 10.7947C10.1693 10.8638 10.2631 10.9027 10.361 10.9027H11.6414ZM8.24294 7.13929H10.0813L10.0074 8.76246H7.82024L8.24294 7.13929Z" fill="#DE0C0C" stroke="#DE0C0C" stroke-width="0.25"/>
<path d="M11.9573 2.7244L11.9576 2.72467C11.9919 2.75924 12.0327 2.78669 12.0776 2.80542C12.1226 2.82414 12.1708 2.83379 12.2195 2.83379C12.2682 2.83379 12.3164 2.82414 12.3613 2.80542C12.4061 2.78676 12.4468 2.75945 12.481 2.72505C12.5154 2.69083 12.5428 2.65015 12.5614 2.60534C12.5801 2.56039 12.5898 2.51217 12.5898 2.46347C12.5898 2.41477 12.5801 2.36655 12.5614 2.3216C12.5427 2.27673 12.5154 2.236 12.4809 2.20174C12.4808 2.20168 12.4807 2.20161 12.4807 2.20155L11.2615 0.9824L11.2616 0.982299L11.2572 0.97828C11.2232 0.947416 11.1843 0.922543 11.142 0.904719C11.0972 0.88512 11.0489 0.875 11 0.875C10.9511 0.875 10.9027 0.885123 10.8579 0.904727C10.8156 0.92255 10.7767 0.94742 10.7427 0.97828L10.7426 0.978174L10.7384 0.9824L9.51889 2.20191C9.44953 2.27128 9.41055 2.36537 9.41055 2.46347C9.41055 2.56157 9.44953 2.65566 9.51889 2.72503C9.58826 2.7944 9.68235 2.83337 9.78045 2.83337C9.87856 2.83337 9.97264 2.7944 10.042 2.72503L10.042 2.72503L10.0426 2.7244L10.2131 2.55154L10.6311 2.13354V4.90249C10.6311 5.00033 10.6699 5.09416 10.7391 5.16335C10.8083 5.23253 10.9021 5.2714 11 5.2714C11.0978 5.2714 11.1916 5.23253 11.2608 5.16335C11.33 5.09416 11.3689 5.00033 11.3689 4.90249V2.13354L11.7866 2.55123L11.7872 2.55186L11.9573 2.7244Z" fill="#DE0C0C" stroke="#DE0C0C" stroke-width="0.25"/>
<path d="M10.7384 21.0175L10.7383 21.0176L10.7427 21.0216C10.7767 21.0525 10.8156 21.0774 10.8579 21.0952C10.9027 21.1148 10.951 21.1249 10.9999 21.1249C11.0488 21.1249 11.0972 21.1148 11.142 21.0952C11.1843 21.0774 11.2232 21.0525 11.2572 21.0216L11.2573 21.0217L11.2615 21.0175L12.481 19.798C12.5154 19.7636 12.5426 19.7229 12.5612 19.678C12.5798 19.6331 12.5893 19.585 12.5893 19.5364C12.5893 19.4879 12.5798 19.4398 12.5612 19.3949C12.5426 19.35 12.5154 19.3092 12.481 19.2749C12.4467 19.2405 12.4059 19.2133 12.361 19.1947C12.3161 19.1761 12.268 19.1665 12.2194 19.1665C12.1709 19.1665 12.1228 19.1761 12.0779 19.1947C12.033 19.2133 11.9922 19.2405 11.9579 19.2749L11.9573 19.2755L11.7872 19.4481L11.7865 19.4487L11.3688 19.8664V17.0974C11.3688 16.9996 11.33 16.9057 11.2608 16.8366C11.1916 16.7674 11.0978 16.7285 10.9999 16.7285C10.9021 16.7285 10.8083 16.7674 10.7391 16.8366C10.6699 16.9057 10.631 16.9996 10.631 17.0974V19.8664L10.2133 19.4487L10.2127 19.4481L10.0426 19.2755L10.0426 19.2755L10.042 19.2749C9.97261 19.2055 9.87853 19.1665 9.78042 19.1665C9.68232 19.1665 9.58823 19.2055 9.51886 19.2749C9.4495 19.3443 9.41052 19.4383 9.41052 19.5364C9.41052 19.6345 9.4495 19.7286 9.51886 19.798L9.60613 19.7107L9.51886 19.798L10.7384 21.0175Z" fill="#DE0C0C" stroke="#DE0C0C" stroke-width="0.25"/>
<path d="M19.275 12.4806C19.3092 12.515 19.3499 12.5424 19.3947 12.561C19.4396 12.5798 19.4879 12.5894 19.5366 12.5894C19.5853 12.5894 19.6335 12.5798 19.6784 12.561C19.7233 12.5423 19.764 12.515 19.7983 12.4805C19.7983 12.4804 19.7984 12.4804 19.7985 12.4803L21.0176 11.2611L21.0177 11.2612L21.0218 11.2568C21.0526 11.2228 21.0775 11.1839 21.0953 11.1416C21.1149 11.0968 21.125 11.0485 21.125 10.9996C21.125 10.9507 21.1149 10.9023 21.0953 10.8575C21.0775 10.8152 21.0526 10.7763 21.0218 10.7423L21.0219 10.7422L21.0176 10.738L19.7981 9.5185L19.7109 9.60577L19.7981 9.5185C19.7288 9.44913 19.6347 9.41016 19.5366 9.41016C19.4385 9.41016 19.3444 9.44913 19.275 9.5185C19.2056 9.58787 19.1667 9.68195 19.1667 9.78006C19.1667 9.87816 19.2056 9.97225 19.275 10.0416L19.275 10.0416L19.2756 10.0422L19.4482 10.2123L19.4488 10.213L19.8665 10.6307H17.0975C16.9997 10.6307 16.9059 10.6695 16.8367 10.7387C16.7675 10.8079 16.7286 10.9017 16.7286 10.9996C16.7286 11.0974 16.7675 11.1912 16.8367 11.2604C16.9059 11.3296 16.9997 11.3685 17.0975 11.3685H19.8665L19.4488 11.7862L19.4482 11.7868L19.2756 11.9569L19.2754 11.9572C19.2408 11.9915 19.2133 12.0323 19.1946 12.0772C19.1759 12.1222 19.1662 12.1704 19.1662 12.2191C19.1662 12.2678 19.1759 12.316 19.1946 12.3609C19.2133 12.4057 19.2406 12.4464 19.275 12.4806ZM19.275 12.4806C19.2749 12.4805 19.2748 12.4804 19.2746 12.4803L19.3634 12.3922L19.2754 12.481C19.2752 12.4809 19.2751 12.4808 19.275 12.4806Z" fill="#DE0C0C" stroke="#DE0C0C" stroke-width="0.25"/>
<path d="M0.978118 11.2569L0.978223 11.2568C0.947178 11.2226 0.922194 11.1834 0.904348 11.1409C0.885557 11.0966 0.87559 11.0491 0.875009 11.0011L0.874973 10.9981L0.875009 10.9981C0.87559 10.95 0.885556 10.9025 0.904346 10.8583C0.922191 10.8157 0.947176 10.7765 0.978223 10.7423L0.982242 10.7379L0.982343 10.738L2.20185 9.5185C2.27122 9.44913 2.36531 9.41016 2.46341 9.41016C2.56152 9.41016 2.6556 9.44913 2.72497 9.5185C2.79434 9.58787 2.83331 9.68195 2.83331 9.78006C2.83331 9.87816 2.79434 9.97225 2.72497 10.0416L2.72435 10.0422L2.72434 10.0422L2.55148 10.2127L2.13348 10.6307H4.90244C5.00027 10.6307 5.09411 10.6695 5.16329 10.7387C5.23247 10.8079 5.27134 10.9017 5.27134 10.9996C5.27134 11.0974 5.23247 11.1912 5.16329 11.2604L5.0749 11.172L5.16329 11.2604C5.09411 11.3296 5.00027 11.3685 4.90244 11.3685H2.13348L2.55117 11.7862L2.5518 11.7868L2.72434 11.9569L2.72461 11.9572C2.75919 11.9915 2.78663 12.0323 2.80536 12.0772C2.82409 12.1222 2.83373 12.1704 2.83373 12.2191C2.83373 12.2678 2.82409 12.316 2.80536 12.361C2.7867 12.4057 2.75938 12.4464 2.72497 12.4806C2.72485 12.4808 2.72473 12.4809 2.72461 12.481L2.63658 12.3922C2.61391 12.4151 2.58693 12.4333 2.55721 12.4456C2.52749 12.458 2.49561 12.4644 2.46341 12.4644C2.43122 12.4644 2.39934 12.458 2.36961 12.4456C2.33989 12.4333 2.31292 12.4151 2.29024 12.3922L0.978118 11.2569ZM0.978118 11.2569L0.982343 11.2611L2.20149 12.4803C2.20156 12.4803 2.20162 12.4804 2.20168 12.4805L0.978118 11.2569Z" fill="#DE0C0C" stroke="#DE0C0C" stroke-width="0.25"/>
<path d="M16.7655 5.31082L16.765 5.3103C16.6963 5.24118 16.6577 5.14768 16.6577 5.05022C16.6577 4.95276 16.6963 4.85926 16.765 4.79014L16.7652 4.78994L18.4871 3.06555L18.4872 3.06549L18.7202 2.83254H17.8853C17.7875 2.83254 17.6937 2.79367 17.6245 2.72449C17.5553 2.65531 17.5164 2.56148 17.5164 2.46364C17.5164 2.3658 17.5553 2.27197 17.6245 2.20278C17.6937 2.1336 17.7875 2.09473 17.8853 2.09473H19.6093H19.6097V2.21973C19.6433 2.21947 19.6765 2.22611 19.7073 2.23925L16.7655 5.31082ZM16.7655 5.31082C16.8346 5.37953 16.9281 5.4181 17.0256 5.4181C17.1231 5.4181 17.2165 5.37953 17.2857 5.31082L17.2859 5.31056L19.0103 3.58617L19.2433 3.35322M16.7655 5.31082L19.2433 3.35322M19.2433 3.35322V4.18803C19.2433 4.28586 19.2821 4.3797 19.3513 4.44888C19.4205 4.51806 19.5143 4.55693 19.6122 4.55693C19.71 4.55693 19.8038 4.51806 19.873 4.44888C19.9422 4.3797 19.9811 4.28586 19.9811 4.18803V2.46433V2.46364H19.8561M19.2433 3.35322L19.7853 2.29047C19.8084 2.31344 19.8267 2.34081 19.839 2.37095C19.8507 2.40044 19.8565 2.43193 19.8561 2.46364M19.8561 2.46364V4.18803C19.8561 4.25271 19.8304 4.31475 19.7846 4.36049C19.7389 4.40623 19.6769 4.43193 19.6122 4.43193C19.5475 4.43193 19.4854 4.40623 19.4397 4.36049C19.394 4.31475 19.3683 4.25271 19.3683 4.18803V3.22822L19.8561 2.46364Z" fill="#DE0C0C" stroke="#DE0C0C" stroke-width="0.25"/>
<path d="M5.23569 16.7666L5.23569 16.7666C5.30328 16.8356 5.34114 16.9283 5.34114 17.0249C5.34114 17.1214 5.30328 17.2141 5.23569 17.2831L5.23487 17.2839L5.23487 17.2839L3.51292 19.0083L3.51286 19.0084L3.2799 19.2413H4.11471C4.21255 19.2413 4.30638 19.2802 4.37557 19.3494C4.44475 19.4186 4.48361 19.5124 4.48361 19.6102C4.48361 19.7081 4.44475 19.8019 4.37557 19.8711C4.30638 19.9403 4.21255 19.9791 4.11471 19.9791H2.39032H2.38834L2.38834 19.9791C2.34241 19.9784 2.29691 19.9702 2.25359 19.9549L2.24401 19.9515L2.24417 19.9512C2.15749 19.9124 2.08814 19.8431 2.04938 19.7564L2.04716 19.7514L2.04727 19.7514C2.02934 19.7061 2.02056 19.6577 2.02142 19.609M5.23569 16.7666L2.14642 19.6102M5.23569 16.7666L5.23454 16.7655C5.16543 16.6968 5.07193 16.6582 4.97447 16.6582C4.87701 16.6582 4.78351 16.6968 4.71439 16.7655L4.71413 16.7657L2.98974 18.4901L2.75923 18.7206M5.23569 16.7666L2.75923 18.8974M2.02142 19.609C2.02143 19.6085 2.02144 19.608 2.02145 19.6075L2.14642 19.6102M2.02142 19.609V19.6102H2.14642M2.02142 19.609V17.8858C2.02142 17.788 2.06029 17.6942 2.12947 17.625C2.19865 17.5558 2.29248 17.5169 2.39032 17.5169C2.48816 17.5169 2.58199 17.5558 2.65118 17.625C2.72036 17.6942 2.75923 17.788 2.75923 17.8858V18.7206M2.14642 19.6102V17.8858C2.14642 17.8211 2.17212 17.7591 2.21786 17.7134C2.2636 17.6676 2.32564 17.6419 2.39032 17.6419C2.45501 17.6419 2.51705 17.6676 2.56279 17.7134C2.60853 17.7591 2.63423 17.8211 2.63423 17.8858V18.8456L2.75923 18.7206M2.75923 18.7206V18.8974M2.75923 18.8974L2.63423 19.0224L2.75923 18.8974ZM3.1549 19.3663H2.97813L3.10313 19.2413L3.1549 19.3663Z" fill="#DE0C0C" stroke="#DE0C0C" stroke-width="0.25"/>
<path d="M19.6096 19.9784V19.9784L19.8535 19.6095H19.9785V19.6083V17.8851C19.9785 17.7873 19.9397 17.6935 19.8705 17.6243C19.8013 17.5551 19.7075 17.5162 19.6096 17.5162C19.5118 17.5162 19.418 17.5551 19.3488 17.6243C19.2796 17.6935 19.2407 17.7873 19.2407 17.8851V18.7199L19.0078 18.487L19.0077 18.4869L17.289 16.7706C17.2582 16.7318 17.22 16.6996 17.1765 16.6759C17.1301 16.6506 17.0788 16.6355 17.026 16.6318C16.9733 16.628 16.9204 16.6357 16.8709 16.6541C16.8214 16.6726 16.7764 16.7015 16.739 16.7389C16.7017 16.7763 16.6728 16.8213 16.6543 16.8708C16.6358 16.9203 16.6282 16.9732 16.6319 17.0259C16.6357 17.0786 16.6507 17.1299 16.676 17.1763C16.6997 17.2199 16.732 17.2581 16.7708 17.2889L18.4895 19.0077L18.7225 19.2406H18.1292H17.8852C17.7874 19.2406 17.6936 19.2795 17.6244 19.3487C17.5552 19.4178 17.5163 19.5117 17.5163 19.6095C17.5163 19.7074 17.5552 19.8012 17.6244 19.8704C17.6936 19.9396 17.7874 19.9784 17.8852 19.9784H19.6096Z" fill="#DE0C0C" stroke="#DE0C0C" stroke-width="0.25"/>
<path d="M3.51038 3.06548L3.2787 2.83253L2.14638 2.46363H2.02138V2.46432V4.18802C2.02138 4.28586 2.06025 4.37969 2.12943 4.44887C2.19861 4.51805 2.29244 4.55692 2.39028 4.55692C2.48812 4.55692 2.58195 4.51805 2.65114 4.44887C2.72032 4.37969 2.75919 4.28586 2.75919 4.18802V3.35321L2.99214 3.58616L4.71653 5.31055L4.71679 5.31081C4.78591 5.37952 4.87941 5.41809 4.97687 5.41809C5.07433 5.41809 5.16782 5.37952 5.23694 5.31081L5.23695 5.31082L5.23809 5.30966C5.30631 5.24006 5.34421 5.14628 5.34352 5.04882C5.34283 4.95147 5.30369 4.85834 5.23463 4.78973C5.23455 4.78966 5.23448 4.78958 5.2344 4.78951L3.51062 3.06573L3.51038 3.06548Z" fill="#DE0C0C" stroke="#DE0C0C" stroke-width="0.25"/>
</svg>
