<svg width="265" height="299" viewBox="0 0 265 299" fill="none" xmlns="http://www.w3.org/2000/svg">
<path d="M177.218 45.242C196.398 52.2301 224.71 54.9041 237.732 68.5207C250.456 82.3853 247.622 107.162 240.417 130.029C233.511 152.648 221.934 173.604 205.323 186.652C188.711 199.7 167.299 205.148 147.419 204.285C127.507 203.7 109.393 196.833 88.9885 191.115C68.317 185.367 45.3544 180.767 29.9658 166.597C14.3107 152.397 6.49612 128.659 9.24604 106.975C11.7613 84.982 25.1394 64.7956 38.9986 47.4844C52.8578 30.1733 67.4327 16.0464 83.9204 11.1632C100.408 6.28008 119.043 10.9496 133.533 18.8115C147.725 26.9213 157.772 38.2235 177.218 45.242Z" fill="#F66464"/>
<rect y="155" width="258" height="144" rx="28" fill="#EFEDED"/>
<path d="M31.5396 194.416C31.5396 193.328 31.7849 192.352 32.2756 191.488C32.7662 190.613 33.4329 189.931 34.2756 189.44C35.1289 188.949 36.0729 188.704 37.1076 188.704C38.3236 188.704 39.3849 188.997 40.2916 189.584C41.1982 190.171 41.8596 191.003 42.2756 192.08H40.5316C40.2222 191.408 39.7742 190.891 39.1876 190.528C38.6116 190.165 37.9182 189.984 37.1076 189.984C36.3289 189.984 35.6302 190.165 35.0116 190.528C34.3929 190.891 33.9076 191.408 33.5556 192.08C33.2036 192.741 33.0276 193.52 33.0276 194.416C33.0276 195.301 33.2036 196.08 33.5556 196.752C33.9076 197.413 34.3929 197.925 35.0116 198.288C35.6302 198.651 36.3289 198.832 37.1076 198.832C37.9182 198.832 38.6116 198.656 39.1876 198.304C39.7742 197.941 40.2222 197.424 40.5316 196.752H42.2756C41.8596 197.819 41.1982 198.645 40.2916 199.232C39.3849 199.808 38.3236 200.096 37.1076 200.096C36.0729 200.096 35.1289 199.856 34.2756 199.376C33.4329 198.885 32.7662 198.208 32.2756 197.344C31.7849 196.48 31.5396 195.504 31.5396 194.416ZM52.2189 191.232V200H50.7629V198.704C50.4856 199.152 50.0963 199.504 49.5949 199.76C49.1043 200.005 48.5603 200.128 47.9629 200.128C47.2803 200.128 46.6669 199.989 46.1229 199.712C45.5789 199.424 45.1469 198.997 44.8269 198.432C44.5176 197.867 44.3629 197.179 44.3629 196.368V191.232H45.8029V196.176C45.8029 197.04 46.0216 197.707 46.4589 198.176C46.8963 198.635 47.4936 198.864 48.2509 198.864C49.0296 198.864 49.6429 198.624 50.0909 198.144C50.5389 197.664 50.7629 196.965 50.7629 196.048V191.232H52.2189ZM56.1333 192.656C56.3893 192.155 56.752 191.765 57.2213 191.488C57.7013 191.211 58.2826 191.072 58.9653 191.072V192.576H58.5813C56.9493 192.576 56.1333 193.461 56.1333 195.232V200H54.6773V191.232H56.1333V192.656ZM62.1021 192.656C62.3581 192.155 62.7207 191.765 63.1901 191.488C63.6701 191.211 64.2514 191.072 64.9341 191.072V192.576H64.5501C62.9181 192.576 62.1021 193.461 62.1021 195.232V200H60.6461V191.232H62.1021V192.656ZM74.6148 195.28C74.6148 195.557 74.5988 195.851 74.5668 196.16H67.5588C67.6121 197.024 67.9055 197.701 68.4388 198.192C68.9828 198.672 69.6388 198.912 70.4068 198.912C71.0361 198.912 71.5588 198.768 71.9748 198.48C72.4015 198.181 72.7001 197.787 72.8708 197.296H74.4388C74.2041 198.139 73.7348 198.827 73.0308 199.36C72.3268 199.883 71.4521 200.144 70.4068 200.144C69.5748 200.144 68.8281 199.957 68.1668 199.584C67.5161 199.211 67.0041 198.683 66.6308 198C66.2575 197.307 66.0708 196.507 66.0708 195.6C66.0708 194.693 66.2521 193.899 66.6148 193.216C66.9775 192.533 67.4841 192.011 68.1348 191.648C68.7961 191.275 69.5535 191.088 70.4068 191.088C71.2388 191.088 71.9748 191.269 72.6148 191.632C73.2548 191.995 73.7455 192.496 74.0868 193.136C74.4388 193.765 74.6148 194.48 74.6148 195.28ZM73.1108 194.976C73.1108 194.421 72.9881 193.947 72.7428 193.552C72.4975 193.147 72.1615 192.843 71.7348 192.64C71.3188 192.427 70.8548 192.32 70.3428 192.32C69.6068 192.32 68.9775 192.555 68.4548 193.024C67.9428 193.493 67.6495 194.144 67.5748 194.976H73.1108ZM80.8087 191.072C81.8754 191.072 82.7394 191.397 83.4007 192.048C84.062 192.688 84.3927 193.616 84.3927 194.832V200H82.9527V195.04C82.9527 194.165 82.734 193.499 82.2967 193.04C81.8594 192.571 81.262 192.336 80.5047 192.336C79.7367 192.336 79.1234 192.576 78.6647 193.056C78.2167 193.536 77.9927 194.235 77.9927 195.152V200H76.5367V191.232H77.9927V192.48C78.2807 192.032 78.67 191.685 79.1607 191.44C79.662 191.195 80.2114 191.072 80.8087 191.072ZM88.5471 192.432V197.6C88.5471 198.027 88.6377 198.331 88.8191 198.512C89.0004 198.683 89.3151 198.768 89.7631 198.768H90.8351V200H89.5231C88.7124 200 88.1044 199.813 87.6991 199.44C87.2937 199.067 87.0911 198.453 87.0911 197.6V192.432H85.9551V191.232H87.0911V189.024H88.5471V191.232H90.8351V192.432H88.5471ZM94.0552 188.16V200H92.5992V188.16H94.0552ZM104.089 191.232L98.8087 204.128H97.3047L99.0327 199.904L95.4967 191.232H97.1127L99.8647 198.336L102.585 191.232H104.089ZM117.37 191.232L112.09 204.128H110.586L112.314 199.904L108.778 191.232H110.394L113.146 198.336L115.866 191.232H117.37ZM122.658 200.144C121.836 200.144 121.09 199.957 120.418 199.584C119.756 199.211 119.234 198.683 118.85 198C118.476 197.307 118.29 196.507 118.29 195.6C118.29 194.704 118.482 193.915 118.866 193.232C119.26 192.539 119.794 192.011 120.466 191.648C121.138 191.275 121.89 191.088 122.722 191.088C123.554 191.088 124.306 191.275 124.978 191.648C125.65 192.011 126.178 192.533 126.562 193.216C126.956 193.899 127.154 194.693 127.154 195.6C127.154 196.507 126.951 197.307 126.546 198C126.151 198.683 125.612 199.211 124.93 199.584C124.247 199.957 123.49 200.144 122.658 200.144ZM122.658 198.864C123.18 198.864 123.671 198.741 124.13 198.496C124.588 198.251 124.956 197.883 125.234 197.392C125.522 196.901 125.666 196.304 125.666 195.6C125.666 194.896 125.527 194.299 125.25 193.808C124.972 193.317 124.61 192.955 124.162 192.72C123.714 192.475 123.228 192.352 122.706 192.352C122.172 192.352 121.682 192.475 121.234 192.72C120.796 192.955 120.444 193.317 120.178 193.808C119.911 194.299 119.778 194.896 119.778 195.6C119.778 196.315 119.906 196.917 120.162 197.408C120.428 197.899 120.78 198.267 121.218 198.512C121.655 198.747 122.135 198.864 122.658 198.864ZM136.844 191.232V200H135.388V198.704C135.111 199.152 134.721 199.504 134.22 199.76C133.729 200.005 133.185 200.128 132.588 200.128C131.905 200.128 131.292 199.989 130.748 199.712C130.204 199.424 129.772 198.997 129.452 198.432C129.143 197.867 128.988 197.179 128.988 196.368V191.232H130.428V196.176C130.428 197.04 130.647 197.707 131.084 198.176C131.521 198.635 132.119 198.864 132.876 198.864C133.655 198.864 134.268 198.624 134.716 198.144C135.164 197.664 135.388 196.965 135.388 196.048V191.232H136.844ZM143.024 195.584C143.024 194.688 143.205 193.904 143.568 193.232C143.931 192.549 144.427 192.021 145.056 191.648C145.696 191.275 146.411 191.088 147.2 191.088C147.883 191.088 148.517 191.248 149.104 191.568C149.691 191.877 150.139 192.288 150.448 192.8V188.16H151.92V200H150.448V198.352C150.16 198.875 149.733 199.307 149.168 199.648C148.603 199.979 147.941 200.144 147.184 200.144C146.405 200.144 145.696 199.952 145.056 199.568C144.427 199.184 143.931 198.645 143.568 197.952C143.205 197.259 143.024 196.469 143.024 195.584ZM150.448 195.6C150.448 194.939 150.315 194.363 150.048 193.872C149.781 193.381 149.419 193.008 148.96 192.752C148.512 192.485 148.016 192.352 147.472 192.352C146.928 192.352 146.432 192.48 145.984 192.736C145.536 192.992 145.179 193.365 144.912 193.856C144.645 194.347 144.512 194.923 144.512 195.584C144.512 196.256 144.645 196.843 144.912 197.344C145.179 197.835 145.536 198.213 145.984 198.48C146.432 198.736 146.928 198.864 147.472 198.864C148.016 198.864 148.512 198.736 148.96 198.48C149.419 198.213 149.781 197.835 150.048 197.344C150.315 196.843 150.448 196.261 150.448 195.6ZM158.204 200.144C157.383 200.144 156.636 199.957 155.964 199.584C155.303 199.211 154.78 198.683 154.396 198C154.023 197.307 153.836 196.507 153.836 195.6C153.836 194.704 154.028 193.915 154.412 193.232C154.807 192.539 155.34 192.011 156.012 191.648C156.684 191.275 157.436 191.088 158.268 191.088C159.1 191.088 159.852 191.275 160.524 191.648C161.196 192.011 161.724 192.533 162.108 193.216C162.503 193.899 162.7 194.693 162.7 195.6C162.7 196.507 162.498 197.307 162.092 198C161.698 198.683 161.159 199.211 160.476 199.584C159.794 199.957 159.036 200.144 158.204 200.144ZM158.204 198.864C158.727 198.864 159.218 198.741 159.676 198.496C160.135 198.251 160.503 197.883 160.78 197.392C161.068 196.901 161.212 196.304 161.212 195.6C161.212 194.896 161.074 194.299 160.796 193.808C160.519 193.317 160.156 192.955 159.708 192.72C159.26 192.475 158.775 192.352 158.252 192.352C157.719 192.352 157.228 192.475 156.78 192.72C156.343 192.955 155.991 193.317 155.724 193.808C155.458 194.299 155.324 194.896 155.324 195.6C155.324 196.315 155.452 196.917 155.708 197.408C155.975 197.899 156.327 198.267 156.764 198.512C157.202 198.747 157.682 198.864 158.204 198.864ZM168.887 191.072C169.953 191.072 170.817 191.397 171.479 192.048C172.14 192.688 172.471 193.616 172.471 194.832V200H171.031V195.04C171.031 194.165 170.812 193.499 170.375 193.04C169.937 192.571 169.34 192.336 168.583 192.336C167.815 192.336 167.201 192.576 166.743 193.056C166.295 193.536 166.071 194.235 166.071 195.152V200H164.615V191.232H166.071V192.48C166.359 192.032 166.748 191.685 167.239 191.44C167.74 191.195 168.289 191.072 168.887 191.072ZM175.073 188.848H176.689L175.153 192.48H174.129L175.073 188.848ZM180.125 192.432V197.6C180.125 198.027 180.216 198.331 180.397 198.512C180.579 198.683 180.893 198.768 181.341 198.768H182.413V200H181.101C180.291 200 179.683 199.813 179.277 199.44C178.872 199.067 178.669 198.453 178.669 197.6V192.432H177.533V191.232H178.669V189.024H180.125V191.232H182.413V192.432H180.125ZM192.795 191.072C193.456 191.072 194.054 191.216 194.587 191.504C195.12 191.781 195.536 192.203 195.835 192.768C196.144 193.333 196.299 194.021 196.299 194.832V200H194.859V195.04C194.859 194.165 194.64 193.499 194.203 193.04C193.766 192.571 193.168 192.336 192.411 192.336C191.643 192.336 191.03 192.576 190.571 193.056C190.123 193.536 189.899 194.235 189.899 195.152V200H188.443V188.16H189.899V192.48C190.187 192.032 190.582 191.685 191.083 191.44C191.595 191.195 192.166 191.072 192.795 191.072ZM198.133 195.584C198.133 194.688 198.315 193.904 198.677 193.232C199.04 192.549 199.536 192.021 200.165 191.648C200.805 191.275 201.515 191.088 202.293 191.088C203.061 191.088 203.728 191.253 204.293 191.584C204.859 191.915 205.28 192.331 205.557 192.832V191.232H207.029V200H205.557V198.368C205.269 198.88 204.837 199.307 204.261 199.648C203.696 199.979 203.035 200.144 202.277 200.144C201.499 200.144 200.795 199.952 200.165 199.568C199.536 199.184 199.04 198.645 198.677 197.952C198.315 197.259 198.133 196.469 198.133 195.584ZM205.557 195.6C205.557 194.939 205.424 194.363 205.157 193.872C204.891 193.381 204.528 193.008 204.069 192.752C203.621 192.485 203.125 192.352 202.581 192.352C202.037 192.352 201.541 192.48 201.093 192.736C200.645 192.992 200.288 193.365 200.021 193.856C199.755 194.347 199.621 194.923 199.621 195.584C199.621 196.256 199.755 196.843 200.021 197.344C200.288 197.835 200.645 198.213 201.093 198.48C201.541 198.736 202.037 198.864 202.581 198.864C203.125 198.864 203.621 198.736 204.069 198.48C204.528 198.213 204.891 197.835 205.157 197.344C205.424 196.843 205.557 196.261 205.557 195.6ZM212.754 198.656L215.474 191.232H217.026L213.586 200H211.89L208.45 191.232H210.018L212.754 198.656ZM226.459 195.28C226.459 195.557 226.443 195.851 226.411 196.16H219.403C219.456 197.024 219.749 197.701 220.283 198.192C220.827 198.672 221.483 198.912 222.251 198.912C222.88 198.912 223.403 198.768 223.819 198.48C224.245 198.181 224.544 197.787 224.715 197.296H226.283C226.048 198.139 225.579 198.827 224.875 199.36C224.171 199.883 223.296 200.144 222.251 200.144C221.419 200.144 220.672 199.957 220.011 199.584C219.36 199.211 218.848 198.683 218.475 198C218.101 197.307 217.915 196.507 217.915 195.6C217.915 194.693 218.096 193.899 218.459 193.216C218.821 192.533 219.328 192.011 219.979 191.648C220.64 191.275 221.397 191.088 222.251 191.088C223.083 191.088 223.819 191.269 224.459 191.632C225.099 191.995 225.589 192.496 225.931 193.136C226.283 193.765 226.459 194.48 226.459 195.28ZM224.955 194.976C224.955 194.421 224.832 193.947 224.587 193.552C224.341 193.147 224.005 192.843 223.579 192.64C223.163 192.427 222.699 192.32 222.187 192.32C221.451 192.32 220.821 192.555 220.299 193.024C219.787 193.493 219.493 194.144 219.419 194.976H224.955ZM47.2058 212.848L42.9978 224H41.3178L37.1098 212.848H38.6618L42.1658 222.464L45.6698 212.848H47.2058ZM56.8023 219.28C56.8023 219.557 56.7863 219.851 56.7543 220.16H49.7463C49.7996 221.024 50.093 221.701 50.6263 222.192C51.1703 222.672 51.8263 222.912 52.5943 222.912C53.2236 222.912 53.7463 222.768 54.1623 222.48C54.589 222.181 54.8876 221.787 55.0583 221.296H56.6263C56.3916 222.139 55.9223 222.827 55.2183 223.36C54.5143 223.883 53.6396 224.144 52.5943 224.144C51.7623 224.144 51.0156 223.957 50.3543 223.584C49.7036 223.211 49.1916 222.683 48.8183 222C48.445 221.307 48.2583 220.507 48.2583 219.6C48.2583 218.693 48.4396 217.899 48.8023 217.216C49.165 216.533 49.6716 216.011 50.3223 215.648C50.9836 215.275 51.741 215.088 52.5943 215.088C53.4263 215.088 54.1623 215.269 54.8023 215.632C55.4423 215.995 55.933 216.496 56.2743 217.136C56.6263 217.765 56.8023 218.48 56.8023 219.28ZM55.2983 218.976C55.2983 218.421 55.1756 217.947 54.9303 217.552C54.685 217.147 54.349 216.843 53.9223 216.64C53.5063 216.427 53.0423 216.32 52.5303 216.32C51.7943 216.32 51.165 216.555 50.6423 217.024C50.1303 217.493 49.837 218.144 49.7623 218.976H55.2983ZM63.0762 215.072C63.7375 215.072 64.3349 215.216 64.8682 215.504C65.4015 215.781 65.8175 216.203 66.1162 216.768C66.4255 217.333 66.5802 218.021 66.5802 218.832V224H65.1402V219.04C65.1402 218.165 64.9215 217.499 64.4842 217.04C64.0469 216.571 63.4495 216.336 62.6922 216.336C61.9242 216.336 61.3109 216.576 60.8522 217.056C60.4042 217.536 60.1802 218.235 60.1802 219.152V224H58.7242V212.16H60.1802V216.48C60.4682 216.032 60.8629 215.685 61.3642 215.44C61.8762 215.195 62.4469 215.072 63.0762 215.072ZM69.7106 213.808C69.4332 213.808 69.1986 213.712 69.0066 213.52C68.8146 213.328 68.7186 213.093 68.7186 212.816C68.7186 212.539 68.8146 212.304 69.0066 212.112C69.1986 211.92 69.4332 211.824 69.7106 211.824C69.9772 211.824 70.2012 211.92 70.3826 212.112C70.5746 212.304 70.6706 212.539 70.6706 212.816C70.6706 213.093 70.5746 213.328 70.3826 213.52C70.2012 213.712 69.9772 213.808 69.7106 213.808ZM70.4146 215.232V224H68.9586V215.232H70.4146ZM72.3521 219.6C72.3521 218.693 72.5334 217.904 72.8961 217.232C73.2587 216.549 73.7601 216.021 74.4001 215.648C75.0507 215.275 75.7921 215.088 76.6241 215.088C77.7014 215.088 78.5867 215.349 79.2801 215.872C79.9841 216.395 80.4481 217.12 80.6721 218.048H79.1041C78.9547 217.515 78.6614 217.093 78.2241 216.784C77.7974 216.475 77.2641 216.32 76.6241 216.32C75.7921 216.32 75.1201 216.608 74.6081 217.184C74.0961 217.749 73.8401 218.555 73.8401 219.6C73.8401 220.656 74.0961 221.472 74.6081 222.048C75.1201 222.624 75.7921 222.912 76.6241 222.912C77.2641 222.912 77.7974 222.763 78.2241 222.464C78.6507 222.165 78.9441 221.739 79.1041 221.184H80.6721C80.4374 222.08 79.9681 222.8 79.2641 223.344C78.5601 223.877 77.6801 224.144 76.6241 224.144C75.7921 224.144 75.0507 223.957 74.4001 223.584C73.7601 223.211 73.2587 222.683 72.8961 222C72.5334 221.317 72.3521 220.517 72.3521 219.6ZM84.0708 212.16V224H82.6148V212.16H84.0708ZM94.5523 219.28C94.5523 219.557 94.5363 219.851 94.5043 220.16H87.4963C87.5496 221.024 87.843 221.701 88.3763 222.192C88.9203 222.672 89.5763 222.912 90.3443 222.912C90.9736 222.912 91.4963 222.768 91.9123 222.48C92.339 222.181 92.6376 221.787 92.8083 221.296H94.3763C94.1416 222.139 93.6723 222.827 92.9683 223.36C92.2643 223.883 91.3896 224.144 90.3443 224.144C89.5123 224.144 88.7656 223.957 88.1043 223.584C87.4536 223.211 86.9416 222.683 86.5683 222C86.195 221.307 86.0083 220.507 86.0083 219.6C86.0083 218.693 86.1896 217.899 86.5523 217.216C86.915 216.533 87.4216 216.011 88.0723 215.648C88.7336 215.275 89.491 215.088 90.3443 215.088C91.1763 215.088 91.9123 215.269 92.5523 215.632C93.1923 215.995 93.683 216.496 94.0243 217.136C94.3763 217.765 94.5523 218.48 94.5523 219.28ZM93.0483 218.976C93.0483 218.421 92.9256 217.947 92.6803 217.552C92.435 217.147 92.099 216.843 91.6723 216.64C91.2563 216.427 90.7923 216.32 90.2803 216.32C89.5443 216.32 88.915 216.555 88.3923 217.024C87.8803 217.493 87.587 218.144 87.5123 218.976H93.0483ZM99.5782 224.144C98.9062 224.144 98.3035 224.032 97.7702 223.808C97.2369 223.573 96.8155 223.253 96.5062 222.848C96.1969 222.432 96.0262 221.957 95.9942 221.424H97.4982C97.5409 221.861 97.7435 222.219 98.1062 222.496C98.4795 222.773 98.9649 222.912 99.5622 222.912C100.117 222.912 100.554 222.789 100.874 222.544C101.194 222.299 101.354 221.989 101.354 221.616C101.354 221.232 101.184 220.949 100.842 220.768C100.501 220.576 99.9729 220.389 99.2582 220.208C98.6075 220.037 98.0742 219.867 97.6582 219.696C97.2529 219.515 96.9009 219.253 96.6022 218.912C96.3142 218.56 96.1702 218.101 96.1702 217.536C96.1702 217.088 96.3035 216.677 96.5702 216.304C96.8369 215.931 97.2155 215.637 97.7062 215.424C98.1969 215.2 98.7569 215.088 99.3862 215.088C100.357 215.088 101.141 215.333 101.738 215.824C102.336 216.315 102.656 216.987 102.698 217.84H101.242C101.21 217.381 101.024 217.013 100.682 216.736C100.352 216.459 99.9035 216.32 99.3382 216.32C98.8155 216.32 98.3995 216.432 98.0902 216.656C97.7809 216.88 97.6262 217.173 97.6262 217.536C97.6262 217.824 97.7169 218.064 97.8982 218.256C98.0902 218.437 98.3249 218.587 98.6022 218.704C98.8902 218.811 99.2849 218.933 99.7862 219.072C100.416 219.243 100.928 219.413 101.322 219.584C101.717 219.744 102.053 219.989 102.33 220.32C102.618 220.651 102.768 221.083 102.778 221.616C102.778 222.096 102.645 222.528 102.378 222.912C102.112 223.296 101.733 223.6 101.242 223.824C100.762 224.037 100.208 224.144 99.5782 224.144ZM106.338 221.984L104.546 226.288H103.57L104.738 221.984H106.338ZM113.727 216.848C114.015 216.347 114.442 215.931 115.007 215.6C115.583 215.259 116.25 215.088 117.007 215.088C117.786 215.088 118.49 215.275 119.119 215.648C119.759 216.021 120.26 216.549 120.623 217.232C120.986 217.904 121.167 218.688 121.167 219.584C121.167 220.469 120.986 221.259 120.623 221.952C120.26 222.645 119.759 223.184 119.119 223.568C118.49 223.952 117.786 224.144 117.007 224.144C116.26 224.144 115.599 223.979 115.023 223.648C114.458 223.307 114.026 222.885 113.727 222.384V228.16H112.271V215.232H113.727V216.848ZM119.679 219.584C119.679 218.923 119.546 218.347 119.279 217.856C119.012 217.365 118.65 216.992 118.191 216.736C117.743 216.48 117.247 216.352 116.703 216.352C116.17 216.352 115.674 216.485 115.215 216.752C114.767 217.008 114.404 217.387 114.127 217.888C113.86 218.379 113.727 218.949 113.727 219.6C113.727 220.261 113.86 220.843 114.127 221.344C114.404 221.835 114.767 222.213 115.215 222.48C115.674 222.736 116.17 222.864 116.703 222.864C117.247 222.864 117.743 222.736 118.191 222.48C118.65 222.213 119.012 221.835 119.279 221.344C119.546 220.843 119.679 220.256 119.679 219.584ZM124.54 212.16V224H123.084V212.16H124.54ZM135.021 219.28C135.021 219.557 135.005 219.851 134.973 220.16H127.965C128.018 221.024 128.312 221.701 128.845 222.192C129.389 222.672 130.045 222.912 130.813 222.912C131.442 222.912 131.965 222.768 132.381 222.48C132.808 222.181 133.106 221.787 133.277 221.296H134.845C134.61 222.139 134.141 222.827 133.437 223.36C132.733 223.883 131.858 224.144 130.813 224.144C129.981 224.144 129.234 223.957 128.573 223.584C127.922 223.211 127.41 222.683 127.037 222C126.664 221.307 126.477 220.507 126.477 219.6C126.477 218.693 126.658 217.899 127.021 217.216C127.384 216.533 127.89 216.011 128.541 215.648C129.202 215.275 129.96 215.088 130.813 215.088C131.645 215.088 132.381 215.269 133.021 215.632C133.661 215.995 134.152 216.496 134.493 217.136C134.845 217.765 135.021 218.48 135.021 219.28ZM133.517 218.976C133.517 218.421 133.394 217.947 133.149 217.552C132.904 217.147 132.568 216.843 132.141 216.64C131.725 216.427 131.261 216.32 130.749 216.32C130.013 216.32 129.384 216.555 128.861 217.024C128.349 217.493 128.056 218.144 127.981 218.976H133.517ZM136.399 219.584C136.399 218.688 136.58 217.904 136.943 217.232C137.306 216.549 137.802 216.021 138.431 215.648C139.071 215.275 139.78 215.088 140.559 215.088C141.327 215.088 141.994 215.253 142.559 215.584C143.124 215.915 143.546 216.331 143.823 216.832V215.232H145.295V224H143.823V222.368C143.535 222.88 143.103 223.307 142.527 223.648C141.962 223.979 141.3 224.144 140.543 224.144C139.764 224.144 139.06 223.952 138.431 223.568C137.802 223.184 137.306 222.645 136.943 221.952C136.58 221.259 136.399 220.469 136.399 219.584ZM143.823 219.6C143.823 218.939 143.69 218.363 143.423 217.872C143.156 217.381 142.794 217.008 142.335 216.752C141.887 216.485 141.391 216.352 140.847 216.352C140.303 216.352 139.807 216.48 139.359 216.736C138.911 216.992 138.554 217.365 138.287 217.856C138.02 218.347 137.887 218.923 137.887 219.584C137.887 220.256 138.02 220.843 138.287 221.344C138.554 221.835 138.911 222.213 139.359 222.48C139.807 222.736 140.303 222.864 140.847 222.864C141.391 222.864 141.887 222.736 142.335 222.48C142.794 222.213 143.156 221.835 143.423 221.344C143.69 220.843 143.823 220.261 143.823 219.6ZM150.859 224.144C150.187 224.144 149.585 224.032 149.051 223.808C148.518 223.573 148.097 223.253 147.787 222.848C147.478 222.432 147.307 221.957 147.275 221.424H148.779C148.822 221.861 149.025 222.219 149.387 222.496C149.761 222.773 150.246 222.912 150.843 222.912C151.398 222.912 151.835 222.789 152.155 222.544C152.475 222.299 152.635 221.989 152.635 221.616C152.635 221.232 152.465 220.949 152.123 220.768C151.782 220.576 151.254 220.389 150.539 220.208C149.889 220.037 149.355 219.867 148.939 219.696C148.534 219.515 148.182 219.253 147.883 218.912C147.595 218.56 147.451 218.101 147.451 217.536C147.451 217.088 147.585 216.677 147.851 216.304C148.118 215.931 148.497 215.637 148.987 215.424C149.478 215.2 150.038 215.088 150.667 215.088C151.638 215.088 152.422 215.333 153.019 215.824C153.617 216.315 153.937 216.987 153.979 217.84H152.523C152.491 217.381 152.305 217.013 151.963 216.736C151.633 216.459 151.185 216.32 150.619 216.32C150.097 216.32 149.681 216.432 149.371 216.656C149.062 216.88 148.907 217.173 148.907 217.536C148.907 217.824 148.998 218.064 149.179 218.256C149.371 218.437 149.606 218.587 149.883 218.704C150.171 218.811 150.566 218.933 151.067 219.072C151.697 219.243 152.209 219.413 152.603 219.584C152.998 219.744 153.334 219.989 153.611 220.32C153.899 220.651 154.049 221.083 154.059 221.616C154.059 222.096 153.926 222.528 153.659 222.912C153.393 223.296 153.014 223.6 152.523 223.824C152.043 224.037 151.489 224.144 150.859 224.144ZM164.115 219.28C164.115 219.557 164.099 219.851 164.067 220.16H157.059C157.112 221.024 157.405 221.701 157.939 222.192C158.483 222.672 159.139 222.912 159.907 222.912C160.536 222.912 161.059 222.768 161.475 222.48C161.901 222.181 162.2 221.787 162.371 221.296H163.939C163.704 222.139 163.235 222.827 162.531 223.36C161.827 223.883 160.952 224.144 159.907 224.144C159.075 224.144 158.328 223.957 157.667 223.584C157.016 223.211 156.504 222.683 156.131 222C155.757 221.307 155.571 220.507 155.571 219.6C155.571 218.693 155.752 217.899 156.115 217.216C156.477 216.533 156.984 216.011 157.635 215.648C158.296 215.275 159.053 215.088 159.907 215.088C160.739 215.088 161.475 215.269 162.115 215.632C162.755 215.995 163.245 216.496 163.587 217.136C163.939 217.765 164.115 218.48 164.115 219.28ZM162.611 218.976C162.611 218.421 162.488 217.947 162.243 217.552C161.997 217.147 161.661 216.843 161.235 216.64C160.819 216.427 160.355 216.32 159.843 216.32C159.107 216.32 158.477 216.555 157.955 217.024C157.443 217.493 157.149 218.144 157.075 218.976H162.611ZM169.758 219.6C169.758 218.693 169.94 217.904 170.302 217.232C170.665 216.549 171.166 216.021 171.806 215.648C172.457 215.275 173.198 215.088 174.03 215.088C175.108 215.088 175.993 215.349 176.686 215.872C177.39 216.395 177.854 217.12 178.078 218.048H176.51C176.361 217.515 176.068 217.093 175.63 216.784C175.204 216.475 174.67 216.32 174.03 216.32C173.198 216.32 172.526 216.608 172.014 217.184C171.502 217.749 171.246 218.555 171.246 219.6C171.246 220.656 171.502 221.472 172.014 222.048C172.526 222.624 173.198 222.912 174.03 222.912C174.67 222.912 175.204 222.763 175.63 222.464C176.057 222.165 176.35 221.739 176.51 221.184H178.078C177.844 222.08 177.374 222.8 176.67 223.344C175.966 223.877 175.086 224.144 174.03 224.144C173.198 224.144 172.457 223.957 171.806 223.584C171.166 223.211 170.665 222.683 170.302 222C169.94 221.317 169.758 220.517 169.758 219.6ZM181.477 216.656C181.733 216.155 182.096 215.765 182.565 215.488C183.045 215.211 183.626 215.072 184.309 215.072V216.576H183.925C182.293 216.576 181.477 217.461 181.477 219.232V224H180.021V215.232H181.477V216.656ZM193.99 219.28C193.99 219.557 193.974 219.851 193.942 220.16H186.934C186.987 221.024 187.28 221.701 187.814 222.192C188.358 222.672 189.014 222.912 189.782 222.912C190.411 222.912 190.934 222.768 191.35 222.48C191.776 222.181 192.075 221.787 192.246 221.296H193.814C193.579 222.139 193.11 222.827 192.406 223.36C191.702 223.883 190.827 224.144 189.782 224.144C188.95 224.144 188.203 223.957 187.542 223.584C186.891 223.211 186.379 222.683 186.006 222C185.632 221.307 185.446 220.507 185.446 219.6C185.446 218.693 185.627 217.899 185.99 217.216C186.352 216.533 186.859 216.011 187.51 215.648C188.171 215.275 188.928 215.088 189.782 215.088C190.614 215.088 191.35 215.269 191.99 215.632C192.63 215.995 193.12 216.496 193.462 217.136C193.814 217.765 193.99 218.48 193.99 219.28ZM192.486 218.976C192.486 218.421 192.363 217.947 192.118 217.552C191.872 217.147 191.536 216.843 191.11 216.64C190.694 216.427 190.23 216.32 189.718 216.32C188.982 216.32 188.352 216.555 187.83 217.024C187.318 217.493 187.024 218.144 186.95 218.976H192.486ZM195.368 219.584C195.368 218.688 195.549 217.904 195.912 217.232C196.274 216.549 196.77 216.021 197.4 215.648C198.04 215.275 198.749 215.088 199.528 215.088C200.296 215.088 200.962 215.253 201.528 215.584C202.093 215.915 202.514 216.331 202.792 216.832V215.232H204.264V224H202.792V222.368C202.504 222.88 202.072 223.307 201.496 223.648C200.93 223.979 200.269 224.144 199.512 224.144C198.733 224.144 198.029 223.952 197.4 223.568C196.77 223.184 196.274 222.645 195.912 221.952C195.549 221.259 195.368 220.469 195.368 219.584ZM202.792 219.6C202.792 218.939 202.658 218.363 202.392 217.872C202.125 217.381 201.762 217.008 201.304 216.752C200.856 216.485 200.36 216.352 199.816 216.352C199.272 216.352 198.776 216.48 198.328 216.736C197.88 216.992 197.522 217.365 197.256 217.856C196.989 218.347 196.856 218.923 196.856 219.584C196.856 220.256 196.989 220.843 197.256 221.344C197.522 221.835 197.88 222.213 198.328 222.48C198.776 222.736 199.272 222.864 199.816 222.864C200.36 222.864 200.856 222.736 201.304 222.48C201.762 222.213 202.125 221.835 202.392 221.344C202.658 220.843 202.792 220.261 202.792 219.6ZM208.5 216.432V221.6C208.5 222.027 208.591 222.331 208.772 222.512C208.954 222.683 209.268 222.768 209.716 222.768H210.788V224H209.476C208.666 224 208.058 223.813 207.652 223.44C207.247 223.067 207.044 222.453 207.044 221.6V216.432H205.908V215.232H207.044V213.024H208.5V215.232H210.788V216.432H208.5ZM220.552 219.28C220.552 219.557 220.536 219.851 220.504 220.16H213.496C213.55 221.024 213.843 221.701 214.376 222.192C214.92 222.672 215.576 222.912 216.344 222.912C216.974 222.912 217.496 222.768 217.912 222.48C218.339 222.181 218.638 221.787 218.808 221.296H220.376C220.142 222.139 219.672 222.827 218.968 223.36C218.264 223.883 217.39 224.144 216.344 224.144C215.512 224.144 214.766 223.957 214.104 223.584C213.454 223.211 212.942 222.683 212.568 222C212.195 221.307 212.008 220.507 212.008 219.6C212.008 218.693 212.19 217.899 212.552 217.216C212.915 216.533 213.422 216.011 214.072 215.648C214.734 215.275 215.491 215.088 216.344 215.088C217.176 215.088 217.912 215.269 218.552 215.632C219.192 215.995 219.683 216.496 220.024 217.136C220.376 217.765 220.552 218.48 220.552 219.28ZM219.048 218.976C219.048 218.421 218.926 217.947 218.68 217.552C218.435 217.147 218.099 216.843 217.672 216.64C217.256 216.427 216.792 216.32 216.28 216.32C215.544 216.32 214.915 216.555 214.392 217.024C213.88 217.493 213.587 218.144 213.512 218.976H219.048ZM104.346 237.848L100.138 249H98.4584L94.2504 237.848H95.8024L99.3064 247.464L102.81 237.848H104.346ZM113.943 244.28C113.943 244.557 113.927 244.851 113.895 245.16H106.887C106.94 246.024 107.234 246.701 107.767 247.192C108.311 247.672 108.967 247.912 109.735 247.912C110.364 247.912 110.887 247.768 111.303 247.48C111.73 247.181 112.028 246.787 112.199 246.296H113.767C113.532 247.139 113.063 247.827 112.359 248.36C111.655 248.883 110.78 249.144 109.735 249.144C108.903 249.144 108.156 248.957 107.495 248.584C106.844 248.211 106.332 247.683 105.959 247C105.586 246.307 105.399 245.507 105.399 244.6C105.399 243.693 105.58 242.899 105.943 242.216C106.306 241.533 106.812 241.011 107.463 240.648C108.124 240.275 108.882 240.088 109.735 240.088C110.567 240.088 111.303 240.269 111.943 240.632C112.583 240.995 113.074 241.496 113.415 242.136C113.767 242.765 113.943 243.48 113.943 244.28ZM112.439 243.976C112.439 243.421 112.316 242.947 112.071 242.552C111.826 242.147 111.49 241.843 111.063 241.64C110.647 241.427 110.183 241.32 109.671 241.32C108.935 241.32 108.306 241.555 107.783 242.024C107.271 242.493 106.978 243.144 106.903 243.976H112.439ZM120.217 240.072C120.878 240.072 121.475 240.216 122.009 240.504C122.542 240.781 122.958 241.203 123.257 241.768C123.566 242.333 123.721 243.021 123.721 243.832V249H122.281V244.04C122.281 243.165 122.062 242.499 121.625 242.04C121.187 241.571 120.59 241.336 119.833 241.336C119.065 241.336 118.451 241.576 117.993 242.056C117.545 242.536 117.321 243.235 117.321 244.152V249H115.865V237.16H117.321V241.48C117.609 241.032 118.003 240.685 118.505 240.44C119.017 240.195 119.587 240.072 120.217 240.072ZM126.851 238.808C126.574 238.808 126.339 238.712 126.147 238.52C125.955 238.328 125.859 238.093 125.859 237.816C125.859 237.539 125.955 237.304 126.147 237.112C126.339 236.92 126.574 236.824 126.851 236.824C127.118 236.824 127.342 236.92 127.523 237.112C127.715 237.304 127.811 237.539 127.811 237.816C127.811 238.093 127.715 238.328 127.523 238.52C127.342 238.712 127.118 238.808 126.851 238.808ZM127.555 240.232V249H126.099V240.232H127.555ZM129.493 244.6C129.493 243.693 129.674 242.904 130.037 242.232C130.399 241.549 130.901 241.021 131.541 240.648C132.191 240.275 132.933 240.088 133.765 240.088C134.842 240.088 135.727 240.349 136.421 240.872C137.125 241.395 137.589 242.12 137.813 243.048H136.245C136.095 242.515 135.802 242.093 135.365 241.784C134.938 241.475 134.405 241.32 133.765 241.32C132.933 241.32 132.261 241.608 131.749 242.184C131.237 242.749 130.981 243.555 130.981 244.6C130.981 245.656 131.237 246.472 131.749 247.048C132.261 247.624 132.933 247.912 133.765 247.912C134.405 247.912 134.938 247.763 135.365 247.464C135.791 247.165 136.085 246.739 136.245 246.184H137.813C137.578 247.08 137.109 247.8 136.405 248.344C135.701 248.877 134.821 249.144 133.765 249.144C132.933 249.144 132.191 248.957 131.541 248.584C130.901 248.211 130.399 247.683 130.037 247C129.674 246.317 129.493 245.517 129.493 244.6ZM141.211 237.16V249H139.755V237.16H141.211ZM151.693 244.28C151.693 244.557 151.677 244.851 151.645 245.16H144.637C144.69 246.024 144.984 246.701 145.517 247.192C146.061 247.672 146.717 247.912 147.485 247.912C148.114 247.912 148.637 247.768 149.053 247.48C149.48 247.181 149.778 246.787 149.949 246.296H151.517C151.282 247.139 150.813 247.827 150.109 248.36C149.405 248.883 148.53 249.144 147.485 249.144C146.653 249.144 145.906 248.957 145.245 248.584C144.594 248.211 144.082 247.683 143.709 247C143.336 246.307 143.149 245.507 143.149 244.6C143.149 243.693 143.33 242.899 143.693 242.216C144.056 241.533 144.562 241.011 145.213 240.648C145.874 240.275 146.632 240.088 147.485 240.088C148.317 240.088 149.053 240.269 149.693 240.632C150.333 240.995 150.824 241.496 151.165 242.136C151.517 242.765 151.693 243.48 151.693 244.28ZM150.189 243.976C150.189 243.421 150.066 242.947 149.821 242.552C149.576 242.147 149.24 241.843 148.813 241.64C148.397 241.427 147.933 241.32 147.421 241.32C146.685 241.32 146.056 241.555 145.533 242.024C145.021 242.493 144.728 243.144 144.653 243.976H150.189ZM156.719 249.144C156.047 249.144 155.444 249.032 154.911 248.808C154.377 248.573 153.956 248.253 153.647 247.848C153.337 247.432 153.167 246.957 153.135 246.424H154.639C154.681 246.861 154.884 247.219 155.247 247.496C155.62 247.773 156.105 247.912 156.703 247.912C157.257 247.912 157.695 247.789 158.015 247.544C158.335 247.299 158.495 246.989 158.495 246.616C158.495 246.232 158.324 245.949 157.983 245.768C157.641 245.576 157.113 245.389 156.399 245.208C155.748 245.037 155.215 244.867 154.799 244.696C154.393 244.515 154.041 244.253 153.743 243.912C153.455 243.56 153.311 243.101 153.311 242.536C153.311 242.088 153.444 241.677 153.711 241.304C153.977 240.931 154.356 240.637 154.847 240.424C155.337 240.2 155.897 240.088 156.527 240.088C157.497 240.088 158.281 240.333 158.879 240.824C159.476 241.315 159.796 241.987 159.839 242.84H158.383C158.351 242.381 158.164 242.013 157.823 241.736C157.492 241.459 157.044 241.32 156.479 241.32C155.956 241.32 155.54 241.432 155.231 241.656C154.921 241.88 154.767 242.173 154.767 242.536C154.767 242.824 154.857 243.064 155.039 243.256C155.231 243.437 155.465 243.587 155.743 243.704C156.031 243.811 156.425 243.933 156.927 244.072C157.556 244.243 158.068 244.413 158.463 244.584C158.857 244.744 159.193 244.989 159.471 245.32C159.759 245.651 159.908 246.083 159.919 246.616C159.919 247.096 159.785 247.528 159.519 247.912C159.252 248.296 158.873 248.6 158.383 248.824C157.903 249.037 157.348 249.144 156.719 249.144ZM162.438 249.096C162.161 249.096 161.926 249 161.734 248.808C161.542 248.616 161.446 248.381 161.446 248.104C161.446 247.827 161.542 247.592 161.734 247.4C161.926 247.208 162.161 247.112 162.438 247.112C162.705 247.112 162.929 247.208 163.11 247.4C163.302 247.592 163.398 247.827 163.398 248.104C163.398 248.381 163.302 248.616 163.11 248.808C162.929 249 162.705 249.096 162.438 249.096Z" fill="black"/>
<path d="M109 115.4C105.857 115.4 103.3 117.958 103.3 121.1C103.3 124.243 105.857 126.8 109 126.8C112.143 126.8 114.7 124.243 114.7 121.1C114.7 117.958 112.143 115.4 109 115.4ZM109 124.4C107.18 124.4 105.7 122.921 105.7 121.1C105.7 119.28 107.18 117.8 109 117.8C110.82 117.8 112.3 119.28 112.3 121.1C112.3 122.921 110.82 124.4 109 124.4Z" fill="white"/>
<path d="M96.046 87.1998H108.4C109.062 87.1998 109.6 86.6622 109.6 85.9998C109.6 85.3374 109.062 84.7998 108.4 84.7998H96.046C95.3836 84.7998 94.846 85.3374 94.846 85.9998C94.846 86.6622 95.3824 87.1998 96.046 87.1998Z" fill="white"/>
<path d="M96.046 91.9996H108.4C109.062 91.9996 109.6 91.462 109.6 90.7996C109.6 90.1372 109.062 89.5996 108.4 89.5996H96.046C95.3836 89.5996 94.846 90.1372 94.846 90.7996C94.846 91.462 95.3824 91.9996 96.046 91.9996Z" fill="white"/>
<path d="M109.6 95.6004C109.6 94.938 109.062 94.4004 108.4 94.4004H96.046C95.3836 94.4004 94.846 94.938 94.846 95.6004C94.846 96.264 95.3836 96.8004 96.046 96.8004H108.4C109.062 96.8004 109.6 96.264 109.6 95.6004Z" fill="white"/>
<path d="M157.3 133C163.966 129.69 168.62 122.953 168.954 115.1H177.7V102.484L165.501 102.634C162.564 98.2196 158.025 95.0168 152.804 93.7784L149.56 58.1H156.965L160.166 48.5H109.736L112.936 58.1H119.348L114.828 79.4H93.376C91.6672 79.4 90.0328 80.1284 88.8916 81.4004C87.7504 82.6724 87.2008 84.3752 87.3844 86.0744L89.776 108.2H83.8V115.1H90.5224H92.446H96.2596C95.3968 116.924 94.9 118.952 94.9 121.1C94.9 126.104 97.5292 130.497 101.47 133H96.1V135.4H180.8V133H157.3ZM175.3 112.7H125.8V111.35H175.3V112.7ZM154.532 115.1C154.09 118.314 151.332 120.8 148 120.8C144.668 120.8 141.91 118.314 141.468 115.1H154.532ZM144.004 108.95C145.133 108.086 146.523 107.6 148 107.6C149.478 107.6 150.868 108.086 151.997 108.95H144.004ZM175.3 104.916V108.95H168.317C167.963 107.577 167.484 106.261 166.877 105.019L175.3 104.916ZM165.843 108.95H155.284C153.602 106.628 150.881 105.2 148 105.2C145.073 105.2 142.407 106.597 140.716 108.95H130.155C132.453 101.13 139.724 95.6 148 95.6C156.269 95.6 163.545 101.133 165.843 108.95ZM150.353 93.35C149.578 93.2612 148.794 93.2 148 93.2C144.309 93.2 140.796 94.1768 137.735 95.9H133.757V90.26L148.362 71.4392L150.353 93.35ZM147.772 64.9532L148.043 67.934L133.757 86.3456V82.8488L147.772 64.9532ZM133.757 78.9572V58.1H147.149L147.455 61.466L133.757 78.9572ZM114.665 55.7L113.066 50.9H156.836L155.236 55.7H114.665ZM121.799 58.1H131.357V59.0384L117.976 76.124L121.799 58.1ZM116.843 81.4616L131.356 62.9312V66.242L115.827 86.2556L116.843 81.4616ZM114.719 91.5992L131.357 70.1564V95.9H118.408C117.273 95.9 116.211 95.3936 115.496 94.5116C114.828 93.6884 114.563 92.6384 114.719 91.5992ZM86.2 112.7V110.6H90.0364L90.2632 112.7H86.2ZM92.6776 112.7L89.7712 85.8164C89.6596 84.7796 89.9812 83.78 90.6784 83.0036C91.3756 82.2272 92.3332 81.8 93.376 81.8H114.122L114.29 81.932L112.392 90.8768C112.006 92.6996 112.456 94.5752 113.63 96.0224C114.803 97.4696 116.543 98.3 118.407 98.3H134.328C131.144 101.034 128.776 104.71 127.683 108.95H123.4V112.7H120.298C117.725 109.249 113.626 107 109 107C104.374 107 100.275 109.249 97.702 112.7H92.6776ZM97.3 121.1C97.3 114.649 102.549 109.4 109 109.4C115.451 109.4 120.7 114.649 120.7 121.1C120.7 127.551 115.451 132.8 109 132.8C102.549 132.8 97.3 127.551 97.3 121.1ZM116.53 133C120.472 130.497 123.1 126.104 123.1 121.1C123.1 118.952 122.603 116.924 121.74 115.1H127.046C127.38 122.953 132.035 129.69 138.7 133H116.53ZM129.446 115.1H139.046C139.499 119.642 143.34 123.2 148 123.2C152.66 123.2 156.501 119.642 156.954 115.1H166.554C166.08 124.936 157.953 132.8 148 132.8C138.047 132.8 129.92 124.936 129.446 115.1Z" fill="white"/>
<path d="M130 139.8H80.8V142.2H130V139.8Z" fill="white"/>
<path d="M166.15 139.8H146.4V142.2H166.15V139.8Z" fill="white"/>
</svg>
