<svg width="20" height="20" viewBox="0 0 20 20" fill="none" xmlns="http://www.w3.org/2000/svg">
<g clip-path="url(#clip0_577_11063)">
<path d="M15 3.33301H5C4.07953 3.33301 3.33334 4.0792 3.33334 4.99967V14.9997C3.33334 15.9201 4.07953 16.6663 5 16.6663H15C15.9205 16.6663 16.6667 15.9201 16.6667 14.9997V4.99967C16.6667 4.0792 15.9205 3.33301 15 3.33301Z" stroke="#DE0C0C" stroke-width="1.5" stroke-linecap="round" stroke-linejoin="round"/>
<path d="M12.5 7.5H7.5V12.5H12.5V7.5Z" stroke="#DE0C0C" stroke-width="1.5" stroke-linecap="round" stroke-linejoin="round"/>
<path d="M7.5 0.833008V3.33301" stroke="#DE0C0C" stroke-width="1.5" stroke-linecap="round" stroke-linejoin="round"/>
<path d="M12.5 0.833008V3.33301" stroke="#DE0C0C" stroke-width="1.5" stroke-linecap="round" stroke-linejoin="round"/>
<path d="M7.5 16.667V19.167" stroke="#DE0C0C" stroke-width="1.5" stroke-linecap="round" stroke-linejoin="round"/>
<path d="M12.5 16.667V19.167" stroke="#DE0C0C" stroke-width="1.5" stroke-linecap="round" stroke-linejoin="round"/>
<path d="M16.6667 7.5H19.1667" stroke="#DE0C0C" stroke-width="1.5" stroke-linecap="round" stroke-linejoin="round"/>
<path d="M16.6667 11.667H19.1667" stroke="#DE0C0C" stroke-width="1.5" stroke-linecap="round" stroke-linejoin="round"/>
<path d="M0.833336 7.5H3.33334" stroke="#DE0C0C" stroke-width="1.5" stroke-linecap="round" stroke-linejoin="round"/>
<path d="M0.833336 11.667H3.33334" stroke="#DE0C0C" stroke-width="1.5" stroke-linecap="round" stroke-linejoin="round"/>
</g>
<defs>
<clipPath id="clip0_577_11063">
<rect width="20" height="20" fill="white"/>
</clipPath>
</defs>
</svg>
