<svg width="271" height="325" viewBox="0 0 271 325" fill="none" xmlns="http://www.w3.org/2000/svg">
<path d="M177.218 45.242C196.398 52.2301 224.71 54.9041 237.732 68.5207C250.456 82.3853 247.622 107.162 240.417 130.029C233.511 152.648 221.934 173.604 205.323 186.652C188.711 199.7 167.299 205.148 147.419 204.285C127.507 203.7 109.393 196.833 88.9885 191.115C68.317 185.367 45.3544 180.767 29.9658 166.597C14.3107 152.397 6.49612 128.659 9.24604 106.975C11.7613 84.982 25.1394 64.7956 38.9986 47.4844C52.8578 30.1733 67.4327 16.0464 83.9204 11.1632C100.408 6.28008 119.043 10.9496 133.533 18.8115C147.725 26.9213 157.772 38.2235 177.218 45.242Z" fill="#F66464"/>
<path d="M174.222 161.631V147.348H194.139V127.551H161.93V144.519H142.013V161.631H126.61V144.519H103.685V131.028L114.42 142.719C114.855 143.192 115.45 143.432 116.047 143.432C116.581 143.432 117.117 143.24 117.54 142.851L122.219 138.555C123.116 137.731 123.176 136.331 122.352 135.434L101.139 112.332C101.451 112.239 101.748 112.077 102.003 111.842L106.682 107.546C107.579 106.722 107.639 105.322 106.815 104.425L98.2222 95.0667C97.3985 94.1699 95.9986 94.1101 95.1014 94.9337L90.4223 99.2302C89.9631 99.652 89.7233 100.225 89.7093 100.804C89.1313 100.768 88.5399 100.959 88.0806 101.38L84.5736 104.601C83.1016 105.952 81.0037 108.122 79.7852 111.342C78.4286 114.926 78.4583 119.039 79.8734 123.566C80.237 124.729 81.4784 125.378 82.6406 125.015C82.9497 124.918 83.239 124.751 83.4762 124.533L89.9076 118.628C90.2609 118.303 90.711 118.136 91.1744 118.155C91.638 118.175 92.072 118.381 92.3964 118.734L100.493 127.551H71.4753V147.348H94.4V161.631H76.1678V181.429H108.378V164.316H123.78V181.429H155.99V164.316H166.874V181.429H199.084V161.631H174.222ZM164.759 130.381H191.31V144.519H174.222H164.759V130.381ZM94.4805 116.82C93.6449 115.91 92.5136 115.38 91.295 115.328C91.2291 115.326 91.1636 115.324 91.0981 115.324C89.9505 115.324 88.8548 115.753 87.9939 116.544L82.2983 121.773C81.3522 118.247 81.3962 115.079 82.4315 112.343C83.4369 109.686 85.2277 107.841 86.4873 106.685L89.538 103.883L91.6875 106.222L94.9414 103.234L92.7933 100.894L96.5579 97.4377L104.311 105.881L100.546 109.338L98.3983 106.999L95.1444 109.986L99.4111 114.633L95.6464 118.09L94.4805 116.82ZM97.56 120.174L101.325 116.717L119.849 136.891L116.084 140.348L97.56 120.174ZM74.3048 144.519V130.381H100.856V144.519H94.4H74.3048ZM105.548 178.599H78.9972V164.461H105.548V178.599ZM123.78 161.487H97.2295V147.348H103.685H123.78V161.487ZM153.161 178.599H126.61V164.461H153.161V178.599ZM144.842 161.487V147.348H161.93H171.393V161.487H144.842ZM196.254 178.599H169.703V164.461H196.254V178.599Z" fill="white"/>
<path d="M107.939 116.862H123.27C123.205 117.538 123.169 118.215 123.169 118.893C123.169 119.107 123.181 119.26 123.19 119.345C123.241 120.606 124.115 121.706 125.335 122.038C126.314 122.305 127.2 122.648 127.766 122.98C127.937 123.081 128.058 123.168 128.139 123.235C128.102 123.335 128.04 123.473 127.937 123.647C127.61 124.202 127.013 124.916 126.261 125.653C125.333 126.551 125.108 127.975 125.716 129.118C126.787 131.119 128.149 132.926 129.76 134.485C130.692 135.396 132.13 135.576 133.249 134.927C134.189 134.391 135.044 134.008 135.657 133.849C135.855 133.798 136.005 133.776 136.112 133.767C136.155 133.865 136.207 134.006 136.258 134.203C136.421 134.833 136.507 135.79 136.493 136.839C136.487 138.123 137.341 139.276 138.566 139.643C140.641 140.272 143.234 140.543 144.824 140.585C144.865 140.586 144.912 140.587 144.964 140.587C145.074 140.587 145.206 140.581 145.348 140.558C146.549 140.465 147.593 139.621 147.93 138.442C148.211 137.426 148.56 136.528 148.888 135.977C148.996 135.795 149.09 135.672 149.161 135.592C149.259 135.629 149.397 135.691 149.575 135.796C150.138 136.13 150.878 136.749 151.603 137.493C152.501 138.421 153.924 138.646 155.067 138.038C157.041 136.984 158.849 135.615 160.434 133.975C161.346 133.043 161.525 131.605 160.874 130.481C160.354 129.577 159.962 128.7 159.798 128.074C159.746 127.873 159.724 127.721 159.715 127.615C159.815 127.569 159.963 127.513 160.172 127.458C160.807 127.293 161.739 127.209 162.79 127.223C164.092 127.242 165.259 126.392 165.631 125.148C166.243 123.114 166.554 121.01 166.554 118.893C166.554 118.779 166.554 118.627 166.532 118.46C166.504 117.867 166.292 117.311 165.95 116.854H181.941V114.024H181.865C181.932 110.887 182.049 102.827 181.828 90.9215L181.827 90.8502L181.819 90.7793C181.812 90.7211 181.805 90.6638 181.799 90.6071C181.46 87.5741 180.371 86.174 161.296 79.306C159.71 78.6199 155.771 76.8565 153.983 75.8262L153.839 72.0561C156.665 69.8878 158.906 66.7316 160.209 62.9975C161.01 62.9148 161.766 62.5875 162.385 62.0429C163.171 61.3515 163.641 60.3978 163.708 59.3577L163.859 56.999C165.341 56.539 166.42 55.1553 166.42 53.5241C166.42 51.599 164.917 50.0183 163.023 49.8943C162.34 39.9057 154.455 32 144.861 32C135.268 32 127.382 39.9057 126.7 49.8943C124.805 50.0183 123.302 51.599 123.302 53.5241C123.302 55.1191 124.336 56.4744 125.767 56.964L125.92 59.3577C126.046 61.3216 127.608 62.8551 129.516 63.0051C130.82 66.7355 133.059 69.8887 135.882 72.0555L135.739 75.8261C133.952 76.8562 130.012 78.6197 128.426 79.306C109.351 86.1739 108.262 87.5741 107.923 90.6071C107.917 90.6638 107.911 90.7211 107.904 90.7793L107.895 90.8502L107.894 90.9215C107.607 106.415 107.892 115.405 107.894 115.494L107.939 116.862ZM163.71 119.616C163.648 121.212 163.384 122.796 162.922 124.334C162.911 124.37 162.878 124.394 162.832 124.394C161.911 124.381 160.578 124.43 159.46 124.72C158.367 125.004 157.589 125.496 157.21 126.141C156.829 126.789 156.777 127.705 157.061 128.79C157.353 129.906 157.962 131.093 158.424 131.897C158.443 131.929 158.438 131.97 158.406 132.002C157.02 133.436 155.448 134.627 153.736 135.541C153.703 135.559 153.662 135.552 153.633 135.522C153.107 134.982 152.068 133.984 151.015 133.36C150.052 132.793 149.163 132.592 148.442 132.778C147.713 132.967 147.026 133.573 146.457 134.53C145.869 135.517 145.451 136.792 145.206 137.676C145.197 137.709 145.169 137.731 145.136 137.735H144.385C144.379 137.735 144.374 137.735 144.369 137.734L142.863 137.606C141.687 137.472 140.421 137.249 139.382 136.934C139.347 136.924 139.323 136.891 139.323 136.865C139.332 136.113 139.303 134.675 138.997 133.493C138.715 132.407 138.23 131.635 137.595 131.261C136.951 130.881 136.036 130.829 134.949 131.11C133.86 131.392 132.661 132.005 131.839 132.474C131.806 132.493 131.765 132.488 131.733 132.456C130.328 131.097 129.143 129.525 128.212 127.786C128.195 127.754 128.202 127.713 128.235 127.681C128.893 127.035 129.799 126.061 130.375 125.083C130.936 124.13 131.143 123.21 130.957 122.492C130.772 121.782 130.164 121.107 129.197 120.54C128.194 119.951 126.948 119.545 126.078 119.308C126.043 119.298 126.017 119.265 126.017 119.228L126.016 119.155L126.006 119.075C126 119.017 125.998 118.944 125.998 118.893C125.998 117.06 126.273 115.222 126.815 113.429C126.827 113.395 126.857 113.369 126.894 113.373C128.161 113.385 129.352 113.262 130.247 113.027C131.325 112.743 132.095 112.252 132.474 111.608C132.853 110.965 132.905 110.056 132.624 108.978C132.401 108.12 131.944 107.083 131.267 105.9C131.249 105.868 131.254 105.827 131.279 105.801C132.631 104.402 134.204 103.217 135.96 102.275C135.993 102.258 136.034 102.264 136.054 102.284C136.948 103.198 137.877 103.958 138.671 104.425C139.662 105.009 140.527 105.211 141.242 105.026C141.952 104.842 142.633 104.229 143.211 103.252C143.684 102.454 144.129 101.339 144.465 100.11C144.475 100.074 144.507 100.049 144.544 100.048L144.836 100.044L144.983 100.048C146.842 100.06 148.637 100.324 150.321 100.832C150.357 100.843 150.381 100.877 150.381 100.922C150.37 101.847 150.417 103.183 150.708 104.295C150.989 105.372 151.48 106.143 152.127 106.525C152.77 106.903 153.679 106.955 154.756 106.675C155.65 106.443 156.751 105.967 157.854 105.336C157.886 105.318 157.927 105.323 157.952 105.348C159.369 106.718 160.554 108.284 161.478 110.01C161.496 110.043 161.49 110.084 161.469 110.105C160.805 110.755 159.895 111.735 159.326 112.706C158.759 113.675 158.559 114.57 158.747 115.295C158.931 116.002 159.544 116.681 160.518 117.26C161.317 117.735 162.425 118.18 163.644 118.515C163.676 118.524 163.699 118.551 163.705 118.582L163.707 118.634L163.71 118.634V119.616ZM171.829 86.3368C174.163 87.3072 175.856 88.1037 177.018 88.7719C178.866 89.8344 178.906 90.1976 178.987 90.9209C178.991 90.9614 178.996 91.0023 179.001 91.0434C179.22 102.952 179.101 110.973 179.035 114.024H171.829V86.3368ZM143.223 34.924C143.761 34.8626 144.308 34.8294 144.861 34.8294C145.415 34.8294 145.961 34.8626 146.5 34.924V40.2607C146.5 41.1642 145.765 41.8992 144.861 41.8992C143.958 41.8992 143.223 41.1642 143.223 40.2607V34.924ZM126.94 54.3322C126.502 54.3322 126.132 53.9622 126.132 53.5241C126.132 53.086 126.502 52.7159 126.94 52.7159H129.481L129.481 51.3013C129.482 43.8827 134.086 37.5961 140.393 35.5407V40.2607C140.393 42.7244 142.398 44.7286 144.861 44.7286C147.325 44.7286 149.329 42.7244 149.329 40.2607V35.5407C155.636 37.596 160.24 43.8827 160.241 51.3013L160.241 52.7159H162.783C163.221 52.7159 163.591 53.086 163.591 53.5241C163.591 53.9622 163.221 54.3322 162.783 54.3322H126.94ZM135.218 67.4987C132.887 64.6855 131.471 61.0647 131.15 57.1616H158.572C158.251 61.0647 156.835 64.6855 154.504 67.4987C153.583 68.6102 152.558 69.5411 151.46 70.2854C150.703 70.7166 147.886 72.2204 145.261 72.3621C145.128 72.3668 144.996 72.374 144.862 72.3741C141.766 72.3701 138.908 70.6938 138.786 70.6217L138.393 70.3756C137.245 69.6175 136.176 68.6545 135.218 67.4987ZM151.163 76.1334L144.861 83.5967L138.559 76.1334L138.649 73.7647C140.392 74.604 142.28 75.1006 144.257 75.1853C144.456 75.1958 144.657 75.2033 144.859 75.2035C144.863 75.2035 144.867 75.2035 144.871 75.2035C145.048 75.2035 145.226 75.1968 145.404 75.1871C147.402 75.1103 149.312 74.6128 151.074 73.7647L151.163 76.1334ZM136.821 78.4611L144.861 87.9821L152.901 78.4611C154.515 79.3524 156.979 80.4858 158.609 81.2141C155.468 85.7023 150.322 88.4233 144.768 88.4233C139.274 88.4233 134.119 85.7192 130.972 81.2773C132.597 80.5527 135.159 79.379 136.821 78.4611ZM120.927 85.1176C123.002 84.3079 125.442 83.3959 128.288 82.3642C131.919 87.8735 138.131 91.2527 144.768 91.2527C151.468 91.2527 157.657 87.8624 161.283 82.3094C164.29 83.3982 166.845 84.3539 169 85.1978V114.024H161.838C162.17 113.493 162.736 112.825 163.454 112.121C164.37 111.214 164.58 109.791 163.969 108.667C162.91 106.689 161.547 104.888 159.918 103.313C158.996 102.422 157.572 102.243 156.453 102.878C155.571 103.382 154.693 103.768 154.045 103.936C153.847 103.988 153.699 104.01 153.596 104.019C153.552 103.923 153.498 103.782 153.445 103.58C153.283 102.959 153.197 102.002 153.21 100.964C153.233 99.6636 152.379 98.4948 151.136 98.1227C149.228 97.5467 147.201 97.2432 145.11 97.22C145.075 97.2152 145.039 97.211 145.004 97.2075L144.933 97.2002H144.861C144.728 97.2002 144.603 97.2049 144.49 97.2142C144.466 97.2163 144.442 97.2187 144.418 97.2215C143.162 97.2769 142.065 98.1492 141.735 99.366C141.468 100.341 141.119 101.232 140.776 101.811C140.673 101.985 140.584 102.109 140.514 102.194C140.414 102.153 140.278 102.088 140.107 101.987C139.53 101.648 138.79 101.035 138.071 100.3C137.164 99.384 135.741 99.1742 134.616 99.7857C132.608 100.863 130.801 102.225 129.244 103.836C128.353 104.758 128.174 106.182 128.809 107.301C129.348 108.243 129.73 109.092 129.886 109.691C129.937 109.887 129.959 110.034 129.968 110.137C129.871 110.182 129.729 110.237 129.527 110.29C128.878 110.461 127.928 110.554 126.92 110.544C125.627 110.53 124.501 111.352 124.115 112.584L124.11 112.598C123.966 113.073 123.841 113.552 123.729 114.033H120.927V85.1176ZM110.722 91.0434C110.726 91.0022 110.731 90.9614 110.735 90.9209C110.816 90.1976 110.857 89.8344 112.704 88.7719C113.901 88.0842 115.657 87.2611 118.098 86.2517V114.033H110.688C110.622 110.985 110.502 102.958 110.722 91.0434Z" fill="white"/>
<path d="M144.861 105.163C137.291 105.163 131.131 111.322 131.131 118.893C131.131 126.463 137.291 132.622 144.861 132.622C152.431 132.622 158.59 126.463 158.59 118.893C158.59 111.322 152.431 105.163 144.861 105.163ZM144.861 129.793C138.851 129.793 133.961 124.903 133.961 118.893C133.961 112.882 138.851 107.993 144.861 107.993C150.871 107.993 155.761 112.882 155.761 118.893C155.761 124.903 150.871 129.793 144.861 129.793Z" fill="white"/>
<path d="M144.861 111.14C140.586 111.14 137.108 114.618 137.108 118.893C137.108 123.167 140.586 126.645 144.861 126.645C149.136 126.645 152.613 123.167 152.613 118.893C152.613 114.618 149.136 111.14 144.861 111.14ZM144.861 123.816C142.146 123.816 139.938 121.607 139.938 118.893C139.938 116.178 142.146 113.97 144.861 113.97C147.575 113.97 149.784 116.178 149.784 118.893C149.784 121.607 147.575 123.816 144.861 123.816Z" fill="white"/>
<rect x="6" y="181" width="258" height="144" rx="28" fill="#EFEDED"/>
<path d="M59.6411 220.416C59.6411 219.328 59.8865 218.352 60.3771 217.488C60.8678 216.613 61.5345 215.931 62.3771 215.44C63.2305 214.949 64.1745 214.704 65.2091 214.704C66.4251 214.704 67.4865 214.997 68.3931 215.584C69.2998 216.171 69.9611 217.003 70.3771 218.08H68.6331C68.3238 217.408 67.8758 216.891 67.2891 216.528C66.7131 216.165 66.0198 215.984 65.2091 215.984C64.4305 215.984 63.7318 216.165 63.1131 216.528C62.4945 216.891 62.0091 217.408 61.6571 218.08C61.3051 218.741 61.1291 219.52 61.1291 220.416C61.1291 221.301 61.3051 222.08 61.6571 222.752C62.0091 223.413 62.4945 223.925 63.1131 224.288C63.7318 224.651 64.4305 224.832 65.2091 224.832C66.0198 224.832 66.7131 224.656 67.2891 224.304C67.8758 223.941 68.3238 223.424 68.6331 222.752H70.3771C69.9611 223.819 69.2998 224.645 68.3931 225.232C67.4865 225.808 66.4251 226.096 65.2091 226.096C64.1745 226.096 63.2305 225.856 62.3771 225.376C61.5345 224.885 60.8678 224.208 60.3771 223.344C59.8865 222.48 59.6411 221.504 59.6411 220.416ZM80.3205 217.232V226H78.8645V224.704C78.5872 225.152 78.1978 225.504 77.6965 225.76C77.2058 226.005 76.6618 226.128 76.0645 226.128C75.3818 226.128 74.7685 225.989 74.2245 225.712C73.6805 225.424 73.2485 224.997 72.9285 224.432C72.6192 223.867 72.4645 223.179 72.4645 222.368V217.232H73.9045V222.176C73.9045 223.04 74.1232 223.707 74.5605 224.176C74.9978 224.635 75.5952 224.864 76.3525 224.864C77.1312 224.864 77.7445 224.624 78.1925 224.144C78.6405 223.664 78.8645 222.965 78.8645 222.048V217.232H80.3205ZM84.2349 218.656C84.4909 218.155 84.8535 217.765 85.3229 217.488C85.8029 217.211 86.3842 217.072 87.0669 217.072V218.576H86.6829C85.0509 218.576 84.2349 219.461 84.2349 221.232V226H82.7789V217.232H84.2349V218.656ZM90.2036 218.656C90.4596 218.155 90.8223 217.765 91.2916 217.488C91.7716 217.211 92.353 217.072 93.0356 217.072V218.576H92.6516C91.0196 218.576 90.2036 219.461 90.2036 221.232V226H88.7476V217.232H90.2036V218.656ZM102.716 221.28C102.716 221.557 102.7 221.851 102.668 222.16H95.6604C95.7137 223.024 96.007 223.701 96.5404 224.192C97.0844 224.672 97.7404 224.912 98.5084 224.912C99.1377 224.912 99.6604 224.768 100.076 224.48C100.503 224.181 100.802 223.787 100.972 223.296H102.54C102.306 224.139 101.836 224.827 101.132 225.36C100.428 225.883 99.5537 226.144 98.5084 226.144C97.6764 226.144 96.9297 225.957 96.2684 225.584C95.6177 225.211 95.1057 224.683 94.7324 224C94.359 223.307 94.1724 222.507 94.1724 221.6C94.1724 220.693 94.3537 219.899 94.7164 219.216C95.079 218.533 95.5857 218.011 96.2364 217.648C96.8977 217.275 97.655 217.088 98.5084 217.088C99.3404 217.088 100.076 217.269 100.716 217.632C101.356 217.995 101.847 218.496 102.188 219.136C102.54 219.765 102.716 220.48 102.716 221.28ZM101.212 220.976C101.212 220.421 101.09 219.947 100.844 219.552C100.599 219.147 100.263 218.843 99.8364 218.64C99.4204 218.427 98.9564 218.32 98.4444 218.32C97.7084 218.32 97.079 218.555 96.5564 219.024C96.0444 219.493 95.751 220.144 95.6764 220.976H101.212ZM108.91 217.072C109.977 217.072 110.841 217.397 111.502 218.048C112.164 218.688 112.494 219.616 112.494 220.832V226H111.054V221.04C111.054 220.165 110.836 219.499 110.398 219.04C109.961 218.571 109.364 218.336 108.606 218.336C107.838 218.336 107.225 218.576 106.766 219.056C106.318 219.536 106.094 220.235 106.094 221.152V226H104.638V217.232H106.094V218.48C106.382 218.032 106.772 217.685 107.262 217.44C107.764 217.195 108.313 217.072 108.91 217.072ZM116.649 218.432V223.6C116.649 224.027 116.739 224.331 116.921 224.512C117.102 224.683 117.417 224.768 117.865 224.768H118.937V226H117.625C116.814 226 116.206 225.813 115.801 225.44C115.395 225.067 115.193 224.453 115.193 223.6V218.432H114.057V217.232H115.193V215.024H116.649V217.232H118.937V218.432H116.649ZM122.157 214.16V226H120.701V214.16H122.157ZM132.19 217.232L126.91 230.128H125.406L127.134 225.904L123.598 217.232H125.214L127.966 224.336L130.686 217.232H132.19ZM145.472 217.232L140.192 230.128H138.688L140.416 225.904L136.88 217.232H138.496L141.248 224.336L143.968 217.232H145.472ZM150.759 226.144C149.938 226.144 149.191 225.957 148.519 225.584C147.858 225.211 147.335 224.683 146.951 224C146.578 223.307 146.391 222.507 146.391 221.6C146.391 220.704 146.583 219.915 146.967 219.232C147.362 218.539 147.895 218.011 148.567 217.648C149.239 217.275 149.991 217.088 150.823 217.088C151.655 217.088 152.407 217.275 153.079 217.648C153.751 218.011 154.279 218.533 154.663 219.216C155.058 219.899 155.255 220.693 155.255 221.6C155.255 222.507 155.052 223.307 154.647 224C154.252 224.683 153.714 225.211 153.031 225.584C152.348 225.957 151.591 226.144 150.759 226.144ZM150.759 224.864C151.282 224.864 151.772 224.741 152.231 224.496C152.69 224.251 153.058 223.883 153.335 223.392C153.623 222.901 153.767 222.304 153.767 221.6C153.767 220.896 153.628 220.299 153.351 219.808C153.074 219.317 152.711 218.955 152.263 218.72C151.815 218.475 151.33 218.352 150.807 218.352C150.274 218.352 149.783 218.475 149.335 218.72C148.898 218.955 148.546 219.317 148.279 219.808C148.012 220.299 147.879 220.896 147.879 221.6C147.879 222.315 148.007 222.917 148.263 223.408C148.53 223.899 148.882 224.267 149.319 224.512C149.756 224.747 150.236 224.864 150.759 224.864ZM164.946 217.232V226H163.49V224.704C163.212 225.152 162.823 225.504 162.322 225.76C161.831 226.005 161.287 226.128 160.69 226.128C160.007 226.128 159.394 225.989 158.85 225.712C158.306 225.424 157.874 224.997 157.554 224.432C157.244 223.867 157.09 223.179 157.09 222.368V217.232H158.53V222.176C158.53 223.04 158.748 223.707 159.186 224.176C159.623 224.635 160.22 224.864 160.978 224.864C161.756 224.864 162.37 224.624 162.818 224.144C163.266 223.664 163.49 222.965 163.49 222.048V217.232H164.946ZM171.126 221.584C171.126 220.688 171.307 219.904 171.67 219.232C172.032 218.549 172.528 218.021 173.158 217.648C173.798 217.275 174.512 217.088 175.302 217.088C175.984 217.088 176.619 217.248 177.206 217.568C177.792 217.877 178.24 218.288 178.55 218.8V214.16H180.022V226H178.55V224.352C178.262 224.875 177.835 225.307 177.27 225.648C176.704 225.979 176.043 226.144 175.286 226.144C174.507 226.144 173.798 225.952 173.158 225.568C172.528 225.184 172.032 224.645 171.67 223.952C171.307 223.259 171.126 222.469 171.126 221.584ZM178.55 221.6C178.55 220.939 178.416 220.363 178.15 219.872C177.883 219.381 177.52 219.008 177.062 218.752C176.614 218.485 176.118 218.352 175.574 218.352C175.03 218.352 174.534 218.48 174.086 218.736C173.638 218.992 173.28 219.365 173.014 219.856C172.747 220.347 172.614 220.923 172.614 221.584C172.614 222.256 172.747 222.843 173.014 223.344C173.28 223.835 173.638 224.213 174.086 224.48C174.534 224.736 175.03 224.864 175.574 224.864C176.118 224.864 176.614 224.736 177.062 224.48C177.52 224.213 177.883 223.835 178.15 223.344C178.416 222.843 178.55 222.261 178.55 221.6ZM186.306 226.144C185.485 226.144 184.738 225.957 184.066 225.584C183.405 225.211 182.882 224.683 182.498 224C182.125 223.307 181.938 222.507 181.938 221.6C181.938 220.704 182.13 219.915 182.514 219.232C182.909 218.539 183.442 218.011 184.114 217.648C184.786 217.275 185.538 217.088 186.37 217.088C187.202 217.088 187.954 217.275 188.626 217.648C189.298 218.011 189.826 218.533 190.21 219.216C190.605 219.899 190.802 220.693 190.802 221.6C190.802 222.507 190.599 223.307 190.194 224C189.799 224.683 189.261 225.211 188.578 225.584C187.895 225.957 187.138 226.144 186.306 226.144ZM186.306 224.864C186.829 224.864 187.319 224.741 187.778 224.496C188.237 224.251 188.605 223.883 188.882 223.392C189.17 222.901 189.314 222.304 189.314 221.6C189.314 220.896 189.175 220.299 188.898 219.808C188.621 219.317 188.258 218.955 187.81 218.72C187.362 218.475 186.877 218.352 186.354 218.352C185.821 218.352 185.33 218.475 184.882 218.72C184.445 218.955 184.093 219.317 183.826 219.808C183.559 220.299 183.426 220.896 183.426 221.6C183.426 222.315 183.554 222.917 183.81 223.408C184.077 223.899 184.429 224.267 184.866 224.512C185.303 224.747 185.783 224.864 186.306 224.864ZM196.988 217.072C198.055 217.072 198.919 217.397 199.58 218.048C200.242 218.688 200.572 219.616 200.572 220.832V226H199.132V221.04C199.132 220.165 198.914 219.499 198.476 219.04C198.039 218.571 197.442 218.336 196.684 218.336C195.916 218.336 195.303 218.576 194.844 219.056C194.396 219.536 194.172 220.235 194.172 221.152V226H192.716V217.232H194.172V218.48C194.46 218.032 194.85 217.685 195.34 217.44C195.842 217.195 196.391 217.072 196.988 217.072ZM203.175 214.848H204.791L203.255 218.48H202.231L203.175 214.848ZM208.227 218.432V223.6C208.227 224.027 208.317 224.331 208.499 224.512C208.68 224.683 208.995 224.768 209.443 224.768H210.515V226H209.203C208.392 226 207.784 225.813 207.379 225.44C206.973 225.067 206.771 224.453 206.771 223.6V218.432H205.635V217.232H206.771V215.024H208.227V217.232H210.515V218.432H208.227ZM53.2246 241.072C53.886 241.072 54.4833 241.216 55.0166 241.504C55.55 241.781 55.966 242.203 56.2646 242.768C56.574 243.333 56.7286 244.021 56.7286 244.832V250H55.2886V245.04C55.2886 244.165 55.07 243.499 54.6326 243.04C54.1953 242.571 53.598 242.336 52.8406 242.336C52.0726 242.336 51.4593 242.576 51.0006 243.056C50.5526 243.536 50.3286 244.235 50.3286 245.152V250H48.8726V238.16H50.3286V242.48C50.6166 242.032 51.0113 241.685 51.5126 241.44C52.0246 241.195 52.5953 241.072 53.2246 241.072ZM58.563 245.584C58.563 244.688 58.7443 243.904 59.107 243.232C59.4697 242.549 59.9657 242.021 60.595 241.648C61.235 241.275 61.9443 241.088 62.723 241.088C63.491 241.088 64.1577 241.253 64.723 241.584C65.2883 241.915 65.7097 242.331 65.987 242.832V241.232H67.459V250H65.987V248.368C65.699 248.88 65.267 249.307 64.691 249.648C64.1257 249.979 63.4643 250.144 62.707 250.144C61.9283 250.144 61.2243 249.952 60.595 249.568C59.9657 249.184 59.4697 248.645 59.107 247.952C58.7443 247.259 58.563 246.469 58.563 245.584ZM65.987 245.6C65.987 244.939 65.8537 244.363 65.587 243.872C65.3203 243.381 64.9577 243.008 64.499 242.752C64.051 242.485 63.555 242.352 63.011 242.352C62.467 242.352 61.971 242.48 61.523 242.736C61.075 242.992 60.7177 243.365 60.451 243.856C60.1843 244.347 60.051 244.923 60.051 245.584C60.051 246.256 60.1843 246.843 60.451 247.344C60.7177 247.835 61.075 248.213 61.523 248.48C61.971 248.736 62.467 248.864 63.011 248.864C63.555 248.864 64.051 248.736 64.499 248.48C64.9577 248.213 65.3203 247.835 65.587 247.344C65.8537 246.843 65.987 246.261 65.987 245.6ZM73.1835 248.656L75.9035 241.232H77.4555L74.0155 250H72.3195L68.8795 241.232H70.4475L73.1835 248.656ZM86.8883 245.28C86.8883 245.557 86.8723 245.851 86.8403 246.16H79.8323C79.8856 247.024 80.1789 247.701 80.7123 248.192C81.2563 248.672 81.9123 248.912 82.6803 248.912C83.3096 248.912 83.8323 248.768 84.2483 248.48C84.6749 248.181 84.9736 247.787 85.1443 247.296H86.7123C86.4776 248.139 86.0083 248.827 85.3043 249.36C84.6003 249.883 83.7256 250.144 82.6803 250.144C81.8483 250.144 81.1016 249.957 80.4403 249.584C79.7896 249.211 79.2776 248.683 78.9043 248C78.5309 247.307 78.3443 246.507 78.3443 245.6C78.3443 244.693 78.5256 243.899 78.8883 243.216C79.2509 242.533 79.7576 242.011 80.4083 241.648C81.0696 241.275 81.8269 241.088 82.6803 241.088C83.5123 241.088 84.2483 241.269 84.8883 241.632C85.5283 241.995 86.0189 242.496 86.3603 243.136C86.7123 243.765 86.8883 244.48 86.8883 245.28ZM85.3843 244.976C85.3843 244.421 85.2616 243.947 85.0163 243.552C84.7709 243.147 84.4349 242.843 84.0083 242.64C83.5923 242.427 83.1283 242.32 82.6163 242.32C81.8803 242.32 81.2509 242.555 80.7283 243.024C80.2163 243.493 79.9229 244.144 79.8483 244.976H85.3843ZM104.756 241.232L102.02 250H100.516L98.4038 243.04L96.2918 250H94.7878L92.0358 241.232H93.5238L95.5398 248.592L97.7158 241.232H99.2038L101.332 248.608L103.316 241.232H104.756ZM110.025 250.144C109.203 250.144 108.457 249.957 107.785 249.584C107.123 249.211 106.601 248.683 106.217 248C105.843 247.307 105.657 246.507 105.657 245.6C105.657 244.704 105.849 243.915 106.233 243.232C106.627 242.539 107.161 242.011 107.833 241.648C108.505 241.275 109.257 241.088 110.089 241.088C110.921 241.088 111.673 241.275 112.345 241.648C113.017 242.011 113.545 242.533 113.929 243.216C114.323 243.899 114.521 244.693 114.521 245.6C114.521 246.507 114.318 247.307 113.913 248C113.518 248.683 112.979 249.211 112.297 249.584C111.614 249.957 110.857 250.144 110.025 250.144ZM110.025 248.864C110.547 248.864 111.038 248.741 111.497 248.496C111.955 248.251 112.323 247.883 112.601 247.392C112.889 246.901 113.033 246.304 113.033 245.6C113.033 244.896 112.894 244.299 112.617 243.808C112.339 243.317 111.977 242.955 111.529 242.72C111.081 242.475 110.595 242.352 110.073 242.352C109.539 242.352 109.049 242.475 108.601 242.72C108.163 242.955 107.811 243.317 107.545 243.808C107.278 244.299 107.145 244.896 107.145 245.6C107.145 246.315 107.273 246.917 107.529 247.408C107.795 247.899 108.147 248.267 108.585 248.512C109.022 248.747 109.502 248.864 110.025 248.864ZM117.891 242.656C118.147 242.155 118.51 241.765 118.979 241.488C119.459 241.211 120.04 241.072 120.723 241.072V242.576H120.339C118.707 242.576 117.891 243.461 117.891 245.232V250H116.435V241.232H117.891V242.656ZM127.3 250L123.86 246.128V250H122.404V238.16H123.86V245.12L127.236 241.232H129.268L125.14 245.6L129.284 250H127.3ZM134.36 245.6C134.36 244.693 134.541 243.904 134.904 243.232C135.267 242.549 135.768 242.021 136.408 241.648C137.059 241.275 137.8 241.088 138.632 241.088C139.709 241.088 140.595 241.349 141.288 241.872C141.992 242.395 142.456 243.12 142.68 244.048H141.112C140.963 243.515 140.669 243.093 140.232 242.784C139.805 242.475 139.272 242.32 138.632 242.32C137.8 242.32 137.128 242.608 136.616 243.184C136.104 243.749 135.848 244.555 135.848 245.6C135.848 246.656 136.104 247.472 136.616 248.048C137.128 248.624 137.8 248.912 138.632 248.912C139.272 248.912 139.805 248.763 140.232 248.464C140.659 248.165 140.952 247.739 141.112 247.184H142.68C142.445 248.08 141.976 248.8 141.272 249.344C140.568 249.877 139.688 250.144 138.632 250.144C137.8 250.144 137.059 249.957 136.408 249.584C135.768 249.211 135.267 248.683 134.904 248C134.541 247.317 134.36 246.517 134.36 245.6ZM144.079 245.584C144.079 244.688 144.26 243.904 144.623 243.232C144.985 242.549 145.481 242.021 146.111 241.648C146.751 241.275 147.46 241.088 148.239 241.088C149.007 241.088 149.673 241.253 150.239 241.584C150.804 241.915 151.225 242.331 151.503 242.832V241.232H152.975V250H151.503V248.368C151.215 248.88 150.783 249.307 150.207 249.648C149.641 249.979 148.98 250.144 148.223 250.144C147.444 250.144 146.74 249.952 146.111 249.568C145.481 249.184 144.985 248.645 144.623 247.952C144.26 247.259 144.079 246.469 144.079 245.584ZM151.503 245.6C151.503 244.939 151.369 244.363 151.103 243.872C150.836 243.381 150.473 243.008 150.015 242.752C149.567 242.485 149.071 242.352 148.527 242.352C147.983 242.352 147.487 242.48 147.039 242.736C146.591 242.992 146.233 243.365 145.967 243.856C145.7 244.347 145.567 244.923 145.567 245.584C145.567 246.256 145.7 246.843 145.967 247.344C146.233 247.835 146.591 248.213 147.039 248.48C147.487 248.736 147.983 248.864 148.527 248.864C149.071 248.864 149.567 248.736 150.015 248.48C150.473 248.213 150.836 247.835 151.103 247.344C151.369 246.843 151.503 246.261 151.503 245.6ZM157.211 242.432V247.6C157.211 248.027 157.302 248.331 157.483 248.512C157.664 248.683 157.979 248.768 158.427 248.768H159.499V250H158.187C157.376 250 156.768 249.813 156.363 249.44C155.958 249.067 155.755 248.453 155.755 247.6V242.432H154.619V241.232H155.755V239.024H157.211V241.232H159.499V242.432H157.211ZM169.263 245.28C169.263 245.557 169.247 245.851 169.215 246.16H162.207C162.261 247.024 162.554 247.701 163.087 248.192C163.631 248.672 164.287 248.912 165.055 248.912C165.685 248.912 166.207 248.768 166.623 248.48C167.05 248.181 167.349 247.787 167.519 247.296H169.087C168.853 248.139 168.383 248.827 167.679 249.36C166.975 249.883 166.101 250.144 165.055 250.144C164.223 250.144 163.477 249.957 162.815 249.584C162.165 249.211 161.653 248.683 161.279 248C160.906 247.307 160.719 246.507 160.719 245.6C160.719 244.693 160.901 243.899 161.263 243.216C161.626 242.533 162.133 242.011 162.783 241.648C163.445 241.275 164.202 241.088 165.055 241.088C165.887 241.088 166.623 241.269 167.263 241.632C167.903 241.995 168.394 242.496 168.735 243.136C169.087 243.765 169.263 244.48 169.263 245.28ZM167.759 244.976C167.759 244.421 167.637 243.947 167.391 243.552C167.146 243.147 166.81 242.843 166.383 242.64C165.967 242.427 165.503 242.32 164.991 242.32C164.255 242.32 163.626 242.555 163.103 243.024C162.591 243.493 162.298 244.144 162.223 244.976H167.759ZM174.801 241.088C175.558 241.088 176.22 241.253 176.785 241.584C177.361 241.915 177.788 242.331 178.065 242.832V241.232H179.537V250.192C179.537 250.992 179.366 251.701 179.025 252.32C178.684 252.949 178.193 253.44 177.553 253.792C176.924 254.144 176.188 254.32 175.345 254.32C174.193 254.32 173.233 254.048 172.465 253.504C171.697 252.96 171.244 252.219 171.105 251.28H172.545C172.705 251.813 173.036 252.24 173.537 252.56C174.038 252.891 174.641 253.056 175.345 253.056C176.145 253.056 176.796 252.805 177.297 252.304C177.809 251.803 178.065 251.099 178.065 250.192V248.352C177.777 248.864 177.35 249.291 176.785 249.632C176.22 249.973 175.558 250.144 174.801 250.144C174.022 250.144 173.313 249.952 172.673 249.568C172.044 249.184 171.548 248.645 171.185 247.952C170.822 247.259 170.641 246.469 170.641 245.584C170.641 244.688 170.822 243.904 171.185 243.232C171.548 242.549 172.044 242.021 172.673 241.648C173.313 241.275 174.022 241.088 174.801 241.088ZM178.065 245.6C178.065 244.939 177.932 244.363 177.665 243.872C177.398 243.381 177.036 243.008 176.577 242.752C176.129 242.485 175.633 242.352 175.089 242.352C174.545 242.352 174.049 242.48 173.601 242.736C173.153 242.992 172.796 243.365 172.529 243.856C172.262 244.347 172.129 244.923 172.129 245.584C172.129 246.256 172.262 246.843 172.529 247.344C172.796 247.835 173.153 248.213 173.601 248.48C174.049 248.736 174.545 248.864 175.089 248.864C175.633 248.864 176.129 248.736 176.577 248.48C177.036 248.213 177.398 247.835 177.665 247.344C177.932 246.843 178.065 246.261 178.065 245.6ZM185.822 250.144C185 250.144 184.254 249.957 183.582 249.584C182.92 249.211 182.398 248.683 182.014 248C181.64 247.307 181.454 246.507 181.454 245.6C181.454 244.704 181.646 243.915 182.03 243.232C182.424 242.539 182.958 242.011 183.63 241.648C184.302 241.275 185.054 241.088 185.886 241.088C186.718 241.088 187.47 241.275 188.142 241.648C188.814 242.011 189.342 242.533 189.726 243.216C190.12 243.899 190.318 244.693 190.318 245.6C190.318 246.507 190.115 247.307 189.71 248C189.315 248.683 188.776 249.211 188.094 249.584C187.411 249.957 186.654 250.144 185.822 250.144ZM185.822 248.864C186.344 248.864 186.835 248.741 187.294 248.496C187.752 248.251 188.12 247.883 188.398 247.392C188.686 246.901 188.83 246.304 188.83 245.6C188.83 244.896 188.691 244.299 188.414 243.808C188.136 243.317 187.774 242.955 187.326 242.72C186.878 242.475 186.392 242.352 185.87 242.352C185.336 242.352 184.846 242.475 184.398 242.72C183.96 242.955 183.608 243.317 183.342 243.808C183.075 244.299 182.942 244.896 182.942 245.6C182.942 246.315 183.07 246.917 183.326 247.408C183.592 247.899 183.944 248.267 184.382 248.512C184.819 248.747 185.299 248.864 185.822 248.864ZM193.688 242.656C193.944 242.155 194.307 241.765 194.776 241.488C195.256 241.211 195.837 241.072 196.52 241.072V242.576H196.136C194.504 242.576 193.688 243.461 193.688 245.232V250H192.232V241.232H193.688V242.656ZM198.953 239.808C198.675 239.808 198.441 239.712 198.249 239.52C198.057 239.328 197.961 239.093 197.961 238.816C197.961 238.539 198.057 238.304 198.249 238.112C198.441 237.92 198.675 237.824 198.953 237.824C199.219 237.824 199.443 237.92 199.625 238.112C199.817 238.304 199.913 238.539 199.913 238.816C199.913 239.093 199.817 239.328 199.625 239.52C199.443 239.712 199.219 239.808 198.953 239.808ZM199.657 241.232V250H198.201V241.232H199.657ZM210.138 245.28C210.138 245.557 210.122 245.851 210.09 246.16H203.082C203.136 247.024 203.429 247.701 203.962 248.192C204.506 248.672 205.162 248.912 205.93 248.912C206.56 248.912 207.082 248.768 207.498 248.48C207.925 248.181 208.224 247.787 208.394 247.296H209.962C209.728 248.139 209.258 248.827 208.554 249.36C207.85 249.883 206.976 250.144 205.93 250.144C205.098 250.144 204.352 249.957 203.69 249.584C203.04 249.211 202.528 248.683 202.154 248C201.781 247.307 201.594 246.507 201.594 245.6C201.594 244.693 201.776 243.899 202.138 243.216C202.501 242.533 203.008 242.011 203.658 241.648C204.32 241.275 205.077 241.088 205.93 241.088C206.762 241.088 207.498 241.269 208.138 241.632C208.778 241.995 209.269 242.496 209.61 243.136C209.962 243.765 210.138 244.48 210.138 245.28ZM208.634 244.976C208.634 244.421 208.512 243.947 208.266 243.552C208.021 243.147 207.685 242.843 207.258 242.64C206.842 242.427 206.378 242.32 205.866 242.32C205.13 242.32 204.501 242.555 203.978 243.024C203.466 243.493 203.173 244.144 203.098 244.976H208.634ZM215.164 250.144C214.492 250.144 213.889 250.032 213.356 249.808C212.823 249.573 212.401 249.253 212.092 248.848C211.783 248.432 211.612 247.957 211.58 247.424H213.084C213.127 247.861 213.329 248.219 213.692 248.496C214.065 248.773 214.551 248.912 215.148 248.912C215.703 248.912 216.14 248.789 216.46 248.544C216.78 248.299 216.94 247.989 216.94 247.616C216.94 247.232 216.769 246.949 216.428 246.768C216.087 246.576 215.559 246.389 214.844 246.208C214.193 246.037 213.66 245.867 213.244 245.696C212.839 245.515 212.487 245.253 212.188 244.912C211.9 244.56 211.756 244.101 211.756 243.536C211.756 243.088 211.889 242.677 212.156 242.304C212.423 241.931 212.801 241.637 213.292 241.424C213.783 241.2 214.343 241.088 214.972 241.088C215.943 241.088 216.727 241.333 217.324 241.824C217.921 242.315 218.241 242.987 218.284 243.84H216.828C216.796 243.381 216.609 243.013 216.268 242.736C215.937 242.459 215.489 242.32 214.924 242.32C214.401 242.32 213.985 242.432 213.676 242.656C213.367 242.88 213.212 243.173 213.212 243.536C213.212 243.824 213.303 244.064 213.484 244.256C213.676 244.437 213.911 244.587 214.188 244.704C214.476 244.811 214.871 244.933 215.372 245.072C216.001 245.243 216.513 245.413 216.908 245.584C217.303 245.744 217.639 245.989 217.916 246.32C218.204 246.651 218.353 247.083 218.364 247.616C218.364 248.096 218.231 248.528 217.964 248.912C217.697 249.296 217.319 249.6 216.828 249.824C216.348 250.037 215.793 250.144 215.164 250.144ZM221.924 247.984L220.132 252.288H219.155L220.324 247.984H221.924ZM61.6724 267.848C61.9604 267.347 62.387 266.931 62.9524 266.6C63.5284 266.259 64.195 266.088 64.9524 266.088C65.731 266.088 66.435 266.275 67.0644 266.648C67.7044 267.021 68.2057 267.549 68.5684 268.232C68.931 268.904 69.1124 269.688 69.1124 270.584C69.1124 271.469 68.931 272.259 68.5684 272.952C68.2057 273.645 67.7044 274.184 67.0644 274.568C66.435 274.952 65.731 275.144 64.9524 275.144C64.2057 275.144 63.5444 274.979 62.9684 274.648C62.403 274.307 61.971 273.885 61.6724 273.384V279.16H60.2164V266.232H61.6724V267.848ZM67.6244 270.584C67.6244 269.923 67.491 269.347 67.2244 268.856C66.9577 268.365 66.595 267.992 66.1364 267.736C65.6884 267.48 65.1924 267.352 64.6484 267.352C64.115 267.352 63.619 267.485 63.1604 267.752C62.7124 268.008 62.3497 268.387 62.0724 268.888C61.8057 269.379 61.6724 269.949 61.6724 270.6C61.6724 271.261 61.8057 271.843 62.0724 272.344C62.3497 272.835 62.7124 273.213 63.1604 273.48C63.619 273.736 64.115 273.864 64.6484 273.864C65.1924 273.864 65.6884 273.736 66.1364 273.48C66.595 273.213 66.9577 272.835 67.2244 272.344C67.491 271.843 67.6244 271.256 67.6244 270.584ZM72.4849 263.16V275H71.0289V263.16H72.4849ZM82.9664 270.28C82.9664 270.557 82.9504 270.851 82.9184 271.16H75.9104C75.9637 272.024 76.257 272.701 76.7904 273.192C77.3344 273.672 77.9904 273.912 78.7584 273.912C79.3877 273.912 79.9104 273.768 80.3264 273.48C80.753 273.181 81.0517 272.787 81.2224 272.296H82.7904C82.5557 273.139 82.0864 273.827 81.3824 274.36C80.6784 274.883 79.8037 275.144 78.7584 275.144C77.9264 275.144 77.1797 274.957 76.5184 274.584C75.8677 274.211 75.3557 273.683 74.9824 273C74.609 272.307 74.4224 271.507 74.4224 270.6C74.4224 269.693 74.6037 268.899 74.9664 268.216C75.329 267.533 75.8357 267.011 76.4864 266.648C77.1477 266.275 77.905 266.088 78.7584 266.088C79.5904 266.088 80.3264 266.269 80.9664 266.632C81.6064 266.995 82.097 267.496 82.4384 268.136C82.7904 268.765 82.9664 269.48 82.9664 270.28ZM81.4624 269.976C81.4624 269.421 81.3397 268.947 81.0944 268.552C80.849 268.147 80.513 267.843 80.0864 267.64C79.6704 267.427 79.2064 267.32 78.6944 267.32C77.9584 267.32 77.329 267.555 76.8064 268.024C76.2944 268.493 76.001 269.144 75.9264 269.976H81.4624ZM84.3443 270.584C84.3443 269.688 84.5256 268.904 84.8883 268.232C85.2509 267.549 85.7469 267.021 86.3763 266.648C87.0163 266.275 87.7256 266.088 88.5043 266.088C89.2723 266.088 89.9389 266.253 90.5043 266.584C91.0696 266.915 91.4909 267.331 91.7683 267.832V266.232H93.2403V275H91.7683V273.368C91.4803 273.88 91.0483 274.307 90.4723 274.648C89.9069 274.979 89.2456 275.144 88.4883 275.144C87.7096 275.144 87.0056 274.952 86.3763 274.568C85.7469 274.184 85.2509 273.645 84.8883 272.952C84.5256 272.259 84.3443 271.469 84.3443 270.584ZM91.7683 270.6C91.7683 269.939 91.6349 269.363 91.3683 268.872C91.1016 268.381 90.7389 268.008 90.2803 267.752C89.8323 267.485 89.3363 267.352 88.7923 267.352C88.2483 267.352 87.7523 267.48 87.3043 267.736C86.8563 267.992 86.4989 268.365 86.2323 268.856C85.9656 269.347 85.8323 269.923 85.8323 270.584C85.8323 271.256 85.9656 271.843 86.2323 272.344C86.4989 272.835 86.8563 273.213 87.3043 273.48C87.7523 273.736 88.2483 273.864 88.7923 273.864C89.3363 273.864 89.8323 273.736 90.2803 273.48C90.7389 273.213 91.1016 272.835 91.3683 272.344C91.6349 271.843 91.7683 271.261 91.7683 270.6ZM98.8048 275.144C98.1328 275.144 97.5301 275.032 96.9968 274.808C96.4634 274.573 96.0421 274.253 95.7328 273.848C95.4234 273.432 95.2528 272.957 95.2208 272.424H96.7248C96.7674 272.861 96.9701 273.219 97.3328 273.496C97.7061 273.773 98.1914 273.912 98.7888 273.912C99.3434 273.912 99.7808 273.789 100.101 273.544C100.421 273.299 100.581 272.989 100.581 272.616C100.581 272.232 100.41 271.949 100.069 271.768C99.7274 271.576 99.1994 271.389 98.4848 271.208C97.8341 271.037 97.3008 270.867 96.8848 270.696C96.4794 270.515 96.1274 270.253 95.8288 269.912C95.5408 269.56 95.3968 269.101 95.3968 268.536C95.3968 268.088 95.5301 267.677 95.7968 267.304C96.0634 266.931 96.4421 266.637 96.9328 266.424C97.4234 266.2 97.9834 266.088 98.6128 266.088C99.5834 266.088 100.367 266.333 100.965 266.824C101.562 267.315 101.882 267.987 101.925 268.84H100.469C100.437 268.381 100.25 268.013 99.9088 267.736C99.5781 267.459 99.1301 267.32 98.5648 267.32C98.0421 267.32 97.6261 267.432 97.3168 267.656C97.0074 267.88 96.8528 268.173 96.8528 268.536C96.8528 268.824 96.9434 269.064 97.1248 269.256C97.3168 269.437 97.5514 269.587 97.8288 269.704C98.1168 269.811 98.5114 269.933 99.0128 270.072C99.6421 270.243 100.154 270.413 100.549 270.584C100.943 270.744 101.279 270.989 101.557 271.32C101.845 271.651 101.994 272.083 102.005 272.616C102.005 273.096 101.871 273.528 101.605 273.912C101.338 274.296 100.959 274.6 100.469 274.824C99.9888 275.037 99.4341 275.144 98.8048 275.144ZM112.06 270.28C112.06 270.557 112.044 270.851 112.012 271.16H105.004C105.057 272.024 105.351 272.701 105.884 273.192C106.428 273.672 107.084 273.912 107.852 273.912C108.481 273.912 109.004 273.768 109.42 273.48C109.847 273.181 110.145 272.787 110.316 272.296H111.884C111.649 273.139 111.18 273.827 110.476 274.36C109.772 274.883 108.897 275.144 107.852 275.144C107.02 275.144 106.273 274.957 105.612 274.584C104.961 274.211 104.449 273.683 104.076 273C103.703 272.307 103.516 271.507 103.516 270.6C103.516 269.693 103.697 268.899 104.06 268.216C104.423 267.533 104.929 267.011 105.58 266.648C106.241 266.275 106.999 266.088 107.852 266.088C108.684 266.088 109.42 266.269 110.06 266.632C110.7 266.995 111.191 267.496 111.532 268.136C111.884 268.765 112.06 269.48 112.06 270.28ZM110.556 269.976C110.556 269.421 110.433 268.947 110.188 268.552C109.943 268.147 109.607 267.843 109.18 267.64C108.764 267.427 108.3 267.32 107.788 267.32C107.052 267.32 106.423 267.555 105.9 268.024C105.388 268.493 105.095 269.144 105.02 269.976H110.556ZM117.704 270.6C117.704 269.693 117.885 268.904 118.248 268.232C118.61 267.549 119.112 267.021 119.752 266.648C120.402 266.275 121.144 266.088 121.976 266.088C123.053 266.088 123.938 266.349 124.632 266.872C125.336 267.395 125.8 268.12 126.024 269.048H124.456C124.306 268.515 124.013 268.093 123.576 267.784C123.149 267.475 122.616 267.32 121.976 267.32C121.144 267.32 120.472 267.608 119.96 268.184C119.448 268.749 119.192 269.555 119.192 270.6C119.192 271.656 119.448 272.472 119.96 273.048C120.472 273.624 121.144 273.912 121.976 273.912C122.616 273.912 123.149 273.763 123.576 273.464C124.002 273.165 124.296 272.739 124.456 272.184H126.024C125.789 273.08 125.32 273.8 124.616 274.344C123.912 274.877 123.032 275.144 121.976 275.144C121.144 275.144 120.402 274.957 119.752 274.584C119.112 274.211 118.61 273.683 118.248 273C117.885 272.317 117.704 271.517 117.704 270.6ZM129.422 267.656C129.678 267.155 130.041 266.765 130.51 266.488C130.99 266.211 131.572 266.072 132.254 266.072V267.576H131.87C130.238 267.576 129.422 268.461 129.422 270.232V275H127.966V266.232H129.422V267.656ZM141.935 270.28C141.935 270.557 141.919 270.851 141.887 271.16H134.879C134.932 272.024 135.226 272.701 135.759 273.192C136.303 273.672 136.959 273.912 137.727 273.912C138.356 273.912 138.879 273.768 139.295 273.48C139.722 273.181 140.02 272.787 140.191 272.296H141.759C141.524 273.139 141.055 273.827 140.351 274.36C139.647 274.883 138.772 275.144 137.727 275.144C136.895 275.144 136.148 274.957 135.487 274.584C134.836 274.211 134.324 273.683 133.951 273C133.578 272.307 133.391 271.507 133.391 270.6C133.391 269.693 133.572 268.899 133.935 268.216C134.298 267.533 134.804 267.011 135.455 266.648C136.116 266.275 136.874 266.088 137.727 266.088C138.559 266.088 139.295 266.269 139.935 266.632C140.575 266.995 141.066 267.496 141.407 268.136C141.759 268.765 141.935 269.48 141.935 270.28ZM140.431 269.976C140.431 269.421 140.308 268.947 140.063 268.552C139.818 268.147 139.482 267.843 139.055 267.64C138.639 267.427 138.175 267.32 137.663 267.32C136.927 267.32 136.298 267.555 135.775 268.024C135.263 268.493 134.97 269.144 134.895 269.976H140.431ZM143.313 270.584C143.313 269.688 143.494 268.904 143.857 268.232C144.22 267.549 144.716 267.021 145.345 266.648C145.985 266.275 146.694 266.088 147.473 266.088C148.241 266.088 148.908 266.253 149.473 266.584C150.038 266.915 150.46 267.331 150.737 267.832V266.232H152.209V275H150.737V273.368C150.449 273.88 150.017 274.307 149.441 274.648C148.876 274.979 148.214 275.144 147.457 275.144C146.678 275.144 145.974 274.952 145.345 274.568C144.716 274.184 144.22 273.645 143.857 272.952C143.494 272.259 143.313 271.469 143.313 270.584ZM150.737 270.6C150.737 269.939 150.604 269.363 150.337 268.872C150.07 268.381 149.708 268.008 149.249 267.752C148.801 267.485 148.305 267.352 147.761 267.352C147.217 267.352 146.721 267.48 146.273 267.736C145.825 267.992 145.468 268.365 145.201 268.856C144.934 269.347 144.801 269.923 144.801 270.584C144.801 271.256 144.934 271.843 145.201 272.344C145.468 272.835 145.825 273.213 146.273 273.48C146.721 273.736 147.217 273.864 147.761 273.864C148.305 273.864 148.801 273.736 149.249 273.48C149.708 273.213 150.07 272.835 150.337 272.344C150.604 271.843 150.737 271.261 150.737 270.6ZM156.446 267.432V272.6C156.446 273.027 156.536 273.331 156.718 273.512C156.899 273.683 157.214 273.768 157.661 273.768H158.734V275H157.422C156.611 275 156.003 274.813 155.598 274.44C155.192 274.067 154.99 273.453 154.99 272.6V267.432H153.854V266.232H154.99V264.024H156.446V266.232H158.734V267.432H156.446ZM168.498 270.28C168.498 270.557 168.482 270.851 168.45 271.16H161.442C161.495 272.024 161.788 272.701 162.322 273.192C162.866 273.672 163.522 273.912 164.29 273.912C164.919 273.912 165.442 273.768 165.858 273.48C166.284 273.181 166.583 272.787 166.754 272.296H168.322C168.087 273.139 167.618 273.827 166.914 274.36C166.21 274.883 165.335 275.144 164.29 275.144C163.458 275.144 162.711 274.957 162.05 274.584C161.399 274.211 160.887 273.683 160.514 273C160.14 272.307 159.954 271.507 159.954 270.6C159.954 269.693 160.135 268.899 160.498 268.216C160.86 267.533 161.367 267.011 162.018 266.648C162.679 266.275 163.436 266.088 164.29 266.088C165.122 266.088 165.858 266.269 166.498 266.632C167.138 266.995 167.628 267.496 167.97 268.136C168.322 268.765 168.498 269.48 168.498 270.28ZM166.994 269.976C166.994 269.421 166.871 268.947 166.626 268.552C166.38 268.147 166.044 267.843 165.618 267.64C165.202 267.427 164.738 267.32 164.226 267.32C163.49 267.32 162.86 267.555 162.338 268.024C161.826 268.493 161.532 269.144 161.458 269.976H166.994ZM186.365 266.232L183.629 275H182.125L180.013 268.04L177.901 275H176.397L173.645 266.232H175.133L177.149 273.592L179.325 266.232H180.813L182.941 273.608L184.925 266.232H186.365ZM191.634 275.144C190.813 275.144 190.066 274.957 189.394 274.584C188.733 274.211 188.21 273.683 187.826 273C187.453 272.307 187.266 271.507 187.266 270.6C187.266 269.704 187.458 268.915 187.842 268.232C188.237 267.539 188.77 267.011 189.442 266.648C190.114 266.275 190.866 266.088 191.698 266.088C192.53 266.088 193.282 266.275 193.954 266.648C194.626 267.011 195.154 267.533 195.538 268.216C195.933 268.899 196.13 269.693 196.13 270.6C196.13 271.507 195.927 272.307 195.522 273C195.127 273.683 194.589 274.211 193.906 274.584C193.223 274.957 192.466 275.144 191.634 275.144ZM191.634 273.864C192.157 273.864 192.647 273.741 193.106 273.496C193.565 273.251 193.933 272.883 194.21 272.392C194.498 271.901 194.642 271.304 194.642 270.6C194.642 269.896 194.503 269.299 194.226 268.808C193.949 268.317 193.586 267.955 193.138 267.72C192.69 267.475 192.205 267.352 191.682 267.352C191.149 267.352 190.658 267.475 190.21 267.72C189.773 267.955 189.421 268.317 189.154 268.808C188.887 269.299 188.754 269.896 188.754 270.6C188.754 271.315 188.882 271.917 189.138 272.408C189.405 272.899 189.757 273.267 190.194 273.512C190.631 273.747 191.111 273.864 191.634 273.864ZM199.501 267.656C199.757 267.155 200.119 266.765 200.589 266.488C201.069 266.211 201.65 266.072 202.333 266.072V267.576H201.949C200.317 267.576 199.501 268.461 199.501 270.232V275H198.045V266.232H199.501V267.656ZM208.909 275L205.469 271.128V275H204.013V263.16H205.469V270.12L208.845 266.232H210.877L206.749 270.6L210.893 275H208.909ZM89.5708 294.6C89.5708 293.693 89.7521 292.904 90.1148 292.232C90.4775 291.549 90.9788 291.021 91.6188 290.648C92.2695 290.275 93.0108 290.088 93.8428 290.088C94.9201 290.088 95.8055 290.349 96.4988 290.872C97.2028 291.395 97.6668 292.12 97.8908 293.048H96.3228C96.1735 292.515 95.8801 292.093 95.4428 291.784C95.0161 291.475 94.4828 291.32 93.8428 291.32C93.0108 291.32 92.3388 291.608 91.8268 292.184C91.3148 292.749 91.0588 293.555 91.0588 294.6C91.0588 295.656 91.3148 296.472 91.8268 297.048C92.3388 297.624 93.0108 297.912 93.8428 297.912C94.4828 297.912 95.0161 297.763 95.4428 297.464C95.8695 297.165 96.1628 296.739 96.3228 296.184H97.8908C97.6561 297.08 97.1868 297.8 96.4828 298.344C95.7788 298.877 94.8988 299.144 93.8428 299.144C93.0108 299.144 92.2695 298.957 91.6188 298.584C90.9788 298.211 90.4775 297.683 90.1148 297C89.7521 296.317 89.5708 295.517 89.5708 294.6ZM99.2896 294.584C99.2896 293.688 99.4709 292.904 99.8336 292.232C100.196 291.549 100.692 291.021 101.322 290.648C101.962 290.275 102.671 290.088 103.45 290.088C104.218 290.088 104.884 290.253 105.45 290.584C106.015 290.915 106.436 291.331 106.714 291.832V290.232H108.186V299H106.714V297.368C106.426 297.88 105.994 298.307 105.418 298.648C104.852 298.979 104.191 299.144 103.434 299.144C102.655 299.144 101.951 298.952 101.322 298.568C100.692 298.184 100.196 297.645 99.8336 296.952C99.4709 296.259 99.2896 295.469 99.2896 294.584ZM106.714 294.6C106.714 293.939 106.58 293.363 106.314 292.872C106.047 292.381 105.684 292.008 105.226 291.752C104.778 291.485 104.282 291.352 103.738 291.352C103.194 291.352 102.698 291.48 102.25 291.736C101.802 291.992 101.444 292.365 101.178 292.856C100.911 293.347 100.778 293.923 100.778 294.584C100.778 295.256 100.911 295.843 101.178 296.344C101.444 296.835 101.802 297.213 102.25 297.48C102.698 297.736 103.194 297.864 103.738 297.864C104.282 297.864 104.778 297.736 105.226 297.48C105.684 297.213 106.047 296.835 106.314 296.344C106.58 295.843 106.714 295.261 106.714 294.6ZM112.422 291.432V296.6C112.422 297.027 112.513 297.331 112.694 297.512C112.875 297.683 113.19 297.768 113.638 297.768H114.71V299H113.398C112.587 299 111.979 298.813 111.574 298.44C111.169 298.067 110.966 297.453 110.966 296.6V291.432H109.83V290.232H110.966V288.024H112.422V290.232H114.71V291.432H112.422ZM124.474 294.28C124.474 294.557 124.458 294.851 124.426 295.16H117.418C117.472 296.024 117.765 296.701 118.298 297.192C118.842 297.672 119.498 297.912 120.266 297.912C120.896 297.912 121.418 297.768 121.834 297.48C122.261 297.181 122.56 296.787 122.73 296.296H124.298C124.064 297.139 123.594 297.827 122.89 298.36C122.186 298.883 121.312 299.144 120.266 299.144C119.434 299.144 118.688 298.957 118.026 298.584C117.376 298.211 116.864 297.683 116.49 297C116.117 296.307 115.93 295.507 115.93 294.6C115.93 293.693 116.112 292.899 116.474 292.216C116.837 291.533 117.344 291.011 117.994 290.648C118.656 290.275 119.413 290.088 120.266 290.088C121.098 290.088 121.834 290.269 122.474 290.632C123.114 290.995 123.605 291.496 123.946 292.136C124.298 292.765 124.474 293.48 124.474 294.28ZM122.97 293.976C122.97 293.421 122.848 292.947 122.602 292.552C122.357 292.147 122.021 291.843 121.594 291.64C121.178 291.427 120.714 291.32 120.202 291.32C119.466 291.32 118.837 291.555 118.314 292.024C117.802 292.493 117.509 293.144 117.434 293.976H122.97ZM130.012 290.088C130.769 290.088 131.431 290.253 131.996 290.584C132.572 290.915 132.999 291.331 133.276 291.832V290.232H134.748V299.192C134.748 299.992 134.577 300.701 134.236 301.32C133.895 301.949 133.404 302.44 132.764 302.792C132.135 303.144 131.399 303.32 130.556 303.32C129.404 303.32 128.444 303.048 127.676 302.504C126.908 301.96 126.455 301.219 126.316 300.28H127.756C127.916 300.813 128.247 301.24 128.748 301.56C129.249 301.891 129.852 302.056 130.556 302.056C131.356 302.056 132.007 301.805 132.508 301.304C133.02 300.803 133.276 300.099 133.276 299.192V297.352C132.988 297.864 132.561 298.291 131.996 298.632C131.431 298.973 130.769 299.144 130.012 299.144C129.233 299.144 128.524 298.952 127.884 298.568C127.255 298.184 126.759 297.645 126.396 296.952C126.033 296.259 125.852 295.469 125.852 294.584C125.852 293.688 126.033 292.904 126.396 292.232C126.759 291.549 127.255 291.021 127.884 290.648C128.524 290.275 129.233 290.088 130.012 290.088ZM133.276 294.6C133.276 293.939 133.143 293.363 132.876 292.872C132.609 292.381 132.247 292.008 131.788 291.752C131.34 291.485 130.844 291.352 130.3 291.352C129.756 291.352 129.26 291.48 128.812 291.736C128.364 291.992 128.007 292.365 127.74 292.856C127.473 293.347 127.34 293.923 127.34 294.584C127.34 295.256 127.473 295.843 127.74 296.344C128.007 296.835 128.364 297.213 128.812 297.48C129.26 297.736 129.756 297.864 130.3 297.864C130.844 297.864 131.34 297.736 131.788 297.48C132.247 297.213 132.609 296.835 132.876 296.344C133.143 295.843 133.276 295.261 133.276 294.6ZM141.033 299.144C140.211 299.144 139.465 298.957 138.793 298.584C138.131 298.211 137.609 297.683 137.225 297C136.851 296.307 136.665 295.507 136.665 294.6C136.665 293.704 136.857 292.915 137.241 292.232C137.635 291.539 138.169 291.011 138.841 290.648C139.513 290.275 140.265 290.088 141.097 290.088C141.929 290.088 142.681 290.275 143.353 290.648C144.025 291.011 144.553 291.533 144.937 292.216C145.331 292.899 145.529 293.693 145.529 294.6C145.529 295.507 145.326 296.307 144.921 297C144.526 297.683 143.987 298.211 143.305 298.584C142.622 298.957 141.865 299.144 141.033 299.144ZM141.033 297.864C141.555 297.864 142.046 297.741 142.505 297.496C142.963 297.251 143.331 296.883 143.609 296.392C143.897 295.901 144.041 295.304 144.041 294.6C144.041 293.896 143.902 293.299 143.625 292.808C143.347 292.317 142.985 291.955 142.537 291.72C142.089 291.475 141.603 291.352 141.081 291.352C140.547 291.352 140.057 291.475 139.609 291.72C139.171 291.955 138.819 292.317 138.553 292.808C138.286 293.299 138.153 293.896 138.153 294.6C138.153 295.315 138.281 295.917 138.537 296.408C138.803 296.899 139.155 297.267 139.593 297.512C140.03 297.747 140.51 297.864 141.033 297.864ZM148.899 291.656C149.155 291.155 149.518 290.765 149.987 290.488C150.467 290.211 151.048 290.072 151.731 290.072V291.576H151.347C149.715 291.576 148.899 292.461 148.899 294.232V299H147.443V290.232H148.899V291.656ZM154.164 288.808C153.886 288.808 153.652 288.712 153.46 288.52C153.268 288.328 153.172 288.093 153.172 287.816C153.172 287.539 153.268 287.304 153.46 287.112C153.652 286.92 153.886 286.824 154.164 286.824C154.43 286.824 154.654 286.92 154.836 287.112C155.028 287.304 155.124 287.539 155.124 287.816C155.124 288.093 155.028 288.328 154.836 288.52C154.654 288.712 154.43 288.808 154.164 288.808ZM154.868 290.232V299H153.412V290.232H154.868ZM165.349 294.28C165.349 294.557 165.333 294.851 165.301 295.16H158.293C158.347 296.024 158.64 296.701 159.173 297.192C159.717 297.672 160.373 297.912 161.141 297.912C161.771 297.912 162.293 297.768 162.709 297.48C163.136 297.181 163.435 296.787 163.605 296.296H165.173C164.939 297.139 164.469 297.827 163.765 298.36C163.061 298.883 162.187 299.144 161.141 299.144C160.309 299.144 159.563 298.957 158.901 298.584C158.251 298.211 157.739 297.683 157.365 297C156.992 296.307 156.805 295.507 156.805 294.6C156.805 293.693 156.987 292.899 157.349 292.216C157.712 291.533 158.219 291.011 158.869 290.648C159.531 290.275 160.288 290.088 161.141 290.088C161.973 290.088 162.709 290.269 163.349 290.632C163.989 290.995 164.48 291.496 164.821 292.136C165.173 292.765 165.349 293.48 165.349 294.28ZM163.845 293.976C163.845 293.421 163.723 292.947 163.477 292.552C163.232 292.147 162.896 291.843 162.469 291.64C162.053 291.427 161.589 291.32 161.077 291.32C160.341 291.32 159.712 291.555 159.189 292.024C158.677 292.493 158.384 293.144 158.309 293.976H163.845ZM170.375 299.144C169.703 299.144 169.1 299.032 168.567 298.808C168.034 298.573 167.612 298.253 167.303 297.848C166.994 297.432 166.823 296.957 166.791 296.424H168.295C168.338 296.861 168.54 297.219 168.903 297.496C169.276 297.773 169.762 297.912 170.359 297.912C170.914 297.912 171.351 297.789 171.671 297.544C171.991 297.299 172.151 296.989 172.151 296.616C172.151 296.232 171.98 295.949 171.639 295.768C171.298 295.576 170.77 295.389 170.055 295.208C169.404 295.037 168.871 294.867 168.455 294.696C168.05 294.515 167.698 294.253 167.399 293.912C167.111 293.56 166.967 293.101 166.967 292.536C166.967 292.088 167.1 291.677 167.367 291.304C167.634 290.931 168.012 290.637 168.503 290.424C168.994 290.2 169.554 290.088 170.183 290.088C171.154 290.088 171.938 290.333 172.535 290.824C173.132 291.315 173.452 291.987 173.495 292.84H172.039C172.007 292.381 171.82 292.013 171.479 291.736C171.148 291.459 170.7 291.32 170.135 291.32C169.612 291.32 169.196 291.432 168.887 291.656C168.578 291.88 168.423 292.173 168.423 292.536C168.423 292.824 168.514 293.064 168.695 293.256C168.887 293.437 169.122 293.587 169.399 293.704C169.687 293.811 170.082 293.933 170.583 294.072C171.212 294.243 171.724 294.413 172.119 294.584C172.514 294.744 172.85 294.989 173.127 295.32C173.415 295.651 173.564 296.083 173.575 296.616C173.575 297.096 173.442 297.528 173.175 297.912C172.908 298.296 172.53 298.6 172.039 298.824C171.559 299.037 171.004 299.144 170.375 299.144ZM176.094 299.096C175.817 299.096 175.582 299 175.39 298.808C175.198 298.616 175.102 298.381 175.102 298.104C175.102 297.827 175.198 297.592 175.39 297.4C175.582 297.208 175.817 297.112 176.094 297.112C176.361 297.112 176.585 297.208 176.766 297.4C176.958 297.592 177.054 297.827 177.054 298.104C177.054 298.381 176.958 298.616 176.766 298.808C176.585 299 176.361 299.096 176.094 299.096ZM179.454 299.096C179.176 299.096 178.942 299 178.75 298.808C178.558 298.616 178.462 298.381 178.462 298.104C178.462 297.827 178.558 297.592 178.75 297.4C178.942 297.208 179.176 297.112 179.454 297.112C179.72 297.112 179.944 297.208 180.126 297.4C180.318 297.592 180.414 297.827 180.414 298.104C180.414 298.381 180.318 298.616 180.126 298.808C179.944 299 179.72 299.096 179.454 299.096Z" fill="black"/>
</svg>
